G04 EAGLE Gerber RS-274X export*
G75*
%MOMM*%
%FSLAX34Y34*%
%LPD*%
%INSolder stop mask*%
%IPPOS*%
%AMOC8*
5,1,8,0,0,$1,22.5*%
G01*
%ADD10C,2.3032*%
%ADD11R,0.8382X1.4732*%
G36*
X0495005Y0719999D02*
X0495005Y0719999D01*
X0495005Y0720000D01*
X0495005Y0739997D01*
X0505004Y0749996D01*
X0505004Y0749999D01*
X0505005Y0750000D01*
X0505005Y0770000D01*
X0505002Y0770002D01*
X0505004Y0770004D01*
X0495005Y0780002D01*
X0495005Y0800000D01*
X0495001Y0800005D01*
X0495000Y0800005D01*
X0475000Y0800005D01*
X0474995Y0800001D01*
X0474995Y0800000D01*
X0474995Y0780002D01*
X0464996Y0770004D01*
X0464996Y0770002D01*
X0464996Y0770001D01*
X0464995Y0770000D01*
X0464995Y0750000D01*
X0464997Y0749997D01*
X0464996Y0749996D01*
X0474995Y0739997D01*
X0474995Y0720000D01*
X0474998Y0719995D01*
X0475000Y0719995D01*
X0495000Y0719995D01*
X0495005Y0719999D01*
G37*
D10*
X0485000Y0830000D03*
X0485000Y0670000D03*
D11*
X0416936Y0795000D03*
X0425064Y0795000D03*
X0416936Y0775000D03*
X0425064Y0775000D03*
X0416936Y0755000D03*
X0425064Y0755000D03*
X0416936Y0735000D03*
X0425064Y0735000D03*
X0416936Y0715000D03*
X0425064Y0715000D03*
M02*