G04 EAGLE Gerber RS-274X export*
G75*
%MOMM*%
%FSLAX34Y34*%
%LPD*%
%INComponent side*%
%IPPOS*%
%AMOC8*
5,1,8,0,0,$1,22.5*%
G01*
%ADD10R,2X0.6*%
%ADD11R,2.9X2.6*%
%ADD12R,0.45X1.45*%
%ADD13C,0.25*%
%ADD14C,0.125*%
%ADD15R,0.2X0.3*%
%ADD16C,0.15*%
%ADD17C,0.13*%
%ADD18C,0.7564*%
%ADD19C,0.3*%
G36*
X0499139Y0746713D02*
X0499139Y0746713D01*
X0499208Y0746715D01*
X0499309Y0746741D01*
X0499412Y0746758D01*
X0499476Y0746785D01*
X0499542Y0746802D01*
X0499634Y0746851D01*
X0499731Y0746891D01*
X0499787Y0746931D01*
X0499848Y0746964D01*
X0499927Y0747032D01*
X0500011Y0747093D01*
X0500057Y0747145D01*
X0500109Y0747191D01*
X0500169Y0747274D01*
X0500238Y0747354D01*
X0500270Y0747415D01*
X0500311Y0747471D01*
X0500349Y0747568D01*
X0500399Y0747660D01*
X0500416Y0747727D01*
X0500443Y0747791D01*
X0500459Y0747894D01*
X0500485Y0747995D01*
X0500492Y0748099D01*
X0500498Y0748132D01*
X0500496Y0748155D01*
X0500499Y0748199D01*
X0500499Y0757915D01*
X0500483Y0758053D01*
X0500473Y0758192D01*
X0500463Y0758225D01*
X0500459Y0758258D01*
X0500412Y0758389D01*
X0500371Y0758523D01*
X0500353Y0758552D01*
X0500342Y0758584D01*
X0500266Y0758700D01*
X0500195Y0758820D01*
X0500165Y0758854D01*
X0500152Y0758873D01*
X0500129Y0758896D01*
X0500060Y0758975D01*
X0486725Y0772310D01*
X0486616Y0772397D01*
X0486509Y0772488D01*
X0486479Y0772504D01*
X0486454Y0772525D01*
X0486328Y0772584D01*
X0486204Y0772649D01*
X0486171Y0772657D01*
X0486141Y0772672D01*
X0486004Y0772700D01*
X0485870Y0772735D01*
X0485824Y0772738D01*
X0485803Y0772743D01*
X0485769Y0772742D01*
X0485665Y0772749D01*
X0479518Y0772749D01*
X0479402Y0772736D01*
X0479286Y0772731D01*
X0479231Y0772716D01*
X0479174Y0772709D01*
X0479065Y0772670D01*
X0478952Y0772639D01*
X0478879Y0772603D01*
X0478849Y0772591D01*
X0478825Y0772576D01*
X0478768Y0772548D01*
X0478481Y0772382D01*
X0477835Y0772209D01*
X0476749Y0772209D01*
X0476749Y0775000D01*
X0476745Y0775035D01*
X0476748Y0775070D01*
X0476725Y0775207D01*
X0476710Y0775343D01*
X0476697Y0775377D01*
X0476692Y0775412D01*
X0476639Y0775539D01*
X0476592Y0775669D01*
X0476573Y0775698D01*
X0476559Y0775731D01*
X0476479Y0775843D01*
X0476402Y0775958D01*
X0476378Y0775983D01*
X0476357Y0776011D01*
X0476252Y0776102D01*
X0476153Y0776197D01*
X0476123Y0776215D01*
X0476096Y0776238D01*
X0475973Y0776302D01*
X0475854Y0776372D01*
X0475820Y0776382D01*
X0475790Y0776399D01*
X0475656Y0776433D01*
X0475525Y0776474D01*
X0475489Y0776476D01*
X0475455Y0776485D01*
X0475250Y0776499D01*
X0475215Y0776495D01*
X0475180Y0776498D01*
X0475179Y0776498D01*
X0475043Y0776475D01*
X0474906Y0776459D01*
X0474873Y0776447D01*
X0474838Y0776442D01*
X0474711Y0776389D01*
X0474581Y0776341D01*
X0474551Y0776323D01*
X0474519Y0776309D01*
X0474407Y0776228D01*
X0474292Y0776153D01*
X0474266Y0776127D01*
X0474238Y0776107D01*
X0474148Y0776003D01*
X0474052Y0775903D01*
X0474035Y0775872D01*
X0474012Y0775846D01*
X0473948Y0775723D01*
X0473878Y0775605D01*
X0473868Y0775571D01*
X0473851Y0775539D01*
X0473817Y0775406D01*
X0473776Y0775274D01*
X0473773Y0775239D01*
X0473765Y0775205D01*
X0473751Y0775000D01*
X0473751Y0772209D01*
X0472665Y0772209D01*
X0472019Y0772382D01*
X0471750Y0772538D01*
X0471675Y0772570D01*
X0471605Y0772612D01*
X0471517Y0772639D01*
X0471432Y0772675D01*
X0471352Y0772690D01*
X0471274Y0772714D01*
X0471183Y0772720D01*
X0471092Y0772736D01*
X0471011Y0772732D01*
X0470929Y0772737D01*
X0470839Y0772722D01*
X0470747Y0772717D01*
X0470668Y0772694D01*
X0470588Y0772681D01*
X0470503Y0772646D01*
X0470415Y0772620D01*
X0470344Y0772580D01*
X0470269Y0772548D01*
X0470194Y0772495D01*
X0470114Y0772449D01*
X0470055Y0772394D01*
X0469989Y0772346D01*
X0469928Y0772277D01*
X0469861Y0772214D01*
X0469814Y0772146D01*
X0469762Y0772085D01*
X0469719Y0772004D01*
X0469668Y0771927D01*
X0469639Y0771851D01*
X0469600Y0771778D01*
X0469578Y0771690D01*
X0469546Y0771604D01*
X0469535Y0771523D01*
X0469515Y0771444D01*
X0469504Y0771281D01*
X0469501Y0771260D01*
X0469502Y0771253D01*
X0469501Y0771240D01*
X0469501Y0765492D01*
X0469517Y0765354D01*
X0469527Y0765214D01*
X0469537Y0765182D01*
X0469540Y0765149D01*
X0469587Y0765018D01*
X0469629Y0764884D01*
X0469647Y0764855D01*
X0469658Y0764823D01*
X0469734Y0764706D01*
X0469805Y0764586D01*
X0469835Y0764552D01*
X0469847Y0764534D01*
X0469871Y0764511D01*
X0469940Y0764432D01*
X0470820Y0763550D01*
X0470820Y0754720D01*
X0470824Y0754685D01*
X0470822Y0754649D01*
X0470845Y0754513D01*
X0470861Y0754377D01*
X0470873Y0754343D01*
X0470878Y0754308D01*
X0470931Y0754181D01*
X0470978Y0754051D01*
X0470997Y0754021D01*
X0471011Y0753989D01*
X0471092Y0753877D01*
X0471167Y0753762D01*
X0471193Y0753737D01*
X0471213Y0753709D01*
X0471317Y0753618D01*
X0471417Y0753523D01*
X0471448Y0753505D01*
X0471474Y0753482D01*
X0471597Y0753418D01*
X0471715Y0753348D01*
X0471749Y0753338D01*
X0471781Y0753321D01*
X0471914Y0753287D01*
X0472046Y0753246D01*
X0472081Y0753244D01*
X0472115Y0753235D01*
X0472320Y0753221D01*
X0483137Y0753221D01*
X0488668Y0747690D01*
X0488777Y0747603D01*
X0488882Y0747512D01*
X0488912Y0747496D01*
X0488939Y0747475D01*
X0489065Y0747416D01*
X0489189Y0747351D01*
X0489221Y0747343D01*
X0489252Y0747328D01*
X0489388Y0747300D01*
X0489523Y0747265D01*
X0489568Y0747262D01*
X0489590Y0747257D01*
X0489624Y0747257D01*
X0489728Y0747251D01*
X0497829Y0747251D01*
X0497939Y0747140D01*
X0498022Y0747075D01*
X0498097Y0747003D01*
X0498157Y0746968D01*
X0498211Y0746925D01*
X0498305Y0746881D01*
X0498395Y0746828D01*
X0498461Y0746807D01*
X0498524Y0746778D01*
X0498626Y0746757D01*
X0498726Y0746726D01*
X0498795Y0746721D01*
X0498862Y0746707D01*
X0498966Y0746709D01*
X0499071Y0746701D01*
X0499139Y0746713D01*
G37*
D10*
X0404500Y0795000D03*
X0439500Y0785000D03*
X0404500Y0775000D03*
X0439500Y0765000D03*
X0404500Y0755000D03*
X0439500Y0745000D03*
X0404500Y0735000D03*
X0439500Y0725000D03*
X0404500Y0715000D03*
X0439500Y0705000D03*
D11*
X0422000Y0819000D03*
X0422000Y0681000D03*
D12*
X0494750Y0782000D03*
X0488250Y0782000D03*
X0481750Y0782000D03*
X0475250Y0782000D03*
X0475250Y0738000D03*
X0481750Y0738000D03*
X0488250Y0738000D03*
X0494750Y0738000D03*
D13*
X0457525Y0784350D02*
X0455025Y0784350D01*
X0455025Y0786850D01*
X0457525Y0786850D01*
X0457525Y0784350D01*
X0457525Y0786725D02*
X0455025Y0786725D01*
X0464275Y0784350D02*
X0466775Y0784350D01*
X0464275Y0784350D02*
X0464275Y0786850D01*
X0466775Y0786850D01*
X0466775Y0784350D01*
X0466775Y0786725D02*
X0464275Y0786725D01*
X0493825Y0720250D02*
X0496325Y0720250D01*
X0493825Y0720250D02*
X0493825Y0722750D01*
X0496325Y0722750D01*
X0496325Y0720250D01*
X0496325Y0722625D02*
X0493825Y0722625D01*
X0503075Y0720250D02*
X0505575Y0720250D01*
X0503075Y0720250D02*
X0503075Y0722750D01*
X0505575Y0722750D01*
X0505575Y0720250D01*
X0505575Y0722625D02*
X0503075Y0722625D01*
D10*
X0565500Y0705000D03*
X0530500Y0715000D03*
X0565500Y0725000D03*
X0530500Y0735000D03*
X0565500Y0745000D03*
X0530500Y0755000D03*
X0565500Y0765000D03*
X0530500Y0775000D03*
X0565500Y0785000D03*
X0530500Y0795000D03*
D11*
X0548000Y0681000D03*
X0548000Y0819000D03*
D14*
X0465289Y0769975D02*
X0461539Y0769975D01*
X0465289Y0769975D02*
X0465289Y0766225D01*
X0461539Y0766225D01*
X0461539Y0769975D01*
X0461539Y0767411D02*
X0465289Y0767411D01*
X0465289Y0768599D02*
X0461539Y0768599D01*
X0461539Y0769786D02*
X0465289Y0769786D01*
X0458661Y0769975D02*
X0454911Y0769975D01*
X0458661Y0769975D02*
X0458661Y0766225D01*
X0454911Y0766225D01*
X0454911Y0769975D01*
X0454911Y0767411D02*
X0458661Y0767411D01*
X0458661Y0768599D02*
X0454911Y0768599D01*
X0454911Y0769786D02*
X0458661Y0769786D01*
X0461639Y0751375D02*
X0465389Y0751375D01*
X0465389Y0747625D01*
X0461639Y0747625D01*
X0461639Y0751375D01*
X0461639Y0748812D02*
X0465389Y0748812D01*
X0465389Y0749999D02*
X0461639Y0749999D01*
X0461639Y0751186D02*
X0465389Y0751186D01*
X0458761Y0751375D02*
X0455011Y0751375D01*
X0458761Y0751375D02*
X0458761Y0747625D01*
X0455011Y0747625D01*
X0455011Y0751375D01*
X0455011Y0748812D02*
X0458761Y0748812D01*
X0458761Y0749999D02*
X0455011Y0749999D01*
X0455011Y0751186D02*
X0458761Y0751186D01*
X0461639Y0732875D02*
X0465389Y0732875D01*
X0465389Y0729125D01*
X0461639Y0729125D01*
X0461639Y0732875D01*
X0461639Y0730312D02*
X0465389Y0730312D01*
X0465389Y0731499D02*
X0461639Y0731499D01*
X0461639Y0732685D02*
X0465389Y0732685D01*
X0458761Y0732875D02*
X0455011Y0732875D01*
X0458761Y0732875D02*
X0458761Y0729125D01*
X0455011Y0729125D01*
X0455011Y0732875D01*
X0455011Y0730312D02*
X0458761Y0730312D01*
X0458761Y0731499D02*
X0455011Y0731499D01*
X0455011Y0732685D02*
X0458761Y0732685D01*
D15*
X0475000Y0718500D03*
X0479000Y0718500D03*
X0483000Y0718500D03*
X0487000Y0718500D03*
X0487000Y0724500D03*
X0483000Y0724500D03*
X0479000Y0724500D03*
X0475000Y0724500D03*
D16*
X0463514Y0731000D02*
X0468814Y0736300D01*
X0473550Y0736300D02*
X0475250Y0738000D01*
X0473550Y0736300D02*
X0468814Y0736300D01*
X0476750Y0733100D02*
X0476750Y0729611D01*
X0476750Y0733100D02*
X0473550Y0736300D01*
X0479000Y0727360D02*
X0479000Y0724500D01*
X0479000Y0727360D02*
X0476750Y0729611D01*
X0481850Y0738100D02*
X0481850Y0745489D01*
X0481850Y0738100D02*
X0481750Y0738000D01*
X0481850Y0745489D02*
X0479239Y0748100D01*
X0468100Y0748100D01*
X0466700Y0749500D01*
X0463514Y0749500D01*
X0482750Y0724750D02*
X0483000Y0724500D01*
X0481750Y0728528D02*
X0481750Y0738000D01*
X0482750Y0727527D02*
X0482750Y0724750D01*
X0482750Y0727527D02*
X0481750Y0728528D01*
X0488250Y0738000D02*
X0488250Y0745250D01*
X0482300Y0751200D02*
X0470800Y0751200D01*
X0468800Y0753199D01*
X0468800Y0762714D02*
X0463414Y0768100D01*
X0482300Y0751200D02*
X0488250Y0745250D01*
X0468800Y0753199D02*
X0468800Y0762714D01*
X0486800Y0724700D02*
X0487000Y0724500D01*
X0486800Y0724700D02*
X0486800Y0733350D01*
X0488250Y0734800D02*
X0488250Y0738000D01*
X0488250Y0734800D02*
X0486800Y0733350D01*
D17*
X0506830Y0730613D02*
X0506830Y0727987D01*
X0517849Y0716966D01*
X0517849Y0714487D01*
X0515717Y0716620D01*
X0508168Y0716620D01*
X0508301Y0716697D01*
X0509128Y0717524D01*
X0509711Y0718536D01*
X0510015Y0719665D01*
X0510015Y0720900D01*
X0504925Y0720900D01*
X0504925Y0722099D01*
X0510015Y0722099D01*
X0510015Y0723335D01*
X0509711Y0724464D01*
X0509128Y0725476D01*
X0508301Y0726303D01*
X0507288Y0726887D01*
X0506160Y0727189D01*
X0504925Y0727189D01*
X0504925Y0722099D01*
X0503725Y0722099D01*
X0503725Y0727189D01*
X0502490Y0727189D01*
X0501361Y0726887D01*
X0500349Y0726303D01*
X0499522Y0725476D01*
X0499373Y0725218D01*
X0498170Y0726420D01*
X0498170Y0728172D01*
X0499650Y0729652D01*
X0499650Y0746348D01*
X0498097Y0747899D01*
X0489376Y0747899D01*
X0483406Y0753870D01*
X0471906Y0753870D01*
X0471470Y0754306D01*
X0471470Y0763820D01*
X0469906Y0765384D01*
X0468564Y0766726D01*
X0468564Y0771332D01*
X0466646Y0773250D01*
X0460206Y0773250D01*
X0460206Y0773844D01*
X0465693Y0780450D01*
X0468390Y0780450D01*
X0470415Y0782475D01*
X0474775Y0782475D01*
X0474775Y0781525D01*
X0469810Y0781525D01*
X0469810Y0774329D01*
X0470027Y0773519D01*
X0470447Y0772791D01*
X0471041Y0772197D01*
X0471769Y0771777D01*
X0472579Y0771560D01*
X0474775Y0771560D01*
X0474775Y0781525D01*
X0475725Y0781525D01*
X0475725Y0771560D01*
X0477920Y0771560D01*
X0478731Y0771777D01*
X0479290Y0772100D01*
X0486017Y0772100D01*
X0506830Y0751287D01*
X0506830Y0730613D01*
X0475000Y0718500D02*
X0475000Y0718500D01*
X0479000Y0718500D01*
X0479000Y0718500D01*
X0478810Y0718500D01*
X0475000Y0718500D01*
X0479000Y0718500D02*
X0479000Y0718500D01*
X0483000Y0718500D01*
X0483000Y0718500D01*
X0482810Y0718500D01*
X0479000Y0718500D01*
X0460073Y0725849D02*
X0458630Y0724406D01*
X0460073Y0725849D02*
X0460118Y0725849D01*
X0460199Y0725932D01*
X0460282Y0725849D01*
X0466746Y0725849D01*
X0468664Y0727768D01*
X0468664Y0732373D01*
X0469920Y0733630D01*
X0470349Y0733630D01*
X0470349Y0729652D01*
X0471902Y0728100D01*
X0472352Y0728100D01*
X0471350Y0727098D01*
X0471350Y0721902D01*
X0471391Y0721861D01*
X0471027Y0721230D01*
X0470810Y0720420D01*
X0470810Y0718500D01*
X0475000Y0718500D01*
X0475000Y0718500D01*
X0470810Y0718500D01*
X0470810Y0716620D01*
X0466417Y0716620D01*
X0458630Y0724406D01*
X0483000Y0718500D02*
X0483000Y0718500D01*
X0487000Y0718500D01*
X0487000Y0718500D01*
X0483000Y0718500D01*
X0543150Y0773687D02*
X0543150Y0779098D01*
X0541598Y0780650D01*
X0519402Y0780650D01*
X0517849Y0779098D01*
X0517849Y0770902D01*
X0519402Y0769350D01*
X0537813Y0769350D01*
X0543180Y0763983D01*
X0543180Y0712617D01*
X0543150Y0712587D01*
X0543150Y0719098D01*
X0541598Y0720650D01*
X0523133Y0720650D01*
X0513170Y0730613D01*
X0513170Y0753913D01*
X0494983Y0772100D01*
X0495717Y0772100D01*
X0513530Y0754286D01*
X0513530Y0739487D01*
X0517849Y0735167D01*
X0517849Y0730902D01*
X0519402Y0729350D01*
X0541598Y0729350D01*
X0543150Y0730902D01*
X0543150Y0739098D01*
X0541598Y0740650D01*
X0521333Y0740650D01*
X0519870Y0742113D01*
X0519870Y0749350D01*
X0541598Y0749350D01*
X0543150Y0750902D01*
X0543150Y0759098D01*
X0541598Y0760650D01*
X0519402Y0760650D01*
X0517849Y0759098D01*
X0517849Y0758933D01*
X0499650Y0777133D01*
X0499650Y0790348D01*
X0498170Y0791828D01*
X0498170Y0798313D01*
X0496312Y0800170D01*
X0489013Y0807470D01*
X0439690Y0807470D01*
X0439690Y0818350D01*
X0422650Y0818350D01*
X0422650Y0819650D01*
X0439690Y0819650D01*
X0439690Y0832420D01*
X0439473Y0833231D01*
X0439052Y0833959D01*
X0438459Y0834552D01*
X0437731Y0834973D01*
X0436920Y0835190D01*
X0422650Y0835190D01*
X0422650Y0819650D01*
X0421350Y0819650D01*
X0421350Y0835190D01*
X0407080Y0835190D01*
X0406269Y0834973D01*
X0405541Y0834552D01*
X0404947Y0833959D01*
X0404527Y0833231D01*
X0404310Y0832420D01*
X0404310Y0819650D01*
X0421350Y0819650D01*
X0421350Y0818350D01*
X0404310Y0818350D01*
X0404310Y0805579D01*
X0404527Y0804769D01*
X0404947Y0804041D01*
X0405541Y0803447D01*
X0406269Y0803027D01*
X0407080Y0802810D01*
X0421350Y0802810D01*
X0421350Y0818350D01*
X0422650Y0818350D01*
X0422650Y0802810D01*
X0433627Y0802810D01*
X0419968Y0789152D01*
X0419968Y0780020D01*
X0419536Y0780453D01*
X0417172Y0781432D01*
X0414614Y0781432D01*
X0412725Y0780650D01*
X0394650Y0780650D01*
X0394650Y0789350D01*
X0413091Y0789350D01*
X0414721Y0788675D01*
X0417279Y0788675D01*
X0419643Y0789654D01*
X0421453Y0791464D01*
X0422432Y0793828D01*
X0422432Y0796386D01*
X0421453Y0798750D01*
X0419643Y0800560D01*
X0417279Y0801538D01*
X0414721Y0801538D01*
X0412573Y0800650D01*
X0394650Y0800650D01*
X0394650Y0810000D01*
X0394951Y0814614D01*
X0397341Y0823528D01*
X0397341Y0823528D01*
X0401955Y0831520D01*
X0408480Y0838045D01*
X0416472Y0842659D01*
X0425386Y0845048D01*
X0430000Y0845350D01*
X0471860Y0845350D01*
X0468294Y0842137D01*
X0468294Y0842137D01*
X0464801Y0834293D01*
X0464801Y0825707D01*
X0468294Y0817862D01*
X0468294Y0817862D01*
X0468294Y0817862D01*
X0474675Y0812117D01*
X0474675Y0812117D01*
X0482841Y0809463D01*
X0482842Y0809463D01*
X0491381Y0810361D01*
X0498818Y0814654D01*
X0498818Y0814654D01*
X0503865Y0821601D01*
X0505650Y0830000D01*
X0505650Y0830000D01*
X0503865Y0838399D01*
X0503865Y0838399D01*
X0498818Y0845346D01*
X0498818Y0845346D01*
X0498818Y0845346D01*
X0498810Y0845350D01*
X0540000Y0845350D01*
X0544614Y0845048D01*
X0553528Y0842659D01*
X0561520Y0838045D01*
X0568045Y0831520D01*
X0572659Y0823528D01*
X0575048Y0814614D01*
X0575350Y0810000D01*
X0575350Y0790650D01*
X0558167Y0790650D01*
X0556279Y0791432D01*
X0553721Y0791432D01*
X0551357Y0790453D01*
X0549547Y0788643D01*
X0548568Y0786279D01*
X0548568Y0783721D01*
X0549547Y0781357D01*
X0551357Y0779547D01*
X0553721Y0778567D01*
X0556279Y0778567D01*
X0558167Y0779350D01*
X0575350Y0779350D01*
X0575350Y0770650D01*
X0558167Y0770650D01*
X0556279Y0771432D01*
X0553721Y0771432D01*
X0551357Y0770453D01*
X0549547Y0768643D01*
X0549151Y0767685D01*
X0543150Y0773687D01*
X0529850Y0788810D02*
X0529850Y0794350D01*
X0531150Y0794350D01*
X0531150Y0788810D01*
X0540920Y0788810D01*
X0541731Y0789027D01*
X0542459Y0789447D01*
X0543053Y0790040D01*
X0543473Y0790769D01*
X0543690Y0791580D01*
X0543690Y0794350D01*
X0531150Y0794350D01*
X0531150Y0795650D01*
X0543690Y0795650D01*
X0543690Y0798420D01*
X0543473Y0799231D01*
X0543053Y0799959D01*
X0542459Y0800553D01*
X0541731Y0800973D01*
X0540920Y0801190D01*
X0531150Y0801190D01*
X0531150Y0795650D01*
X0529850Y0795650D01*
X0529850Y0801190D01*
X0520079Y0801190D01*
X0519269Y0800973D01*
X0518541Y0800553D01*
X0517947Y0799959D01*
X0517527Y0799231D01*
X0517310Y0798420D01*
X0517310Y0795650D01*
X0529850Y0795650D01*
X0529850Y0794350D01*
X0517310Y0794350D01*
X0517310Y0791580D01*
X0517527Y0790769D01*
X0517947Y0790040D01*
X0518541Y0789447D01*
X0519269Y0789027D01*
X0520079Y0788810D01*
X0529850Y0788810D01*
X0548650Y0818350D02*
X0565690Y0818350D01*
X0548650Y0818350D02*
X0548650Y0819650D01*
X0565690Y0819650D01*
X0565690Y0832420D01*
X0565473Y0833231D01*
X0565053Y0833959D01*
X0564459Y0834552D01*
X0563731Y0834973D01*
X0562920Y0835190D01*
X0548650Y0835190D01*
X0548650Y0819650D01*
X0547350Y0819650D01*
X0547350Y0835190D01*
X0533080Y0835190D01*
X0532269Y0834973D01*
X0531541Y0834552D01*
X0530947Y0833959D01*
X0530527Y0833231D01*
X0530310Y0832420D01*
X0530310Y0819650D01*
X0547350Y0819650D01*
X0547350Y0818350D01*
X0530310Y0818350D01*
X0530310Y0805579D01*
X0530527Y0804769D01*
X0530947Y0804041D01*
X0531541Y0803447D01*
X0532269Y0803027D01*
X0533080Y0802810D01*
X0547350Y0802810D01*
X0547350Y0818350D01*
X0548650Y0818350D01*
X0548650Y0802810D01*
X0562920Y0802810D01*
X0563731Y0803027D01*
X0564459Y0803447D01*
X0565053Y0804041D01*
X0565473Y0804769D01*
X0565690Y0805579D01*
X0565690Y0818350D01*
X0440150Y0711190D02*
X0440150Y0705650D01*
X0438850Y0705650D01*
X0438850Y0711190D01*
X0429080Y0711190D01*
X0428269Y0710973D01*
X0427541Y0710553D01*
X0426947Y0709959D01*
X0426527Y0709231D01*
X0426310Y0708420D01*
X0426310Y0705650D01*
X0438850Y0705650D01*
X0438850Y0704350D01*
X0426310Y0704350D01*
X0426310Y0703466D01*
X0419883Y0709893D01*
X0421453Y0711464D01*
X0422432Y0713828D01*
X0422432Y0716386D01*
X0421453Y0718750D01*
X0419643Y0720560D01*
X0417279Y0721538D01*
X0414721Y0721538D01*
X0412573Y0720650D01*
X0394650Y0720650D01*
X0394650Y0729350D01*
X0413091Y0729350D01*
X0414721Y0728675D01*
X0417279Y0728675D01*
X0419643Y0729654D01*
X0421453Y0731464D01*
X0422432Y0733828D01*
X0422432Y0736386D01*
X0421453Y0738750D01*
X0419643Y0740560D01*
X0417279Y0741538D01*
X0414721Y0741538D01*
X0412573Y0740650D01*
X0394650Y0740650D01*
X0394650Y0749350D01*
X0413091Y0749350D01*
X0414721Y0748675D01*
X0417279Y0748675D01*
X0419643Y0749654D01*
X0421453Y0751464D01*
X0422432Y0753828D01*
X0422432Y0756386D01*
X0421453Y0758750D01*
X0419643Y0760560D01*
X0417279Y0761538D01*
X0414721Y0761538D01*
X0412573Y0760650D01*
X0394650Y0760650D01*
X0394650Y0769350D01*
X0412725Y0769350D01*
X0414614Y0768567D01*
X0417172Y0768567D01*
X0419536Y0769547D01*
X0421346Y0771357D01*
X0421625Y0772031D01*
X0421826Y0771829D01*
X0426850Y0766806D01*
X0426850Y0760902D01*
X0428402Y0759350D01*
X0450598Y0759350D01*
X0452150Y0760902D01*
X0452150Y0764355D01*
X0453366Y0763138D01*
X0453366Y0754362D01*
X0451736Y0752732D01*
X0451736Y0749512D01*
X0450598Y0750650D01*
X0428402Y0750650D01*
X0426850Y0749098D01*
X0426850Y0740902D01*
X0428402Y0739350D01*
X0450598Y0739350D01*
X0452150Y0740902D01*
X0452150Y0745855D01*
X0453466Y0744538D01*
X0453466Y0735962D01*
X0451736Y0734232D01*
X0451736Y0729512D01*
X0450598Y0730650D01*
X0428402Y0730650D01*
X0426850Y0729098D01*
X0426850Y0720902D01*
X0428402Y0719350D01*
X0450598Y0719350D01*
X0451828Y0720579D01*
X0452783Y0720579D01*
X0463583Y0709780D01*
X0512883Y0709780D01*
X0515880Y0706783D01*
X0515880Y0706783D01*
X0517780Y0704883D01*
X0517179Y0705132D01*
X0514621Y0705132D01*
X0512257Y0704153D01*
X0510690Y0702586D01*
X0504606Y0708670D01*
X0464894Y0708670D01*
X0463330Y0707106D01*
X0457894Y0701670D01*
X0452690Y0701670D01*
X0452690Y0704350D01*
X0440150Y0704350D01*
X0440150Y0705650D01*
X0452690Y0705650D01*
X0452690Y0708420D01*
X0452473Y0709231D01*
X0452053Y0709959D01*
X0451459Y0710553D01*
X0450730Y0710973D01*
X0449920Y0711190D01*
X0440150Y0711190D01*
X0422650Y0697189D02*
X0422650Y0681650D01*
X0421350Y0681650D01*
X0421350Y0697189D01*
X0407080Y0697189D01*
X0406269Y0696973D01*
X0405541Y0696553D01*
X0404947Y0695959D01*
X0404527Y0695231D01*
X0404310Y0694420D01*
X0404310Y0681650D01*
X0421350Y0681650D01*
X0421350Y0680350D01*
X0404310Y0680350D01*
X0404310Y0667580D01*
X0404527Y0666769D01*
X0404947Y0666041D01*
X0405541Y0665447D01*
X0406269Y0665027D01*
X0407080Y0664810D01*
X0421350Y0664810D01*
X0421350Y0680350D01*
X0422650Y0680350D01*
X0422650Y0664810D01*
X0436920Y0664810D01*
X0437731Y0665027D01*
X0438459Y0665447D01*
X0439052Y0666041D01*
X0439473Y0666769D01*
X0439690Y0667580D01*
X0439690Y0672409D01*
X0441721Y0671568D01*
X0444279Y0671568D01*
X0444568Y0671688D01*
X0444568Y0669721D01*
X0445546Y0667357D01*
X0447357Y0665547D01*
X0449721Y0664568D01*
X0452279Y0664568D01*
X0454643Y0665547D01*
X0456453Y0667357D01*
X0457432Y0669721D01*
X0457432Y0672279D01*
X0457029Y0673253D01*
X0475105Y0691330D01*
X0494394Y0691330D01*
X0512825Y0672899D01*
X0512568Y0672279D01*
X0512568Y0669721D01*
X0513547Y0667357D01*
X0515357Y0665547D01*
X0517721Y0664568D01*
X0520279Y0664568D01*
X0522643Y0665547D01*
X0524453Y0667357D01*
X0525432Y0669721D01*
X0525432Y0671688D01*
X0525721Y0671568D01*
X0528279Y0671568D01*
X0530310Y0672409D01*
X0530310Y0667580D01*
X0530527Y0666769D01*
X0530947Y0666041D01*
X0531541Y0665447D01*
X0532269Y0665027D01*
X0533080Y0664810D01*
X0547350Y0664810D01*
X0547350Y0680350D01*
X0548650Y0680350D01*
X0548650Y0664810D01*
X0562920Y0664810D01*
X0563731Y0665027D01*
X0564459Y0665447D01*
X0565053Y0666041D01*
X0565473Y0666769D01*
X0565690Y0667580D01*
X0565690Y0680350D01*
X0548650Y0680350D01*
X0548650Y0681650D01*
X0565690Y0681650D01*
X0565690Y0694420D01*
X0565473Y0695231D01*
X0565053Y0695959D01*
X0564459Y0696553D01*
X0563731Y0696973D01*
X0562920Y0697189D01*
X0548650Y0697189D01*
X0548650Y0681650D01*
X0547350Y0681650D01*
X0547350Y0697189D01*
X0533080Y0697189D01*
X0532269Y0696973D01*
X0531543Y0696553D01*
X0530643Y0697453D01*
X0528279Y0698432D01*
X0525721Y0698432D01*
X0523357Y0697453D01*
X0521629Y0695726D01*
X0522331Y0697420D01*
X0522331Y0699979D01*
X0521353Y0702343D01*
X0519543Y0704153D01*
X0518029Y0704780D01*
X0545017Y0704780D01*
X0548017Y0707780D01*
X0550020Y0709783D01*
X0550020Y0720884D01*
X0551357Y0719547D01*
X0553721Y0718567D01*
X0556279Y0718567D01*
X0558167Y0719350D01*
X0575350Y0719350D01*
X0575350Y0710650D01*
X0558167Y0710650D01*
X0556279Y0711432D01*
X0553721Y0711432D01*
X0551357Y0710453D01*
X0549547Y0708643D01*
X0548568Y0706279D01*
X0548568Y0703721D01*
X0549547Y0701357D01*
X0551357Y0699547D01*
X0553721Y0698567D01*
X0556279Y0698567D01*
X0558167Y0699350D01*
X0575350Y0699350D01*
X0575350Y0690000D01*
X0575048Y0685386D01*
X0572659Y0676472D01*
X0568045Y0668480D01*
X0561520Y0661955D01*
X0553528Y0657341D01*
X0544614Y0654952D01*
X0540000Y0654650D01*
X0498810Y0654650D01*
X0498818Y0654654D01*
X0498818Y0654654D01*
X0498818Y0654654D01*
X0503865Y0661601D01*
X0503865Y0661601D01*
X0505650Y0670000D01*
X0503865Y0678399D01*
X0503865Y0678399D01*
X0498818Y0685346D01*
X0498818Y0685346D01*
X0498818Y0685346D01*
X0491381Y0689639D01*
X0491381Y0689639D01*
X0482842Y0690537D01*
X0482841Y0690537D01*
X0474675Y0687883D01*
X0474675Y0687883D01*
X0468294Y0682138D01*
X0468294Y0682138D01*
X0464801Y0674293D01*
X0464801Y0665707D01*
X0468294Y0657861D01*
X0468294Y0657861D01*
X0471860Y0654650D01*
X0430000Y0654650D01*
X0425386Y0654952D01*
X0416472Y0657341D01*
X0408480Y0661955D01*
X0401955Y0668480D01*
X0397341Y0676472D01*
X0394951Y0685386D01*
X0394650Y0690000D01*
X0394650Y0709350D01*
X0412874Y0709350D01*
X0424330Y0697894D01*
X0425034Y0697189D01*
X0422650Y0697189D01*
X0455987Y0800470D02*
X0458613Y0800470D01*
X0455987Y0800470D02*
X0446167Y0790650D01*
X0430433Y0790650D01*
X0440913Y0801130D01*
X0486387Y0801130D01*
X0491830Y0795687D01*
X0491830Y0791900D01*
X0491419Y0791900D01*
X0491419Y0795063D01*
X0486013Y0800470D01*
X0483387Y0800470D01*
X0458613Y0800470D01*
X0470362Y0656000D02*
X0421475Y0656000D01*
X0499795Y0656000D02*
X0548524Y0656000D01*
X0467787Y0659000D02*
X0413598Y0659000D01*
X0501975Y0659000D02*
X0556402Y0659000D01*
X0466452Y0662000D02*
X0408435Y0662000D01*
X0503949Y0662000D02*
X0561565Y0662000D01*
X0406370Y0665000D02*
X0405435Y0665000D01*
X0421350Y0665000D02*
X0422650Y0665000D01*
X0437629Y0665000D02*
X0448678Y0665000D01*
X0453322Y0665000D02*
X0465116Y0665000D01*
X0504587Y0665000D02*
X0516678Y0665000D01*
X0521322Y0665000D02*
X0532371Y0665000D01*
X0547350Y0665000D02*
X0548650Y0665000D01*
X0563629Y0665000D02*
X0564565Y0665000D01*
X0404310Y0668000D02*
X0402435Y0668000D01*
X0421350Y0668000D02*
X0422650Y0668000D01*
X0439690Y0668000D02*
X0445281Y0668000D01*
X0456719Y0668000D02*
X0464801Y0668000D01*
X0505225Y0668000D02*
X0513281Y0668000D01*
X0524719Y0668000D02*
X0530310Y0668000D01*
X0547350Y0668000D02*
X0548650Y0668000D01*
X0565690Y0668000D02*
X0567565Y0668000D01*
X0404310Y0671000D02*
X0400500Y0671000D01*
X0421350Y0671000D02*
X0422650Y0671000D01*
X0439690Y0671000D02*
X0444568Y0671000D01*
X0457432Y0671000D02*
X0464801Y0671000D01*
X0505437Y0671000D02*
X0512568Y0671000D01*
X0525432Y0671000D02*
X0530310Y0671000D01*
X0547350Y0671000D02*
X0548650Y0671000D01*
X0565690Y0671000D02*
X0569500Y0671000D01*
X0404310Y0674000D02*
X0398768Y0674000D01*
X0421350Y0674000D02*
X0422650Y0674000D01*
X0457776Y0674000D02*
X0464801Y0674000D01*
X0504800Y0674000D02*
X0511723Y0674000D01*
X0547350Y0674000D02*
X0548650Y0674000D01*
X0565690Y0674000D02*
X0571232Y0674000D01*
X0404310Y0677000D02*
X0397199Y0677000D01*
X0421350Y0677000D02*
X0422650Y0677000D01*
X0460776Y0677000D02*
X0466006Y0677000D01*
X0504162Y0677000D02*
X0508724Y0677000D01*
X0547350Y0677000D02*
X0548650Y0677000D01*
X0565690Y0677000D02*
X0572801Y0677000D01*
X0404310Y0680000D02*
X0396396Y0680000D01*
X0421350Y0680000D02*
X0422650Y0680000D01*
X0463776Y0680000D02*
X0467342Y0680000D01*
X0502702Y0680000D02*
X0505724Y0680000D01*
X0547350Y0680000D02*
X0548650Y0680000D01*
X0565690Y0680000D02*
X0573604Y0680000D01*
X0404310Y0683000D02*
X0395591Y0683000D01*
X0421350Y0683000D02*
X0422650Y0683000D01*
X0466776Y0683000D02*
X0469251Y0683000D01*
X0500522Y0683000D02*
X0502724Y0683000D01*
X0547350Y0683000D02*
X0548650Y0683000D01*
X0565690Y0683000D02*
X0574408Y0683000D01*
X0404310Y0686000D02*
X0394912Y0686000D01*
X0421350Y0686000D02*
X0422650Y0686000D01*
X0469776Y0686000D02*
X0472583Y0686000D01*
X0497685Y0686000D02*
X0499724Y0686000D01*
X0547350Y0686000D02*
X0548650Y0686000D01*
X0565690Y0686000D02*
X0575088Y0686000D01*
X0404310Y0689000D02*
X0394716Y0689000D01*
X0421350Y0689000D02*
X0422650Y0689000D01*
X0472776Y0689000D02*
X0478112Y0689000D01*
X0492488Y0689000D02*
X0496723Y0689000D01*
X0547350Y0689000D02*
X0548650Y0689000D01*
X0565690Y0689000D02*
X0575284Y0689000D01*
X0404310Y0692000D02*
X0394650Y0692000D01*
X0421350Y0692000D02*
X0422650Y0692000D01*
X0547350Y0692000D02*
X0548650Y0692000D01*
X0565690Y0692000D02*
X0575350Y0692000D01*
X0404465Y0695000D02*
X0394650Y0695000D01*
X0421350Y0695000D02*
X0422650Y0695000D01*
X0547350Y0695000D02*
X0548650Y0695000D01*
X0565535Y0695000D02*
X0575350Y0695000D01*
X0424224Y0698000D02*
X0394650Y0698000D01*
X0522331Y0698000D02*
X0524678Y0698000D01*
X0529322Y0698000D02*
X0575350Y0698000D01*
X0421224Y0701000D02*
X0394650Y0701000D01*
X0521909Y0701000D02*
X0549904Y0701000D01*
X0418224Y0704000D02*
X0394650Y0704000D01*
X0425775Y0704000D02*
X0426310Y0704000D01*
X0452690Y0704000D02*
X0460224Y0704000D01*
X0509276Y0704000D02*
X0512104Y0704000D01*
X0519696Y0704000D02*
X0548568Y0704000D01*
X0415224Y0707000D02*
X0394650Y0707000D01*
X0422776Y0707000D02*
X0426310Y0707000D01*
X0438850Y0707000D02*
X0440150Y0707000D01*
X0452690Y0707000D02*
X0463224Y0707000D01*
X0506276Y0707000D02*
X0515663Y0707000D01*
X0547237Y0707000D02*
X0548867Y0707000D01*
X0426989Y0710000D02*
X0419989Y0710000D01*
X0438850Y0710000D02*
X0440150Y0710000D01*
X0452010Y0710000D02*
X0463363Y0710000D01*
X0550020Y0710000D02*
X0550904Y0710000D01*
X0460363Y0713000D02*
X0422089Y0713000D01*
X0543150Y0713000D02*
X0543180Y0713000D01*
X0550020Y0713000D02*
X0575350Y0713000D01*
X0457363Y0716000D02*
X0422432Y0716000D01*
X0516337Y0716000D02*
X0517849Y0716000D01*
X0543150Y0716000D02*
X0543180Y0716000D01*
X0550020Y0716000D02*
X0575350Y0716000D01*
X0454363Y0719000D02*
X0421203Y0719000D01*
X0464037Y0719000D02*
X0470810Y0719000D01*
X0509837Y0719000D02*
X0515817Y0719000D01*
X0543150Y0719000D02*
X0543180Y0719000D01*
X0550020Y0719000D02*
X0552678Y0719000D01*
X0557322Y0719000D02*
X0575350Y0719000D01*
X0426850Y0722000D02*
X0394650Y0722000D01*
X0461037Y0722000D02*
X0471350Y0722000D01*
X0504925Y0722000D02*
X0512817Y0722000D01*
X0521783Y0722000D02*
X0543180Y0722000D01*
X0426850Y0725000D02*
X0394650Y0725000D01*
X0459223Y0725000D02*
X0471350Y0725000D01*
X0503725Y0725000D02*
X0504925Y0725000D01*
X0509403Y0725000D02*
X0509817Y0725000D01*
X0518782Y0725000D02*
X0543180Y0725000D01*
X0426850Y0728000D02*
X0394650Y0728000D01*
X0468664Y0728000D02*
X0472252Y0728000D01*
X0498170Y0728000D02*
X0506830Y0728000D01*
X0515783Y0728000D02*
X0543180Y0728000D01*
X0451736Y0731000D02*
X0420989Y0731000D01*
X0468664Y0731000D02*
X0470349Y0731000D01*
X0499650Y0731000D02*
X0506830Y0731000D01*
X0513170Y0731000D02*
X0517849Y0731000D01*
X0543150Y0731000D02*
X0543180Y0731000D01*
X0451736Y0734000D02*
X0422432Y0734000D01*
X0499650Y0734000D02*
X0506830Y0734000D01*
X0513170Y0734000D02*
X0517849Y0734000D01*
X0543150Y0734000D02*
X0543180Y0734000D01*
X0453466Y0737000D02*
X0422177Y0737000D01*
X0499650Y0737000D02*
X0506830Y0737000D01*
X0513170Y0737000D02*
X0516017Y0737000D01*
X0543150Y0737000D02*
X0543180Y0737000D01*
X0427752Y0740000D02*
X0420203Y0740000D01*
X0451248Y0740000D02*
X0453466Y0740000D01*
X0499650Y0740000D02*
X0506830Y0740000D01*
X0513170Y0740000D02*
X0513530Y0740000D01*
X0542248Y0740000D02*
X0543180Y0740000D01*
X0426850Y0743000D02*
X0394650Y0743000D01*
X0452150Y0743000D02*
X0453466Y0743000D01*
X0499650Y0743000D02*
X0506830Y0743000D01*
X0513170Y0743000D02*
X0513530Y0743000D01*
X0519870Y0743000D02*
X0543180Y0743000D01*
X0426850Y0746000D02*
X0394650Y0746000D01*
X0499650Y0746000D02*
X0506830Y0746000D01*
X0513170Y0746000D02*
X0513530Y0746000D01*
X0519870Y0746000D02*
X0543180Y0746000D01*
X0413936Y0749000D02*
X0394650Y0749000D01*
X0418063Y0749000D02*
X0426850Y0749000D01*
X0488276Y0749000D02*
X0506830Y0749000D01*
X0513170Y0749000D02*
X0513530Y0749000D01*
X0519870Y0749000D02*
X0543180Y0749000D01*
X0451736Y0752000D02*
X0421674Y0752000D01*
X0485276Y0752000D02*
X0506117Y0752000D01*
X0513170Y0752000D02*
X0513530Y0752000D01*
X0543150Y0752000D02*
X0543180Y0752000D01*
X0453366Y0755000D02*
X0422432Y0755000D01*
X0471470Y0755000D02*
X0503117Y0755000D01*
X0512083Y0755000D02*
X0512817Y0755000D01*
X0543150Y0755000D02*
X0543180Y0755000D01*
X0453366Y0758000D02*
X0421764Y0758000D01*
X0471470Y0758000D02*
X0500117Y0758000D01*
X0509082Y0758000D02*
X0509817Y0758000D01*
X0543150Y0758000D02*
X0543180Y0758000D01*
X0413419Y0761000D02*
X0394650Y0761000D01*
X0418581Y0761000D02*
X0426850Y0761000D01*
X0452150Y0761000D02*
X0453366Y0761000D01*
X0471470Y0761000D02*
X0497117Y0761000D01*
X0506083Y0761000D02*
X0506817Y0761000D01*
X0515783Y0761000D02*
X0543180Y0761000D01*
X0426850Y0764000D02*
X0394650Y0764000D01*
X0452150Y0764000D02*
X0452504Y0764000D01*
X0471290Y0764000D02*
X0494116Y0764000D01*
X0503083Y0764000D02*
X0503817Y0764000D01*
X0512783Y0764000D02*
X0543163Y0764000D01*
X0426656Y0767000D02*
X0394650Y0767000D01*
X0468564Y0767000D02*
X0491117Y0767000D01*
X0500083Y0767000D02*
X0500817Y0767000D01*
X0509783Y0767000D02*
X0540163Y0767000D01*
X0423656Y0770000D02*
X0419989Y0770000D01*
X0468564Y0770000D02*
X0488117Y0770000D01*
X0497083Y0770000D02*
X0497817Y0770000D01*
X0506783Y0770000D02*
X0518752Y0770000D01*
X0546837Y0770000D02*
X0550904Y0770000D01*
X0470327Y0773000D02*
X0466896Y0773000D01*
X0474775Y0773000D02*
X0475725Y0773000D01*
X0503782Y0773000D02*
X0517849Y0773000D01*
X0543837Y0773000D02*
X0575350Y0773000D01*
X0469810Y0776000D02*
X0461997Y0776000D01*
X0474775Y0776000D02*
X0475725Y0776000D01*
X0500783Y0776000D02*
X0517849Y0776000D01*
X0543150Y0776000D02*
X0575350Y0776000D01*
X0469810Y0779000D02*
X0464489Y0779000D01*
X0474775Y0779000D02*
X0475725Y0779000D01*
X0499650Y0779000D02*
X0517849Y0779000D01*
X0543150Y0779000D02*
X0552678Y0779000D01*
X0557322Y0779000D02*
X0575350Y0779000D01*
X0419968Y0782000D02*
X0394650Y0782000D01*
X0469940Y0782000D02*
X0474775Y0782000D01*
X0499650Y0782000D02*
X0549281Y0782000D01*
X0419968Y0785000D02*
X0394650Y0785000D01*
X0499650Y0785000D02*
X0548568Y0785000D01*
X0419968Y0788000D02*
X0394650Y0788000D01*
X0499650Y0788000D02*
X0549281Y0788000D01*
X0421817Y0791000D02*
X0420989Y0791000D01*
X0430783Y0791000D02*
X0446517Y0791000D01*
X0498998Y0791000D02*
X0517465Y0791000D01*
X0529850Y0791000D02*
X0531150Y0791000D01*
X0543535Y0791000D02*
X0552678Y0791000D01*
X0557322Y0791000D02*
X0575350Y0791000D01*
X0424817Y0794000D02*
X0422432Y0794000D01*
X0433783Y0794000D02*
X0449517Y0794000D01*
X0491419Y0794000D02*
X0491830Y0794000D01*
X0498170Y0794000D02*
X0517310Y0794000D01*
X0529850Y0794000D02*
X0531150Y0794000D01*
X0543690Y0794000D02*
X0575350Y0794000D01*
X0427817Y0797000D02*
X0422177Y0797000D01*
X0436783Y0797000D02*
X0452517Y0797000D01*
X0489483Y0797000D02*
X0490516Y0797000D01*
X0498170Y0797000D02*
X0517310Y0797000D01*
X0529850Y0797000D02*
X0531150Y0797000D01*
X0543690Y0797000D02*
X0575350Y0797000D01*
X0430817Y0800000D02*
X0420203Y0800000D01*
X0439783Y0800000D02*
X0455516Y0800000D01*
X0486483Y0800000D02*
X0487517Y0800000D01*
X0496483Y0800000D02*
X0517989Y0800000D01*
X0529850Y0800000D02*
X0531150Y0800000D01*
X0543011Y0800000D02*
X0575350Y0800000D01*
X0406370Y0803000D02*
X0394650Y0803000D01*
X0421350Y0803000D02*
X0422650Y0803000D01*
X0493483Y0803000D02*
X0532371Y0803000D01*
X0547350Y0803000D02*
X0548650Y0803000D01*
X0563629Y0803000D02*
X0575350Y0803000D01*
X0404310Y0806000D02*
X0394650Y0806000D01*
X0421350Y0806000D02*
X0422650Y0806000D01*
X0490483Y0806000D02*
X0530310Y0806000D01*
X0547350Y0806000D02*
X0548650Y0806000D01*
X0565690Y0806000D02*
X0575350Y0806000D01*
X0404310Y0809000D02*
X0394650Y0809000D01*
X0421350Y0809000D02*
X0422650Y0809000D01*
X0439690Y0809000D02*
X0530310Y0809000D01*
X0547350Y0809000D02*
X0548650Y0809000D01*
X0565690Y0809000D02*
X0575350Y0809000D01*
X0404310Y0812000D02*
X0394781Y0812000D01*
X0421350Y0812000D02*
X0422650Y0812000D01*
X0439690Y0812000D02*
X0475034Y0812000D01*
X0494221Y0812000D02*
X0530310Y0812000D01*
X0547350Y0812000D02*
X0548650Y0812000D01*
X0565690Y0812000D02*
X0575219Y0812000D01*
X0404310Y0815000D02*
X0395056Y0815000D01*
X0421350Y0815000D02*
X0422650Y0815000D01*
X0439690Y0815000D02*
X0471473Y0815000D01*
X0499069Y0815000D02*
X0530310Y0815000D01*
X0547350Y0815000D02*
X0548650Y0815000D01*
X0565690Y0815000D02*
X0574944Y0815000D01*
X0404310Y0818000D02*
X0395860Y0818000D01*
X0421350Y0818000D02*
X0422650Y0818000D01*
X0439690Y0818000D02*
X0468232Y0818000D01*
X0501248Y0818000D02*
X0530310Y0818000D01*
X0547350Y0818000D02*
X0548650Y0818000D01*
X0565690Y0818000D02*
X0574140Y0818000D01*
X0404310Y0821000D02*
X0396663Y0821000D01*
X0421350Y0821000D02*
X0422650Y0821000D01*
X0439690Y0821000D02*
X0466897Y0821000D01*
X0503427Y0821000D02*
X0530310Y0821000D01*
X0547350Y0821000D02*
X0548650Y0821000D01*
X0565690Y0821000D02*
X0573336Y0821000D01*
X0404310Y0824000D02*
X0397613Y0824000D01*
X0421350Y0824000D02*
X0422650Y0824000D01*
X0439690Y0824000D02*
X0465561Y0824000D01*
X0504375Y0824000D02*
X0530310Y0824000D01*
X0547350Y0824000D02*
X0548650Y0824000D01*
X0565690Y0824000D02*
X0572387Y0824000D01*
X0404310Y0827000D02*
X0399345Y0827000D01*
X0421350Y0827000D02*
X0422650Y0827000D01*
X0439690Y0827000D02*
X0464801Y0827000D01*
X0505012Y0827000D02*
X0530310Y0827000D01*
X0547350Y0827000D02*
X0548650Y0827000D01*
X0565690Y0827000D02*
X0570654Y0827000D01*
X0404310Y0830000D02*
X0401078Y0830000D01*
X0421350Y0830000D02*
X0422650Y0830000D01*
X0439690Y0830000D02*
X0464801Y0830000D01*
X0505650Y0830000D02*
X0530310Y0830000D01*
X0547350Y0830000D02*
X0548650Y0830000D01*
X0565690Y0830000D02*
X0568922Y0830000D01*
X0404465Y0833000D02*
X0403435Y0833000D01*
X0421350Y0833000D02*
X0422650Y0833000D01*
X0439535Y0833000D02*
X0464801Y0833000D01*
X0505012Y0833000D02*
X0530465Y0833000D01*
X0547350Y0833000D02*
X0548650Y0833000D01*
X0565535Y0833000D02*
X0566565Y0833000D01*
X0465561Y0836000D02*
X0406435Y0836000D01*
X0504375Y0836000D02*
X0563565Y0836000D01*
X0466897Y0839000D02*
X0410134Y0839000D01*
X0503427Y0839000D02*
X0559866Y0839000D01*
X0468232Y0842000D02*
X0415330Y0842000D01*
X0501248Y0842000D02*
X0554669Y0842000D01*
X0471473Y0845000D02*
X0425208Y0845000D01*
X0499069Y0845000D02*
X0544792Y0845000D01*
X0396000Y0709350D02*
X0396000Y0681476D01*
X0396000Y0720650D02*
X0396000Y0729350D01*
X0396000Y0740650D02*
X0396000Y0749350D01*
X0396000Y0760650D02*
X0396000Y0769350D01*
X0396000Y0780650D02*
X0396000Y0789350D01*
X0396000Y0800650D02*
X0396000Y0818524D01*
X0399000Y0709350D02*
X0399000Y0673598D01*
X0399000Y0720650D02*
X0399000Y0729350D01*
X0399000Y0740650D02*
X0399000Y0749350D01*
X0399000Y0760650D02*
X0399000Y0769350D01*
X0399000Y0780650D02*
X0399000Y0789350D01*
X0399000Y0800650D02*
X0399000Y0826401D01*
X0402000Y0709350D02*
X0402000Y0668435D01*
X0402000Y0720650D02*
X0402000Y0729350D01*
X0402000Y0740650D02*
X0402000Y0749350D01*
X0402000Y0760650D02*
X0402000Y0769350D01*
X0402000Y0780650D02*
X0402000Y0789350D01*
X0402000Y0800650D02*
X0402000Y0831564D01*
X0405000Y0665989D02*
X0405000Y0665435D01*
X0405000Y0680350D02*
X0405000Y0681650D01*
X0405000Y0696011D02*
X0405000Y0709350D01*
X0405000Y0720650D02*
X0405000Y0729350D01*
X0405000Y0740650D02*
X0405000Y0749350D01*
X0405000Y0760650D02*
X0405000Y0769350D01*
X0405000Y0780650D02*
X0405000Y0789350D01*
X0405000Y0800650D02*
X0405000Y0803989D01*
X0405000Y0818350D02*
X0405000Y0819650D01*
X0405000Y0834011D02*
X0405000Y0834565D01*
X0408000Y0664810D02*
X0408000Y0662435D01*
X0408000Y0680350D02*
X0408000Y0681650D01*
X0408000Y0697189D02*
X0408000Y0709350D01*
X0408000Y0720650D02*
X0408000Y0729350D01*
X0408000Y0740650D02*
X0408000Y0749350D01*
X0408000Y0760650D02*
X0408000Y0769350D01*
X0408000Y0780650D02*
X0408000Y0789350D01*
X0408000Y0800650D02*
X0408000Y0802810D01*
X0408000Y0818350D02*
X0408000Y0819650D01*
X0408000Y0835190D02*
X0408000Y0837565D01*
X0411000Y0664810D02*
X0411000Y0660500D01*
X0411000Y0680350D02*
X0411000Y0681650D01*
X0411000Y0697189D02*
X0411000Y0709350D01*
X0411000Y0720650D02*
X0411000Y0729350D01*
X0411000Y0740650D02*
X0411000Y0749350D01*
X0411000Y0760650D02*
X0411000Y0769350D01*
X0411000Y0780650D02*
X0411000Y0789350D01*
X0411000Y0800650D02*
X0411000Y0802810D01*
X0411000Y0818350D02*
X0411000Y0819650D01*
X0411000Y0835190D02*
X0411000Y0839500D01*
X0414000Y0664810D02*
X0414000Y0658768D01*
X0414000Y0680350D02*
X0414000Y0681650D01*
X0414000Y0697189D02*
X0414000Y0708224D01*
X0414000Y0721241D02*
X0414000Y0728974D01*
X0414000Y0741241D02*
X0414000Y0748974D01*
X0414000Y0761241D02*
X0414000Y0768822D01*
X0414000Y0781178D02*
X0414000Y0788974D01*
X0414000Y0801241D02*
X0414000Y0802810D01*
X0414000Y0818350D02*
X0414000Y0819650D01*
X0414000Y0835190D02*
X0414000Y0841232D01*
X0417000Y0664810D02*
X0417000Y0657199D01*
X0417000Y0680350D02*
X0417000Y0681650D01*
X0417000Y0697189D02*
X0417000Y0705224D01*
X0417000Y0721538D02*
X0417000Y0728675D01*
X0417000Y0741538D02*
X0417000Y0748675D01*
X0417000Y0761538D02*
X0417000Y0768567D01*
X0417000Y0781432D02*
X0417000Y0788675D01*
X0417000Y0801538D02*
X0417000Y0802810D01*
X0417000Y0818350D02*
X0417000Y0819650D01*
X0417000Y0835190D02*
X0417000Y0842801D01*
X0420000Y0664810D02*
X0420000Y0656396D01*
X0420000Y0680350D02*
X0420000Y0681650D01*
X0420000Y0697189D02*
X0420000Y0702223D01*
X0420000Y0709776D02*
X0420000Y0710010D01*
X0420000Y0720203D02*
X0420000Y0730010D01*
X0420000Y0740203D02*
X0420000Y0750010D01*
X0420000Y0760203D02*
X0420000Y0770010D01*
X0420000Y0789183D02*
X0420000Y0790010D01*
X0420000Y0800203D02*
X0420000Y0802810D01*
X0420000Y0818350D02*
X0420000Y0819650D01*
X0420000Y0835190D02*
X0420000Y0843604D01*
X0423000Y0664810D02*
X0423000Y0655592D01*
X0423000Y0697189D02*
X0423000Y0699224D01*
X0423000Y0706776D02*
X0423000Y0770656D01*
X0423000Y0792183D02*
X0423000Y0802810D01*
X0423000Y0818350D02*
X0423000Y0819650D01*
X0423000Y0835190D02*
X0423000Y0844408D01*
X0426000Y0664810D02*
X0426000Y0654912D01*
X0426000Y0703776D02*
X0426000Y0767656D01*
X0426000Y0795183D02*
X0426000Y0802810D01*
X0426000Y0818350D02*
X0426000Y0819650D01*
X0426000Y0835190D02*
X0426000Y0845088D01*
X0429000Y0664810D02*
X0429000Y0654716D01*
X0429000Y0704350D02*
X0429000Y0705650D01*
X0429000Y0711169D02*
X0429000Y0719350D01*
X0429000Y0730650D02*
X0429000Y0739350D01*
X0429000Y0750650D02*
X0429000Y0759350D01*
X0429000Y0798182D02*
X0429000Y0802810D01*
X0429000Y0818350D02*
X0429000Y0819650D01*
X0429000Y0835190D02*
X0429000Y0845284D01*
X0432000Y0664810D02*
X0432000Y0654650D01*
X0432000Y0704350D02*
X0432000Y0705650D01*
X0432000Y0711190D02*
X0432000Y0719350D01*
X0432000Y0730650D02*
X0432000Y0739350D01*
X0432000Y0750650D02*
X0432000Y0759350D01*
X0432000Y0790650D02*
X0432000Y0792217D01*
X0432000Y0801183D02*
X0432000Y0802810D01*
X0432000Y0818350D02*
X0432000Y0819650D01*
X0432000Y0835190D02*
X0432000Y0845350D01*
X0435000Y0664810D02*
X0435000Y0654650D01*
X0435000Y0704350D02*
X0435000Y0705650D01*
X0435000Y0711190D02*
X0435000Y0719350D01*
X0435000Y0730650D02*
X0435000Y0739350D01*
X0435000Y0750650D02*
X0435000Y0759350D01*
X0435000Y0790650D02*
X0435000Y0795217D01*
X0435000Y0818350D02*
X0435000Y0819650D01*
X0435000Y0835190D02*
X0435000Y0845350D01*
X0438000Y0665183D02*
X0438000Y0654650D01*
X0438000Y0704350D02*
X0438000Y0705650D01*
X0438000Y0711190D02*
X0438000Y0719350D01*
X0438000Y0730650D02*
X0438000Y0739350D01*
X0438000Y0750650D02*
X0438000Y0759350D01*
X0438000Y0790650D02*
X0438000Y0798216D01*
X0438000Y0818350D02*
X0438000Y0819650D01*
X0438000Y0834817D02*
X0438000Y0845350D01*
X0441000Y0671867D02*
X0441000Y0654650D01*
X0441000Y0704350D02*
X0441000Y0705650D01*
X0441000Y0711190D02*
X0441000Y0719350D01*
X0441000Y0730650D02*
X0441000Y0739350D01*
X0441000Y0750650D02*
X0441000Y0759350D01*
X0441000Y0790650D02*
X0441000Y0801130D01*
X0441000Y0807470D02*
X0441000Y0845350D01*
X0444000Y0671568D02*
X0444000Y0654650D01*
X0444000Y0704350D02*
X0444000Y0705650D01*
X0444000Y0711190D02*
X0444000Y0719350D01*
X0444000Y0730650D02*
X0444000Y0739350D01*
X0444000Y0750650D02*
X0444000Y0759350D01*
X0444000Y0790650D02*
X0444000Y0801130D01*
X0444000Y0807470D02*
X0444000Y0845350D01*
X0447000Y0665904D02*
X0447000Y0654650D01*
X0447000Y0704350D02*
X0447000Y0705650D01*
X0447000Y0711190D02*
X0447000Y0719350D01*
X0447000Y0730650D02*
X0447000Y0739350D01*
X0447000Y0750650D02*
X0447000Y0759350D01*
X0447000Y0791483D02*
X0447000Y0801130D01*
X0447000Y0807470D02*
X0447000Y0845350D01*
X0450000Y0664568D02*
X0450000Y0654650D01*
X0450000Y0704350D02*
X0450000Y0705650D01*
X0450000Y0711169D02*
X0450000Y0719350D01*
X0450000Y0730650D02*
X0450000Y0739350D01*
X0450000Y0750650D02*
X0450000Y0759350D01*
X0450000Y0794483D02*
X0450000Y0801130D01*
X0450000Y0807470D02*
X0450000Y0845350D01*
X0453000Y0664866D02*
X0453000Y0654650D01*
X0453000Y0701670D02*
X0453000Y0720363D01*
X0453000Y0735496D02*
X0453000Y0745004D01*
X0453000Y0753995D02*
X0453000Y0763504D01*
X0453000Y0797483D02*
X0453000Y0801130D01*
X0453000Y0807470D02*
X0453000Y0845350D01*
X0456000Y0666904D02*
X0456000Y0654650D01*
X0456000Y0701670D02*
X0456000Y0717363D01*
X0456000Y0800470D02*
X0456000Y0801130D01*
X0456000Y0807470D02*
X0456000Y0845350D01*
X0459000Y0675224D02*
X0459000Y0654650D01*
X0459000Y0702776D02*
X0459000Y0714363D01*
X0459000Y0724037D02*
X0459000Y0724777D01*
X0459000Y0800470D02*
X0459000Y0801130D01*
X0459000Y0807470D02*
X0459000Y0845350D01*
X0462000Y0678224D02*
X0462000Y0654650D01*
X0462000Y0705776D02*
X0462000Y0711363D01*
X0462000Y0721037D02*
X0462000Y0725849D01*
X0462000Y0773250D02*
X0462000Y0776004D01*
X0462000Y0800470D02*
X0462000Y0801130D01*
X0462000Y0807470D02*
X0462000Y0845350D01*
X0465000Y0665260D02*
X0465000Y0654650D01*
X0465000Y0674740D02*
X0465000Y0681224D01*
X0465000Y0708670D02*
X0465000Y0709780D01*
X0465000Y0718037D02*
X0465000Y0725849D01*
X0465000Y0773250D02*
X0465000Y0779616D01*
X0465000Y0800470D02*
X0465000Y0801130D01*
X0465000Y0807470D02*
X0465000Y0825260D01*
X0465000Y0834740D02*
X0465000Y0845350D01*
X0468000Y0658522D02*
X0468000Y0654650D01*
X0468000Y0681478D02*
X0468000Y0684224D01*
X0468000Y0708670D02*
X0468000Y0709780D01*
X0468000Y0716620D02*
X0468000Y0727103D01*
X0468000Y0771896D02*
X0468000Y0780450D01*
X0468000Y0800470D02*
X0468000Y0801130D01*
X0468000Y0807470D02*
X0468000Y0818522D01*
X0468000Y0841478D02*
X0468000Y0845350D01*
X0471000Y0655425D02*
X0471000Y0654650D01*
X0471000Y0684574D02*
X0471000Y0687223D01*
X0471000Y0708670D02*
X0471000Y0709780D01*
X0471000Y0718500D02*
X0471000Y0718500D01*
X0471000Y0721129D02*
X0471000Y0729002D01*
X0471000Y0764290D02*
X0471000Y0772239D01*
X0471000Y0781525D02*
X0471000Y0782475D01*
X0471000Y0800470D02*
X0471000Y0801130D01*
X0471000Y0807470D02*
X0471000Y0815425D01*
X0471000Y0844574D02*
X0471000Y0845350D01*
X0474000Y0690224D02*
X0474000Y0687276D01*
X0474000Y0708670D02*
X0474000Y0709780D01*
X0474000Y0718500D02*
X0474000Y0718500D01*
X0474000Y0753870D02*
X0474000Y0771560D01*
X0474000Y0781525D02*
X0474000Y0782475D01*
X0474000Y0800470D02*
X0474000Y0801130D01*
X0474000Y0807470D02*
X0474000Y0812724D01*
X0477000Y0691330D02*
X0477000Y0688639D01*
X0477000Y0708670D02*
X0477000Y0709780D01*
X0477000Y0718500D02*
X0477000Y0718500D01*
X0477000Y0753870D02*
X0477000Y0771560D01*
X0477000Y0800470D02*
X0477000Y0801130D01*
X0477000Y0807470D02*
X0477000Y0811361D01*
X0480000Y0691330D02*
X0480000Y0689614D01*
X0480000Y0708670D02*
X0480000Y0709780D01*
X0480000Y0718500D02*
X0480000Y0718500D01*
X0480000Y0753870D02*
X0480000Y0772100D01*
X0480000Y0800470D02*
X0480000Y0801130D01*
X0480000Y0807470D02*
X0480000Y0810386D01*
X0483000Y0691330D02*
X0483000Y0690519D01*
X0483000Y0708670D02*
X0483000Y0709780D01*
X0483000Y0753870D02*
X0483000Y0772100D01*
X0483000Y0800470D02*
X0483000Y0801130D01*
X0483000Y0807470D02*
X0483000Y0809480D01*
X0486000Y0691330D02*
X0486000Y0690205D01*
X0486000Y0708670D02*
X0486000Y0709780D01*
X0486000Y0718500D02*
X0486000Y0718500D01*
X0486000Y0751276D02*
X0486000Y0772100D01*
X0486000Y0800470D02*
X0486000Y0801130D01*
X0486000Y0807470D02*
X0486000Y0809795D01*
X0489000Y0691330D02*
X0489000Y0689890D01*
X0489000Y0708670D02*
X0489000Y0709780D01*
X0489000Y0748276D02*
X0489000Y0769117D01*
X0489000Y0797483D02*
X0489000Y0798516D01*
X0489000Y0807470D02*
X0489000Y0810110D01*
X0492000Y0691330D02*
X0492000Y0689282D01*
X0492000Y0708670D02*
X0492000Y0709780D01*
X0492000Y0747899D02*
X0492000Y0766117D01*
X0492000Y0804483D02*
X0492000Y0810718D01*
X0495000Y0690724D02*
X0495000Y0687550D01*
X0495000Y0708670D02*
X0495000Y0709780D01*
X0495000Y0747899D02*
X0495000Y0763117D01*
X0495000Y0772082D02*
X0495000Y0772100D01*
X0495000Y0801483D02*
X0495000Y0812450D01*
X0498000Y0687724D02*
X0498000Y0685818D01*
X0498000Y0708670D02*
X0498000Y0709780D01*
X0498000Y0747899D02*
X0498000Y0760117D01*
X0498000Y0769083D02*
X0498000Y0769817D01*
X0498000Y0798483D02*
X0498000Y0814182D01*
X0501000Y0657658D02*
X0501000Y0654650D01*
X0501000Y0682342D02*
X0501000Y0684723D01*
X0501000Y0708670D02*
X0501000Y0709780D01*
X0501000Y0726679D02*
X0501000Y0757117D01*
X0501000Y0766083D02*
X0501000Y0766817D01*
X0501000Y0775783D02*
X0501000Y0817658D01*
X0501000Y0842342D02*
X0501000Y0845350D01*
X0504000Y0662236D02*
X0504000Y0654650D01*
X0504000Y0677762D02*
X0504000Y0681724D01*
X0504000Y0708670D02*
X0504000Y0709780D01*
X0504000Y0722099D02*
X0504000Y0754117D01*
X0504000Y0763083D02*
X0504000Y0763817D01*
X0504000Y0772783D02*
X0504000Y0822238D01*
X0504000Y0837762D02*
X0504000Y0845350D01*
X0507000Y0678724D02*
X0507000Y0654650D01*
X0507000Y0706276D02*
X0507000Y0709780D01*
X0507000Y0720900D02*
X0507000Y0722099D01*
X0507000Y0726965D02*
X0507000Y0727817D01*
X0507000Y0760083D02*
X0507000Y0760817D01*
X0507000Y0769783D02*
X0507000Y0845350D01*
X0510000Y0675724D02*
X0510000Y0654650D01*
X0510000Y0703276D02*
X0510000Y0709780D01*
X0510000Y0716620D02*
X0510000Y0719610D01*
X0510000Y0720900D02*
X0510000Y0722099D01*
X0510000Y0723390D02*
X0510000Y0724817D01*
X0510000Y0757082D02*
X0510000Y0757817D01*
X0510000Y0766783D02*
X0510000Y0845350D01*
X0513000Y0668678D02*
X0513000Y0654650D01*
X0513000Y0704461D02*
X0513000Y0709663D01*
X0513000Y0716620D02*
X0513000Y0721817D01*
X0513000Y0754083D02*
X0513000Y0754817D01*
X0513000Y0763783D02*
X0513000Y0845350D01*
X0516000Y0665281D02*
X0516000Y0654650D01*
X0516000Y0705132D02*
X0516000Y0706663D01*
X0516000Y0716337D02*
X0516000Y0718817D01*
X0516000Y0727783D02*
X0516000Y0737017D01*
X0516000Y0760783D02*
X0516000Y0845350D01*
X0519000Y0664568D02*
X0519000Y0654650D01*
X0519000Y0704378D02*
X0519000Y0704780D01*
X0519000Y0724783D02*
X0519000Y0729752D01*
X0519000Y0760248D02*
X0519000Y0769752D01*
X0519000Y0780248D02*
X0519000Y0789183D01*
X0519000Y0794350D02*
X0519000Y0795650D01*
X0519000Y0800817D02*
X0519000Y0845350D01*
X0522000Y0665281D02*
X0522000Y0654650D01*
X0522000Y0696096D02*
X0522000Y0696619D01*
X0522000Y0700781D02*
X0522000Y0704780D01*
X0522000Y0721783D02*
X0522000Y0729350D01*
X0522000Y0740650D02*
X0522000Y0749350D01*
X0522000Y0760650D02*
X0522000Y0769350D01*
X0522000Y0780650D02*
X0522000Y0788810D01*
X0522000Y0794350D02*
X0522000Y0795650D01*
X0522000Y0801190D02*
X0522000Y0845350D01*
X0525000Y0668678D02*
X0525000Y0654650D01*
X0525000Y0698134D02*
X0525000Y0704780D01*
X0525000Y0720650D02*
X0525000Y0729350D01*
X0525000Y0740650D02*
X0525000Y0749350D01*
X0525000Y0760650D02*
X0525000Y0769350D01*
X0525000Y0780650D02*
X0525000Y0788810D01*
X0525000Y0794350D02*
X0525000Y0795650D01*
X0525000Y0801190D02*
X0525000Y0845350D01*
X0528000Y0671568D02*
X0528000Y0654650D01*
X0528000Y0698432D02*
X0528000Y0704780D01*
X0528000Y0720650D02*
X0528000Y0729350D01*
X0528000Y0740650D02*
X0528000Y0749350D01*
X0528000Y0760650D02*
X0528000Y0769350D01*
X0528000Y0780650D02*
X0528000Y0788810D01*
X0528000Y0794350D02*
X0528000Y0795650D01*
X0528000Y0801190D02*
X0528000Y0845350D01*
X0531000Y0665989D02*
X0531000Y0654650D01*
X0531000Y0697096D02*
X0531000Y0704780D01*
X0531000Y0720650D02*
X0531000Y0729350D01*
X0531000Y0740650D02*
X0531000Y0749350D01*
X0531000Y0760650D02*
X0531000Y0769350D01*
X0531000Y0780650D02*
X0531000Y0794350D01*
X0531000Y0795650D02*
X0531000Y0803989D01*
X0531000Y0818350D02*
X0531000Y0819650D01*
X0531000Y0834011D02*
X0531000Y0845350D01*
X0534000Y0664810D02*
X0534000Y0654650D01*
X0534000Y0697189D02*
X0534000Y0704780D01*
X0534000Y0720650D02*
X0534000Y0729350D01*
X0534000Y0740650D02*
X0534000Y0749350D01*
X0534000Y0760650D02*
X0534000Y0769350D01*
X0534000Y0780650D02*
X0534000Y0788810D01*
X0534000Y0794350D02*
X0534000Y0795650D01*
X0534000Y0801190D02*
X0534000Y0802810D01*
X0534000Y0818350D02*
X0534000Y0819650D01*
X0534000Y0835190D02*
X0534000Y0845350D01*
X0537000Y0664810D02*
X0537000Y0654650D01*
X0537000Y0697189D02*
X0537000Y0704780D01*
X0537000Y0720650D02*
X0537000Y0729350D01*
X0537000Y0740650D02*
X0537000Y0749350D01*
X0537000Y0760650D02*
X0537000Y0769350D01*
X0537000Y0780650D02*
X0537000Y0788810D01*
X0537000Y0794350D02*
X0537000Y0795650D01*
X0537000Y0801190D02*
X0537000Y0802810D01*
X0537000Y0818350D02*
X0537000Y0819650D01*
X0537000Y0835190D02*
X0537000Y0845350D01*
X0540000Y0664810D02*
X0540000Y0654650D01*
X0540000Y0697189D02*
X0540000Y0704780D01*
X0540000Y0720650D02*
X0540000Y0729350D01*
X0540000Y0740650D02*
X0540000Y0749350D01*
X0540000Y0760650D02*
X0540000Y0767163D01*
X0540000Y0780650D02*
X0540000Y0788810D01*
X0540000Y0794350D02*
X0540000Y0795650D01*
X0540000Y0801190D02*
X0540000Y0802810D01*
X0540000Y0818350D02*
X0540000Y0819650D01*
X0540000Y0835190D02*
X0540000Y0845350D01*
X0543000Y0664810D02*
X0543000Y0654847D01*
X0543000Y0697189D02*
X0543000Y0704780D01*
X0543000Y0719248D02*
X0543000Y0730752D01*
X0543000Y0739248D02*
X0543000Y0750752D01*
X0543000Y0759248D02*
X0543000Y0764163D01*
X0543000Y0779248D02*
X0543000Y0789989D01*
X0543000Y0794350D02*
X0543000Y0795650D01*
X0543000Y0800010D02*
X0543000Y0802810D01*
X0543000Y0818350D02*
X0543000Y0819650D01*
X0543000Y0835190D02*
X0543000Y0845153D01*
X0546000Y0664810D02*
X0546000Y0655324D01*
X0546000Y0697189D02*
X0546000Y0705763D01*
X0546000Y0770836D02*
X0546000Y0802810D01*
X0546000Y0818350D02*
X0546000Y0819650D01*
X0546000Y0835190D02*
X0546000Y0844676D01*
X0549000Y0664810D02*
X0549000Y0656127D01*
X0549000Y0680350D02*
X0549000Y0681650D01*
X0549000Y0697189D02*
X0549000Y0702677D01*
X0549000Y0707322D02*
X0549000Y0708763D01*
X0549000Y0767837D02*
X0549000Y0782677D01*
X0549000Y0787322D02*
X0549000Y0802810D01*
X0549000Y0818350D02*
X0549000Y0819650D01*
X0549000Y0835190D02*
X0549000Y0843872D01*
X0552000Y0664810D02*
X0552000Y0656931D01*
X0552000Y0680350D02*
X0552000Y0681650D01*
X0552000Y0697189D02*
X0552000Y0699281D01*
X0552000Y0710719D02*
X0552000Y0719281D01*
X0552000Y0770719D02*
X0552000Y0779281D01*
X0552000Y0790719D02*
X0552000Y0802810D01*
X0552000Y0818350D02*
X0552000Y0819650D01*
X0552000Y0835190D02*
X0552000Y0843069D01*
X0555000Y0664810D02*
X0555000Y0658191D01*
X0555000Y0680350D02*
X0555000Y0681650D01*
X0555000Y0697189D02*
X0555000Y0698567D01*
X0555000Y0711432D02*
X0555000Y0718567D01*
X0555000Y0771432D02*
X0555000Y0778567D01*
X0555000Y0791432D02*
X0555000Y0802810D01*
X0555000Y0818350D02*
X0555000Y0819650D01*
X0555000Y0835190D02*
X0555000Y0841809D01*
X0558000Y0664810D02*
X0558000Y0659923D01*
X0558000Y0680350D02*
X0558000Y0681650D01*
X0558000Y0697189D02*
X0558000Y0699281D01*
X0558000Y0710719D02*
X0558000Y0719281D01*
X0558000Y0770719D02*
X0558000Y0779281D01*
X0558000Y0790719D02*
X0558000Y0802810D01*
X0558000Y0818350D02*
X0558000Y0819650D01*
X0558000Y0835190D02*
X0558000Y0840077D01*
X0561000Y0664810D02*
X0561000Y0661655D01*
X0561000Y0680350D02*
X0561000Y0681650D01*
X0561000Y0697189D02*
X0561000Y0699350D01*
X0561000Y0710650D02*
X0561000Y0719350D01*
X0561000Y0770650D02*
X0561000Y0779350D01*
X0561000Y0790650D02*
X0561000Y0802810D01*
X0561000Y0818350D02*
X0561000Y0819650D01*
X0561000Y0835190D02*
X0561000Y0838344D01*
X0564000Y0665183D02*
X0564000Y0664435D01*
X0564000Y0680350D02*
X0564000Y0681650D01*
X0564000Y0696817D02*
X0564000Y0699350D01*
X0564000Y0710650D02*
X0564000Y0719350D01*
X0564000Y0770650D02*
X0564000Y0779350D01*
X0564000Y0790650D02*
X0564000Y0803182D01*
X0564000Y0818350D02*
X0564000Y0819650D01*
X0564000Y0834817D02*
X0564000Y0835565D01*
X0567000Y0699350D02*
X0567000Y0667435D01*
X0567000Y0710650D02*
X0567000Y0719350D01*
X0567000Y0770650D02*
X0567000Y0779350D01*
X0567000Y0790650D02*
X0567000Y0832565D01*
X0570000Y0699350D02*
X0570000Y0671866D01*
X0570000Y0710650D02*
X0570000Y0719350D01*
X0570000Y0770650D02*
X0570000Y0779350D01*
X0570000Y0790650D02*
X0570000Y0828134D01*
X0573000Y0699350D02*
X0573000Y0677744D01*
X0573000Y0710650D02*
X0573000Y0719350D01*
X0573000Y0770650D02*
X0573000Y0779350D01*
X0573000Y0790650D02*
X0573000Y0822256D01*
D18*
X0485000Y0760000D03*
X0496000Y0752000D03*
X0475000Y0770000D03*
X0402500Y0675000D03*
X0402500Y0683500D03*
X0402500Y0692000D03*
X0567500Y0683500D03*
X0567500Y0692000D03*
X0567500Y0675000D03*
X0567500Y0820000D03*
X0567500Y0810000D03*
X0545000Y0840000D03*
X0402500Y0810000D03*
X0421500Y0840000D03*
X0402500Y0820000D03*
X0466500Y0722500D03*
X0443700Y0795900D03*
X0502900Y0730800D03*
X0438500Y0714500D03*
X0447500Y0714500D03*
X0530500Y0785500D03*
X0456000Y0706000D03*
X0514000Y0795000D03*
X0522000Y0785500D03*
D19*
X0465525Y0785600D02*
X0456786Y0775079D01*
X0456786Y0768100D01*
X0456786Y0749600D01*
X0456886Y0749500D01*
X0456886Y0731000D01*
X0456986Y0730900D01*
X0456986Y0727600D01*
X0454386Y0725000D01*
X0439500Y0725000D01*
X0440500Y0724000D02*
X0454200Y0724000D01*
X0440500Y0724000D02*
X0439500Y0725000D01*
X0454200Y0724000D02*
X0465000Y0713199D01*
X0494775Y0721200D02*
X0495075Y0721500D01*
X0494750Y0721825D02*
X0494750Y0738000D01*
X0494750Y0721825D02*
X0495075Y0721500D01*
X0519300Y0708199D02*
X0543600Y0708199D01*
X0546600Y0711200D01*
X0546600Y0765399D01*
X0536700Y0775300D01*
X0530800Y0775300D01*
X0530500Y0775000D01*
X0495000Y0713199D02*
X0465000Y0713199D01*
X0495000Y0713199D02*
X0514300Y0713199D01*
X0519300Y0708199D01*
X0495075Y0713275D02*
X0495075Y0721500D01*
X0495075Y0713275D02*
X0495000Y0713199D01*
D13*
X0439500Y0765000D02*
X0433139Y0765000D01*
X0423138Y0775000D01*
X0423138Y0787839D01*
X0439600Y0804300D01*
X0487699Y0804300D01*
X0495000Y0797000D01*
X0495000Y0782250D01*
X0494750Y0782000D01*
X0494750Y0777550D01*
X0516700Y0755600D02*
X0516700Y0740800D01*
X0522500Y0735000D02*
X0530500Y0735000D01*
X0522500Y0735000D02*
X0516700Y0740800D01*
X0516700Y0755600D02*
X0494750Y0777550D01*
X0484700Y0797300D02*
X0457300Y0797300D01*
X0445000Y0785000D02*
X0439500Y0785000D01*
X0445000Y0785000D02*
X0457300Y0797300D01*
X0488250Y0793750D02*
X0488250Y0782000D01*
X0488250Y0793750D02*
X0484700Y0797300D01*
X0488250Y0782000D02*
X0488250Y0774350D01*
X0510000Y0752600D02*
X0510000Y0729300D01*
X0524300Y0715000D01*
X0530500Y0715000D01*
X0510000Y0752600D02*
X0488250Y0774350D01*
D16*
X0481750Y0782000D02*
X0481750Y0790980D01*
X0479000Y0793730D01*
X0446775Y0775000D02*
X0438000Y0775000D01*
D18*
X0438000Y0775000D03*
D16*
X0456275Y0785600D02*
X0464405Y0793730D01*
X0479000Y0793730D01*
X0456275Y0784500D02*
X0446775Y0775000D01*
X0456275Y0784500D02*
X0456275Y0785600D01*
D19*
X0415893Y0775000D02*
X0404500Y0775000D01*
D18*
X0415893Y0775000D03*
X0555000Y0725000D03*
D16*
X0565500Y0725000D01*
D18*
X0443000Y0678000D03*
X0527000Y0678000D03*
D16*
X0443032Y0677968D02*
X0443000Y0678000D01*
X0443032Y0677968D02*
X0453206Y0677968D01*
X0472238Y0697000D01*
X0497500Y0697000D01*
X0516500Y0678000D02*
X0527000Y0678000D01*
X0516500Y0678000D02*
X0497500Y0697000D01*
D19*
X0416000Y0755107D02*
X0404509Y0755009D01*
X0404500Y0755000D01*
D18*
X0416000Y0755107D03*
X0555000Y0745000D03*
D16*
X0565500Y0745000D01*
D18*
X0451000Y0685000D03*
X0519000Y0685000D03*
D16*
X0455319Y0685000D02*
X0451000Y0685000D01*
X0455319Y0685000D02*
X0470319Y0700000D01*
X0499548Y0700000D01*
X0514548Y0685000D02*
X0519000Y0685000D01*
X0514548Y0685000D02*
X0499548Y0700000D01*
D19*
X0416000Y0735107D02*
X0404509Y0735009D01*
X0404500Y0735000D01*
D18*
X0416000Y0735107D03*
X0555000Y0765000D03*
D16*
X0565500Y0765000D01*
D18*
X0443000Y0692000D03*
X0527000Y0692000D03*
D16*
X0457000Y0692000D02*
X0443000Y0692000D01*
X0457000Y0692000D02*
X0468000Y0703000D01*
X0501500Y0703000D01*
X0512500Y0692000D02*
X0527000Y0692000D01*
X0512500Y0692000D02*
X0501500Y0703000D01*
D19*
X0404509Y0715009D02*
X0404500Y0715000D01*
X0404509Y0715009D02*
X0416000Y0715107D01*
D18*
X0416000Y0715107D03*
X0555000Y0785000D03*
D16*
X0565500Y0785000D01*
X0411000Y0715000D02*
X0404500Y0715000D01*
D18*
X0515900Y0698700D03*
D16*
X0427000Y0699000D02*
X0411000Y0715000D01*
X0427000Y0699000D02*
X0459000Y0699000D01*
X0466000Y0706000D01*
X0503500Y0706000D01*
X0510800Y0698700D02*
X0515900Y0698700D01*
X0510800Y0698700D02*
X0503500Y0706000D01*
D19*
X0416000Y0795107D02*
X0404500Y0795000D01*
D18*
X0416000Y0795107D03*
X0555000Y0705000D03*
D16*
X0565500Y0705000D01*
D18*
X0451000Y0671000D03*
X0519000Y0671000D03*
D16*
X0474000Y0694000D02*
X0451000Y0671000D01*
X0474000Y0694000D02*
X0495500Y0694000D01*
X0518500Y0671000D02*
X0519000Y0671000D01*
X0518500Y0671000D02*
X0495500Y0694000D01*
M02*