G04 EAGLE Gerber RS-274X export*
G75*
%MOMM*%
%FSLAX34Y34*%
%LPD*%
%INSilk screen*%
%IPPOS*%
%AMOC8*
5,1,8,0,0,$1,22.5*%
G01*
%ADD10C,0.127*%
%ADD11C,0.1524*%
%ADD12C,0.2*%
%ADD13C,0.0762*%
%ADD14C,0.15*%
G36*
X0465982Y0782935D02*
X0465982Y0782935D01*
X0465984Y0782934D01*
X0466027Y0782954D01*
X0466071Y0782972D01*
X0466071Y0782974D01*
X0466073Y0782975D01*
X0466106Y0783060D01*
X0466106Y0788139D01*
X0466105Y0788142D01*
X0466106Y0788144D01*
X0466086Y0788187D01*
X0466068Y0788231D01*
X0466066Y0788231D01*
X0466064Y0788233D01*
X0465980Y0788266D01*
X0455820Y0788266D01*
X0455818Y0788265D01*
X0455816Y0788266D01*
X0455773Y0788246D01*
X0455728Y0788228D01*
X0455728Y0788226D01*
X0455727Y0788225D01*
X0455694Y0788139D01*
X0455694Y0783060D01*
X0455695Y0783058D01*
X0455694Y0783056D01*
X0455713Y0783013D01*
X0455732Y0782968D01*
X0455734Y0782968D01*
X0455735Y0782967D01*
X0455820Y0782934D01*
X0465980Y0782934D01*
X0465982Y0782935D01*
G37*
G36*
X0504782Y0718835D02*
X0504782Y0718835D01*
X0504784Y0718834D01*
X0504827Y0718854D01*
X0504871Y0718872D01*
X0504871Y0718874D01*
X0504873Y0718875D01*
X0504906Y0718960D01*
X0504906Y0724040D01*
X0504905Y0724042D01*
X0504906Y0724044D01*
X0504886Y0724087D01*
X0504868Y0724131D01*
X0504865Y0724131D01*
X0504865Y0724132D01*
X0504780Y0724166D01*
X0494620Y0724166D01*
X0494617Y0724165D01*
X0494616Y0724166D01*
X0494573Y0724146D01*
X0494529Y0724128D01*
X0494529Y0724126D01*
X0494527Y0724125D01*
X0494494Y0724040D01*
X0494494Y0718960D01*
X0494495Y0718957D01*
X0494494Y0718956D01*
X0494514Y0718913D01*
X0494532Y0718869D01*
X0494534Y0718869D01*
X0494535Y0718867D01*
X0494620Y0718834D01*
X0504780Y0718834D01*
X0504782Y0718835D01*
G37*
G36*
X0503153Y0777536D02*
X0503153Y0777536D01*
X0503160Y0777543D01*
X0503166Y0777540D01*
X0503769Y0777788D01*
X0503774Y0777798D01*
X0503780Y0777796D01*
X0504298Y0778193D01*
X0504300Y0778202D01*
X0504307Y0778202D01*
X0504704Y0778720D01*
X0504704Y0778730D01*
X0504711Y0778730D01*
X0504960Y0779334D01*
X0504958Y0779343D01*
X0504964Y0779346D01*
X0505049Y0779994D01*
X0505044Y0780002D01*
X0505049Y0780006D01*
X0504964Y0780654D01*
X0504957Y0780660D01*
X0504960Y0780665D01*
X0504711Y0781269D01*
X0504702Y0781274D01*
X0504704Y0781280D01*
X0504307Y0781798D01*
X0504298Y0781800D01*
X0504298Y0781807D01*
X0503780Y0782204D01*
X0503771Y0782204D01*
X0503769Y0782211D01*
X0503166Y0782460D01*
X0503157Y0782458D01*
X0503153Y0782464D01*
X0502506Y0782548D01*
X0502498Y0782544D01*
X0502494Y0782548D01*
X0501847Y0782464D01*
X0501840Y0782457D01*
X0501834Y0782460D01*
X0501231Y0782211D01*
X0501226Y0782202D01*
X0501220Y0782204D01*
X0500702Y0781807D01*
X0500700Y0781798D01*
X0500693Y0781798D01*
X0500296Y0781280D01*
X0500296Y0781271D01*
X0500289Y0781269D01*
X0500040Y0780665D01*
X0500040Y0780665D01*
X0500042Y0780656D01*
X0500036Y0780654D01*
X0499951Y0780006D01*
X0499955Y0779997D01*
X0499951Y0779994D01*
X0500036Y0779346D01*
X0500043Y0779340D01*
X0500040Y0779334D01*
X0500289Y0778730D01*
X0500298Y0778726D01*
X0500296Y0778720D01*
X0500693Y0778202D01*
X0500702Y0778199D01*
X0500702Y0778193D01*
X0501220Y0777796D01*
X0501230Y0777796D01*
X0501231Y0777788D01*
X0501834Y0777540D01*
X0501843Y0777542D01*
X0501847Y0777536D01*
X0502494Y0777451D01*
X0502502Y0777456D01*
X0502506Y0777451D01*
X0503153Y0777536D01*
G37*
D10*
X0454343Y0773635D02*
X0456586Y0780365D01*
X0458830Y0773635D01*
X0458269Y0775318D02*
X0454904Y0775318D01*
X0461918Y0777000D02*
X0461920Y0777148D01*
X0461926Y0777296D01*
X0461936Y0777443D01*
X0461950Y0777591D01*
X0461967Y0777738D01*
X0461989Y0777884D01*
X0462014Y0778030D01*
X0462044Y0778175D01*
X0462077Y0778319D01*
X0462114Y0778462D01*
X0462155Y0778604D01*
X0462200Y0778746D01*
X0462248Y0778884D01*
X0462300Y0779024D01*
X0462356Y0779161D01*
X0462416Y0779295D01*
X0462479Y0779430D01*
X0462479Y0779431D02*
X0462504Y0779498D01*
X0462532Y0779563D01*
X0462564Y0779627D01*
X0462599Y0779689D01*
X0462637Y0779750D01*
X0462678Y0779808D01*
X0462722Y0779865D01*
X0462769Y0779918D01*
X0462819Y0779970D01*
X0462871Y0780018D01*
X0462926Y0780064D01*
X0462983Y0780107D01*
X0463042Y0780147D01*
X0463104Y0780184D01*
X0463167Y0780218D01*
X0463230Y0780248D01*
X0463297Y0780275D01*
X0463365Y0780299D01*
X0463434Y0780319D01*
X0463503Y0780336D01*
X0463573Y0780348D01*
X0463644Y0780358D01*
X0463716Y0780363D01*
X0463787Y0780365D01*
X0463858Y0780363D01*
X0463930Y0780358D01*
X0464001Y0780348D01*
X0464071Y0780336D01*
X0464140Y0780319D01*
X0464209Y0780299D01*
X0464277Y0780275D01*
X0464343Y0780248D01*
X0464407Y0780218D01*
X0464470Y0780184D01*
X0464532Y0780147D01*
X0464591Y0780107D01*
X0464647Y0780064D01*
X0464703Y0780018D01*
X0464754Y0779970D01*
X0464805Y0779918D01*
X0464852Y0779865D01*
X0464896Y0779808D01*
X0464936Y0779750D01*
X0464975Y0779689D01*
X0465010Y0779627D01*
X0465042Y0779563D01*
X0465070Y0779497D01*
X0465095Y0779430D01*
X0465096Y0779430D02*
X0465159Y0779295D01*
X0465219Y0779161D01*
X0465275Y0779024D01*
X0465327Y0778884D01*
X0465375Y0778746D01*
X0465420Y0778605D01*
X0465461Y0778462D01*
X0465498Y0778319D01*
X0465531Y0778175D01*
X0465561Y0778030D01*
X0465586Y0777884D01*
X0465608Y0777738D01*
X0465625Y0777591D01*
X0465639Y0777443D01*
X0465649Y0777296D01*
X0465655Y0777148D01*
X0465657Y0777000D01*
X0461918Y0777000D02*
X0461920Y0776852D01*
X0461926Y0776704D01*
X0461936Y0776557D01*
X0461950Y0776409D01*
X0461967Y0776262D01*
X0461989Y0776116D01*
X0462014Y0775970D01*
X0462044Y0775825D01*
X0462077Y0775681D01*
X0462114Y0775538D01*
X0462155Y0775396D01*
X0462200Y0775254D01*
X0462248Y0775115D01*
X0462300Y0774976D01*
X0462356Y0774839D01*
X0462416Y0774704D01*
X0462479Y0774569D01*
X0462479Y0774569D02*
X0462504Y0774502D01*
X0462532Y0774437D01*
X0462564Y0774372D01*
X0462599Y0774310D01*
X0462637Y0774250D01*
X0462678Y0774192D01*
X0462722Y0774135D01*
X0462769Y0774081D01*
X0462819Y0774030D01*
X0462871Y0773982D01*
X0462926Y0773935D01*
X0462983Y0773893D01*
X0463042Y0773853D01*
X0463104Y0773816D01*
X0463167Y0773781D01*
X0463230Y0773752D01*
X0463297Y0773725D01*
X0463365Y0773701D01*
X0463434Y0773681D01*
X0463503Y0773664D01*
X0463573Y0773652D01*
X0463644Y0773642D01*
X0463716Y0773637D01*
X0463787Y0773635D01*
X0465095Y0774569D02*
X0465158Y0774704D01*
X0465218Y0774839D01*
X0465274Y0774976D01*
X0465326Y0775115D01*
X0465374Y0775254D01*
X0465419Y0775395D01*
X0465460Y0775538D01*
X0465497Y0775681D01*
X0465530Y0775825D01*
X0465560Y0775970D01*
X0465585Y0776116D01*
X0465607Y0776262D01*
X0465623Y0776409D01*
X0465638Y0776557D01*
X0465648Y0776704D01*
X0465653Y0776852D01*
X0465656Y0777000D01*
X0465095Y0774569D02*
X0465070Y0774502D01*
X0465042Y0774437D01*
X0465010Y0774372D01*
X0464975Y0774310D01*
X0464936Y0774250D01*
X0464896Y0774192D01*
X0464852Y0774135D01*
X0464805Y0774081D01*
X0464754Y0774030D01*
X0464703Y0773982D01*
X0464647Y0773935D01*
X0464591Y0773893D01*
X0464532Y0773853D01*
X0464470Y0773816D01*
X0464407Y0773781D01*
X0464343Y0773752D01*
X0464277Y0773725D01*
X0464209Y0773701D01*
X0464140Y0773681D01*
X0464071Y0773664D01*
X0464001Y0773652D01*
X0463930Y0773642D01*
X0463858Y0773637D01*
X0463787Y0773635D01*
X0462291Y0775131D02*
X0465283Y0778869D01*
X0457087Y0761865D02*
X0454844Y0755134D01*
X0459330Y0755134D02*
X0457087Y0761865D01*
X0458769Y0756818D02*
X0455404Y0756818D01*
X0462418Y0760369D02*
X0464287Y0761865D01*
X0464287Y0755134D01*
X0462418Y0755134D02*
X0466156Y0755134D01*
X0456586Y0743365D02*
X0454343Y0736635D01*
X0458830Y0736635D02*
X0456586Y0743365D01*
X0458269Y0738318D02*
X0454904Y0738318D01*
X0463974Y0743366D02*
X0464054Y0743364D01*
X0464134Y0743358D01*
X0464214Y0743349D01*
X0464293Y0743336D01*
X0464371Y0743319D01*
X0464448Y0743298D01*
X0464524Y0743272D01*
X0464600Y0743245D01*
X0464673Y0743214D01*
X0464745Y0743179D01*
X0464816Y0743141D01*
X0464884Y0743099D01*
X0464950Y0743054D01*
X0465014Y0743006D01*
X0465075Y0742955D01*
X0465135Y0742901D01*
X0465192Y0742844D01*
X0465246Y0742784D01*
X0465297Y0742723D01*
X0465345Y0742659D01*
X0465390Y0742593D01*
X0465432Y0742525D01*
X0465469Y0742454D01*
X0465505Y0742382D01*
X0465536Y0742309D01*
X0465563Y0742233D01*
X0465589Y0742157D01*
X0465610Y0742080D01*
X0465627Y0742002D01*
X0465640Y0741923D01*
X0465649Y0741843D01*
X0465655Y0741763D01*
X0465657Y0741683D01*
X0463974Y0743365D02*
X0463883Y0743363D01*
X0463793Y0743357D01*
X0463703Y0743348D01*
X0463613Y0743335D01*
X0463524Y0743318D01*
X0463436Y0743297D01*
X0463349Y0743272D01*
X0463262Y0743245D01*
X0463178Y0743213D01*
X0463093Y0743178D01*
X0463012Y0743139D01*
X0462932Y0743096D01*
X0462853Y0743052D01*
X0462777Y0743002D01*
X0462702Y0742951D01*
X0462630Y0742897D01*
X0462560Y0742839D01*
X0462493Y0742778D01*
X0462428Y0742715D01*
X0462366Y0742649D01*
X0462307Y0742580D01*
X0462251Y0742509D01*
X0462198Y0742436D01*
X0462147Y0742360D01*
X0462100Y0742282D01*
X0462057Y0742203D01*
X0462017Y0742122D01*
X0461980Y0742039D01*
X0461947Y0741955D01*
X0461917Y0741869D01*
X0465095Y0740374D02*
X0465152Y0740432D01*
X0465208Y0740492D01*
X0465259Y0740554D01*
X0465309Y0740619D01*
X0465356Y0740685D01*
X0465399Y0740754D01*
X0465439Y0740825D01*
X0465476Y0740896D01*
X0465510Y0740971D01*
X0465540Y0741046D01*
X0465567Y0741123D01*
X0465591Y0741201D01*
X0465610Y0741280D01*
X0465627Y0741360D01*
X0465640Y0741440D01*
X0465649Y0741521D01*
X0465653Y0741602D01*
X0465656Y0741683D01*
X0465096Y0740374D02*
X0461918Y0736635D01*
X0465656Y0736635D01*
D11*
X0415319Y0663438D02*
X0413161Y0656962D01*
X0417479Y0656962D02*
X0415319Y0663438D01*
X0416939Y0658580D02*
X0413701Y0658580D01*
X0420180Y0657322D02*
X0420180Y0656962D01*
X0420180Y0657322D02*
X0420540Y0657322D01*
X0420540Y0656962D01*
X0420180Y0656962D01*
X0424848Y0658401D02*
X0424848Y0663438D01*
X0424848Y0658401D02*
X0424846Y0658328D01*
X0424841Y0658255D01*
X0424831Y0658182D01*
X0424819Y0658111D01*
X0424801Y0658040D01*
X0424782Y0657970D01*
X0424758Y0657901D01*
X0424731Y0657834D01*
X0424701Y0657767D01*
X0424667Y0657703D01*
X0424630Y0657640D01*
X0424590Y0657579D01*
X0424547Y0657520D01*
X0424501Y0657464D01*
X0424452Y0657410D01*
X0424400Y0657358D01*
X0424346Y0657309D01*
X0424290Y0657263D01*
X0424231Y0657220D01*
X0424170Y0657180D01*
X0424107Y0657143D01*
X0424043Y0657109D01*
X0423975Y0657079D01*
X0423909Y0657052D01*
X0423840Y0657028D01*
X0423770Y0657008D01*
X0423699Y0656991D01*
X0423626Y0656979D01*
X0423555Y0656969D01*
X0423482Y0656964D01*
X0423409Y0656962D01*
X0422690Y0656962D01*
X0428905Y0656962D02*
X0431783Y0656962D01*
X0428905Y0656962D02*
X0428905Y0663438D01*
X0431783Y0663438D01*
X0431064Y0660560D02*
X0428905Y0660560D01*
X0435121Y0663438D02*
X0435121Y0656962D01*
X0438718Y0656962D02*
X0435121Y0663438D01*
X0438718Y0663438D02*
X0438718Y0656962D01*
X0442825Y0656962D02*
X0445703Y0656962D01*
X0442825Y0656962D02*
X0442825Y0663438D01*
X0445703Y0663438D01*
X0444984Y0660560D02*
X0442825Y0660560D01*
X0449119Y0663438D02*
X0449119Y0656962D01*
X0449119Y0663438D02*
X0450918Y0663438D01*
X0451001Y0663436D01*
X0451084Y0663430D01*
X0451167Y0663421D01*
X0451248Y0663407D01*
X0451330Y0663390D01*
X0451410Y0663369D01*
X0451490Y0663345D01*
X0451567Y0663317D01*
X0451645Y0663285D01*
X0451719Y0663249D01*
X0451793Y0663211D01*
X0451865Y0663169D01*
X0451935Y0663122D01*
X0452002Y0663075D01*
X0452067Y0663023D01*
X0452130Y0662968D01*
X0452190Y0662911D01*
X0452247Y0662851D01*
X0452301Y0662788D01*
X0452354Y0662723D01*
X0452402Y0662656D01*
X0452448Y0662586D01*
X0452490Y0662514D01*
X0452528Y0662441D01*
X0452564Y0662366D01*
X0452596Y0662289D01*
X0452624Y0662211D01*
X0452648Y0662131D01*
X0452669Y0662051D01*
X0452686Y0661970D01*
X0452699Y0661888D01*
X0452709Y0661805D01*
X0452715Y0661722D01*
X0452717Y0661639D01*
X0452715Y0661556D01*
X0452709Y0661473D01*
X0452699Y0661390D01*
X0452686Y0661307D01*
X0452669Y0661227D01*
X0452648Y0661147D01*
X0452624Y0661067D01*
X0452596Y0660989D01*
X0452564Y0660912D01*
X0452528Y0660836D01*
X0452490Y0660764D01*
X0452448Y0660692D01*
X0452402Y0660622D01*
X0452354Y0660555D01*
X0452301Y0660490D01*
X0452247Y0660427D01*
X0452190Y0660367D01*
X0452130Y0660310D01*
X0452067Y0660254D01*
X0452002Y0660203D01*
X0451935Y0660155D01*
X0451865Y0660109D01*
X0451793Y0660067D01*
X0451719Y0660029D01*
X0451645Y0659993D01*
X0451567Y0659961D01*
X0451490Y0659933D01*
X0451410Y0659909D01*
X0451330Y0659888D01*
X0451248Y0659871D01*
X0451167Y0659857D01*
X0451084Y0659848D01*
X0451001Y0659842D01*
X0450918Y0659840D01*
X0449119Y0659840D01*
X0451278Y0659840D02*
X0452717Y0656962D01*
X0457560Y0656962D02*
X0457560Y0663438D01*
X0455760Y0663438D02*
X0459359Y0663438D01*
X0464400Y0656962D02*
X0464475Y0656964D01*
X0464550Y0656970D01*
X0464625Y0656979D01*
X0464699Y0656992D01*
X0464771Y0657011D01*
X0464844Y0657032D01*
X0464916Y0657058D01*
X0464985Y0657086D01*
X0465053Y0657119D01*
X0465120Y0657155D01*
X0465184Y0657193D01*
X0465246Y0657236D01*
X0465306Y0657283D01*
X0465363Y0657332D01*
X0465418Y0657383D01*
X0465469Y0657437D01*
X0465518Y0657495D01*
X0465563Y0657555D01*
X0465607Y0657617D01*
X0465646Y0657681D01*
X0465682Y0657748D01*
X0465715Y0657816D01*
X0465743Y0657885D01*
X0465769Y0657955D01*
X0465790Y0658028D01*
X0465807Y0658102D01*
X0465820Y0658176D01*
X0465831Y0658251D01*
X0465837Y0658326D01*
X0465839Y0658401D01*
X0464400Y0656962D02*
X0464291Y0656964D01*
X0464182Y0656970D01*
X0464073Y0656979D01*
X0463965Y0656992D01*
X0463857Y0657011D01*
X0463750Y0657032D01*
X0463644Y0657056D01*
X0463539Y0657086D01*
X0463435Y0657119D01*
X0463332Y0657156D01*
X0463230Y0657196D01*
X0463131Y0657240D01*
X0463033Y0657287D01*
X0462936Y0657338D01*
X0462841Y0657392D01*
X0462749Y0657450D01*
X0462658Y0657510D01*
X0462570Y0657574D01*
X0462484Y0657642D01*
X0462400Y0657711D01*
X0462320Y0657784D01*
X0462241Y0657861D01*
X0462421Y0661999D02*
X0462423Y0662074D01*
X0462429Y0662149D01*
X0462438Y0662223D01*
X0462451Y0662298D01*
X0462470Y0662371D01*
X0462491Y0662444D01*
X0462517Y0662514D01*
X0462545Y0662584D01*
X0462578Y0662651D01*
X0462614Y0662719D01*
X0462652Y0662783D01*
X0462695Y0662845D01*
X0462742Y0662905D01*
X0462791Y0662962D01*
X0462842Y0663017D01*
X0462896Y0663068D01*
X0462954Y0663117D01*
X0463014Y0663163D01*
X0463076Y0663206D01*
X0463140Y0663245D01*
X0463207Y0663281D01*
X0463275Y0663314D01*
X0463344Y0663342D01*
X0463414Y0663368D01*
X0463488Y0663389D01*
X0463561Y0663407D01*
X0463635Y0663420D01*
X0463710Y0663430D01*
X0463785Y0663436D01*
X0463860Y0663438D01*
X0463962Y0663436D01*
X0464064Y0663430D01*
X0464166Y0663421D01*
X0464266Y0663407D01*
X0464368Y0663390D01*
X0464467Y0663369D01*
X0464567Y0663344D01*
X0464664Y0663315D01*
X0464762Y0663283D01*
X0464857Y0663247D01*
X0464951Y0663207D01*
X0465044Y0663164D01*
X0465135Y0663118D01*
X0465224Y0663068D01*
X0465311Y0663015D01*
X0465396Y0662958D01*
X0465479Y0662898D01*
X0463140Y0660739D02*
X0463075Y0660780D01*
X0463013Y0660823D01*
X0462953Y0660870D01*
X0462896Y0660920D01*
X0462841Y0660972D01*
X0462789Y0661028D01*
X0462740Y0661086D01*
X0462695Y0661146D01*
X0462652Y0661209D01*
X0462613Y0661274D01*
X0462577Y0661340D01*
X0462544Y0661409D01*
X0462515Y0661478D01*
X0462490Y0661551D01*
X0462468Y0661624D01*
X0462451Y0661698D01*
X0462438Y0661772D01*
X0462428Y0661847D01*
X0462421Y0661923D01*
X0462420Y0661999D01*
X0465119Y0659661D02*
X0465184Y0659620D01*
X0465246Y0659577D01*
X0465306Y0659530D01*
X0465363Y0659479D01*
X0465418Y0659428D01*
X0465469Y0659372D01*
X0465519Y0659314D01*
X0465563Y0659254D01*
X0465607Y0659191D01*
X0465646Y0659126D01*
X0465682Y0659060D01*
X0465715Y0658991D01*
X0465744Y0658921D01*
X0465769Y0658849D01*
X0465790Y0658776D01*
X0465807Y0658702D01*
X0465820Y0658627D01*
X0465831Y0658553D01*
X0465837Y0658477D01*
X0465839Y0658401D01*
X0465119Y0659659D02*
X0463140Y0660740D01*
X0505401Y0661538D02*
X0505401Y0658661D01*
X0505401Y0661538D02*
X0505403Y0661622D01*
X0505409Y0661705D01*
X0505418Y0661788D01*
X0505432Y0661870D01*
X0505449Y0661951D01*
X0505469Y0662031D01*
X0505494Y0662111D01*
X0505522Y0662189D01*
X0505554Y0662266D01*
X0505590Y0662341D01*
X0505627Y0662414D01*
X0505670Y0662486D01*
X0505716Y0662556D01*
X0505764Y0662623D01*
X0505816Y0662688D01*
X0505871Y0662751D01*
X0505927Y0662811D01*
X0505988Y0662868D01*
X0506051Y0662923D01*
X0506115Y0662975D01*
X0506183Y0663023D01*
X0506252Y0663069D01*
X0506325Y0663111D01*
X0506398Y0663149D01*
X0506473Y0663185D01*
X0506550Y0663217D01*
X0506628Y0663245D01*
X0506708Y0663269D01*
X0506788Y0663289D01*
X0506869Y0663306D01*
X0506950Y0663321D01*
X0507034Y0663330D01*
X0507117Y0663336D01*
X0507200Y0663338D01*
X0507283Y0663336D01*
X0507365Y0663330D01*
X0507449Y0663321D01*
X0507531Y0663306D01*
X0507612Y0663289D01*
X0507692Y0663269D01*
X0507772Y0663245D01*
X0507849Y0663217D01*
X0507926Y0663185D01*
X0508002Y0663149D01*
X0508075Y0663111D01*
X0508147Y0663069D01*
X0508217Y0663023D01*
X0508284Y0662975D01*
X0508349Y0662923D01*
X0508412Y0662868D01*
X0508472Y0662811D01*
X0508529Y0662751D01*
X0508584Y0662688D01*
X0508636Y0662623D01*
X0508684Y0662556D01*
X0508730Y0662486D01*
X0508772Y0662414D01*
X0508810Y0662341D01*
X0508846Y0662266D01*
X0508878Y0662189D01*
X0508906Y0662111D01*
X0508930Y0662031D01*
X0508951Y0661951D01*
X0508968Y0661870D01*
X0508982Y0661788D01*
X0508991Y0661705D01*
X0508996Y0661622D01*
X0508999Y0661538D01*
X0508999Y0658661D01*
X0508996Y0658578D01*
X0508991Y0658495D01*
X0508982Y0658412D01*
X0508968Y0658330D01*
X0508951Y0658249D01*
X0508930Y0658169D01*
X0508906Y0658089D01*
X0508878Y0658011D01*
X0508846Y0657934D01*
X0508810Y0657859D01*
X0508772Y0657786D01*
X0508730Y0657714D01*
X0508684Y0657644D01*
X0508636Y0657577D01*
X0508584Y0657512D01*
X0508529Y0657449D01*
X0508472Y0657389D01*
X0508412Y0657332D01*
X0508349Y0657277D01*
X0508284Y0657225D01*
X0508217Y0657176D01*
X0508147Y0657131D01*
X0508075Y0657089D01*
X0508002Y0657051D01*
X0507926Y0657015D01*
X0507849Y0656983D01*
X0507772Y0656955D01*
X0507692Y0656931D01*
X0507612Y0656910D01*
X0507531Y0656893D01*
X0507449Y0656879D01*
X0507365Y0656870D01*
X0507283Y0656864D01*
X0507200Y0656862D01*
X0507117Y0656864D01*
X0507034Y0656870D01*
X0506950Y0656879D01*
X0506869Y0656893D01*
X0506788Y0656910D01*
X0506708Y0656931D01*
X0506628Y0656955D01*
X0506550Y0656983D01*
X0506473Y0657015D01*
X0506398Y0657051D01*
X0506325Y0657089D01*
X0506252Y0657131D01*
X0506183Y0657176D01*
X0506115Y0657225D01*
X0506051Y0657277D01*
X0505988Y0657332D01*
X0505927Y0657389D01*
X0505871Y0657449D01*
X0505816Y0657512D01*
X0505764Y0657577D01*
X0505716Y0657644D01*
X0505670Y0657714D01*
X0505627Y0657786D01*
X0505590Y0657859D01*
X0505554Y0657934D01*
X0505522Y0658011D01*
X0505494Y0658089D01*
X0505469Y0658169D01*
X0505449Y0658249D01*
X0505432Y0658330D01*
X0505418Y0658412D01*
X0505409Y0658495D01*
X0505403Y0658578D01*
X0505401Y0658661D01*
X0513574Y0656862D02*
X0515014Y0656862D01*
X0513574Y0656862D02*
X0513511Y0656864D01*
X0513449Y0656869D01*
X0513387Y0656878D01*
X0513324Y0656891D01*
X0513264Y0656907D01*
X0513204Y0656927D01*
X0513147Y0656949D01*
X0513090Y0656977D01*
X0513035Y0657007D01*
X0512981Y0657039D01*
X0512930Y0657076D01*
X0512879Y0657114D01*
X0512834Y0657156D01*
X0512789Y0657201D01*
X0512746Y0657247D01*
X0512709Y0657296D01*
X0512673Y0657348D01*
X0512639Y0657402D01*
X0512609Y0657457D01*
X0512583Y0657514D01*
X0512560Y0657572D01*
X0512540Y0657632D01*
X0512524Y0657692D01*
X0512511Y0657754D01*
X0512502Y0657816D01*
X0512497Y0657878D01*
X0512495Y0657941D01*
X0512495Y0660100D01*
X0512497Y0660163D01*
X0512502Y0660224D01*
X0512511Y0660287D01*
X0512524Y0660348D01*
X0512540Y0660408D01*
X0512560Y0660468D01*
X0512583Y0660527D01*
X0512609Y0660584D01*
X0512639Y0660639D01*
X0512673Y0660693D01*
X0512709Y0660744D01*
X0512746Y0660794D01*
X0512789Y0660840D01*
X0512834Y0660885D01*
X0512879Y0660926D01*
X0512930Y0660965D01*
X0512981Y0661001D01*
X0513035Y0661033D01*
X0513090Y0661063D01*
X0513147Y0661091D01*
X0513204Y0661114D01*
X0513264Y0661134D01*
X0513324Y0661150D01*
X0513387Y0661163D01*
X0513449Y0661172D01*
X0513511Y0661177D01*
X0513574Y0661179D01*
X0515014Y0661179D01*
X0517301Y0661179D02*
X0519461Y0661179D01*
X0518022Y0663338D02*
X0518022Y0657941D01*
X0518024Y0657878D01*
X0518029Y0657816D01*
X0518038Y0657754D01*
X0518050Y0657692D01*
X0518067Y0657632D01*
X0518087Y0657572D01*
X0518110Y0657514D01*
X0518137Y0657457D01*
X0518167Y0657401D01*
X0518200Y0657348D01*
X0518236Y0657296D01*
X0518274Y0657247D01*
X0518316Y0657201D01*
X0518361Y0657156D01*
X0518407Y0657114D01*
X0518457Y0657075D01*
X0518508Y0657039D01*
X0518562Y0657007D01*
X0518617Y0656977D01*
X0518674Y0656949D01*
X0518732Y0656927D01*
X0518792Y0656907D01*
X0518852Y0656891D01*
X0518914Y0656878D01*
X0518975Y0656869D01*
X0519038Y0656864D01*
X0519101Y0656862D01*
X0519461Y0656862D01*
X0522140Y0656862D02*
X0522140Y0657222D01*
X0522500Y0657222D01*
X0522500Y0656862D01*
X0522140Y0656862D01*
X0531380Y0663338D02*
X0531459Y0663336D01*
X0531539Y0663330D01*
X0531618Y0663319D01*
X0531696Y0663306D01*
X0531773Y0663289D01*
X0531850Y0663268D01*
X0531925Y0663242D01*
X0532000Y0663215D01*
X0532072Y0663182D01*
X0532143Y0663147D01*
X0532212Y0663108D01*
X0532279Y0663065D01*
X0532344Y0663019D01*
X0532407Y0662971D01*
X0532467Y0662919D01*
X0532525Y0662864D01*
X0532580Y0662806D01*
X0532632Y0662746D01*
X0532680Y0662683D01*
X0532726Y0662617D01*
X0532769Y0662551D01*
X0532808Y0662482D01*
X0532844Y0662411D01*
X0532876Y0662339D01*
X0532904Y0662264D01*
X0532929Y0662189D01*
X0532950Y0662112D01*
X0532968Y0662035D01*
X0532981Y0661957D01*
X0532991Y0661878D01*
X0532997Y0661798D01*
X0532999Y0661718D01*
X0531380Y0663338D02*
X0531290Y0663336D01*
X0531200Y0663330D01*
X0531110Y0663319D01*
X0531021Y0663306D01*
X0530933Y0663289D01*
X0530845Y0663268D01*
X0530758Y0663242D01*
X0530673Y0663214D01*
X0530589Y0663182D01*
X0530506Y0663145D01*
X0530425Y0663105D01*
X0530346Y0663062D01*
X0530269Y0663015D01*
X0530193Y0662966D01*
X0530120Y0662913D01*
X0530050Y0662857D01*
X0529982Y0662798D01*
X0529916Y0662736D01*
X0529854Y0662671D01*
X0529794Y0662603D01*
X0529737Y0662533D01*
X0529683Y0662461D01*
X0529633Y0662386D01*
X0529585Y0662310D01*
X0529541Y0662231D01*
X0529501Y0662150D01*
X0529464Y0662068D01*
X0529431Y0661984D01*
X0529401Y0661899D01*
X0532459Y0660460D02*
X0532515Y0660515D01*
X0532568Y0660573D01*
X0532618Y0660633D01*
X0532665Y0660695D01*
X0532710Y0660759D01*
X0532752Y0660825D01*
X0532790Y0660893D01*
X0532826Y0660963D01*
X0532858Y0661033D01*
X0532888Y0661107D01*
X0532913Y0661180D01*
X0532936Y0661255D01*
X0532955Y0661331D01*
X0532971Y0661408D01*
X0532983Y0661485D01*
X0532992Y0661563D01*
X0532997Y0661641D01*
X0532999Y0661718D01*
X0532459Y0660460D02*
X0529401Y0656862D01*
X0532999Y0656862D01*
X0536601Y0660100D02*
X0536603Y0660241D01*
X0536609Y0660385D01*
X0536618Y0660527D01*
X0536631Y0660669D01*
X0536648Y0660810D01*
X0536669Y0660951D01*
X0536694Y0661091D01*
X0536722Y0661230D01*
X0536754Y0661369D01*
X0536790Y0661507D01*
X0536829Y0661644D01*
X0536872Y0661780D01*
X0536919Y0661914D01*
X0536969Y0662048D01*
X0537023Y0662179D01*
X0537080Y0662310D01*
X0537141Y0662439D01*
X0537166Y0662506D01*
X0537195Y0662572D01*
X0537227Y0662636D01*
X0537263Y0662698D01*
X0537301Y0662758D01*
X0537344Y0662817D01*
X0537389Y0662872D01*
X0537437Y0662925D01*
X0537488Y0662976D01*
X0537541Y0663024D01*
X0537597Y0663069D01*
X0537656Y0663111D01*
X0537716Y0663149D01*
X0537779Y0663184D01*
X0537843Y0663216D01*
X0537909Y0663244D01*
X0537977Y0663269D01*
X0538045Y0663289D01*
X0538115Y0663306D01*
X0538186Y0663321D01*
X0538257Y0663330D01*
X0538328Y0663336D01*
X0538400Y0663338D01*
X0538472Y0663336D01*
X0538543Y0663330D01*
X0538614Y0663321D01*
X0538685Y0663306D01*
X0538755Y0663289D01*
X0538823Y0663269D01*
X0538891Y0663244D01*
X0538957Y0663216D01*
X0539021Y0663184D01*
X0539084Y0663149D01*
X0539144Y0663111D01*
X0539203Y0663069D01*
X0539259Y0663024D01*
X0539312Y0662976D01*
X0539363Y0662925D01*
X0539411Y0662872D01*
X0539456Y0662817D01*
X0539499Y0662758D01*
X0539537Y0662698D01*
X0539573Y0662636D01*
X0539605Y0662572D01*
X0539634Y0662506D01*
X0539659Y0662439D01*
X0539720Y0662310D01*
X0539777Y0662179D01*
X0539831Y0662048D01*
X0539881Y0661914D01*
X0539928Y0661780D01*
X0539971Y0661644D01*
X0540010Y0661507D01*
X0540046Y0661369D01*
X0540078Y0661230D01*
X0540106Y0661091D01*
X0540131Y0660951D01*
X0540152Y0660810D01*
X0540169Y0660669D01*
X0540182Y0660527D01*
X0540191Y0660385D01*
X0540197Y0660241D01*
X0540199Y0660100D01*
X0536601Y0660100D02*
X0536603Y0659958D01*
X0536609Y0659815D01*
X0536618Y0659673D01*
X0536631Y0659531D01*
X0536648Y0659389D01*
X0536669Y0659248D01*
X0536694Y0659109D01*
X0536722Y0658969D01*
X0536754Y0658831D01*
X0536790Y0658693D01*
X0536829Y0658556D01*
X0536872Y0658420D01*
X0536919Y0658286D01*
X0536969Y0658152D01*
X0537023Y0658021D01*
X0537080Y0657890D01*
X0537141Y0657761D01*
X0537166Y0657694D01*
X0537195Y0657628D01*
X0537227Y0657564D01*
X0537263Y0657502D01*
X0537301Y0657441D01*
X0537344Y0657383D01*
X0537389Y0657328D01*
X0537437Y0657274D01*
X0537488Y0657223D01*
X0537541Y0657176D01*
X0537597Y0657131D01*
X0537656Y0657089D01*
X0537716Y0657051D01*
X0537779Y0657016D01*
X0537843Y0656984D01*
X0537909Y0656956D01*
X0537977Y0656931D01*
X0538045Y0656910D01*
X0538115Y0656893D01*
X0538186Y0656879D01*
X0538257Y0656870D01*
X0538328Y0656864D01*
X0538400Y0656862D01*
X0539659Y0657761D02*
X0539720Y0657890D01*
X0539777Y0658021D01*
X0539831Y0658152D01*
X0539881Y0658286D01*
X0539928Y0658420D01*
X0539971Y0658556D01*
X0540010Y0658693D01*
X0540046Y0658831D01*
X0540078Y0658969D01*
X0540106Y0659109D01*
X0540131Y0659248D01*
X0540152Y0659389D01*
X0540169Y0659531D01*
X0540182Y0659673D01*
X0540191Y0659815D01*
X0540197Y0659958D01*
X0540199Y0660100D01*
X0539659Y0657761D02*
X0539634Y0657694D01*
X0539605Y0657628D01*
X0539573Y0657564D01*
X0539537Y0657502D01*
X0539499Y0657442D01*
X0539456Y0657383D01*
X0539411Y0657328D01*
X0539363Y0657274D01*
X0539312Y0657223D01*
X0539259Y0657176D01*
X0539203Y0657131D01*
X0539144Y0657089D01*
X0539084Y0657051D01*
X0539021Y0657016D01*
X0538957Y0656984D01*
X0538891Y0656956D01*
X0538823Y0656931D01*
X0538755Y0656910D01*
X0538685Y0656893D01*
X0538614Y0656879D01*
X0538543Y0656870D01*
X0538472Y0656864D01*
X0538400Y0656862D01*
X0536961Y0658301D02*
X0539839Y0661899D01*
X0545780Y0663338D02*
X0545859Y0663336D01*
X0545939Y0663330D01*
X0546018Y0663319D01*
X0546096Y0663306D01*
X0546173Y0663289D01*
X0546250Y0663268D01*
X0546325Y0663242D01*
X0546400Y0663215D01*
X0546472Y0663182D01*
X0546543Y0663147D01*
X0546612Y0663108D01*
X0546679Y0663065D01*
X0546744Y0663019D01*
X0546807Y0662971D01*
X0546867Y0662919D01*
X0546925Y0662864D01*
X0546980Y0662806D01*
X0547032Y0662746D01*
X0547080Y0662683D01*
X0547126Y0662617D01*
X0547169Y0662551D01*
X0547208Y0662482D01*
X0547244Y0662411D01*
X0547276Y0662339D01*
X0547304Y0662264D01*
X0547329Y0662189D01*
X0547350Y0662112D01*
X0547368Y0662035D01*
X0547381Y0661957D01*
X0547391Y0661878D01*
X0547397Y0661798D01*
X0547399Y0661718D01*
X0545780Y0663338D02*
X0545690Y0663336D01*
X0545600Y0663330D01*
X0545510Y0663319D01*
X0545421Y0663306D01*
X0545333Y0663289D01*
X0545245Y0663268D01*
X0545158Y0663242D01*
X0545073Y0663214D01*
X0544989Y0663182D01*
X0544906Y0663145D01*
X0544825Y0663105D01*
X0544746Y0663062D01*
X0544669Y0663015D01*
X0544593Y0662966D01*
X0544520Y0662913D01*
X0544450Y0662857D01*
X0544382Y0662798D01*
X0544316Y0662736D01*
X0544254Y0662671D01*
X0544194Y0662603D01*
X0544137Y0662533D01*
X0544083Y0662461D01*
X0544033Y0662386D01*
X0543985Y0662310D01*
X0543941Y0662231D01*
X0543901Y0662150D01*
X0543864Y0662068D01*
X0543831Y0661984D01*
X0543801Y0661899D01*
X0546859Y0660460D02*
X0546915Y0660515D01*
X0546968Y0660573D01*
X0547018Y0660633D01*
X0547065Y0660695D01*
X0547110Y0660759D01*
X0547152Y0660825D01*
X0547190Y0660893D01*
X0547226Y0660963D01*
X0547258Y0661033D01*
X0547288Y0661107D01*
X0547313Y0661180D01*
X0547336Y0661255D01*
X0547355Y0661331D01*
X0547371Y0661408D01*
X0547383Y0661485D01*
X0547392Y0661563D01*
X0547397Y0661641D01*
X0547399Y0661718D01*
X0546859Y0660460D02*
X0543801Y0656862D01*
X0547399Y0656862D01*
X0551001Y0661899D02*
X0552800Y0663338D01*
X0552800Y0656862D01*
X0551001Y0656862D02*
X0554599Y0656862D01*
D12*
X0434500Y0826000D02*
X0409500Y0826000D01*
X0409500Y0674000D01*
X0434500Y0674000D01*
X0434500Y0695000D01*
X0434500Y0805000D01*
X0434500Y0826000D01*
X0434500Y0805000D02*
X0422000Y0805000D01*
X0422000Y0695000D01*
X0434500Y0695000D01*
D10*
X0500000Y0745000D02*
X0500000Y0775000D01*
X0470000Y0775000D01*
X0470000Y0745000D01*
X0500000Y0745000D01*
D13*
X0469290Y0788275D02*
X0469288Y0788344D01*
X0469283Y0788412D01*
X0469273Y0788480D01*
X0469260Y0788548D01*
X0469244Y0788615D01*
X0469223Y0788681D01*
X0469200Y0788745D01*
X0469173Y0788807D01*
X0469142Y0788870D01*
X0469108Y0788930D01*
X0469071Y0788988D01*
X0469031Y0789044D01*
X0468988Y0789097D01*
X0468942Y0789148D01*
X0468893Y0789197D01*
X0468842Y0789243D01*
X0468789Y0789286D01*
X0468733Y0789326D01*
X0468675Y0789363D01*
X0468615Y0789397D01*
X0468553Y0789428D01*
X0468490Y0789455D01*
X0468426Y0789479D01*
X0468360Y0789499D01*
X0468293Y0789515D01*
X0468225Y0789528D01*
X0468157Y0789538D01*
X0468089Y0789543D01*
X0468020Y0789545D01*
X0469290Y0788275D02*
X0469290Y0782925D01*
X0469288Y0782856D01*
X0469283Y0782788D01*
X0469273Y0782720D01*
X0469260Y0782651D01*
X0469244Y0782585D01*
X0469223Y0782519D01*
X0469200Y0782454D01*
X0469173Y0782392D01*
X0469142Y0782330D01*
X0469108Y0782270D01*
X0469071Y0782212D01*
X0469031Y0782156D01*
X0468988Y0782103D01*
X0468942Y0782052D01*
X0468893Y0782003D01*
X0468842Y0781957D01*
X0468789Y0781914D01*
X0468733Y0781874D01*
X0468675Y0781837D01*
X0468615Y0781803D01*
X0468553Y0781772D01*
X0468490Y0781745D01*
X0468426Y0781721D01*
X0468360Y0781701D01*
X0468293Y0781685D01*
X0468225Y0781671D01*
X0468157Y0781662D01*
X0468089Y0781657D01*
X0468020Y0781655D01*
X0453780Y0781655D01*
X0453711Y0781657D01*
X0453643Y0781662D01*
X0453575Y0781671D01*
X0453507Y0781685D01*
X0453440Y0781701D01*
X0453374Y0781721D01*
X0453310Y0781745D01*
X0453247Y0781772D01*
X0453185Y0781803D01*
X0453125Y0781837D01*
X0453067Y0781874D01*
X0453011Y0781914D01*
X0452958Y0781957D01*
X0452907Y0782003D01*
X0452858Y0782052D01*
X0452812Y0782103D01*
X0452769Y0782156D01*
X0452729Y0782212D01*
X0452692Y0782270D01*
X0452658Y0782330D01*
X0452627Y0782392D01*
X0452600Y0782454D01*
X0452575Y0782519D01*
X0452556Y0782585D01*
X0452540Y0782651D01*
X0452527Y0782720D01*
X0452517Y0782788D01*
X0452512Y0782856D01*
X0452510Y0782925D01*
X0452510Y0788275D01*
X0452512Y0788344D01*
X0452517Y0788412D01*
X0452527Y0788480D01*
X0452540Y0788548D01*
X0452556Y0788615D01*
X0452575Y0788681D01*
X0452600Y0788745D01*
X0452627Y0788807D01*
X0452658Y0788870D01*
X0452692Y0788930D01*
X0452729Y0788988D01*
X0452769Y0789044D01*
X0452812Y0789097D01*
X0452858Y0789148D01*
X0452907Y0789197D01*
X0452958Y0789243D01*
X0453011Y0789286D01*
X0453067Y0789326D01*
X0453125Y0789363D01*
X0453185Y0789397D01*
X0453247Y0789428D01*
X0453310Y0789455D01*
X0453374Y0789479D01*
X0453440Y0789499D01*
X0453507Y0789515D01*
X0453575Y0789528D01*
X0453643Y0789538D01*
X0453711Y0789543D01*
X0453780Y0789545D01*
X0468020Y0789545D01*
X0506820Y0725445D02*
X0506889Y0725442D01*
X0506957Y0725438D01*
X0507025Y0725428D01*
X0507093Y0725415D01*
X0507160Y0725399D01*
X0507226Y0725378D01*
X0507290Y0725355D01*
X0507353Y0725328D01*
X0507415Y0725297D01*
X0507475Y0725263D01*
X0507532Y0725226D01*
X0507588Y0725186D01*
X0507642Y0725143D01*
X0507693Y0725097D01*
X0507742Y0725048D01*
X0507788Y0724997D01*
X0507831Y0724944D01*
X0507871Y0724888D01*
X0507908Y0724830D01*
X0507942Y0724770D01*
X0507973Y0724708D01*
X0508000Y0724645D01*
X0508024Y0724581D01*
X0508044Y0724515D01*
X0508060Y0724448D01*
X0508073Y0724380D01*
X0508083Y0724312D01*
X0508088Y0724244D01*
X0508090Y0724175D01*
X0508090Y0718824D01*
X0508088Y0718756D01*
X0508083Y0718687D01*
X0508073Y0718620D01*
X0508060Y0718552D01*
X0508044Y0718485D01*
X0508024Y0718419D01*
X0508000Y0718355D01*
X0507973Y0718292D01*
X0507942Y0718230D01*
X0507908Y0718170D01*
X0507871Y0718112D01*
X0507831Y0718056D01*
X0507788Y0718002D01*
X0507742Y0717951D01*
X0507693Y0717903D01*
X0507642Y0717857D01*
X0507588Y0717814D01*
X0507532Y0717774D01*
X0507475Y0717737D01*
X0507415Y0717703D01*
X0507353Y0717672D01*
X0507290Y0717645D01*
X0507226Y0717621D01*
X0507160Y0717601D01*
X0507093Y0717585D01*
X0507025Y0717572D01*
X0506957Y0717562D01*
X0506889Y0717557D01*
X0506820Y0717555D01*
X0492579Y0717555D01*
X0492511Y0717557D01*
X0492443Y0717562D01*
X0492375Y0717572D01*
X0492307Y0717585D01*
X0492240Y0717601D01*
X0492174Y0717621D01*
X0492110Y0717645D01*
X0492047Y0717672D01*
X0491984Y0717703D01*
X0491925Y0717737D01*
X0491867Y0717774D01*
X0491811Y0717814D01*
X0491758Y0717857D01*
X0491706Y0717903D01*
X0491658Y0717951D01*
X0491612Y0718002D01*
X0491569Y0718056D01*
X0491529Y0718112D01*
X0491492Y0718170D01*
X0491458Y0718230D01*
X0491427Y0718292D01*
X0491400Y0718355D01*
X0491376Y0718419D01*
X0491355Y0718485D01*
X0491340Y0718552D01*
X0491327Y0718620D01*
X0491317Y0718687D01*
X0491312Y0718756D01*
X0491310Y0718824D01*
X0491310Y0724175D01*
X0491312Y0724244D01*
X0491317Y0724312D01*
X0491327Y0724380D01*
X0491340Y0724448D01*
X0491355Y0724515D01*
X0491376Y0724581D01*
X0491400Y0724645D01*
X0491427Y0724708D01*
X0491458Y0724770D01*
X0491492Y0724830D01*
X0491529Y0724888D01*
X0491569Y0724944D01*
X0491612Y0724997D01*
X0491658Y0725048D01*
X0491706Y0725097D01*
X0491758Y0725143D01*
X0491811Y0725186D01*
X0491867Y0725226D01*
X0491925Y0725263D01*
X0491984Y0725297D01*
X0492047Y0725328D01*
X0492110Y0725355D01*
X0492174Y0725378D01*
X0492240Y0725399D01*
X0492307Y0725415D01*
X0492375Y0725428D01*
X0492443Y0725438D01*
X0492511Y0725442D01*
X0492579Y0725445D01*
X0506820Y0725445D01*
D12*
X0535500Y0674000D02*
X0560500Y0674000D01*
X0560500Y0826000D01*
X0535500Y0826000D01*
X0535500Y0805000D01*
X0535500Y0695000D01*
X0535500Y0674000D01*
X0535500Y0695000D02*
X0548000Y0695000D01*
X0548000Y0805000D01*
X0535500Y0805000D01*
D14*
X0465466Y0772180D02*
X0454734Y0772180D01*
X0452694Y0766060D02*
X0452695Y0765971D01*
X0452702Y0765882D01*
X0452710Y0765793D01*
X0452725Y0765706D01*
X0452742Y0765618D01*
X0452764Y0765532D01*
X0452788Y0765447D01*
X0452817Y0765361D01*
X0452849Y0765279D01*
X0452885Y0765198D01*
X0452924Y0765117D01*
X0452967Y0765040D01*
X0453013Y0764964D01*
X0453063Y0764890D01*
X0453116Y0764817D01*
X0453170Y0764749D01*
X0453230Y0764682D01*
X0453292Y0764618D01*
X0453356Y0764556D01*
X0453423Y0764497D01*
X0453491Y0764442D01*
X0453564Y0764389D01*
X0453638Y0764339D01*
X0453714Y0764293D01*
X0453792Y0764250D01*
X0453872Y0764211D01*
X0453953Y0764175D01*
X0454036Y0764143D01*
X0454121Y0764114D01*
X0454206Y0764090D01*
X0454292Y0764068D01*
X0454380Y0764051D01*
X0454467Y0764037D01*
X0454555Y0764028D01*
X0454645Y0764021D01*
X0454734Y0764020D01*
X0465466Y0764020D02*
X0465555Y0764021D01*
X0465644Y0764028D01*
X0465732Y0764037D01*
X0465820Y0764051D01*
X0465908Y0764068D01*
X0465994Y0764090D01*
X0466079Y0764114D01*
X0466164Y0764143D01*
X0466247Y0764175D01*
X0466328Y0764211D01*
X0466408Y0764250D01*
X0466486Y0764293D01*
X0466562Y0764339D01*
X0466636Y0764389D01*
X0466708Y0764442D01*
X0466777Y0764497D01*
X0466843Y0764556D01*
X0466908Y0764618D01*
X0466970Y0764682D01*
X0467029Y0764749D01*
X0467084Y0764817D01*
X0467137Y0764890D01*
X0467187Y0764964D01*
X0467233Y0765040D01*
X0467276Y0765117D01*
X0467314Y0765198D01*
X0467351Y0765279D01*
X0467383Y0765361D01*
X0467412Y0765447D01*
X0467436Y0765532D01*
X0467458Y0765618D01*
X0467475Y0765706D01*
X0467489Y0765793D01*
X0467498Y0765882D01*
X0467504Y0765971D01*
X0467506Y0766060D01*
X0467506Y0770140D02*
X0467504Y0770228D01*
X0467498Y0770318D01*
X0467489Y0770406D01*
X0467475Y0770494D01*
X0467458Y0770582D01*
X0467436Y0770668D01*
X0467412Y0770753D01*
X0467383Y0770838D01*
X0467351Y0770921D01*
X0467314Y0771002D01*
X0467276Y0771082D01*
X0467233Y0771160D01*
X0467187Y0771236D01*
X0467137Y0771310D01*
X0467084Y0771382D01*
X0467029Y0771451D01*
X0466970Y0771518D01*
X0466908Y0771581D01*
X0466843Y0771644D01*
X0466777Y0771703D01*
X0466708Y0771758D01*
X0466636Y0771811D01*
X0466562Y0771861D01*
X0466486Y0771906D01*
X0466408Y0771949D01*
X0466328Y0771989D01*
X0466247Y0772025D01*
X0466164Y0772057D01*
X0466079Y0772086D01*
X0465994Y0772110D01*
X0465908Y0772132D01*
X0465820Y0772149D01*
X0465732Y0772163D01*
X0465644Y0772172D01*
X0465555Y0772178D01*
X0465466Y0772180D01*
X0454734Y0772180D02*
X0454645Y0772178D01*
X0454555Y0772172D01*
X0454467Y0772163D01*
X0454380Y0772149D01*
X0454292Y0772132D01*
X0454206Y0772110D01*
X0454121Y0772086D01*
X0454036Y0772057D01*
X0453953Y0772025D01*
X0453872Y0771989D01*
X0453792Y0771949D01*
X0453714Y0771906D01*
X0453638Y0771861D01*
X0453564Y0771811D01*
X0453491Y0771758D01*
X0453423Y0771703D01*
X0453356Y0771644D01*
X0453292Y0771581D01*
X0453230Y0771518D01*
X0453170Y0771451D01*
X0453116Y0771382D01*
X0453063Y0771310D01*
X0453013Y0771236D01*
X0452967Y0771160D01*
X0452924Y0771082D01*
X0452885Y0771002D01*
X0452849Y0770921D01*
X0452817Y0770838D01*
X0452788Y0770753D01*
X0452764Y0770668D01*
X0452742Y0770582D01*
X0452725Y0770494D01*
X0452710Y0770406D01*
X0452702Y0770318D01*
X0452695Y0770228D01*
X0452694Y0770140D01*
X0452694Y0766060D01*
X0467506Y0766060D02*
X0467506Y0770140D01*
X0465466Y0764020D02*
X0454734Y0764020D01*
X0454834Y0753580D02*
X0465566Y0753580D01*
X0454834Y0745420D02*
X0454745Y0745421D01*
X0454656Y0745428D01*
X0454568Y0745437D01*
X0454480Y0745451D01*
X0454392Y0745468D01*
X0454306Y0745490D01*
X0454221Y0745514D01*
X0454136Y0745543D01*
X0454052Y0745575D01*
X0453972Y0745611D01*
X0453892Y0745650D01*
X0453814Y0745693D01*
X0453738Y0745739D01*
X0453664Y0745789D01*
X0453592Y0745842D01*
X0453523Y0745896D01*
X0453456Y0745956D01*
X0453392Y0746018D01*
X0453330Y0746082D01*
X0453271Y0746149D01*
X0453216Y0746218D01*
X0453163Y0746290D01*
X0453113Y0746364D01*
X0453067Y0746440D01*
X0453024Y0746518D01*
X0452985Y0746598D01*
X0452949Y0746679D01*
X0452917Y0746762D01*
X0452888Y0746846D01*
X0452864Y0746932D01*
X0452842Y0747018D01*
X0452825Y0747106D01*
X0452811Y0747194D01*
X0452802Y0747282D01*
X0452796Y0747371D01*
X0452794Y0747460D01*
X0465566Y0745420D02*
X0465655Y0745421D01*
X0465744Y0745428D01*
X0465832Y0745437D01*
X0465920Y0745451D01*
X0466008Y0745468D01*
X0466094Y0745490D01*
X0466179Y0745514D01*
X0466264Y0745543D01*
X0466347Y0745575D01*
X0466428Y0745611D01*
X0466508Y0745650D01*
X0466586Y0745693D01*
X0466662Y0745739D01*
X0466736Y0745789D01*
X0466808Y0745842D01*
X0466877Y0745896D01*
X0466944Y0745956D01*
X0467008Y0746018D01*
X0467070Y0746082D01*
X0467129Y0746149D01*
X0467184Y0746218D01*
X0467237Y0746290D01*
X0467287Y0746364D01*
X0467333Y0746440D01*
X0467376Y0746518D01*
X0467415Y0746598D01*
X0467451Y0746679D01*
X0467483Y0746762D01*
X0467512Y0746846D01*
X0467536Y0746932D01*
X0467558Y0747018D01*
X0467575Y0747106D01*
X0467588Y0747194D01*
X0467598Y0747282D01*
X0467603Y0747371D01*
X0467605Y0747460D01*
X0467605Y0751540D02*
X0467603Y0751629D01*
X0467598Y0751718D01*
X0467588Y0751806D01*
X0467575Y0751894D01*
X0467558Y0751982D01*
X0467536Y0752068D01*
X0467512Y0752153D01*
X0467483Y0752238D01*
X0467451Y0752321D01*
X0467415Y0752402D01*
X0467376Y0752482D01*
X0467333Y0752560D01*
X0467287Y0752636D01*
X0467237Y0752710D01*
X0467184Y0752782D01*
X0467129Y0752851D01*
X0467070Y0752918D01*
X0467008Y0752982D01*
X0466944Y0753044D01*
X0466877Y0753103D01*
X0466808Y0753158D01*
X0466736Y0753211D01*
X0466662Y0753261D01*
X0466586Y0753307D01*
X0466508Y0753350D01*
X0466428Y0753389D01*
X0466347Y0753425D01*
X0466264Y0753456D01*
X0466179Y0753486D01*
X0466094Y0753510D01*
X0466008Y0753532D01*
X0465920Y0753549D01*
X0465832Y0753563D01*
X0465744Y0753572D01*
X0465655Y0753578D01*
X0465566Y0753580D01*
X0454834Y0753580D02*
X0454745Y0753578D01*
X0454656Y0753572D01*
X0454568Y0753563D01*
X0454480Y0753549D01*
X0454392Y0753532D01*
X0454306Y0753510D01*
X0454221Y0753486D01*
X0454136Y0753456D01*
X0454052Y0753425D01*
X0453972Y0753389D01*
X0453892Y0753350D01*
X0453814Y0753307D01*
X0453738Y0753261D01*
X0453664Y0753211D01*
X0453592Y0753158D01*
X0453523Y0753103D01*
X0453456Y0753044D01*
X0453392Y0752982D01*
X0453330Y0752918D01*
X0453271Y0752851D01*
X0453216Y0752782D01*
X0453163Y0752710D01*
X0453113Y0752636D01*
X0453067Y0752560D01*
X0453024Y0752482D01*
X0452985Y0752402D01*
X0452949Y0752321D01*
X0452917Y0752238D01*
X0452888Y0752153D01*
X0452864Y0752068D01*
X0452842Y0751982D01*
X0452825Y0751894D01*
X0452811Y0751806D01*
X0452802Y0751718D01*
X0452796Y0751629D01*
X0452794Y0751540D01*
X0452794Y0747460D01*
X0467605Y0747460D02*
X0467605Y0751540D01*
X0465566Y0745420D02*
X0454834Y0745420D01*
X0454834Y0735080D02*
X0465566Y0735080D01*
X0454834Y0726920D02*
X0454745Y0726922D01*
X0454656Y0726928D01*
X0454568Y0726937D01*
X0454480Y0726951D01*
X0454392Y0726968D01*
X0454306Y0726990D01*
X0454221Y0727014D01*
X0454136Y0727043D01*
X0454052Y0727075D01*
X0453972Y0727111D01*
X0453892Y0727150D01*
X0453814Y0727193D01*
X0453738Y0727239D01*
X0453664Y0727289D01*
X0453592Y0727342D01*
X0453523Y0727397D01*
X0453456Y0727456D01*
X0453392Y0727518D01*
X0453330Y0727582D01*
X0453271Y0727649D01*
X0453216Y0727718D01*
X0453163Y0727790D01*
X0453113Y0727864D01*
X0453067Y0727940D01*
X0453024Y0728018D01*
X0452985Y0728098D01*
X0452949Y0728179D01*
X0452917Y0728262D01*
X0452888Y0728347D01*
X0452864Y0728432D01*
X0452842Y0728518D01*
X0452825Y0728606D01*
X0452811Y0728694D01*
X0452802Y0728781D01*
X0452796Y0728871D01*
X0452794Y0728960D01*
X0465566Y0726920D02*
X0465655Y0726922D01*
X0465744Y0726928D01*
X0465832Y0726937D01*
X0465920Y0726951D01*
X0466008Y0726968D01*
X0466094Y0726990D01*
X0466179Y0727014D01*
X0466264Y0727043D01*
X0466347Y0727075D01*
X0466428Y0727111D01*
X0466508Y0727150D01*
X0466586Y0727193D01*
X0466662Y0727239D01*
X0466736Y0727289D01*
X0466808Y0727342D01*
X0466877Y0727397D01*
X0466944Y0727456D01*
X0467008Y0727518D01*
X0467070Y0727582D01*
X0467129Y0727649D01*
X0467184Y0727718D01*
X0467237Y0727790D01*
X0467287Y0727864D01*
X0467333Y0727940D01*
X0467376Y0728018D01*
X0467415Y0728098D01*
X0467451Y0728179D01*
X0467483Y0728262D01*
X0467512Y0728347D01*
X0467536Y0728432D01*
X0467558Y0728518D01*
X0467575Y0728606D01*
X0467588Y0728694D01*
X0467598Y0728781D01*
X0467603Y0728871D01*
X0467605Y0728960D01*
X0467605Y0733040D02*
X0467603Y0733129D01*
X0467598Y0733218D01*
X0467588Y0733306D01*
X0467575Y0733394D01*
X0467558Y0733482D01*
X0467536Y0733567D01*
X0467512Y0733653D01*
X0467483Y0733738D01*
X0467451Y0733820D01*
X0467415Y0733901D01*
X0467376Y0733982D01*
X0467333Y0734060D01*
X0467287Y0734136D01*
X0467237Y0734209D01*
X0467184Y0734282D01*
X0467129Y0734351D01*
X0467070Y0734418D01*
X0467008Y0734482D01*
X0466944Y0734543D01*
X0466877Y0734603D01*
X0466808Y0734658D01*
X0466736Y0734711D01*
X0466662Y0734761D01*
X0466586Y0734807D01*
X0466508Y0734850D01*
X0466428Y0734889D01*
X0466347Y0734925D01*
X0466264Y0734957D01*
X0466179Y0734986D01*
X0466094Y0735010D01*
X0466008Y0735031D01*
X0465920Y0735048D01*
X0465832Y0735063D01*
X0465744Y0735072D01*
X0465655Y0735078D01*
X0465566Y0735080D01*
X0454834Y0735080D02*
X0454745Y0735078D01*
X0454656Y0735072D01*
X0454568Y0735063D01*
X0454480Y0735048D01*
X0454392Y0735031D01*
X0454306Y0735010D01*
X0454221Y0734986D01*
X0454136Y0734957D01*
X0454052Y0734925D01*
X0453972Y0734889D01*
X0453892Y0734850D01*
X0453814Y0734807D01*
X0453738Y0734761D01*
X0453664Y0734711D01*
X0453592Y0734658D01*
X0453523Y0734603D01*
X0453456Y0734543D01*
X0453392Y0734482D01*
X0453330Y0734418D01*
X0453271Y0734351D01*
X0453216Y0734282D01*
X0453163Y0734209D01*
X0453113Y0734136D01*
X0453067Y0734060D01*
X0453024Y0733982D01*
X0452985Y0733901D01*
X0452949Y0733820D01*
X0452917Y0733738D01*
X0452888Y0733653D01*
X0452864Y0733567D01*
X0452842Y0733482D01*
X0452825Y0733394D01*
X0452811Y0733306D01*
X0452802Y0733218D01*
X0452796Y0733129D01*
X0452794Y0733040D01*
X0452794Y0728960D01*
X0467605Y0728960D02*
X0467605Y0733040D01*
X0465566Y0726920D02*
X0454834Y0726920D01*
D12*
X0474000Y0723500D02*
X0488000Y0723500D01*
X0488000Y0719500D01*
X0474000Y0719500D01*
X0474000Y0723500D01*
M02*