G04 EAGLE Gerber RS-274X export*
G75*
%MOMM*%
%FSLAX34Y34*%
%LPD*%
%INStencil*%
%IPPOS*%
%AMOC8*
5,1,8,0,0,$1,22.5*%
G01*
%ADD10R,2X0.6*%
%ADD11R,2.9X2.6*%
%ADD12R,0.45X1.45*%
%ADD13C,0.25*%
%ADD14R,0.2X0.3*%
D10*
X0630000Y0650000D02*
X0644500Y0795000D03*
X0679500Y0785000D03*
X0644500Y0775000D03*
X0679500Y0765000D03*
X0644500Y0755000D03*
X0679500Y0745000D03*
X0644500Y0735000D03*
X0679500Y0725000D03*
X0644500Y0715000D03*
X0679500Y0705000D03*
D11*
X0662000Y0819000D03*
X0662000Y0681000D03*
D12*
X0734750Y0782000D03*
X0728250Y0782000D03*
X0721750Y0782000D03*
X0715250Y0782000D03*
X0715250Y0738000D03*
X0721750Y0738000D03*
X0728250Y0738000D03*
X0734750Y0738000D03*
D13*
X0697525Y0784350D02*
X0695025Y0784350D01*
X0695025Y0786850D01*
X0697525Y0786850D01*
X0697525Y0784350D01*
X0697525Y0786725D02*
X0695025Y0786725D01*
X0704275Y0784350D02*
X0706775Y0784350D01*
X0704275Y0784350D02*
X0704275Y0786850D01*
X0706775Y0786850D01*
X0706775Y0784350D01*
X0706775Y0786725D02*
X0704275Y0786725D01*
X0733824Y0720250D02*
X0736324Y0720250D01*
X0733824Y0720250D02*
X0733824Y0722750D01*
X0736324Y0722750D01*
X0736324Y0720250D01*
X0736324Y0722625D02*
X0733824Y0722625D01*
X0743075Y0720250D02*
X0745575Y0720250D01*
X0743075Y0720250D02*
X0743075Y0722750D01*
X0745575Y0722750D01*
X0745575Y0720250D01*
X0745575Y0722625D02*
X0743075Y0722625D01*
D10*
X0805500Y0705000D03*
X0770500Y0715000D03*
X0805500Y0725000D03*
X0770500Y0735000D03*
X0805500Y0745000D03*
X0770500Y0755000D03*
X0805500Y0765000D03*
X0770500Y0775000D03*
X0805500Y0785000D03*
X0770500Y0795000D03*
D11*
X0788000Y0681000D03*
X0788000Y0819000D03*
D14*
X0715000Y0718500D03*
X0719000Y0718500D03*
X0723000Y0718500D03*
X0727000Y0718500D03*
X0727000Y0724500D03*
X0723000Y0724500D03*
X0719000Y0724500D03*
X0715000Y0724500D03*
M02*