G04 EAGLE Gerber RS-274X export*
G75*
%MOMM*%
%FSLAX34Y34*%
%LPD*%
%INSolder side*%
%IPPOS*%
%AMOC8*
5,1,8,0,0,$1,22.5*%
G01*
%ADD10R,0.635X1.27*%
%ADD11C,0.7564*%
%ADD12C,0.13*%
%ADD13C,0.15*%
%ADD14C,0.3*%
G36*
X0718248Y0654007D02*
X0718248Y0654007D01*
X0718300Y0654004D01*
X0718419Y0654027D01*
X0718540Y0654041D01*
X0718589Y0654058D01*
X0718640Y0654068D01*
X0718751Y0654117D01*
X0718865Y0654158D01*
X0718909Y0654187D01*
X0718956Y0654208D01*
X0719053Y0654281D01*
X0719154Y0654347D01*
X0719191Y0654385D01*
X0719232Y0654415D01*
X0719308Y0654509D01*
X0719393Y0654597D01*
X0719420Y0654642D01*
X0719453Y0654682D01*
X0719507Y0654791D01*
X0719568Y0654895D01*
X0719584Y0654945D01*
X0719607Y0654992D01*
X0719634Y0655110D01*
X0719670Y0655226D01*
X0719674Y0655278D01*
X0719686Y0655329D01*
X0719686Y0655450D01*
X0719694Y0655571D01*
X0719685Y0655622D01*
X0719685Y0655674D01*
X0719657Y0655792D01*
X0719638Y0655912D01*
X0719618Y0655960D01*
X0719606Y0656011D01*
X0719552Y0656119D01*
X0719505Y0656230D01*
X0719475Y0656273D01*
X0719451Y0656320D01*
X0719374Y0656413D01*
X0719303Y0656511D01*
X0719263Y0656546D01*
X0719230Y0656586D01*
X0719132Y0656658D01*
X0719042Y0656738D01*
X0718995Y0656762D01*
X0718954Y0656794D01*
X0718770Y0656885D01*
X0716786Y0657707D01*
X0712707Y0661786D01*
X0710498Y0667116D01*
X0710498Y0672884D01*
X0712707Y0678214D01*
X0716786Y0682293D01*
X0722116Y0684501D01*
X0727884Y0684501D01*
X0733214Y0682293D01*
X0737293Y0678214D01*
X0739501Y0672884D01*
X0739501Y0667116D01*
X0737293Y0661786D01*
X0733214Y0657707D01*
X0731230Y0656885D01*
X0731183Y0656860D01*
X0731135Y0656842D01*
X0731033Y0656776D01*
X0730928Y0656717D01*
X0730889Y0656682D01*
X0730846Y0656653D01*
X0730762Y0656564D01*
X0730673Y0656484D01*
X0730643Y0656441D01*
X0730607Y0656403D01*
X0730545Y0656298D01*
X0730477Y0656199D01*
X0730458Y0656150D01*
X0730432Y0656105D01*
X0730396Y0655989D01*
X0730353Y0655876D01*
X0730345Y0655824D01*
X0730330Y0655774D01*
X0730322Y0655652D01*
X0730305Y0655534D01*
X0730310Y0655482D01*
X0730305Y0655429D01*
X0730326Y0655310D01*
X0730337Y0655189D01*
X0730354Y0655140D01*
X0730361Y0655087D01*
X0730408Y0654976D01*
X0730447Y0654862D01*
X0730475Y0654817D01*
X0730495Y0654769D01*
X0730566Y0654671D01*
X0730629Y0654568D01*
X0730665Y0654531D01*
X0730697Y0654489D01*
X0730789Y0654409D01*
X0730874Y0654324D01*
X0730919Y0654295D01*
X0730958Y0654262D01*
X0731066Y0654205D01*
X0731168Y0654141D01*
X0731218Y0654126D01*
X0731264Y0654101D01*
X0731382Y0654071D01*
X0731495Y0654033D01*
X0731548Y0654028D01*
X0731598Y0654015D01*
X0731804Y0654001D01*
X0775000Y0654001D01*
X0775035Y0654004D01*
X0775070Y0654002D01*
X0775207Y0654025D01*
X0775343Y0654041D01*
X0775377Y0654053D01*
X0775412Y0654058D01*
X0775539Y0654111D01*
X0775669Y0654158D01*
X0775698Y0654177D01*
X0775731Y0654191D01*
X0775843Y0654272D01*
X0775958Y0654347D01*
X0775983Y0654372D01*
X0776011Y0654393D01*
X0776102Y0654497D01*
X0776197Y0654597D01*
X0776215Y0654628D01*
X0776238Y0654654D01*
X0776302Y0654777D01*
X0776372Y0654895D01*
X0776382Y0654929D01*
X0776399Y0654961D01*
X0776433Y0655094D01*
X0776474Y0655226D01*
X0776476Y0655261D01*
X0776485Y0655295D01*
X0776499Y0655500D01*
X0776499Y0665000D01*
X0776495Y0665035D01*
X0776498Y0665070D01*
X0776475Y0665207D01*
X0776459Y0665343D01*
X0776447Y0665377D01*
X0776442Y0665412D01*
X0776389Y0665539D01*
X0776341Y0665669D01*
X0776323Y0665698D01*
X0776309Y0665731D01*
X0776228Y0665843D01*
X0776153Y0665958D01*
X0776127Y0665983D01*
X0776107Y0666011D01*
X0776003Y0666102D01*
X0775903Y0666197D01*
X0775872Y0666215D01*
X0775846Y0666238D01*
X0775723Y0666302D01*
X0775605Y0666372D01*
X0775571Y0666382D01*
X0775539Y0666399D01*
X0775406Y0666433D01*
X0775274Y0666474D01*
X0775239Y0666476D01*
X0775205Y0666485D01*
X0775000Y0666499D01*
X0763298Y0666499D01*
X0763160Y0666483D01*
X0763021Y0666473D01*
X0762988Y0666463D01*
X0762955Y0666459D01*
X0762824Y0666412D01*
X0762690Y0666371D01*
X0762661Y0666353D01*
X0762630Y0666342D01*
X0762513Y0666266D01*
X0762393Y0666195D01*
X0762359Y0666165D01*
X0762340Y0666153D01*
X0762317Y0666129D01*
X0762286Y0666102D01*
X0760150Y0665217D01*
X0757850Y0665217D01*
X0755724Y0666098D01*
X0754098Y0667724D01*
X0753216Y0669850D01*
X0753216Y0672150D01*
X0753347Y0672464D01*
X0753370Y0672548D01*
X0753405Y0672629D01*
X0753418Y0672714D01*
X0753442Y0672797D01*
X0753446Y0672884D01*
X0753460Y0672971D01*
X0753454Y0673056D01*
X0753458Y0673142D01*
X0753442Y0673228D01*
X0753435Y0673315D01*
X0753409Y0673396D01*
X0753394Y0673482D01*
X0753359Y0673562D01*
X0753332Y0673646D01*
X0753289Y0673720D01*
X0753254Y0673798D01*
X0753202Y0673867D01*
X0753156Y0673943D01*
X0753062Y0674051D01*
X0753045Y0674074D01*
X0753036Y0674081D01*
X0753022Y0674098D01*
X0736499Y0690621D01*
X0736499Y0739379D01*
X0746060Y0748940D01*
X0746135Y0749034D01*
X0746150Y0749050D01*
X0746153Y0749058D01*
X0746238Y0749154D01*
X0746254Y0749184D01*
X0746275Y0749211D01*
X0746334Y0749337D01*
X0746399Y0749461D01*
X0746407Y0749492D01*
X0746422Y0749524D01*
X0746450Y0749659D01*
X0746485Y0749795D01*
X0746488Y0749840D01*
X0746493Y0749862D01*
X0746492Y0749896D01*
X0746499Y0750000D01*
X0746499Y0770000D01*
X0746483Y0770138D01*
X0746473Y0770278D01*
X0746463Y0770310D01*
X0746459Y0770343D01*
X0746412Y0770474D01*
X0746371Y0770608D01*
X0746353Y0770637D01*
X0746341Y0770669D01*
X0746266Y0770785D01*
X0746195Y0770905D01*
X0746165Y0770939D01*
X0746153Y0770958D01*
X0746129Y0770982D01*
X0746060Y0771060D01*
X0736499Y0780621D01*
X0736499Y0809379D01*
X0760621Y0833501D01*
X0775000Y0833501D01*
X0775035Y0833505D01*
X0775070Y0833502D01*
X0775207Y0833524D01*
X0775343Y0833541D01*
X0775377Y0833553D01*
X0775412Y0833558D01*
X0775539Y0833610D01*
X0775669Y0833658D01*
X0775698Y0833678D01*
X0775731Y0833691D01*
X0775843Y0833772D01*
X0775958Y0833847D01*
X0775983Y0833873D01*
X0776011Y0833892D01*
X0776102Y0833998D01*
X0776197Y0834097D01*
X0776215Y0834128D01*
X0776238Y0834154D01*
X0776302Y0834277D01*
X0776372Y0834395D01*
X0776382Y0834429D01*
X0776399Y0834461D01*
X0776433Y0834594D01*
X0776474Y0834726D01*
X0776476Y0834761D01*
X0776485Y0834795D01*
X0776499Y0835000D01*
X0776499Y0844500D01*
X0776495Y0844534D01*
X0776498Y0844571D01*
X0776475Y0844706D01*
X0776459Y0844843D01*
X0776447Y0844877D01*
X0776442Y0844911D01*
X0776389Y0845039D01*
X0776341Y0845168D01*
X0776323Y0845198D01*
X0776309Y0845231D01*
X0776228Y0845343D01*
X0776153Y0845458D01*
X0776127Y0845483D01*
X0776107Y0845511D01*
X0776003Y0845602D01*
X0775903Y0845697D01*
X0775872Y0845715D01*
X0775846Y0845738D01*
X0775723Y0845802D01*
X0775605Y0845872D01*
X0775571Y0845882D01*
X0775539Y0845899D01*
X0775406Y0845933D01*
X0775274Y0845973D01*
X0775239Y0845976D01*
X0775205Y0845985D01*
X0775000Y0845999D01*
X0731804Y0845999D01*
X0731752Y0845993D01*
X0731700Y0845996D01*
X0731581Y0845973D01*
X0731460Y0845959D01*
X0731411Y0845942D01*
X0731360Y0845932D01*
X0731249Y0845883D01*
X0731135Y0845842D01*
X0731091Y0845813D01*
X0731044Y0845792D01*
X0730947Y0845719D01*
X0730846Y0845653D01*
X0730809Y0845615D01*
X0730768Y0845584D01*
X0730690Y0845490D01*
X0730607Y0845403D01*
X0730581Y0845358D01*
X0730547Y0845318D01*
X0730493Y0845209D01*
X0730432Y0845105D01*
X0730417Y0845055D01*
X0730393Y0845008D01*
X0730365Y0844890D01*
X0730330Y0844774D01*
X0730326Y0844722D01*
X0730314Y0844671D01*
X0730314Y0844550D01*
X0730305Y0844429D01*
X0730314Y0844378D01*
X0730314Y0844326D01*
X0730343Y0844208D01*
X0730361Y0844088D01*
X0730382Y0844040D01*
X0730394Y0843989D01*
X0730449Y0843881D01*
X0730495Y0843769D01*
X0730525Y0843727D01*
X0730549Y0843680D01*
X0730626Y0843587D01*
X0730697Y0843489D01*
X0730737Y0843454D01*
X0730770Y0843413D01*
X0730867Y0843341D01*
X0730958Y0843262D01*
X0731005Y0843238D01*
X0731046Y0843206D01*
X0731230Y0843115D01*
X0733214Y0842293D01*
X0737293Y0838214D01*
X0739501Y0832884D01*
X0739501Y0827116D01*
X0737293Y0821786D01*
X0733214Y0817707D01*
X0727884Y0815499D01*
X0722116Y0815499D01*
X0716786Y0817707D01*
X0712707Y0821786D01*
X0710498Y0827116D01*
X0710498Y0832884D01*
X0712707Y0838214D01*
X0716786Y0842293D01*
X0718770Y0843115D01*
X0718816Y0843139D01*
X0718865Y0843158D01*
X0718966Y0843224D01*
X0719072Y0843283D01*
X0719111Y0843318D01*
X0719154Y0843347D01*
X0719238Y0843434D01*
X0719327Y0843516D01*
X0719357Y0843558D01*
X0719393Y0843597D01*
X0719454Y0843701D01*
X0719522Y0843801D01*
X0719542Y0843850D01*
X0719568Y0843895D01*
X0719603Y0844011D01*
X0719646Y0844124D01*
X0719655Y0844175D01*
X0719670Y0844226D01*
X0719678Y0844346D01*
X0719695Y0844466D01*
X0719689Y0844517D01*
X0719694Y0844571D01*
X0719674Y0844689D01*
X0719663Y0844811D01*
X0719646Y0844860D01*
X0719638Y0844911D01*
X0719591Y0845024D01*
X0719552Y0845138D01*
X0719525Y0845183D01*
X0719505Y0845231D01*
X0719434Y0845329D01*
X0719370Y0845432D01*
X0719333Y0845468D01*
X0719303Y0845511D01*
X0719212Y0845591D01*
X0719126Y0845676D01*
X0719081Y0845704D01*
X0719042Y0845738D01*
X0718935Y0845793D01*
X0718832Y0845858D01*
X0718781Y0845875D01*
X0718736Y0845899D01*
X0718618Y0845929D01*
X0718504Y0845967D01*
X0718452Y0845972D01*
X0718401Y0845985D01*
X0718195Y0845999D01*
X0675000Y0845999D01*
X0674965Y0845995D01*
X0674929Y0845998D01*
X0674793Y0845975D01*
X0674657Y0845959D01*
X0674623Y0845947D01*
X0674588Y0845942D01*
X0674461Y0845889D01*
X0674331Y0845842D01*
X0674302Y0845823D01*
X0674269Y0845809D01*
X0674157Y0845728D01*
X0674042Y0845653D01*
X0674017Y0845627D01*
X0673989Y0845607D01*
X0673897Y0845502D01*
X0673803Y0845403D01*
X0673785Y0845372D01*
X0673762Y0845346D01*
X0673698Y0845223D01*
X0673627Y0845105D01*
X0673618Y0845071D01*
X0673601Y0845039D01*
X0673567Y0844906D01*
X0673526Y0844774D01*
X0673524Y0844739D01*
X0673515Y0844705D01*
X0673501Y0844500D01*
X0673501Y0835000D01*
X0673505Y0834965D01*
X0673502Y0834928D01*
X0673525Y0834793D01*
X0673541Y0834657D01*
X0673553Y0834623D01*
X0673558Y0834588D01*
X0673610Y0834461D01*
X0673658Y0834331D01*
X0673678Y0834302D01*
X0673691Y0834269D01*
X0673772Y0834157D01*
X0673847Y0834042D01*
X0673873Y0834017D01*
X0673893Y0833989D01*
X0673998Y0833898D01*
X0674097Y0833803D01*
X0674128Y0833785D01*
X0674154Y0833762D01*
X0674277Y0833698D01*
X0674395Y0833627D01*
X0674429Y0833618D01*
X0674461Y0833601D01*
X0674594Y0833567D01*
X0674726Y0833526D01*
X0674761Y0833524D01*
X0674795Y0833515D01*
X0675000Y0833501D01*
X0689379Y0833501D01*
X0713501Y0809379D01*
X0713501Y0780621D01*
X0703940Y0771060D01*
X0703854Y0770951D01*
X0703762Y0770846D01*
X0703746Y0770816D01*
X0703725Y0770789D01*
X0703666Y0770663D01*
X0703601Y0770539D01*
X0703593Y0770507D01*
X0703578Y0770476D01*
X0703550Y0770340D01*
X0703515Y0770205D01*
X0703512Y0770160D01*
X0703507Y0770138D01*
X0703507Y0770104D01*
X0703501Y0770000D01*
X0703501Y0750000D01*
X0703516Y0749862D01*
X0703527Y0749722D01*
X0703537Y0749689D01*
X0703541Y0749657D01*
X0703588Y0749526D01*
X0703629Y0749392D01*
X0703647Y0749363D01*
X0703658Y0749331D01*
X0703734Y0749215D01*
X0703805Y0749095D01*
X0703835Y0749060D01*
X0703847Y0749042D01*
X0703871Y0749019D01*
X0703940Y0748940D01*
X0713501Y0739379D01*
X0713501Y0690630D01*
X0696887Y0674355D01*
X0696827Y0674281D01*
X0696760Y0674214D01*
X0696718Y0674147D01*
X0696669Y0674086D01*
X0696628Y0674001D01*
X0696578Y0673919D01*
X0696553Y0673845D01*
X0696519Y0673775D01*
X0696499Y0673682D01*
X0696468Y0673592D01*
X0696461Y0673514D01*
X0696444Y0673437D01*
X0696446Y0673342D01*
X0696437Y0673247D01*
X0696448Y0673170D01*
X0696449Y0673092D01*
X0696472Y0672998D01*
X0696485Y0672905D01*
X0696525Y0672787D01*
X0696533Y0672756D01*
X0696540Y0672741D01*
X0696551Y0672710D01*
X0696783Y0672150D01*
X0696783Y0669850D01*
X0695902Y0667724D01*
X0694276Y0666098D01*
X0692150Y0665217D01*
X0689850Y0665217D01*
X0687704Y0666106D01*
X0687653Y0666147D01*
X0687547Y0666238D01*
X0687517Y0666254D01*
X0687491Y0666275D01*
X0687365Y0666334D01*
X0687240Y0666399D01*
X0687208Y0666407D01*
X0687178Y0666422D01*
X0687042Y0666450D01*
X0686906Y0666485D01*
X0686862Y0666488D01*
X0686840Y0666493D01*
X0686806Y0666491D01*
X0686701Y0666499D01*
X0675000Y0666499D01*
X0674965Y0666495D01*
X0674929Y0666498D01*
X0674793Y0666474D01*
X0674657Y0666459D01*
X0674623Y0666447D01*
X0674588Y0666442D01*
X0674461Y0666389D01*
X0674331Y0666342D01*
X0674302Y0666323D01*
X0674269Y0666309D01*
X0674157Y0666228D01*
X0674042Y0666153D01*
X0674017Y0666127D01*
X0673989Y0666107D01*
X0673897Y0666003D01*
X0673803Y0665903D01*
X0673785Y0665872D01*
X0673762Y0665846D01*
X0673698Y0665723D01*
X0673627Y0665605D01*
X0673618Y0665571D01*
X0673601Y0665539D01*
X0673567Y0665406D01*
X0673526Y0665274D01*
X0673524Y0665239D01*
X0673515Y0665205D01*
X0673501Y0665000D01*
X0673501Y0655500D01*
X0673505Y0655465D01*
X0673502Y0655429D01*
X0673525Y0655293D01*
X0673541Y0655157D01*
X0673553Y0655123D01*
X0673558Y0655087D01*
X0673610Y0654961D01*
X0673658Y0654830D01*
X0673678Y0654802D01*
X0673691Y0654769D01*
X0673772Y0654657D01*
X0673847Y0654542D01*
X0673873Y0654517D01*
X0673893Y0654489D01*
X0673998Y0654398D01*
X0674097Y0654303D01*
X0674128Y0654285D01*
X0674154Y0654262D01*
X0674277Y0654198D01*
X0674395Y0654128D01*
X0674429Y0654118D01*
X0674461Y0654101D01*
X0674594Y0654067D01*
X0674726Y0654026D01*
X0674761Y0654024D01*
X0674795Y0654015D01*
X0675000Y0654001D01*
X0718195Y0654001D01*
X0718248Y0654007D01*
G37*
D10*
X0656936Y0795000D03*
X0665064Y0795000D03*
X0656936Y0775000D03*
X0665064Y0775000D03*
X0656936Y0755000D03*
X0665064Y0755000D03*
X0656936Y0735000D03*
X0665064Y0735000D03*
X0656936Y0715000D03*
X0665064Y0715000D03*
D11*
X0725000Y0760000D03*
X0736000Y0752000D03*
X0715000Y0770000D03*
D12*
X0648480Y0661955D02*
X0656472Y0657341D01*
X0648480Y0661955D02*
X0641955Y0668480D01*
X0637341Y0676472D01*
X0634952Y0685386D01*
X0634650Y0690000D01*
X0634650Y0810000D01*
X0634952Y0814614D01*
X0637341Y0823528D01*
X0641955Y0831520D01*
X0648480Y0838045D01*
X0656472Y0842659D01*
X0665386Y0845048D01*
X0670000Y0845350D01*
X0780000Y0845350D01*
X0784614Y0845048D01*
X0793528Y0842659D01*
X0801520Y0838045D01*
X0808045Y0831520D01*
X0812659Y0823528D01*
X0815048Y0814614D01*
X0815350Y0810000D01*
X0815350Y0690000D01*
X0815048Y0685386D01*
X0812659Y0676472D01*
X0808045Y0668480D01*
X0801520Y0661955D01*
X0793528Y0657341D01*
X0784614Y0654952D01*
X0780000Y0654650D01*
X0670000Y0654650D01*
X0665386Y0654952D01*
X0656472Y0657341D01*
X0801432Y0783721D02*
X0801432Y0786279D01*
X0800453Y0788643D01*
X0798643Y0790453D01*
X0796279Y0791432D01*
X0793721Y0791432D01*
X0791357Y0790453D01*
X0789547Y0788643D01*
X0788567Y0786279D01*
X0788567Y0783721D01*
X0788828Y0783093D01*
X0778216Y0773675D01*
X0778124Y0773675D01*
X0777398Y0772949D01*
X0776631Y0772268D01*
X0776625Y0772176D01*
X0776560Y0772111D01*
X0776560Y0771084D01*
X0776499Y0770060D01*
X0776560Y0769991D01*
X0776560Y0708336D01*
X0769594Y0701370D01*
X0761756Y0701370D01*
X0761353Y0702343D01*
X0759543Y0704153D01*
X0757179Y0705132D01*
X0754620Y0705132D01*
X0752257Y0704153D01*
X0750447Y0702343D01*
X0749468Y0699979D01*
X0749468Y0697420D01*
X0750447Y0695057D01*
X0752257Y0693247D01*
X0754620Y0692268D01*
X0757179Y0692268D01*
X0759543Y0693247D01*
X0761270Y0694974D01*
X0760568Y0693279D01*
X0760568Y0691312D01*
X0760279Y0691432D01*
X0757721Y0691432D01*
X0755357Y0690453D01*
X0753546Y0688643D01*
X0752568Y0686279D01*
X0752568Y0683721D01*
X0753546Y0681357D01*
X0755357Y0679547D01*
X0757721Y0678567D01*
X0760279Y0678567D01*
X0760568Y0678687D01*
X0760568Y0677312D01*
X0760279Y0677432D01*
X0757721Y0677432D01*
X0755357Y0676453D01*
X0753546Y0674643D01*
X0752568Y0672279D01*
X0752568Y0669721D01*
X0753546Y0667357D01*
X0755357Y0665547D01*
X0757721Y0664568D01*
X0760279Y0664568D01*
X0762643Y0665547D01*
X0764453Y0667357D01*
X0764856Y0668330D01*
X0772106Y0668330D01*
X0796106Y0692330D01*
X0797670Y0693894D01*
X0797670Y0699144D01*
X0798643Y0699547D01*
X0800453Y0701357D01*
X0801432Y0703721D01*
X0801432Y0706279D01*
X0800453Y0708643D01*
X0798643Y0710453D01*
X0796279Y0711432D01*
X0793721Y0711432D01*
X0791357Y0710453D01*
X0790670Y0709766D01*
X0790670Y0719894D01*
X0790840Y0720064D01*
X0791357Y0719547D01*
X0793721Y0718567D01*
X0796279Y0718567D01*
X0798643Y0719547D01*
X0800453Y0721357D01*
X0801432Y0723721D01*
X0801432Y0726279D01*
X0800453Y0728643D01*
X0798643Y0730453D01*
X0796279Y0731432D01*
X0793721Y0731432D01*
X0791357Y0730453D01*
X0789547Y0728643D01*
X0788567Y0726279D01*
X0788567Y0725344D01*
X0787670Y0724445D01*
X0787670Y0735416D01*
X0792205Y0739196D01*
X0793721Y0738567D01*
X0796279Y0738567D01*
X0798643Y0739547D01*
X0800453Y0741357D01*
X0801432Y0743721D01*
X0801432Y0746279D01*
X0800453Y0748643D01*
X0798643Y0750453D01*
X0796279Y0751432D01*
X0793721Y0751432D01*
X0791357Y0750453D01*
X0789547Y0748643D01*
X0788567Y0746279D01*
X0788567Y0743721D01*
X0788754Y0743271D01*
X0784900Y0740059D01*
X0784900Y0752738D01*
X0792316Y0759149D01*
X0793721Y0758567D01*
X0796279Y0758567D01*
X0798643Y0759547D01*
X0800453Y0761357D01*
X0801432Y0763721D01*
X0801432Y0766279D01*
X0800453Y0768643D01*
X0798643Y0770453D01*
X0796279Y0771432D01*
X0793721Y0771432D01*
X0791357Y0770453D01*
X0789547Y0768643D01*
X0788567Y0766279D01*
X0788567Y0763721D01*
X0788797Y0763167D01*
X0781900Y0757203D01*
X0781900Y0769805D01*
X0792394Y0779118D01*
X0793721Y0778567D01*
X0796279Y0778567D01*
X0798643Y0779547D01*
X0800453Y0781357D01*
X0801432Y0783721D01*
X0684432Y0776279D02*
X0684432Y0773721D01*
X0684432Y0776279D02*
X0683453Y0778643D01*
X0681643Y0780453D01*
X0679278Y0781432D01*
X0676721Y0781432D01*
X0674357Y0780453D01*
X0672547Y0778643D01*
X0672144Y0777670D01*
X0670889Y0777670D01*
X0670889Y0782448D01*
X0669337Y0784000D01*
X0667734Y0784000D01*
X0667734Y0786000D01*
X0669337Y0786000D01*
X0670889Y0787552D01*
X0670889Y0802448D01*
X0669337Y0804000D01*
X0652663Y0804000D01*
X0651110Y0802448D01*
X0651110Y0799314D01*
X0650547Y0798750D01*
X0649568Y0796386D01*
X0649568Y0793828D01*
X0650547Y0791464D01*
X0651110Y0790900D01*
X0651110Y0789951D01*
X0639644Y0778484D01*
X0638080Y0776920D01*
X0638080Y0704452D01*
X0639644Y0702888D01*
X0639644Y0702888D01*
X0672638Y0669894D01*
X0672638Y0669894D01*
X0674201Y0668330D01*
X0685144Y0668330D01*
X0685547Y0667357D01*
X0687357Y0665547D01*
X0689721Y0664568D01*
X0692279Y0664568D01*
X0694643Y0665547D01*
X0696453Y0667357D01*
X0697432Y0669721D01*
X0697432Y0672279D01*
X0696453Y0674643D01*
X0694643Y0676453D01*
X0692279Y0677432D01*
X0689721Y0677432D01*
X0689432Y0677312D01*
X0689432Y0678687D01*
X0689721Y0678567D01*
X0692279Y0678567D01*
X0694643Y0679547D01*
X0696453Y0681357D01*
X0697432Y0683721D01*
X0697432Y0686279D01*
X0696453Y0688643D01*
X0694643Y0690453D01*
X0692279Y0691432D01*
X0689721Y0691432D01*
X0689432Y0691312D01*
X0689432Y0693279D01*
X0688453Y0695643D01*
X0686643Y0697453D01*
X0684278Y0698432D01*
X0681721Y0698432D01*
X0679357Y0697453D01*
X0677547Y0695643D01*
X0677144Y0694670D01*
X0667166Y0694670D01*
X0655836Y0706000D01*
X0669337Y0706000D01*
X0670889Y0707552D01*
X0670889Y0722448D01*
X0669337Y0724000D01*
X0667734Y0724000D01*
X0667734Y0726000D01*
X0669337Y0726000D01*
X0670889Y0727552D01*
X0670889Y0742448D01*
X0669337Y0744000D01*
X0667734Y0744000D01*
X0667734Y0746000D01*
X0669337Y0746000D01*
X0670889Y0747552D01*
X0670889Y0762448D01*
X0669337Y0764000D01*
X0667734Y0764000D01*
X0667734Y0766000D01*
X0669337Y0766000D01*
X0670889Y0767552D01*
X0670889Y0772330D01*
X0672144Y0772330D01*
X0672547Y0771357D01*
X0674357Y0769547D01*
X0676721Y0768567D01*
X0679278Y0768567D01*
X0681643Y0769547D01*
X0683453Y0771357D01*
X0684432Y0773721D01*
X0740150Y0826986D02*
X0740150Y0833014D01*
X0737844Y0838582D01*
X0733582Y0842844D01*
X0728014Y0845150D01*
X0721986Y0845150D01*
X0716418Y0842844D01*
X0712156Y0838582D01*
X0709850Y0833014D01*
X0709850Y0826986D01*
X0712156Y0821418D01*
X0716418Y0817156D01*
X0721986Y0814850D01*
X0728014Y0814850D01*
X0733582Y0817156D01*
X0737844Y0821418D01*
X0740150Y0826986D01*
X0740150Y0673014D02*
X0740150Y0666986D01*
X0740150Y0673014D02*
X0737844Y0678582D01*
X0733582Y0682844D01*
X0728014Y0685150D01*
X0721986Y0685150D01*
X0716418Y0682844D01*
X0712156Y0678582D01*
X0709850Y0673014D01*
X0709850Y0666986D01*
X0712156Y0661418D01*
X0716418Y0657156D01*
X0721986Y0654850D01*
X0728014Y0654850D01*
X0733582Y0657156D01*
X0737844Y0661418D01*
X0740150Y0666986D01*
X0716795Y0657000D02*
X0657744Y0657000D01*
X0733204Y0657000D02*
X0792256Y0657000D01*
X0713075Y0660500D02*
X0651000Y0660500D01*
X0736925Y0660500D02*
X0799000Y0660500D01*
X0711087Y0664000D02*
X0646435Y0664000D01*
X0738913Y0664000D02*
X0803565Y0664000D01*
X0685488Y0667500D02*
X0642935Y0667500D01*
X0696512Y0667500D02*
X0709850Y0667500D01*
X0740150Y0667500D02*
X0753488Y0667500D01*
X0764512Y0667500D02*
X0807065Y0667500D01*
X0671532Y0671000D02*
X0640500Y0671000D01*
X0697432Y0671000D02*
X0709850Y0671000D01*
X0740150Y0671000D02*
X0752568Y0671000D01*
X0774776Y0671000D02*
X0809500Y0671000D01*
X0668032Y0674500D02*
X0638479Y0674500D01*
X0696512Y0674500D02*
X0710466Y0674500D01*
X0739534Y0674500D02*
X0753488Y0674500D01*
X0778276Y0674500D02*
X0811521Y0674500D01*
X0664532Y0678000D02*
X0636931Y0678000D01*
X0689432Y0678000D02*
X0711915Y0678000D01*
X0738085Y0678000D02*
X0760568Y0678000D01*
X0781776Y0678000D02*
X0813069Y0678000D01*
X0661032Y0681500D02*
X0635994Y0681500D01*
X0696512Y0681500D02*
X0715074Y0681500D01*
X0734925Y0681500D02*
X0753488Y0681500D01*
X0785276Y0681500D02*
X0814006Y0681500D01*
X0657532Y0685000D02*
X0635056Y0685000D01*
X0697432Y0685000D02*
X0721624Y0685000D01*
X0728376Y0685000D02*
X0752568Y0685000D01*
X0788776Y0685000D02*
X0814944Y0685000D01*
X0654032Y0688500D02*
X0634748Y0688500D01*
X0696512Y0688500D02*
X0753488Y0688500D01*
X0792276Y0688500D02*
X0815252Y0688500D01*
X0650532Y0692000D02*
X0634650Y0692000D01*
X0689432Y0692000D02*
X0760568Y0692000D01*
X0795776Y0692000D02*
X0815350Y0692000D01*
X0647032Y0695500D02*
X0634650Y0695500D01*
X0666336Y0695500D02*
X0677488Y0695500D01*
X0688512Y0695500D02*
X0750264Y0695500D01*
X0797670Y0695500D02*
X0815350Y0695500D01*
X0643532Y0699000D02*
X0634650Y0699000D01*
X0662836Y0699000D02*
X0749468Y0699000D01*
X0797670Y0699000D02*
X0815350Y0699000D01*
X0640032Y0702500D02*
X0634650Y0702500D01*
X0659336Y0702500D02*
X0750604Y0702500D01*
X0761196Y0702500D02*
X0770724Y0702500D01*
X0800926Y0702500D02*
X0815350Y0702500D01*
X0638080Y0706000D02*
X0634650Y0706000D01*
X0669337Y0706000D02*
X0774224Y0706000D01*
X0801432Y0706000D02*
X0815350Y0706000D01*
X0638080Y0709500D02*
X0634650Y0709500D01*
X0670889Y0709500D02*
X0776560Y0709500D01*
X0799596Y0709500D02*
X0815350Y0709500D01*
X0638080Y0713000D02*
X0634650Y0713000D01*
X0670889Y0713000D02*
X0776560Y0713000D01*
X0790670Y0713000D02*
X0815350Y0713000D01*
X0638080Y0716500D02*
X0634650Y0716500D01*
X0670889Y0716500D02*
X0776560Y0716500D01*
X0790670Y0716500D02*
X0815350Y0716500D01*
X0638080Y0720000D02*
X0634650Y0720000D01*
X0670889Y0720000D02*
X0776560Y0720000D01*
X0790776Y0720000D02*
X0790904Y0720000D01*
X0799096Y0720000D02*
X0815350Y0720000D01*
X0638080Y0723500D02*
X0634650Y0723500D01*
X0669837Y0723500D02*
X0776560Y0723500D01*
X0801341Y0723500D02*
X0815350Y0723500D01*
X0638080Y0727000D02*
X0634650Y0727000D01*
X0670337Y0727000D02*
X0776560Y0727000D01*
X0787670Y0727000D02*
X0788867Y0727000D01*
X0801134Y0727000D02*
X0815350Y0727000D01*
X0638080Y0730500D02*
X0634650Y0730500D01*
X0670889Y0730500D02*
X0776560Y0730500D01*
X0787670Y0730500D02*
X0791471Y0730500D01*
X0798529Y0730500D02*
X0815350Y0730500D01*
X0638080Y0734000D02*
X0634650Y0734000D01*
X0670889Y0734000D02*
X0776560Y0734000D01*
X0787670Y0734000D02*
X0815350Y0734000D01*
X0638080Y0737500D02*
X0634650Y0737500D01*
X0670889Y0737500D02*
X0776560Y0737500D01*
X0790171Y0737500D02*
X0815350Y0737500D01*
X0638080Y0741000D02*
X0634650Y0741000D01*
X0670889Y0741000D02*
X0776560Y0741000D01*
X0784900Y0741000D02*
X0786029Y0741000D01*
X0800096Y0741000D02*
X0815350Y0741000D01*
X0638080Y0744500D02*
X0634650Y0744500D01*
X0667734Y0744500D02*
X0776560Y0744500D01*
X0784900Y0744500D02*
X0788567Y0744500D01*
X0801432Y0744500D02*
X0815350Y0744500D01*
X0638080Y0748000D02*
X0634650Y0748000D01*
X0670889Y0748000D02*
X0776560Y0748000D01*
X0784900Y0748000D02*
X0789281Y0748000D01*
X0800719Y0748000D02*
X0815350Y0748000D01*
X0638080Y0751500D02*
X0634650Y0751500D01*
X0670889Y0751500D02*
X0776560Y0751500D01*
X0784900Y0751500D02*
X0815350Y0751500D01*
X0638080Y0755000D02*
X0634650Y0755000D01*
X0670889Y0755000D02*
X0776560Y0755000D01*
X0787516Y0755000D02*
X0815350Y0755000D01*
X0638080Y0758500D02*
X0634650Y0758500D01*
X0670889Y0758500D02*
X0776560Y0758500D01*
X0781900Y0758500D02*
X0783400Y0758500D01*
X0791564Y0758500D02*
X0815350Y0758500D01*
X0638080Y0762000D02*
X0634650Y0762000D01*
X0670889Y0762000D02*
X0776560Y0762000D01*
X0781900Y0762000D02*
X0787448Y0762000D01*
X0800719Y0762000D02*
X0815350Y0762000D01*
X0638080Y0765500D02*
X0634650Y0765500D01*
X0667734Y0765500D02*
X0776560Y0765500D01*
X0781900Y0765500D02*
X0788567Y0765500D01*
X0801432Y0765500D02*
X0815350Y0765500D01*
X0638080Y0769000D02*
X0634650Y0769000D01*
X0670889Y0769000D02*
X0675678Y0769000D01*
X0680322Y0769000D02*
X0776560Y0769000D01*
X0781900Y0769000D02*
X0789903Y0769000D01*
X0800096Y0769000D02*
X0815350Y0769000D01*
X0638080Y0772500D02*
X0634650Y0772500D01*
X0683926Y0772500D02*
X0776892Y0772500D01*
X0784937Y0772500D02*
X0815350Y0772500D01*
X0638080Y0776000D02*
X0634650Y0776000D01*
X0684432Y0776000D02*
X0780836Y0776000D01*
X0788881Y0776000D02*
X0815350Y0776000D01*
X0640660Y0779500D02*
X0634650Y0779500D01*
X0670889Y0779500D02*
X0673404Y0779500D01*
X0682596Y0779500D02*
X0784780Y0779500D01*
X0798529Y0779500D02*
X0815350Y0779500D01*
X0644160Y0783000D02*
X0634650Y0783000D01*
X0670337Y0783000D02*
X0788724Y0783000D01*
X0801133Y0783000D02*
X0815350Y0783000D01*
X0647660Y0786500D02*
X0634650Y0786500D01*
X0669837Y0786500D02*
X0788659Y0786500D01*
X0801341Y0786500D02*
X0815350Y0786500D01*
X0651110Y0790000D02*
X0634650Y0790000D01*
X0670889Y0790000D02*
X0790904Y0790000D01*
X0799096Y0790000D02*
X0815350Y0790000D01*
X0649704Y0793500D02*
X0634650Y0793500D01*
X0670889Y0793500D02*
X0815350Y0793500D01*
X0649822Y0797000D02*
X0634650Y0797000D01*
X0670889Y0797000D02*
X0815350Y0797000D01*
X0651110Y0800500D02*
X0634650Y0800500D01*
X0670889Y0800500D02*
X0815350Y0800500D01*
X0815350Y0804000D02*
X0634650Y0804000D01*
X0634650Y0807500D02*
X0815350Y0807500D01*
X0815284Y0811000D02*
X0634716Y0811000D01*
X0634945Y0814500D02*
X0815055Y0814500D01*
X0715575Y0818000D02*
X0635860Y0818000D01*
X0734425Y0818000D02*
X0814140Y0818000D01*
X0712123Y0821500D02*
X0636797Y0821500D01*
X0737877Y0821500D02*
X0813202Y0821500D01*
X0710673Y0825000D02*
X0638191Y0825000D01*
X0739327Y0825000D02*
X0811809Y0825000D01*
X0709850Y0828500D02*
X0640211Y0828500D01*
X0740150Y0828500D02*
X0809788Y0828500D01*
X0709850Y0832000D02*
X0642435Y0832000D01*
X0740150Y0832000D02*
X0807565Y0832000D01*
X0710879Y0835500D02*
X0645935Y0835500D01*
X0739120Y0835500D02*
X0804064Y0835500D01*
X0712574Y0839000D02*
X0650134Y0839000D01*
X0737425Y0839000D02*
X0799866Y0839000D01*
X0716075Y0842500D02*
X0656197Y0842500D01*
X0733925Y0842500D02*
X0793803Y0842500D01*
X0637000Y0822256D02*
X0637000Y0677744D01*
X0640500Y0671000D02*
X0640500Y0702032D01*
X0640500Y0779340D02*
X0640500Y0829000D01*
X0644000Y0698532D02*
X0644000Y0666435D01*
X0644000Y0782840D02*
X0644000Y0833565D01*
X0647500Y0695031D02*
X0647500Y0662935D01*
X0647500Y0786340D02*
X0647500Y0837065D01*
X0651000Y0691532D02*
X0651000Y0660500D01*
X0651000Y0789840D02*
X0651000Y0791011D01*
X0651000Y0799203D02*
X0651000Y0839500D01*
X0654500Y0688032D02*
X0654500Y0658479D01*
X0654500Y0804000D02*
X0654500Y0841521D01*
X0658000Y0684532D02*
X0658000Y0656931D01*
X0658000Y0703836D02*
X0658000Y0706000D01*
X0658000Y0804000D02*
X0658000Y0843069D01*
X0661500Y0681032D02*
X0661500Y0655994D01*
X0661500Y0700336D02*
X0661500Y0706000D01*
X0661500Y0804000D02*
X0661500Y0844006D01*
X0665000Y0677532D02*
X0665000Y0655056D01*
X0665000Y0696836D02*
X0665000Y0706000D01*
X0665000Y0804000D02*
X0665000Y0844944D01*
X0668500Y0674032D02*
X0668500Y0654748D01*
X0668500Y0694670D02*
X0668500Y0706000D01*
X0668500Y0724000D02*
X0668500Y0726000D01*
X0668500Y0744000D02*
X0668500Y0746000D01*
X0668500Y0764000D02*
X0668500Y0766000D01*
X0668500Y0784000D02*
X0668500Y0786000D01*
X0668500Y0804000D02*
X0668500Y0845252D01*
X0672000Y0670532D02*
X0672000Y0654650D01*
X0672000Y0694670D02*
X0672000Y0772330D01*
X0672000Y0777670D02*
X0672000Y0845350D01*
X0675500Y0668330D02*
X0675500Y0654650D01*
X0675500Y0694670D02*
X0675500Y0769074D01*
X0675500Y0780926D02*
X0675500Y0845350D01*
X0679000Y0668330D02*
X0679000Y0654650D01*
X0679000Y0697096D02*
X0679000Y0768567D01*
X0679000Y0781432D02*
X0679000Y0845350D01*
X0682500Y0668330D02*
X0682500Y0654650D01*
X0682500Y0698432D02*
X0682500Y0770404D01*
X0682500Y0779596D02*
X0682500Y0845350D01*
X0686000Y0666904D02*
X0686000Y0654650D01*
X0686000Y0697719D02*
X0686000Y0845350D01*
X0689500Y0664659D02*
X0689500Y0654650D01*
X0689500Y0677341D02*
X0689500Y0678659D01*
X0689500Y0691341D02*
X0689500Y0845350D01*
X0693000Y0664866D02*
X0693000Y0654650D01*
X0693000Y0677133D02*
X0693000Y0678866D01*
X0693000Y0691133D02*
X0693000Y0845350D01*
X0696500Y0667471D02*
X0696500Y0654650D01*
X0696500Y0674529D02*
X0696500Y0681471D01*
X0696500Y0688529D02*
X0696500Y0845350D01*
X0700000Y0845350D02*
X0700000Y0654650D01*
X0703500Y0654650D02*
X0703500Y0845350D01*
X0707000Y0845350D02*
X0707000Y0654650D01*
X0710500Y0654650D02*
X0710500Y0665417D01*
X0710500Y0674582D02*
X0710500Y0825416D01*
X0710500Y0834583D02*
X0710500Y0845350D01*
X0714000Y0659575D02*
X0714000Y0654650D01*
X0714000Y0680425D02*
X0714000Y0819575D01*
X0714000Y0840425D02*
X0714000Y0845350D01*
X0717500Y0656708D02*
X0717500Y0654650D01*
X0717500Y0683292D02*
X0717500Y0816708D01*
X0717500Y0843292D02*
X0717500Y0845350D01*
X0721000Y0655259D02*
X0721000Y0654650D01*
X0721000Y0684740D02*
X0721000Y0815259D01*
X0721000Y0844740D02*
X0721000Y0845350D01*
X0724500Y0654850D02*
X0724500Y0654650D01*
X0724500Y0685150D02*
X0724500Y0814850D01*
X0724500Y0845150D02*
X0724500Y0845350D01*
X0728000Y0654850D02*
X0728000Y0654650D01*
X0728000Y0685150D02*
X0728000Y0814850D01*
X0728000Y0845150D02*
X0728000Y0845350D01*
X0731500Y0656294D02*
X0731500Y0654650D01*
X0731500Y0683706D02*
X0731500Y0816294D01*
X0731500Y0843706D02*
X0731500Y0845350D01*
X0735000Y0658575D02*
X0735000Y0654650D01*
X0735000Y0681425D02*
X0735000Y0818575D01*
X0735000Y0841425D02*
X0735000Y0845350D01*
X0738500Y0663002D02*
X0738500Y0654650D01*
X0738500Y0676997D02*
X0738500Y0823002D01*
X0738500Y0836997D02*
X0738500Y0845350D01*
X0742000Y0845350D02*
X0742000Y0654650D01*
X0745500Y0654650D02*
X0745500Y0845350D01*
X0749000Y0845350D02*
X0749000Y0654650D01*
X0752500Y0654650D02*
X0752500Y0693146D01*
X0752500Y0704254D02*
X0752500Y0845350D01*
X0756000Y0665281D02*
X0756000Y0654650D01*
X0756000Y0676718D02*
X0756000Y0679281D01*
X0756000Y0690719D02*
X0756000Y0692268D01*
X0756000Y0705132D02*
X0756000Y0845350D01*
X0759500Y0664568D02*
X0759500Y0654650D01*
X0759500Y0677432D02*
X0759500Y0678567D01*
X0759500Y0691432D02*
X0759500Y0693229D01*
X0759500Y0704171D02*
X0759500Y0845350D01*
X0763000Y0665904D02*
X0763000Y0654650D01*
X0763000Y0701370D02*
X0763000Y0845350D01*
X0766500Y0668330D02*
X0766500Y0654650D01*
X0766500Y0701370D02*
X0766500Y0845350D01*
X0770000Y0668330D02*
X0770000Y0654650D01*
X0770000Y0701776D02*
X0770000Y0845350D01*
X0773500Y0669723D02*
X0773500Y0654650D01*
X0773500Y0705276D02*
X0773500Y0845350D01*
X0777000Y0673224D02*
X0777000Y0654650D01*
X0777000Y0772596D02*
X0777000Y0845350D01*
X0780500Y0676724D02*
X0780500Y0654683D01*
X0780500Y0775702D02*
X0780500Y0845317D01*
X0784000Y0680224D02*
X0784000Y0654912D01*
X0784000Y0759019D02*
X0784000Y0771668D01*
X0784000Y0778807D02*
X0784000Y0845088D01*
X0787500Y0683724D02*
X0787500Y0655726D01*
X0787500Y0742226D02*
X0787500Y0754986D01*
X0787500Y0762045D02*
X0787500Y0774774D01*
X0787500Y0781914D02*
X0787500Y0844274D01*
X0791000Y0687223D02*
X0791000Y0656664D01*
X0791000Y0710096D02*
X0791000Y0719903D01*
X0791000Y0730096D02*
X0791000Y0738191D01*
X0791000Y0750096D02*
X0791000Y0758012D01*
X0791000Y0770096D02*
X0791000Y0777880D01*
X0791000Y0790096D02*
X0791000Y0843336D01*
X0794500Y0690724D02*
X0794500Y0657902D01*
X0794500Y0711432D02*
X0794500Y0718567D01*
X0794500Y0731432D02*
X0794500Y0738567D01*
X0794500Y0751432D02*
X0794500Y0758567D01*
X0794500Y0771432D02*
X0794500Y0778567D01*
X0794500Y0791432D02*
X0794500Y0842098D01*
X0798000Y0699281D02*
X0798000Y0659923D01*
X0798000Y0710719D02*
X0798000Y0719281D01*
X0798000Y0730719D02*
X0798000Y0739281D01*
X0798000Y0750719D02*
X0798000Y0759281D01*
X0798000Y0770719D02*
X0798000Y0779281D01*
X0798000Y0790719D02*
X0798000Y0840077D01*
X0801500Y0838056D02*
X0801500Y0661944D01*
X0805000Y0665435D02*
X0805000Y0834565D01*
X0808500Y0830732D02*
X0808500Y0669268D01*
X0812000Y0675331D02*
X0812000Y0824670D01*
D11*
X0642500Y0675000D03*
X0642500Y0683500D03*
X0642500Y0692000D03*
X0807500Y0683500D03*
X0807500Y0692000D03*
X0807500Y0675000D03*
X0807500Y0820000D03*
X0807500Y0810000D03*
X0785000Y0840000D03*
X0642500Y0810000D03*
X0661500Y0840000D03*
X0642500Y0820000D03*
X0706500Y0722500D03*
X0683700Y0795900D03*
X0742899Y0730800D03*
X0678500Y0714500D03*
X0687500Y0714500D03*
X0770500Y0785500D03*
X0696000Y0706000D03*
X0754000Y0795000D03*
X0762000Y0785500D03*
D13*
X0665064Y0795000D02*
X0665064Y0775000D01*
X0665064Y0755000D01*
X0665064Y0735000D01*
X0665064Y0715000D01*
D11*
X0678000Y0775000D03*
D13*
X0665064Y0775000D01*
D11*
X0655893Y0775000D03*
D14*
X0656936Y0775000D01*
D13*
X0656936Y0771936D01*
X0643520Y0758520D01*
X0643520Y0706705D01*
X0788000Y0721000D02*
X0792000Y0725000D01*
X0795000Y0725000D01*
D11*
X0795000Y0725000D03*
X0683000Y0678000D03*
X0767000Y0678000D03*
D13*
X0672225Y0678000D02*
X0643520Y0706705D01*
X0672225Y0678000D02*
X0683000Y0678000D01*
X0771000Y0678000D02*
X0788000Y0695000D01*
X0771000Y0678000D02*
X0767000Y0678000D01*
X0788000Y0695000D02*
X0788000Y0721000D01*
D11*
X0656000Y0755107D03*
D14*
X0656107Y0755000D02*
X0656936Y0755000D01*
X0656107Y0755000D02*
X0656000Y0755107D01*
D13*
X0656936Y0755000D02*
X0656936Y0751646D01*
X0646290Y0741000D01*
X0646290Y0707853D02*
X0669143Y0685000D01*
X0646290Y0707853D02*
X0646290Y0741000D01*
X0785000Y0736667D02*
X0795000Y0745000D01*
D11*
X0795000Y0745000D03*
X0691000Y0685000D03*
X0759000Y0685000D03*
D13*
X0691000Y0685000D02*
X0669143Y0685000D01*
X0759000Y0685000D02*
X0771238Y0685000D01*
X0785000Y0698762D01*
X0785000Y0736667D01*
D11*
X0656000Y0735107D03*
D14*
X0656107Y0735000D02*
X0656936Y0735000D01*
X0656107Y0735000D02*
X0656000Y0735107D01*
D13*
X0656936Y0735000D02*
X0656936Y0731876D01*
X0649060Y0724000D01*
X0649060Y0709000D01*
D11*
X0795000Y0765000D03*
D13*
X0782230Y0753959D02*
X0782230Y0703230D01*
X0782230Y0753959D02*
X0795000Y0765000D01*
D11*
X0683000Y0692000D03*
X0767000Y0692000D03*
D13*
X0683000Y0692000D02*
X0666060Y0692000D01*
X0649060Y0709000D01*
X0767000Y0692000D02*
X0771000Y0692000D01*
X0782230Y0703230D01*
D11*
X0656000Y0715107D03*
D14*
X0656107Y0715000D02*
X0656936Y0715000D01*
X0656107Y0715000D02*
X0656000Y0715107D01*
D13*
X0779230Y0707230D02*
X0779230Y0771005D01*
D11*
X0795000Y0785000D03*
D13*
X0779230Y0771005D01*
D11*
X0755900Y0698700D03*
D13*
X0770699Y0698700D01*
X0779230Y0707230D01*
D11*
X0656000Y0795107D03*
D14*
X0656084Y0795023D02*
X0656936Y0795000D01*
X0656084Y0795023D02*
X0656000Y0795107D01*
D13*
X0656936Y0795000D02*
X0656936Y0792000D01*
X0640750Y0775814D01*
X0640750Y0705558D01*
D11*
X0795000Y0705000D03*
X0691000Y0671000D03*
X0759000Y0671000D03*
D13*
X0675308Y0671000D02*
X0640750Y0705558D01*
X0675308Y0671000D02*
X0691000Y0671000D01*
X0759000Y0671000D02*
X0771000Y0671000D01*
X0795000Y0695000D01*
X0795000Y0705000D01*
M02*