G04 EAGLE Gerber RS-274X export*
G75*
%MOMM*%
%FSLAX34Y34*%
%LPD*%
%INoutline*%
%IPPOS*%
%AMOC8*
5,1,8,0,0,$1,22.5*%
G01*
%ADD10C,0.254*%
D10*
X0630000Y0690000D02*
X0630152Y0686514D01*
X0630608Y0683054D01*
X0631363Y0679646D01*
X0632412Y0676319D01*
X0633748Y0673095D01*
X0635359Y0670000D01*
X0637234Y0667056D01*
X0639358Y0664289D01*
X0641716Y0661716D01*
X0644289Y0659358D01*
X0647056Y0657234D01*
X0650000Y0655359D01*
X0653095Y0653747D01*
X0656319Y0652412D01*
X0659646Y0651363D01*
X0663054Y0650608D01*
X0666514Y0650151D01*
X0670000Y0650000D01*
X0780000Y0650000D01*
X0783486Y0650151D01*
X0786945Y0650608D01*
X0790353Y0651363D01*
X0793681Y0652412D01*
X0796905Y0653747D01*
X0800000Y0655359D01*
X0802942Y0657234D01*
X0805712Y0659358D01*
X0808284Y0661716D01*
X0810642Y0664289D01*
X0812766Y0667056D01*
X0814641Y0670000D01*
X0816252Y0673095D01*
X0817588Y0676319D01*
X0818637Y0679646D01*
X0819392Y0683054D01*
X0819848Y0686514D01*
X0820000Y0690000D01*
X0820000Y0810000D01*
X0819848Y0813486D01*
X0819392Y0816946D01*
X0818637Y0820353D01*
X0817588Y0823681D01*
X0816252Y0826905D01*
X0814641Y0830000D01*
X0812766Y0832942D01*
X0810642Y0835712D01*
X0808284Y0838284D01*
X0805712Y0840642D01*
X0802942Y0842766D01*
X0800000Y0844641D01*
X0796905Y0846252D01*
X0793681Y0847588D01*
X0790353Y0848637D01*
X0786945Y0849392D01*
X0783486Y0849848D01*
X0780000Y0850000D01*
X0670000Y0850000D01*
X0666514Y0849848D01*
X0663054Y0849392D01*
X0659646Y0848637D01*
X0656319Y0847588D01*
X0653095Y0846252D01*
X0650000Y0844641D01*
X0647056Y0842766D01*
X0644289Y0840642D01*
X0641716Y0838284D01*
X0639358Y0835712D01*
X0637234Y0832942D01*
X0635359Y0830000D01*
X0633748Y0826905D01*
X0632412Y0823681D01*
X0631363Y0820353D01*
X0630608Y0816946D01*
X0630152Y0813486D01*
X0630000Y0810000D01*
X0630000Y0690000D01*
M02*