G04 EAGLE Gerber RS-274X export*
G75*
%MOMM*%
%FSLAX34Y34*%
%LPD*%
%INComponent side*%
%IPPOS*%
%AMOC8*
5,1,8,0,0,$1,22.5*%
G01*
%ADD10R,2X0.6*%
%ADD11R,2.9X2.6*%
%ADD12R,0.45X1.45*%
%ADD13C,0.25*%
%ADD14C,0.125*%
%ADD15R,0.2X0.3*%
%ADD16C,0.15*%
%ADD17C,0.13*%
%ADD18C,0.7564*%
%ADD19C,0.3*%
G36*
X0739139Y0746713D02*
X0739139Y0746713D01*
X0739208Y0746715D01*
X0739308Y0746741D01*
X0739412Y0746758D01*
X0739476Y0746785D01*
X0739542Y0746802D01*
X0739635Y0746851D01*
X0739731Y0746891D01*
X0739787Y0746931D01*
X0739848Y0746964D01*
X0739927Y0747032D01*
X0740010Y0747093D01*
X0740057Y0747145D01*
X0740108Y0747191D01*
X0740170Y0747274D01*
X0740238Y0747354D01*
X0740270Y0747415D01*
X0740311Y0747471D01*
X0740350Y0747568D01*
X0740399Y0747660D01*
X0740416Y0747727D01*
X0740442Y0747791D01*
X0740459Y0747894D01*
X0740485Y0747995D01*
X0740492Y0748099D01*
X0740498Y0748132D01*
X0740496Y0748155D01*
X0740498Y0748199D01*
X0740498Y0757915D01*
X0740483Y0758053D01*
X0740473Y0758192D01*
X0740463Y0758225D01*
X0740459Y0758258D01*
X0740412Y0758389D01*
X0740371Y0758523D01*
X0740353Y0758552D01*
X0740342Y0758584D01*
X0740266Y0758700D01*
X0740194Y0758820D01*
X0740165Y0758854D01*
X0740153Y0758873D01*
X0740129Y0758896D01*
X0740060Y0758975D01*
X0726725Y0772310D01*
X0726615Y0772397D01*
X0726510Y0772488D01*
X0726480Y0772504D01*
X0726454Y0772525D01*
X0726328Y0772584D01*
X0726204Y0772649D01*
X0726172Y0772657D01*
X0726141Y0772672D01*
X0726005Y0772700D01*
X0725870Y0772735D01*
X0725824Y0772738D01*
X0725802Y0772743D01*
X0725769Y0772742D01*
X0725665Y0772749D01*
X0719518Y0772749D01*
X0719402Y0772736D01*
X0719286Y0772731D01*
X0719231Y0772716D01*
X0719174Y0772709D01*
X0719064Y0772670D01*
X0718952Y0772639D01*
X0718879Y0772603D01*
X0718849Y0772591D01*
X0718824Y0772576D01*
X0718768Y0772548D01*
X0718481Y0772382D01*
X0717835Y0772209D01*
X0716748Y0772209D01*
X0716748Y0775000D01*
X0716745Y0775035D01*
X0716748Y0775070D01*
X0716725Y0775207D01*
X0716709Y0775343D01*
X0716697Y0775377D01*
X0716692Y0775412D01*
X0716639Y0775539D01*
X0716592Y0775669D01*
X0716572Y0775698D01*
X0716559Y0775731D01*
X0716478Y0775843D01*
X0716403Y0775958D01*
X0716378Y0775983D01*
X0716357Y0776011D01*
X0716253Y0776102D01*
X0716153Y0776197D01*
X0716123Y0776215D01*
X0716096Y0776238D01*
X0715973Y0776302D01*
X0715855Y0776372D01*
X0715821Y0776382D01*
X0715790Y0776399D01*
X0715656Y0776433D01*
X0715525Y0776474D01*
X0715489Y0776476D01*
X0715455Y0776485D01*
X0715250Y0776499D01*
X0715215Y0776495D01*
X0715180Y0776498D01*
X0715179Y0776498D01*
X0715043Y0776475D01*
X0714906Y0776459D01*
X0714873Y0776447D01*
X0714838Y0776442D01*
X0714711Y0776389D01*
X0714581Y0776341D01*
X0714551Y0776323D01*
X0714519Y0776309D01*
X0714406Y0776228D01*
X0714292Y0776153D01*
X0714267Y0776127D01*
X0714238Y0776107D01*
X0714148Y0776003D01*
X0714053Y0775903D01*
X0714034Y0775872D01*
X0714012Y0775846D01*
X0713948Y0775723D01*
X0713878Y0775605D01*
X0713867Y0775571D01*
X0713851Y0775539D01*
X0713817Y0775406D01*
X0713776Y0775274D01*
X0713773Y0775239D01*
X0713764Y0775205D01*
X0713751Y0775000D01*
X0713751Y0772209D01*
X0712665Y0772209D01*
X0712019Y0772382D01*
X0711750Y0772538D01*
X0711675Y0772570D01*
X0711605Y0772612D01*
X0711517Y0772639D01*
X0711432Y0772675D01*
X0711352Y0772690D01*
X0711274Y0772714D01*
X0711183Y0772720D01*
X0711092Y0772736D01*
X0711011Y0772732D01*
X0710929Y0772737D01*
X0710839Y0772722D01*
X0710747Y0772717D01*
X0710668Y0772694D01*
X0710588Y0772681D01*
X0710502Y0772646D01*
X0710415Y0772620D01*
X0710344Y0772580D01*
X0710269Y0772548D01*
X0710194Y0772495D01*
X0710114Y0772449D01*
X0710055Y0772394D01*
X0709989Y0772346D01*
X0709928Y0772277D01*
X0709860Y0772214D01*
X0709815Y0772146D01*
X0709762Y0772085D01*
X0709719Y0772004D01*
X0709668Y0771927D01*
X0709639Y0771851D01*
X0709601Y0771778D01*
X0709578Y0771690D01*
X0709546Y0771604D01*
X0709535Y0771523D01*
X0709515Y0771444D01*
X0709504Y0771281D01*
X0709501Y0771260D01*
X0709502Y0771253D01*
X0709501Y0771240D01*
X0709501Y0765492D01*
X0709517Y0765354D01*
X0709526Y0765214D01*
X0709537Y0765182D01*
X0709541Y0765149D01*
X0709588Y0765018D01*
X0709629Y0764884D01*
X0709646Y0764855D01*
X0709658Y0764823D01*
X0709734Y0764706D01*
X0709805Y0764586D01*
X0709835Y0764552D01*
X0709847Y0764534D01*
X0709871Y0764511D01*
X0709940Y0764432D01*
X0710821Y0763550D01*
X0710821Y0754720D01*
X0710825Y0754685D01*
X0710822Y0754649D01*
X0710845Y0754513D01*
X0710861Y0754377D01*
X0710873Y0754343D01*
X0710878Y0754308D01*
X0710930Y0754181D01*
X0710978Y0754051D01*
X0710997Y0754021D01*
X0711011Y0753989D01*
X0711092Y0753877D01*
X0711167Y0753762D01*
X0711193Y0753737D01*
X0711213Y0753709D01*
X0711317Y0753618D01*
X0711417Y0753523D01*
X0711448Y0753505D01*
X0711474Y0753482D01*
X0711597Y0753418D01*
X0711715Y0753348D01*
X0711748Y0753338D01*
X0711781Y0753321D01*
X0711914Y0753287D01*
X0712046Y0753246D01*
X0712081Y0753244D01*
X0712115Y0753235D01*
X0712320Y0753221D01*
X0723137Y0753221D01*
X0728668Y0747690D01*
X0728777Y0747603D01*
X0728882Y0747512D01*
X0728912Y0747496D01*
X0728939Y0747475D01*
X0729064Y0747416D01*
X0729189Y0747351D01*
X0729221Y0747343D01*
X0729252Y0747328D01*
X0729388Y0747300D01*
X0729522Y0747265D01*
X0729568Y0747262D01*
X0729590Y0747257D01*
X0729624Y0747257D01*
X0729728Y0747251D01*
X0737829Y0747251D01*
X0737940Y0747140D01*
X0738022Y0747075D01*
X0738096Y0747003D01*
X0738156Y0746968D01*
X0738211Y0746925D01*
X0738305Y0746881D01*
X0738395Y0746828D01*
X0738461Y0746807D01*
X0738524Y0746778D01*
X0738626Y0746757D01*
X0738726Y0746726D01*
X0738795Y0746721D01*
X0738862Y0746707D01*
X0738966Y0746709D01*
X0739071Y0746701D01*
X0739139Y0746713D01*
G37*
D10*
X0644500Y0795000D03*
X0679500Y0785000D03*
X0644500Y0775000D03*
X0679500Y0765000D03*
X0644500Y0755000D03*
X0679500Y0745000D03*
X0644500Y0735000D03*
X0679500Y0725000D03*
X0644500Y0715000D03*
X0679500Y0705000D03*
D11*
X0662000Y0819000D03*
X0662000Y0681000D03*
D12*
X0734750Y0782000D03*
X0728250Y0782000D03*
X0721750Y0782000D03*
X0715250Y0782000D03*
X0715250Y0738000D03*
X0721750Y0738000D03*
X0728250Y0738000D03*
X0734750Y0738000D03*
D13*
X0697525Y0784350D02*
X0695025Y0784350D01*
X0695025Y0786850D01*
X0697525Y0786850D01*
X0697525Y0784350D01*
X0697525Y0786725D02*
X0695025Y0786725D01*
X0704275Y0784350D02*
X0706775Y0784350D01*
X0704275Y0784350D02*
X0704275Y0786850D01*
X0706775Y0786850D01*
X0706775Y0784350D01*
X0706775Y0786725D02*
X0704275Y0786725D01*
X0733824Y0720250D02*
X0736324Y0720250D01*
X0733824Y0720250D02*
X0733824Y0722750D01*
X0736324Y0722750D01*
X0736324Y0720250D01*
X0736324Y0722625D02*
X0733824Y0722625D01*
X0743075Y0720250D02*
X0745575Y0720250D01*
X0743075Y0720250D02*
X0743075Y0722750D01*
X0745575Y0722750D01*
X0745575Y0720250D01*
X0745575Y0722625D02*
X0743075Y0722625D01*
D10*
X0805500Y0705000D03*
X0770500Y0715000D03*
X0805500Y0725000D03*
X0770500Y0735000D03*
X0805500Y0745000D03*
X0770500Y0755000D03*
X0805500Y0765000D03*
X0770500Y0775000D03*
X0805500Y0785000D03*
X0770500Y0795000D03*
D11*
X0788000Y0681000D03*
X0788000Y0819000D03*
D14*
X0705288Y0769975D02*
X0701538Y0769975D01*
X0705288Y0769975D02*
X0705288Y0766225D01*
X0701538Y0766225D01*
X0701538Y0769975D01*
X0701538Y0767411D02*
X0705288Y0767411D01*
X0705288Y0768599D02*
X0701538Y0768599D01*
X0701538Y0769786D02*
X0705288Y0769786D01*
X0698661Y0769975D02*
X0694911Y0769975D01*
X0698661Y0769975D02*
X0698661Y0766225D01*
X0694911Y0766225D01*
X0694911Y0769975D01*
X0694911Y0767411D02*
X0698661Y0767411D01*
X0698661Y0768599D02*
X0694911Y0768599D01*
X0694911Y0769786D02*
X0698661Y0769786D01*
X0701639Y0751375D02*
X0705389Y0751375D01*
X0705389Y0747625D01*
X0701639Y0747625D01*
X0701639Y0751375D01*
X0701639Y0748812D02*
X0705389Y0748812D01*
X0705389Y0749999D02*
X0701639Y0749999D01*
X0701639Y0751186D02*
X0705389Y0751186D01*
X0698760Y0751375D02*
X0695010Y0751375D01*
X0698760Y0751375D02*
X0698760Y0747625D01*
X0695010Y0747625D01*
X0695010Y0751375D01*
X0695010Y0748812D02*
X0698760Y0748812D01*
X0698760Y0749999D02*
X0695010Y0749999D01*
X0695010Y0751186D02*
X0698760Y0751186D01*
X0701639Y0732875D02*
X0705389Y0732875D01*
X0705389Y0729125D01*
X0701639Y0729125D01*
X0701639Y0732875D01*
X0701639Y0730312D02*
X0705389Y0730312D01*
X0705389Y0731499D02*
X0701639Y0731499D01*
X0701639Y0732685D02*
X0705389Y0732685D01*
X0698760Y0732875D02*
X0695010Y0732875D01*
X0698760Y0732875D02*
X0698760Y0729125D01*
X0695010Y0729125D01*
X0695010Y0732875D01*
X0695010Y0730312D02*
X0698760Y0730312D01*
X0698760Y0731499D02*
X0695010Y0731499D01*
X0695010Y0732685D02*
X0698760Y0732685D01*
D15*
X0715000Y0718500D03*
X0719000Y0718500D03*
X0723000Y0718500D03*
X0727000Y0718500D03*
X0727000Y0724500D03*
X0723000Y0724500D03*
X0719000Y0724500D03*
X0715000Y0724500D03*
D16*
X0703514Y0731000D02*
X0708814Y0736300D01*
X0713550Y0736300D02*
X0715250Y0738000D01*
X0713550Y0736300D02*
X0708814Y0736300D01*
X0716750Y0733100D02*
X0716750Y0729611D01*
X0716750Y0733100D02*
X0713550Y0736300D01*
X0719000Y0727360D02*
X0719000Y0724500D01*
X0719000Y0727360D02*
X0716750Y0729611D01*
X0721850Y0738100D02*
X0721850Y0745489D01*
X0721850Y0738100D02*
X0721750Y0738000D01*
X0721850Y0745489D02*
X0719239Y0748100D01*
X0708100Y0748100D01*
X0706700Y0749500D01*
X0703514Y0749500D01*
X0722750Y0724750D02*
X0723000Y0724500D01*
X0721750Y0728528D02*
X0721750Y0738000D01*
X0722750Y0727527D02*
X0722750Y0724750D01*
X0722750Y0727527D02*
X0721750Y0728528D01*
X0728250Y0738000D02*
X0728250Y0745250D01*
X0722300Y0751200D02*
X0710800Y0751200D01*
X0708800Y0753199D01*
X0708800Y0762714D02*
X0703413Y0768100D01*
X0722300Y0751200D02*
X0728250Y0745250D01*
X0708800Y0753199D02*
X0708800Y0762714D01*
X0726800Y0724700D02*
X0727000Y0724500D01*
X0726800Y0724700D02*
X0726800Y0733350D01*
X0728250Y0734800D02*
X0728250Y0738000D01*
X0728250Y0734800D02*
X0726800Y0733350D01*
D17*
X0746829Y0730613D02*
X0746829Y0727987D01*
X0757850Y0716966D01*
X0757850Y0714487D01*
X0755716Y0716620D01*
X0748168Y0716620D01*
X0748301Y0716697D01*
X0749128Y0717524D01*
X0749712Y0718536D01*
X0750014Y0719665D01*
X0750014Y0720900D01*
X0744925Y0720900D01*
X0744925Y0722099D01*
X0750014Y0722099D01*
X0750014Y0723335D01*
X0749712Y0724464D01*
X0749128Y0725476D01*
X0748301Y0726303D01*
X0747289Y0726887D01*
X0746160Y0727189D01*
X0744925Y0727189D01*
X0744925Y0722099D01*
X0743725Y0722099D01*
X0743725Y0727189D01*
X0742490Y0727189D01*
X0741361Y0726887D01*
X0740348Y0726303D01*
X0739522Y0725476D01*
X0739372Y0725218D01*
X0738170Y0726420D01*
X0738170Y0728172D01*
X0739650Y0729652D01*
X0739650Y0746348D01*
X0738098Y0747899D01*
X0729376Y0747899D01*
X0723406Y0753870D01*
X0711906Y0753870D01*
X0711470Y0754306D01*
X0711470Y0763820D01*
X0709906Y0765384D01*
X0708563Y0766726D01*
X0708563Y0771332D01*
X0706646Y0773250D01*
X0700206Y0773250D01*
X0700206Y0773844D01*
X0705693Y0780450D01*
X0708390Y0780450D01*
X0710415Y0782475D01*
X0714774Y0782475D01*
X0714774Y0781525D01*
X0709810Y0781525D01*
X0709810Y0774329D01*
X0710027Y0773519D01*
X0710447Y0772791D01*
X0711041Y0772197D01*
X0711769Y0771777D01*
X0712580Y0771560D01*
X0714774Y0771560D01*
X0714774Y0781525D01*
X0715725Y0781525D01*
X0715725Y0771560D01*
X0717920Y0771560D01*
X0718730Y0771777D01*
X0719290Y0772100D01*
X0726016Y0772100D01*
X0746829Y0751287D01*
X0746829Y0730613D01*
X0715000Y0718500D02*
X0715000Y0718500D01*
X0719000Y0718500D01*
X0719000Y0718500D01*
X0718810Y0718500D01*
X0715000Y0718500D01*
X0719000Y0718500D02*
X0719000Y0718500D01*
X0723000Y0718500D01*
X0723000Y0718500D01*
X0722810Y0718500D01*
X0719000Y0718500D01*
X0700073Y0725849D02*
X0698630Y0724406D01*
X0700073Y0725849D02*
X0700117Y0725849D01*
X0700200Y0725932D01*
X0700282Y0725849D01*
X0706746Y0725849D01*
X0708664Y0727768D01*
X0708664Y0732373D01*
X0709920Y0733630D01*
X0710350Y0733630D01*
X0710350Y0729652D01*
X0711902Y0728100D01*
X0712352Y0728100D01*
X0711350Y0727098D01*
X0711350Y0721902D01*
X0711391Y0721861D01*
X0711027Y0721230D01*
X0710810Y0720420D01*
X0710810Y0718500D01*
X0715000Y0718500D01*
X0715000Y0718500D01*
X0710810Y0718500D01*
X0710810Y0716620D01*
X0706417Y0716620D01*
X0698630Y0724406D01*
X0723000Y0718500D02*
X0723000Y0718500D01*
X0727000Y0718500D01*
X0727000Y0718500D01*
X0723000Y0718500D01*
X0783150Y0773687D02*
X0783150Y0779098D01*
X0781598Y0780650D01*
X0759402Y0780650D01*
X0757850Y0779098D01*
X0757850Y0770902D01*
X0759402Y0769350D01*
X0777813Y0769350D01*
X0783180Y0763983D01*
X0783180Y0712617D01*
X0783150Y0712587D01*
X0783150Y0719098D01*
X0781598Y0720650D01*
X0763133Y0720650D01*
X0753170Y0730613D01*
X0753170Y0753913D01*
X0734983Y0772100D01*
X0735716Y0772100D01*
X0753530Y0754286D01*
X0753530Y0739487D01*
X0757850Y0735167D01*
X0757850Y0730902D01*
X0759402Y0729350D01*
X0781598Y0729350D01*
X0783150Y0730902D01*
X0783150Y0739098D01*
X0781598Y0740650D01*
X0761333Y0740650D01*
X0759870Y0742113D01*
X0759870Y0749350D01*
X0781598Y0749350D01*
X0783150Y0750902D01*
X0783150Y0759098D01*
X0781598Y0760650D01*
X0759402Y0760650D01*
X0757850Y0759098D01*
X0757850Y0758933D01*
X0739650Y0777133D01*
X0739650Y0790348D01*
X0738170Y0791828D01*
X0738170Y0798313D01*
X0736313Y0800170D01*
X0729013Y0807470D01*
X0679689Y0807470D01*
X0679689Y0818350D01*
X0662650Y0818350D01*
X0662650Y0819650D01*
X0679689Y0819650D01*
X0679689Y0832420D01*
X0679473Y0833231D01*
X0679053Y0833959D01*
X0678459Y0834552D01*
X0677731Y0834973D01*
X0676920Y0835190D01*
X0662650Y0835190D01*
X0662650Y0819650D01*
X0661350Y0819650D01*
X0661350Y0835190D01*
X0647080Y0835190D01*
X0646269Y0834973D01*
X0645541Y0834552D01*
X0644947Y0833959D01*
X0644526Y0833231D01*
X0644310Y0832420D01*
X0644310Y0819650D01*
X0661350Y0819650D01*
X0661350Y0818350D01*
X0644310Y0818350D01*
X0644310Y0805579D01*
X0644526Y0804769D01*
X0644947Y0804041D01*
X0645541Y0803447D01*
X0646269Y0803027D01*
X0647080Y0802810D01*
X0661350Y0802810D01*
X0661350Y0818350D01*
X0662650Y0818350D01*
X0662650Y0802810D01*
X0673627Y0802810D01*
X0659969Y0789152D01*
X0659969Y0780020D01*
X0659536Y0780453D01*
X0657172Y0781432D01*
X0654614Y0781432D01*
X0652726Y0780650D01*
X0634650Y0780650D01*
X0634650Y0789350D01*
X0653091Y0789350D01*
X0654721Y0788675D01*
X0657279Y0788675D01*
X0659643Y0789654D01*
X0661453Y0791464D01*
X0662432Y0793828D01*
X0662432Y0796386D01*
X0661453Y0798750D01*
X0659643Y0800560D01*
X0657279Y0801538D01*
X0654721Y0801538D01*
X0652574Y0800650D01*
X0634650Y0800650D01*
X0634650Y0810000D01*
X0634952Y0814614D01*
X0637341Y0823528D01*
X0637341Y0823528D01*
X0641955Y0831520D01*
X0648480Y0838045D01*
X0656472Y0842659D01*
X0665386Y0845048D01*
X0670000Y0845350D01*
X0711861Y0845350D01*
X0708293Y0842137D01*
X0708293Y0842137D01*
X0704800Y0834293D01*
X0704800Y0825707D01*
X0708293Y0817862D01*
X0708293Y0817862D01*
X0708293Y0817862D01*
X0714675Y0812117D01*
X0714675Y0812117D01*
X0722841Y0809463D01*
X0722842Y0809463D01*
X0731381Y0810361D01*
X0738818Y0814654D01*
X0738818Y0814654D01*
X0743865Y0821601D01*
X0745650Y0830000D01*
X0745650Y0830000D01*
X0743865Y0838399D01*
X0743865Y0838399D01*
X0738818Y0845346D01*
X0738818Y0845346D01*
X0738818Y0845346D01*
X0738810Y0845350D01*
X0780000Y0845350D01*
X0784614Y0845048D01*
X0793528Y0842659D01*
X0801520Y0838045D01*
X0808045Y0831520D01*
X0812659Y0823528D01*
X0815048Y0814614D01*
X0815350Y0810000D01*
X0815350Y0790650D01*
X0798167Y0790650D01*
X0796279Y0791432D01*
X0793721Y0791432D01*
X0791357Y0790453D01*
X0789547Y0788643D01*
X0788567Y0786279D01*
X0788567Y0783721D01*
X0789547Y0781357D01*
X0791357Y0779547D01*
X0793721Y0778567D01*
X0796279Y0778567D01*
X0798167Y0779350D01*
X0815350Y0779350D01*
X0815350Y0770650D01*
X0798167Y0770650D01*
X0796279Y0771432D01*
X0793721Y0771432D01*
X0791357Y0770453D01*
X0789547Y0768643D01*
X0789151Y0767685D01*
X0783150Y0773687D01*
X0769850Y0788810D02*
X0769850Y0794350D01*
X0771150Y0794350D01*
X0771150Y0788810D01*
X0780920Y0788810D01*
X0781731Y0789027D01*
X0782459Y0789447D01*
X0783053Y0790040D01*
X0783473Y0790769D01*
X0783690Y0791580D01*
X0783690Y0794350D01*
X0771150Y0794350D01*
X0771150Y0795650D01*
X0783690Y0795650D01*
X0783690Y0798420D01*
X0783473Y0799231D01*
X0783053Y0799959D01*
X0782459Y0800553D01*
X0781731Y0800973D01*
X0780920Y0801190D01*
X0771150Y0801190D01*
X0771150Y0795650D01*
X0769850Y0795650D01*
X0769850Y0801190D01*
X0760080Y0801190D01*
X0759269Y0800973D01*
X0758541Y0800553D01*
X0757947Y0799959D01*
X0757527Y0799231D01*
X0757310Y0798420D01*
X0757310Y0795650D01*
X0769850Y0795650D01*
X0769850Y0794350D01*
X0757310Y0794350D01*
X0757310Y0791580D01*
X0757527Y0790769D01*
X0757947Y0790040D01*
X0758541Y0789447D01*
X0759269Y0789027D01*
X0760080Y0788810D01*
X0769850Y0788810D01*
X0788650Y0818350D02*
X0805690Y0818350D01*
X0788650Y0818350D02*
X0788650Y0819650D01*
X0805690Y0819650D01*
X0805690Y0832420D01*
X0805473Y0833231D01*
X0805053Y0833959D01*
X0804459Y0834552D01*
X0803730Y0834973D01*
X0802920Y0835190D01*
X0788650Y0835190D01*
X0788650Y0819650D01*
X0787350Y0819650D01*
X0787350Y0835190D01*
X0773079Y0835190D01*
X0772269Y0834973D01*
X0771541Y0834552D01*
X0770947Y0833959D01*
X0770527Y0833231D01*
X0770310Y0832420D01*
X0770310Y0819650D01*
X0787350Y0819650D01*
X0787350Y0818350D01*
X0770310Y0818350D01*
X0770310Y0805579D01*
X0770527Y0804769D01*
X0770947Y0804041D01*
X0771541Y0803447D01*
X0772269Y0803027D01*
X0773079Y0802810D01*
X0787350Y0802810D01*
X0787350Y0818350D01*
X0788650Y0818350D01*
X0788650Y0802810D01*
X0802920Y0802810D01*
X0803730Y0803027D01*
X0804459Y0803447D01*
X0805053Y0804041D01*
X0805473Y0804769D01*
X0805690Y0805579D01*
X0805690Y0818350D01*
X0680150Y0711190D02*
X0680150Y0705650D01*
X0678850Y0705650D01*
X0678850Y0711190D01*
X0669080Y0711190D01*
X0668269Y0710973D01*
X0667540Y0710553D01*
X0666947Y0709959D01*
X0666527Y0709231D01*
X0666310Y0708420D01*
X0666310Y0705650D01*
X0678850Y0705650D01*
X0678850Y0704350D01*
X0666310Y0704350D01*
X0666310Y0703466D01*
X0659883Y0709893D01*
X0661453Y0711464D01*
X0662432Y0713828D01*
X0662432Y0716386D01*
X0661453Y0718750D01*
X0659643Y0720560D01*
X0657279Y0721538D01*
X0654721Y0721538D01*
X0652574Y0720650D01*
X0634650Y0720650D01*
X0634650Y0729350D01*
X0653091Y0729350D01*
X0654721Y0728675D01*
X0657279Y0728675D01*
X0659643Y0729654D01*
X0661453Y0731464D01*
X0662432Y0733828D01*
X0662432Y0736386D01*
X0661453Y0738750D01*
X0659643Y0740560D01*
X0657279Y0741538D01*
X0654721Y0741538D01*
X0652574Y0740650D01*
X0634650Y0740650D01*
X0634650Y0749350D01*
X0653091Y0749350D01*
X0654721Y0748675D01*
X0657279Y0748675D01*
X0659643Y0749654D01*
X0661453Y0751464D01*
X0662432Y0753828D01*
X0662432Y0756386D01*
X0661453Y0758750D01*
X0659643Y0760560D01*
X0657279Y0761538D01*
X0654721Y0761538D01*
X0652574Y0760650D01*
X0634650Y0760650D01*
X0634650Y0769350D01*
X0652726Y0769350D01*
X0654614Y0768567D01*
X0657172Y0768567D01*
X0659536Y0769547D01*
X0661346Y0771357D01*
X0661625Y0772031D01*
X0661825Y0771829D01*
X0666850Y0766806D01*
X0666850Y0760902D01*
X0668402Y0759350D01*
X0690598Y0759350D01*
X0692150Y0760902D01*
X0692150Y0764355D01*
X0693366Y0763138D01*
X0693366Y0754362D01*
X0691735Y0752732D01*
X0691735Y0749512D01*
X0690598Y0750650D01*
X0668402Y0750650D01*
X0666850Y0749098D01*
X0666850Y0740902D01*
X0668402Y0739350D01*
X0690598Y0739350D01*
X0692150Y0740902D01*
X0692150Y0745855D01*
X0693466Y0744538D01*
X0693466Y0735962D01*
X0691735Y0734232D01*
X0691735Y0729512D01*
X0690598Y0730650D01*
X0668402Y0730650D01*
X0666850Y0729098D01*
X0666850Y0720902D01*
X0668402Y0719350D01*
X0690598Y0719350D01*
X0691828Y0720579D01*
X0692783Y0720579D01*
X0703583Y0709780D01*
X0752882Y0709780D01*
X0755879Y0706783D01*
X0755879Y0706783D01*
X0757780Y0704883D01*
X0757179Y0705132D01*
X0754620Y0705132D01*
X0752257Y0704153D01*
X0750690Y0702586D01*
X0744606Y0708670D01*
X0704894Y0708670D01*
X0703330Y0707106D01*
X0697894Y0701670D01*
X0692690Y0701670D01*
X0692690Y0704350D01*
X0680150Y0704350D01*
X0680150Y0705650D01*
X0692690Y0705650D01*
X0692690Y0708420D01*
X0692473Y0709231D01*
X0692052Y0709959D01*
X0691459Y0710553D01*
X0690731Y0710973D01*
X0689920Y0711190D01*
X0680150Y0711190D01*
X0662650Y0697189D02*
X0662650Y0681650D01*
X0661350Y0681650D01*
X0661350Y0697189D01*
X0647080Y0697189D01*
X0646269Y0696973D01*
X0645541Y0696553D01*
X0644947Y0695959D01*
X0644526Y0695231D01*
X0644310Y0694420D01*
X0644310Y0681650D01*
X0661350Y0681650D01*
X0661350Y0680350D01*
X0644310Y0680350D01*
X0644310Y0667580D01*
X0644526Y0666769D01*
X0644947Y0666041D01*
X0645541Y0665447D01*
X0646269Y0665027D01*
X0647080Y0664810D01*
X0661350Y0664810D01*
X0661350Y0680350D01*
X0662650Y0680350D01*
X0662650Y0664810D01*
X0676920Y0664810D01*
X0677731Y0665027D01*
X0678459Y0665447D01*
X0679053Y0666041D01*
X0679473Y0666769D01*
X0679689Y0667580D01*
X0679689Y0672409D01*
X0681721Y0671568D01*
X0684278Y0671568D01*
X0684568Y0671688D01*
X0684568Y0669721D01*
X0685547Y0667357D01*
X0687357Y0665547D01*
X0689721Y0664568D01*
X0692279Y0664568D01*
X0694643Y0665547D01*
X0696453Y0667357D01*
X0697432Y0669721D01*
X0697432Y0672279D01*
X0697029Y0673253D01*
X0715106Y0691330D01*
X0734394Y0691330D01*
X0752825Y0672899D01*
X0752568Y0672279D01*
X0752568Y0669721D01*
X0753546Y0667357D01*
X0755357Y0665547D01*
X0757721Y0664568D01*
X0760279Y0664568D01*
X0762643Y0665547D01*
X0764453Y0667357D01*
X0765432Y0669721D01*
X0765432Y0671688D01*
X0765721Y0671568D01*
X0768279Y0671568D01*
X0770310Y0672409D01*
X0770310Y0667580D01*
X0770527Y0666769D01*
X0770947Y0666041D01*
X0771541Y0665447D01*
X0772269Y0665027D01*
X0773079Y0664810D01*
X0787350Y0664810D01*
X0787350Y0680350D01*
X0788650Y0680350D01*
X0788650Y0664810D01*
X0802920Y0664810D01*
X0803730Y0665027D01*
X0804459Y0665447D01*
X0805053Y0666041D01*
X0805473Y0666769D01*
X0805690Y0667580D01*
X0805690Y0680350D01*
X0788650Y0680350D01*
X0788650Y0681650D01*
X0805690Y0681650D01*
X0805690Y0694420D01*
X0805473Y0695231D01*
X0805053Y0695959D01*
X0804459Y0696553D01*
X0803730Y0696973D01*
X0802920Y0697189D01*
X0788650Y0697189D01*
X0788650Y0681650D01*
X0787350Y0681650D01*
X0787350Y0697189D01*
X0773079Y0697189D01*
X0772269Y0696973D01*
X0771543Y0696553D01*
X0770643Y0697453D01*
X0768279Y0698432D01*
X0765721Y0698432D01*
X0763357Y0697453D01*
X0761630Y0695726D01*
X0762332Y0697420D01*
X0762332Y0699979D01*
X0761353Y0702343D01*
X0759543Y0704153D01*
X0758028Y0704780D01*
X0785017Y0704780D01*
X0788017Y0707780D01*
X0790020Y0709783D01*
X0790020Y0720884D01*
X0791357Y0719547D01*
X0793721Y0718567D01*
X0796279Y0718567D01*
X0798167Y0719350D01*
X0815350Y0719350D01*
X0815350Y0710650D01*
X0798167Y0710650D01*
X0796279Y0711432D01*
X0793721Y0711432D01*
X0791357Y0710453D01*
X0789547Y0708643D01*
X0788567Y0706279D01*
X0788567Y0703721D01*
X0789547Y0701357D01*
X0791357Y0699547D01*
X0793721Y0698567D01*
X0796279Y0698567D01*
X0798167Y0699350D01*
X0815350Y0699350D01*
X0815350Y0690000D01*
X0815048Y0685386D01*
X0812659Y0676472D01*
X0808045Y0668480D01*
X0801520Y0661955D01*
X0793528Y0657341D01*
X0784614Y0654952D01*
X0780000Y0654650D01*
X0738810Y0654650D01*
X0738818Y0654654D01*
X0738818Y0654654D01*
X0738818Y0654654D01*
X0743865Y0661601D01*
X0743865Y0661601D01*
X0745650Y0670000D01*
X0743865Y0678399D01*
X0743865Y0678399D01*
X0738818Y0685346D01*
X0738818Y0685346D01*
X0738818Y0685346D01*
X0731381Y0689639D01*
X0731381Y0689639D01*
X0722842Y0690537D01*
X0722841Y0690537D01*
X0714675Y0687883D01*
X0714675Y0687883D01*
X0708293Y0682138D01*
X0708293Y0682138D01*
X0704800Y0674293D01*
X0704800Y0665707D01*
X0708293Y0657861D01*
X0708293Y0657861D01*
X0711861Y0654650D01*
X0670000Y0654650D01*
X0665386Y0654952D01*
X0656472Y0657341D01*
X0648480Y0661955D01*
X0641955Y0668480D01*
X0637341Y0676472D01*
X0634952Y0685386D01*
X0634650Y0690000D01*
X0634650Y0709350D01*
X0652874Y0709350D01*
X0664329Y0697894D01*
X0665034Y0697189D01*
X0662650Y0697189D01*
X0695986Y0800470D02*
X0698613Y0800470D01*
X0695986Y0800470D02*
X0686167Y0790650D01*
X0670433Y0790650D01*
X0680913Y0801130D01*
X0726387Y0801130D01*
X0731829Y0795687D01*
X0731829Y0791900D01*
X0731420Y0791900D01*
X0731420Y0795063D01*
X0726013Y0800470D01*
X0723387Y0800470D01*
X0698613Y0800470D01*
X0710361Y0656000D02*
X0661476Y0656000D01*
X0739795Y0656000D02*
X0788524Y0656000D01*
X0707787Y0659000D02*
X0653598Y0659000D01*
X0741975Y0659000D02*
X0796401Y0659000D01*
X0706452Y0662000D02*
X0648435Y0662000D01*
X0743950Y0662000D02*
X0801564Y0662000D01*
X0646371Y0665000D02*
X0645435Y0665000D01*
X0661350Y0665000D02*
X0662650Y0665000D01*
X0677629Y0665000D02*
X0688678Y0665000D01*
X0693322Y0665000D02*
X0705116Y0665000D01*
X0744586Y0665000D02*
X0756678Y0665000D01*
X0761322Y0665000D02*
X0772371Y0665000D01*
X0787350Y0665000D02*
X0788650Y0665000D01*
X0803629Y0665000D02*
X0804565Y0665000D01*
X0644310Y0668000D02*
X0642435Y0668000D01*
X0661350Y0668000D02*
X0662650Y0668000D01*
X0679689Y0668000D02*
X0685281Y0668000D01*
X0696718Y0668000D02*
X0704800Y0668000D01*
X0745225Y0668000D02*
X0753281Y0668000D01*
X0764719Y0668000D02*
X0770310Y0668000D01*
X0787350Y0668000D02*
X0788650Y0668000D01*
X0805690Y0668000D02*
X0807565Y0668000D01*
X0644310Y0671000D02*
X0640500Y0671000D01*
X0661350Y0671000D02*
X0662650Y0671000D01*
X0679689Y0671000D02*
X0684568Y0671000D01*
X0697432Y0671000D02*
X0704800Y0671000D01*
X0745437Y0671000D02*
X0752568Y0671000D01*
X0765432Y0671000D02*
X0770310Y0671000D01*
X0787350Y0671000D02*
X0788650Y0671000D01*
X0805690Y0671000D02*
X0809500Y0671000D01*
X0644310Y0674000D02*
X0638768Y0674000D01*
X0661350Y0674000D02*
X0662650Y0674000D01*
X0697776Y0674000D02*
X0704800Y0674000D01*
X0744800Y0674000D02*
X0751724Y0674000D01*
X0787350Y0674000D02*
X0788650Y0674000D01*
X0805690Y0674000D02*
X0811232Y0674000D01*
X0644310Y0677000D02*
X0637199Y0677000D01*
X0661350Y0677000D02*
X0662650Y0677000D01*
X0700776Y0677000D02*
X0706006Y0677000D01*
X0744162Y0677000D02*
X0748724Y0677000D01*
X0787350Y0677000D02*
X0788650Y0677000D01*
X0805690Y0677000D02*
X0812801Y0677000D01*
X0644310Y0680000D02*
X0636396Y0680000D01*
X0661350Y0680000D02*
X0662650Y0680000D01*
X0703776Y0680000D02*
X0707342Y0680000D01*
X0742702Y0680000D02*
X0745724Y0680000D01*
X0787350Y0680000D02*
X0788650Y0680000D01*
X0805690Y0680000D02*
X0813604Y0680000D01*
X0644310Y0683000D02*
X0635592Y0683000D01*
X0661350Y0683000D02*
X0662650Y0683000D01*
X0706776Y0683000D02*
X0709251Y0683000D01*
X0740522Y0683000D02*
X0742724Y0683000D01*
X0787350Y0683000D02*
X0788650Y0683000D01*
X0805690Y0683000D02*
X0814408Y0683000D01*
X0644310Y0686000D02*
X0634912Y0686000D01*
X0661350Y0686000D02*
X0662650Y0686000D01*
X0709776Y0686000D02*
X0712583Y0686000D01*
X0737685Y0686000D02*
X0739723Y0686000D01*
X0787350Y0686000D02*
X0788650Y0686000D01*
X0805690Y0686000D02*
X0815088Y0686000D01*
X0644310Y0689000D02*
X0634716Y0689000D01*
X0661350Y0689000D02*
X0662650Y0689000D01*
X0712776Y0689000D02*
X0718112Y0689000D01*
X0732488Y0689000D02*
X0736724Y0689000D01*
X0787350Y0689000D02*
X0788650Y0689000D01*
X0805690Y0689000D02*
X0815284Y0689000D01*
X0644310Y0692000D02*
X0634650Y0692000D01*
X0661350Y0692000D02*
X0662650Y0692000D01*
X0787350Y0692000D02*
X0788650Y0692000D01*
X0805690Y0692000D02*
X0815350Y0692000D01*
X0644465Y0695000D02*
X0634650Y0695000D01*
X0661350Y0695000D02*
X0662650Y0695000D01*
X0787350Y0695000D02*
X0788650Y0695000D01*
X0805535Y0695000D02*
X0815350Y0695000D01*
X0664224Y0698000D02*
X0634650Y0698000D01*
X0762332Y0698000D02*
X0764678Y0698000D01*
X0769322Y0698000D02*
X0815350Y0698000D01*
X0661224Y0701000D02*
X0634650Y0701000D01*
X0761909Y0701000D02*
X0789903Y0701000D01*
X0658224Y0704000D02*
X0634650Y0704000D01*
X0665776Y0704000D02*
X0666310Y0704000D01*
X0692690Y0704000D02*
X0700224Y0704000D01*
X0749276Y0704000D02*
X0752103Y0704000D01*
X0759696Y0704000D02*
X0788567Y0704000D01*
X0655224Y0707000D02*
X0634650Y0707000D01*
X0662776Y0707000D02*
X0666310Y0707000D01*
X0678850Y0707000D02*
X0680150Y0707000D01*
X0692690Y0707000D02*
X0703224Y0707000D01*
X0746276Y0707000D02*
X0755663Y0707000D01*
X0787236Y0707000D02*
X0788867Y0707000D01*
X0666989Y0710000D02*
X0659989Y0710000D01*
X0678850Y0710000D02*
X0680150Y0710000D01*
X0692011Y0710000D02*
X0703363Y0710000D01*
X0790020Y0710000D02*
X0790904Y0710000D01*
X0700363Y0713000D02*
X0662089Y0713000D01*
X0783150Y0713000D02*
X0783180Y0713000D01*
X0790020Y0713000D02*
X0815350Y0713000D01*
X0697363Y0716000D02*
X0662432Y0716000D01*
X0756337Y0716000D02*
X0757850Y0716000D01*
X0783150Y0716000D02*
X0783180Y0716000D01*
X0790020Y0716000D02*
X0815350Y0716000D01*
X0694363Y0719000D02*
X0661203Y0719000D01*
X0704037Y0719000D02*
X0710810Y0719000D01*
X0749837Y0719000D02*
X0755817Y0719000D01*
X0783150Y0719000D02*
X0783180Y0719000D01*
X0790020Y0719000D02*
X0792677Y0719000D01*
X0797322Y0719000D02*
X0815350Y0719000D01*
X0666850Y0722000D02*
X0634650Y0722000D01*
X0701037Y0722000D02*
X0711350Y0722000D01*
X0744925Y0722000D02*
X0752817Y0722000D01*
X0761783Y0722000D02*
X0783180Y0722000D01*
X0666850Y0725000D02*
X0634650Y0725000D01*
X0699223Y0725000D02*
X0711350Y0725000D01*
X0743725Y0725000D02*
X0744925Y0725000D01*
X0749403Y0725000D02*
X0749817Y0725000D01*
X0758783Y0725000D02*
X0783180Y0725000D01*
X0666850Y0728000D02*
X0634650Y0728000D01*
X0708664Y0728000D02*
X0712252Y0728000D01*
X0738170Y0728000D02*
X0746829Y0728000D01*
X0755783Y0728000D02*
X0783180Y0728000D01*
X0691735Y0731000D02*
X0660989Y0731000D01*
X0708664Y0731000D02*
X0710350Y0731000D01*
X0739650Y0731000D02*
X0746829Y0731000D01*
X0753170Y0731000D02*
X0757850Y0731000D01*
X0783150Y0731000D02*
X0783180Y0731000D01*
X0691735Y0734000D02*
X0662432Y0734000D01*
X0739650Y0734000D02*
X0746829Y0734000D01*
X0753170Y0734000D02*
X0757850Y0734000D01*
X0783150Y0734000D02*
X0783180Y0734000D01*
X0693466Y0737000D02*
X0662178Y0737000D01*
X0739650Y0737000D02*
X0746829Y0737000D01*
X0753170Y0737000D02*
X0756016Y0737000D01*
X0783150Y0737000D02*
X0783180Y0737000D01*
X0667752Y0740000D02*
X0660203Y0740000D01*
X0691247Y0740000D02*
X0693466Y0740000D01*
X0739650Y0740000D02*
X0746829Y0740000D01*
X0753170Y0740000D02*
X0753530Y0740000D01*
X0782248Y0740000D02*
X0783180Y0740000D01*
X0666850Y0743000D02*
X0634650Y0743000D01*
X0692150Y0743000D02*
X0693466Y0743000D01*
X0739650Y0743000D02*
X0746829Y0743000D01*
X0753170Y0743000D02*
X0753530Y0743000D01*
X0759870Y0743000D02*
X0783180Y0743000D01*
X0666850Y0746000D02*
X0634650Y0746000D01*
X0739650Y0746000D02*
X0746829Y0746000D01*
X0753170Y0746000D02*
X0753530Y0746000D01*
X0759870Y0746000D02*
X0783180Y0746000D01*
X0653936Y0749000D02*
X0634650Y0749000D01*
X0658064Y0749000D02*
X0666850Y0749000D01*
X0728276Y0749000D02*
X0746829Y0749000D01*
X0753170Y0749000D02*
X0753530Y0749000D01*
X0759870Y0749000D02*
X0783180Y0749000D01*
X0691735Y0752000D02*
X0661675Y0752000D01*
X0725276Y0752000D02*
X0746117Y0752000D01*
X0753170Y0752000D02*
X0753530Y0752000D01*
X0783150Y0752000D02*
X0783180Y0752000D01*
X0693366Y0755000D02*
X0662432Y0755000D01*
X0711470Y0755000D02*
X0743117Y0755000D01*
X0752082Y0755000D02*
X0752817Y0755000D01*
X0783150Y0755000D02*
X0783180Y0755000D01*
X0693366Y0758000D02*
X0661764Y0758000D01*
X0711470Y0758000D02*
X0740117Y0758000D01*
X0749083Y0758000D02*
X0749817Y0758000D01*
X0783150Y0758000D02*
X0783180Y0758000D01*
X0653419Y0761000D02*
X0634650Y0761000D01*
X0658580Y0761000D02*
X0666850Y0761000D01*
X0692150Y0761000D02*
X0693366Y0761000D01*
X0711470Y0761000D02*
X0737117Y0761000D01*
X0746083Y0761000D02*
X0746817Y0761000D01*
X0755783Y0761000D02*
X0783180Y0761000D01*
X0666850Y0764000D02*
X0634650Y0764000D01*
X0692150Y0764000D02*
X0692504Y0764000D01*
X0711290Y0764000D02*
X0734117Y0764000D01*
X0743083Y0764000D02*
X0743817Y0764000D01*
X0752783Y0764000D02*
X0783163Y0764000D01*
X0666656Y0767000D02*
X0634650Y0767000D01*
X0708563Y0767000D02*
X0731117Y0767000D01*
X0740083Y0767000D02*
X0740817Y0767000D01*
X0749783Y0767000D02*
X0780163Y0767000D01*
X0663656Y0770000D02*
X0659989Y0770000D01*
X0708563Y0770000D02*
X0728117Y0770000D01*
X0737082Y0770000D02*
X0737817Y0770000D01*
X0746783Y0770000D02*
X0758752Y0770000D01*
X0786837Y0770000D02*
X0790904Y0770000D01*
X0710327Y0773000D02*
X0706896Y0773000D01*
X0714774Y0773000D02*
X0715725Y0773000D01*
X0743783Y0773000D02*
X0757850Y0773000D01*
X0783837Y0773000D02*
X0815350Y0773000D01*
X0709810Y0776000D02*
X0701997Y0776000D01*
X0714774Y0776000D02*
X0715725Y0776000D01*
X0740783Y0776000D02*
X0757850Y0776000D01*
X0783150Y0776000D02*
X0815350Y0776000D01*
X0709810Y0779000D02*
X0704489Y0779000D01*
X0714774Y0779000D02*
X0715725Y0779000D01*
X0739650Y0779000D02*
X0757850Y0779000D01*
X0783150Y0779000D02*
X0792677Y0779000D01*
X0797322Y0779000D02*
X0815350Y0779000D01*
X0659969Y0782000D02*
X0634650Y0782000D01*
X0709940Y0782000D02*
X0714774Y0782000D01*
X0739650Y0782000D02*
X0789281Y0782000D01*
X0659969Y0785000D02*
X0634650Y0785000D01*
X0739650Y0785000D02*
X0788567Y0785000D01*
X0659969Y0788000D02*
X0634650Y0788000D01*
X0739650Y0788000D02*
X0789281Y0788000D01*
X0661817Y0791000D02*
X0660989Y0791000D01*
X0670783Y0791000D02*
X0686517Y0791000D01*
X0738998Y0791000D02*
X0757465Y0791000D01*
X0769850Y0791000D02*
X0771150Y0791000D01*
X0783535Y0791000D02*
X0792677Y0791000D01*
X0797322Y0791000D02*
X0815350Y0791000D01*
X0664817Y0794000D02*
X0662432Y0794000D01*
X0673783Y0794000D02*
X0689517Y0794000D01*
X0731420Y0794000D02*
X0731829Y0794000D01*
X0738170Y0794000D02*
X0757310Y0794000D01*
X0769850Y0794000D02*
X0771150Y0794000D01*
X0783690Y0794000D02*
X0815350Y0794000D01*
X0667817Y0797000D02*
X0662178Y0797000D01*
X0676783Y0797000D02*
X0692517Y0797000D01*
X0729483Y0797000D02*
X0730517Y0797000D01*
X0738170Y0797000D02*
X0757310Y0797000D01*
X0769850Y0797000D02*
X0771150Y0797000D01*
X0783690Y0797000D02*
X0815350Y0797000D01*
X0670817Y0800000D02*
X0660203Y0800000D01*
X0679783Y0800000D02*
X0695517Y0800000D01*
X0726483Y0800000D02*
X0727517Y0800000D01*
X0736483Y0800000D02*
X0757989Y0800000D01*
X0769850Y0800000D02*
X0771150Y0800000D01*
X0783011Y0800000D02*
X0815350Y0800000D01*
X0646371Y0803000D02*
X0634650Y0803000D01*
X0661350Y0803000D02*
X0662650Y0803000D01*
X0733483Y0803000D02*
X0772371Y0803000D01*
X0787350Y0803000D02*
X0788650Y0803000D01*
X0803629Y0803000D02*
X0815350Y0803000D01*
X0644310Y0806000D02*
X0634650Y0806000D01*
X0661350Y0806000D02*
X0662650Y0806000D01*
X0730483Y0806000D02*
X0770310Y0806000D01*
X0787350Y0806000D02*
X0788650Y0806000D01*
X0805690Y0806000D02*
X0815350Y0806000D01*
X0644310Y0809000D02*
X0634650Y0809000D01*
X0661350Y0809000D02*
X0662650Y0809000D01*
X0679689Y0809000D02*
X0770310Y0809000D01*
X0787350Y0809000D02*
X0788650Y0809000D01*
X0805690Y0809000D02*
X0815350Y0809000D01*
X0644310Y0812000D02*
X0634781Y0812000D01*
X0661350Y0812000D02*
X0662650Y0812000D01*
X0679689Y0812000D02*
X0715034Y0812000D01*
X0734221Y0812000D02*
X0770310Y0812000D01*
X0787350Y0812000D02*
X0788650Y0812000D01*
X0805690Y0812000D02*
X0815219Y0812000D01*
X0644310Y0815000D02*
X0635056Y0815000D01*
X0661350Y0815000D02*
X0662650Y0815000D01*
X0679689Y0815000D02*
X0711473Y0815000D01*
X0739069Y0815000D02*
X0770310Y0815000D01*
X0787350Y0815000D02*
X0788650Y0815000D01*
X0805690Y0815000D02*
X0814944Y0815000D01*
X0644310Y0818000D02*
X0635860Y0818000D01*
X0661350Y0818000D02*
X0662650Y0818000D01*
X0679689Y0818000D02*
X0708232Y0818000D01*
X0741247Y0818000D02*
X0770310Y0818000D01*
X0787350Y0818000D02*
X0788650Y0818000D01*
X0805690Y0818000D02*
X0814140Y0818000D01*
X0644310Y0821000D02*
X0636663Y0821000D01*
X0661350Y0821000D02*
X0662650Y0821000D01*
X0679689Y0821000D02*
X0706897Y0821000D01*
X0743428Y0821000D02*
X0770310Y0821000D01*
X0787350Y0821000D02*
X0788650Y0821000D01*
X0805690Y0821000D02*
X0813336Y0821000D01*
X0644310Y0824000D02*
X0637613Y0824000D01*
X0661350Y0824000D02*
X0662650Y0824000D01*
X0679689Y0824000D02*
X0705561Y0824000D01*
X0744375Y0824000D02*
X0770310Y0824000D01*
X0787350Y0824000D02*
X0788650Y0824000D01*
X0805690Y0824000D02*
X0812387Y0824000D01*
X0644310Y0827000D02*
X0639345Y0827000D01*
X0661350Y0827000D02*
X0662650Y0827000D01*
X0679689Y0827000D02*
X0704800Y0827000D01*
X0745012Y0827000D02*
X0770310Y0827000D01*
X0787350Y0827000D02*
X0788650Y0827000D01*
X0805690Y0827000D02*
X0810654Y0827000D01*
X0644310Y0830000D02*
X0641078Y0830000D01*
X0661350Y0830000D02*
X0662650Y0830000D01*
X0679689Y0830000D02*
X0704800Y0830000D01*
X0745650Y0830000D02*
X0770310Y0830000D01*
X0787350Y0830000D02*
X0788650Y0830000D01*
X0805690Y0830000D02*
X0808922Y0830000D01*
X0644465Y0833000D02*
X0643435Y0833000D01*
X0661350Y0833000D02*
X0662650Y0833000D01*
X0679535Y0833000D02*
X0704800Y0833000D01*
X0745012Y0833000D02*
X0770465Y0833000D01*
X0787350Y0833000D02*
X0788650Y0833000D01*
X0805535Y0833000D02*
X0806564Y0833000D01*
X0705561Y0836000D02*
X0646435Y0836000D01*
X0744375Y0836000D02*
X0803565Y0836000D01*
X0706897Y0839000D02*
X0650134Y0839000D01*
X0743428Y0839000D02*
X0799866Y0839000D01*
X0708232Y0842000D02*
X0655330Y0842000D01*
X0741247Y0842000D02*
X0794669Y0842000D01*
X0711473Y0845000D02*
X0665207Y0845000D01*
X0739069Y0845000D02*
X0784792Y0845000D01*
X0636000Y0709350D02*
X0636000Y0681476D01*
X0636000Y0720650D02*
X0636000Y0729350D01*
X0636000Y0740650D02*
X0636000Y0749350D01*
X0636000Y0760650D02*
X0636000Y0769350D01*
X0636000Y0780650D02*
X0636000Y0789350D01*
X0636000Y0800650D02*
X0636000Y0818524D01*
X0639000Y0709350D02*
X0639000Y0673598D01*
X0639000Y0720650D02*
X0639000Y0729350D01*
X0639000Y0740650D02*
X0639000Y0749350D01*
X0639000Y0760650D02*
X0639000Y0769350D01*
X0639000Y0780650D02*
X0639000Y0789350D01*
X0639000Y0800650D02*
X0639000Y0826401D01*
X0642000Y0709350D02*
X0642000Y0668435D01*
X0642000Y0720650D02*
X0642000Y0729350D01*
X0642000Y0740650D02*
X0642000Y0749350D01*
X0642000Y0760650D02*
X0642000Y0769350D01*
X0642000Y0780650D02*
X0642000Y0789350D01*
X0642000Y0800650D02*
X0642000Y0831564D01*
X0645000Y0665989D02*
X0645000Y0665435D01*
X0645000Y0680350D02*
X0645000Y0681650D01*
X0645000Y0696011D02*
X0645000Y0709350D01*
X0645000Y0720650D02*
X0645000Y0729350D01*
X0645000Y0740650D02*
X0645000Y0749350D01*
X0645000Y0760650D02*
X0645000Y0769350D01*
X0645000Y0780650D02*
X0645000Y0789350D01*
X0645000Y0800650D02*
X0645000Y0803989D01*
X0645000Y0818350D02*
X0645000Y0819650D01*
X0645000Y0834011D02*
X0645000Y0834565D01*
X0648000Y0664810D02*
X0648000Y0662435D01*
X0648000Y0680350D02*
X0648000Y0681650D01*
X0648000Y0697189D02*
X0648000Y0709350D01*
X0648000Y0720650D02*
X0648000Y0729350D01*
X0648000Y0740650D02*
X0648000Y0749350D01*
X0648000Y0760650D02*
X0648000Y0769350D01*
X0648000Y0780650D02*
X0648000Y0789350D01*
X0648000Y0800650D02*
X0648000Y0802810D01*
X0648000Y0818350D02*
X0648000Y0819650D01*
X0648000Y0835190D02*
X0648000Y0837565D01*
X0651000Y0664810D02*
X0651000Y0660500D01*
X0651000Y0680350D02*
X0651000Y0681650D01*
X0651000Y0697189D02*
X0651000Y0709350D01*
X0651000Y0720650D02*
X0651000Y0729350D01*
X0651000Y0740650D02*
X0651000Y0749350D01*
X0651000Y0760650D02*
X0651000Y0769350D01*
X0651000Y0780650D02*
X0651000Y0789350D01*
X0651000Y0800650D02*
X0651000Y0802810D01*
X0651000Y0818350D02*
X0651000Y0819650D01*
X0651000Y0835190D02*
X0651000Y0839500D01*
X0654000Y0664810D02*
X0654000Y0658768D01*
X0654000Y0680350D02*
X0654000Y0681650D01*
X0654000Y0697189D02*
X0654000Y0708224D01*
X0654000Y0721241D02*
X0654000Y0728974D01*
X0654000Y0741241D02*
X0654000Y0748974D01*
X0654000Y0761241D02*
X0654000Y0768822D01*
X0654000Y0781178D02*
X0654000Y0788974D01*
X0654000Y0801241D02*
X0654000Y0802810D01*
X0654000Y0818350D02*
X0654000Y0819650D01*
X0654000Y0835190D02*
X0654000Y0841232D01*
X0657000Y0664810D02*
X0657000Y0657199D01*
X0657000Y0680350D02*
X0657000Y0681650D01*
X0657000Y0697189D02*
X0657000Y0705224D01*
X0657000Y0721538D02*
X0657000Y0728675D01*
X0657000Y0741538D02*
X0657000Y0748675D01*
X0657000Y0761538D02*
X0657000Y0768567D01*
X0657000Y0781432D02*
X0657000Y0788675D01*
X0657000Y0801538D02*
X0657000Y0802810D01*
X0657000Y0818350D02*
X0657000Y0819650D01*
X0657000Y0835190D02*
X0657000Y0842801D01*
X0660000Y0664810D02*
X0660000Y0656396D01*
X0660000Y0680350D02*
X0660000Y0681650D01*
X0660000Y0697189D02*
X0660000Y0702223D01*
X0660000Y0709776D02*
X0660000Y0710010D01*
X0660000Y0720203D02*
X0660000Y0730010D01*
X0660000Y0740203D02*
X0660000Y0750010D01*
X0660000Y0760203D02*
X0660000Y0770010D01*
X0660000Y0789183D02*
X0660000Y0790010D01*
X0660000Y0800203D02*
X0660000Y0802810D01*
X0660000Y0818350D02*
X0660000Y0819650D01*
X0660000Y0835190D02*
X0660000Y0843604D01*
X0663000Y0664810D02*
X0663000Y0655592D01*
X0663000Y0697189D02*
X0663000Y0699224D01*
X0663000Y0706776D02*
X0663000Y0770656D01*
X0663000Y0792183D02*
X0663000Y0802810D01*
X0663000Y0818350D02*
X0663000Y0819650D01*
X0663000Y0835190D02*
X0663000Y0844408D01*
X0666000Y0664810D02*
X0666000Y0654912D01*
X0666000Y0703776D02*
X0666000Y0767656D01*
X0666000Y0795183D02*
X0666000Y0802810D01*
X0666000Y0818350D02*
X0666000Y0819650D01*
X0666000Y0835190D02*
X0666000Y0845088D01*
X0669000Y0664810D02*
X0669000Y0654716D01*
X0669000Y0704350D02*
X0669000Y0705650D01*
X0669000Y0711169D02*
X0669000Y0719350D01*
X0669000Y0730650D02*
X0669000Y0739350D01*
X0669000Y0750650D02*
X0669000Y0759350D01*
X0669000Y0798182D02*
X0669000Y0802810D01*
X0669000Y0818350D02*
X0669000Y0819650D01*
X0669000Y0835190D02*
X0669000Y0845284D01*
X0672000Y0664810D02*
X0672000Y0654650D01*
X0672000Y0704350D02*
X0672000Y0705650D01*
X0672000Y0711190D02*
X0672000Y0719350D01*
X0672000Y0730650D02*
X0672000Y0739350D01*
X0672000Y0750650D02*
X0672000Y0759350D01*
X0672000Y0790650D02*
X0672000Y0792217D01*
X0672000Y0801183D02*
X0672000Y0802810D01*
X0672000Y0818350D02*
X0672000Y0819650D01*
X0672000Y0835190D02*
X0672000Y0845350D01*
X0675000Y0664810D02*
X0675000Y0654650D01*
X0675000Y0704350D02*
X0675000Y0705650D01*
X0675000Y0711190D02*
X0675000Y0719350D01*
X0675000Y0730650D02*
X0675000Y0739350D01*
X0675000Y0750650D02*
X0675000Y0759350D01*
X0675000Y0790650D02*
X0675000Y0795217D01*
X0675000Y0818350D02*
X0675000Y0819650D01*
X0675000Y0835190D02*
X0675000Y0845350D01*
X0678000Y0665183D02*
X0678000Y0654650D01*
X0678000Y0704350D02*
X0678000Y0705650D01*
X0678000Y0711190D02*
X0678000Y0719350D01*
X0678000Y0730650D02*
X0678000Y0739350D01*
X0678000Y0750650D02*
X0678000Y0759350D01*
X0678000Y0790650D02*
X0678000Y0798216D01*
X0678000Y0818350D02*
X0678000Y0819650D01*
X0678000Y0834817D02*
X0678000Y0845350D01*
X0681000Y0671867D02*
X0681000Y0654650D01*
X0681000Y0704350D02*
X0681000Y0705650D01*
X0681000Y0711190D02*
X0681000Y0719350D01*
X0681000Y0730650D02*
X0681000Y0739350D01*
X0681000Y0750650D02*
X0681000Y0759350D01*
X0681000Y0790650D02*
X0681000Y0801130D01*
X0681000Y0807470D02*
X0681000Y0845350D01*
X0684000Y0671568D02*
X0684000Y0654650D01*
X0684000Y0704350D02*
X0684000Y0705650D01*
X0684000Y0711190D02*
X0684000Y0719350D01*
X0684000Y0730650D02*
X0684000Y0739350D01*
X0684000Y0750650D02*
X0684000Y0759350D01*
X0684000Y0790650D02*
X0684000Y0801130D01*
X0684000Y0807470D02*
X0684000Y0845350D01*
X0687000Y0665904D02*
X0687000Y0654650D01*
X0687000Y0704350D02*
X0687000Y0705650D01*
X0687000Y0711190D02*
X0687000Y0719350D01*
X0687000Y0730650D02*
X0687000Y0739350D01*
X0687000Y0750650D02*
X0687000Y0759350D01*
X0687000Y0791483D02*
X0687000Y0801130D01*
X0687000Y0807470D02*
X0687000Y0845350D01*
X0690000Y0664568D02*
X0690000Y0654650D01*
X0690000Y0704350D02*
X0690000Y0705650D01*
X0690000Y0711169D02*
X0690000Y0719350D01*
X0690000Y0730650D02*
X0690000Y0739350D01*
X0690000Y0750650D02*
X0690000Y0759350D01*
X0690000Y0794483D02*
X0690000Y0801130D01*
X0690000Y0807470D02*
X0690000Y0845350D01*
X0693000Y0664866D02*
X0693000Y0654650D01*
X0693000Y0701670D02*
X0693000Y0720363D01*
X0693000Y0735496D02*
X0693000Y0745004D01*
X0693000Y0753995D02*
X0693000Y0763504D01*
X0693000Y0797483D02*
X0693000Y0801130D01*
X0693000Y0807470D02*
X0693000Y0845350D01*
X0696000Y0666904D02*
X0696000Y0654650D01*
X0696000Y0701670D02*
X0696000Y0717363D01*
X0696000Y0800470D02*
X0696000Y0801130D01*
X0696000Y0807470D02*
X0696000Y0845350D01*
X0699000Y0675224D02*
X0699000Y0654650D01*
X0699000Y0702776D02*
X0699000Y0714363D01*
X0699000Y0724037D02*
X0699000Y0724777D01*
X0699000Y0800470D02*
X0699000Y0801130D01*
X0699000Y0807470D02*
X0699000Y0845350D01*
X0702000Y0678224D02*
X0702000Y0654650D01*
X0702000Y0705776D02*
X0702000Y0711363D01*
X0702000Y0721037D02*
X0702000Y0725849D01*
X0702000Y0773250D02*
X0702000Y0776004D01*
X0702000Y0800470D02*
X0702000Y0801130D01*
X0702000Y0807470D02*
X0702000Y0845350D01*
X0705000Y0665260D02*
X0705000Y0654650D01*
X0705000Y0674740D02*
X0705000Y0681224D01*
X0705000Y0708670D02*
X0705000Y0709780D01*
X0705000Y0718037D02*
X0705000Y0725849D01*
X0705000Y0773250D02*
X0705000Y0779616D01*
X0705000Y0800470D02*
X0705000Y0801130D01*
X0705000Y0807470D02*
X0705000Y0825260D01*
X0705000Y0834740D02*
X0705000Y0845350D01*
X0708000Y0658522D02*
X0708000Y0654650D01*
X0708000Y0681478D02*
X0708000Y0684224D01*
X0708000Y0708670D02*
X0708000Y0709780D01*
X0708000Y0716620D02*
X0708000Y0727103D01*
X0708000Y0771896D02*
X0708000Y0780450D01*
X0708000Y0800470D02*
X0708000Y0801130D01*
X0708000Y0807470D02*
X0708000Y0818522D01*
X0708000Y0841478D02*
X0708000Y0845350D01*
X0711000Y0655425D02*
X0711000Y0654650D01*
X0711000Y0684574D02*
X0711000Y0687223D01*
X0711000Y0708670D02*
X0711000Y0709780D01*
X0711000Y0718500D02*
X0711000Y0718500D01*
X0711000Y0721129D02*
X0711000Y0729002D01*
X0711000Y0764290D02*
X0711000Y0772239D01*
X0711000Y0781525D02*
X0711000Y0782475D01*
X0711000Y0800470D02*
X0711000Y0801130D01*
X0711000Y0807470D02*
X0711000Y0815425D01*
X0711000Y0844574D02*
X0711000Y0845350D01*
X0714000Y0690224D02*
X0714000Y0687276D01*
X0714000Y0708670D02*
X0714000Y0709780D01*
X0714000Y0718500D02*
X0714000Y0718500D01*
X0714000Y0753870D02*
X0714000Y0771560D01*
X0714000Y0781525D02*
X0714000Y0782475D01*
X0714000Y0800470D02*
X0714000Y0801130D01*
X0714000Y0807470D02*
X0714000Y0812724D01*
X0717000Y0691330D02*
X0717000Y0688639D01*
X0717000Y0708670D02*
X0717000Y0709780D01*
X0717000Y0718500D02*
X0717000Y0718500D01*
X0717000Y0753870D02*
X0717000Y0771560D01*
X0717000Y0800470D02*
X0717000Y0801130D01*
X0717000Y0807470D02*
X0717000Y0811361D01*
X0720000Y0691330D02*
X0720000Y0689614D01*
X0720000Y0708670D02*
X0720000Y0709780D01*
X0720000Y0718500D02*
X0720000Y0718500D01*
X0720000Y0753870D02*
X0720000Y0772100D01*
X0720000Y0800470D02*
X0720000Y0801130D01*
X0720000Y0807470D02*
X0720000Y0810386D01*
X0723000Y0691330D02*
X0723000Y0690519D01*
X0723000Y0708670D02*
X0723000Y0709780D01*
X0723000Y0753870D02*
X0723000Y0772100D01*
X0723000Y0800470D02*
X0723000Y0801130D01*
X0723000Y0807470D02*
X0723000Y0809480D01*
X0726000Y0691330D02*
X0726000Y0690205D01*
X0726000Y0708670D02*
X0726000Y0709780D01*
X0726000Y0718500D02*
X0726000Y0718500D01*
X0726000Y0751276D02*
X0726000Y0772100D01*
X0726000Y0800470D02*
X0726000Y0801130D01*
X0726000Y0807470D02*
X0726000Y0809795D01*
X0729000Y0691330D02*
X0729000Y0689890D01*
X0729000Y0708670D02*
X0729000Y0709780D01*
X0729000Y0748276D02*
X0729000Y0769117D01*
X0729000Y0797483D02*
X0729000Y0798516D01*
X0729000Y0807470D02*
X0729000Y0810110D01*
X0732000Y0691330D02*
X0732000Y0689282D01*
X0732000Y0708670D02*
X0732000Y0709780D01*
X0732000Y0747899D02*
X0732000Y0766117D01*
X0732000Y0804483D02*
X0732000Y0810718D01*
X0735000Y0690724D02*
X0735000Y0687550D01*
X0735000Y0708670D02*
X0735000Y0709780D01*
X0735000Y0747899D02*
X0735000Y0763117D01*
X0735000Y0772082D02*
X0735000Y0772100D01*
X0735000Y0801483D02*
X0735000Y0812450D01*
X0738000Y0687724D02*
X0738000Y0685818D01*
X0738000Y0708670D02*
X0738000Y0709780D01*
X0738000Y0747899D02*
X0738000Y0760117D01*
X0738000Y0769083D02*
X0738000Y0769817D01*
X0738000Y0798483D02*
X0738000Y0814182D01*
X0741000Y0657658D02*
X0741000Y0654650D01*
X0741000Y0682342D02*
X0741000Y0684723D01*
X0741000Y0708670D02*
X0741000Y0709780D01*
X0741000Y0726679D02*
X0741000Y0757117D01*
X0741000Y0766083D02*
X0741000Y0766817D01*
X0741000Y0775783D02*
X0741000Y0817658D01*
X0741000Y0842342D02*
X0741000Y0845350D01*
X0744000Y0662236D02*
X0744000Y0654650D01*
X0744000Y0677762D02*
X0744000Y0681724D01*
X0744000Y0708670D02*
X0744000Y0709780D01*
X0744000Y0722099D02*
X0744000Y0754117D01*
X0744000Y0763083D02*
X0744000Y0763817D01*
X0744000Y0772783D02*
X0744000Y0822238D01*
X0744000Y0837762D02*
X0744000Y0845350D01*
X0747000Y0678724D02*
X0747000Y0654650D01*
X0747000Y0706276D02*
X0747000Y0709780D01*
X0747000Y0720900D02*
X0747000Y0722099D01*
X0747000Y0726965D02*
X0747000Y0727817D01*
X0747000Y0760083D02*
X0747000Y0760817D01*
X0747000Y0769783D02*
X0747000Y0845350D01*
X0750000Y0675724D02*
X0750000Y0654650D01*
X0750000Y0703276D02*
X0750000Y0709780D01*
X0750000Y0716620D02*
X0750000Y0719610D01*
X0750000Y0720900D02*
X0750000Y0722099D01*
X0750000Y0723390D02*
X0750000Y0724817D01*
X0750000Y0757082D02*
X0750000Y0757817D01*
X0750000Y0766783D02*
X0750000Y0845350D01*
X0753000Y0668678D02*
X0753000Y0654650D01*
X0753000Y0704461D02*
X0753000Y0709663D01*
X0753000Y0716620D02*
X0753000Y0721817D01*
X0753000Y0754083D02*
X0753000Y0754817D01*
X0753000Y0763783D02*
X0753000Y0845350D01*
X0756000Y0665281D02*
X0756000Y0654650D01*
X0756000Y0705132D02*
X0756000Y0706663D01*
X0756000Y0716337D02*
X0756000Y0718817D01*
X0756000Y0727783D02*
X0756000Y0737017D01*
X0756000Y0760783D02*
X0756000Y0845350D01*
X0759000Y0664568D02*
X0759000Y0654650D01*
X0759000Y0704378D02*
X0759000Y0704780D01*
X0759000Y0724783D02*
X0759000Y0729752D01*
X0759000Y0760248D02*
X0759000Y0769752D01*
X0759000Y0780248D02*
X0759000Y0789183D01*
X0759000Y0794350D02*
X0759000Y0795650D01*
X0759000Y0800817D02*
X0759000Y0845350D01*
X0762000Y0665281D02*
X0762000Y0654650D01*
X0762000Y0696096D02*
X0762000Y0696619D01*
X0762000Y0700781D02*
X0762000Y0704780D01*
X0762000Y0721783D02*
X0762000Y0729350D01*
X0762000Y0740650D02*
X0762000Y0749350D01*
X0762000Y0760650D02*
X0762000Y0769350D01*
X0762000Y0780650D02*
X0762000Y0788810D01*
X0762000Y0794350D02*
X0762000Y0795650D01*
X0762000Y0801190D02*
X0762000Y0845350D01*
X0765000Y0668678D02*
X0765000Y0654650D01*
X0765000Y0698134D02*
X0765000Y0704780D01*
X0765000Y0720650D02*
X0765000Y0729350D01*
X0765000Y0740650D02*
X0765000Y0749350D01*
X0765000Y0760650D02*
X0765000Y0769350D01*
X0765000Y0780650D02*
X0765000Y0788810D01*
X0765000Y0794350D02*
X0765000Y0795650D01*
X0765000Y0801190D02*
X0765000Y0845350D01*
X0768000Y0671568D02*
X0768000Y0654650D01*
X0768000Y0698432D02*
X0768000Y0704780D01*
X0768000Y0720650D02*
X0768000Y0729350D01*
X0768000Y0740650D02*
X0768000Y0749350D01*
X0768000Y0760650D02*
X0768000Y0769350D01*
X0768000Y0780650D02*
X0768000Y0788810D01*
X0768000Y0794350D02*
X0768000Y0795650D01*
X0768000Y0801190D02*
X0768000Y0845350D01*
X0771000Y0665989D02*
X0771000Y0654650D01*
X0771000Y0697096D02*
X0771000Y0704780D01*
X0771000Y0720650D02*
X0771000Y0729350D01*
X0771000Y0740650D02*
X0771000Y0749350D01*
X0771000Y0760650D02*
X0771000Y0769350D01*
X0771000Y0780650D02*
X0771000Y0794350D01*
X0771000Y0795650D02*
X0771000Y0803989D01*
X0771000Y0818350D02*
X0771000Y0819650D01*
X0771000Y0834011D02*
X0771000Y0845350D01*
X0774000Y0664810D02*
X0774000Y0654650D01*
X0774000Y0697189D02*
X0774000Y0704780D01*
X0774000Y0720650D02*
X0774000Y0729350D01*
X0774000Y0740650D02*
X0774000Y0749350D01*
X0774000Y0760650D02*
X0774000Y0769350D01*
X0774000Y0780650D02*
X0774000Y0788810D01*
X0774000Y0794350D02*
X0774000Y0795650D01*
X0774000Y0801190D02*
X0774000Y0802810D01*
X0774000Y0818350D02*
X0774000Y0819650D01*
X0774000Y0835190D02*
X0774000Y0845350D01*
X0777000Y0664810D02*
X0777000Y0654650D01*
X0777000Y0697189D02*
X0777000Y0704780D01*
X0777000Y0720650D02*
X0777000Y0729350D01*
X0777000Y0740650D02*
X0777000Y0749350D01*
X0777000Y0760650D02*
X0777000Y0769350D01*
X0777000Y0780650D02*
X0777000Y0788810D01*
X0777000Y0794350D02*
X0777000Y0795650D01*
X0777000Y0801190D02*
X0777000Y0802810D01*
X0777000Y0818350D02*
X0777000Y0819650D01*
X0777000Y0835190D02*
X0777000Y0845350D01*
X0780000Y0664810D02*
X0780000Y0654650D01*
X0780000Y0697189D02*
X0780000Y0704780D01*
X0780000Y0720650D02*
X0780000Y0729350D01*
X0780000Y0740650D02*
X0780000Y0749350D01*
X0780000Y0760650D02*
X0780000Y0767163D01*
X0780000Y0780650D02*
X0780000Y0788810D01*
X0780000Y0794350D02*
X0780000Y0795650D01*
X0780000Y0801190D02*
X0780000Y0802810D01*
X0780000Y0818350D02*
X0780000Y0819650D01*
X0780000Y0835190D02*
X0780000Y0845350D01*
X0783000Y0664810D02*
X0783000Y0654847D01*
X0783000Y0697189D02*
X0783000Y0704780D01*
X0783000Y0719248D02*
X0783000Y0730752D01*
X0783000Y0739248D02*
X0783000Y0750752D01*
X0783000Y0759248D02*
X0783000Y0764163D01*
X0783000Y0779248D02*
X0783000Y0789989D01*
X0783000Y0794350D02*
X0783000Y0795650D01*
X0783000Y0800010D02*
X0783000Y0802810D01*
X0783000Y0818350D02*
X0783000Y0819650D01*
X0783000Y0835190D02*
X0783000Y0845153D01*
X0786000Y0664810D02*
X0786000Y0655324D01*
X0786000Y0697189D02*
X0786000Y0705763D01*
X0786000Y0770836D02*
X0786000Y0802810D01*
X0786000Y0818350D02*
X0786000Y0819650D01*
X0786000Y0835190D02*
X0786000Y0844676D01*
X0789000Y0664810D02*
X0789000Y0656127D01*
X0789000Y0680350D02*
X0789000Y0681650D01*
X0789000Y0697189D02*
X0789000Y0702677D01*
X0789000Y0707322D02*
X0789000Y0708763D01*
X0789000Y0767837D02*
X0789000Y0782677D01*
X0789000Y0787322D02*
X0789000Y0802810D01*
X0789000Y0818350D02*
X0789000Y0819650D01*
X0789000Y0835190D02*
X0789000Y0843872D01*
X0792000Y0664810D02*
X0792000Y0656931D01*
X0792000Y0680350D02*
X0792000Y0681650D01*
X0792000Y0697189D02*
X0792000Y0699281D01*
X0792000Y0710719D02*
X0792000Y0719281D01*
X0792000Y0770719D02*
X0792000Y0779281D01*
X0792000Y0790719D02*
X0792000Y0802810D01*
X0792000Y0818350D02*
X0792000Y0819650D01*
X0792000Y0835190D02*
X0792000Y0843069D01*
X0795000Y0664810D02*
X0795000Y0658191D01*
X0795000Y0680350D02*
X0795000Y0681650D01*
X0795000Y0697189D02*
X0795000Y0698567D01*
X0795000Y0711432D02*
X0795000Y0718567D01*
X0795000Y0771432D02*
X0795000Y0778567D01*
X0795000Y0791432D02*
X0795000Y0802810D01*
X0795000Y0818350D02*
X0795000Y0819650D01*
X0795000Y0835190D02*
X0795000Y0841809D01*
X0798000Y0664810D02*
X0798000Y0659923D01*
X0798000Y0680350D02*
X0798000Y0681650D01*
X0798000Y0697189D02*
X0798000Y0699281D01*
X0798000Y0710719D02*
X0798000Y0719281D01*
X0798000Y0770719D02*
X0798000Y0779281D01*
X0798000Y0790719D02*
X0798000Y0802810D01*
X0798000Y0818350D02*
X0798000Y0819650D01*
X0798000Y0835190D02*
X0798000Y0840077D01*
X0801000Y0664810D02*
X0801000Y0661655D01*
X0801000Y0680350D02*
X0801000Y0681650D01*
X0801000Y0697189D02*
X0801000Y0699350D01*
X0801000Y0710650D02*
X0801000Y0719350D01*
X0801000Y0770650D02*
X0801000Y0779350D01*
X0801000Y0790650D02*
X0801000Y0802810D01*
X0801000Y0818350D02*
X0801000Y0819650D01*
X0801000Y0835190D02*
X0801000Y0838344D01*
X0804000Y0665183D02*
X0804000Y0664435D01*
X0804000Y0680350D02*
X0804000Y0681650D01*
X0804000Y0696817D02*
X0804000Y0699350D01*
X0804000Y0710650D02*
X0804000Y0719350D01*
X0804000Y0770650D02*
X0804000Y0779350D01*
X0804000Y0790650D02*
X0804000Y0803182D01*
X0804000Y0818350D02*
X0804000Y0819650D01*
X0804000Y0834817D02*
X0804000Y0835565D01*
X0807000Y0699350D02*
X0807000Y0667435D01*
X0807000Y0710650D02*
X0807000Y0719350D01*
X0807000Y0770650D02*
X0807000Y0779350D01*
X0807000Y0790650D02*
X0807000Y0832565D01*
X0810000Y0699350D02*
X0810000Y0671866D01*
X0810000Y0710650D02*
X0810000Y0719350D01*
X0810000Y0770650D02*
X0810000Y0779350D01*
X0810000Y0790650D02*
X0810000Y0828134D01*
X0813000Y0699350D02*
X0813000Y0677744D01*
X0813000Y0710650D02*
X0813000Y0719350D01*
X0813000Y0770650D02*
X0813000Y0779350D01*
X0813000Y0790650D02*
X0813000Y0822256D01*
D18*
X0725000Y0760000D03*
X0736000Y0752000D03*
X0715000Y0770000D03*
X0642500Y0675000D03*
X0642500Y0683500D03*
X0642500Y0692000D03*
X0807500Y0683500D03*
X0807500Y0692000D03*
X0807500Y0675000D03*
X0807500Y0820000D03*
X0807500Y0810000D03*
X0785000Y0840000D03*
X0642500Y0810000D03*
X0661500Y0840000D03*
X0642500Y0820000D03*
X0706500Y0722500D03*
X0683700Y0795900D03*
X0742899Y0730800D03*
X0678500Y0714500D03*
X0687500Y0714500D03*
X0770500Y0785500D03*
X0696000Y0706000D03*
X0754000Y0795000D03*
X0762000Y0785500D03*
D19*
X0705525Y0785600D02*
X0696786Y0775079D01*
X0696786Y0768100D01*
X0696786Y0749600D01*
X0696885Y0749500D01*
X0696885Y0731000D01*
X0696986Y0730900D01*
X0696986Y0727600D01*
X0694385Y0725000D01*
X0679500Y0725000D01*
X0680500Y0724000D02*
X0694200Y0724000D01*
X0680500Y0724000D02*
X0679500Y0725000D01*
X0694200Y0724000D02*
X0705000Y0713199D01*
X0734774Y0721200D02*
X0735074Y0721500D01*
X0734750Y0721825D02*
X0734750Y0738000D01*
X0734750Y0721825D02*
X0735074Y0721500D01*
X0759300Y0708199D02*
X0783600Y0708199D01*
X0786600Y0711200D01*
X0786600Y0765399D01*
X0776700Y0775300D01*
X0770800Y0775300D01*
X0770500Y0775000D01*
X0735000Y0713199D02*
X0705000Y0713199D01*
X0735000Y0713199D02*
X0754300Y0713199D01*
X0759300Y0708199D01*
X0735074Y0713275D02*
X0735074Y0721500D01*
X0735074Y0713275D02*
X0735000Y0713199D01*
D13*
X0679500Y0765000D02*
X0673139Y0765000D01*
X0663139Y0775000D01*
X0663139Y0787839D01*
X0679599Y0804300D01*
X0727700Y0804300D01*
X0735000Y0797000D01*
X0735000Y0782250D01*
X0734750Y0782000D01*
X0734750Y0777550D01*
X0756700Y0755600D02*
X0756700Y0740800D01*
X0762500Y0735000D02*
X0770500Y0735000D01*
X0762500Y0735000D02*
X0756700Y0740800D01*
X0756700Y0755600D02*
X0734750Y0777550D01*
X0724700Y0797300D02*
X0697300Y0797300D01*
X0685000Y0785000D02*
X0679500Y0785000D01*
X0685000Y0785000D02*
X0697300Y0797300D01*
X0728250Y0793750D02*
X0728250Y0782000D01*
X0728250Y0793750D02*
X0724700Y0797300D01*
X0728250Y0782000D02*
X0728250Y0774350D01*
X0750000Y0752600D02*
X0750000Y0729300D01*
X0764300Y0715000D01*
X0770500Y0715000D01*
X0750000Y0752600D02*
X0728250Y0774350D01*
D16*
X0721750Y0782000D02*
X0721750Y0790980D01*
X0719000Y0793730D01*
X0686775Y0775000D02*
X0678000Y0775000D01*
D18*
X0678000Y0775000D03*
D16*
X0696275Y0785600D02*
X0704405Y0793730D01*
X0719000Y0793730D01*
X0696275Y0784500D02*
X0686775Y0775000D01*
X0696275Y0784500D02*
X0696275Y0785600D01*
D19*
X0655893Y0775000D02*
X0644500Y0775000D01*
D18*
X0655893Y0775000D03*
X0795000Y0725000D03*
D16*
X0805500Y0725000D01*
D18*
X0683000Y0678000D03*
X0767000Y0678000D03*
D16*
X0683032Y0677968D02*
X0683000Y0678000D01*
X0683032Y0677968D02*
X0693206Y0677968D01*
X0712238Y0697000D01*
X0737500Y0697000D01*
X0756500Y0678000D02*
X0767000Y0678000D01*
X0756500Y0678000D02*
X0737500Y0697000D01*
D19*
X0656000Y0755107D02*
X0644509Y0755009D01*
X0644500Y0755000D01*
D18*
X0656000Y0755107D03*
X0795000Y0745000D03*
D16*
X0805500Y0745000D01*
D18*
X0691000Y0685000D03*
X0759000Y0685000D03*
D16*
X0695320Y0685000D02*
X0691000Y0685000D01*
X0695320Y0685000D02*
X0710320Y0700000D01*
X0739548Y0700000D01*
X0754548Y0685000D02*
X0759000Y0685000D01*
X0754548Y0685000D02*
X0739548Y0700000D01*
D19*
X0656000Y0735107D02*
X0644509Y0735009D01*
X0644500Y0735000D01*
D18*
X0656000Y0735107D03*
X0795000Y0765000D03*
D16*
X0805500Y0765000D01*
D18*
X0683000Y0692000D03*
X0767000Y0692000D03*
D16*
X0697000Y0692000D02*
X0683000Y0692000D01*
X0697000Y0692000D02*
X0708000Y0703000D01*
X0741500Y0703000D01*
X0752500Y0692000D02*
X0767000Y0692000D01*
X0752500Y0692000D02*
X0741500Y0703000D01*
D19*
X0644509Y0715009D02*
X0644500Y0715000D01*
X0644509Y0715009D02*
X0656000Y0715107D01*
D18*
X0656000Y0715107D03*
X0795000Y0785000D03*
D16*
X0805500Y0785000D01*
X0651000Y0715000D02*
X0644500Y0715000D01*
D18*
X0755900Y0698700D03*
D16*
X0667000Y0699000D02*
X0651000Y0715000D01*
X0667000Y0699000D02*
X0699000Y0699000D01*
X0706000Y0706000D01*
X0743500Y0706000D01*
X0750800Y0698700D02*
X0755900Y0698700D01*
X0750800Y0698700D02*
X0743500Y0706000D01*
D19*
X0656000Y0795107D02*
X0644500Y0795000D01*
D18*
X0656000Y0795107D03*
X0795000Y0705000D03*
D16*
X0805500Y0705000D01*
D18*
X0691000Y0671000D03*
X0759000Y0671000D03*
D16*
X0714000Y0694000D02*
X0691000Y0671000D01*
X0714000Y0694000D02*
X0735500Y0694000D01*
X0758500Y0671000D02*
X0759000Y0671000D01*
X0758500Y0671000D02*
X0735500Y0694000D01*
M02*