G04 EAGLE Gerber RS-274X export*
G75*
%MOMM*%
%FSLAX34Y34*%
%LPD*%
%INSilk screen*%
%IPPOS*%
%AMOC8*
5,1,8,0,0,$1,22.5*%
G01*
%ADD10C,0.127*%
%ADD11C,0.1524*%
%ADD12C,0.2*%
%ADD13C,0.0762*%
%ADD14C,0.15*%
G36*
X0705982Y0782935D02*
X0705982Y0782935D01*
X0705984Y0782934D01*
X0706027Y0782954D01*
X0706071Y0782972D01*
X0706071Y0782974D01*
X0706073Y0782975D01*
X0706106Y0783060D01*
X0706106Y0788139D01*
X0706105Y0788142D01*
X0706106Y0788144D01*
X0706086Y0788187D01*
X0706067Y0788231D01*
X0706066Y0788231D01*
X0706065Y0788233D01*
X0705980Y0788266D01*
X0695819Y0788266D01*
X0695818Y0788265D01*
X0695816Y0788266D01*
X0695772Y0788246D01*
X0695729Y0788228D01*
X0695729Y0788226D01*
X0695727Y0788225D01*
X0695694Y0788139D01*
X0695694Y0783060D01*
X0695695Y0783058D01*
X0695694Y0783056D01*
X0695714Y0783013D01*
X0695732Y0782968D01*
X0695734Y0782968D01*
X0695735Y0782967D01*
X0695819Y0782934D01*
X0705980Y0782934D01*
X0705982Y0782935D01*
G37*
G36*
X0744782Y0718835D02*
X0744782Y0718835D01*
X0744783Y0718834D01*
X0744826Y0718854D01*
X0744871Y0718872D01*
X0744871Y0718874D01*
X0744873Y0718875D01*
X0744906Y0718960D01*
X0744906Y0724040D01*
X0744905Y0724042D01*
X0744906Y0724044D01*
X0744886Y0724087D01*
X0744868Y0724131D01*
X0744866Y0724131D01*
X0744865Y0724132D01*
X0744780Y0724166D01*
X0734620Y0724166D01*
X0734618Y0724165D01*
X0734616Y0724166D01*
X0734573Y0724146D01*
X0734529Y0724128D01*
X0734529Y0724126D01*
X0734526Y0724125D01*
X0734494Y0724040D01*
X0734494Y0718960D01*
X0734495Y0718957D01*
X0734494Y0718956D01*
X0734514Y0718913D01*
X0734532Y0718869D01*
X0734534Y0718869D01*
X0734535Y0718867D01*
X0734620Y0718834D01*
X0744780Y0718834D01*
X0744782Y0718835D01*
G37*
G36*
X0743154Y0777536D02*
X0743154Y0777536D01*
X0743160Y0777543D01*
X0743165Y0777540D01*
X0743769Y0777788D01*
X0743774Y0777798D01*
X0743780Y0777796D01*
X0744298Y0778193D01*
X0744300Y0778202D01*
X0744307Y0778202D01*
X0744704Y0778720D01*
X0744704Y0778730D01*
X0744711Y0778730D01*
X0744960Y0779334D01*
X0744958Y0779343D01*
X0744964Y0779346D01*
X0745048Y0779994D01*
X0745044Y0780002D01*
X0745048Y0780006D01*
X0744964Y0780654D01*
X0744957Y0780660D01*
X0744960Y0780665D01*
X0744711Y0781269D01*
X0744702Y0781274D01*
X0744704Y0781280D01*
X0744307Y0781798D01*
X0744298Y0781800D01*
X0744298Y0781807D01*
X0743780Y0782204D01*
X0743771Y0782204D01*
X0743769Y0782211D01*
X0743165Y0782460D01*
X0743156Y0782458D01*
X0743154Y0782464D01*
X0742506Y0782548D01*
X0742497Y0782544D01*
X0742494Y0782548D01*
X0741846Y0782464D01*
X0741840Y0782457D01*
X0741834Y0782460D01*
X0741230Y0782211D01*
X0741226Y0782202D01*
X0741220Y0782204D01*
X0740702Y0781807D01*
X0740699Y0781798D01*
X0740693Y0781798D01*
X0740296Y0781280D01*
X0740296Y0781271D01*
X0740288Y0781269D01*
X0740040Y0780665D01*
X0740040Y0780665D01*
X0740042Y0780656D01*
X0740036Y0780654D01*
X0739951Y0780006D01*
X0739956Y0779997D01*
X0739951Y0779994D01*
X0740036Y0779346D01*
X0740043Y0779340D01*
X0740040Y0779334D01*
X0740288Y0778730D01*
X0740298Y0778726D01*
X0740296Y0778720D01*
X0740693Y0778202D01*
X0740702Y0778199D01*
X0740702Y0778193D01*
X0741220Y0777796D01*
X0741230Y0777796D01*
X0741230Y0777788D01*
X0741834Y0777540D01*
X0741843Y0777542D01*
X0741846Y0777536D01*
X0742494Y0777451D01*
X0742502Y0777456D01*
X0742506Y0777451D01*
X0743154Y0777536D01*
G37*
D10*
X0694344Y0773635D02*
X0696587Y0780365D01*
X0698830Y0773635D01*
X0698269Y0775318D02*
X0694903Y0775318D01*
X0701918Y0777000D02*
X0701920Y0777148D01*
X0701926Y0777296D01*
X0701936Y0777443D01*
X0701949Y0777591D01*
X0701966Y0777738D01*
X0701989Y0777884D01*
X0702014Y0778030D01*
X0702043Y0778175D01*
X0702077Y0778319D01*
X0702114Y0778462D01*
X0702155Y0778604D01*
X0702200Y0778746D01*
X0702248Y0778884D01*
X0702300Y0779024D01*
X0702356Y0779161D01*
X0702416Y0779295D01*
X0702479Y0779430D01*
X0702479Y0779431D02*
X0702504Y0779498D01*
X0702531Y0779563D01*
X0702564Y0779627D01*
X0702599Y0779689D01*
X0702637Y0779750D01*
X0702677Y0779808D01*
X0702722Y0779865D01*
X0702769Y0779918D01*
X0702819Y0779970D01*
X0702871Y0780018D01*
X0702925Y0780064D01*
X0702983Y0780107D01*
X0703042Y0780147D01*
X0703104Y0780184D01*
X0703167Y0780218D01*
X0703231Y0780248D01*
X0703297Y0780275D01*
X0703365Y0780299D01*
X0703434Y0780319D01*
X0703503Y0780336D01*
X0703573Y0780348D01*
X0703644Y0780358D01*
X0703716Y0780363D01*
X0703787Y0780365D01*
X0703858Y0780363D01*
X0703930Y0780358D01*
X0704001Y0780348D01*
X0704071Y0780336D01*
X0704140Y0780319D01*
X0704209Y0780299D01*
X0704277Y0780275D01*
X0704343Y0780248D01*
X0704406Y0780218D01*
X0704470Y0780184D01*
X0704532Y0780147D01*
X0704591Y0780107D01*
X0704648Y0780064D01*
X0704703Y0780018D01*
X0704755Y0779970D01*
X0704805Y0779918D01*
X0704852Y0779865D01*
X0704896Y0779808D01*
X0704937Y0779750D01*
X0704975Y0779689D01*
X0705010Y0779627D01*
X0705042Y0779563D01*
X0705070Y0779497D01*
X0705095Y0779430D01*
X0705096Y0779430D02*
X0705159Y0779295D01*
X0705219Y0779161D01*
X0705275Y0779024D01*
X0705327Y0778884D01*
X0705375Y0778746D01*
X0705420Y0778605D01*
X0705461Y0778462D01*
X0705498Y0778319D01*
X0705531Y0778175D01*
X0705561Y0778030D01*
X0705586Y0777884D01*
X0705608Y0777738D01*
X0705625Y0777591D01*
X0705639Y0777443D01*
X0705649Y0777296D01*
X0705655Y0777148D01*
X0705656Y0777000D01*
X0701918Y0777000D02*
X0701920Y0776852D01*
X0701926Y0776704D01*
X0701936Y0776557D01*
X0701949Y0776409D01*
X0701966Y0776262D01*
X0701989Y0776116D01*
X0702014Y0775970D01*
X0702043Y0775825D01*
X0702077Y0775681D01*
X0702114Y0775538D01*
X0702155Y0775396D01*
X0702200Y0775254D01*
X0702248Y0775115D01*
X0702300Y0774976D01*
X0702356Y0774839D01*
X0702416Y0774704D01*
X0702479Y0774569D01*
X0702479Y0774569D02*
X0702504Y0774502D01*
X0702531Y0774437D01*
X0702564Y0774372D01*
X0702599Y0774310D01*
X0702637Y0774250D01*
X0702677Y0774192D01*
X0702722Y0774135D01*
X0702769Y0774081D01*
X0702819Y0774030D01*
X0702871Y0773982D01*
X0702925Y0773935D01*
X0702983Y0773893D01*
X0703042Y0773853D01*
X0703104Y0773816D01*
X0703167Y0773781D01*
X0703231Y0773752D01*
X0703297Y0773725D01*
X0703365Y0773701D01*
X0703434Y0773681D01*
X0703503Y0773664D01*
X0703573Y0773652D01*
X0703644Y0773642D01*
X0703716Y0773637D01*
X0703787Y0773635D01*
X0705095Y0774569D02*
X0705158Y0774704D01*
X0705218Y0774839D01*
X0705274Y0774976D01*
X0705326Y0775115D01*
X0705374Y0775254D01*
X0705419Y0775395D01*
X0705460Y0775538D01*
X0705497Y0775681D01*
X0705530Y0775825D01*
X0705560Y0775970D01*
X0705585Y0776116D01*
X0705607Y0776262D01*
X0705624Y0776409D01*
X0705638Y0776557D01*
X0705648Y0776704D01*
X0705654Y0776852D01*
X0705656Y0777000D01*
X0705095Y0774569D02*
X0705070Y0774502D01*
X0705042Y0774437D01*
X0705010Y0774372D01*
X0704975Y0774310D01*
X0704937Y0774250D01*
X0704896Y0774192D01*
X0704852Y0774135D01*
X0704805Y0774081D01*
X0704755Y0774030D01*
X0704703Y0773982D01*
X0704648Y0773935D01*
X0704591Y0773893D01*
X0704532Y0773853D01*
X0704470Y0773816D01*
X0704406Y0773781D01*
X0704343Y0773752D01*
X0704277Y0773725D01*
X0704209Y0773701D01*
X0704140Y0773681D01*
X0704071Y0773664D01*
X0704001Y0773652D01*
X0703930Y0773642D01*
X0703858Y0773637D01*
X0703787Y0773635D01*
X0702291Y0775131D02*
X0705283Y0778869D01*
X0697086Y0761865D02*
X0694843Y0755134D01*
X0699329Y0755134D02*
X0697086Y0761865D01*
X0698769Y0756818D02*
X0695404Y0756818D01*
X0702418Y0760369D02*
X0704287Y0761865D01*
X0704287Y0755134D01*
X0702418Y0755134D02*
X0706156Y0755134D01*
X0696587Y0743365D02*
X0694344Y0736635D01*
X0698830Y0736635D02*
X0696587Y0743365D01*
X0698269Y0738318D02*
X0694903Y0738318D01*
X0703974Y0743366D02*
X0704054Y0743364D01*
X0704134Y0743358D01*
X0704214Y0743349D01*
X0704293Y0743336D01*
X0704371Y0743319D01*
X0704448Y0743298D01*
X0704524Y0743272D01*
X0704599Y0743245D01*
X0704673Y0743214D01*
X0704745Y0743179D01*
X0704816Y0743141D01*
X0704884Y0743099D01*
X0704950Y0743054D01*
X0705014Y0743006D01*
X0705076Y0742955D01*
X0705134Y0742901D01*
X0705192Y0742844D01*
X0705246Y0742784D01*
X0705297Y0742723D01*
X0705345Y0742659D01*
X0705390Y0742593D01*
X0705432Y0742525D01*
X0705470Y0742454D01*
X0705505Y0742382D01*
X0705536Y0742309D01*
X0705564Y0742233D01*
X0705589Y0742157D01*
X0705610Y0742080D01*
X0705627Y0742002D01*
X0705639Y0741923D01*
X0705649Y0741843D01*
X0705655Y0741763D01*
X0705656Y0741683D01*
X0703974Y0743365D02*
X0703883Y0743363D01*
X0703793Y0743357D01*
X0703703Y0743348D01*
X0703613Y0743335D01*
X0703524Y0743318D01*
X0703436Y0743297D01*
X0703349Y0743272D01*
X0703262Y0743245D01*
X0703178Y0743213D01*
X0703094Y0743178D01*
X0703012Y0743139D01*
X0702932Y0743096D01*
X0702853Y0743052D01*
X0702777Y0743002D01*
X0702702Y0742951D01*
X0702630Y0742897D01*
X0702560Y0742839D01*
X0702493Y0742778D01*
X0702428Y0742715D01*
X0702366Y0742649D01*
X0702307Y0742580D01*
X0702251Y0742509D01*
X0702198Y0742436D01*
X0702148Y0742360D01*
X0702101Y0742282D01*
X0702057Y0742203D01*
X0702017Y0742122D01*
X0701980Y0742039D01*
X0701947Y0741955D01*
X0701917Y0741869D01*
X0705095Y0740374D02*
X0705153Y0740432D01*
X0705207Y0740492D01*
X0705260Y0740554D01*
X0705309Y0740619D01*
X0705356Y0740685D01*
X0705399Y0740754D01*
X0705438Y0740825D01*
X0705476Y0740896D01*
X0705510Y0740971D01*
X0705540Y0741046D01*
X0705567Y0741123D01*
X0705591Y0741201D01*
X0705610Y0741280D01*
X0705627Y0741360D01*
X0705639Y0741440D01*
X0705649Y0741521D01*
X0705654Y0741602D01*
X0705656Y0741683D01*
X0705096Y0740374D02*
X0701918Y0736635D01*
X0705656Y0736635D01*
D11*
X0655320Y0663438D02*
X0653161Y0656962D01*
X0657479Y0656962D02*
X0655320Y0663438D01*
X0656939Y0658580D02*
X0653700Y0658580D01*
X0660180Y0657322D02*
X0660180Y0656962D01*
X0660180Y0657322D02*
X0660540Y0657322D01*
X0660540Y0656962D01*
X0660180Y0656962D01*
X0664848Y0658401D02*
X0664848Y0663438D01*
X0664848Y0658401D02*
X0664846Y0658328D01*
X0664841Y0658255D01*
X0664830Y0658182D01*
X0664819Y0658111D01*
X0664802Y0658040D01*
X0664782Y0657970D01*
X0664758Y0657901D01*
X0664731Y0657834D01*
X0664701Y0657767D01*
X0664667Y0657703D01*
X0664629Y0657640D01*
X0664590Y0657579D01*
X0664547Y0657520D01*
X0664501Y0657464D01*
X0664452Y0657410D01*
X0664400Y0657358D01*
X0664346Y0657309D01*
X0664290Y0657263D01*
X0664231Y0657220D01*
X0664170Y0657180D01*
X0664107Y0657143D01*
X0664043Y0657109D01*
X0663976Y0657079D01*
X0663909Y0657052D01*
X0663840Y0657028D01*
X0663770Y0657008D01*
X0663699Y0656991D01*
X0663627Y0656979D01*
X0663555Y0656969D01*
X0663482Y0656964D01*
X0663409Y0656962D01*
X0662690Y0656962D01*
X0668905Y0656962D02*
X0671783Y0656962D01*
X0668905Y0656962D02*
X0668905Y0663438D01*
X0671783Y0663438D01*
X0671063Y0660560D02*
X0668905Y0660560D01*
X0675121Y0663438D02*
X0675121Y0656962D01*
X0678719Y0656962D02*
X0675121Y0663438D01*
X0678719Y0663438D02*
X0678719Y0656962D01*
X0682825Y0656962D02*
X0685703Y0656962D01*
X0682825Y0656962D02*
X0682825Y0663438D01*
X0685703Y0663438D01*
X0684984Y0660560D02*
X0682825Y0660560D01*
X0689119Y0663438D02*
X0689119Y0656962D01*
X0689119Y0663438D02*
X0690918Y0663438D01*
X0691001Y0663436D01*
X0691084Y0663430D01*
X0691167Y0663421D01*
X0691249Y0663407D01*
X0691330Y0663390D01*
X0691410Y0663369D01*
X0691490Y0663345D01*
X0691568Y0663317D01*
X0691645Y0663285D01*
X0691720Y0663249D01*
X0691793Y0663211D01*
X0691865Y0663169D01*
X0691935Y0663122D01*
X0692002Y0663075D01*
X0692067Y0663023D01*
X0692129Y0662968D01*
X0692189Y0662911D01*
X0692247Y0662851D01*
X0692302Y0662788D01*
X0692354Y0662723D01*
X0692402Y0662656D01*
X0692448Y0662586D01*
X0692490Y0662514D01*
X0692527Y0662441D01*
X0692564Y0662366D01*
X0692596Y0662289D01*
X0692624Y0662211D01*
X0692647Y0662131D01*
X0692668Y0662051D01*
X0692686Y0661970D01*
X0692700Y0661888D01*
X0692709Y0661805D01*
X0692715Y0661722D01*
X0692717Y0661639D01*
X0692715Y0661556D01*
X0692709Y0661473D01*
X0692700Y0661390D01*
X0692686Y0661307D01*
X0692668Y0661227D01*
X0692647Y0661147D01*
X0692624Y0661067D01*
X0692596Y0660989D01*
X0692564Y0660912D01*
X0692527Y0660836D01*
X0692490Y0660764D01*
X0692448Y0660692D01*
X0692402Y0660622D01*
X0692354Y0660555D01*
X0692302Y0660490D01*
X0692247Y0660427D01*
X0692189Y0660367D01*
X0692129Y0660310D01*
X0692067Y0660254D01*
X0692002Y0660203D01*
X0691935Y0660155D01*
X0691865Y0660109D01*
X0691793Y0660067D01*
X0691720Y0660029D01*
X0691645Y0659993D01*
X0691568Y0659961D01*
X0691490Y0659933D01*
X0691410Y0659909D01*
X0691330Y0659888D01*
X0691249Y0659871D01*
X0691167Y0659857D01*
X0691084Y0659848D01*
X0691001Y0659842D01*
X0690918Y0659840D01*
X0689119Y0659840D01*
X0691277Y0659840D02*
X0692717Y0656962D01*
X0697560Y0656962D02*
X0697560Y0663438D01*
X0695761Y0663438D02*
X0699359Y0663438D01*
X0704400Y0656962D02*
X0704475Y0656964D01*
X0704550Y0656970D01*
X0704625Y0656979D01*
X0704699Y0656992D01*
X0704772Y0657011D01*
X0704845Y0657032D01*
X0704916Y0657058D01*
X0704985Y0657086D01*
X0705053Y0657119D01*
X0705120Y0657155D01*
X0705184Y0657193D01*
X0705246Y0657236D01*
X0705305Y0657283D01*
X0705363Y0657332D01*
X0705418Y0657383D01*
X0705468Y0657437D01*
X0705518Y0657495D01*
X0705564Y0657555D01*
X0705607Y0657617D01*
X0705646Y0657681D01*
X0705682Y0657748D01*
X0705715Y0657816D01*
X0705742Y0657885D01*
X0705769Y0657955D01*
X0705789Y0658028D01*
X0705808Y0658102D01*
X0705821Y0658176D01*
X0705831Y0658251D01*
X0705836Y0658326D01*
X0705839Y0658401D01*
X0704400Y0656962D02*
X0704291Y0656964D01*
X0704182Y0656970D01*
X0704073Y0656979D01*
X0703965Y0656992D01*
X0703857Y0657011D01*
X0703750Y0657032D01*
X0703644Y0657056D01*
X0703539Y0657086D01*
X0703435Y0657119D01*
X0703332Y0657156D01*
X0703231Y0657196D01*
X0703131Y0657240D01*
X0703033Y0657287D01*
X0702936Y0657338D01*
X0702841Y0657392D01*
X0702749Y0657450D01*
X0702658Y0657510D01*
X0702570Y0657574D01*
X0702484Y0657642D01*
X0702400Y0657711D01*
X0702320Y0657784D01*
X0702240Y0657861D01*
X0702420Y0661999D02*
X0702423Y0662074D01*
X0702429Y0662149D01*
X0702439Y0662223D01*
X0702452Y0662298D01*
X0702470Y0662371D01*
X0702491Y0662444D01*
X0702517Y0662514D01*
X0702545Y0662584D01*
X0702578Y0662651D01*
X0702614Y0662719D01*
X0702653Y0662783D01*
X0702696Y0662845D01*
X0702742Y0662905D01*
X0702791Y0662962D01*
X0702842Y0663017D01*
X0702897Y0663068D01*
X0702954Y0663117D01*
X0703014Y0663163D01*
X0703075Y0663206D01*
X0703141Y0663245D01*
X0703207Y0663281D01*
X0703275Y0663314D01*
X0703344Y0663342D01*
X0703415Y0663368D01*
X0703488Y0663389D01*
X0703561Y0663407D01*
X0703635Y0663420D01*
X0703710Y0663430D01*
X0703785Y0663436D01*
X0703860Y0663438D01*
X0703961Y0663436D01*
X0704064Y0663430D01*
X0704166Y0663421D01*
X0704267Y0663407D01*
X0704368Y0663390D01*
X0704468Y0663369D01*
X0704567Y0663344D01*
X0704665Y0663315D01*
X0704762Y0663283D01*
X0704857Y0663247D01*
X0704950Y0663207D01*
X0705044Y0663164D01*
X0705134Y0663118D01*
X0705224Y0663068D01*
X0705311Y0663015D01*
X0705396Y0662958D01*
X0705479Y0662898D01*
X0703139Y0660739D02*
X0703075Y0660780D01*
X0703013Y0660823D01*
X0702953Y0660870D01*
X0702896Y0660920D01*
X0702841Y0660972D01*
X0702788Y0661028D01*
X0702740Y0661086D01*
X0702694Y0661146D01*
X0702651Y0661209D01*
X0702613Y0661274D01*
X0702577Y0661340D01*
X0702544Y0661409D01*
X0702514Y0661478D01*
X0702490Y0661551D01*
X0702469Y0661624D01*
X0702450Y0661698D01*
X0702437Y0661772D01*
X0702428Y0661847D01*
X0702422Y0661923D01*
X0702420Y0661999D01*
X0705119Y0659661D02*
X0705184Y0659620D01*
X0705246Y0659577D01*
X0705305Y0659530D01*
X0705363Y0659479D01*
X0705418Y0659428D01*
X0705470Y0659372D01*
X0705519Y0659314D01*
X0705564Y0659254D01*
X0705607Y0659191D01*
X0705646Y0659126D01*
X0705682Y0659060D01*
X0705715Y0658991D01*
X0705744Y0658921D01*
X0705769Y0658849D01*
X0705789Y0658776D01*
X0705808Y0658702D01*
X0705821Y0658627D01*
X0705831Y0658553D01*
X0705836Y0658477D01*
X0705839Y0658401D01*
X0705119Y0659659D02*
X0703139Y0660740D01*
X0745401Y0661538D02*
X0745401Y0658661D01*
X0745401Y0661538D02*
X0745403Y0661622D01*
X0745408Y0661705D01*
X0745418Y0661788D01*
X0745432Y0661870D01*
X0745449Y0661951D01*
X0745470Y0662031D01*
X0745494Y0662111D01*
X0745522Y0662189D01*
X0745554Y0662266D01*
X0745590Y0662341D01*
X0745628Y0662414D01*
X0745670Y0662486D01*
X0745716Y0662556D01*
X0745764Y0662623D01*
X0745816Y0662688D01*
X0745870Y0662751D01*
X0745928Y0662811D01*
X0745988Y0662868D01*
X0746050Y0662923D01*
X0746116Y0662975D01*
X0746183Y0663023D01*
X0746253Y0663069D01*
X0746324Y0663111D01*
X0746397Y0663149D01*
X0746473Y0663185D01*
X0746550Y0663217D01*
X0746628Y0663245D01*
X0746708Y0663269D01*
X0746788Y0663289D01*
X0746869Y0663306D01*
X0746951Y0663321D01*
X0747034Y0663330D01*
X0747117Y0663336D01*
X0747200Y0663338D01*
X0747283Y0663336D01*
X0747366Y0663330D01*
X0747449Y0663321D01*
X0747531Y0663306D01*
X0747612Y0663289D01*
X0747692Y0663269D01*
X0747771Y0663245D01*
X0747850Y0663217D01*
X0747927Y0663185D01*
X0748002Y0663149D01*
X0748075Y0663111D01*
X0748147Y0663069D01*
X0748216Y0663023D01*
X0748284Y0662975D01*
X0748349Y0662923D01*
X0748412Y0662868D01*
X0748472Y0662811D01*
X0748529Y0662751D01*
X0748584Y0662688D01*
X0748636Y0662623D01*
X0748683Y0662556D01*
X0748730Y0662486D01*
X0748772Y0662414D01*
X0748810Y0662341D01*
X0748846Y0662266D01*
X0748878Y0662189D01*
X0748906Y0662111D01*
X0748930Y0662031D01*
X0748951Y0661951D01*
X0748968Y0661870D01*
X0748982Y0661788D01*
X0748991Y0661705D01*
X0748997Y0661622D01*
X0748999Y0661538D01*
X0748999Y0658661D01*
X0748997Y0658578D01*
X0748991Y0658495D01*
X0748982Y0658412D01*
X0748968Y0658330D01*
X0748951Y0658249D01*
X0748930Y0658169D01*
X0748906Y0658089D01*
X0748878Y0658011D01*
X0748846Y0657934D01*
X0748810Y0657859D01*
X0748772Y0657786D01*
X0748730Y0657714D01*
X0748683Y0657644D01*
X0748636Y0657577D01*
X0748584Y0657512D01*
X0748529Y0657449D01*
X0748472Y0657389D01*
X0748412Y0657332D01*
X0748349Y0657277D01*
X0748284Y0657225D01*
X0748216Y0657176D01*
X0748147Y0657131D01*
X0748075Y0657089D01*
X0748002Y0657051D01*
X0747927Y0657015D01*
X0747850Y0656983D01*
X0747771Y0656955D01*
X0747692Y0656931D01*
X0747612Y0656910D01*
X0747531Y0656893D01*
X0747449Y0656879D01*
X0747366Y0656870D01*
X0747283Y0656864D01*
X0747200Y0656862D01*
X0747117Y0656864D01*
X0747034Y0656870D01*
X0746951Y0656879D01*
X0746869Y0656893D01*
X0746788Y0656910D01*
X0746708Y0656931D01*
X0746628Y0656955D01*
X0746550Y0656983D01*
X0746473Y0657015D01*
X0746397Y0657051D01*
X0746324Y0657089D01*
X0746253Y0657131D01*
X0746183Y0657176D01*
X0746116Y0657225D01*
X0746050Y0657277D01*
X0745988Y0657332D01*
X0745928Y0657389D01*
X0745870Y0657449D01*
X0745816Y0657512D01*
X0745764Y0657577D01*
X0745716Y0657644D01*
X0745670Y0657714D01*
X0745628Y0657786D01*
X0745590Y0657859D01*
X0745554Y0657934D01*
X0745522Y0658011D01*
X0745494Y0658089D01*
X0745470Y0658169D01*
X0745449Y0658249D01*
X0745432Y0658330D01*
X0745418Y0658412D01*
X0745408Y0658495D01*
X0745403Y0658578D01*
X0745401Y0658661D01*
X0753574Y0656862D02*
X0755014Y0656862D01*
X0753574Y0656862D02*
X0753511Y0656864D01*
X0753449Y0656869D01*
X0753387Y0656878D01*
X0753325Y0656891D01*
X0753265Y0656907D01*
X0753205Y0656927D01*
X0753147Y0656949D01*
X0753090Y0656977D01*
X0753035Y0657007D01*
X0752981Y0657039D01*
X0752930Y0657076D01*
X0752880Y0657114D01*
X0752834Y0657156D01*
X0752788Y0657201D01*
X0752747Y0657247D01*
X0752709Y0657296D01*
X0752673Y0657348D01*
X0752640Y0657402D01*
X0752610Y0657457D01*
X0752583Y0657514D01*
X0752560Y0657572D01*
X0752540Y0657632D01*
X0752524Y0657692D01*
X0752510Y0657754D01*
X0752502Y0657816D01*
X0752497Y0657878D01*
X0752495Y0657941D01*
X0752495Y0660100D01*
X0752497Y0660163D01*
X0752502Y0660224D01*
X0752510Y0660287D01*
X0752524Y0660348D01*
X0752540Y0660408D01*
X0752560Y0660468D01*
X0752583Y0660527D01*
X0752610Y0660584D01*
X0752640Y0660639D01*
X0752673Y0660693D01*
X0752709Y0660744D01*
X0752747Y0660794D01*
X0752788Y0660840D01*
X0752834Y0660885D01*
X0752880Y0660926D01*
X0752930Y0660965D01*
X0752981Y0661001D01*
X0753035Y0661033D01*
X0753090Y0661063D01*
X0753147Y0661091D01*
X0753205Y0661114D01*
X0753265Y0661134D01*
X0753325Y0661150D01*
X0753387Y0661163D01*
X0753449Y0661172D01*
X0753511Y0661177D01*
X0753574Y0661179D01*
X0755014Y0661179D01*
X0757302Y0661179D02*
X0759461Y0661179D01*
X0758022Y0663338D02*
X0758022Y0657941D01*
X0758024Y0657878D01*
X0758028Y0657816D01*
X0758038Y0657754D01*
X0758051Y0657692D01*
X0758067Y0657632D01*
X0758087Y0657572D01*
X0758110Y0657514D01*
X0758137Y0657457D01*
X0758167Y0657401D01*
X0758199Y0657348D01*
X0758236Y0657296D01*
X0758274Y0657247D01*
X0758316Y0657201D01*
X0758361Y0657156D01*
X0758407Y0657114D01*
X0758456Y0657075D01*
X0758507Y0657039D01*
X0758562Y0657007D01*
X0758617Y0656977D01*
X0758674Y0656949D01*
X0758732Y0656927D01*
X0758792Y0656907D01*
X0758852Y0656891D01*
X0758914Y0656878D01*
X0758976Y0656869D01*
X0759038Y0656864D01*
X0759101Y0656862D01*
X0759461Y0656862D01*
X0762140Y0656862D02*
X0762140Y0657222D01*
X0762500Y0657222D01*
X0762500Y0656862D01*
X0762140Y0656862D01*
X0771380Y0663338D02*
X0771459Y0663336D01*
X0771538Y0663330D01*
X0771618Y0663319D01*
X0771696Y0663306D01*
X0771773Y0663289D01*
X0771850Y0663268D01*
X0771925Y0663242D01*
X0772000Y0663215D01*
X0772072Y0663182D01*
X0772143Y0663147D01*
X0772212Y0663108D01*
X0772279Y0663065D01*
X0772343Y0663019D01*
X0772407Y0662971D01*
X0772467Y0662919D01*
X0772525Y0662864D01*
X0772580Y0662806D01*
X0772632Y0662746D01*
X0772680Y0662683D01*
X0772726Y0662617D01*
X0772769Y0662551D01*
X0772808Y0662482D01*
X0772844Y0662411D01*
X0772876Y0662339D01*
X0772904Y0662264D01*
X0772929Y0662189D01*
X0772950Y0662112D01*
X0772968Y0662035D01*
X0772981Y0661957D01*
X0772991Y0661878D01*
X0772997Y0661798D01*
X0772998Y0661718D01*
X0771380Y0663338D02*
X0771290Y0663336D01*
X0771200Y0663330D01*
X0771110Y0663319D01*
X0771021Y0663306D01*
X0770933Y0663289D01*
X0770845Y0663268D01*
X0770758Y0663242D01*
X0770673Y0663214D01*
X0770589Y0663182D01*
X0770506Y0663145D01*
X0770425Y0663105D01*
X0770346Y0663062D01*
X0770269Y0663015D01*
X0770193Y0662966D01*
X0770120Y0662913D01*
X0770050Y0662857D01*
X0769982Y0662798D01*
X0769916Y0662736D01*
X0769854Y0662671D01*
X0769794Y0662603D01*
X0769736Y0662533D01*
X0769683Y0662461D01*
X0769633Y0662386D01*
X0769585Y0662310D01*
X0769541Y0662231D01*
X0769501Y0662150D01*
X0769464Y0662068D01*
X0769431Y0661984D01*
X0769401Y0661899D01*
X0772459Y0660460D02*
X0772514Y0660515D01*
X0772568Y0660573D01*
X0772617Y0660633D01*
X0772665Y0660695D01*
X0772710Y0660759D01*
X0772752Y0660825D01*
X0772790Y0660893D01*
X0772826Y0660963D01*
X0772858Y0661033D01*
X0772888Y0661107D01*
X0772913Y0661180D01*
X0772936Y0661255D01*
X0772955Y0661331D01*
X0772971Y0661408D01*
X0772983Y0661485D01*
X0772992Y0661563D01*
X0772997Y0661641D01*
X0772998Y0661718D01*
X0772459Y0660460D02*
X0769401Y0656862D01*
X0772998Y0656862D01*
X0776601Y0660100D02*
X0776603Y0660241D01*
X0776609Y0660385D01*
X0776618Y0660527D01*
X0776631Y0660669D01*
X0776648Y0660810D01*
X0776669Y0660951D01*
X0776694Y0661091D01*
X0776722Y0661230D01*
X0776754Y0661369D01*
X0776790Y0661507D01*
X0776829Y0661644D01*
X0776872Y0661780D01*
X0776919Y0661914D01*
X0776969Y0662048D01*
X0777022Y0662179D01*
X0777080Y0662310D01*
X0777141Y0662439D01*
X0777166Y0662506D01*
X0777195Y0662572D01*
X0777227Y0662636D01*
X0777263Y0662698D01*
X0777300Y0662758D01*
X0777343Y0662817D01*
X0777389Y0662872D01*
X0777437Y0662925D01*
X0777488Y0662976D01*
X0777540Y0663024D01*
X0777597Y0663069D01*
X0777656Y0663111D01*
X0777716Y0663149D01*
X0777779Y0663184D01*
X0777843Y0663216D01*
X0777908Y0663244D01*
X0777977Y0663269D01*
X0778045Y0663289D01*
X0778115Y0663306D01*
X0778186Y0663321D01*
X0778257Y0663330D01*
X0778328Y0663336D01*
X0778400Y0663338D01*
X0778472Y0663336D01*
X0778543Y0663330D01*
X0778614Y0663321D01*
X0778685Y0663306D01*
X0778755Y0663289D01*
X0778823Y0663269D01*
X0778891Y0663244D01*
X0778957Y0663216D01*
X0779021Y0663184D01*
X0779084Y0663149D01*
X0779144Y0663111D01*
X0779203Y0663069D01*
X0779259Y0663024D01*
X0779312Y0662976D01*
X0779363Y0662925D01*
X0779411Y0662872D01*
X0779456Y0662817D01*
X0779499Y0662758D01*
X0779537Y0662698D01*
X0779573Y0662636D01*
X0779605Y0662572D01*
X0779634Y0662506D01*
X0779659Y0662439D01*
X0779720Y0662310D01*
X0779777Y0662179D01*
X0779831Y0662048D01*
X0779881Y0661914D01*
X0779928Y0661780D01*
X0779971Y0661644D01*
X0780010Y0661507D01*
X0780046Y0661369D01*
X0780078Y0661230D01*
X0780106Y0661091D01*
X0780131Y0660951D01*
X0780151Y0660810D01*
X0780168Y0660669D01*
X0780182Y0660527D01*
X0780191Y0660385D01*
X0780197Y0660241D01*
X0780199Y0660100D01*
X0776601Y0660100D02*
X0776603Y0659958D01*
X0776609Y0659815D01*
X0776618Y0659673D01*
X0776631Y0659531D01*
X0776648Y0659389D01*
X0776669Y0659248D01*
X0776694Y0659109D01*
X0776722Y0658969D01*
X0776754Y0658831D01*
X0776790Y0658693D01*
X0776829Y0658556D01*
X0776872Y0658420D01*
X0776919Y0658286D01*
X0776969Y0658152D01*
X0777022Y0658021D01*
X0777080Y0657890D01*
X0777141Y0657761D01*
X0777166Y0657694D01*
X0777195Y0657628D01*
X0777227Y0657564D01*
X0777263Y0657502D01*
X0777300Y0657441D01*
X0777343Y0657383D01*
X0777389Y0657328D01*
X0777437Y0657274D01*
X0777488Y0657223D01*
X0777540Y0657176D01*
X0777597Y0657131D01*
X0777656Y0657089D01*
X0777716Y0657051D01*
X0777779Y0657016D01*
X0777843Y0656984D01*
X0777908Y0656956D01*
X0777977Y0656931D01*
X0778045Y0656910D01*
X0778115Y0656893D01*
X0778186Y0656879D01*
X0778257Y0656870D01*
X0778328Y0656864D01*
X0778400Y0656862D01*
X0779659Y0657761D02*
X0779720Y0657890D01*
X0779777Y0658021D01*
X0779831Y0658152D01*
X0779881Y0658286D01*
X0779928Y0658420D01*
X0779971Y0658556D01*
X0780010Y0658693D01*
X0780046Y0658831D01*
X0780078Y0658969D01*
X0780106Y0659109D01*
X0780131Y0659248D01*
X0780151Y0659389D01*
X0780168Y0659531D01*
X0780182Y0659673D01*
X0780191Y0659815D01*
X0780197Y0659958D01*
X0780199Y0660100D01*
X0779659Y0657761D02*
X0779634Y0657694D01*
X0779605Y0657628D01*
X0779573Y0657564D01*
X0779537Y0657502D01*
X0779499Y0657442D01*
X0779456Y0657383D01*
X0779411Y0657328D01*
X0779363Y0657274D01*
X0779312Y0657223D01*
X0779259Y0657176D01*
X0779203Y0657131D01*
X0779144Y0657089D01*
X0779084Y0657051D01*
X0779021Y0657016D01*
X0778957Y0656984D01*
X0778891Y0656956D01*
X0778823Y0656931D01*
X0778755Y0656910D01*
X0778685Y0656893D01*
X0778614Y0656879D01*
X0778543Y0656870D01*
X0778472Y0656864D01*
X0778400Y0656862D01*
X0776961Y0658301D02*
X0779839Y0661899D01*
X0785780Y0663338D02*
X0785859Y0663336D01*
X0785939Y0663330D01*
X0786018Y0663319D01*
X0786096Y0663306D01*
X0786173Y0663289D01*
X0786250Y0663268D01*
X0786324Y0663242D01*
X0786400Y0663215D01*
X0786472Y0663182D01*
X0786543Y0663147D01*
X0786611Y0663108D01*
X0786679Y0663065D01*
X0786744Y0663019D01*
X0786807Y0662971D01*
X0786867Y0662919D01*
X0786925Y0662864D01*
X0786980Y0662806D01*
X0787032Y0662746D01*
X0787080Y0662683D01*
X0787126Y0662617D01*
X0787169Y0662551D01*
X0787208Y0662482D01*
X0787244Y0662411D01*
X0787276Y0662339D01*
X0787304Y0662264D01*
X0787329Y0662189D01*
X0787350Y0662112D01*
X0787368Y0662035D01*
X0787381Y0661957D01*
X0787391Y0661878D01*
X0787397Y0661798D01*
X0787399Y0661718D01*
X0785780Y0663338D02*
X0785690Y0663336D01*
X0785600Y0663330D01*
X0785510Y0663319D01*
X0785421Y0663306D01*
X0785333Y0663289D01*
X0785245Y0663268D01*
X0785158Y0663242D01*
X0785073Y0663214D01*
X0784989Y0663182D01*
X0784906Y0663145D01*
X0784825Y0663105D01*
X0784746Y0663062D01*
X0784669Y0663015D01*
X0784593Y0662966D01*
X0784520Y0662913D01*
X0784449Y0662857D01*
X0784382Y0662798D01*
X0784316Y0662736D01*
X0784254Y0662671D01*
X0784194Y0662603D01*
X0784137Y0662533D01*
X0784083Y0662461D01*
X0784033Y0662386D01*
X0783985Y0662310D01*
X0783941Y0662231D01*
X0783901Y0662150D01*
X0783864Y0662068D01*
X0783831Y0661984D01*
X0783801Y0661899D01*
X0786859Y0660460D02*
X0786915Y0660515D01*
X0786968Y0660573D01*
X0787018Y0660633D01*
X0787065Y0660695D01*
X0787110Y0660759D01*
X0787152Y0660825D01*
X0787189Y0660893D01*
X0787226Y0660963D01*
X0787257Y0661033D01*
X0787288Y0661107D01*
X0787313Y0661180D01*
X0787336Y0661255D01*
X0787355Y0661331D01*
X0787371Y0661408D01*
X0787383Y0661485D01*
X0787392Y0661563D01*
X0787397Y0661641D01*
X0787399Y0661718D01*
X0786859Y0660460D02*
X0783801Y0656862D01*
X0787399Y0656862D01*
X0791001Y0661899D02*
X0792800Y0663338D01*
X0792800Y0656862D01*
X0791001Y0656862D02*
X0794599Y0656862D01*
D12*
X0674500Y0826000D02*
X0649500Y0826000D01*
X0649500Y0674000D01*
X0674500Y0674000D01*
X0674500Y0695000D01*
X0674500Y0805000D01*
X0674500Y0826000D01*
X0674500Y0805000D02*
X0662000Y0805000D01*
X0662000Y0695000D01*
X0674500Y0695000D01*
D10*
X0740000Y0745000D02*
X0740000Y0775000D01*
X0710000Y0775000D01*
X0710000Y0745000D01*
X0740000Y0745000D01*
D13*
X0709290Y0788275D02*
X0709288Y0788344D01*
X0709283Y0788412D01*
X0709273Y0788480D01*
X0709260Y0788548D01*
X0709244Y0788615D01*
X0709224Y0788681D01*
X0709200Y0788745D01*
X0709173Y0788807D01*
X0709141Y0788870D01*
X0709108Y0788930D01*
X0709071Y0788988D01*
X0709031Y0789044D01*
X0708988Y0789097D01*
X0708942Y0789148D01*
X0708893Y0789197D01*
X0708841Y0789243D01*
X0708789Y0789286D01*
X0708733Y0789326D01*
X0708675Y0789363D01*
X0708615Y0789397D01*
X0708553Y0789428D01*
X0708490Y0789455D01*
X0708426Y0789479D01*
X0708360Y0789499D01*
X0708293Y0789515D01*
X0708225Y0789528D01*
X0708156Y0789538D01*
X0708089Y0789543D01*
X0708019Y0789545D01*
X0709290Y0788275D02*
X0709290Y0782925D01*
X0709288Y0782856D01*
X0709283Y0782788D01*
X0709273Y0782720D01*
X0709260Y0782651D01*
X0709244Y0782585D01*
X0709224Y0782519D01*
X0709200Y0782454D01*
X0709173Y0782392D01*
X0709141Y0782330D01*
X0709108Y0782270D01*
X0709071Y0782212D01*
X0709031Y0782156D01*
X0708988Y0782103D01*
X0708942Y0782052D01*
X0708893Y0782003D01*
X0708841Y0781957D01*
X0708789Y0781914D01*
X0708733Y0781874D01*
X0708675Y0781837D01*
X0708615Y0781803D01*
X0708553Y0781772D01*
X0708490Y0781745D01*
X0708426Y0781721D01*
X0708360Y0781701D01*
X0708293Y0781685D01*
X0708225Y0781671D01*
X0708156Y0781662D01*
X0708089Y0781657D01*
X0708019Y0781655D01*
X0693780Y0781655D01*
X0693711Y0781657D01*
X0693643Y0781662D01*
X0693575Y0781671D01*
X0693507Y0781685D01*
X0693439Y0781701D01*
X0693374Y0781721D01*
X0693310Y0781745D01*
X0693247Y0781772D01*
X0693185Y0781803D01*
X0693125Y0781837D01*
X0693067Y0781874D01*
X0693011Y0781914D01*
X0692958Y0781957D01*
X0692907Y0782003D01*
X0692858Y0782052D01*
X0692812Y0782103D01*
X0692769Y0782156D01*
X0692728Y0782212D01*
X0692692Y0782270D01*
X0692658Y0782330D01*
X0692627Y0782392D01*
X0692600Y0782454D01*
X0692576Y0782519D01*
X0692556Y0782585D01*
X0692540Y0782651D01*
X0692527Y0782720D01*
X0692517Y0782788D01*
X0692512Y0782856D01*
X0692510Y0782925D01*
X0692510Y0788275D01*
X0692512Y0788344D01*
X0692517Y0788412D01*
X0692527Y0788480D01*
X0692540Y0788548D01*
X0692556Y0788615D01*
X0692576Y0788681D01*
X0692600Y0788745D01*
X0692627Y0788807D01*
X0692658Y0788870D01*
X0692692Y0788930D01*
X0692728Y0788988D01*
X0692769Y0789044D01*
X0692812Y0789097D01*
X0692858Y0789148D01*
X0692907Y0789197D01*
X0692958Y0789243D01*
X0693011Y0789286D01*
X0693067Y0789326D01*
X0693125Y0789363D01*
X0693185Y0789397D01*
X0693247Y0789428D01*
X0693310Y0789455D01*
X0693374Y0789479D01*
X0693439Y0789499D01*
X0693507Y0789515D01*
X0693575Y0789528D01*
X0693643Y0789538D01*
X0693711Y0789543D01*
X0693780Y0789545D01*
X0708019Y0789545D01*
X0746820Y0725445D02*
X0746889Y0725442D01*
X0746957Y0725438D01*
X0747025Y0725428D01*
X0747093Y0725415D01*
X0747159Y0725399D01*
X0747226Y0725378D01*
X0747290Y0725355D01*
X0747353Y0725328D01*
X0747415Y0725297D01*
X0747475Y0725263D01*
X0747533Y0725226D01*
X0747589Y0725186D01*
X0747642Y0725143D01*
X0747693Y0725097D01*
X0747742Y0725048D01*
X0747788Y0724997D01*
X0747831Y0724944D01*
X0747871Y0724888D01*
X0747908Y0724830D01*
X0747942Y0724770D01*
X0747973Y0724708D01*
X0748000Y0724645D01*
X0748024Y0724581D01*
X0748044Y0724515D01*
X0748060Y0724448D01*
X0748073Y0724380D01*
X0748083Y0724312D01*
X0748088Y0724244D01*
X0748090Y0724175D01*
X0748090Y0718824D01*
X0748088Y0718756D01*
X0748083Y0718687D01*
X0748073Y0718620D01*
X0748060Y0718552D01*
X0748044Y0718485D01*
X0748024Y0718419D01*
X0748000Y0718355D01*
X0747973Y0718292D01*
X0747942Y0718230D01*
X0747908Y0718170D01*
X0747871Y0718112D01*
X0747831Y0718056D01*
X0747788Y0718002D01*
X0747742Y0717951D01*
X0747693Y0717903D01*
X0747642Y0717857D01*
X0747589Y0717814D01*
X0747533Y0717774D01*
X0747475Y0717737D01*
X0747415Y0717703D01*
X0747353Y0717672D01*
X0747290Y0717645D01*
X0747226Y0717621D01*
X0747159Y0717601D01*
X0747093Y0717585D01*
X0747025Y0717572D01*
X0746957Y0717562D01*
X0746889Y0717557D01*
X0746820Y0717555D01*
X0732580Y0717555D01*
X0732510Y0717557D01*
X0732443Y0717562D01*
X0732375Y0717572D01*
X0732307Y0717585D01*
X0732240Y0717601D01*
X0732174Y0717621D01*
X0732110Y0717645D01*
X0732047Y0717672D01*
X0731985Y0717703D01*
X0731925Y0717737D01*
X0731867Y0717774D01*
X0731811Y0717814D01*
X0731758Y0717857D01*
X0731707Y0717903D01*
X0731658Y0717951D01*
X0731611Y0718002D01*
X0731569Y0718056D01*
X0731529Y0718112D01*
X0731492Y0718170D01*
X0731457Y0718230D01*
X0731427Y0718292D01*
X0731400Y0718355D01*
X0731376Y0718419D01*
X0731356Y0718485D01*
X0731340Y0718552D01*
X0731327Y0718620D01*
X0731317Y0718687D01*
X0731312Y0718756D01*
X0731310Y0718824D01*
X0731310Y0724175D01*
X0731312Y0724244D01*
X0731317Y0724312D01*
X0731327Y0724380D01*
X0731340Y0724448D01*
X0731356Y0724515D01*
X0731376Y0724581D01*
X0731400Y0724645D01*
X0731427Y0724708D01*
X0731457Y0724770D01*
X0731492Y0724830D01*
X0731529Y0724888D01*
X0731569Y0724944D01*
X0731611Y0724997D01*
X0731658Y0725048D01*
X0731707Y0725097D01*
X0731758Y0725143D01*
X0731811Y0725186D01*
X0731867Y0725226D01*
X0731925Y0725263D01*
X0731985Y0725297D01*
X0732047Y0725328D01*
X0732110Y0725355D01*
X0732174Y0725378D01*
X0732240Y0725399D01*
X0732307Y0725415D01*
X0732375Y0725428D01*
X0732443Y0725438D01*
X0732510Y0725442D01*
X0732580Y0725445D01*
X0746820Y0725445D01*
D12*
X0775500Y0674000D02*
X0800500Y0674000D01*
X0800500Y0826000D01*
X0775500Y0826000D01*
X0775500Y0805000D01*
X0775500Y0695000D01*
X0775500Y0674000D01*
X0775500Y0695000D02*
X0788000Y0695000D01*
X0788000Y0805000D01*
X0775500Y0805000D01*
D14*
X0705466Y0772180D02*
X0694734Y0772180D01*
X0692694Y0766060D02*
X0692696Y0765971D01*
X0692702Y0765882D01*
X0692711Y0765793D01*
X0692724Y0765706D01*
X0692742Y0765618D01*
X0692764Y0765532D01*
X0692788Y0765447D01*
X0692817Y0765361D01*
X0692848Y0765279D01*
X0692885Y0765198D01*
X0692924Y0765117D01*
X0692967Y0765040D01*
X0693013Y0764964D01*
X0693062Y0764890D01*
X0693116Y0764817D01*
X0693171Y0764749D01*
X0693230Y0764682D01*
X0693292Y0764618D01*
X0693356Y0764556D01*
X0693423Y0764497D01*
X0693492Y0764442D01*
X0693563Y0764389D01*
X0693638Y0764339D01*
X0693714Y0764293D01*
X0693792Y0764250D01*
X0693872Y0764211D01*
X0693953Y0764175D01*
X0694036Y0764143D01*
X0694121Y0764114D01*
X0694206Y0764090D01*
X0694292Y0764068D01*
X0694380Y0764051D01*
X0694468Y0764037D01*
X0694556Y0764028D01*
X0694645Y0764021D01*
X0694734Y0764020D01*
X0705466Y0764020D02*
X0705555Y0764021D01*
X0705644Y0764028D01*
X0705732Y0764037D01*
X0705819Y0764051D01*
X0705908Y0764068D01*
X0705994Y0764090D01*
X0706079Y0764114D01*
X0706164Y0764143D01*
X0706247Y0764175D01*
X0706328Y0764211D01*
X0706408Y0764250D01*
X0706486Y0764293D01*
X0706562Y0764339D01*
X0706636Y0764389D01*
X0706708Y0764442D01*
X0706777Y0764497D01*
X0706844Y0764556D01*
X0706908Y0764618D01*
X0706970Y0764682D01*
X0707029Y0764749D01*
X0707084Y0764817D01*
X0707137Y0764890D01*
X0707187Y0764964D01*
X0707233Y0765040D01*
X0707276Y0765117D01*
X0707315Y0765198D01*
X0707351Y0765279D01*
X0707383Y0765361D01*
X0707412Y0765447D01*
X0707436Y0765532D01*
X0707458Y0765618D01*
X0707475Y0765706D01*
X0707489Y0765793D01*
X0707497Y0765882D01*
X0707504Y0765971D01*
X0707506Y0766060D01*
X0707506Y0770140D02*
X0707504Y0770228D01*
X0707497Y0770318D01*
X0707489Y0770406D01*
X0707475Y0770494D01*
X0707458Y0770582D01*
X0707436Y0770668D01*
X0707412Y0770753D01*
X0707383Y0770838D01*
X0707351Y0770921D01*
X0707315Y0771002D01*
X0707276Y0771082D01*
X0707233Y0771160D01*
X0707187Y0771236D01*
X0707137Y0771310D01*
X0707084Y0771382D01*
X0707029Y0771451D01*
X0706970Y0771518D01*
X0706908Y0771581D01*
X0706844Y0771644D01*
X0706777Y0771703D01*
X0706708Y0771758D01*
X0706636Y0771811D01*
X0706562Y0771861D01*
X0706486Y0771906D01*
X0706408Y0771949D01*
X0706328Y0771989D01*
X0706247Y0772025D01*
X0706164Y0772057D01*
X0706079Y0772086D01*
X0705994Y0772110D01*
X0705908Y0772132D01*
X0705819Y0772149D01*
X0705732Y0772163D01*
X0705644Y0772172D01*
X0705555Y0772178D01*
X0705466Y0772180D01*
X0694734Y0772180D02*
X0694645Y0772178D01*
X0694556Y0772172D01*
X0694468Y0772163D01*
X0694380Y0772149D01*
X0694292Y0772132D01*
X0694206Y0772110D01*
X0694121Y0772086D01*
X0694036Y0772057D01*
X0693953Y0772025D01*
X0693872Y0771989D01*
X0693792Y0771949D01*
X0693714Y0771906D01*
X0693638Y0771861D01*
X0693563Y0771811D01*
X0693492Y0771758D01*
X0693423Y0771703D01*
X0693356Y0771644D01*
X0693292Y0771581D01*
X0693230Y0771518D01*
X0693171Y0771451D01*
X0693116Y0771382D01*
X0693062Y0771310D01*
X0693013Y0771236D01*
X0692967Y0771160D01*
X0692924Y0771082D01*
X0692885Y0771002D01*
X0692848Y0770921D01*
X0692817Y0770838D01*
X0692788Y0770753D01*
X0692764Y0770668D01*
X0692742Y0770582D01*
X0692724Y0770494D01*
X0692711Y0770406D01*
X0692702Y0770318D01*
X0692696Y0770228D01*
X0692694Y0770140D01*
X0692694Y0766060D01*
X0707506Y0766060D02*
X0707506Y0770140D01*
X0705466Y0764020D02*
X0694734Y0764020D01*
X0694834Y0753580D02*
X0705566Y0753580D01*
X0694834Y0745420D02*
X0694745Y0745421D01*
X0694656Y0745428D01*
X0694568Y0745437D01*
X0694480Y0745451D01*
X0694392Y0745468D01*
X0694306Y0745490D01*
X0694221Y0745514D01*
X0694136Y0745543D01*
X0694053Y0745575D01*
X0693972Y0745611D01*
X0693892Y0745650D01*
X0693814Y0745693D01*
X0693738Y0745739D01*
X0693664Y0745789D01*
X0693592Y0745842D01*
X0693523Y0745896D01*
X0693456Y0745956D01*
X0693392Y0746018D01*
X0693330Y0746082D01*
X0693271Y0746149D01*
X0693216Y0746218D01*
X0693163Y0746290D01*
X0693113Y0746364D01*
X0693067Y0746440D01*
X0693024Y0746518D01*
X0692985Y0746598D01*
X0692949Y0746679D01*
X0692917Y0746762D01*
X0692888Y0746846D01*
X0692864Y0746932D01*
X0692842Y0747018D01*
X0692825Y0747106D01*
X0692811Y0747194D01*
X0692801Y0747282D01*
X0692796Y0747371D01*
X0692794Y0747460D01*
X0705566Y0745420D02*
X0705655Y0745421D01*
X0705744Y0745428D01*
X0705832Y0745437D01*
X0705920Y0745451D01*
X0706007Y0745468D01*
X0706093Y0745490D01*
X0706179Y0745514D01*
X0706264Y0745543D01*
X0706347Y0745575D01*
X0706427Y0745611D01*
X0706508Y0745650D01*
X0706586Y0745693D01*
X0706662Y0745739D01*
X0706735Y0745789D01*
X0706808Y0745842D01*
X0706877Y0745896D01*
X0706944Y0745956D01*
X0707008Y0746018D01*
X0707069Y0746082D01*
X0707129Y0746149D01*
X0707184Y0746218D01*
X0707236Y0746290D01*
X0707287Y0746364D01*
X0707333Y0746440D01*
X0707376Y0746518D01*
X0707415Y0746598D01*
X0707450Y0746679D01*
X0707483Y0746762D01*
X0707512Y0746846D01*
X0707536Y0746932D01*
X0707557Y0747018D01*
X0707574Y0747106D01*
X0707589Y0747194D01*
X0707598Y0747282D01*
X0707604Y0747371D01*
X0707606Y0747460D01*
X0707606Y0751540D02*
X0707604Y0751629D01*
X0707598Y0751718D01*
X0707589Y0751806D01*
X0707574Y0751894D01*
X0707557Y0751982D01*
X0707536Y0752068D01*
X0707512Y0752153D01*
X0707483Y0752238D01*
X0707450Y0752321D01*
X0707415Y0752402D01*
X0707376Y0752482D01*
X0707333Y0752560D01*
X0707287Y0752636D01*
X0707236Y0752710D01*
X0707184Y0752782D01*
X0707129Y0752851D01*
X0707069Y0752918D01*
X0707008Y0752982D01*
X0706944Y0753044D01*
X0706877Y0753103D01*
X0706808Y0753158D01*
X0706735Y0753211D01*
X0706662Y0753261D01*
X0706586Y0753307D01*
X0706508Y0753350D01*
X0706427Y0753389D01*
X0706347Y0753425D01*
X0706264Y0753456D01*
X0706179Y0753486D01*
X0706093Y0753510D01*
X0706007Y0753532D01*
X0705920Y0753549D01*
X0705832Y0753563D01*
X0705744Y0753572D01*
X0705655Y0753578D01*
X0705566Y0753580D01*
X0694834Y0753580D02*
X0694745Y0753578D01*
X0694656Y0753572D01*
X0694568Y0753563D01*
X0694480Y0753549D01*
X0694392Y0753532D01*
X0694306Y0753510D01*
X0694221Y0753486D01*
X0694136Y0753456D01*
X0694053Y0753425D01*
X0693972Y0753389D01*
X0693892Y0753350D01*
X0693814Y0753307D01*
X0693738Y0753261D01*
X0693664Y0753211D01*
X0693592Y0753158D01*
X0693523Y0753103D01*
X0693456Y0753044D01*
X0693392Y0752982D01*
X0693330Y0752918D01*
X0693271Y0752851D01*
X0693216Y0752782D01*
X0693163Y0752710D01*
X0693113Y0752636D01*
X0693067Y0752560D01*
X0693024Y0752482D01*
X0692985Y0752402D01*
X0692949Y0752321D01*
X0692917Y0752238D01*
X0692888Y0752153D01*
X0692864Y0752068D01*
X0692842Y0751982D01*
X0692825Y0751894D01*
X0692811Y0751806D01*
X0692801Y0751718D01*
X0692796Y0751629D01*
X0692794Y0751540D01*
X0692794Y0747460D01*
X0707606Y0747460D02*
X0707606Y0751540D01*
X0705566Y0745420D02*
X0694834Y0745420D01*
X0694834Y0735080D02*
X0705566Y0735080D01*
X0694834Y0726920D02*
X0694745Y0726922D01*
X0694656Y0726928D01*
X0694568Y0726937D01*
X0694480Y0726951D01*
X0694392Y0726968D01*
X0694306Y0726990D01*
X0694221Y0727014D01*
X0694136Y0727043D01*
X0694053Y0727075D01*
X0693972Y0727111D01*
X0693892Y0727150D01*
X0693814Y0727193D01*
X0693738Y0727239D01*
X0693664Y0727289D01*
X0693592Y0727342D01*
X0693523Y0727397D01*
X0693456Y0727456D01*
X0693392Y0727518D01*
X0693330Y0727582D01*
X0693271Y0727649D01*
X0693216Y0727718D01*
X0693163Y0727790D01*
X0693113Y0727864D01*
X0693067Y0727940D01*
X0693024Y0728018D01*
X0692985Y0728098D01*
X0692949Y0728179D01*
X0692917Y0728262D01*
X0692888Y0728347D01*
X0692864Y0728432D01*
X0692842Y0728518D01*
X0692825Y0728606D01*
X0692811Y0728694D01*
X0692801Y0728781D01*
X0692796Y0728871D01*
X0692794Y0728960D01*
X0705566Y0726920D02*
X0705655Y0726922D01*
X0705744Y0726928D01*
X0705832Y0726937D01*
X0705920Y0726951D01*
X0706007Y0726968D01*
X0706093Y0726990D01*
X0706179Y0727014D01*
X0706264Y0727043D01*
X0706347Y0727075D01*
X0706427Y0727111D01*
X0706508Y0727150D01*
X0706586Y0727193D01*
X0706662Y0727239D01*
X0706735Y0727289D01*
X0706808Y0727342D01*
X0706877Y0727397D01*
X0706944Y0727456D01*
X0707008Y0727518D01*
X0707069Y0727582D01*
X0707129Y0727649D01*
X0707184Y0727718D01*
X0707236Y0727790D01*
X0707287Y0727864D01*
X0707333Y0727940D01*
X0707376Y0728018D01*
X0707415Y0728098D01*
X0707450Y0728179D01*
X0707483Y0728262D01*
X0707512Y0728347D01*
X0707536Y0728432D01*
X0707557Y0728518D01*
X0707574Y0728606D01*
X0707589Y0728694D01*
X0707598Y0728781D01*
X0707604Y0728871D01*
X0707606Y0728960D01*
X0707606Y0733040D02*
X0707604Y0733129D01*
X0707598Y0733218D01*
X0707589Y0733306D01*
X0707574Y0733394D01*
X0707557Y0733482D01*
X0707536Y0733567D01*
X0707512Y0733653D01*
X0707483Y0733738D01*
X0707450Y0733820D01*
X0707415Y0733901D01*
X0707376Y0733982D01*
X0707333Y0734060D01*
X0707287Y0734136D01*
X0707236Y0734209D01*
X0707184Y0734282D01*
X0707129Y0734351D01*
X0707069Y0734418D01*
X0707008Y0734482D01*
X0706944Y0734543D01*
X0706877Y0734603D01*
X0706808Y0734658D01*
X0706735Y0734711D01*
X0706662Y0734761D01*
X0706586Y0734807D01*
X0706508Y0734850D01*
X0706427Y0734889D01*
X0706347Y0734925D01*
X0706264Y0734957D01*
X0706179Y0734986D01*
X0706093Y0735010D01*
X0706007Y0735031D01*
X0705920Y0735048D01*
X0705832Y0735063D01*
X0705744Y0735072D01*
X0705655Y0735078D01*
X0705566Y0735080D01*
X0694834Y0735080D02*
X0694745Y0735078D01*
X0694656Y0735072D01*
X0694568Y0735063D01*
X0694480Y0735048D01*
X0694392Y0735031D01*
X0694306Y0735010D01*
X0694221Y0734986D01*
X0694136Y0734957D01*
X0694053Y0734925D01*
X0693972Y0734889D01*
X0693892Y0734850D01*
X0693814Y0734807D01*
X0693738Y0734761D01*
X0693664Y0734711D01*
X0693592Y0734658D01*
X0693523Y0734603D01*
X0693456Y0734543D01*
X0693392Y0734482D01*
X0693330Y0734418D01*
X0693271Y0734351D01*
X0693216Y0734282D01*
X0693163Y0734209D01*
X0693113Y0734136D01*
X0693067Y0734060D01*
X0693024Y0733982D01*
X0692985Y0733901D01*
X0692949Y0733820D01*
X0692917Y0733738D01*
X0692888Y0733653D01*
X0692864Y0733567D01*
X0692842Y0733482D01*
X0692825Y0733394D01*
X0692811Y0733306D01*
X0692801Y0733218D01*
X0692796Y0733129D01*
X0692794Y0733040D01*
X0692794Y0728960D01*
X0707606Y0728960D02*
X0707606Y0733040D01*
X0705566Y0726920D02*
X0694834Y0726920D01*
D12*
X0714000Y0723500D02*
X0728000Y0723500D01*
X0728000Y0719500D01*
X0714000Y0719500D01*
X0714000Y0723500D01*
M02*