G04 EAGLE Gerber RS-274X export*
G75*
%MOMM*%
%FSLAX34Y34*%
%LPD*%
%INStencil*%
%IPPOS*%
%AMOC8*
5,1,8,0,0,$1,22.5*%
G01*
%ADD10R,2X0.6*%
%ADD11R,2.9X2.6*%
%ADD12R,0.45X1.45*%
%ADD13C,0.25*%
%ADD14R,0.2X0.3*%
D10*
X0150000Y0150000D02*
X0164500Y0295000D03*
X0199500Y0285000D03*
X0164500Y0275000D03*
X0199500Y0265000D03*
X0164500Y0255000D03*
X0199500Y0245000D03*
X0164500Y0235000D03*
X0199500Y0225000D03*
X0164500Y0215000D03*
X0199500Y0205000D03*
D11*
X0182000Y0319000D03*
X0182000Y0181000D03*
D12*
X0254750Y0282000D03*
X0248250Y0282000D03*
X0241750Y0282000D03*
X0235250Y0282000D03*
X0235250Y0238000D03*
X0241750Y0238000D03*
X0248250Y0238000D03*
X0254750Y0238000D03*
D13*
X0217525Y0284350D02*
X0215025Y0284350D01*
X0215025Y0286850D01*
X0217525Y0286850D01*
X0217525Y0284350D01*
X0217525Y0286725D02*
X0215025Y0286725D01*
X0224275Y0284350D02*
X0226775Y0284350D01*
X0224275Y0284350D02*
X0224275Y0286850D01*
X0226775Y0286850D01*
X0226775Y0284350D01*
X0226775Y0286725D02*
X0224275Y0286725D01*
X0253825Y0220250D02*
X0256325Y0220250D01*
X0253825Y0220250D02*
X0253825Y0222750D01*
X0256325Y0222750D01*
X0256325Y0220250D01*
X0256325Y0222625D02*
X0253825Y0222625D01*
X0263075Y0220250D02*
X0265575Y0220250D01*
X0263075Y0220250D02*
X0263075Y0222750D01*
X0265575Y0222750D01*
X0265575Y0220250D01*
X0265575Y0222625D02*
X0263075Y0222625D01*
D10*
X0325500Y0205000D03*
X0290500Y0215000D03*
X0325500Y0225000D03*
X0290500Y0235000D03*
X0325500Y0245000D03*
X0290500Y0255000D03*
X0325500Y0265000D03*
X0290500Y0275000D03*
X0325500Y0285000D03*
X0290500Y0295000D03*
D11*
X0308000Y0181000D03*
X0308000Y0319000D03*
D14*
X0235000Y0218500D03*
X0239000Y0218500D03*
X0243000Y0218500D03*
X0247000Y0218500D03*
X0247000Y0224500D03*
X0243000Y0224500D03*
X0239000Y0224500D03*
X0235000Y0224500D03*
M02*