G04 EAGLE Gerber RS-274X export*
G75*
%MOMM*%
%FSLAX34Y34*%
%LPD*%
%INSolder side*%
%IPPOS*%
%AMOC8*
5,1,8,0,0,$1,22.5*%
G01*
%ADD10R,0.635X1.27*%
%ADD11C,0.7564*%
%ADD12C,0.13*%
%ADD13C,0.15*%
%ADD14C,0.3*%
G36*
X0238248Y0154007D02*
X0238248Y0154007D01*
X0238299Y0154004D01*
X0238419Y0154027D01*
X0238540Y0154041D01*
X0238588Y0154058D01*
X0238640Y0154068D01*
X0238751Y0154117D01*
X0238864Y0154158D01*
X0238909Y0154187D01*
X0238956Y0154208D01*
X0239053Y0154281D01*
X0239153Y0154347D01*
X0239191Y0154385D01*
X0239232Y0154416D01*
X0239309Y0154509D01*
X0239393Y0154597D01*
X0239420Y0154642D01*
X0239453Y0154682D01*
X0239506Y0154791D01*
X0239568Y0154895D01*
X0239583Y0154945D01*
X0239607Y0154992D01*
X0239634Y0155110D01*
X0239670Y0155226D01*
X0239673Y0155278D01*
X0239686Y0155329D01*
X0239686Y0155450D01*
X0239694Y0155571D01*
X0239685Y0155622D01*
X0239685Y0155674D01*
X0239656Y0155792D01*
X0239638Y0155912D01*
X0239618Y0155960D01*
X0239606Y0156011D01*
X0239551Y0156119D01*
X0239504Y0156231D01*
X0239474Y0156273D01*
X0239451Y0156320D01*
X0239374Y0156413D01*
X0239303Y0156511D01*
X0239262Y0156546D01*
X0239230Y0156586D01*
X0239133Y0156659D01*
X0239042Y0156738D01*
X0238995Y0156762D01*
X0238954Y0156794D01*
X0238770Y0156885D01*
X0236786Y0157707D01*
X0232706Y0161786D01*
X0230499Y0167116D01*
X0230499Y0172884D01*
X0232706Y0178214D01*
X0236786Y0182292D01*
X0242116Y0184501D01*
X0247884Y0184501D01*
X0253214Y0182292D01*
X0257293Y0178214D01*
X0259501Y0172884D01*
X0259501Y0167116D01*
X0257293Y0161786D01*
X0253214Y0157707D01*
X0251229Y0156885D01*
X0251184Y0156860D01*
X0251135Y0156842D01*
X0251034Y0156776D01*
X0250928Y0156717D01*
X0250889Y0156682D01*
X0250846Y0156653D01*
X0250762Y0156565D01*
X0250673Y0156484D01*
X0250643Y0156441D01*
X0250607Y0156403D01*
X0250546Y0156298D01*
X0250477Y0156199D01*
X0250458Y0156150D01*
X0250432Y0156105D01*
X0250396Y0155989D01*
X0250353Y0155876D01*
X0250345Y0155824D01*
X0250330Y0155774D01*
X0250322Y0155653D01*
X0250305Y0155534D01*
X0250310Y0155482D01*
X0250306Y0155429D01*
X0250326Y0155310D01*
X0250337Y0155189D01*
X0250354Y0155140D01*
X0250362Y0155088D01*
X0250409Y0154976D01*
X0250447Y0154862D01*
X0250475Y0154817D01*
X0250495Y0154769D01*
X0250566Y0154671D01*
X0250629Y0154568D01*
X0250666Y0154531D01*
X0250696Y0154489D01*
X0250789Y0154409D01*
X0250874Y0154324D01*
X0250919Y0154296D01*
X0250958Y0154262D01*
X0251066Y0154205D01*
X0251167Y0154142D01*
X0251218Y0154126D01*
X0251264Y0154101D01*
X0251381Y0154071D01*
X0251496Y0154033D01*
X0251548Y0154028D01*
X0251599Y0154015D01*
X0251804Y0154001D01*
X0295000Y0154001D01*
X0295035Y0154005D01*
X0295071Y0154002D01*
X0295207Y0154025D01*
X0295343Y0154041D01*
X0295377Y0154053D01*
X0295412Y0154058D01*
X0295539Y0154111D01*
X0295669Y0154158D01*
X0295698Y0154177D01*
X0295731Y0154191D01*
X0295843Y0154272D01*
X0295958Y0154347D01*
X0295983Y0154373D01*
X0296011Y0154393D01*
X0296102Y0154497D01*
X0296197Y0154597D01*
X0296215Y0154628D01*
X0296238Y0154654D01*
X0296302Y0154777D01*
X0296372Y0154895D01*
X0296382Y0154929D01*
X0296399Y0154961D01*
X0296433Y0155094D01*
X0296474Y0155226D01*
X0296476Y0155261D01*
X0296485Y0155295D01*
X0296499Y0155500D01*
X0296499Y0165000D01*
X0296495Y0165035D01*
X0296498Y0165071D01*
X0296475Y0165207D01*
X0296459Y0165343D01*
X0296447Y0165377D01*
X0296442Y0165412D01*
X0296389Y0165539D01*
X0296342Y0165669D01*
X0296323Y0165698D01*
X0296309Y0165731D01*
X0296228Y0165843D01*
X0296153Y0165958D01*
X0296127Y0165983D01*
X0296107Y0166011D01*
X0296003Y0166102D01*
X0295903Y0166197D01*
X0295872Y0166215D01*
X0295846Y0166238D01*
X0295723Y0166301D01*
X0295605Y0166372D01*
X0295571Y0166382D01*
X0295539Y0166399D01*
X0295406Y0166433D01*
X0295274Y0166474D01*
X0295239Y0166476D01*
X0295205Y0166484D01*
X0295000Y0166499D01*
X0283298Y0166499D01*
X0283160Y0166483D01*
X0283021Y0166473D01*
X0282988Y0166463D01*
X0282955Y0166459D01*
X0282824Y0166412D01*
X0282690Y0166371D01*
X0282661Y0166353D01*
X0282630Y0166342D01*
X0282513Y0166266D01*
X0282393Y0166195D01*
X0282359Y0166164D01*
X0282340Y0166153D01*
X0282317Y0166129D01*
X0282286Y0166102D01*
X0280150Y0165217D01*
X0277850Y0165217D01*
X0275724Y0166098D01*
X0274098Y0167724D01*
X0273217Y0169850D01*
X0273217Y0172150D01*
X0273347Y0172464D01*
X0273371Y0172548D01*
X0273405Y0172629D01*
X0273418Y0172714D01*
X0273442Y0172796D01*
X0273446Y0172884D01*
X0273460Y0172971D01*
X0273454Y0173055D01*
X0273458Y0173142D01*
X0273442Y0173228D01*
X0273435Y0173314D01*
X0273410Y0173397D01*
X0273394Y0173481D01*
X0273359Y0173562D01*
X0273333Y0173646D01*
X0273289Y0173720D01*
X0273254Y0173798D01*
X0273202Y0173868D01*
X0273157Y0173943D01*
X0273063Y0174052D01*
X0273046Y0174074D01*
X0273036Y0174082D01*
X0273022Y0174098D01*
X0256499Y0190621D01*
X0256499Y0239379D01*
X0266060Y0248939D01*
X0266135Y0249035D01*
X0266150Y0249050D01*
X0266154Y0249058D01*
X0266238Y0249153D01*
X0266254Y0249183D01*
X0266275Y0249211D01*
X0266334Y0249337D01*
X0266399Y0249461D01*
X0266407Y0249493D01*
X0266422Y0249524D01*
X0266450Y0249660D01*
X0266485Y0249795D01*
X0266488Y0249840D01*
X0266493Y0249862D01*
X0266492Y0249896D01*
X0266499Y0250000D01*
X0266499Y0270000D01*
X0266483Y0270138D01*
X0266473Y0270278D01*
X0266463Y0270310D01*
X0266459Y0270343D01*
X0266412Y0270474D01*
X0266371Y0270608D01*
X0266353Y0270637D01*
X0266342Y0270669D01*
X0266266Y0270785D01*
X0266195Y0270905D01*
X0266165Y0270940D01*
X0266153Y0270958D01*
X0266129Y0270982D01*
X0266060Y0271060D01*
X0256499Y0280621D01*
X0256499Y0309379D01*
X0280621Y0333501D01*
X0295000Y0333501D01*
X0295035Y0333504D01*
X0295071Y0333502D01*
X0295207Y0333525D01*
X0295343Y0333541D01*
X0295377Y0333553D01*
X0295412Y0333558D01*
X0295539Y0333611D01*
X0295669Y0333658D01*
X0295698Y0333678D01*
X0295731Y0333691D01*
X0295843Y0333772D01*
X0295958Y0333846D01*
X0295983Y0333872D01*
X0296011Y0333893D01*
X0296102Y0333998D01*
X0296197Y0334097D01*
X0296215Y0334128D01*
X0296238Y0334154D01*
X0296302Y0334277D01*
X0296372Y0334394D01*
X0296382Y0334429D01*
X0296399Y0334461D01*
X0296433Y0334594D01*
X0296474Y0334726D01*
X0296476Y0334761D01*
X0296485Y0334795D01*
X0296499Y0335000D01*
X0296499Y0344500D01*
X0296495Y0344535D01*
X0296498Y0344570D01*
X0296475Y0344707D01*
X0296459Y0344843D01*
X0296447Y0344877D01*
X0296442Y0344912D01*
X0296389Y0345039D01*
X0296342Y0345169D01*
X0296323Y0345198D01*
X0296309Y0345231D01*
X0296228Y0345343D01*
X0296153Y0345458D01*
X0296127Y0345483D01*
X0296107Y0345511D01*
X0296003Y0345601D01*
X0295903Y0345697D01*
X0295872Y0345715D01*
X0295846Y0345738D01*
X0295723Y0345802D01*
X0295605Y0345871D01*
X0295571Y0345882D01*
X0295539Y0345899D01*
X0295406Y0345933D01*
X0295274Y0345974D01*
X0295239Y0345976D01*
X0295205Y0345985D01*
X0295000Y0345999D01*
X0251804Y0345999D01*
X0251752Y0345993D01*
X0251700Y0345995D01*
X0251580Y0345973D01*
X0251460Y0345959D01*
X0251411Y0345942D01*
X0251360Y0345931D01*
X0251249Y0345883D01*
X0251135Y0345841D01*
X0251090Y0345813D01*
X0251043Y0345792D01*
X0250947Y0345719D01*
X0250846Y0345653D01*
X0250809Y0345614D01*
X0250768Y0345584D01*
X0250690Y0345490D01*
X0250607Y0345403D01*
X0250581Y0345357D01*
X0250547Y0345318D01*
X0250493Y0345209D01*
X0250432Y0345105D01*
X0250417Y0345055D01*
X0250393Y0345008D01*
X0250366Y0344890D01*
X0250330Y0344774D01*
X0250326Y0344722D01*
X0250313Y0344671D01*
X0250315Y0344550D01*
X0250306Y0344429D01*
X0250315Y0344377D01*
X0250315Y0344326D01*
X0250343Y0344208D01*
X0250362Y0344088D01*
X0250382Y0344039D01*
X0250394Y0343989D01*
X0250448Y0343881D01*
X0250495Y0343769D01*
X0250525Y0343726D01*
X0250549Y0343679D01*
X0250626Y0343587D01*
X0250696Y0343489D01*
X0250737Y0343454D01*
X0250769Y0343414D01*
X0250867Y0343341D01*
X0250958Y0343262D01*
X0251005Y0343238D01*
X0251045Y0343206D01*
X0251229Y0343114D01*
X0253214Y0342292D01*
X0257293Y0338213D01*
X0259501Y0332883D01*
X0259501Y0327116D01*
X0257293Y0321786D01*
X0253214Y0317707D01*
X0247884Y0315499D01*
X0242116Y0315499D01*
X0236786Y0317707D01*
X0232706Y0321786D01*
X0230499Y0327116D01*
X0230499Y0332883D01*
X0232706Y0338213D01*
X0236786Y0342292D01*
X0238770Y0343114D01*
X0238816Y0343140D01*
X0238864Y0343157D01*
X0238966Y0343224D01*
X0239072Y0343283D01*
X0239110Y0343318D01*
X0239153Y0343347D01*
X0239238Y0343434D01*
X0239327Y0343516D01*
X0239357Y0343559D01*
X0239393Y0343597D01*
X0239454Y0343701D01*
X0239523Y0343801D01*
X0239542Y0343850D01*
X0239568Y0343895D01*
X0239604Y0344011D01*
X0239647Y0344124D01*
X0239655Y0344176D01*
X0239670Y0344226D01*
X0239678Y0344346D01*
X0239695Y0344466D01*
X0239690Y0344518D01*
X0239694Y0344570D01*
X0239673Y0344690D01*
X0239663Y0344811D01*
X0239646Y0344860D01*
X0239638Y0344912D01*
X0239591Y0345024D01*
X0239553Y0345138D01*
X0239525Y0345182D01*
X0239504Y0345231D01*
X0239434Y0345329D01*
X0239369Y0345432D01*
X0239333Y0345469D01*
X0239303Y0345511D01*
X0239212Y0345591D01*
X0239125Y0345676D01*
X0239080Y0345704D01*
X0239042Y0345738D01*
X0238935Y0345794D01*
X0238832Y0345858D01*
X0238782Y0345875D01*
X0238736Y0345899D01*
X0238618Y0345929D01*
X0238504Y0345967D01*
X0238451Y0345972D01*
X0238401Y0345985D01*
X0238196Y0345999D01*
X0195000Y0345999D01*
X0194965Y0345995D01*
X0194929Y0345998D01*
X0194793Y0345974D01*
X0194656Y0345959D01*
X0194623Y0345947D01*
X0194588Y0345942D01*
X0194461Y0345888D01*
X0194331Y0345841D01*
X0194302Y0345823D01*
X0194269Y0345809D01*
X0194157Y0345728D01*
X0194042Y0345653D01*
X0194016Y0345627D01*
X0193989Y0345607D01*
X0193898Y0345503D01*
X0193802Y0345403D01*
X0193785Y0345372D01*
X0193762Y0345346D01*
X0193697Y0345223D01*
X0193628Y0345105D01*
X0193618Y0345071D01*
X0193601Y0345039D01*
X0193567Y0344906D01*
X0193526Y0344774D01*
X0193524Y0344739D01*
X0193515Y0344705D01*
X0193501Y0344500D01*
X0193501Y0335000D01*
X0193505Y0334965D01*
X0193502Y0334929D01*
X0193525Y0334792D01*
X0193541Y0334657D01*
X0193553Y0334623D01*
X0193558Y0334587D01*
X0193611Y0334461D01*
X0193658Y0334330D01*
X0193678Y0334302D01*
X0193691Y0334269D01*
X0193772Y0334157D01*
X0193847Y0334042D01*
X0193873Y0334017D01*
X0193893Y0333989D01*
X0193998Y0333898D01*
X0194097Y0333803D01*
X0194128Y0333785D01*
X0194153Y0333762D01*
X0194277Y0333698D01*
X0194395Y0333628D01*
X0194429Y0333618D01*
X0194461Y0333601D01*
X0194594Y0333567D01*
X0194726Y0333525D01*
X0194761Y0333524D01*
X0194795Y0333515D01*
X0195000Y0333501D01*
X0209379Y0333501D01*
X0233500Y0309379D01*
X0233500Y0280621D01*
X0223939Y0271060D01*
X0223854Y0270951D01*
X0223762Y0270846D01*
X0223746Y0270816D01*
X0223725Y0270789D01*
X0223665Y0270663D01*
X0223601Y0270539D01*
X0223593Y0270507D01*
X0223578Y0270476D01*
X0223550Y0270340D01*
X0223515Y0270205D01*
X0223512Y0270160D01*
X0223507Y0270138D01*
X0223508Y0270104D01*
X0223501Y0270000D01*
X0223501Y0250000D01*
X0223517Y0249862D01*
X0223527Y0249722D01*
X0223537Y0249690D01*
X0223541Y0249656D01*
X0223588Y0249526D01*
X0223629Y0249392D01*
X0223647Y0249363D01*
X0223658Y0249331D01*
X0223734Y0249215D01*
X0223804Y0249095D01*
X0223834Y0249060D01*
X0223847Y0249042D01*
X0223871Y0249018D01*
X0223939Y0248939D01*
X0233500Y0239379D01*
X0233500Y0190630D01*
X0216887Y0174355D01*
X0216827Y0174281D01*
X0216760Y0174213D01*
X0216718Y0174147D01*
X0216668Y0174086D01*
X0216628Y0174001D01*
X0216578Y0173919D01*
X0216553Y0173845D01*
X0216519Y0173775D01*
X0216499Y0173682D01*
X0216468Y0173592D01*
X0216461Y0173513D01*
X0216444Y0173436D01*
X0216446Y0173342D01*
X0216437Y0173247D01*
X0216448Y0173170D01*
X0216449Y0173092D01*
X0216471Y0172999D01*
X0216484Y0172905D01*
X0216525Y0172787D01*
X0216533Y0172756D01*
X0216540Y0172741D01*
X0216551Y0172710D01*
X0216783Y0172150D01*
X0216783Y0169850D01*
X0215902Y0167724D01*
X0214275Y0166098D01*
X0212150Y0165217D01*
X0209850Y0165217D01*
X0207704Y0166106D01*
X0207653Y0166147D01*
X0207547Y0166238D01*
X0207517Y0166254D01*
X0207491Y0166275D01*
X0207365Y0166334D01*
X0207241Y0166399D01*
X0207208Y0166407D01*
X0207178Y0166422D01*
X0207042Y0166450D01*
X0206906Y0166484D01*
X0206862Y0166488D01*
X0206840Y0166493D01*
X0206805Y0166492D01*
X0206702Y0166499D01*
X0195000Y0166499D01*
X0194965Y0166495D01*
X0194929Y0166498D01*
X0194793Y0166475D01*
X0194656Y0166459D01*
X0194623Y0166447D01*
X0194588Y0166442D01*
X0194461Y0166389D01*
X0194331Y0166342D01*
X0194302Y0166323D01*
X0194269Y0166309D01*
X0194157Y0166228D01*
X0194042Y0166153D01*
X0194016Y0166127D01*
X0193989Y0166107D01*
X0193898Y0166003D01*
X0193802Y0165903D01*
X0193785Y0165872D01*
X0193762Y0165846D01*
X0193697Y0165722D01*
X0193628Y0165605D01*
X0193618Y0165570D01*
X0193601Y0165539D01*
X0193567Y0165406D01*
X0193526Y0165274D01*
X0193524Y0165239D01*
X0193515Y0165204D01*
X0193501Y0165000D01*
X0193501Y0155500D01*
X0193505Y0155465D01*
X0193502Y0155429D01*
X0193525Y0155293D01*
X0193541Y0155157D01*
X0193553Y0155123D01*
X0193558Y0155088D01*
X0193611Y0154961D01*
X0193658Y0154831D01*
X0193678Y0154802D01*
X0193691Y0154769D01*
X0193772Y0154657D01*
X0193847Y0154542D01*
X0193873Y0154517D01*
X0193893Y0154489D01*
X0193998Y0154398D01*
X0194097Y0154303D01*
X0194128Y0154285D01*
X0194153Y0154262D01*
X0194277Y0154198D01*
X0194395Y0154128D01*
X0194429Y0154118D01*
X0194461Y0154101D01*
X0194594Y0154067D01*
X0194726Y0154026D01*
X0194761Y0154024D01*
X0194795Y0154015D01*
X0195000Y0154001D01*
X0238196Y0154001D01*
X0238248Y0154007D01*
G37*
D10*
X0176936Y0295000D03*
X0185064Y0295000D03*
X0176936Y0275000D03*
X0185064Y0275000D03*
X0176936Y0255000D03*
X0185064Y0255000D03*
X0176936Y0235000D03*
X0185064Y0235000D03*
X0176936Y0215000D03*
X0185064Y0215000D03*
D11*
X0245000Y0260000D03*
X0256000Y0252000D03*
X0235000Y0270000D03*
D12*
X0168480Y0161955D02*
X0176472Y0157341D01*
X0168480Y0161955D02*
X0161955Y0168480D01*
X0157341Y0176472D01*
X0154952Y0185386D01*
X0154650Y0190000D01*
X0154650Y0310000D01*
X0154952Y0314614D01*
X0157341Y0323528D01*
X0161955Y0331520D01*
X0168480Y0338045D01*
X0176472Y0342659D01*
X0185386Y0345048D01*
X0190000Y0345349D01*
X0300000Y0345349D01*
X0304614Y0345048D01*
X0313528Y0342659D01*
X0321520Y0338045D01*
X0328045Y0331520D01*
X0332659Y0323528D01*
X0335048Y0314614D01*
X0335349Y0310000D01*
X0335349Y0190000D01*
X0335048Y0185386D01*
X0332659Y0176472D01*
X0328045Y0168480D01*
X0321520Y0161955D01*
X0313528Y0157341D01*
X0304614Y0154952D01*
X0300000Y0154650D01*
X0190000Y0154650D01*
X0185386Y0154952D01*
X0176472Y0157341D01*
X0321432Y0283721D02*
X0321432Y0286279D01*
X0320453Y0288643D01*
X0318643Y0290453D01*
X0316279Y0291432D01*
X0313721Y0291432D01*
X0311357Y0290453D01*
X0309547Y0288643D01*
X0308568Y0286279D01*
X0308568Y0283721D01*
X0308828Y0283093D01*
X0298216Y0273675D01*
X0298124Y0273675D01*
X0297398Y0272949D01*
X0296631Y0272268D01*
X0296625Y0272176D01*
X0296560Y0272111D01*
X0296560Y0271084D01*
X0296499Y0270060D01*
X0296560Y0269991D01*
X0296560Y0208336D01*
X0289594Y0201370D01*
X0281756Y0201370D01*
X0281353Y0202343D01*
X0279543Y0204153D01*
X0277179Y0205132D01*
X0274621Y0205132D01*
X0272257Y0204153D01*
X0270447Y0202343D01*
X0269468Y0199979D01*
X0269468Y0197421D01*
X0270447Y0195057D01*
X0272257Y0193247D01*
X0274621Y0192268D01*
X0277179Y0192268D01*
X0279543Y0193247D01*
X0281270Y0194974D01*
X0280568Y0193279D01*
X0280568Y0191312D01*
X0280279Y0191432D01*
X0277721Y0191432D01*
X0275357Y0190453D01*
X0273547Y0188643D01*
X0272568Y0186279D01*
X0272568Y0183721D01*
X0273547Y0181357D01*
X0275357Y0179547D01*
X0277721Y0178568D01*
X0280279Y0178568D01*
X0280568Y0178688D01*
X0280568Y0177312D01*
X0280279Y0177432D01*
X0277721Y0177432D01*
X0275357Y0176453D01*
X0273547Y0174643D01*
X0272568Y0172278D01*
X0272568Y0169721D01*
X0273547Y0167357D01*
X0275357Y0165547D01*
X0277721Y0164568D01*
X0280279Y0164568D01*
X0282643Y0165547D01*
X0284453Y0167357D01*
X0284856Y0168329D01*
X0292106Y0168329D01*
X0316106Y0192330D01*
X0317670Y0193894D01*
X0317670Y0199144D01*
X0318643Y0199547D01*
X0320453Y0201357D01*
X0321432Y0203721D01*
X0321432Y0206279D01*
X0320453Y0208643D01*
X0318643Y0210453D01*
X0316279Y0211432D01*
X0313721Y0211432D01*
X0311357Y0210453D01*
X0310670Y0209766D01*
X0310670Y0219894D01*
X0310840Y0220064D01*
X0311357Y0219547D01*
X0313721Y0218568D01*
X0316279Y0218568D01*
X0318643Y0219547D01*
X0320453Y0221357D01*
X0321432Y0223721D01*
X0321432Y0226279D01*
X0320453Y0228643D01*
X0318643Y0230452D01*
X0316279Y0231432D01*
X0313721Y0231432D01*
X0311357Y0230452D01*
X0309547Y0228643D01*
X0308568Y0226279D01*
X0308568Y0225343D01*
X0307670Y0224446D01*
X0307670Y0235416D01*
X0312205Y0239196D01*
X0313721Y0238568D01*
X0316279Y0238568D01*
X0318643Y0239547D01*
X0320453Y0241357D01*
X0321432Y0243721D01*
X0321432Y0246279D01*
X0320453Y0248643D01*
X0318643Y0250452D01*
X0316279Y0251432D01*
X0313721Y0251432D01*
X0311357Y0250452D01*
X0309547Y0248643D01*
X0308568Y0246279D01*
X0308568Y0243721D01*
X0308754Y0243271D01*
X0304900Y0240059D01*
X0304900Y0252738D01*
X0312316Y0259150D01*
X0313721Y0258568D01*
X0316279Y0258568D01*
X0318643Y0259547D01*
X0320453Y0261357D01*
X0321432Y0263721D01*
X0321432Y0266279D01*
X0320453Y0268643D01*
X0318643Y0270453D01*
X0316279Y0271432D01*
X0313721Y0271432D01*
X0311357Y0270453D01*
X0309547Y0268643D01*
X0308568Y0266279D01*
X0308568Y0263721D01*
X0308797Y0263167D01*
X0301900Y0257203D01*
X0301900Y0269805D01*
X0312394Y0279118D01*
X0313721Y0278568D01*
X0316279Y0278568D01*
X0318643Y0279547D01*
X0320453Y0281357D01*
X0321432Y0283721D01*
X0204432Y0276279D02*
X0204432Y0273721D01*
X0204432Y0276279D02*
X0203453Y0278643D01*
X0201643Y0280453D01*
X0199279Y0281432D01*
X0196721Y0281432D01*
X0194357Y0280453D01*
X0192547Y0278643D01*
X0192144Y0277670D01*
X0190889Y0277670D01*
X0190889Y0282448D01*
X0189337Y0284000D01*
X0187734Y0284000D01*
X0187734Y0286000D01*
X0189337Y0286000D01*
X0190889Y0287552D01*
X0190889Y0302448D01*
X0189337Y0304000D01*
X0172663Y0304000D01*
X0171111Y0302448D01*
X0171111Y0299314D01*
X0170547Y0298750D01*
X0169568Y0296386D01*
X0169568Y0293828D01*
X0170547Y0291464D01*
X0171111Y0290900D01*
X0171111Y0289951D01*
X0159644Y0278484D01*
X0158080Y0276920D01*
X0158080Y0204452D01*
X0159644Y0202888D01*
X0159644Y0202888D01*
X0192638Y0169894D01*
X0192638Y0169894D01*
X0194202Y0168329D01*
X0205144Y0168329D01*
X0205547Y0167357D01*
X0207357Y0165547D01*
X0209721Y0164568D01*
X0212278Y0164568D01*
X0214643Y0165547D01*
X0216453Y0167357D01*
X0217432Y0169721D01*
X0217432Y0172278D01*
X0216453Y0174643D01*
X0214643Y0176453D01*
X0212278Y0177432D01*
X0209721Y0177432D01*
X0209432Y0177312D01*
X0209432Y0178688D01*
X0209721Y0178568D01*
X0212278Y0178568D01*
X0214643Y0179547D01*
X0216453Y0181357D01*
X0217432Y0183721D01*
X0217432Y0186279D01*
X0216453Y0188643D01*
X0214643Y0190453D01*
X0212278Y0191432D01*
X0209721Y0191432D01*
X0209432Y0191312D01*
X0209432Y0193279D01*
X0208453Y0195643D01*
X0206643Y0197453D01*
X0204279Y0198432D01*
X0201721Y0198432D01*
X0199357Y0197453D01*
X0197547Y0195643D01*
X0197144Y0194670D01*
X0187166Y0194670D01*
X0175836Y0206000D01*
X0189337Y0206000D01*
X0190889Y0207552D01*
X0190889Y0222447D01*
X0189337Y0224000D01*
X0187734Y0224000D01*
X0187734Y0226000D01*
X0189337Y0226000D01*
X0190889Y0227552D01*
X0190889Y0242447D01*
X0189337Y0244000D01*
X0187734Y0244000D01*
X0187734Y0246000D01*
X0189337Y0246000D01*
X0190889Y0247552D01*
X0190889Y0262448D01*
X0189337Y0264000D01*
X0187734Y0264000D01*
X0187734Y0266000D01*
X0189337Y0266000D01*
X0190889Y0267552D01*
X0190889Y0272330D01*
X0192144Y0272330D01*
X0192547Y0271357D01*
X0194357Y0269547D01*
X0196721Y0268568D01*
X0199279Y0268568D01*
X0201643Y0269547D01*
X0203453Y0271357D01*
X0204432Y0273721D01*
X0260150Y0326986D02*
X0260150Y0333014D01*
X0257843Y0338581D01*
X0253582Y0342844D01*
X0248014Y0345150D01*
X0241986Y0345150D01*
X0236418Y0342844D01*
X0232156Y0338581D01*
X0229850Y0333014D01*
X0229850Y0326986D01*
X0232156Y0321418D01*
X0236418Y0317156D01*
X0241986Y0314850D01*
X0248014Y0314850D01*
X0253582Y0317156D01*
X0257843Y0321418D01*
X0260150Y0326986D01*
X0260150Y0173014D02*
X0260150Y0166986D01*
X0260150Y0173014D02*
X0257843Y0178582D01*
X0253582Y0182844D01*
X0248014Y0185150D01*
X0241986Y0185150D01*
X0236418Y0182844D01*
X0232156Y0178582D01*
X0229850Y0173014D01*
X0229850Y0166986D01*
X0232156Y0161418D01*
X0236418Y0157156D01*
X0241986Y0154850D01*
X0248014Y0154850D01*
X0253582Y0157156D01*
X0257843Y0161418D01*
X0260150Y0166986D01*
X0236796Y0157000D02*
X0177744Y0157000D01*
X0253204Y0157000D02*
X0312256Y0157000D01*
X0233074Y0160500D02*
X0171000Y0160500D01*
X0256925Y0160500D02*
X0319000Y0160500D01*
X0231087Y0164000D02*
X0166435Y0164000D01*
X0258913Y0164000D02*
X0323564Y0164000D01*
X0205488Y0167500D02*
X0162935Y0167500D01*
X0216512Y0167500D02*
X0229850Y0167500D01*
X0260150Y0167500D02*
X0273488Y0167500D01*
X0284512Y0167500D02*
X0327065Y0167500D01*
X0191531Y0171000D02*
X0160500Y0171000D01*
X0217432Y0171000D02*
X0229850Y0171000D01*
X0260150Y0171000D02*
X0272568Y0171000D01*
X0294776Y0171000D02*
X0329500Y0171000D01*
X0188032Y0174500D02*
X0158479Y0174500D01*
X0216512Y0174500D02*
X0230465Y0174500D01*
X0259534Y0174500D02*
X0273488Y0174500D01*
X0298276Y0174500D02*
X0331521Y0174500D01*
X0184532Y0178000D02*
X0156931Y0178000D01*
X0209432Y0178000D02*
X0231914Y0178000D01*
X0258085Y0178000D02*
X0280568Y0178000D01*
X0301776Y0178000D02*
X0333069Y0178000D01*
X0181032Y0181500D02*
X0155994Y0181500D01*
X0216512Y0181500D02*
X0235075Y0181500D01*
X0254925Y0181500D02*
X0273488Y0181500D01*
X0305276Y0181500D02*
X0334006Y0181500D01*
X0177532Y0185000D02*
X0155056Y0185000D01*
X0217432Y0185000D02*
X0241623Y0185000D01*
X0248376Y0185000D02*
X0272568Y0185000D01*
X0308776Y0185000D02*
X0334944Y0185000D01*
X0174031Y0188500D02*
X0154748Y0188500D01*
X0216512Y0188500D02*
X0273488Y0188500D01*
X0312276Y0188500D02*
X0335252Y0188500D01*
X0170532Y0192000D02*
X0154650Y0192000D01*
X0209432Y0192000D02*
X0280568Y0192000D01*
X0315776Y0192000D02*
X0335349Y0192000D01*
X0167032Y0195500D02*
X0154650Y0195500D01*
X0186336Y0195500D02*
X0197488Y0195500D01*
X0208512Y0195500D02*
X0270264Y0195500D01*
X0317670Y0195500D02*
X0335349Y0195500D01*
X0163532Y0199000D02*
X0154650Y0199000D01*
X0182836Y0199000D02*
X0269468Y0199000D01*
X0317670Y0199000D02*
X0335349Y0199000D01*
X0160032Y0202500D02*
X0154650Y0202500D01*
X0179335Y0202500D02*
X0270604Y0202500D01*
X0281196Y0202500D02*
X0290724Y0202500D01*
X0320926Y0202500D02*
X0335349Y0202500D01*
X0158080Y0206000D02*
X0154650Y0206000D01*
X0189337Y0206000D02*
X0294224Y0206000D01*
X0321432Y0206000D02*
X0335349Y0206000D01*
X0158080Y0209500D02*
X0154650Y0209500D01*
X0190889Y0209500D02*
X0296560Y0209500D01*
X0319596Y0209500D02*
X0335349Y0209500D01*
X0158080Y0213000D02*
X0154650Y0213000D01*
X0190889Y0213000D02*
X0296560Y0213000D01*
X0310670Y0213000D02*
X0335349Y0213000D01*
X0158080Y0216500D02*
X0154650Y0216500D01*
X0190889Y0216500D02*
X0296560Y0216500D01*
X0310670Y0216500D02*
X0335349Y0216500D01*
X0158080Y0220000D02*
X0154650Y0220000D01*
X0190889Y0220000D02*
X0296560Y0220000D01*
X0310776Y0220000D02*
X0310904Y0220000D01*
X0319096Y0220000D02*
X0335349Y0220000D01*
X0158080Y0223500D02*
X0154650Y0223500D01*
X0189837Y0223500D02*
X0296560Y0223500D01*
X0321341Y0223500D02*
X0335349Y0223500D01*
X0158080Y0227000D02*
X0154650Y0227000D01*
X0190337Y0227000D02*
X0296560Y0227000D01*
X0307670Y0227000D02*
X0308867Y0227000D01*
X0321134Y0227000D02*
X0335349Y0227000D01*
X0158080Y0230500D02*
X0154650Y0230500D01*
X0190889Y0230500D02*
X0296560Y0230500D01*
X0307670Y0230500D02*
X0311471Y0230500D01*
X0318529Y0230500D02*
X0335349Y0230500D01*
X0158080Y0234000D02*
X0154650Y0234000D01*
X0190889Y0234000D02*
X0296560Y0234000D01*
X0307670Y0234000D02*
X0335349Y0234000D01*
X0158080Y0237500D02*
X0154650Y0237500D01*
X0190889Y0237500D02*
X0296560Y0237500D01*
X0310171Y0237500D02*
X0335349Y0237500D01*
X0158080Y0241000D02*
X0154650Y0241000D01*
X0190889Y0241000D02*
X0296560Y0241000D01*
X0304900Y0241000D02*
X0306029Y0241000D01*
X0320096Y0241000D02*
X0335349Y0241000D01*
X0158080Y0244500D02*
X0154650Y0244500D01*
X0187734Y0244500D02*
X0296560Y0244500D01*
X0304900Y0244500D02*
X0308568Y0244500D01*
X0321432Y0244500D02*
X0335349Y0244500D01*
X0158080Y0248000D02*
X0154650Y0248000D01*
X0190889Y0248000D02*
X0296560Y0248000D01*
X0304900Y0248000D02*
X0309281Y0248000D01*
X0320719Y0248000D02*
X0335349Y0248000D01*
X0158080Y0251500D02*
X0154650Y0251500D01*
X0190889Y0251500D02*
X0296560Y0251500D01*
X0304900Y0251500D02*
X0335349Y0251500D01*
X0158080Y0255000D02*
X0154650Y0255000D01*
X0190889Y0255000D02*
X0296560Y0255000D01*
X0307516Y0255000D02*
X0335349Y0255000D01*
X0158080Y0258500D02*
X0154650Y0258500D01*
X0190889Y0258500D02*
X0296560Y0258500D01*
X0301900Y0258500D02*
X0303400Y0258500D01*
X0311564Y0258500D02*
X0335349Y0258500D01*
X0158080Y0262000D02*
X0154650Y0262000D01*
X0190889Y0262000D02*
X0296560Y0262000D01*
X0301900Y0262000D02*
X0307448Y0262000D01*
X0320719Y0262000D02*
X0335349Y0262000D01*
X0158080Y0265500D02*
X0154650Y0265500D01*
X0187734Y0265500D02*
X0296560Y0265500D01*
X0301900Y0265500D02*
X0308568Y0265500D01*
X0321432Y0265500D02*
X0335349Y0265500D01*
X0158080Y0269000D02*
X0154650Y0269000D01*
X0190889Y0269000D02*
X0195677Y0269000D01*
X0200322Y0269000D02*
X0296560Y0269000D01*
X0301900Y0269000D02*
X0309904Y0269000D01*
X0320096Y0269000D02*
X0335349Y0269000D01*
X0158080Y0272500D02*
X0154650Y0272500D01*
X0203926Y0272500D02*
X0296892Y0272500D01*
X0304937Y0272500D02*
X0335349Y0272500D01*
X0158080Y0276000D02*
X0154650Y0276000D01*
X0204432Y0276000D02*
X0300836Y0276000D01*
X0308881Y0276000D02*
X0335349Y0276000D01*
X0160660Y0279500D02*
X0154650Y0279500D01*
X0190889Y0279500D02*
X0193404Y0279500D01*
X0202596Y0279500D02*
X0304780Y0279500D01*
X0318529Y0279500D02*
X0335349Y0279500D01*
X0164160Y0283000D02*
X0154650Y0283000D01*
X0190337Y0283000D02*
X0308724Y0283000D01*
X0321132Y0283000D02*
X0335349Y0283000D01*
X0167659Y0286500D02*
X0154650Y0286500D01*
X0189837Y0286500D02*
X0308659Y0286500D01*
X0321341Y0286500D02*
X0335349Y0286500D01*
X0171111Y0290000D02*
X0154650Y0290000D01*
X0190889Y0290000D02*
X0310904Y0290000D01*
X0319096Y0290000D02*
X0335349Y0290000D01*
X0169704Y0293500D02*
X0154650Y0293500D01*
X0190889Y0293500D02*
X0335349Y0293500D01*
X0169822Y0297000D02*
X0154650Y0297000D01*
X0190889Y0297000D02*
X0335349Y0297000D01*
X0171111Y0300500D02*
X0154650Y0300500D01*
X0190889Y0300500D02*
X0335349Y0300500D01*
X0335349Y0304000D02*
X0154650Y0304000D01*
X0154650Y0307500D02*
X0335349Y0307500D01*
X0335284Y0311000D02*
X0154716Y0311000D01*
X0154945Y0314500D02*
X0335055Y0314500D01*
X0235574Y0318000D02*
X0155860Y0318000D01*
X0254425Y0318000D02*
X0334140Y0318000D01*
X0232123Y0321500D02*
X0156797Y0321500D01*
X0257877Y0321500D02*
X0333202Y0321500D01*
X0230673Y0325000D02*
X0158191Y0325000D01*
X0259327Y0325000D02*
X0331809Y0325000D01*
X0229850Y0328500D02*
X0160212Y0328500D01*
X0260150Y0328500D02*
X0329788Y0328500D01*
X0229850Y0332000D02*
X0162435Y0332000D01*
X0260150Y0332000D02*
X0327565Y0332000D01*
X0230880Y0335500D02*
X0165935Y0335500D01*
X0259120Y0335500D02*
X0324065Y0335500D01*
X0232575Y0339000D02*
X0170134Y0339000D01*
X0257425Y0339000D02*
X0319866Y0339000D01*
X0236075Y0342500D02*
X0176197Y0342500D01*
X0253924Y0342500D02*
X0313803Y0342500D01*
X0157000Y0322256D02*
X0157000Y0177744D01*
X0160500Y0171000D02*
X0160500Y0202032D01*
X0160500Y0279340D02*
X0160500Y0329000D01*
X0164000Y0198532D02*
X0164000Y0166435D01*
X0164000Y0282840D02*
X0164000Y0333564D01*
X0167500Y0195032D02*
X0167500Y0162935D01*
X0167500Y0286340D02*
X0167500Y0337065D01*
X0171000Y0191531D02*
X0171000Y0160500D01*
X0171000Y0289840D02*
X0171000Y0291011D01*
X0171000Y0299203D02*
X0171000Y0339500D01*
X0174500Y0188032D02*
X0174500Y0158479D01*
X0174500Y0304000D02*
X0174500Y0341521D01*
X0178000Y0184532D02*
X0178000Y0156931D01*
X0178000Y0203836D02*
X0178000Y0206000D01*
X0178000Y0304000D02*
X0178000Y0343069D01*
X0181500Y0181032D02*
X0181500Y0155994D01*
X0181500Y0200336D02*
X0181500Y0206000D01*
X0181500Y0304000D02*
X0181500Y0344006D01*
X0185000Y0177532D02*
X0185000Y0155056D01*
X0185000Y0196835D02*
X0185000Y0206000D01*
X0185000Y0304000D02*
X0185000Y0344944D01*
X0188500Y0174031D02*
X0188500Y0154748D01*
X0188500Y0194670D02*
X0188500Y0206000D01*
X0188500Y0224000D02*
X0188500Y0226000D01*
X0188500Y0244000D02*
X0188500Y0246000D01*
X0188500Y0264000D02*
X0188500Y0266000D01*
X0188500Y0284000D02*
X0188500Y0286000D01*
X0188500Y0304000D02*
X0188500Y0345252D01*
X0192000Y0170532D02*
X0192000Y0154650D01*
X0192000Y0194670D02*
X0192000Y0272330D01*
X0192000Y0277670D02*
X0192000Y0345349D01*
X0195500Y0168329D02*
X0195500Y0154650D01*
X0195500Y0194670D02*
X0195500Y0269074D01*
X0195500Y0280926D02*
X0195500Y0345349D01*
X0199000Y0168329D02*
X0199000Y0154650D01*
X0199000Y0197096D02*
X0199000Y0268568D01*
X0199000Y0281432D02*
X0199000Y0345349D01*
X0202500Y0168329D02*
X0202500Y0154650D01*
X0202500Y0198432D02*
X0202500Y0270404D01*
X0202500Y0279596D02*
X0202500Y0345349D01*
X0206000Y0166904D02*
X0206000Y0154650D01*
X0206000Y0197719D02*
X0206000Y0345349D01*
X0209500Y0164659D02*
X0209500Y0154650D01*
X0209500Y0177341D02*
X0209500Y0178659D01*
X0209500Y0191341D02*
X0209500Y0345349D01*
X0213000Y0164866D02*
X0213000Y0154650D01*
X0213000Y0177133D02*
X0213000Y0178866D01*
X0213000Y0191133D02*
X0213000Y0345349D01*
X0216500Y0167471D02*
X0216500Y0154650D01*
X0216500Y0174529D02*
X0216500Y0181471D01*
X0216500Y0188528D02*
X0216500Y0345349D01*
X0220000Y0345349D02*
X0220000Y0154650D01*
X0223500Y0154650D02*
X0223500Y0345349D01*
X0227000Y0345349D02*
X0227000Y0154650D01*
X0230500Y0154650D02*
X0230500Y0165417D01*
X0230500Y0174583D02*
X0230500Y0325417D01*
X0230500Y0334583D02*
X0230500Y0345349D01*
X0234000Y0159575D02*
X0234000Y0154650D01*
X0234000Y0180425D02*
X0234000Y0319575D01*
X0234000Y0340425D02*
X0234000Y0345349D01*
X0237500Y0156708D02*
X0237500Y0154650D01*
X0237500Y0183292D02*
X0237500Y0316708D01*
X0237500Y0343292D02*
X0237500Y0345349D01*
X0241000Y0155259D02*
X0241000Y0154650D01*
X0241000Y0184741D02*
X0241000Y0315259D01*
X0241000Y0344741D02*
X0241000Y0345349D01*
X0244500Y0154850D02*
X0244500Y0154650D01*
X0244500Y0185150D02*
X0244500Y0314850D01*
X0244500Y0345150D02*
X0244500Y0345349D01*
X0248000Y0154850D02*
X0248000Y0154650D01*
X0248000Y0185150D02*
X0248000Y0314850D01*
X0248000Y0345150D02*
X0248000Y0345349D01*
X0251500Y0156294D02*
X0251500Y0154650D01*
X0251500Y0183706D02*
X0251500Y0316294D01*
X0251500Y0343705D02*
X0251500Y0345349D01*
X0255000Y0158575D02*
X0255000Y0154650D01*
X0255000Y0181424D02*
X0255000Y0318575D01*
X0255000Y0341425D02*
X0255000Y0345349D01*
X0258500Y0163003D02*
X0258500Y0154650D01*
X0258500Y0176997D02*
X0258500Y0323003D01*
X0258500Y0336997D02*
X0258500Y0345349D01*
X0262000Y0345349D02*
X0262000Y0154650D01*
X0265500Y0154650D02*
X0265500Y0345349D01*
X0269000Y0345349D02*
X0269000Y0154650D01*
X0272500Y0154650D02*
X0272500Y0193146D01*
X0272500Y0204254D02*
X0272500Y0345349D01*
X0276000Y0165280D02*
X0276000Y0154650D01*
X0276000Y0176719D02*
X0276000Y0179281D01*
X0276000Y0190719D02*
X0276000Y0192268D01*
X0276000Y0205132D02*
X0276000Y0345349D01*
X0279500Y0164568D02*
X0279500Y0154650D01*
X0279500Y0177432D02*
X0279500Y0178568D01*
X0279500Y0191432D02*
X0279500Y0193229D01*
X0279500Y0204170D02*
X0279500Y0345349D01*
X0283000Y0165904D02*
X0283000Y0154650D01*
X0283000Y0201370D02*
X0283000Y0345349D01*
X0286500Y0168329D02*
X0286500Y0154650D01*
X0286500Y0201370D02*
X0286500Y0345349D01*
X0290000Y0168329D02*
X0290000Y0154650D01*
X0290000Y0201775D02*
X0290000Y0345349D01*
X0293500Y0169724D02*
X0293500Y0154650D01*
X0293500Y0205276D02*
X0293500Y0345349D01*
X0297000Y0173224D02*
X0297000Y0154650D01*
X0297000Y0272596D02*
X0297000Y0345349D01*
X0300500Y0176724D02*
X0300500Y0154683D01*
X0300500Y0275702D02*
X0300500Y0345317D01*
X0304000Y0180224D02*
X0304000Y0154912D01*
X0304000Y0259018D02*
X0304000Y0271668D01*
X0304000Y0278808D02*
X0304000Y0345088D01*
X0307500Y0183724D02*
X0307500Y0155726D01*
X0307500Y0242226D02*
X0307500Y0254986D01*
X0307500Y0262045D02*
X0307500Y0274774D01*
X0307500Y0281914D02*
X0307500Y0344274D01*
X0311000Y0187224D02*
X0311000Y0156664D01*
X0311000Y0210096D02*
X0311000Y0219904D01*
X0311000Y0230096D02*
X0311000Y0238191D01*
X0311000Y0250096D02*
X0311000Y0258012D01*
X0311000Y0270096D02*
X0311000Y0277880D01*
X0311000Y0290096D02*
X0311000Y0343336D01*
X0314500Y0190724D02*
X0314500Y0157902D01*
X0314500Y0211432D02*
X0314500Y0218568D01*
X0314500Y0231432D02*
X0314500Y0238568D01*
X0314500Y0251432D02*
X0314500Y0258568D01*
X0314500Y0271432D02*
X0314500Y0278568D01*
X0314500Y0291432D02*
X0314500Y0342098D01*
X0318000Y0199281D02*
X0318000Y0159923D01*
X0318000Y0210719D02*
X0318000Y0219281D01*
X0318000Y0230719D02*
X0318000Y0239281D01*
X0318000Y0250719D02*
X0318000Y0259281D01*
X0318000Y0270719D02*
X0318000Y0279281D01*
X0318000Y0290719D02*
X0318000Y0340077D01*
X0321500Y0338056D02*
X0321500Y0161944D01*
X0325000Y0165435D02*
X0325000Y0334565D01*
X0328500Y0330732D02*
X0328500Y0169268D01*
X0332000Y0175331D02*
X0332000Y0324670D01*
D11*
X0162500Y0175000D03*
X0162500Y0183500D03*
X0162500Y0192000D03*
X0327500Y0183500D03*
X0327500Y0192000D03*
X0327500Y0175000D03*
X0327500Y0320000D03*
X0327500Y0310000D03*
X0305000Y0340000D03*
X0162500Y0310000D03*
X0181500Y0340000D03*
X0162500Y0320000D03*
X0226500Y0222500D03*
X0203700Y0295900D03*
X0262900Y0230799D03*
X0198500Y0214500D03*
X0207500Y0214500D03*
X0290500Y0285500D03*
X0216000Y0206000D03*
X0274000Y0295000D03*
X0282000Y0285500D03*
D13*
X0185064Y0295000D02*
X0185064Y0275000D01*
X0185064Y0255000D01*
X0185064Y0235000D01*
X0185064Y0215000D01*
D11*
X0198000Y0275000D03*
D13*
X0185064Y0275000D01*
D11*
X0175893Y0275000D03*
D14*
X0176936Y0275000D01*
D13*
X0176936Y0271936D01*
X0163520Y0258520D01*
X0163520Y0206705D01*
X0308000Y0221000D02*
X0312000Y0225000D01*
X0315000Y0225000D01*
D11*
X0315000Y0225000D03*
X0203000Y0178000D03*
X0287000Y0178000D03*
D13*
X0192225Y0178000D02*
X0163520Y0206705D01*
X0192225Y0178000D02*
X0203000Y0178000D01*
X0291000Y0178000D02*
X0308000Y0195000D01*
X0291000Y0178000D02*
X0287000Y0178000D01*
X0308000Y0195000D02*
X0308000Y0221000D01*
D11*
X0176000Y0255107D03*
D14*
X0176107Y0255000D02*
X0176936Y0255000D01*
X0176107Y0255000D02*
X0176000Y0255107D01*
D13*
X0176936Y0255000D02*
X0176936Y0251646D01*
X0166290Y0241000D01*
X0166290Y0207853D02*
X0189143Y0185000D01*
X0166290Y0207853D02*
X0166290Y0241000D01*
X0305000Y0236667D02*
X0315000Y0245000D01*
D11*
X0315000Y0245000D03*
X0211000Y0185000D03*
X0279000Y0185000D03*
D13*
X0211000Y0185000D02*
X0189143Y0185000D01*
X0279000Y0185000D02*
X0291238Y0185000D01*
X0305000Y0198762D01*
X0305000Y0236667D01*
D11*
X0176000Y0235107D03*
D14*
X0176107Y0235000D02*
X0176936Y0235000D01*
X0176107Y0235000D02*
X0176000Y0235107D01*
D13*
X0176936Y0235000D02*
X0176936Y0231876D01*
X0169060Y0224000D01*
X0169060Y0209000D01*
D11*
X0315000Y0265000D03*
D13*
X0302230Y0253958D02*
X0302230Y0203230D01*
X0302230Y0253958D02*
X0315000Y0265000D01*
D11*
X0203000Y0192000D03*
X0287000Y0192000D03*
D13*
X0203000Y0192000D02*
X0186060Y0192000D01*
X0169060Y0209000D01*
X0287000Y0192000D02*
X0291000Y0192000D01*
X0302230Y0203230D01*
D11*
X0176000Y0215107D03*
D14*
X0176107Y0215000D02*
X0176936Y0215000D01*
X0176107Y0215000D02*
X0176000Y0215107D01*
D13*
X0299230Y0207230D02*
X0299230Y0271005D01*
D11*
X0315000Y0285000D03*
D13*
X0299230Y0271005D01*
D11*
X0275900Y0198700D03*
D13*
X0290700Y0198700D01*
X0299230Y0207230D01*
D11*
X0176000Y0295107D03*
D14*
X0176084Y0295023D02*
X0176936Y0295000D01*
X0176084Y0295023D02*
X0176000Y0295107D01*
D13*
X0176936Y0295000D02*
X0176936Y0292000D01*
X0160750Y0275814D01*
X0160750Y0205557D01*
D11*
X0315000Y0205000D03*
X0211000Y0171000D03*
X0279000Y0171000D03*
D13*
X0195308Y0171000D02*
X0160750Y0205557D01*
X0195308Y0171000D02*
X0211000Y0171000D01*
X0279000Y0171000D02*
X0291000Y0171000D01*
X0315000Y0195000D01*
X0315000Y0205000D01*
M02*