G04 EAGLE Gerber RS-274X export*
G75*
%MOMM*%
%FSLAX34Y34*%
%LPD*%
%INSolder stop mask*%
%IPPOS*%
%AMOC8*
5,1,8,0,0,$1,22.5*%
G01*
%ADD10C,2.3032*%
%ADD11R,0.8382X1.4732*%
G36*
X0255005Y0219999D02*
X0255005Y0219999D01*
X0255005Y0220000D01*
X0255005Y0239998D01*
X0265004Y0249996D01*
X0265004Y0249999D01*
X0265005Y0250000D01*
X0265005Y0270000D01*
X0265003Y0270002D01*
X0265004Y0270004D01*
X0255005Y0280002D01*
X0255005Y0300000D01*
X0255001Y0300005D01*
X0255000Y0300005D01*
X0235000Y0300005D01*
X0234994Y0300001D01*
X0234994Y0300000D01*
X0234994Y0280002D01*
X0224996Y0270004D01*
X0224996Y0270002D01*
X0224996Y0270001D01*
X0224995Y0270000D01*
X0224995Y0250000D01*
X0224997Y0249998D01*
X0224996Y0249996D01*
X0234994Y0239998D01*
X0234994Y0220000D01*
X0234999Y0219995D01*
X0235000Y0219995D01*
X0255000Y0219995D01*
X0255005Y0219999D01*
G37*
D10*
X0245000Y0330000D03*
X0245000Y0170000D03*
D11*
X0176936Y0295000D03*
X0185064Y0295000D03*
X0176936Y0275000D03*
X0185064Y0275000D03*
X0176936Y0255000D03*
X0185064Y0255000D03*
X0176936Y0235000D03*
X0185064Y0235000D03*
X0176936Y0215000D03*
X0185064Y0215000D03*
M02*