G04 EAGLE Gerber RS-274X export*
G75*
%MOMM*%
%FSLAX34Y34*%
%LPD*%
%INoutline*%
%IPPOS*%
%AMOC8*
5,1,8,0,0,$1,22.5*%
G01*
%ADD10C,0.254*%
D10*
X0150000Y0190000D02*
X0150152Y0186514D01*
X0150608Y0183054D01*
X0151363Y0179647D01*
X0152412Y0176319D01*
X0153748Y0173095D01*
X0155359Y0170000D01*
X0157234Y0167057D01*
X0159358Y0164289D01*
X0161716Y0161716D01*
X0164289Y0159358D01*
X0167057Y0157234D01*
X0170000Y0155359D01*
X0173095Y0153748D01*
X0176319Y0152412D01*
X0179647Y0151363D01*
X0183054Y0150608D01*
X0186514Y0150152D01*
X0190000Y0150000D01*
X0300000Y0150000D01*
X0303486Y0150152D01*
X0306946Y0150608D01*
X0310353Y0151363D01*
X0313681Y0152412D01*
X0316905Y0153748D01*
X0320000Y0155359D01*
X0322943Y0157234D01*
X0325712Y0159358D01*
X0328284Y0161716D01*
X0330642Y0164289D01*
X0332766Y0167057D01*
X0334641Y0170000D01*
X0336252Y0173095D01*
X0337588Y0176319D01*
X0338637Y0179647D01*
X0339392Y0183054D01*
X0339848Y0186514D01*
X0340000Y0190000D01*
X0340000Y0310000D01*
X0339848Y0313486D01*
X0339392Y0316946D01*
X0338637Y0320353D01*
X0337588Y0323681D01*
X0336252Y0326905D01*
X0334641Y0330000D01*
X0332766Y0332943D01*
X0330642Y0335712D01*
X0328284Y0338284D01*
X0325712Y0340642D01*
X0322943Y0342766D01*
X0320000Y0344641D01*
X0316905Y0346252D01*
X0313681Y0347588D01*
X0310353Y0348637D01*
X0306946Y0349392D01*
X0303486Y0349848D01*
X0300000Y0350000D01*
X0190000Y0350000D01*
X0186514Y0349848D01*
X0183054Y0349392D01*
X0179647Y0348637D01*
X0176319Y0347588D01*
X0173095Y0346252D01*
X0170000Y0344641D01*
X0167057Y0342766D01*
X0164289Y0340642D01*
X0161716Y0338284D01*
X0159358Y0335712D01*
X0157234Y0332943D01*
X0155359Y0330000D01*
X0153748Y0326905D01*
X0152412Y0323681D01*
X0151363Y0320353D01*
X0150608Y0316946D01*
X0150152Y0313486D01*
X0150000Y0310000D01*
X0150000Y0190000D01*
M02*