G04 EAGLE Gerber RS-274X export*
G75*
%MOMM*%
%FSLAX34Y34*%
%LPD*%
%INComponent side*%
%IPPOS*%
%AMOC8*
5,1,8,0,0,$1,22.5*%
G01*
%ADD10R,2X0.6*%
%ADD11R,2.9X2.6*%
%ADD12R,0.45X1.45*%
%ADD13C,0.25*%
%ADD14C,0.125*%
%ADD15R,0.2X0.3*%
%ADD16C,0.15*%
%ADD17C,0.13*%
%ADD18C,0.7564*%
%ADD19C,0.3*%
G36*
X0259138Y0246713D02*
X0259138Y0246713D01*
X0259208Y0246715D01*
X0259309Y0246741D01*
X0259412Y0246758D01*
X0259476Y0246785D01*
X0259542Y0246802D01*
X0259635Y0246850D01*
X0259731Y0246891D01*
X0259787Y0246931D01*
X0259848Y0246964D01*
X0259927Y0247032D01*
X0260011Y0247093D01*
X0260056Y0247145D01*
X0260109Y0247190D01*
X0260170Y0247275D01*
X0260238Y0247353D01*
X0260270Y0247415D01*
X0260311Y0247472D01*
X0260350Y0247567D01*
X0260399Y0247659D01*
X0260416Y0247727D01*
X0260443Y0247791D01*
X0260459Y0247894D01*
X0260485Y0247995D01*
X0260492Y0248099D01*
X0260497Y0248132D01*
X0260495Y0248155D01*
X0260499Y0248200D01*
X0260499Y0257915D01*
X0260482Y0258053D01*
X0260473Y0258192D01*
X0260463Y0258224D01*
X0260459Y0258258D01*
X0260412Y0258389D01*
X0260371Y0258523D01*
X0260353Y0258552D01*
X0260341Y0258584D01*
X0260266Y0258699D01*
X0260195Y0258819D01*
X0260165Y0258854D01*
X0260153Y0258873D01*
X0260129Y0258896D01*
X0260060Y0258975D01*
X0246725Y0272310D01*
X0246616Y0272397D01*
X0246510Y0272488D01*
X0246480Y0272504D01*
X0246454Y0272525D01*
X0246328Y0272584D01*
X0246204Y0272649D01*
X0246172Y0272657D01*
X0246141Y0272672D01*
X0246005Y0272700D01*
X0245870Y0272735D01*
X0245824Y0272738D01*
X0245803Y0272743D01*
X0245769Y0272742D01*
X0245664Y0272749D01*
X0239518Y0272749D01*
X0239402Y0272736D01*
X0239286Y0272731D01*
X0239230Y0272716D01*
X0239174Y0272709D01*
X0239065Y0272670D01*
X0238952Y0272639D01*
X0238879Y0272603D01*
X0238849Y0272592D01*
X0238825Y0272576D01*
X0238768Y0272548D01*
X0238481Y0272382D01*
X0237835Y0272209D01*
X0236749Y0272209D01*
X0236749Y0275000D01*
X0236745Y0275035D01*
X0236747Y0275071D01*
X0236725Y0275207D01*
X0236710Y0275343D01*
X0236697Y0275377D01*
X0236692Y0275412D01*
X0236638Y0275539D01*
X0236591Y0275669D01*
X0236573Y0275698D01*
X0236559Y0275731D01*
X0236479Y0275843D01*
X0236403Y0275958D01*
X0236378Y0275983D01*
X0236357Y0276011D01*
X0236253Y0276102D01*
X0236152Y0276197D01*
X0236122Y0276215D01*
X0236096Y0276238D01*
X0235973Y0276302D01*
X0235855Y0276372D01*
X0235821Y0276382D01*
X0235790Y0276399D01*
X0235656Y0276433D01*
X0235525Y0276474D01*
X0235489Y0276476D01*
X0235455Y0276485D01*
X0235250Y0276499D01*
X0235215Y0276495D01*
X0235180Y0276498D01*
X0235178Y0276498D01*
X0235043Y0276475D01*
X0234906Y0276459D01*
X0234872Y0276447D01*
X0234838Y0276442D01*
X0234711Y0276389D01*
X0234581Y0276342D01*
X0234551Y0276323D01*
X0234519Y0276309D01*
X0234407Y0276228D01*
X0234292Y0276153D01*
X0234267Y0276127D01*
X0234238Y0276107D01*
X0234148Y0276003D01*
X0234053Y0275903D01*
X0234035Y0275872D01*
X0234012Y0275846D01*
X0233948Y0275723D01*
X0233878Y0275605D01*
X0233868Y0275571D01*
X0233851Y0275539D01*
X0233817Y0275406D01*
X0233776Y0275274D01*
X0233772Y0275239D01*
X0233765Y0275205D01*
X0233751Y0275000D01*
X0233751Y0272209D01*
X0232665Y0272209D01*
X0232019Y0272382D01*
X0231750Y0272538D01*
X0231675Y0272570D01*
X0231605Y0272612D01*
X0231516Y0272639D01*
X0231432Y0272675D01*
X0231351Y0272690D01*
X0231274Y0272714D01*
X0231182Y0272720D01*
X0231092Y0272736D01*
X0231011Y0272732D01*
X0230929Y0272737D01*
X0230839Y0272722D01*
X0230747Y0272717D01*
X0230668Y0272694D01*
X0230587Y0272681D01*
X0230503Y0272646D01*
X0230415Y0272620D01*
X0230343Y0272580D01*
X0230268Y0272549D01*
X0230193Y0272495D01*
X0230114Y0272449D01*
X0230054Y0272394D01*
X0229989Y0272346D01*
X0229928Y0272277D01*
X0229861Y0272214D01*
X0229815Y0272147D01*
X0229762Y0272085D01*
X0229718Y0272004D01*
X0229668Y0271927D01*
X0229639Y0271851D01*
X0229601Y0271779D01*
X0229578Y0271690D01*
X0229546Y0271604D01*
X0229534Y0271523D01*
X0229515Y0271444D01*
X0229504Y0271282D01*
X0229501Y0271261D01*
X0229502Y0271253D01*
X0229501Y0271240D01*
X0229501Y0265492D01*
X0229517Y0265354D01*
X0229527Y0265214D01*
X0229537Y0265182D01*
X0229541Y0265149D01*
X0229588Y0265018D01*
X0229629Y0264884D01*
X0229647Y0264855D01*
X0229658Y0264823D01*
X0229733Y0264707D01*
X0229805Y0264587D01*
X0229835Y0264552D01*
X0229847Y0264534D01*
X0229870Y0264511D01*
X0229940Y0264432D01*
X0230821Y0263551D01*
X0230821Y0254720D01*
X0230825Y0254685D01*
X0230822Y0254649D01*
X0230844Y0254513D01*
X0230861Y0254377D01*
X0230873Y0254343D01*
X0230878Y0254307D01*
X0230931Y0254181D01*
X0230978Y0254050D01*
X0230997Y0254022D01*
X0231011Y0253988D01*
X0231092Y0253877D01*
X0231167Y0253762D01*
X0231193Y0253737D01*
X0231212Y0253709D01*
X0231317Y0253618D01*
X0231417Y0253523D01*
X0231448Y0253505D01*
X0231473Y0253481D01*
X0231597Y0253418D01*
X0231715Y0253348D01*
X0231749Y0253338D01*
X0231781Y0253321D01*
X0231914Y0253286D01*
X0232046Y0253246D01*
X0232081Y0253244D01*
X0232115Y0253235D01*
X0232320Y0253221D01*
X0243137Y0253221D01*
X0248667Y0247689D01*
X0248777Y0247603D01*
X0248881Y0247512D01*
X0248911Y0247496D01*
X0248939Y0247475D01*
X0249065Y0247415D01*
X0249189Y0247351D01*
X0249221Y0247342D01*
X0249252Y0247327D01*
X0249388Y0247300D01*
X0249523Y0247265D01*
X0249568Y0247262D01*
X0249590Y0247257D01*
X0249624Y0247258D01*
X0249728Y0247250D01*
X0257828Y0247250D01*
X0257940Y0247140D01*
X0258022Y0247075D01*
X0258097Y0247003D01*
X0258157Y0246968D01*
X0258211Y0246925D01*
X0258305Y0246881D01*
X0258395Y0246828D01*
X0258461Y0246807D01*
X0258524Y0246777D01*
X0258626Y0246757D01*
X0258725Y0246726D01*
X0258795Y0246721D01*
X0258862Y0246707D01*
X0258966Y0246709D01*
X0259071Y0246702D01*
X0259138Y0246713D01*
G37*
D10*
X0164500Y0295000D03*
X0199500Y0285000D03*
X0164500Y0275000D03*
X0199500Y0265000D03*
X0164500Y0255000D03*
X0199500Y0245000D03*
X0164500Y0235000D03*
X0199500Y0225000D03*
X0164500Y0215000D03*
X0199500Y0205000D03*
D11*
X0182000Y0319000D03*
X0182000Y0181000D03*
D12*
X0254750Y0282000D03*
X0248250Y0282000D03*
X0241750Y0282000D03*
X0235250Y0282000D03*
X0235250Y0238000D03*
X0241750Y0238000D03*
X0248250Y0238000D03*
X0254750Y0238000D03*
D13*
X0217525Y0284350D02*
X0215025Y0284350D01*
X0215025Y0286850D01*
X0217525Y0286850D01*
X0217525Y0284350D01*
X0217525Y0286725D02*
X0215025Y0286725D01*
X0224275Y0284350D02*
X0226775Y0284350D01*
X0224275Y0284350D02*
X0224275Y0286850D01*
X0226775Y0286850D01*
X0226775Y0284350D01*
X0226775Y0286725D02*
X0224275Y0286725D01*
X0253825Y0220250D02*
X0256325Y0220250D01*
X0253825Y0220250D02*
X0253825Y0222750D01*
X0256325Y0222750D01*
X0256325Y0220250D01*
X0256325Y0222625D02*
X0253825Y0222625D01*
X0263075Y0220250D02*
X0265575Y0220250D01*
X0263075Y0220250D02*
X0263075Y0222750D01*
X0265575Y0222750D01*
X0265575Y0220250D01*
X0265575Y0222625D02*
X0263075Y0222625D01*
D10*
X0325500Y0205000D03*
X0290500Y0215000D03*
X0325500Y0225000D03*
X0290500Y0235000D03*
X0325500Y0245000D03*
X0290500Y0255000D03*
X0325500Y0265000D03*
X0290500Y0275000D03*
X0325500Y0285000D03*
X0290500Y0295000D03*
D11*
X0308000Y0181000D03*
X0308000Y0319000D03*
D14*
X0225289Y0269975D02*
X0221539Y0269975D01*
X0225289Y0269975D02*
X0225289Y0266225D01*
X0221539Y0266225D01*
X0221539Y0269975D01*
X0221539Y0267412D02*
X0225289Y0267412D01*
X0225289Y0268599D02*
X0221539Y0268599D01*
X0221539Y0269786D02*
X0225289Y0269786D01*
X0218661Y0269975D02*
X0214911Y0269975D01*
X0218661Y0269975D02*
X0218661Y0266225D01*
X0214911Y0266225D01*
X0214911Y0269975D01*
X0214911Y0267412D02*
X0218661Y0267412D01*
X0218661Y0268599D02*
X0214911Y0268599D01*
X0214911Y0269786D02*
X0218661Y0269786D01*
X0221638Y0251375D02*
X0225388Y0251375D01*
X0225388Y0247625D01*
X0221638Y0247625D01*
X0221638Y0251375D01*
X0221638Y0248812D02*
X0225388Y0248812D01*
X0225388Y0249999D02*
X0221638Y0249999D01*
X0221638Y0251186D02*
X0225388Y0251186D01*
X0218761Y0251375D02*
X0215011Y0251375D01*
X0218761Y0251375D02*
X0218761Y0247625D01*
X0215011Y0247625D01*
X0215011Y0251375D01*
X0215011Y0248812D02*
X0218761Y0248812D01*
X0218761Y0249999D02*
X0215011Y0249999D01*
X0215011Y0251186D02*
X0218761Y0251186D01*
X0221638Y0232875D02*
X0225388Y0232875D01*
X0225388Y0229125D01*
X0221638Y0229125D01*
X0221638Y0232875D01*
X0221638Y0230311D02*
X0225388Y0230311D01*
X0225388Y0231499D02*
X0221638Y0231499D01*
X0221638Y0232686D02*
X0225388Y0232686D01*
X0218761Y0232875D02*
X0215011Y0232875D01*
X0218761Y0232875D02*
X0218761Y0229125D01*
X0215011Y0229125D01*
X0215011Y0232875D01*
X0215011Y0230311D02*
X0218761Y0230311D01*
X0218761Y0231499D02*
X0215011Y0231499D01*
X0215011Y0232686D02*
X0218761Y0232686D01*
D15*
X0235000Y0218500D03*
X0239000Y0218500D03*
X0243000Y0218500D03*
X0247000Y0218500D03*
X0247000Y0224500D03*
X0243000Y0224500D03*
X0239000Y0224500D03*
X0235000Y0224500D03*
D16*
X0223513Y0231000D02*
X0228814Y0236300D01*
X0233550Y0236300D02*
X0235250Y0238000D01*
X0233550Y0236300D02*
X0228814Y0236300D01*
X0236750Y0233100D02*
X0236750Y0229611D01*
X0236750Y0233100D02*
X0233550Y0236300D01*
X0239000Y0227361D02*
X0239000Y0224500D01*
X0239000Y0227361D02*
X0236750Y0229611D01*
X0241850Y0238100D02*
X0241850Y0245489D01*
X0241850Y0238100D02*
X0241750Y0238000D01*
X0241850Y0245489D02*
X0239239Y0248100D01*
X0228100Y0248100D01*
X0226700Y0249500D01*
X0223513Y0249500D01*
X0242750Y0224750D02*
X0243000Y0224500D01*
X0241750Y0228528D02*
X0241750Y0238000D01*
X0242750Y0227528D02*
X0242750Y0224750D01*
X0242750Y0227528D02*
X0241750Y0228528D01*
X0248250Y0238000D02*
X0248250Y0245250D01*
X0242300Y0251199D02*
X0230799Y0251199D01*
X0228800Y0253200D01*
X0228800Y0262714D02*
X0223414Y0268100D01*
X0242300Y0251199D02*
X0248250Y0245250D01*
X0228800Y0253200D02*
X0228800Y0262714D01*
X0246800Y0224700D02*
X0247000Y0224500D01*
X0246800Y0224700D02*
X0246800Y0233350D01*
X0248250Y0234800D02*
X0248250Y0238000D01*
X0248250Y0234800D02*
X0246800Y0233350D01*
D17*
X0266830Y0230613D02*
X0266830Y0227987D01*
X0277850Y0216967D01*
X0277850Y0214487D01*
X0275717Y0216620D01*
X0268168Y0216620D01*
X0268301Y0216697D01*
X0269128Y0217524D01*
X0269712Y0218536D01*
X0270015Y0219665D01*
X0270015Y0220900D01*
X0264925Y0220900D01*
X0264925Y0222100D01*
X0270015Y0222100D01*
X0270015Y0223335D01*
X0269712Y0224464D01*
X0269128Y0225476D01*
X0268301Y0226302D01*
X0267289Y0226887D01*
X0266160Y0227190D01*
X0264925Y0227190D01*
X0264925Y0222100D01*
X0263725Y0222100D01*
X0263725Y0227190D01*
X0262490Y0227190D01*
X0261361Y0226887D01*
X0260349Y0226302D01*
X0259521Y0225476D01*
X0259373Y0225218D01*
X0258170Y0226420D01*
X0258170Y0228172D01*
X0259650Y0229652D01*
X0259650Y0246347D01*
X0258098Y0247900D01*
X0249376Y0247900D01*
X0243406Y0253870D01*
X0231906Y0253870D01*
X0231469Y0254305D01*
X0231469Y0263820D01*
X0229906Y0265384D01*
X0228564Y0266726D01*
X0228564Y0271332D01*
X0226646Y0273250D01*
X0220206Y0273250D01*
X0220206Y0273844D01*
X0225692Y0280450D01*
X0228390Y0280450D01*
X0230415Y0282475D01*
X0234775Y0282475D01*
X0234775Y0281525D01*
X0229810Y0281525D01*
X0229810Y0274330D01*
X0230027Y0273519D01*
X0230447Y0272791D01*
X0231041Y0272197D01*
X0231769Y0271777D01*
X0232580Y0271560D01*
X0234775Y0271560D01*
X0234775Y0281525D01*
X0235724Y0281525D01*
X0235724Y0271560D01*
X0237920Y0271560D01*
X0238731Y0271777D01*
X0239290Y0272100D01*
X0246017Y0272100D01*
X0266830Y0251287D01*
X0266830Y0230613D01*
X0235000Y0218500D02*
X0235000Y0218500D01*
X0239000Y0218500D01*
X0239000Y0218500D01*
X0238810Y0218500D01*
X0235000Y0218500D01*
X0239000Y0218500D02*
X0239000Y0218500D01*
X0243000Y0218500D01*
X0243000Y0218500D01*
X0242810Y0218500D01*
X0239000Y0218500D01*
X0220073Y0225850D02*
X0218630Y0224407D01*
X0220073Y0225850D02*
X0220118Y0225850D01*
X0220200Y0225932D01*
X0220281Y0225850D01*
X0226745Y0225850D01*
X0228664Y0227768D01*
X0228664Y0232374D01*
X0229920Y0233630D01*
X0230350Y0233630D01*
X0230350Y0229652D01*
X0231902Y0228100D01*
X0232352Y0228100D01*
X0231349Y0227098D01*
X0231349Y0221902D01*
X0231391Y0221861D01*
X0231027Y0221231D01*
X0230810Y0220420D01*
X0230810Y0218500D01*
X0235000Y0218500D01*
X0235000Y0218500D01*
X0230810Y0218500D01*
X0230810Y0216620D01*
X0226417Y0216620D01*
X0218630Y0224407D01*
X0243000Y0218500D02*
X0243000Y0218500D01*
X0247000Y0218500D01*
X0247000Y0218500D01*
X0243000Y0218500D01*
X0303150Y0273687D02*
X0303150Y0279098D01*
X0301598Y0280650D01*
X0279402Y0280650D01*
X0277850Y0279098D01*
X0277850Y0270902D01*
X0279402Y0269350D01*
X0297813Y0269350D01*
X0303180Y0263983D01*
X0303180Y0212617D01*
X0303150Y0212587D01*
X0303150Y0219098D01*
X0301598Y0220650D01*
X0283133Y0220650D01*
X0273170Y0230613D01*
X0273170Y0253913D01*
X0254983Y0272100D01*
X0255717Y0272100D01*
X0273530Y0254287D01*
X0273530Y0239487D01*
X0277850Y0235167D01*
X0277850Y0230902D01*
X0279402Y0229350D01*
X0301598Y0229350D01*
X0303150Y0230902D01*
X0303150Y0239098D01*
X0301598Y0240649D01*
X0281333Y0240649D01*
X0279870Y0242113D01*
X0279870Y0249350D01*
X0301598Y0249350D01*
X0303150Y0250902D01*
X0303150Y0259098D01*
X0301598Y0260649D01*
X0279402Y0260649D01*
X0277850Y0259098D01*
X0277850Y0258933D01*
X0259650Y0277133D01*
X0259650Y0290348D01*
X0258170Y0291828D01*
X0258170Y0298313D01*
X0256313Y0300170D01*
X0249013Y0307470D01*
X0199690Y0307470D01*
X0199690Y0318350D01*
X0182650Y0318350D01*
X0182650Y0319650D01*
X0199690Y0319650D01*
X0199690Y0332420D01*
X0199472Y0333230D01*
X0199053Y0333959D01*
X0198459Y0334553D01*
X0197731Y0334972D01*
X0196920Y0335190D01*
X0182650Y0335190D01*
X0182650Y0319650D01*
X0181349Y0319650D01*
X0181349Y0335190D01*
X0167079Y0335190D01*
X0166269Y0334972D01*
X0165540Y0334553D01*
X0164947Y0333959D01*
X0164527Y0333230D01*
X0164310Y0332420D01*
X0164310Y0319650D01*
X0181349Y0319650D01*
X0181349Y0318350D01*
X0164310Y0318350D01*
X0164310Y0305580D01*
X0164527Y0304769D01*
X0164947Y0304041D01*
X0165540Y0303447D01*
X0166269Y0303027D01*
X0167079Y0302810D01*
X0181349Y0302810D01*
X0181349Y0318350D01*
X0182650Y0318350D01*
X0182650Y0302810D01*
X0193627Y0302810D01*
X0179969Y0289152D01*
X0179969Y0280020D01*
X0179536Y0280453D01*
X0177171Y0281432D01*
X0174614Y0281432D01*
X0172726Y0280650D01*
X0154650Y0280650D01*
X0154650Y0289350D01*
X0173091Y0289350D01*
X0174721Y0288675D01*
X0177278Y0288675D01*
X0179643Y0289654D01*
X0181453Y0291464D01*
X0182432Y0293828D01*
X0182432Y0296386D01*
X0181453Y0298750D01*
X0179643Y0300560D01*
X0177278Y0301539D01*
X0174721Y0301539D01*
X0172574Y0300650D01*
X0154650Y0300650D01*
X0154650Y0310000D01*
X0154952Y0314614D01*
X0157341Y0323528D01*
X0157341Y0323528D01*
X0161955Y0331520D01*
X0168480Y0338045D01*
X0176472Y0342659D01*
X0185386Y0345048D01*
X0190000Y0345349D01*
X0231861Y0345349D01*
X0228294Y0342138D01*
X0228294Y0342138D01*
X0224801Y0334293D01*
X0224801Y0325707D01*
X0228294Y0317862D01*
X0228294Y0317862D01*
X0228294Y0317862D01*
X0234675Y0312117D01*
X0234675Y0312117D01*
X0242841Y0309463D01*
X0242841Y0309463D01*
X0251381Y0310361D01*
X0258817Y0314654D01*
X0258817Y0314654D01*
X0263865Y0321601D01*
X0265650Y0330000D01*
X0265650Y0330000D01*
X0263865Y0338399D01*
X0263865Y0338399D01*
X0258817Y0345346D01*
X0258817Y0345346D01*
X0258817Y0345346D01*
X0258810Y0345349D01*
X0300000Y0345349D01*
X0304614Y0345048D01*
X0313528Y0342659D01*
X0321520Y0338045D01*
X0328045Y0331520D01*
X0332659Y0323528D01*
X0335048Y0314614D01*
X0335349Y0310000D01*
X0335349Y0290650D01*
X0318167Y0290650D01*
X0316279Y0291432D01*
X0313721Y0291432D01*
X0311357Y0290453D01*
X0309547Y0288643D01*
X0308568Y0286279D01*
X0308568Y0283721D01*
X0309547Y0281357D01*
X0311357Y0279547D01*
X0313721Y0278568D01*
X0316279Y0278568D01*
X0318167Y0279350D01*
X0335349Y0279350D01*
X0335349Y0270650D01*
X0318167Y0270650D01*
X0316279Y0271432D01*
X0313721Y0271432D01*
X0311357Y0270453D01*
X0309547Y0268643D01*
X0309151Y0267686D01*
X0303150Y0273687D01*
X0289850Y0288810D02*
X0289850Y0294350D01*
X0291150Y0294350D01*
X0291150Y0288810D01*
X0300920Y0288810D01*
X0301731Y0289027D01*
X0302459Y0289447D01*
X0303053Y0290041D01*
X0303473Y0290769D01*
X0303690Y0291580D01*
X0303690Y0294350D01*
X0291150Y0294350D01*
X0291150Y0295650D01*
X0303690Y0295650D01*
X0303690Y0298420D01*
X0303473Y0299231D01*
X0303053Y0299959D01*
X0302459Y0300553D01*
X0301731Y0300973D01*
X0300920Y0301190D01*
X0291150Y0301190D01*
X0291150Y0295650D01*
X0289850Y0295650D01*
X0289850Y0301190D01*
X0280080Y0301190D01*
X0279269Y0300973D01*
X0278541Y0300553D01*
X0277947Y0299959D01*
X0277527Y0299231D01*
X0277310Y0298420D01*
X0277310Y0295650D01*
X0289850Y0295650D01*
X0289850Y0294350D01*
X0277310Y0294350D01*
X0277310Y0291580D01*
X0277527Y0290769D01*
X0277947Y0290041D01*
X0278541Y0289447D01*
X0279269Y0289027D01*
X0280080Y0288810D01*
X0289850Y0288810D01*
X0308650Y0318350D02*
X0325690Y0318350D01*
X0308650Y0318350D02*
X0308650Y0319650D01*
X0325690Y0319650D01*
X0325690Y0332420D01*
X0325473Y0333230D01*
X0325053Y0333959D01*
X0324459Y0334553D01*
X0323731Y0334972D01*
X0322920Y0335190D01*
X0308650Y0335190D01*
X0308650Y0319650D01*
X0307350Y0319650D01*
X0307350Y0335190D01*
X0293080Y0335190D01*
X0292269Y0334972D01*
X0291541Y0334553D01*
X0290947Y0333959D01*
X0290527Y0333230D01*
X0290310Y0332420D01*
X0290310Y0319650D01*
X0307350Y0319650D01*
X0307350Y0318350D01*
X0290310Y0318350D01*
X0290310Y0305580D01*
X0290527Y0304769D01*
X0290947Y0304041D01*
X0291541Y0303447D01*
X0292269Y0303027D01*
X0293080Y0302810D01*
X0307350Y0302810D01*
X0307350Y0318350D01*
X0308650Y0318350D01*
X0308650Y0302810D01*
X0322920Y0302810D01*
X0323731Y0303027D01*
X0324459Y0303447D01*
X0325053Y0304041D01*
X0325473Y0304769D01*
X0325690Y0305580D01*
X0325690Y0318350D01*
X0200150Y0211190D02*
X0200150Y0205650D01*
X0198849Y0205650D01*
X0198849Y0211190D01*
X0189080Y0211190D01*
X0188269Y0210973D01*
X0187541Y0210553D01*
X0186947Y0209959D01*
X0186527Y0209230D01*
X0186310Y0208420D01*
X0186310Y0205650D01*
X0198849Y0205650D01*
X0198849Y0204350D01*
X0186310Y0204350D01*
X0186310Y0203466D01*
X0179883Y0209893D01*
X0181453Y0211464D01*
X0182432Y0213828D01*
X0182432Y0216386D01*
X0181453Y0218750D01*
X0179643Y0220560D01*
X0177278Y0221539D01*
X0174721Y0221539D01*
X0172574Y0220650D01*
X0154650Y0220650D01*
X0154650Y0229350D01*
X0173091Y0229350D01*
X0174721Y0228675D01*
X0177278Y0228675D01*
X0179643Y0229654D01*
X0181453Y0231464D01*
X0182432Y0233828D01*
X0182432Y0236386D01*
X0181453Y0238750D01*
X0179643Y0240559D01*
X0177278Y0241539D01*
X0174721Y0241539D01*
X0172574Y0240649D01*
X0154650Y0240649D01*
X0154650Y0249350D01*
X0173091Y0249350D01*
X0174721Y0248675D01*
X0177278Y0248675D01*
X0179643Y0249654D01*
X0181453Y0251464D01*
X0182432Y0253828D01*
X0182432Y0256386D01*
X0181453Y0258750D01*
X0179643Y0260559D01*
X0177278Y0261539D01*
X0174721Y0261539D01*
X0172574Y0260649D01*
X0154650Y0260649D01*
X0154650Y0269350D01*
X0172726Y0269350D01*
X0174614Y0268568D01*
X0177171Y0268568D01*
X0179536Y0269547D01*
X0181346Y0271357D01*
X0181625Y0272031D01*
X0181826Y0271830D01*
X0186850Y0266806D01*
X0186850Y0260902D01*
X0188402Y0259350D01*
X0210598Y0259350D01*
X0212150Y0260902D01*
X0212150Y0264355D01*
X0213366Y0263138D01*
X0213366Y0254362D01*
X0211736Y0252732D01*
X0211736Y0249512D01*
X0210598Y0250649D01*
X0188402Y0250649D01*
X0186850Y0249098D01*
X0186850Y0240902D01*
X0188402Y0239350D01*
X0210598Y0239350D01*
X0212150Y0240902D01*
X0212150Y0245855D01*
X0213466Y0244538D01*
X0213466Y0235962D01*
X0211736Y0234232D01*
X0211736Y0229512D01*
X0210598Y0230649D01*
X0188402Y0230649D01*
X0186850Y0229098D01*
X0186850Y0220902D01*
X0188402Y0219350D01*
X0210598Y0219350D01*
X0211828Y0220580D01*
X0212783Y0220580D01*
X0223583Y0209780D01*
X0272883Y0209780D01*
X0275880Y0206783D01*
X0275880Y0206783D01*
X0277780Y0204883D01*
X0277179Y0205132D01*
X0274621Y0205132D01*
X0272257Y0204153D01*
X0270690Y0202586D01*
X0264606Y0208670D01*
X0224894Y0208670D01*
X0223329Y0207106D01*
X0217894Y0201670D01*
X0212689Y0201670D01*
X0212689Y0204350D01*
X0200150Y0204350D01*
X0200150Y0205650D01*
X0212689Y0205650D01*
X0212689Y0208420D01*
X0212473Y0209230D01*
X0212053Y0209959D01*
X0211459Y0210553D01*
X0210731Y0210973D01*
X0209920Y0211190D01*
X0200150Y0211190D01*
X0182650Y0197190D02*
X0182650Y0181650D01*
X0181349Y0181650D01*
X0181349Y0197190D01*
X0167079Y0197190D01*
X0166269Y0196972D01*
X0165540Y0196553D01*
X0164947Y0195959D01*
X0164527Y0195231D01*
X0164310Y0194420D01*
X0164310Y0181650D01*
X0181349Y0181650D01*
X0181349Y0180350D01*
X0164310Y0180350D01*
X0164310Y0167580D01*
X0164527Y0166769D01*
X0164947Y0166041D01*
X0165540Y0165447D01*
X0166269Y0165027D01*
X0167079Y0164810D01*
X0181349Y0164810D01*
X0181349Y0180350D01*
X0182650Y0180350D01*
X0182650Y0164810D01*
X0196920Y0164810D01*
X0197731Y0165027D01*
X0198459Y0165447D01*
X0199053Y0166041D01*
X0199472Y0166769D01*
X0199690Y0167580D01*
X0199690Y0172409D01*
X0201721Y0171568D01*
X0204279Y0171568D01*
X0204568Y0171688D01*
X0204568Y0169721D01*
X0205547Y0167357D01*
X0207357Y0165547D01*
X0209721Y0164568D01*
X0212278Y0164568D01*
X0214643Y0165547D01*
X0216453Y0167357D01*
X0217432Y0169721D01*
X0217432Y0172278D01*
X0217029Y0173253D01*
X0235106Y0191330D01*
X0254394Y0191330D01*
X0272825Y0172899D01*
X0272568Y0172278D01*
X0272568Y0169721D01*
X0273547Y0167357D01*
X0275357Y0165547D01*
X0277721Y0164568D01*
X0280279Y0164568D01*
X0282643Y0165547D01*
X0284453Y0167357D01*
X0285432Y0169721D01*
X0285432Y0171688D01*
X0285721Y0171568D01*
X0288279Y0171568D01*
X0290310Y0172409D01*
X0290310Y0167580D01*
X0290527Y0166769D01*
X0290947Y0166041D01*
X0291541Y0165447D01*
X0292269Y0165027D01*
X0293080Y0164810D01*
X0307350Y0164810D01*
X0307350Y0180350D01*
X0308650Y0180350D01*
X0308650Y0164810D01*
X0322920Y0164810D01*
X0323731Y0165027D01*
X0324459Y0165447D01*
X0325053Y0166041D01*
X0325473Y0166769D01*
X0325690Y0167580D01*
X0325690Y0180350D01*
X0308650Y0180350D01*
X0308650Y0181650D01*
X0325690Y0181650D01*
X0325690Y0194420D01*
X0325473Y0195231D01*
X0325053Y0195959D01*
X0324459Y0196553D01*
X0323731Y0196972D01*
X0322920Y0197190D01*
X0308650Y0197190D01*
X0308650Y0181650D01*
X0307350Y0181650D01*
X0307350Y0197190D01*
X0293080Y0197190D01*
X0292269Y0196972D01*
X0291543Y0196553D01*
X0290643Y0197453D01*
X0288279Y0198432D01*
X0285721Y0198432D01*
X0283357Y0197453D01*
X0281630Y0195726D01*
X0282332Y0197421D01*
X0282332Y0199979D01*
X0281353Y0202343D01*
X0279543Y0204153D01*
X0278029Y0204780D01*
X0305017Y0204780D01*
X0308017Y0207780D01*
X0310020Y0209783D01*
X0310020Y0220884D01*
X0311357Y0219547D01*
X0313721Y0218568D01*
X0316279Y0218568D01*
X0318167Y0219350D01*
X0335349Y0219350D01*
X0335349Y0210650D01*
X0318167Y0210650D01*
X0316279Y0211432D01*
X0313721Y0211432D01*
X0311357Y0210453D01*
X0309547Y0208643D01*
X0308568Y0206279D01*
X0308568Y0203721D01*
X0309547Y0201357D01*
X0311357Y0199547D01*
X0313721Y0198568D01*
X0316279Y0198568D01*
X0318167Y0199350D01*
X0335349Y0199350D01*
X0335349Y0190000D01*
X0335048Y0185386D01*
X0332659Y0176472D01*
X0328045Y0168480D01*
X0321520Y0161955D01*
X0313528Y0157341D01*
X0304614Y0154952D01*
X0300000Y0154650D01*
X0258810Y0154650D01*
X0258817Y0154654D01*
X0258817Y0154654D01*
X0258817Y0154654D01*
X0263865Y0161601D01*
X0263865Y0161601D01*
X0265650Y0170000D01*
X0263865Y0178399D01*
X0263865Y0178399D01*
X0258817Y0185346D01*
X0258817Y0185346D01*
X0258817Y0185346D01*
X0251381Y0189639D01*
X0251381Y0189639D01*
X0242841Y0190537D01*
X0242841Y0190537D01*
X0234675Y0187883D01*
X0234675Y0187883D01*
X0228294Y0182138D01*
X0228294Y0182138D01*
X0224801Y0174293D01*
X0224801Y0165707D01*
X0228294Y0157862D01*
X0228294Y0157862D01*
X0231861Y0154650D01*
X0190000Y0154650D01*
X0185386Y0154952D01*
X0176472Y0157341D01*
X0168480Y0161955D01*
X0161955Y0168480D01*
X0157341Y0176472D01*
X0154952Y0185386D01*
X0154650Y0190000D01*
X0154650Y0209350D01*
X0172873Y0209350D01*
X0184330Y0197894D01*
X0185034Y0197190D01*
X0182650Y0197190D01*
X0215987Y0300470D02*
X0218613Y0300470D01*
X0215987Y0300470D02*
X0206167Y0290650D01*
X0190433Y0290650D01*
X0200913Y0301130D01*
X0246387Y0301130D01*
X0251830Y0295687D01*
X0251830Y0291900D01*
X0251420Y0291900D01*
X0251420Y0295063D01*
X0246013Y0300470D01*
X0243387Y0300470D01*
X0218613Y0300470D01*
X0230362Y0156000D02*
X0181476Y0156000D01*
X0259795Y0156000D02*
X0308524Y0156000D01*
X0227787Y0159000D02*
X0173598Y0159000D01*
X0261974Y0159000D02*
X0316402Y0159000D01*
X0226452Y0162000D02*
X0168435Y0162000D01*
X0263950Y0162000D02*
X0321565Y0162000D01*
X0166371Y0165000D02*
X0165435Y0165000D01*
X0181349Y0165000D02*
X0182650Y0165000D01*
X0197629Y0165000D02*
X0208678Y0165000D01*
X0213322Y0165000D02*
X0225116Y0165000D01*
X0264587Y0165000D02*
X0276678Y0165000D01*
X0281322Y0165000D02*
X0292371Y0165000D01*
X0307350Y0165000D02*
X0308650Y0165000D01*
X0323628Y0165000D02*
X0324565Y0165000D01*
X0164310Y0168000D02*
X0162435Y0168000D01*
X0181349Y0168000D02*
X0182650Y0168000D01*
X0199690Y0168000D02*
X0205281Y0168000D01*
X0216719Y0168000D02*
X0224801Y0168000D01*
X0265225Y0168000D02*
X0273281Y0168000D01*
X0284719Y0168000D02*
X0290310Y0168000D01*
X0307350Y0168000D02*
X0308650Y0168000D01*
X0325690Y0168000D02*
X0327565Y0168000D01*
X0164310Y0171000D02*
X0160500Y0171000D01*
X0181349Y0171000D02*
X0182650Y0171000D01*
X0199690Y0171000D02*
X0204568Y0171000D01*
X0217432Y0171000D02*
X0224801Y0171000D01*
X0265437Y0171000D02*
X0272568Y0171000D01*
X0285432Y0171000D02*
X0290310Y0171000D01*
X0307350Y0171000D02*
X0308650Y0171000D01*
X0325690Y0171000D02*
X0329500Y0171000D01*
X0164310Y0174000D02*
X0158768Y0174000D01*
X0181349Y0174000D02*
X0182650Y0174000D01*
X0217776Y0174000D02*
X0224801Y0174000D01*
X0264800Y0174000D02*
X0271724Y0174000D01*
X0307350Y0174000D02*
X0308650Y0174000D01*
X0325690Y0174000D02*
X0331232Y0174000D01*
X0164310Y0177000D02*
X0157199Y0177000D01*
X0181349Y0177000D02*
X0182650Y0177000D01*
X0220776Y0177000D02*
X0226006Y0177000D01*
X0264162Y0177000D02*
X0268724Y0177000D01*
X0307350Y0177000D02*
X0308650Y0177000D01*
X0325690Y0177000D02*
X0332801Y0177000D01*
X0164310Y0180000D02*
X0156396Y0180000D01*
X0181349Y0180000D02*
X0182650Y0180000D01*
X0223776Y0180000D02*
X0227342Y0180000D01*
X0262702Y0180000D02*
X0265724Y0180000D01*
X0307350Y0180000D02*
X0308650Y0180000D01*
X0325690Y0180000D02*
X0333604Y0180000D01*
X0164310Y0183000D02*
X0155592Y0183000D01*
X0181349Y0183000D02*
X0182650Y0183000D01*
X0226775Y0183000D02*
X0229251Y0183000D01*
X0260522Y0183000D02*
X0262724Y0183000D01*
X0307350Y0183000D02*
X0308650Y0183000D01*
X0325690Y0183000D02*
X0334407Y0183000D01*
X0164310Y0186000D02*
X0154912Y0186000D01*
X0181349Y0186000D02*
X0182650Y0186000D01*
X0229776Y0186000D02*
X0232582Y0186000D01*
X0257685Y0186000D02*
X0259724Y0186000D01*
X0307350Y0186000D02*
X0308650Y0186000D01*
X0325690Y0186000D02*
X0335088Y0186000D01*
X0164310Y0189000D02*
X0154716Y0189000D01*
X0181349Y0189000D02*
X0182650Y0189000D01*
X0232776Y0189000D02*
X0238112Y0189000D01*
X0252488Y0189000D02*
X0256724Y0189000D01*
X0307350Y0189000D02*
X0308650Y0189000D01*
X0325690Y0189000D02*
X0335284Y0189000D01*
X0164310Y0192000D02*
X0154650Y0192000D01*
X0181349Y0192000D02*
X0182650Y0192000D01*
X0307350Y0192000D02*
X0308650Y0192000D01*
X0325690Y0192000D02*
X0335349Y0192000D01*
X0164465Y0195000D02*
X0154650Y0195000D01*
X0181349Y0195000D02*
X0182650Y0195000D01*
X0307350Y0195000D02*
X0308650Y0195000D01*
X0325535Y0195000D02*
X0335349Y0195000D01*
X0184224Y0198000D02*
X0154650Y0198000D01*
X0282332Y0198000D02*
X0284678Y0198000D01*
X0289322Y0198000D02*
X0335349Y0198000D01*
X0181224Y0201000D02*
X0154650Y0201000D01*
X0281909Y0201000D02*
X0309904Y0201000D01*
X0178224Y0204000D02*
X0154650Y0204000D01*
X0185776Y0204000D02*
X0186310Y0204000D01*
X0212689Y0204000D02*
X0220224Y0204000D01*
X0269276Y0204000D02*
X0272104Y0204000D01*
X0279696Y0204000D02*
X0308568Y0204000D01*
X0175224Y0207000D02*
X0154650Y0207000D01*
X0182776Y0207000D02*
X0186310Y0207000D01*
X0198849Y0207000D02*
X0200150Y0207000D01*
X0212689Y0207000D02*
X0223224Y0207000D01*
X0266276Y0207000D02*
X0275663Y0207000D01*
X0307237Y0207000D02*
X0308867Y0207000D01*
X0186989Y0210000D02*
X0179989Y0210000D01*
X0198849Y0210000D02*
X0200150Y0210000D01*
X0212011Y0210000D02*
X0223363Y0210000D01*
X0310020Y0210000D02*
X0310904Y0210000D01*
X0220363Y0213000D02*
X0182089Y0213000D01*
X0303150Y0213000D02*
X0303180Y0213000D01*
X0310020Y0213000D02*
X0335349Y0213000D01*
X0217363Y0216000D02*
X0182432Y0216000D01*
X0276337Y0216000D02*
X0277850Y0216000D01*
X0303150Y0216000D02*
X0303180Y0216000D01*
X0310020Y0216000D02*
X0335349Y0216000D01*
X0214363Y0219000D02*
X0181203Y0219000D01*
X0224037Y0219000D02*
X0230810Y0219000D01*
X0269837Y0219000D02*
X0275817Y0219000D01*
X0303150Y0219000D02*
X0303180Y0219000D01*
X0310020Y0219000D02*
X0312678Y0219000D01*
X0317322Y0219000D02*
X0335349Y0219000D01*
X0186850Y0222000D02*
X0154650Y0222000D01*
X0221037Y0222000D02*
X0231349Y0222000D01*
X0264925Y0222000D02*
X0272817Y0222000D01*
X0281783Y0222000D02*
X0303180Y0222000D01*
X0186850Y0225000D02*
X0154650Y0225000D01*
X0219223Y0225000D02*
X0231349Y0225000D01*
X0263725Y0225000D02*
X0264925Y0225000D01*
X0269403Y0225000D02*
X0269817Y0225000D01*
X0278783Y0225000D02*
X0303180Y0225000D01*
X0186850Y0228000D02*
X0154650Y0228000D01*
X0228664Y0228000D02*
X0232252Y0228000D01*
X0258170Y0228000D02*
X0266830Y0228000D01*
X0275783Y0228000D02*
X0303180Y0228000D01*
X0211736Y0231000D02*
X0180989Y0231000D01*
X0228664Y0231000D02*
X0230350Y0231000D01*
X0259650Y0231000D02*
X0266830Y0231000D01*
X0273170Y0231000D02*
X0277850Y0231000D01*
X0303150Y0231000D02*
X0303180Y0231000D01*
X0211736Y0234000D02*
X0182432Y0234000D01*
X0259650Y0234000D02*
X0266830Y0234000D01*
X0273170Y0234000D02*
X0277850Y0234000D01*
X0303150Y0234000D02*
X0303180Y0234000D01*
X0213466Y0237000D02*
X0182178Y0237000D01*
X0259650Y0237000D02*
X0266830Y0237000D01*
X0273170Y0237000D02*
X0276017Y0237000D01*
X0303150Y0237000D02*
X0303180Y0237000D01*
X0187751Y0240000D02*
X0180203Y0240000D01*
X0211248Y0240000D02*
X0213466Y0240000D01*
X0259650Y0240000D02*
X0266830Y0240000D01*
X0273170Y0240000D02*
X0273530Y0240000D01*
X0302248Y0240000D02*
X0303180Y0240000D01*
X0186850Y0243000D02*
X0154650Y0243000D01*
X0212150Y0243000D02*
X0213466Y0243000D01*
X0259650Y0243000D02*
X0266830Y0243000D01*
X0273170Y0243000D02*
X0273530Y0243000D01*
X0279870Y0243000D02*
X0303180Y0243000D01*
X0186850Y0246000D02*
X0154650Y0246000D01*
X0259650Y0246000D02*
X0266830Y0246000D01*
X0273170Y0246000D02*
X0273530Y0246000D01*
X0279870Y0246000D02*
X0303180Y0246000D01*
X0173936Y0249000D02*
X0154650Y0249000D01*
X0178064Y0249000D02*
X0186850Y0249000D01*
X0248276Y0249000D02*
X0266830Y0249000D01*
X0273170Y0249000D02*
X0273530Y0249000D01*
X0279870Y0249000D02*
X0303180Y0249000D01*
X0211736Y0252000D02*
X0181675Y0252000D01*
X0245276Y0252000D02*
X0266117Y0252000D01*
X0273170Y0252000D02*
X0273530Y0252000D01*
X0303150Y0252000D02*
X0303180Y0252000D01*
X0213366Y0255000D02*
X0182432Y0255000D01*
X0231469Y0255000D02*
X0263117Y0255000D01*
X0272083Y0255000D02*
X0272817Y0255000D01*
X0303150Y0255000D02*
X0303180Y0255000D01*
X0213366Y0258000D02*
X0181764Y0258000D01*
X0231469Y0258000D02*
X0260116Y0258000D01*
X0269083Y0258000D02*
X0269817Y0258000D01*
X0303150Y0258000D02*
X0303180Y0258000D01*
X0173419Y0261000D02*
X0154650Y0261000D01*
X0178581Y0261000D02*
X0186850Y0261000D01*
X0212150Y0261000D02*
X0213366Y0261000D01*
X0231469Y0261000D02*
X0257117Y0261000D01*
X0266083Y0261000D02*
X0266817Y0261000D01*
X0275783Y0261000D02*
X0303180Y0261000D01*
X0186850Y0264000D02*
X0154650Y0264000D01*
X0212150Y0264000D02*
X0212504Y0264000D01*
X0231289Y0264000D02*
X0254117Y0264000D01*
X0263083Y0264000D02*
X0263817Y0264000D01*
X0272783Y0264000D02*
X0303163Y0264000D01*
X0186656Y0267000D02*
X0154650Y0267000D01*
X0228564Y0267000D02*
X0251117Y0267000D01*
X0260082Y0267000D02*
X0260816Y0267000D01*
X0269783Y0267000D02*
X0300163Y0267000D01*
X0183656Y0270000D02*
X0179989Y0270000D01*
X0228564Y0270000D02*
X0248117Y0270000D01*
X0257083Y0270000D02*
X0257817Y0270000D01*
X0266783Y0270000D02*
X0278752Y0270000D01*
X0306837Y0270000D02*
X0310904Y0270000D01*
X0230326Y0273000D02*
X0226896Y0273000D01*
X0234775Y0273000D02*
X0235724Y0273000D01*
X0263783Y0273000D02*
X0277850Y0273000D01*
X0303837Y0273000D02*
X0335349Y0273000D01*
X0229810Y0276000D02*
X0221997Y0276000D01*
X0234775Y0276000D02*
X0235724Y0276000D01*
X0260783Y0276000D02*
X0277850Y0276000D01*
X0303150Y0276000D02*
X0335349Y0276000D01*
X0229810Y0279000D02*
X0224489Y0279000D01*
X0234775Y0279000D02*
X0235724Y0279000D01*
X0259650Y0279000D02*
X0277850Y0279000D01*
X0303150Y0279000D02*
X0312678Y0279000D01*
X0317322Y0279000D02*
X0335349Y0279000D01*
X0179969Y0282000D02*
X0154650Y0282000D01*
X0229940Y0282000D02*
X0234775Y0282000D01*
X0259650Y0282000D02*
X0309281Y0282000D01*
X0179969Y0285000D02*
X0154650Y0285000D01*
X0259650Y0285000D02*
X0308568Y0285000D01*
X0179969Y0288000D02*
X0154650Y0288000D01*
X0259650Y0288000D02*
X0309281Y0288000D01*
X0181817Y0291000D02*
X0180989Y0291000D01*
X0190783Y0291000D02*
X0206516Y0291000D01*
X0258998Y0291000D02*
X0277465Y0291000D01*
X0289850Y0291000D02*
X0291150Y0291000D01*
X0303535Y0291000D02*
X0312678Y0291000D01*
X0317322Y0291000D02*
X0335349Y0291000D01*
X0184817Y0294000D02*
X0182432Y0294000D01*
X0193783Y0294000D02*
X0209517Y0294000D01*
X0251420Y0294000D02*
X0251830Y0294000D01*
X0258170Y0294000D02*
X0277310Y0294000D01*
X0289850Y0294000D02*
X0291150Y0294000D01*
X0303690Y0294000D02*
X0335349Y0294000D01*
X0187817Y0297000D02*
X0182178Y0297000D01*
X0196783Y0297000D02*
X0212517Y0297000D01*
X0249483Y0297000D02*
X0250517Y0297000D01*
X0258170Y0297000D02*
X0277310Y0297000D01*
X0289850Y0297000D02*
X0291150Y0297000D01*
X0303690Y0297000D02*
X0335349Y0297000D01*
X0190816Y0300000D02*
X0180203Y0300000D01*
X0199783Y0300000D02*
X0215517Y0300000D01*
X0246483Y0300000D02*
X0247517Y0300000D01*
X0256483Y0300000D02*
X0277989Y0300000D01*
X0289850Y0300000D02*
X0291150Y0300000D01*
X0303011Y0300000D02*
X0335349Y0300000D01*
X0166371Y0303000D02*
X0154650Y0303000D01*
X0181349Y0303000D02*
X0182650Y0303000D01*
X0253483Y0303000D02*
X0292371Y0303000D01*
X0307350Y0303000D02*
X0308650Y0303000D01*
X0323628Y0303000D02*
X0335349Y0303000D01*
X0164310Y0306000D02*
X0154650Y0306000D01*
X0181349Y0306000D02*
X0182650Y0306000D01*
X0250482Y0306000D02*
X0290310Y0306000D01*
X0307350Y0306000D02*
X0308650Y0306000D01*
X0325690Y0306000D02*
X0335349Y0306000D01*
X0164310Y0309000D02*
X0154650Y0309000D01*
X0181349Y0309000D02*
X0182650Y0309000D01*
X0199690Y0309000D02*
X0290310Y0309000D01*
X0307350Y0309000D02*
X0308650Y0309000D01*
X0325690Y0309000D02*
X0335349Y0309000D01*
X0164310Y0312000D02*
X0154781Y0312000D01*
X0181349Y0312000D02*
X0182650Y0312000D01*
X0199690Y0312000D02*
X0235034Y0312000D01*
X0254221Y0312000D02*
X0290310Y0312000D01*
X0307350Y0312000D02*
X0308650Y0312000D01*
X0325690Y0312000D02*
X0335219Y0312000D01*
X0164310Y0315000D02*
X0155056Y0315000D01*
X0181349Y0315000D02*
X0182650Y0315000D01*
X0199690Y0315000D02*
X0231473Y0315000D01*
X0259069Y0315000D02*
X0290310Y0315000D01*
X0307350Y0315000D02*
X0308650Y0315000D01*
X0325690Y0315000D02*
X0334944Y0315000D01*
X0164310Y0318000D02*
X0155860Y0318000D01*
X0181349Y0318000D02*
X0182650Y0318000D01*
X0199690Y0318000D02*
X0228232Y0318000D01*
X0261248Y0318000D02*
X0290310Y0318000D01*
X0307350Y0318000D02*
X0308650Y0318000D01*
X0325690Y0318000D02*
X0334140Y0318000D01*
X0164310Y0321000D02*
X0156663Y0321000D01*
X0181349Y0321000D02*
X0182650Y0321000D01*
X0199690Y0321000D02*
X0226897Y0321000D01*
X0263428Y0321000D02*
X0290310Y0321000D01*
X0307350Y0321000D02*
X0308650Y0321000D01*
X0325690Y0321000D02*
X0333336Y0321000D01*
X0164310Y0324000D02*
X0157613Y0324000D01*
X0181349Y0324000D02*
X0182650Y0324000D01*
X0199690Y0324000D02*
X0225561Y0324000D01*
X0264375Y0324000D02*
X0290310Y0324000D01*
X0307350Y0324000D02*
X0308650Y0324000D01*
X0325690Y0324000D02*
X0332387Y0324000D01*
X0164310Y0327000D02*
X0159345Y0327000D01*
X0181349Y0327000D02*
X0182650Y0327000D01*
X0199690Y0327000D02*
X0224801Y0327000D01*
X0265012Y0327000D02*
X0290310Y0327000D01*
X0307350Y0327000D02*
X0308650Y0327000D01*
X0325690Y0327000D02*
X0330653Y0327000D01*
X0164310Y0330000D02*
X0161078Y0330000D01*
X0181349Y0330000D02*
X0182650Y0330000D01*
X0199690Y0330000D02*
X0224801Y0330000D01*
X0265650Y0330000D02*
X0290310Y0330000D01*
X0307350Y0330000D02*
X0308650Y0330000D01*
X0325690Y0330000D02*
X0328922Y0330000D01*
X0164465Y0333000D02*
X0163435Y0333000D01*
X0181349Y0333000D02*
X0182650Y0333000D01*
X0199534Y0333000D02*
X0224801Y0333000D01*
X0265012Y0333000D02*
X0290465Y0333000D01*
X0307350Y0333000D02*
X0308650Y0333000D01*
X0325535Y0333000D02*
X0326565Y0333000D01*
X0225561Y0336000D02*
X0166435Y0336000D01*
X0264375Y0336000D02*
X0323564Y0336000D01*
X0226897Y0339000D02*
X0170134Y0339000D01*
X0263428Y0339000D02*
X0319866Y0339000D01*
X0228232Y0342000D02*
X0175330Y0342000D01*
X0261248Y0342000D02*
X0314669Y0342000D01*
X0231473Y0345000D02*
X0185208Y0345000D01*
X0259069Y0345000D02*
X0304792Y0345000D01*
X0156000Y0209350D02*
X0156000Y0181476D01*
X0156000Y0220650D02*
X0156000Y0229350D01*
X0156000Y0240649D02*
X0156000Y0249350D01*
X0156000Y0260649D02*
X0156000Y0269350D01*
X0156000Y0280650D02*
X0156000Y0289350D01*
X0156000Y0300650D02*
X0156000Y0318524D01*
X0159000Y0209350D02*
X0159000Y0173598D01*
X0159000Y0220650D02*
X0159000Y0229350D01*
X0159000Y0240649D02*
X0159000Y0249350D01*
X0159000Y0260649D02*
X0159000Y0269350D01*
X0159000Y0280650D02*
X0159000Y0289350D01*
X0159000Y0300650D02*
X0159000Y0326402D01*
X0162000Y0209350D02*
X0162000Y0168435D01*
X0162000Y0220650D02*
X0162000Y0229350D01*
X0162000Y0240649D02*
X0162000Y0249350D01*
X0162000Y0260649D02*
X0162000Y0269350D01*
X0162000Y0280650D02*
X0162000Y0289350D01*
X0162000Y0300650D02*
X0162000Y0331565D01*
X0165000Y0165989D02*
X0165000Y0165435D01*
X0165000Y0180350D02*
X0165000Y0181650D01*
X0165000Y0196011D02*
X0165000Y0209350D01*
X0165000Y0220650D02*
X0165000Y0229350D01*
X0165000Y0240649D02*
X0165000Y0249350D01*
X0165000Y0260649D02*
X0165000Y0269350D01*
X0165000Y0280650D02*
X0165000Y0289350D01*
X0165000Y0300650D02*
X0165000Y0303989D01*
X0165000Y0318350D02*
X0165000Y0319650D01*
X0165000Y0334011D02*
X0165000Y0334565D01*
X0168000Y0164810D02*
X0168000Y0162435D01*
X0168000Y0180350D02*
X0168000Y0181650D01*
X0168000Y0197190D02*
X0168000Y0209350D01*
X0168000Y0220650D02*
X0168000Y0229350D01*
X0168000Y0240649D02*
X0168000Y0249350D01*
X0168000Y0260649D02*
X0168000Y0269350D01*
X0168000Y0280650D02*
X0168000Y0289350D01*
X0168000Y0300650D02*
X0168000Y0302810D01*
X0168000Y0318350D02*
X0168000Y0319650D01*
X0168000Y0335190D02*
X0168000Y0337565D01*
X0171000Y0164810D02*
X0171000Y0160500D01*
X0171000Y0180350D02*
X0171000Y0181650D01*
X0171000Y0197190D02*
X0171000Y0209350D01*
X0171000Y0220650D02*
X0171000Y0229350D01*
X0171000Y0240649D02*
X0171000Y0249350D01*
X0171000Y0260649D02*
X0171000Y0269350D01*
X0171000Y0280650D02*
X0171000Y0289350D01*
X0171000Y0300650D02*
X0171000Y0302810D01*
X0171000Y0318350D02*
X0171000Y0319650D01*
X0171000Y0335190D02*
X0171000Y0339500D01*
X0174000Y0164810D02*
X0174000Y0158768D01*
X0174000Y0180350D02*
X0174000Y0181650D01*
X0174000Y0197190D02*
X0174000Y0208224D01*
X0174000Y0221241D02*
X0174000Y0228974D01*
X0174000Y0241241D02*
X0174000Y0248973D01*
X0174000Y0261241D02*
X0174000Y0268822D01*
X0174000Y0281178D02*
X0174000Y0288974D01*
X0174000Y0301241D02*
X0174000Y0302810D01*
X0174000Y0318350D02*
X0174000Y0319650D01*
X0174000Y0335190D02*
X0174000Y0341232D01*
X0177000Y0164810D02*
X0177000Y0157199D01*
X0177000Y0180350D02*
X0177000Y0181650D01*
X0177000Y0197190D02*
X0177000Y0205224D01*
X0177000Y0221539D02*
X0177000Y0228675D01*
X0177000Y0241539D02*
X0177000Y0248675D01*
X0177000Y0261539D02*
X0177000Y0268568D01*
X0177000Y0281432D02*
X0177000Y0288675D01*
X0177000Y0301539D02*
X0177000Y0302810D01*
X0177000Y0318350D02*
X0177000Y0319650D01*
X0177000Y0335190D02*
X0177000Y0342801D01*
X0180000Y0164810D02*
X0180000Y0156396D01*
X0180000Y0180350D02*
X0180000Y0181650D01*
X0180000Y0197190D02*
X0180000Y0202224D01*
X0180000Y0209776D02*
X0180000Y0210011D01*
X0180000Y0220203D02*
X0180000Y0230011D01*
X0180000Y0240203D02*
X0180000Y0250011D01*
X0180000Y0260203D02*
X0180000Y0270011D01*
X0180000Y0289183D02*
X0180000Y0290011D01*
X0180000Y0300203D02*
X0180000Y0302810D01*
X0180000Y0318350D02*
X0180000Y0319650D01*
X0180000Y0335190D02*
X0180000Y0343604D01*
X0183000Y0164810D02*
X0183000Y0155592D01*
X0183000Y0197190D02*
X0183000Y0199224D01*
X0183000Y0206775D02*
X0183000Y0270656D01*
X0183000Y0292183D02*
X0183000Y0302810D01*
X0183000Y0318350D02*
X0183000Y0319650D01*
X0183000Y0335190D02*
X0183000Y0344407D01*
X0186000Y0164810D02*
X0186000Y0154912D01*
X0186000Y0203776D02*
X0186000Y0267656D01*
X0186000Y0295183D02*
X0186000Y0302810D01*
X0186000Y0318350D02*
X0186000Y0319650D01*
X0186000Y0335190D02*
X0186000Y0345088D01*
X0189000Y0164810D02*
X0189000Y0154716D01*
X0189000Y0204350D02*
X0189000Y0205650D01*
X0189000Y0211169D02*
X0189000Y0219350D01*
X0189000Y0230649D02*
X0189000Y0239350D01*
X0189000Y0250649D02*
X0189000Y0259350D01*
X0189000Y0298183D02*
X0189000Y0302810D01*
X0189000Y0318350D02*
X0189000Y0319650D01*
X0189000Y0335190D02*
X0189000Y0345284D01*
X0192000Y0164810D02*
X0192000Y0154650D01*
X0192000Y0204350D02*
X0192000Y0205650D01*
X0192000Y0211190D02*
X0192000Y0219350D01*
X0192000Y0230649D02*
X0192000Y0239350D01*
X0192000Y0250649D02*
X0192000Y0259350D01*
X0192000Y0290650D02*
X0192000Y0292217D01*
X0192000Y0301183D02*
X0192000Y0302810D01*
X0192000Y0318350D02*
X0192000Y0319650D01*
X0192000Y0335190D02*
X0192000Y0345349D01*
X0195000Y0164810D02*
X0195000Y0154650D01*
X0195000Y0204350D02*
X0195000Y0205650D01*
X0195000Y0211190D02*
X0195000Y0219350D01*
X0195000Y0230649D02*
X0195000Y0239350D01*
X0195000Y0250649D02*
X0195000Y0259350D01*
X0195000Y0290650D02*
X0195000Y0295217D01*
X0195000Y0318350D02*
X0195000Y0319650D01*
X0195000Y0335190D02*
X0195000Y0345349D01*
X0198000Y0165183D02*
X0198000Y0154650D01*
X0198000Y0204350D02*
X0198000Y0205650D01*
X0198000Y0211190D02*
X0198000Y0219350D01*
X0198000Y0230649D02*
X0198000Y0239350D01*
X0198000Y0250649D02*
X0198000Y0259350D01*
X0198000Y0290650D02*
X0198000Y0298217D01*
X0198000Y0318350D02*
X0198000Y0319650D01*
X0198000Y0334817D02*
X0198000Y0345349D01*
X0201000Y0171867D02*
X0201000Y0154650D01*
X0201000Y0204350D02*
X0201000Y0205650D01*
X0201000Y0211190D02*
X0201000Y0219350D01*
X0201000Y0230649D02*
X0201000Y0239350D01*
X0201000Y0250649D02*
X0201000Y0259350D01*
X0201000Y0290650D02*
X0201000Y0301130D01*
X0201000Y0307470D02*
X0201000Y0345349D01*
X0204000Y0171568D02*
X0204000Y0154650D01*
X0204000Y0204350D02*
X0204000Y0205650D01*
X0204000Y0211190D02*
X0204000Y0219350D01*
X0204000Y0230649D02*
X0204000Y0239350D01*
X0204000Y0250649D02*
X0204000Y0259350D01*
X0204000Y0290650D02*
X0204000Y0301130D01*
X0204000Y0307470D02*
X0204000Y0345349D01*
X0207000Y0165904D02*
X0207000Y0154650D01*
X0207000Y0204350D02*
X0207000Y0205650D01*
X0207000Y0211190D02*
X0207000Y0219350D01*
X0207000Y0230649D02*
X0207000Y0239350D01*
X0207000Y0250649D02*
X0207000Y0259350D01*
X0207000Y0291483D02*
X0207000Y0301130D01*
X0207000Y0307470D02*
X0207000Y0345349D01*
X0210000Y0164568D02*
X0210000Y0154650D01*
X0210000Y0204350D02*
X0210000Y0205650D01*
X0210000Y0211169D02*
X0210000Y0219350D01*
X0210000Y0230649D02*
X0210000Y0239350D01*
X0210000Y0250649D02*
X0210000Y0259350D01*
X0210000Y0294483D02*
X0210000Y0301130D01*
X0210000Y0307470D02*
X0210000Y0345349D01*
X0213000Y0164866D02*
X0213000Y0154650D01*
X0213000Y0201670D02*
X0213000Y0220363D01*
X0213000Y0235495D02*
X0213000Y0245004D01*
X0213000Y0253996D02*
X0213000Y0263504D01*
X0213000Y0297483D02*
X0213000Y0301130D01*
X0213000Y0307470D02*
X0213000Y0345349D01*
X0216000Y0166904D02*
X0216000Y0154650D01*
X0216000Y0201670D02*
X0216000Y0217363D01*
X0216000Y0300470D02*
X0216000Y0301130D01*
X0216000Y0307470D02*
X0216000Y0345349D01*
X0219000Y0175224D02*
X0219000Y0154650D01*
X0219000Y0202776D02*
X0219000Y0214363D01*
X0219000Y0224037D02*
X0219000Y0224777D01*
X0219000Y0300470D02*
X0219000Y0301130D01*
X0219000Y0307470D02*
X0219000Y0345349D01*
X0222000Y0178224D02*
X0222000Y0154650D01*
X0222000Y0205776D02*
X0222000Y0211362D01*
X0222000Y0221037D02*
X0222000Y0225850D01*
X0222000Y0273250D02*
X0222000Y0276004D01*
X0222000Y0300470D02*
X0222000Y0301130D01*
X0222000Y0307470D02*
X0222000Y0345349D01*
X0225000Y0165260D02*
X0225000Y0154650D01*
X0225000Y0174740D02*
X0225000Y0181224D01*
X0225000Y0208670D02*
X0225000Y0209780D01*
X0225000Y0218037D02*
X0225000Y0225850D01*
X0225000Y0273250D02*
X0225000Y0279616D01*
X0225000Y0300470D02*
X0225000Y0301130D01*
X0225000Y0307470D02*
X0225000Y0325259D01*
X0225000Y0334740D02*
X0225000Y0345349D01*
X0228000Y0158522D02*
X0228000Y0154650D01*
X0228000Y0181478D02*
X0228000Y0184224D01*
X0228000Y0208670D02*
X0228000Y0209780D01*
X0228000Y0216620D02*
X0228000Y0227104D01*
X0228000Y0271896D02*
X0228000Y0280450D01*
X0228000Y0300470D02*
X0228000Y0301130D01*
X0228000Y0307470D02*
X0228000Y0318522D01*
X0228000Y0341478D02*
X0228000Y0345349D01*
X0231000Y0155426D02*
X0231000Y0154650D01*
X0231000Y0184574D02*
X0231000Y0187224D01*
X0231000Y0208670D02*
X0231000Y0209780D01*
X0231000Y0218500D02*
X0231000Y0218500D01*
X0231000Y0221129D02*
X0231000Y0229001D01*
X0231000Y0264290D02*
X0231000Y0272239D01*
X0231000Y0281525D02*
X0231000Y0282475D01*
X0231000Y0300470D02*
X0231000Y0301130D01*
X0231000Y0307470D02*
X0231000Y0315426D01*
X0231000Y0344574D02*
X0231000Y0345349D01*
X0234000Y0190224D02*
X0234000Y0187276D01*
X0234000Y0208670D02*
X0234000Y0209780D01*
X0234000Y0218500D02*
X0234000Y0218500D01*
X0234000Y0253870D02*
X0234000Y0271560D01*
X0234000Y0281525D02*
X0234000Y0282475D01*
X0234000Y0300470D02*
X0234000Y0301130D01*
X0234000Y0307470D02*
X0234000Y0312724D01*
X0237000Y0191330D02*
X0237000Y0188639D01*
X0237000Y0208670D02*
X0237000Y0209780D01*
X0237000Y0218500D02*
X0237000Y0218500D01*
X0237000Y0253870D02*
X0237000Y0271560D01*
X0237000Y0300470D02*
X0237000Y0301130D01*
X0237000Y0307470D02*
X0237000Y0311361D01*
X0240000Y0191330D02*
X0240000Y0189614D01*
X0240000Y0208670D02*
X0240000Y0209780D01*
X0240000Y0218500D02*
X0240000Y0218500D01*
X0240000Y0253870D02*
X0240000Y0272100D01*
X0240000Y0300470D02*
X0240000Y0301130D01*
X0240000Y0307470D02*
X0240000Y0310386D01*
X0243000Y0191330D02*
X0243000Y0190520D01*
X0243000Y0208670D02*
X0243000Y0209780D01*
X0243000Y0253870D02*
X0243000Y0272100D01*
X0243000Y0300470D02*
X0243000Y0301130D01*
X0243000Y0307470D02*
X0243000Y0309480D01*
X0246000Y0191330D02*
X0246000Y0190204D01*
X0246000Y0208670D02*
X0246000Y0209780D01*
X0246000Y0218500D02*
X0246000Y0218500D01*
X0246000Y0251276D02*
X0246000Y0272100D01*
X0246000Y0300470D02*
X0246000Y0301130D01*
X0246000Y0307470D02*
X0246000Y0309795D01*
X0249000Y0191330D02*
X0249000Y0189890D01*
X0249000Y0208670D02*
X0249000Y0209780D01*
X0249000Y0248276D02*
X0249000Y0269117D01*
X0249000Y0297483D02*
X0249000Y0298517D01*
X0249000Y0307470D02*
X0249000Y0310110D01*
X0252000Y0191330D02*
X0252000Y0189282D01*
X0252000Y0208670D02*
X0252000Y0209780D01*
X0252000Y0247900D02*
X0252000Y0266117D01*
X0252000Y0304483D02*
X0252000Y0310718D01*
X0255000Y0190724D02*
X0255000Y0187550D01*
X0255000Y0208670D02*
X0255000Y0209780D01*
X0255000Y0247900D02*
X0255000Y0263117D01*
X0255000Y0272083D02*
X0255000Y0272100D01*
X0255000Y0301483D02*
X0255000Y0312450D01*
X0258000Y0187724D02*
X0258000Y0185818D01*
X0258000Y0208670D02*
X0258000Y0209780D01*
X0258000Y0247900D02*
X0258000Y0260116D01*
X0258000Y0269083D02*
X0258000Y0269817D01*
X0258000Y0298483D02*
X0258000Y0314182D01*
X0261000Y0157658D02*
X0261000Y0154650D01*
X0261000Y0182342D02*
X0261000Y0184724D01*
X0261000Y0208670D02*
X0261000Y0209780D01*
X0261000Y0226679D02*
X0261000Y0257117D01*
X0261000Y0266083D02*
X0261000Y0266817D01*
X0261000Y0275783D02*
X0261000Y0317658D01*
X0261000Y0342342D02*
X0261000Y0345349D01*
X0264000Y0162237D02*
X0264000Y0154650D01*
X0264000Y0177762D02*
X0264000Y0181724D01*
X0264000Y0208670D02*
X0264000Y0209780D01*
X0264000Y0222100D02*
X0264000Y0254117D01*
X0264000Y0263083D02*
X0264000Y0263817D01*
X0264000Y0272783D02*
X0264000Y0322238D01*
X0264000Y0337762D02*
X0264000Y0345349D01*
X0267000Y0178724D02*
X0267000Y0154650D01*
X0267000Y0206276D02*
X0267000Y0209780D01*
X0267000Y0220900D02*
X0267000Y0222100D01*
X0267000Y0226965D02*
X0267000Y0227817D01*
X0267000Y0260082D02*
X0267000Y0260816D01*
X0267000Y0269783D02*
X0267000Y0345349D01*
X0270000Y0175724D02*
X0270000Y0154650D01*
X0270000Y0203276D02*
X0270000Y0209780D01*
X0270000Y0216620D02*
X0270000Y0219609D01*
X0270000Y0220900D02*
X0270000Y0222100D01*
X0270000Y0223390D02*
X0270000Y0224817D01*
X0270000Y0257083D02*
X0270000Y0257817D01*
X0270000Y0266783D02*
X0270000Y0345349D01*
X0273000Y0168678D02*
X0273000Y0154650D01*
X0273000Y0204461D02*
X0273000Y0209663D01*
X0273000Y0216620D02*
X0273000Y0221817D01*
X0273000Y0254083D02*
X0273000Y0254817D01*
X0273000Y0263783D02*
X0273000Y0345349D01*
X0276000Y0165280D02*
X0276000Y0154650D01*
X0276000Y0205132D02*
X0276000Y0206663D01*
X0276000Y0216337D02*
X0276000Y0218817D01*
X0276000Y0227783D02*
X0276000Y0237017D01*
X0276000Y0260783D02*
X0276000Y0345349D01*
X0279000Y0164568D02*
X0279000Y0154650D01*
X0279000Y0204378D02*
X0279000Y0204780D01*
X0279000Y0224783D02*
X0279000Y0229752D01*
X0279000Y0260248D02*
X0279000Y0269752D01*
X0279000Y0280248D02*
X0279000Y0289183D01*
X0279000Y0294350D02*
X0279000Y0295650D01*
X0279000Y0300817D02*
X0279000Y0345349D01*
X0282000Y0165280D02*
X0282000Y0154650D01*
X0282000Y0196096D02*
X0282000Y0196619D01*
X0282000Y0200781D02*
X0282000Y0204780D01*
X0282000Y0221783D02*
X0282000Y0229350D01*
X0282000Y0240649D02*
X0282000Y0249350D01*
X0282000Y0260649D02*
X0282000Y0269350D01*
X0282000Y0280650D02*
X0282000Y0288810D01*
X0282000Y0294350D02*
X0282000Y0295650D01*
X0282000Y0301190D02*
X0282000Y0345349D01*
X0285000Y0168678D02*
X0285000Y0154650D01*
X0285000Y0198134D02*
X0285000Y0204780D01*
X0285000Y0220650D02*
X0285000Y0229350D01*
X0285000Y0240649D02*
X0285000Y0249350D01*
X0285000Y0260649D02*
X0285000Y0269350D01*
X0285000Y0280650D02*
X0285000Y0288810D01*
X0285000Y0294350D02*
X0285000Y0295650D01*
X0285000Y0301190D02*
X0285000Y0345349D01*
X0288000Y0171568D02*
X0288000Y0154650D01*
X0288000Y0198432D02*
X0288000Y0204780D01*
X0288000Y0220650D02*
X0288000Y0229350D01*
X0288000Y0240649D02*
X0288000Y0249350D01*
X0288000Y0260649D02*
X0288000Y0269350D01*
X0288000Y0280650D02*
X0288000Y0288810D01*
X0288000Y0294350D02*
X0288000Y0295650D01*
X0288000Y0301190D02*
X0288000Y0345349D01*
X0291000Y0165989D02*
X0291000Y0154650D01*
X0291000Y0197096D02*
X0291000Y0204780D01*
X0291000Y0220650D02*
X0291000Y0229350D01*
X0291000Y0240649D02*
X0291000Y0249350D01*
X0291000Y0260649D02*
X0291000Y0269350D01*
X0291000Y0280650D02*
X0291000Y0294350D01*
X0291000Y0295650D02*
X0291000Y0303989D01*
X0291000Y0318350D02*
X0291000Y0319650D01*
X0291000Y0334011D02*
X0291000Y0345349D01*
X0294000Y0164810D02*
X0294000Y0154650D01*
X0294000Y0197190D02*
X0294000Y0204780D01*
X0294000Y0220650D02*
X0294000Y0229350D01*
X0294000Y0240649D02*
X0294000Y0249350D01*
X0294000Y0260649D02*
X0294000Y0269350D01*
X0294000Y0280650D02*
X0294000Y0288810D01*
X0294000Y0294350D02*
X0294000Y0295650D01*
X0294000Y0301190D02*
X0294000Y0302810D01*
X0294000Y0318350D02*
X0294000Y0319650D01*
X0294000Y0335190D02*
X0294000Y0345349D01*
X0297000Y0164810D02*
X0297000Y0154650D01*
X0297000Y0197190D02*
X0297000Y0204780D01*
X0297000Y0220650D02*
X0297000Y0229350D01*
X0297000Y0240649D02*
X0297000Y0249350D01*
X0297000Y0260649D02*
X0297000Y0269350D01*
X0297000Y0280650D02*
X0297000Y0288810D01*
X0297000Y0294350D02*
X0297000Y0295650D01*
X0297000Y0301190D02*
X0297000Y0302810D01*
X0297000Y0318350D02*
X0297000Y0319650D01*
X0297000Y0335190D02*
X0297000Y0345349D01*
X0300000Y0164810D02*
X0300000Y0154650D01*
X0300000Y0197190D02*
X0300000Y0204780D01*
X0300000Y0220650D02*
X0300000Y0229350D01*
X0300000Y0240649D02*
X0300000Y0249350D01*
X0300000Y0260649D02*
X0300000Y0267163D01*
X0300000Y0280650D02*
X0300000Y0288810D01*
X0300000Y0294350D02*
X0300000Y0295650D01*
X0300000Y0301190D02*
X0300000Y0302810D01*
X0300000Y0318350D02*
X0300000Y0319650D01*
X0300000Y0335190D02*
X0300000Y0345349D01*
X0303000Y0164810D02*
X0303000Y0154847D01*
X0303000Y0197190D02*
X0303000Y0204780D01*
X0303000Y0219248D02*
X0303000Y0230752D01*
X0303000Y0239247D02*
X0303000Y0250752D01*
X0303000Y0259247D02*
X0303000Y0264163D01*
X0303000Y0279248D02*
X0303000Y0289989D01*
X0303000Y0294350D02*
X0303000Y0295650D01*
X0303000Y0300011D02*
X0303000Y0302810D01*
X0303000Y0318350D02*
X0303000Y0319650D01*
X0303000Y0335190D02*
X0303000Y0345152D01*
X0306000Y0164810D02*
X0306000Y0155324D01*
X0306000Y0197190D02*
X0306000Y0205763D01*
X0306000Y0270837D02*
X0306000Y0302810D01*
X0306000Y0318350D02*
X0306000Y0319650D01*
X0306000Y0335190D02*
X0306000Y0344676D01*
X0309000Y0164810D02*
X0309000Y0156128D01*
X0309000Y0180350D02*
X0309000Y0181650D01*
X0309000Y0197190D02*
X0309000Y0202678D01*
X0309000Y0207322D02*
X0309000Y0208763D01*
X0309000Y0267837D02*
X0309000Y0282678D01*
X0309000Y0287322D02*
X0309000Y0302810D01*
X0309000Y0318350D02*
X0309000Y0319650D01*
X0309000Y0335190D02*
X0309000Y0343872D01*
X0312000Y0164810D02*
X0312000Y0156931D01*
X0312000Y0180350D02*
X0312000Y0181650D01*
X0312000Y0197190D02*
X0312000Y0199281D01*
X0312000Y0210719D02*
X0312000Y0219281D01*
X0312000Y0270719D02*
X0312000Y0279281D01*
X0312000Y0290719D02*
X0312000Y0302810D01*
X0312000Y0318350D02*
X0312000Y0319650D01*
X0312000Y0335190D02*
X0312000Y0343069D01*
X0315000Y0164810D02*
X0315000Y0158191D01*
X0315000Y0180350D02*
X0315000Y0181650D01*
X0315000Y0197190D02*
X0315000Y0198568D01*
X0315000Y0211432D02*
X0315000Y0218568D01*
X0315000Y0271432D02*
X0315000Y0278568D01*
X0315000Y0291432D02*
X0315000Y0302810D01*
X0315000Y0318350D02*
X0315000Y0319650D01*
X0315000Y0335190D02*
X0315000Y0341809D01*
X0318000Y0164810D02*
X0318000Y0159923D01*
X0318000Y0180350D02*
X0318000Y0181650D01*
X0318000Y0197190D02*
X0318000Y0199281D01*
X0318000Y0210719D02*
X0318000Y0219281D01*
X0318000Y0270719D02*
X0318000Y0279281D01*
X0318000Y0290719D02*
X0318000Y0302810D01*
X0318000Y0318350D02*
X0318000Y0319650D01*
X0318000Y0335190D02*
X0318000Y0340077D01*
X0321000Y0164810D02*
X0321000Y0161655D01*
X0321000Y0180350D02*
X0321000Y0181650D01*
X0321000Y0197190D02*
X0321000Y0199350D01*
X0321000Y0210650D02*
X0321000Y0219350D01*
X0321000Y0270650D02*
X0321000Y0279350D01*
X0321000Y0290650D02*
X0321000Y0302810D01*
X0321000Y0318350D02*
X0321000Y0319650D01*
X0321000Y0335190D02*
X0321000Y0338345D01*
X0324000Y0165183D02*
X0324000Y0164435D01*
X0324000Y0180350D02*
X0324000Y0181650D01*
X0324000Y0196817D02*
X0324000Y0199350D01*
X0324000Y0210650D02*
X0324000Y0219350D01*
X0324000Y0270650D02*
X0324000Y0279350D01*
X0324000Y0290650D02*
X0324000Y0303183D01*
X0324000Y0318350D02*
X0324000Y0319650D01*
X0324000Y0334817D02*
X0324000Y0335565D01*
X0327000Y0199350D02*
X0327000Y0167435D01*
X0327000Y0210650D02*
X0327000Y0219350D01*
X0327000Y0270650D02*
X0327000Y0279350D01*
X0327000Y0290650D02*
X0327000Y0332565D01*
X0330000Y0199350D02*
X0330000Y0171866D01*
X0330000Y0210650D02*
X0330000Y0219350D01*
X0330000Y0270650D02*
X0330000Y0279350D01*
X0330000Y0290650D02*
X0330000Y0328134D01*
X0333000Y0199350D02*
X0333000Y0177744D01*
X0333000Y0210650D02*
X0333000Y0219350D01*
X0333000Y0270650D02*
X0333000Y0279350D01*
X0333000Y0290650D02*
X0333000Y0322256D01*
D18*
X0245000Y0260000D03*
X0256000Y0252000D03*
X0235000Y0270000D03*
X0162500Y0175000D03*
X0162500Y0183500D03*
X0162500Y0192000D03*
X0327500Y0183500D03*
X0327500Y0192000D03*
X0327500Y0175000D03*
X0327500Y0320000D03*
X0327500Y0310000D03*
X0305000Y0340000D03*
X0162500Y0310000D03*
X0181500Y0340000D03*
X0162500Y0320000D03*
X0226500Y0222500D03*
X0203700Y0295900D03*
X0262900Y0230799D03*
X0198500Y0214500D03*
X0207500Y0214500D03*
X0290500Y0285500D03*
X0216000Y0206000D03*
X0274000Y0295000D03*
X0282000Y0285500D03*
D19*
X0225525Y0285600D02*
X0216786Y0275079D01*
X0216786Y0268100D01*
X0216786Y0249600D01*
X0216886Y0249500D01*
X0216886Y0231000D01*
X0216986Y0230900D01*
X0216986Y0227599D01*
X0214386Y0225000D01*
X0199500Y0225000D01*
X0200500Y0224000D02*
X0214200Y0224000D01*
X0200500Y0224000D02*
X0199500Y0225000D01*
X0214200Y0224000D02*
X0225000Y0213200D01*
X0254775Y0221200D02*
X0255075Y0221500D01*
X0254750Y0221825D02*
X0254750Y0238000D01*
X0254750Y0221825D02*
X0255075Y0221500D01*
X0279300Y0208200D02*
X0303600Y0208200D01*
X0306600Y0211200D01*
X0306600Y0265400D01*
X0296700Y0275300D01*
X0290800Y0275300D01*
X0290500Y0275000D01*
X0255000Y0213200D02*
X0225000Y0213200D01*
X0255000Y0213200D02*
X0274300Y0213200D01*
X0279300Y0208200D01*
X0255075Y0213275D02*
X0255075Y0221500D01*
X0255075Y0213275D02*
X0255000Y0213200D01*
D13*
X0199500Y0265000D02*
X0193139Y0265000D01*
X0183139Y0275000D01*
X0183139Y0287839D01*
X0199600Y0304300D01*
X0247700Y0304300D01*
X0255000Y0297000D01*
X0255000Y0282250D01*
X0254750Y0282000D01*
X0254750Y0277550D01*
X0276700Y0255600D02*
X0276700Y0240799D01*
X0282500Y0235000D02*
X0290500Y0235000D01*
X0282500Y0235000D02*
X0276700Y0240799D01*
X0276700Y0255600D02*
X0254750Y0277550D01*
X0244700Y0297300D02*
X0217300Y0297300D01*
X0205000Y0285000D02*
X0199500Y0285000D01*
X0205000Y0285000D02*
X0217300Y0297300D01*
X0248250Y0293750D02*
X0248250Y0282000D01*
X0248250Y0293750D02*
X0244700Y0297300D01*
X0248250Y0282000D02*
X0248250Y0274350D01*
X0270000Y0252599D02*
X0270000Y0229300D01*
X0284300Y0215000D01*
X0290500Y0215000D01*
X0270000Y0252599D02*
X0248250Y0274350D01*
D16*
X0241750Y0282000D02*
X0241750Y0290980D01*
X0239000Y0293730D01*
X0206775Y0275000D02*
X0198000Y0275000D01*
D18*
X0198000Y0275000D03*
D16*
X0216275Y0285600D02*
X0224405Y0293730D01*
X0239000Y0293730D01*
X0216275Y0284500D02*
X0206775Y0275000D01*
X0216275Y0284500D02*
X0216275Y0285600D01*
D19*
X0175893Y0275000D02*
X0164500Y0275000D01*
D18*
X0175893Y0275000D03*
X0315000Y0225000D03*
D16*
X0325500Y0225000D01*
D18*
X0203000Y0178000D03*
X0287000Y0178000D03*
D16*
X0203032Y0177968D02*
X0203000Y0178000D01*
X0203032Y0177968D02*
X0213206Y0177968D01*
X0232238Y0197000D01*
X0257500Y0197000D01*
X0276500Y0178000D02*
X0287000Y0178000D01*
X0276500Y0178000D02*
X0257500Y0197000D01*
D19*
X0176000Y0255107D02*
X0164509Y0255009D01*
X0164500Y0255000D01*
D18*
X0176000Y0255107D03*
X0315000Y0245000D03*
D16*
X0325500Y0245000D01*
D18*
X0211000Y0185000D03*
X0279000Y0185000D03*
D16*
X0215320Y0185000D02*
X0211000Y0185000D01*
X0215320Y0185000D02*
X0230320Y0200000D01*
X0259548Y0200000D01*
X0274548Y0185000D02*
X0279000Y0185000D01*
X0274548Y0185000D02*
X0259548Y0200000D01*
D19*
X0176000Y0235107D02*
X0164509Y0235009D01*
X0164500Y0235000D01*
D18*
X0176000Y0235107D03*
X0315000Y0265000D03*
D16*
X0325500Y0265000D01*
D18*
X0203000Y0192000D03*
X0287000Y0192000D03*
D16*
X0217000Y0192000D02*
X0203000Y0192000D01*
X0217000Y0192000D02*
X0228000Y0203000D01*
X0261500Y0203000D01*
X0272500Y0192000D02*
X0287000Y0192000D01*
X0272500Y0192000D02*
X0261500Y0203000D01*
D19*
X0164509Y0215009D02*
X0164500Y0215000D01*
X0164509Y0215009D02*
X0176000Y0215107D01*
D18*
X0176000Y0215107D03*
X0315000Y0285000D03*
D16*
X0325500Y0285000D01*
X0171000Y0215000D02*
X0164500Y0215000D01*
D18*
X0275900Y0198700D03*
D16*
X0187000Y0199000D02*
X0171000Y0215000D01*
X0187000Y0199000D02*
X0219000Y0199000D01*
X0226000Y0206000D01*
X0263500Y0206000D01*
X0270800Y0198700D02*
X0275900Y0198700D01*
X0270800Y0198700D02*
X0263500Y0206000D01*
D19*
X0176000Y0295107D02*
X0164500Y0295000D01*
D18*
X0176000Y0295107D03*
X0315000Y0205000D03*
D16*
X0325500Y0205000D01*
D18*
X0211000Y0171000D03*
X0279000Y0171000D03*
D16*
X0234000Y0194000D02*
X0211000Y0171000D01*
X0234000Y0194000D02*
X0255500Y0194000D01*
X0278500Y0171000D02*
X0279000Y0171000D01*
X0278500Y0171000D02*
X0255500Y0194000D01*
M02*