G04 EAGLE Gerber RS-274X export*
G75*
%MOMM*%
%FSLAX34Y34*%
%LPD*%
%INSilk screen*%
%IPPOS*%
%AMOC8*
5,1,8,0,0,$1,22.5*%
G01*
%ADD10C,0.127*%
%ADD11C,0.1524*%
%ADD12C,0.2*%
%ADD13C,0.0762*%
%ADD14C,0.15*%
G36*
X0225981Y0282935D02*
X0225981Y0282935D01*
X0225983Y0282934D01*
X0226027Y0282954D01*
X0226071Y0282972D01*
X0226071Y0282974D01*
X0226073Y0282975D01*
X0226105Y0283060D01*
X0226105Y0288140D01*
X0226105Y0288142D01*
X0226105Y0288144D01*
X0226086Y0288187D01*
X0226068Y0288231D01*
X0226066Y0288231D01*
X0226065Y0288233D01*
X0225980Y0288266D01*
X0215820Y0288266D01*
X0215818Y0288265D01*
X0215816Y0288266D01*
X0215773Y0288246D01*
X0215729Y0288228D01*
X0215729Y0288226D01*
X0215727Y0288225D01*
X0215694Y0288140D01*
X0215694Y0283060D01*
X0215694Y0283058D01*
X0215694Y0283056D01*
X0215714Y0283013D01*
X0215732Y0282969D01*
X0215734Y0282969D01*
X0215735Y0282967D01*
X0215820Y0282934D01*
X0225980Y0282934D01*
X0225981Y0282935D01*
G37*
G36*
X0264782Y0218834D02*
X0264782Y0218834D01*
X0264784Y0218834D01*
X0264827Y0218854D01*
X0264871Y0218872D01*
X0264871Y0218874D01*
X0264873Y0218875D01*
X0264906Y0218960D01*
X0264906Y0224040D01*
X0264905Y0224042D01*
X0264906Y0224044D01*
X0264886Y0224087D01*
X0264868Y0224131D01*
X0264866Y0224131D01*
X0264865Y0224133D01*
X0264780Y0224166D01*
X0254620Y0224166D01*
X0254618Y0224165D01*
X0254616Y0224166D01*
X0254573Y0224146D01*
X0254529Y0224128D01*
X0254529Y0224126D01*
X0254527Y0224125D01*
X0254494Y0224040D01*
X0254494Y0218960D01*
X0254495Y0218958D01*
X0254494Y0218956D01*
X0254514Y0218913D01*
X0254532Y0218869D01*
X0254534Y0218869D01*
X0254534Y0218867D01*
X0254620Y0218834D01*
X0264780Y0218834D01*
X0264782Y0218834D01*
G37*
G36*
X0263154Y0277536D02*
X0263154Y0277536D01*
X0263160Y0277543D01*
X0263166Y0277540D01*
X0263769Y0277789D01*
X0263774Y0277798D01*
X0263780Y0277796D01*
X0264298Y0278193D01*
X0264300Y0278202D01*
X0264307Y0278202D01*
X0264704Y0278720D01*
X0264704Y0278730D01*
X0264711Y0278731D01*
X0264960Y0279334D01*
X0264958Y0279343D01*
X0264964Y0279347D01*
X0265049Y0279994D01*
X0265044Y0280002D01*
X0265049Y0280006D01*
X0264964Y0280654D01*
X0264957Y0280660D01*
X0264960Y0280666D01*
X0264711Y0281269D01*
X0264702Y0281274D01*
X0264704Y0281280D01*
X0264307Y0281798D01*
X0264298Y0281800D01*
X0264298Y0281807D01*
X0263780Y0282204D01*
X0263771Y0282204D01*
X0263769Y0282211D01*
X0263166Y0282460D01*
X0263157Y0282458D01*
X0263154Y0282464D01*
X0262506Y0282549D01*
X0262498Y0282544D01*
X0262494Y0282549D01*
X0261847Y0282464D01*
X0261839Y0282457D01*
X0261834Y0282460D01*
X0261231Y0282211D01*
X0261225Y0282202D01*
X0261220Y0282204D01*
X0260702Y0281807D01*
X0260700Y0281798D01*
X0260692Y0281798D01*
X0260296Y0281280D01*
X0260296Y0281271D01*
X0260289Y0281269D01*
X0260039Y0280666D01*
X0260039Y0280665D01*
X0260042Y0280657D01*
X0260036Y0280654D01*
X0259951Y0280006D01*
X0259956Y0279998D01*
X0259951Y0279994D01*
X0260036Y0279347D01*
X0260043Y0279340D01*
X0260039Y0279334D01*
X0260289Y0278731D01*
X0260298Y0278726D01*
X0260296Y0278720D01*
X0260692Y0278202D01*
X0260702Y0278200D01*
X0260702Y0278193D01*
X0261220Y0277796D01*
X0261229Y0277796D01*
X0261231Y0277789D01*
X0261834Y0277540D01*
X0261843Y0277542D01*
X0261847Y0277536D01*
X0262494Y0277451D01*
X0262502Y0277456D01*
X0262506Y0277451D01*
X0263154Y0277536D01*
G37*
D10*
X0214344Y0273635D02*
X0216587Y0280365D01*
X0218830Y0273635D01*
X0218269Y0275318D02*
X0214904Y0275318D01*
X0221918Y0277000D02*
X0221920Y0277148D01*
X0221926Y0277296D01*
X0221936Y0277443D01*
X0221950Y0277591D01*
X0221967Y0277738D01*
X0221989Y0277884D01*
X0222014Y0278030D01*
X0222044Y0278175D01*
X0222077Y0278319D01*
X0222114Y0278462D01*
X0222155Y0278604D01*
X0222200Y0278746D01*
X0222248Y0278885D01*
X0222300Y0279024D01*
X0222355Y0279161D01*
X0222415Y0279296D01*
X0222479Y0279430D01*
X0222479Y0279431D02*
X0222504Y0279498D01*
X0222532Y0279563D01*
X0222564Y0279627D01*
X0222599Y0279690D01*
X0222637Y0279750D01*
X0222678Y0279808D01*
X0222721Y0279865D01*
X0222769Y0279918D01*
X0222819Y0279970D01*
X0222871Y0280018D01*
X0222926Y0280064D01*
X0222983Y0280107D01*
X0223042Y0280147D01*
X0223104Y0280184D01*
X0223167Y0280218D01*
X0223231Y0280248D01*
X0223297Y0280275D01*
X0223365Y0280299D01*
X0223434Y0280319D01*
X0223503Y0280336D01*
X0223573Y0280348D01*
X0223644Y0280358D01*
X0223716Y0280363D01*
X0223787Y0280365D01*
X0223858Y0280363D01*
X0223930Y0280358D01*
X0224001Y0280348D01*
X0224071Y0280336D01*
X0224140Y0280319D01*
X0224209Y0280299D01*
X0224277Y0280275D01*
X0224343Y0280248D01*
X0224407Y0280218D01*
X0224470Y0280184D01*
X0224532Y0280147D01*
X0224591Y0280107D01*
X0224648Y0280064D01*
X0224703Y0280018D01*
X0224755Y0279970D01*
X0224805Y0279918D01*
X0224852Y0279865D01*
X0224896Y0279808D01*
X0224937Y0279750D01*
X0224975Y0279689D01*
X0225010Y0279627D01*
X0225042Y0279563D01*
X0225069Y0279497D01*
X0225095Y0279430D01*
X0225096Y0279430D02*
X0225159Y0279296D01*
X0225219Y0279161D01*
X0225275Y0279024D01*
X0225326Y0278885D01*
X0225375Y0278746D01*
X0225420Y0278605D01*
X0225461Y0278462D01*
X0225498Y0278319D01*
X0225531Y0278175D01*
X0225561Y0278030D01*
X0225585Y0277884D01*
X0225608Y0277738D01*
X0225625Y0277591D01*
X0225639Y0277443D01*
X0225649Y0277296D01*
X0225655Y0277148D01*
X0225657Y0277000D01*
X0221918Y0277000D02*
X0221920Y0276852D01*
X0221926Y0276704D01*
X0221936Y0276557D01*
X0221950Y0276409D01*
X0221967Y0276262D01*
X0221989Y0276116D01*
X0222014Y0275970D01*
X0222044Y0275825D01*
X0222077Y0275681D01*
X0222114Y0275538D01*
X0222155Y0275396D01*
X0222200Y0275255D01*
X0222248Y0275115D01*
X0222300Y0274976D01*
X0222355Y0274839D01*
X0222415Y0274704D01*
X0222479Y0274570D01*
X0222479Y0274569D02*
X0222504Y0274502D01*
X0222532Y0274437D01*
X0222564Y0274373D01*
X0222599Y0274310D01*
X0222637Y0274250D01*
X0222678Y0274192D01*
X0222721Y0274135D01*
X0222769Y0274082D01*
X0222819Y0274030D01*
X0222871Y0273982D01*
X0222926Y0273936D01*
X0222983Y0273893D01*
X0223042Y0273853D01*
X0223104Y0273816D01*
X0223167Y0273782D01*
X0223231Y0273752D01*
X0223297Y0273725D01*
X0223365Y0273701D01*
X0223434Y0273681D01*
X0223503Y0273664D01*
X0223573Y0273652D01*
X0223644Y0273642D01*
X0223716Y0273637D01*
X0223787Y0273635D01*
X0225095Y0274570D02*
X0225158Y0274704D01*
X0225218Y0274839D01*
X0225274Y0274976D01*
X0225326Y0275115D01*
X0225373Y0275254D01*
X0225418Y0275395D01*
X0225460Y0275538D01*
X0225497Y0275681D01*
X0225530Y0275825D01*
X0225560Y0275970D01*
X0225585Y0276116D01*
X0225607Y0276262D01*
X0225624Y0276409D01*
X0225638Y0276557D01*
X0225647Y0276704D01*
X0225654Y0276852D01*
X0225656Y0277000D01*
X0225095Y0274569D02*
X0225069Y0274502D01*
X0225042Y0274437D01*
X0225010Y0274373D01*
X0224975Y0274310D01*
X0224937Y0274250D01*
X0224896Y0274192D01*
X0224852Y0274135D01*
X0224805Y0274082D01*
X0224755Y0274030D01*
X0224703Y0273982D01*
X0224648Y0273936D01*
X0224591Y0273893D01*
X0224532Y0273853D01*
X0224470Y0273816D01*
X0224407Y0273782D01*
X0224343Y0273752D01*
X0224277Y0273725D01*
X0224209Y0273701D01*
X0224140Y0273681D01*
X0224071Y0273664D01*
X0224001Y0273652D01*
X0223930Y0273642D01*
X0223858Y0273637D01*
X0223787Y0273635D01*
X0222291Y0275131D02*
X0225283Y0278869D01*
X0217087Y0261865D02*
X0214844Y0255135D01*
X0219330Y0255135D02*
X0217087Y0261865D01*
X0218769Y0256818D02*
X0215403Y0256818D01*
X0222417Y0260369D02*
X0224287Y0261865D01*
X0224287Y0255135D01*
X0222417Y0255135D02*
X0226156Y0255135D01*
X0216587Y0243365D02*
X0214344Y0236635D01*
X0218830Y0236635D02*
X0216587Y0243365D01*
X0218269Y0238318D02*
X0214904Y0238318D01*
X0223974Y0243366D02*
X0224054Y0243363D01*
X0224134Y0243358D01*
X0224213Y0243348D01*
X0224292Y0243336D01*
X0224371Y0243318D01*
X0224448Y0243298D01*
X0224524Y0243273D01*
X0224600Y0243245D01*
X0224673Y0243214D01*
X0224745Y0243179D01*
X0224816Y0243141D01*
X0224884Y0243099D01*
X0224950Y0243054D01*
X0225014Y0243006D01*
X0225076Y0242955D01*
X0225135Y0242901D01*
X0225191Y0242843D01*
X0225246Y0242785D01*
X0225296Y0242723D01*
X0225345Y0242659D01*
X0225390Y0242593D01*
X0225432Y0242524D01*
X0225470Y0242454D01*
X0225505Y0242382D01*
X0225536Y0242308D01*
X0225564Y0242233D01*
X0225589Y0242156D01*
X0225610Y0242079D01*
X0225627Y0242002D01*
X0225640Y0241923D01*
X0225649Y0241843D01*
X0225655Y0241762D01*
X0225657Y0241683D01*
X0223974Y0243365D02*
X0223883Y0243363D01*
X0223793Y0243357D01*
X0223703Y0243348D01*
X0223613Y0243335D01*
X0223524Y0243318D01*
X0223436Y0243297D01*
X0223349Y0243273D01*
X0223262Y0243245D01*
X0223177Y0243213D01*
X0223094Y0243177D01*
X0223012Y0243139D01*
X0222932Y0243097D01*
X0222853Y0243052D01*
X0222777Y0243003D01*
X0222702Y0242950D01*
X0222629Y0242897D01*
X0222560Y0242839D01*
X0222492Y0242778D01*
X0222428Y0242715D01*
X0222366Y0242649D01*
X0222307Y0242580D01*
X0222251Y0242509D01*
X0222198Y0242436D01*
X0222148Y0242360D01*
X0222101Y0242282D01*
X0222057Y0242203D01*
X0222017Y0242122D01*
X0221980Y0242039D01*
X0221947Y0241955D01*
X0221917Y0241869D01*
X0225095Y0240373D02*
X0225153Y0240432D01*
X0225208Y0240492D01*
X0225260Y0240554D01*
X0225309Y0240619D01*
X0225356Y0240685D01*
X0225399Y0240754D01*
X0225439Y0240825D01*
X0225476Y0240897D01*
X0225510Y0240970D01*
X0225540Y0241047D01*
X0225567Y0241122D01*
X0225591Y0241201D01*
X0225610Y0241280D01*
X0225627Y0241360D01*
X0225640Y0241439D01*
X0225649Y0241521D01*
X0225654Y0241602D01*
X0225656Y0241683D01*
X0225096Y0240373D02*
X0221918Y0236635D01*
X0225656Y0236635D01*
D11*
X0175320Y0163438D02*
X0173161Y0156962D01*
X0177479Y0156962D02*
X0175320Y0163438D01*
X0176939Y0158581D02*
X0173701Y0158581D01*
X0180180Y0157322D02*
X0180180Y0156962D01*
X0180180Y0157322D02*
X0180539Y0157322D01*
X0180539Y0156962D01*
X0180180Y0156962D01*
X0184848Y0158401D02*
X0184848Y0163438D01*
X0184848Y0158401D02*
X0184846Y0158328D01*
X0184841Y0158255D01*
X0184831Y0158183D01*
X0184819Y0158111D01*
X0184802Y0158040D01*
X0184782Y0157970D01*
X0184758Y0157901D01*
X0184731Y0157834D01*
X0184701Y0157767D01*
X0184667Y0157703D01*
X0184630Y0157640D01*
X0184590Y0157579D01*
X0184547Y0157520D01*
X0184501Y0157464D01*
X0184452Y0157410D01*
X0184400Y0157358D01*
X0184346Y0157309D01*
X0184289Y0157263D01*
X0184230Y0157220D01*
X0184170Y0157180D01*
X0184106Y0157143D01*
X0184043Y0157109D01*
X0183976Y0157079D01*
X0183908Y0157052D01*
X0183840Y0157028D01*
X0183770Y0157008D01*
X0183699Y0156991D01*
X0183627Y0156979D01*
X0183555Y0156969D01*
X0183481Y0156964D01*
X0183409Y0156962D01*
X0182689Y0156962D01*
X0188905Y0156962D02*
X0191783Y0156962D01*
X0188905Y0156962D02*
X0188905Y0163438D01*
X0191783Y0163438D01*
X0191064Y0160560D02*
X0188905Y0160560D01*
X0195121Y0163438D02*
X0195121Y0156962D01*
X0198719Y0156962D02*
X0195121Y0163438D01*
X0198719Y0163438D02*
X0198719Y0156962D01*
X0202825Y0156962D02*
X0205703Y0156962D01*
X0202825Y0156962D02*
X0202825Y0163438D01*
X0205703Y0163438D01*
X0204984Y0160560D02*
X0202825Y0160560D01*
X0209119Y0163438D02*
X0209119Y0156962D01*
X0209119Y0163438D02*
X0210918Y0163438D01*
X0211001Y0163436D01*
X0211084Y0163430D01*
X0211167Y0163420D01*
X0211249Y0163406D01*
X0211330Y0163390D01*
X0211409Y0163369D01*
X0211490Y0163344D01*
X0211568Y0163317D01*
X0211645Y0163284D01*
X0211720Y0163249D01*
X0211792Y0163211D01*
X0211865Y0163169D01*
X0211935Y0163123D01*
X0212002Y0163075D01*
X0212066Y0163023D01*
X0212130Y0162968D01*
X0212190Y0162911D01*
X0212247Y0162851D01*
X0212302Y0162788D01*
X0212353Y0162723D01*
X0212402Y0162656D01*
X0212447Y0162586D01*
X0212490Y0162514D01*
X0212528Y0162441D01*
X0212564Y0162366D01*
X0212596Y0162289D01*
X0212624Y0162211D01*
X0212648Y0162131D01*
X0212669Y0162051D01*
X0212686Y0161970D01*
X0212700Y0161888D01*
X0212709Y0161805D01*
X0212715Y0161722D01*
X0212717Y0161638D01*
X0212715Y0161556D01*
X0212709Y0161473D01*
X0212700Y0161390D01*
X0212686Y0161308D01*
X0212669Y0161227D01*
X0212648Y0161147D01*
X0212624Y0161067D01*
X0212596Y0160989D01*
X0212564Y0160912D01*
X0212528Y0160837D01*
X0212490Y0160764D01*
X0212447Y0160692D01*
X0212402Y0160622D01*
X0212353Y0160555D01*
X0212302Y0160490D01*
X0212247Y0160427D01*
X0212190Y0160367D01*
X0212130Y0160310D01*
X0212066Y0160255D01*
X0212002Y0160203D01*
X0211935Y0160155D01*
X0211865Y0160109D01*
X0211792Y0160067D01*
X0211720Y0160029D01*
X0211645Y0159993D01*
X0211568Y0159961D01*
X0211490Y0159933D01*
X0211409Y0159909D01*
X0211330Y0159888D01*
X0211249Y0159871D01*
X0211167Y0159857D01*
X0211084Y0159848D01*
X0211001Y0159842D01*
X0210918Y0159840D01*
X0209119Y0159840D01*
X0211278Y0159840D02*
X0212717Y0156962D01*
X0217560Y0156962D02*
X0217560Y0163438D01*
X0215761Y0163438D02*
X0219359Y0163438D01*
X0224400Y0156962D02*
X0224474Y0156964D01*
X0224549Y0156970D01*
X0224625Y0156980D01*
X0224699Y0156993D01*
X0224772Y0157011D01*
X0224845Y0157032D01*
X0224915Y0157058D01*
X0224985Y0157086D01*
X0225052Y0157119D01*
X0225120Y0157155D01*
X0225184Y0157194D01*
X0225246Y0157237D01*
X0225306Y0157283D01*
X0225363Y0157332D01*
X0225418Y0157383D01*
X0225469Y0157438D01*
X0225518Y0157495D01*
X0225564Y0157555D01*
X0225607Y0157617D01*
X0225646Y0157682D01*
X0225682Y0157748D01*
X0225715Y0157816D01*
X0225743Y0157885D01*
X0225769Y0157956D01*
X0225790Y0158029D01*
X0225808Y0158102D01*
X0225821Y0158176D01*
X0225831Y0158251D01*
X0225837Y0158326D01*
X0225839Y0158401D01*
X0224400Y0156962D02*
X0224290Y0156964D01*
X0224182Y0156970D01*
X0224073Y0156980D01*
X0223965Y0156993D01*
X0223857Y0157011D01*
X0223750Y0157032D01*
X0223644Y0157057D01*
X0223539Y0157086D01*
X0223435Y0157119D01*
X0223331Y0157156D01*
X0223231Y0157196D01*
X0223131Y0157240D01*
X0223033Y0157287D01*
X0222935Y0157338D01*
X0222841Y0157392D01*
X0222749Y0157450D01*
X0222658Y0157511D01*
X0222569Y0157575D01*
X0222484Y0157642D01*
X0222400Y0157712D01*
X0222320Y0157785D01*
X0222241Y0157861D01*
X0222421Y0161999D02*
X0222423Y0162074D01*
X0222429Y0162149D01*
X0222439Y0162224D01*
X0222452Y0162298D01*
X0222470Y0162371D01*
X0222491Y0162444D01*
X0222517Y0162515D01*
X0222545Y0162584D01*
X0222578Y0162652D01*
X0222614Y0162719D01*
X0222653Y0162783D01*
X0222696Y0162845D01*
X0222742Y0162905D01*
X0222791Y0162962D01*
X0222841Y0163017D01*
X0222897Y0163068D01*
X0222954Y0163117D01*
X0223014Y0163162D01*
X0223076Y0163206D01*
X0223141Y0163245D01*
X0223207Y0163281D01*
X0223275Y0163314D01*
X0223344Y0163342D01*
X0223415Y0163368D01*
X0223488Y0163389D01*
X0223560Y0163406D01*
X0223635Y0163420D01*
X0223710Y0163430D01*
X0223785Y0163436D01*
X0223860Y0163438D01*
X0223962Y0163436D01*
X0224063Y0163430D01*
X0224166Y0163420D01*
X0224267Y0163406D01*
X0224367Y0163390D01*
X0224468Y0163369D01*
X0224566Y0163344D01*
X0224665Y0163314D01*
X0224762Y0163283D01*
X0224857Y0163247D01*
X0224951Y0163207D01*
X0225044Y0163164D01*
X0225135Y0163118D01*
X0225224Y0163068D01*
X0225311Y0163015D01*
X0225396Y0162958D01*
X0225478Y0162898D01*
X0223140Y0160739D02*
X0223075Y0160780D01*
X0223013Y0160823D01*
X0222953Y0160870D01*
X0222896Y0160920D01*
X0222841Y0160972D01*
X0222789Y0161027D01*
X0222740Y0161086D01*
X0222695Y0161146D01*
X0222652Y0161209D01*
X0222612Y0161274D01*
X0222577Y0161340D01*
X0222544Y0161408D01*
X0222515Y0161479D01*
X0222490Y0161551D01*
X0222469Y0161624D01*
X0222451Y0161698D01*
X0222438Y0161772D01*
X0222428Y0161847D01*
X0222422Y0161923D01*
X0222420Y0161999D01*
X0225119Y0159661D02*
X0225184Y0159620D01*
X0225246Y0159577D01*
X0225306Y0159530D01*
X0225363Y0159480D01*
X0225418Y0159428D01*
X0225470Y0159372D01*
X0225519Y0159314D01*
X0225564Y0159254D01*
X0225607Y0159191D01*
X0225646Y0159126D01*
X0225682Y0159060D01*
X0225715Y0158991D01*
X0225744Y0158921D01*
X0225769Y0158849D01*
X0225790Y0158776D01*
X0225808Y0158702D01*
X0225821Y0158628D01*
X0225831Y0158553D01*
X0225837Y0158477D01*
X0225839Y0158401D01*
X0225119Y0159660D02*
X0223140Y0160740D01*
X0265401Y0161539D02*
X0265401Y0158661D01*
X0265401Y0161539D02*
X0265403Y0161622D01*
X0265409Y0161705D01*
X0265418Y0161788D01*
X0265432Y0161870D01*
X0265449Y0161951D01*
X0265470Y0162031D01*
X0265494Y0162111D01*
X0265522Y0162189D01*
X0265554Y0162266D01*
X0265590Y0162341D01*
X0265628Y0162414D01*
X0265670Y0162486D01*
X0265716Y0162556D01*
X0265764Y0162623D01*
X0265816Y0162688D01*
X0265871Y0162750D01*
X0265928Y0162811D01*
X0265988Y0162868D01*
X0266051Y0162923D01*
X0266116Y0162975D01*
X0266183Y0163023D01*
X0266253Y0163069D01*
X0266325Y0163111D01*
X0266398Y0163149D01*
X0266473Y0163185D01*
X0266550Y0163217D01*
X0266628Y0163245D01*
X0266708Y0163268D01*
X0266788Y0163290D01*
X0266869Y0163307D01*
X0266951Y0163321D01*
X0267034Y0163329D01*
X0267117Y0163336D01*
X0267200Y0163338D01*
X0267283Y0163336D01*
X0267366Y0163329D01*
X0267449Y0163321D01*
X0267531Y0163307D01*
X0267612Y0163290D01*
X0267692Y0163268D01*
X0267772Y0163245D01*
X0267850Y0163217D01*
X0267927Y0163185D01*
X0268002Y0163149D01*
X0268075Y0163111D01*
X0268147Y0163069D01*
X0268217Y0163023D01*
X0268284Y0162975D01*
X0268349Y0162923D01*
X0268412Y0162868D01*
X0268472Y0162811D01*
X0268529Y0162750D01*
X0268584Y0162688D01*
X0268636Y0162623D01*
X0268684Y0162556D01*
X0268730Y0162486D01*
X0268772Y0162414D01*
X0268810Y0162341D01*
X0268846Y0162266D01*
X0268878Y0162189D01*
X0268906Y0162111D01*
X0268930Y0162031D01*
X0268951Y0161951D01*
X0268968Y0161870D01*
X0268982Y0161788D01*
X0268991Y0161705D01*
X0268997Y0161622D01*
X0268999Y0161539D01*
X0268999Y0158661D01*
X0268997Y0158578D01*
X0268991Y0158495D01*
X0268982Y0158412D01*
X0268968Y0158330D01*
X0268951Y0158249D01*
X0268930Y0158169D01*
X0268906Y0158089D01*
X0268878Y0158011D01*
X0268846Y0157934D01*
X0268810Y0157859D01*
X0268772Y0157786D01*
X0268730Y0157714D01*
X0268684Y0157644D01*
X0268636Y0157577D01*
X0268584Y0157512D01*
X0268529Y0157449D01*
X0268472Y0157389D01*
X0268412Y0157332D01*
X0268349Y0157277D01*
X0268284Y0157225D01*
X0268217Y0157177D01*
X0268147Y0157131D01*
X0268075Y0157089D01*
X0268002Y0157051D01*
X0267927Y0157015D01*
X0267850Y0156983D01*
X0267772Y0156955D01*
X0267692Y0156931D01*
X0267612Y0156910D01*
X0267531Y0156893D01*
X0267449Y0156879D01*
X0267366Y0156870D01*
X0267283Y0156864D01*
X0267200Y0156862D01*
X0267117Y0156864D01*
X0267034Y0156870D01*
X0266951Y0156879D01*
X0266869Y0156893D01*
X0266788Y0156910D01*
X0266708Y0156931D01*
X0266628Y0156955D01*
X0266550Y0156983D01*
X0266473Y0157015D01*
X0266398Y0157051D01*
X0266325Y0157089D01*
X0266253Y0157131D01*
X0266183Y0157177D01*
X0266116Y0157225D01*
X0266051Y0157277D01*
X0265988Y0157332D01*
X0265928Y0157389D01*
X0265871Y0157449D01*
X0265816Y0157512D01*
X0265764Y0157577D01*
X0265716Y0157644D01*
X0265670Y0157714D01*
X0265628Y0157786D01*
X0265590Y0157859D01*
X0265554Y0157934D01*
X0265522Y0158011D01*
X0265494Y0158089D01*
X0265470Y0158169D01*
X0265449Y0158249D01*
X0265432Y0158330D01*
X0265418Y0158412D01*
X0265409Y0158495D01*
X0265403Y0158578D01*
X0265401Y0158661D01*
X0273574Y0156862D02*
X0275014Y0156862D01*
X0273574Y0156862D02*
X0273511Y0156864D01*
X0273449Y0156869D01*
X0273387Y0156878D01*
X0273325Y0156891D01*
X0273265Y0156907D01*
X0273205Y0156927D01*
X0273147Y0156950D01*
X0273090Y0156977D01*
X0273035Y0157007D01*
X0272981Y0157040D01*
X0272930Y0157076D01*
X0272880Y0157114D01*
X0272834Y0157156D01*
X0272789Y0157201D01*
X0272747Y0157247D01*
X0272709Y0157297D01*
X0272673Y0157348D01*
X0272640Y0157402D01*
X0272610Y0157457D01*
X0272583Y0157514D01*
X0272560Y0157572D01*
X0272540Y0157632D01*
X0272524Y0157692D01*
X0272511Y0157754D01*
X0272502Y0157816D01*
X0272497Y0157878D01*
X0272495Y0157941D01*
X0272495Y0160100D01*
X0272497Y0160163D01*
X0272502Y0160225D01*
X0272511Y0160287D01*
X0272524Y0160349D01*
X0272540Y0160409D01*
X0272560Y0160469D01*
X0272583Y0160527D01*
X0272610Y0160584D01*
X0272640Y0160640D01*
X0272673Y0160692D01*
X0272709Y0160744D01*
X0272747Y0160794D01*
X0272789Y0160840D01*
X0272834Y0160885D01*
X0272880Y0160927D01*
X0272930Y0160965D01*
X0272981Y0161001D01*
X0273035Y0161034D01*
X0273090Y0161064D01*
X0273147Y0161091D01*
X0273205Y0161114D01*
X0273265Y0161134D01*
X0273325Y0161149D01*
X0273387Y0161163D01*
X0273449Y0161172D01*
X0273511Y0161177D01*
X0273574Y0161179D01*
X0275014Y0161179D01*
X0277302Y0161179D02*
X0279461Y0161179D01*
X0278022Y0163338D02*
X0278022Y0157941D01*
X0278024Y0157878D01*
X0278029Y0157816D01*
X0278038Y0157754D01*
X0278051Y0157692D01*
X0278067Y0157632D01*
X0278087Y0157572D01*
X0278110Y0157514D01*
X0278137Y0157457D01*
X0278167Y0157401D01*
X0278200Y0157348D01*
X0278236Y0157297D01*
X0278274Y0157247D01*
X0278316Y0157201D01*
X0278361Y0157156D01*
X0278407Y0157114D01*
X0278457Y0157075D01*
X0278508Y0157039D01*
X0278562Y0157007D01*
X0278617Y0156977D01*
X0278674Y0156950D01*
X0278732Y0156927D01*
X0278792Y0156907D01*
X0278852Y0156891D01*
X0278914Y0156878D01*
X0278976Y0156869D01*
X0279038Y0156864D01*
X0279101Y0156862D01*
X0279461Y0156862D01*
X0282140Y0156862D02*
X0282140Y0157222D01*
X0282500Y0157222D01*
X0282500Y0156862D01*
X0282140Y0156862D01*
X0291380Y0163338D02*
X0291459Y0163336D01*
X0291539Y0163329D01*
X0291618Y0163320D01*
X0291696Y0163307D01*
X0291773Y0163289D01*
X0291850Y0163268D01*
X0291925Y0163243D01*
X0292000Y0163215D01*
X0292072Y0163183D01*
X0292143Y0163146D01*
X0292212Y0163108D01*
X0292279Y0163065D01*
X0292344Y0163019D01*
X0292407Y0162971D01*
X0292467Y0162918D01*
X0292525Y0162864D01*
X0292580Y0162806D01*
X0292632Y0162746D01*
X0292680Y0162683D01*
X0292726Y0162618D01*
X0292769Y0162551D01*
X0292808Y0162482D01*
X0292844Y0162411D01*
X0292876Y0162338D01*
X0292904Y0162263D01*
X0292929Y0162189D01*
X0292950Y0162112D01*
X0292968Y0162034D01*
X0292981Y0161957D01*
X0292991Y0161878D01*
X0292997Y0161798D01*
X0292999Y0161719D01*
X0291380Y0163338D02*
X0291290Y0163336D01*
X0291200Y0163329D01*
X0291110Y0163320D01*
X0291021Y0163307D01*
X0290933Y0163289D01*
X0290845Y0163268D01*
X0290758Y0163243D01*
X0290673Y0163214D01*
X0290589Y0163182D01*
X0290506Y0163145D01*
X0290425Y0163106D01*
X0290346Y0163063D01*
X0290269Y0163016D01*
X0290193Y0162966D01*
X0290120Y0162913D01*
X0290050Y0162856D01*
X0289982Y0162798D01*
X0289916Y0162736D01*
X0289854Y0162671D01*
X0289794Y0162603D01*
X0289737Y0162533D01*
X0289683Y0162460D01*
X0289633Y0162385D01*
X0289585Y0162310D01*
X0289541Y0162231D01*
X0289501Y0162150D01*
X0289464Y0162068D01*
X0289431Y0161984D01*
X0289401Y0161899D01*
X0292459Y0160460D02*
X0292515Y0160515D01*
X0292568Y0160573D01*
X0292618Y0160632D01*
X0292665Y0160695D01*
X0292710Y0160759D01*
X0292752Y0160825D01*
X0292790Y0160893D01*
X0292826Y0160963D01*
X0292858Y0161034D01*
X0292888Y0161107D01*
X0292913Y0161180D01*
X0292936Y0161255D01*
X0292955Y0161331D01*
X0292971Y0161408D01*
X0292983Y0161484D01*
X0292992Y0161563D01*
X0292997Y0161641D01*
X0292999Y0161719D01*
X0292459Y0160460D02*
X0289401Y0156862D01*
X0292999Y0156862D01*
X0296601Y0160100D02*
X0296603Y0160242D01*
X0296609Y0160385D01*
X0296618Y0160527D01*
X0296631Y0160669D01*
X0296648Y0160810D01*
X0296669Y0160951D01*
X0296694Y0161091D01*
X0296722Y0161231D01*
X0296754Y0161369D01*
X0296790Y0161507D01*
X0296829Y0161644D01*
X0296872Y0161780D01*
X0296919Y0161914D01*
X0296969Y0162048D01*
X0297023Y0162179D01*
X0297080Y0162310D01*
X0297141Y0162439D01*
X0297166Y0162506D01*
X0297195Y0162572D01*
X0297227Y0162636D01*
X0297263Y0162698D01*
X0297301Y0162758D01*
X0297344Y0162817D01*
X0297389Y0162872D01*
X0297437Y0162926D01*
X0297488Y0162976D01*
X0297541Y0163024D01*
X0297597Y0163069D01*
X0297656Y0163111D01*
X0297716Y0163149D01*
X0297779Y0163184D01*
X0297843Y0163216D01*
X0297909Y0163244D01*
X0297977Y0163268D01*
X0298045Y0163290D01*
X0298115Y0163307D01*
X0298186Y0163321D01*
X0298257Y0163329D01*
X0298328Y0163336D01*
X0298400Y0163338D01*
X0298472Y0163336D01*
X0298543Y0163329D01*
X0298614Y0163321D01*
X0298685Y0163307D01*
X0298755Y0163290D01*
X0298823Y0163268D01*
X0298891Y0163244D01*
X0298957Y0163216D01*
X0299021Y0163184D01*
X0299084Y0163149D01*
X0299144Y0163111D01*
X0299203Y0163069D01*
X0299259Y0163024D01*
X0299312Y0162976D01*
X0299363Y0162926D01*
X0299411Y0162872D01*
X0299456Y0162817D01*
X0299499Y0162758D01*
X0299537Y0162698D01*
X0299573Y0162636D01*
X0299605Y0162572D01*
X0299634Y0162506D01*
X0299659Y0162439D01*
X0299720Y0162310D01*
X0299777Y0162179D01*
X0299831Y0162048D01*
X0299881Y0161914D01*
X0299928Y0161780D01*
X0299971Y0161644D01*
X0300010Y0161507D01*
X0300046Y0161369D01*
X0300078Y0161231D01*
X0300106Y0161091D01*
X0300131Y0160951D01*
X0300152Y0160810D01*
X0300169Y0160669D01*
X0300182Y0160527D01*
X0300191Y0160385D01*
X0300197Y0160242D01*
X0300199Y0160100D01*
X0296601Y0160100D02*
X0296603Y0159958D01*
X0296609Y0159815D01*
X0296618Y0159673D01*
X0296631Y0159531D01*
X0296648Y0159390D01*
X0296669Y0159249D01*
X0296694Y0159109D01*
X0296722Y0158969D01*
X0296754Y0158831D01*
X0296790Y0158693D01*
X0296829Y0158556D01*
X0296872Y0158420D01*
X0296919Y0158286D01*
X0296969Y0158152D01*
X0297023Y0158021D01*
X0297080Y0157890D01*
X0297141Y0157761D01*
X0297166Y0157694D01*
X0297195Y0157628D01*
X0297227Y0157564D01*
X0297263Y0157502D01*
X0297301Y0157441D01*
X0297344Y0157383D01*
X0297389Y0157328D01*
X0297437Y0157274D01*
X0297488Y0157224D01*
X0297541Y0157176D01*
X0297597Y0157131D01*
X0297656Y0157089D01*
X0297716Y0157051D01*
X0297779Y0157016D01*
X0297843Y0156984D01*
X0297909Y0156956D01*
X0297977Y0156931D01*
X0298045Y0156910D01*
X0298115Y0156893D01*
X0298186Y0156879D01*
X0298257Y0156870D01*
X0298328Y0156864D01*
X0298400Y0156862D01*
X0299659Y0157761D02*
X0299720Y0157890D01*
X0299777Y0158021D01*
X0299831Y0158152D01*
X0299881Y0158286D01*
X0299928Y0158420D01*
X0299971Y0158556D01*
X0300010Y0158693D01*
X0300046Y0158831D01*
X0300078Y0158969D01*
X0300106Y0159109D01*
X0300131Y0159249D01*
X0300152Y0159390D01*
X0300169Y0159531D01*
X0300182Y0159673D01*
X0300191Y0159815D01*
X0300197Y0159958D01*
X0300199Y0160100D01*
X0299659Y0157761D02*
X0299634Y0157694D01*
X0299605Y0157628D01*
X0299573Y0157564D01*
X0299537Y0157502D01*
X0299499Y0157442D01*
X0299456Y0157383D01*
X0299411Y0157328D01*
X0299363Y0157274D01*
X0299312Y0157224D01*
X0299259Y0157176D01*
X0299203Y0157131D01*
X0299144Y0157089D01*
X0299084Y0157051D01*
X0299021Y0157016D01*
X0298957Y0156984D01*
X0298891Y0156956D01*
X0298823Y0156931D01*
X0298755Y0156910D01*
X0298685Y0156893D01*
X0298614Y0156879D01*
X0298543Y0156870D01*
X0298472Y0156864D01*
X0298400Y0156862D01*
X0296961Y0158301D02*
X0299839Y0161899D01*
X0305780Y0163338D02*
X0305859Y0163336D01*
X0305939Y0163329D01*
X0306018Y0163320D01*
X0306096Y0163307D01*
X0306173Y0163289D01*
X0306250Y0163268D01*
X0306325Y0163243D01*
X0306400Y0163215D01*
X0306472Y0163183D01*
X0306543Y0163146D01*
X0306612Y0163108D01*
X0306679Y0163065D01*
X0306744Y0163019D01*
X0306807Y0162971D01*
X0306867Y0162918D01*
X0306925Y0162864D01*
X0306980Y0162806D01*
X0307032Y0162746D01*
X0307080Y0162683D01*
X0307126Y0162618D01*
X0307169Y0162551D01*
X0307208Y0162482D01*
X0307244Y0162411D01*
X0307276Y0162338D01*
X0307304Y0162263D01*
X0307329Y0162189D01*
X0307350Y0162112D01*
X0307368Y0162034D01*
X0307381Y0161957D01*
X0307391Y0161878D01*
X0307397Y0161798D01*
X0307399Y0161719D01*
X0305780Y0163338D02*
X0305690Y0163336D01*
X0305600Y0163329D01*
X0305510Y0163320D01*
X0305421Y0163307D01*
X0305333Y0163289D01*
X0305245Y0163268D01*
X0305158Y0163243D01*
X0305073Y0163214D01*
X0304989Y0163182D01*
X0304906Y0163145D01*
X0304825Y0163106D01*
X0304746Y0163063D01*
X0304669Y0163016D01*
X0304593Y0162966D01*
X0304520Y0162913D01*
X0304450Y0162856D01*
X0304382Y0162798D01*
X0304316Y0162736D01*
X0304254Y0162671D01*
X0304194Y0162603D01*
X0304137Y0162533D01*
X0304083Y0162460D01*
X0304033Y0162385D01*
X0303985Y0162310D01*
X0303941Y0162231D01*
X0303901Y0162150D01*
X0303864Y0162068D01*
X0303831Y0161984D01*
X0303801Y0161899D01*
X0306859Y0160460D02*
X0306915Y0160515D01*
X0306968Y0160573D01*
X0307018Y0160632D01*
X0307065Y0160695D01*
X0307110Y0160759D01*
X0307152Y0160825D01*
X0307190Y0160893D01*
X0307226Y0160963D01*
X0307258Y0161034D01*
X0307288Y0161107D01*
X0307313Y0161180D01*
X0307336Y0161255D01*
X0307355Y0161331D01*
X0307371Y0161408D01*
X0307383Y0161484D01*
X0307392Y0161563D01*
X0307397Y0161641D01*
X0307399Y0161719D01*
X0306859Y0160460D02*
X0303801Y0156862D01*
X0307399Y0156862D01*
X0311001Y0161899D02*
X0312800Y0163338D01*
X0312800Y0156862D01*
X0311001Y0156862D02*
X0314599Y0156862D01*
D12*
X0194500Y0326000D02*
X0169500Y0326000D01*
X0169500Y0174000D01*
X0194500Y0174000D01*
X0194500Y0195000D01*
X0194500Y0305000D01*
X0194500Y0326000D01*
X0194500Y0305000D02*
X0182000Y0305000D01*
X0182000Y0195000D01*
X0194500Y0195000D01*
D10*
X0260000Y0245000D02*
X0260000Y0275000D01*
X0230000Y0275000D01*
X0230000Y0245000D01*
X0260000Y0245000D01*
D13*
X0229290Y0288275D02*
X0229288Y0288344D01*
X0229283Y0288412D01*
X0229273Y0288480D01*
X0229260Y0288548D01*
X0229244Y0288615D01*
X0229224Y0288681D01*
X0229200Y0288745D01*
X0229173Y0288808D01*
X0229142Y0288870D01*
X0229108Y0288930D01*
X0229071Y0288988D01*
X0229031Y0289044D01*
X0228988Y0289097D01*
X0228941Y0289148D01*
X0228893Y0289197D01*
X0228842Y0289243D01*
X0228789Y0289286D01*
X0228733Y0289326D01*
X0228675Y0289363D01*
X0228615Y0289397D01*
X0228553Y0289428D01*
X0228490Y0289455D01*
X0228426Y0289479D01*
X0228359Y0289499D01*
X0228293Y0289515D01*
X0228224Y0289528D01*
X0228157Y0289538D01*
X0228089Y0289543D01*
X0228020Y0289545D01*
X0229290Y0288275D02*
X0229290Y0282925D01*
X0229288Y0282856D01*
X0229283Y0282788D01*
X0229273Y0282720D01*
X0229260Y0282652D01*
X0229244Y0282585D01*
X0229224Y0282519D01*
X0229200Y0282455D01*
X0229173Y0282392D01*
X0229142Y0282330D01*
X0229108Y0282270D01*
X0229071Y0282212D01*
X0229031Y0282156D01*
X0228988Y0282103D01*
X0228941Y0282052D01*
X0228893Y0282003D01*
X0228842Y0281957D01*
X0228789Y0281914D01*
X0228733Y0281874D01*
X0228675Y0281837D01*
X0228615Y0281803D01*
X0228553Y0281772D01*
X0228490Y0281745D01*
X0228426Y0281721D01*
X0228359Y0281701D01*
X0228293Y0281685D01*
X0228224Y0281672D01*
X0228157Y0281662D01*
X0228089Y0281657D01*
X0228020Y0281655D01*
X0213780Y0281655D01*
X0213710Y0281657D01*
X0213643Y0281662D01*
X0213575Y0281672D01*
X0213507Y0281685D01*
X0213440Y0281701D01*
X0213374Y0281721D01*
X0213310Y0281745D01*
X0213247Y0281772D01*
X0213185Y0281803D01*
X0213125Y0281837D01*
X0213067Y0281874D01*
X0213010Y0281914D01*
X0212958Y0281957D01*
X0212907Y0282003D01*
X0212858Y0282052D01*
X0212811Y0282103D01*
X0212769Y0282156D01*
X0212729Y0282212D01*
X0212691Y0282270D01*
X0212658Y0282330D01*
X0212627Y0282392D01*
X0212599Y0282455D01*
X0212576Y0282519D01*
X0212556Y0282585D01*
X0212539Y0282652D01*
X0212527Y0282720D01*
X0212517Y0282788D01*
X0212512Y0282856D01*
X0212510Y0282925D01*
X0212510Y0288275D01*
X0212512Y0288344D01*
X0212517Y0288412D01*
X0212527Y0288480D01*
X0212539Y0288548D01*
X0212556Y0288615D01*
X0212576Y0288681D01*
X0212599Y0288745D01*
X0212627Y0288808D01*
X0212658Y0288870D01*
X0212691Y0288930D01*
X0212729Y0288988D01*
X0212769Y0289044D01*
X0212811Y0289097D01*
X0212858Y0289148D01*
X0212907Y0289197D01*
X0212958Y0289243D01*
X0213010Y0289286D01*
X0213067Y0289326D01*
X0213125Y0289363D01*
X0213185Y0289397D01*
X0213247Y0289428D01*
X0213310Y0289455D01*
X0213374Y0289479D01*
X0213440Y0289499D01*
X0213507Y0289515D01*
X0213575Y0289528D01*
X0213643Y0289538D01*
X0213710Y0289543D01*
X0213780Y0289545D01*
X0228020Y0289545D01*
X0266820Y0225445D02*
X0266889Y0225443D01*
X0266957Y0225438D01*
X0267025Y0225428D01*
X0267093Y0225415D01*
X0267160Y0225399D01*
X0267226Y0225379D01*
X0267290Y0225355D01*
X0267353Y0225328D01*
X0267415Y0225296D01*
X0267475Y0225263D01*
X0267533Y0225226D01*
X0267589Y0225186D01*
X0267642Y0225143D01*
X0267693Y0225097D01*
X0267742Y0225048D01*
X0267788Y0224997D01*
X0267831Y0224944D01*
X0267871Y0224888D01*
X0267908Y0224830D01*
X0267942Y0224770D01*
X0267973Y0224708D01*
X0268000Y0224645D01*
X0268024Y0224581D01*
X0268044Y0224515D01*
X0268060Y0224448D01*
X0268073Y0224380D01*
X0268083Y0224312D01*
X0268088Y0224244D01*
X0268090Y0224175D01*
X0268090Y0218825D01*
X0268088Y0218756D01*
X0268083Y0218688D01*
X0268073Y0218620D01*
X0268060Y0218552D01*
X0268044Y0218485D01*
X0268024Y0218419D01*
X0268000Y0218355D01*
X0267973Y0218292D01*
X0267942Y0218230D01*
X0267908Y0218170D01*
X0267871Y0218112D01*
X0267831Y0218055D01*
X0267788Y0218003D01*
X0267742Y0217952D01*
X0267693Y0217903D01*
X0267642Y0217856D01*
X0267589Y0217813D01*
X0267533Y0217774D01*
X0267475Y0217736D01*
X0267415Y0217703D01*
X0267353Y0217672D01*
X0267290Y0217644D01*
X0267226Y0217621D01*
X0267160Y0217601D01*
X0267093Y0217584D01*
X0267025Y0217572D01*
X0266957Y0217562D01*
X0266889Y0217557D01*
X0266820Y0217554D01*
X0252580Y0217554D01*
X0252511Y0217557D01*
X0252443Y0217562D01*
X0252375Y0217572D01*
X0252307Y0217584D01*
X0252240Y0217601D01*
X0252173Y0217621D01*
X0252109Y0217644D01*
X0252047Y0217672D01*
X0251985Y0217703D01*
X0251925Y0217736D01*
X0251867Y0217774D01*
X0251811Y0217813D01*
X0251758Y0217856D01*
X0251707Y0217903D01*
X0251658Y0217952D01*
X0251612Y0218003D01*
X0251569Y0218055D01*
X0251529Y0218112D01*
X0251492Y0218170D01*
X0251458Y0218230D01*
X0251426Y0218292D01*
X0251400Y0218355D01*
X0251376Y0218419D01*
X0251356Y0218485D01*
X0251340Y0218552D01*
X0251327Y0218620D01*
X0251317Y0218688D01*
X0251312Y0218756D01*
X0251310Y0218825D01*
X0251310Y0224175D01*
X0251312Y0224244D01*
X0251317Y0224312D01*
X0251327Y0224380D01*
X0251340Y0224448D01*
X0251356Y0224515D01*
X0251376Y0224581D01*
X0251400Y0224645D01*
X0251426Y0224708D01*
X0251458Y0224770D01*
X0251492Y0224830D01*
X0251529Y0224888D01*
X0251569Y0224944D01*
X0251612Y0224997D01*
X0251658Y0225048D01*
X0251707Y0225097D01*
X0251758Y0225143D01*
X0251811Y0225186D01*
X0251867Y0225226D01*
X0251925Y0225263D01*
X0251985Y0225296D01*
X0252047Y0225328D01*
X0252109Y0225355D01*
X0252173Y0225379D01*
X0252240Y0225399D01*
X0252307Y0225415D01*
X0252375Y0225428D01*
X0252443Y0225438D01*
X0252511Y0225443D01*
X0252580Y0225445D01*
X0266820Y0225445D01*
D12*
X0295500Y0174000D02*
X0320500Y0174000D01*
X0320500Y0326000D01*
X0295500Y0326000D01*
X0295500Y0305000D01*
X0295500Y0195000D01*
X0295500Y0174000D01*
X0295500Y0195000D02*
X0308000Y0195000D01*
X0308000Y0305000D01*
X0295500Y0305000D01*
D14*
X0225465Y0272180D02*
X0214733Y0272180D01*
X0212694Y0266060D02*
X0212696Y0265971D01*
X0212702Y0265882D01*
X0212711Y0265794D01*
X0212725Y0265706D01*
X0212742Y0265618D01*
X0212764Y0265532D01*
X0212788Y0265447D01*
X0212817Y0265362D01*
X0212849Y0265279D01*
X0212885Y0265198D01*
X0212924Y0265118D01*
X0212967Y0265040D01*
X0213013Y0264964D01*
X0213063Y0264890D01*
X0213116Y0264818D01*
X0213171Y0264749D01*
X0213230Y0264682D01*
X0213292Y0264618D01*
X0213356Y0264556D01*
X0213423Y0264497D01*
X0213492Y0264442D01*
X0213564Y0264389D01*
X0213638Y0264339D01*
X0213714Y0264293D01*
X0213792Y0264250D01*
X0213872Y0264211D01*
X0213953Y0264175D01*
X0214036Y0264143D01*
X0214121Y0264114D01*
X0214206Y0264090D01*
X0214292Y0264068D01*
X0214380Y0264051D01*
X0214468Y0264037D01*
X0214556Y0264028D01*
X0214645Y0264022D01*
X0214733Y0264020D01*
X0225465Y0264020D02*
X0225555Y0264022D01*
X0225644Y0264028D01*
X0225732Y0264037D01*
X0225820Y0264051D01*
X0225908Y0264068D01*
X0225994Y0264090D01*
X0226079Y0264114D01*
X0226164Y0264143D01*
X0226247Y0264175D01*
X0226328Y0264211D01*
X0226408Y0264250D01*
X0226486Y0264293D01*
X0226561Y0264339D01*
X0226636Y0264389D01*
X0226708Y0264442D01*
X0226777Y0264497D01*
X0226844Y0264556D01*
X0226908Y0264618D01*
X0226970Y0264682D01*
X0227029Y0264749D01*
X0227084Y0264818D01*
X0227137Y0264890D01*
X0227186Y0264964D01*
X0227233Y0265040D01*
X0227276Y0265118D01*
X0227315Y0265198D01*
X0227351Y0265279D01*
X0227383Y0265362D01*
X0227412Y0265447D01*
X0227436Y0265532D01*
X0227458Y0265618D01*
X0227475Y0265706D01*
X0227489Y0265794D01*
X0227498Y0265882D01*
X0227504Y0265971D01*
X0227506Y0266060D01*
X0227506Y0270140D02*
X0227504Y0270229D01*
X0227498Y0270318D01*
X0227489Y0270406D01*
X0227475Y0270494D01*
X0227458Y0270582D01*
X0227436Y0270668D01*
X0227412Y0270753D01*
X0227383Y0270838D01*
X0227351Y0270921D01*
X0227315Y0271002D01*
X0227276Y0271082D01*
X0227233Y0271160D01*
X0227186Y0271236D01*
X0227137Y0271310D01*
X0227084Y0271382D01*
X0227029Y0271451D01*
X0226970Y0271518D01*
X0226908Y0271582D01*
X0226844Y0271644D01*
X0226777Y0271703D01*
X0226708Y0271758D01*
X0226636Y0271811D01*
X0226561Y0271861D01*
X0226486Y0271907D01*
X0226408Y0271950D01*
X0226328Y0271989D01*
X0226247Y0272025D01*
X0226164Y0272057D01*
X0226079Y0272086D01*
X0225994Y0272110D01*
X0225908Y0272132D01*
X0225820Y0272149D01*
X0225732Y0272163D01*
X0225644Y0272172D01*
X0225555Y0272178D01*
X0225465Y0272180D01*
X0214733Y0272180D02*
X0214645Y0272178D01*
X0214556Y0272172D01*
X0214468Y0272163D01*
X0214380Y0272149D01*
X0214292Y0272132D01*
X0214206Y0272110D01*
X0214121Y0272086D01*
X0214036Y0272057D01*
X0213953Y0272025D01*
X0213872Y0271989D01*
X0213792Y0271950D01*
X0213714Y0271907D01*
X0213638Y0271861D01*
X0213564Y0271811D01*
X0213492Y0271758D01*
X0213423Y0271703D01*
X0213356Y0271644D01*
X0213292Y0271582D01*
X0213230Y0271518D01*
X0213171Y0271451D01*
X0213116Y0271382D01*
X0213063Y0271310D01*
X0213013Y0271236D01*
X0212967Y0271160D01*
X0212924Y0271082D01*
X0212885Y0271002D01*
X0212849Y0270921D01*
X0212817Y0270838D01*
X0212788Y0270753D01*
X0212764Y0270668D01*
X0212742Y0270582D01*
X0212725Y0270494D01*
X0212711Y0270406D01*
X0212702Y0270318D01*
X0212696Y0270229D01*
X0212694Y0270140D01*
X0212694Y0266060D01*
X0227506Y0266060D02*
X0227506Y0270140D01*
X0225465Y0264020D02*
X0214733Y0264020D01*
X0214834Y0253580D02*
X0225566Y0253580D01*
X0214834Y0245420D02*
X0214745Y0245422D01*
X0214656Y0245428D01*
X0214568Y0245437D01*
X0214480Y0245450D01*
X0214392Y0245467D01*
X0214305Y0245490D01*
X0214221Y0245514D01*
X0214136Y0245542D01*
X0214053Y0245574D01*
X0213971Y0245611D01*
X0213892Y0245649D01*
X0213814Y0245692D01*
X0213738Y0245739D01*
X0213664Y0245789D01*
X0213592Y0245842D01*
X0213523Y0245897D01*
X0213456Y0245955D01*
X0213391Y0246018D01*
X0213329Y0246082D01*
X0213271Y0246149D01*
X0213216Y0246218D01*
X0213162Y0246289D01*
X0213113Y0246364D01*
X0213067Y0246439D01*
X0213024Y0246518D01*
X0212985Y0246598D01*
X0212948Y0246679D01*
X0212917Y0246762D01*
X0212888Y0246847D01*
X0212864Y0246931D01*
X0212841Y0247018D01*
X0212825Y0247106D01*
X0212811Y0247194D01*
X0212802Y0247282D01*
X0212796Y0247370D01*
X0212794Y0247460D01*
X0225566Y0245420D02*
X0225655Y0245422D01*
X0225744Y0245428D01*
X0225831Y0245437D01*
X0225920Y0245450D01*
X0226008Y0245467D01*
X0226094Y0245490D01*
X0226179Y0245514D01*
X0226264Y0245542D01*
X0226347Y0245574D01*
X0226428Y0245611D01*
X0226508Y0245649D01*
X0226586Y0245692D01*
X0226662Y0245739D01*
X0226736Y0245789D01*
X0226807Y0245842D01*
X0226877Y0245897D01*
X0226944Y0245955D01*
X0227008Y0246018D01*
X0227070Y0246082D01*
X0227129Y0246149D01*
X0227184Y0246218D01*
X0227237Y0246289D01*
X0227287Y0246364D01*
X0227333Y0246439D01*
X0227376Y0246518D01*
X0227415Y0246598D01*
X0227451Y0246679D01*
X0227483Y0246762D01*
X0227512Y0246847D01*
X0227536Y0246931D01*
X0227558Y0247018D01*
X0227575Y0247106D01*
X0227589Y0247194D01*
X0227597Y0247282D01*
X0227604Y0247370D01*
X0227606Y0247460D01*
X0227606Y0251540D02*
X0227604Y0251629D01*
X0227597Y0251717D01*
X0227589Y0251805D01*
X0227575Y0251894D01*
X0227558Y0251982D01*
X0227536Y0252068D01*
X0227512Y0252153D01*
X0227483Y0252238D01*
X0227451Y0252321D01*
X0227415Y0252402D01*
X0227376Y0252482D01*
X0227333Y0252560D01*
X0227287Y0252636D01*
X0227237Y0252710D01*
X0227184Y0252781D01*
X0227129Y0252851D01*
X0227070Y0252918D01*
X0227008Y0252982D01*
X0226944Y0253044D01*
X0226877Y0253102D01*
X0226807Y0253158D01*
X0226736Y0253211D01*
X0226662Y0253261D01*
X0226586Y0253307D01*
X0226508Y0253350D01*
X0226428Y0253389D01*
X0226347Y0253425D01*
X0226264Y0253457D01*
X0226179Y0253485D01*
X0226094Y0253510D01*
X0226008Y0253532D01*
X0225920Y0253549D01*
X0225831Y0253562D01*
X0225744Y0253572D01*
X0225655Y0253577D01*
X0225566Y0253580D01*
X0214834Y0253580D02*
X0214745Y0253577D01*
X0214656Y0253572D01*
X0214568Y0253562D01*
X0214480Y0253549D01*
X0214392Y0253532D01*
X0214305Y0253510D01*
X0214221Y0253485D01*
X0214136Y0253457D01*
X0214053Y0253425D01*
X0213971Y0253389D01*
X0213892Y0253350D01*
X0213814Y0253307D01*
X0213738Y0253261D01*
X0213664Y0253211D01*
X0213592Y0253158D01*
X0213523Y0253102D01*
X0213456Y0253044D01*
X0213391Y0252982D01*
X0213329Y0252918D01*
X0213271Y0252851D01*
X0213216Y0252781D01*
X0213162Y0252710D01*
X0213113Y0252636D01*
X0213067Y0252560D01*
X0213024Y0252482D01*
X0212985Y0252402D01*
X0212948Y0252321D01*
X0212917Y0252238D01*
X0212888Y0252153D01*
X0212864Y0252068D01*
X0212841Y0251982D01*
X0212825Y0251894D01*
X0212811Y0251805D01*
X0212802Y0251717D01*
X0212796Y0251629D01*
X0212794Y0251540D01*
X0212794Y0247460D01*
X0227606Y0247460D02*
X0227606Y0251540D01*
X0225566Y0245420D02*
X0214834Y0245420D01*
X0214834Y0235080D02*
X0225566Y0235080D01*
X0214834Y0226920D02*
X0214745Y0226922D01*
X0214656Y0226927D01*
X0214568Y0226937D01*
X0214480Y0226951D01*
X0214392Y0226968D01*
X0214305Y0226989D01*
X0214221Y0227014D01*
X0214136Y0227043D01*
X0214053Y0227075D01*
X0213971Y0227111D01*
X0213892Y0227150D01*
X0213814Y0227193D01*
X0213738Y0227239D01*
X0213664Y0227289D01*
X0213592Y0227342D01*
X0213523Y0227397D01*
X0213456Y0227456D01*
X0213391Y0227518D01*
X0213329Y0227582D01*
X0213271Y0227649D01*
X0213216Y0227718D01*
X0213162Y0227790D01*
X0213113Y0227864D01*
X0213067Y0227940D01*
X0213024Y0228018D01*
X0212985Y0228098D01*
X0212948Y0228179D01*
X0212917Y0228262D01*
X0212888Y0228346D01*
X0212864Y0228432D01*
X0212841Y0228518D01*
X0212825Y0228605D01*
X0212811Y0228694D01*
X0212802Y0228782D01*
X0212796Y0228871D01*
X0212794Y0228960D01*
X0225566Y0226920D02*
X0225655Y0226922D01*
X0225744Y0226927D01*
X0225831Y0226937D01*
X0225920Y0226951D01*
X0226008Y0226968D01*
X0226094Y0226989D01*
X0226179Y0227014D01*
X0226264Y0227043D01*
X0226347Y0227075D01*
X0226428Y0227111D01*
X0226508Y0227150D01*
X0226586Y0227193D01*
X0226662Y0227239D01*
X0226736Y0227289D01*
X0226807Y0227342D01*
X0226877Y0227397D01*
X0226944Y0227456D01*
X0227008Y0227518D01*
X0227070Y0227582D01*
X0227129Y0227649D01*
X0227184Y0227718D01*
X0227237Y0227790D01*
X0227287Y0227864D01*
X0227333Y0227940D01*
X0227376Y0228018D01*
X0227415Y0228098D01*
X0227451Y0228179D01*
X0227483Y0228262D01*
X0227512Y0228346D01*
X0227536Y0228432D01*
X0227558Y0228518D01*
X0227575Y0228605D01*
X0227589Y0228694D01*
X0227597Y0228782D01*
X0227604Y0228871D01*
X0227606Y0228960D01*
X0227606Y0233040D02*
X0227604Y0233129D01*
X0227597Y0233218D01*
X0227589Y0233306D01*
X0227575Y0233393D01*
X0227558Y0233481D01*
X0227536Y0233568D01*
X0227512Y0233652D01*
X0227483Y0233738D01*
X0227451Y0233821D01*
X0227415Y0233902D01*
X0227376Y0233982D01*
X0227333Y0234060D01*
X0227287Y0234136D01*
X0227237Y0234210D01*
X0227184Y0234282D01*
X0227129Y0234350D01*
X0227070Y0234418D01*
X0227008Y0234482D01*
X0226944Y0234544D01*
X0226877Y0234603D01*
X0226807Y0234658D01*
X0226736Y0234711D01*
X0226662Y0234761D01*
X0226586Y0234807D01*
X0226508Y0234850D01*
X0226428Y0234889D01*
X0226347Y0234925D01*
X0226264Y0234957D01*
X0226179Y0234986D01*
X0226094Y0235009D01*
X0226008Y0235032D01*
X0225920Y0235049D01*
X0225831Y0235063D01*
X0225744Y0235071D01*
X0225655Y0235078D01*
X0225566Y0235080D01*
X0214834Y0235080D02*
X0214745Y0235078D01*
X0214656Y0235071D01*
X0214568Y0235063D01*
X0214480Y0235049D01*
X0214392Y0235032D01*
X0214305Y0235009D01*
X0214221Y0234986D01*
X0214136Y0234957D01*
X0214053Y0234925D01*
X0213971Y0234889D01*
X0213892Y0234850D01*
X0213814Y0234807D01*
X0213738Y0234761D01*
X0213664Y0234711D01*
X0213592Y0234658D01*
X0213523Y0234603D01*
X0213456Y0234544D01*
X0213391Y0234482D01*
X0213329Y0234418D01*
X0213271Y0234350D01*
X0213216Y0234282D01*
X0213162Y0234210D01*
X0213113Y0234136D01*
X0213067Y0234060D01*
X0213024Y0233982D01*
X0212985Y0233902D01*
X0212948Y0233821D01*
X0212917Y0233738D01*
X0212888Y0233652D01*
X0212864Y0233568D01*
X0212841Y0233481D01*
X0212825Y0233393D01*
X0212811Y0233306D01*
X0212802Y0233218D01*
X0212796Y0233129D01*
X0212794Y0233040D01*
X0212794Y0228960D01*
X0227606Y0228960D02*
X0227606Y0233040D01*
X0225566Y0226920D02*
X0214834Y0226920D01*
D12*
X0234000Y0223500D02*
X0248000Y0223500D01*
X0248000Y0219500D01*
X0234000Y0219500D01*
X0234000Y0223500D01*
M02*