G04 EAGLE Gerber RS-274X export*
G75*
%MOMM*%
%FSLAX34Y34*%
%LPD*%
%INSolder side*%
%IPPOS*%
%AMOC8*
5,1,8,0,0,$1,22.5*%
G01*
%ADD10R,0.635X1.27*%
%ADD11C,0.7564*%
%ADD12C,0.13*%
%ADD13C,0.15*%
%ADD14C,0.3*%
G36*
X0478247Y0154007D02*
X0478247Y0154007D01*
X0478300Y0154004D01*
X0478419Y0154027D01*
X0478540Y0154041D01*
X0478589Y0154058D01*
X0478640Y0154068D01*
X0478751Y0154117D01*
X0478865Y0154158D01*
X0478909Y0154187D01*
X0478956Y0154208D01*
X0479052Y0154281D01*
X0479154Y0154347D01*
X0479191Y0154385D01*
X0479232Y0154416D01*
X0479309Y0154509D01*
X0479393Y0154597D01*
X0479420Y0154642D01*
X0479453Y0154682D01*
X0479507Y0154791D01*
X0479568Y0154895D01*
X0479584Y0154945D01*
X0479607Y0154992D01*
X0479634Y0155110D01*
X0479670Y0155226D01*
X0479674Y0155278D01*
X0479686Y0155329D01*
X0479686Y0155450D01*
X0479694Y0155571D01*
X0479685Y0155622D01*
X0479685Y0155674D01*
X0479657Y0155792D01*
X0479638Y0155912D01*
X0479617Y0155960D01*
X0479606Y0156011D01*
X0479552Y0156119D01*
X0479505Y0156231D01*
X0479475Y0156273D01*
X0479450Y0156320D01*
X0479373Y0156413D01*
X0479303Y0156511D01*
X0479263Y0156546D01*
X0479230Y0156586D01*
X0479133Y0156659D01*
X0479042Y0156738D01*
X0478995Y0156762D01*
X0478954Y0156794D01*
X0478770Y0156885D01*
X0476786Y0157707D01*
X0472707Y0161786D01*
X0470499Y0167116D01*
X0470499Y0172884D01*
X0472707Y0178214D01*
X0476786Y0182292D01*
X0482116Y0184501D01*
X0487883Y0184501D01*
X0493213Y0182292D01*
X0497293Y0178214D01*
X0499501Y0172884D01*
X0499501Y0167116D01*
X0497293Y0161786D01*
X0493213Y0157707D01*
X0491230Y0156885D01*
X0491184Y0156860D01*
X0491135Y0156842D01*
X0491034Y0156776D01*
X0490927Y0156717D01*
X0490889Y0156682D01*
X0490846Y0156653D01*
X0490762Y0156565D01*
X0490673Y0156484D01*
X0490643Y0156441D01*
X0490607Y0156403D01*
X0490546Y0156298D01*
X0490477Y0156199D01*
X0490458Y0156150D01*
X0490432Y0156105D01*
X0490396Y0155989D01*
X0490353Y0155876D01*
X0490345Y0155824D01*
X0490330Y0155774D01*
X0490322Y0155653D01*
X0490305Y0155534D01*
X0490310Y0155482D01*
X0490306Y0155429D01*
X0490326Y0155310D01*
X0490336Y0155189D01*
X0490353Y0155140D01*
X0490362Y0155088D01*
X0490409Y0154976D01*
X0490447Y0154862D01*
X0490475Y0154817D01*
X0490495Y0154769D01*
X0490566Y0154671D01*
X0490629Y0154568D01*
X0490666Y0154531D01*
X0490697Y0154489D01*
X0490789Y0154409D01*
X0490874Y0154324D01*
X0490919Y0154296D01*
X0490957Y0154262D01*
X0491066Y0154205D01*
X0491168Y0154142D01*
X0491218Y0154126D01*
X0491264Y0154101D01*
X0491382Y0154071D01*
X0491496Y0154033D01*
X0491548Y0154028D01*
X0491599Y0154015D01*
X0491804Y0154001D01*
X0535000Y0154001D01*
X0535035Y0154005D01*
X0535071Y0154002D01*
X0535207Y0154025D01*
X0535343Y0154041D01*
X0535377Y0154053D01*
X0535412Y0154058D01*
X0535539Y0154111D01*
X0535669Y0154158D01*
X0535698Y0154177D01*
X0535731Y0154191D01*
X0535843Y0154272D01*
X0535958Y0154347D01*
X0535983Y0154373D01*
X0536011Y0154393D01*
X0536102Y0154497D01*
X0536197Y0154597D01*
X0536215Y0154628D01*
X0536238Y0154654D01*
X0536302Y0154777D01*
X0536372Y0154895D01*
X0536382Y0154929D01*
X0536399Y0154961D01*
X0536433Y0155094D01*
X0536474Y0155226D01*
X0536476Y0155261D01*
X0536485Y0155295D01*
X0536499Y0155500D01*
X0536499Y0165000D01*
X0536495Y0165035D01*
X0536498Y0165071D01*
X0536475Y0165207D01*
X0536459Y0165343D01*
X0536447Y0165377D01*
X0536442Y0165412D01*
X0536389Y0165539D01*
X0536342Y0165669D01*
X0536323Y0165698D01*
X0536309Y0165731D01*
X0536228Y0165843D01*
X0536153Y0165958D01*
X0536127Y0165983D01*
X0536107Y0166011D01*
X0536003Y0166102D01*
X0535903Y0166197D01*
X0535872Y0166215D01*
X0535846Y0166238D01*
X0535723Y0166301D01*
X0535605Y0166372D01*
X0535571Y0166382D01*
X0535539Y0166399D01*
X0535406Y0166433D01*
X0535274Y0166474D01*
X0535239Y0166476D01*
X0535205Y0166484D01*
X0535000Y0166499D01*
X0523298Y0166499D01*
X0523160Y0166483D01*
X0523020Y0166473D01*
X0522988Y0166463D01*
X0522955Y0166459D01*
X0522824Y0166412D01*
X0522690Y0166371D01*
X0522661Y0166353D01*
X0522630Y0166342D01*
X0522513Y0166266D01*
X0522393Y0166195D01*
X0522359Y0166164D01*
X0522340Y0166153D01*
X0522317Y0166129D01*
X0522286Y0166102D01*
X0520150Y0165217D01*
X0517849Y0165217D01*
X0515724Y0166098D01*
X0514098Y0167724D01*
X0513217Y0169850D01*
X0513217Y0172150D01*
X0513347Y0172464D01*
X0513371Y0172548D01*
X0513405Y0172629D01*
X0513418Y0172714D01*
X0513442Y0172796D01*
X0513446Y0172884D01*
X0513460Y0172971D01*
X0513454Y0173055D01*
X0513457Y0173142D01*
X0513442Y0173228D01*
X0513435Y0173314D01*
X0513410Y0173397D01*
X0513394Y0173481D01*
X0513359Y0173562D01*
X0513333Y0173646D01*
X0513289Y0173720D01*
X0513254Y0173798D01*
X0513202Y0173868D01*
X0513157Y0173943D01*
X0513063Y0174052D01*
X0513046Y0174074D01*
X0513036Y0174082D01*
X0513022Y0174098D01*
X0496499Y0190621D01*
X0496499Y0239379D01*
X0506060Y0248939D01*
X0506135Y0249035D01*
X0506150Y0249050D01*
X0506154Y0249058D01*
X0506238Y0249153D01*
X0506254Y0249183D01*
X0506275Y0249211D01*
X0506334Y0249337D01*
X0506399Y0249461D01*
X0506407Y0249493D01*
X0506422Y0249524D01*
X0506449Y0249660D01*
X0506485Y0249795D01*
X0506488Y0249840D01*
X0506492Y0249862D01*
X0506492Y0249896D01*
X0506499Y0250000D01*
X0506499Y0270000D01*
X0506483Y0270138D01*
X0506473Y0270278D01*
X0506462Y0270310D01*
X0506459Y0270343D01*
X0506412Y0270474D01*
X0506371Y0270608D01*
X0506353Y0270637D01*
X0506342Y0270669D01*
X0506265Y0270785D01*
X0506195Y0270905D01*
X0506165Y0270940D01*
X0506153Y0270958D01*
X0506128Y0270982D01*
X0506060Y0271060D01*
X0496499Y0280621D01*
X0496499Y0309379D01*
X0520621Y0333501D01*
X0535000Y0333501D01*
X0535035Y0333504D01*
X0535071Y0333502D01*
X0535207Y0333525D01*
X0535343Y0333541D01*
X0535377Y0333553D01*
X0535412Y0333558D01*
X0535539Y0333611D01*
X0535669Y0333658D01*
X0535698Y0333678D01*
X0535731Y0333691D01*
X0535843Y0333772D01*
X0535958Y0333846D01*
X0535983Y0333872D01*
X0536011Y0333893D01*
X0536102Y0333998D01*
X0536197Y0334097D01*
X0536215Y0334128D01*
X0536238Y0334154D01*
X0536302Y0334277D01*
X0536372Y0334394D01*
X0536382Y0334429D01*
X0536399Y0334461D01*
X0536433Y0334594D01*
X0536474Y0334726D01*
X0536476Y0334761D01*
X0536485Y0334795D01*
X0536499Y0335000D01*
X0536499Y0344500D01*
X0536495Y0344535D01*
X0536498Y0344570D01*
X0536475Y0344707D01*
X0536459Y0344843D01*
X0536447Y0344877D01*
X0536442Y0344912D01*
X0536389Y0345039D01*
X0536342Y0345169D01*
X0536323Y0345198D01*
X0536309Y0345231D01*
X0536228Y0345343D01*
X0536153Y0345458D01*
X0536127Y0345483D01*
X0536107Y0345511D01*
X0536003Y0345601D01*
X0535903Y0345697D01*
X0535872Y0345715D01*
X0535846Y0345738D01*
X0535723Y0345802D01*
X0535605Y0345871D01*
X0535571Y0345882D01*
X0535539Y0345899D01*
X0535406Y0345933D01*
X0535274Y0345974D01*
X0535239Y0345976D01*
X0535205Y0345985D01*
X0535000Y0345999D01*
X0491804Y0345999D01*
X0491752Y0345993D01*
X0491700Y0345995D01*
X0491581Y0345973D01*
X0491460Y0345959D01*
X0491411Y0345942D01*
X0491359Y0345931D01*
X0491248Y0345883D01*
X0491135Y0345841D01*
X0491091Y0345813D01*
X0491044Y0345792D01*
X0490947Y0345719D01*
X0490846Y0345653D01*
X0490809Y0345614D01*
X0490768Y0345584D01*
X0490690Y0345490D01*
X0490607Y0345403D01*
X0490580Y0345357D01*
X0490546Y0345318D01*
X0490493Y0345209D01*
X0490432Y0345105D01*
X0490417Y0345055D01*
X0490393Y0345008D01*
X0490366Y0344890D01*
X0490330Y0344774D01*
X0490326Y0344722D01*
X0490314Y0344671D01*
X0490315Y0344550D01*
X0490306Y0344429D01*
X0490315Y0344377D01*
X0490315Y0344326D01*
X0490343Y0344208D01*
X0490362Y0344088D01*
X0490382Y0344039D01*
X0490394Y0343989D01*
X0490449Y0343881D01*
X0490495Y0343769D01*
X0490525Y0343726D01*
X0490549Y0343679D01*
X0490626Y0343587D01*
X0490697Y0343489D01*
X0490737Y0343454D01*
X0490770Y0343414D01*
X0490867Y0343341D01*
X0490957Y0343262D01*
X0491004Y0343238D01*
X0491046Y0343206D01*
X0491230Y0343114D01*
X0493213Y0342292D01*
X0497293Y0338213D01*
X0499501Y0332883D01*
X0499501Y0327116D01*
X0497293Y0321786D01*
X0493213Y0317707D01*
X0487883Y0315499D01*
X0482116Y0315499D01*
X0476786Y0317707D01*
X0472707Y0321786D01*
X0470499Y0327116D01*
X0470499Y0332883D01*
X0472707Y0338213D01*
X0476786Y0342292D01*
X0478770Y0343114D01*
X0478816Y0343140D01*
X0478865Y0343157D01*
X0478966Y0343224D01*
X0479072Y0343283D01*
X0479111Y0343318D01*
X0479154Y0343347D01*
X0479238Y0343434D01*
X0479326Y0343516D01*
X0479357Y0343559D01*
X0479393Y0343597D01*
X0479454Y0343701D01*
X0479523Y0343801D01*
X0479542Y0343850D01*
X0479568Y0343895D01*
X0479604Y0344011D01*
X0479647Y0344124D01*
X0479655Y0344176D01*
X0479670Y0344226D01*
X0479677Y0344346D01*
X0479694Y0344466D01*
X0479690Y0344518D01*
X0479694Y0344570D01*
X0479674Y0344690D01*
X0479663Y0344811D01*
X0479646Y0344860D01*
X0479638Y0344912D01*
X0479591Y0345024D01*
X0479553Y0345138D01*
X0479525Y0345182D01*
X0479505Y0345231D01*
X0479433Y0345329D01*
X0479370Y0345432D01*
X0479333Y0345469D01*
X0479303Y0345511D01*
X0479212Y0345591D01*
X0479126Y0345676D01*
X0479081Y0345704D01*
X0479042Y0345738D01*
X0478935Y0345794D01*
X0478832Y0345858D01*
X0478782Y0345875D01*
X0478735Y0345899D01*
X0478618Y0345929D01*
X0478504Y0345967D01*
X0478452Y0345972D01*
X0478401Y0345985D01*
X0478196Y0345999D01*
X0435000Y0345999D01*
X0434965Y0345995D01*
X0434929Y0345998D01*
X0434793Y0345974D01*
X0434657Y0345959D01*
X0434623Y0345947D01*
X0434587Y0345942D01*
X0434461Y0345888D01*
X0434330Y0345841D01*
X0434302Y0345823D01*
X0434269Y0345809D01*
X0434157Y0345728D01*
X0434042Y0345653D01*
X0434017Y0345627D01*
X0433989Y0345607D01*
X0433898Y0345503D01*
X0433803Y0345403D01*
X0433785Y0345372D01*
X0433762Y0345346D01*
X0433698Y0345223D01*
X0433628Y0345105D01*
X0433618Y0345071D01*
X0433601Y0345039D01*
X0433567Y0344906D01*
X0433526Y0344774D01*
X0433524Y0344739D01*
X0433515Y0344705D01*
X0433501Y0344500D01*
X0433501Y0335000D01*
X0433504Y0334965D01*
X0433502Y0334929D01*
X0433525Y0334792D01*
X0433541Y0334657D01*
X0433553Y0334623D01*
X0433558Y0334587D01*
X0433611Y0334461D01*
X0433658Y0334330D01*
X0433678Y0334302D01*
X0433691Y0334269D01*
X0433772Y0334157D01*
X0433847Y0334042D01*
X0433872Y0334017D01*
X0433893Y0333989D01*
X0433998Y0333898D01*
X0434097Y0333803D01*
X0434128Y0333785D01*
X0434154Y0333762D01*
X0434277Y0333698D01*
X0434395Y0333628D01*
X0434429Y0333618D01*
X0434461Y0333601D01*
X0434594Y0333567D01*
X0434726Y0333525D01*
X0434761Y0333524D01*
X0434795Y0333515D01*
X0435000Y0333501D01*
X0449379Y0333501D01*
X0473501Y0309379D01*
X0473501Y0280621D01*
X0463940Y0271060D01*
X0463853Y0270951D01*
X0463762Y0270846D01*
X0463746Y0270816D01*
X0463725Y0270789D01*
X0463666Y0270663D01*
X0463601Y0270539D01*
X0463593Y0270507D01*
X0463578Y0270476D01*
X0463550Y0270340D01*
X0463515Y0270205D01*
X0463512Y0270160D01*
X0463507Y0270138D01*
X0463508Y0270104D01*
X0463501Y0270000D01*
X0463501Y0250000D01*
X0463517Y0249862D01*
X0463527Y0249722D01*
X0463537Y0249690D01*
X0463541Y0249656D01*
X0463588Y0249526D01*
X0463628Y0249392D01*
X0463647Y0249363D01*
X0463658Y0249331D01*
X0463734Y0249215D01*
X0463805Y0249095D01*
X0463835Y0249060D01*
X0463847Y0249042D01*
X0463871Y0249018D01*
X0463940Y0248939D01*
X0473501Y0239379D01*
X0473501Y0190630D01*
X0456887Y0174355D01*
X0456826Y0174281D01*
X0456760Y0174213D01*
X0456718Y0174147D01*
X0456669Y0174086D01*
X0456628Y0174001D01*
X0456578Y0173919D01*
X0456552Y0173845D01*
X0456519Y0173775D01*
X0456499Y0173682D01*
X0456468Y0173592D01*
X0456460Y0173513D01*
X0456444Y0173436D01*
X0456445Y0173342D01*
X0456437Y0173247D01*
X0456448Y0173170D01*
X0456449Y0173092D01*
X0456472Y0172999D01*
X0456485Y0172905D01*
X0456525Y0172787D01*
X0456533Y0172756D01*
X0456539Y0172741D01*
X0456551Y0172710D01*
X0456783Y0172150D01*
X0456783Y0169850D01*
X0455902Y0167724D01*
X0454276Y0166098D01*
X0452150Y0165217D01*
X0449850Y0165217D01*
X0447704Y0166106D01*
X0447652Y0166147D01*
X0447547Y0166238D01*
X0447517Y0166254D01*
X0447491Y0166275D01*
X0447365Y0166334D01*
X0447241Y0166399D01*
X0447207Y0166407D01*
X0447177Y0166422D01*
X0447042Y0166450D01*
X0446906Y0166484D01*
X0446862Y0166488D01*
X0446840Y0166493D01*
X0446806Y0166492D01*
X0446702Y0166499D01*
X0435000Y0166499D01*
X0434965Y0166495D01*
X0434929Y0166498D01*
X0434793Y0166475D01*
X0434657Y0166459D01*
X0434623Y0166447D01*
X0434587Y0166442D01*
X0434461Y0166389D01*
X0434330Y0166342D01*
X0434302Y0166323D01*
X0434269Y0166309D01*
X0434157Y0166228D01*
X0434042Y0166153D01*
X0434017Y0166127D01*
X0433989Y0166107D01*
X0433898Y0166003D01*
X0433803Y0165903D01*
X0433785Y0165872D01*
X0433762Y0165846D01*
X0433698Y0165722D01*
X0433628Y0165605D01*
X0433618Y0165570D01*
X0433601Y0165539D01*
X0433567Y0165406D01*
X0433526Y0165274D01*
X0433524Y0165239D01*
X0433515Y0165204D01*
X0433501Y0165000D01*
X0433501Y0155500D01*
X0433504Y0155465D01*
X0433502Y0155429D01*
X0433525Y0155293D01*
X0433541Y0155157D01*
X0433553Y0155123D01*
X0433558Y0155088D01*
X0433611Y0154961D01*
X0433658Y0154831D01*
X0433678Y0154802D01*
X0433691Y0154769D01*
X0433772Y0154657D01*
X0433847Y0154542D01*
X0433872Y0154517D01*
X0433893Y0154489D01*
X0433998Y0154398D01*
X0434097Y0154303D01*
X0434128Y0154285D01*
X0434154Y0154262D01*
X0434277Y0154198D01*
X0434395Y0154128D01*
X0434429Y0154118D01*
X0434461Y0154101D01*
X0434594Y0154067D01*
X0434726Y0154026D01*
X0434761Y0154024D01*
X0434795Y0154015D01*
X0435000Y0154001D01*
X0478196Y0154001D01*
X0478247Y0154007D01*
G37*
D10*
X0416936Y0295000D03*
X0425064Y0295000D03*
X0416936Y0275000D03*
X0425064Y0275000D03*
X0416936Y0255000D03*
X0425064Y0255000D03*
X0416936Y0235000D03*
X0425064Y0235000D03*
X0416936Y0215000D03*
X0425064Y0215000D03*
D11*
X0485000Y0260000D03*
X0496000Y0252000D03*
X0475000Y0270000D03*
D12*
X0408480Y0161955D02*
X0416472Y0157341D01*
X0408480Y0161955D02*
X0401955Y0168480D01*
X0397341Y0176472D01*
X0394951Y0185386D01*
X0394650Y0190000D01*
X0394650Y0310000D01*
X0394951Y0314614D01*
X0397341Y0323528D01*
X0401955Y0331520D01*
X0408480Y0338045D01*
X0416472Y0342659D01*
X0425386Y0345048D01*
X0430000Y0345349D01*
X0540000Y0345349D01*
X0544614Y0345048D01*
X0553528Y0342659D01*
X0561520Y0338045D01*
X0568045Y0331520D01*
X0572659Y0323528D01*
X0575048Y0314614D01*
X0575350Y0310000D01*
X0575350Y0190000D01*
X0575048Y0185386D01*
X0572659Y0176472D01*
X0568045Y0168480D01*
X0561520Y0161955D01*
X0553528Y0157341D01*
X0544614Y0154952D01*
X0540000Y0154650D01*
X0430000Y0154650D01*
X0425386Y0154952D01*
X0416472Y0157341D01*
X0561432Y0283721D02*
X0561432Y0286279D01*
X0560453Y0288643D01*
X0558643Y0290453D01*
X0556279Y0291432D01*
X0553721Y0291432D01*
X0551357Y0290453D01*
X0549547Y0288643D01*
X0548568Y0286279D01*
X0548568Y0283721D01*
X0548828Y0283093D01*
X0538216Y0273675D01*
X0538124Y0273675D01*
X0537398Y0272949D01*
X0536631Y0272268D01*
X0536625Y0272176D01*
X0536560Y0272111D01*
X0536560Y0271084D01*
X0536499Y0270060D01*
X0536560Y0269991D01*
X0536560Y0208336D01*
X0529594Y0201370D01*
X0521756Y0201370D01*
X0521353Y0202343D01*
X0519543Y0204153D01*
X0517179Y0205132D01*
X0514621Y0205132D01*
X0512257Y0204153D01*
X0510447Y0202343D01*
X0509467Y0199979D01*
X0509467Y0197421D01*
X0510447Y0195057D01*
X0512257Y0193247D01*
X0514621Y0192268D01*
X0517179Y0192268D01*
X0519543Y0193247D01*
X0521270Y0194974D01*
X0520568Y0193279D01*
X0520568Y0191312D01*
X0520279Y0191432D01*
X0517721Y0191432D01*
X0515357Y0190453D01*
X0513547Y0188643D01*
X0512568Y0186279D01*
X0512568Y0183721D01*
X0513547Y0181357D01*
X0515357Y0179547D01*
X0517721Y0178568D01*
X0520279Y0178568D01*
X0520568Y0178688D01*
X0520568Y0177312D01*
X0520279Y0177432D01*
X0517721Y0177432D01*
X0515357Y0176453D01*
X0513547Y0174643D01*
X0512568Y0172278D01*
X0512568Y0169721D01*
X0513547Y0167357D01*
X0515357Y0165547D01*
X0517721Y0164568D01*
X0520279Y0164568D01*
X0522643Y0165547D01*
X0524453Y0167357D01*
X0524856Y0168329D01*
X0532106Y0168329D01*
X0556106Y0192330D01*
X0557670Y0193894D01*
X0557670Y0199144D01*
X0558643Y0199547D01*
X0560453Y0201357D01*
X0561432Y0203721D01*
X0561432Y0206279D01*
X0560453Y0208643D01*
X0558643Y0210453D01*
X0556279Y0211432D01*
X0553721Y0211432D01*
X0551357Y0210453D01*
X0550670Y0209766D01*
X0550670Y0219894D01*
X0550840Y0220064D01*
X0551357Y0219547D01*
X0553721Y0218568D01*
X0556279Y0218568D01*
X0558643Y0219547D01*
X0560453Y0221357D01*
X0561432Y0223721D01*
X0561432Y0226279D01*
X0560453Y0228643D01*
X0558643Y0230452D01*
X0556279Y0231432D01*
X0553721Y0231432D01*
X0551357Y0230452D01*
X0549547Y0228643D01*
X0548568Y0226279D01*
X0548568Y0225343D01*
X0547670Y0224446D01*
X0547670Y0235416D01*
X0552205Y0239196D01*
X0553721Y0238568D01*
X0556279Y0238568D01*
X0558643Y0239547D01*
X0560453Y0241357D01*
X0561432Y0243721D01*
X0561432Y0246279D01*
X0560453Y0248643D01*
X0558643Y0250452D01*
X0556279Y0251432D01*
X0553721Y0251432D01*
X0551357Y0250452D01*
X0549547Y0248643D01*
X0548568Y0246279D01*
X0548568Y0243721D01*
X0548754Y0243271D01*
X0544900Y0240059D01*
X0544900Y0252738D01*
X0552316Y0259150D01*
X0553721Y0258568D01*
X0556279Y0258568D01*
X0558643Y0259547D01*
X0560453Y0261357D01*
X0561432Y0263721D01*
X0561432Y0266279D01*
X0560453Y0268643D01*
X0558643Y0270453D01*
X0556279Y0271432D01*
X0553721Y0271432D01*
X0551357Y0270453D01*
X0549547Y0268643D01*
X0548568Y0266279D01*
X0548568Y0263721D01*
X0548797Y0263167D01*
X0541900Y0257203D01*
X0541900Y0269805D01*
X0552394Y0279118D01*
X0553721Y0278568D01*
X0556279Y0278568D01*
X0558643Y0279547D01*
X0560453Y0281357D01*
X0561432Y0283721D01*
X0444432Y0276279D02*
X0444432Y0273721D01*
X0444432Y0276279D02*
X0443453Y0278643D01*
X0441643Y0280453D01*
X0439279Y0281432D01*
X0436721Y0281432D01*
X0434357Y0280453D01*
X0432547Y0278643D01*
X0432144Y0277670D01*
X0430889Y0277670D01*
X0430889Y0282448D01*
X0429337Y0284000D01*
X0427734Y0284000D01*
X0427734Y0286000D01*
X0429337Y0286000D01*
X0430889Y0287552D01*
X0430889Y0302448D01*
X0429337Y0304000D01*
X0412663Y0304000D01*
X0411111Y0302448D01*
X0411111Y0299314D01*
X0410546Y0298750D01*
X0409568Y0296386D01*
X0409568Y0293828D01*
X0410546Y0291464D01*
X0411111Y0290900D01*
X0411111Y0289951D01*
X0399644Y0278484D01*
X0398080Y0276920D01*
X0398080Y0204452D01*
X0399644Y0202888D01*
X0399644Y0202888D01*
X0432638Y0169894D01*
X0432638Y0169894D01*
X0434202Y0168329D01*
X0445144Y0168329D01*
X0445546Y0167357D01*
X0447357Y0165547D01*
X0449721Y0164568D01*
X0452279Y0164568D01*
X0454643Y0165547D01*
X0456453Y0167357D01*
X0457432Y0169721D01*
X0457432Y0172278D01*
X0456453Y0174643D01*
X0454643Y0176453D01*
X0452279Y0177432D01*
X0449721Y0177432D01*
X0449432Y0177312D01*
X0449432Y0178688D01*
X0449721Y0178568D01*
X0452279Y0178568D01*
X0454643Y0179547D01*
X0456453Y0181357D01*
X0457432Y0183721D01*
X0457432Y0186279D01*
X0456453Y0188643D01*
X0454643Y0190453D01*
X0452279Y0191432D01*
X0449721Y0191432D01*
X0449432Y0191312D01*
X0449432Y0193279D01*
X0448453Y0195643D01*
X0446643Y0197453D01*
X0444279Y0198432D01*
X0441721Y0198432D01*
X0439357Y0197453D01*
X0437547Y0195643D01*
X0437144Y0194670D01*
X0427166Y0194670D01*
X0415835Y0206000D01*
X0429337Y0206000D01*
X0430889Y0207552D01*
X0430889Y0222447D01*
X0429337Y0224000D01*
X0427734Y0224000D01*
X0427734Y0226000D01*
X0429337Y0226000D01*
X0430889Y0227552D01*
X0430889Y0242447D01*
X0429337Y0244000D01*
X0427734Y0244000D01*
X0427734Y0246000D01*
X0429337Y0246000D01*
X0430889Y0247552D01*
X0430889Y0262448D01*
X0429337Y0264000D01*
X0427734Y0264000D01*
X0427734Y0266000D01*
X0429337Y0266000D01*
X0430889Y0267552D01*
X0430889Y0272330D01*
X0432144Y0272330D01*
X0432547Y0271357D01*
X0434357Y0269547D01*
X0436721Y0268568D01*
X0439279Y0268568D01*
X0441643Y0269547D01*
X0443453Y0271357D01*
X0444432Y0273721D01*
X0500150Y0326986D02*
X0500150Y0333014D01*
X0497844Y0338581D01*
X0493581Y0342844D01*
X0488014Y0345150D01*
X0481986Y0345150D01*
X0476418Y0342844D01*
X0472156Y0338581D01*
X0469850Y0333014D01*
X0469850Y0326986D01*
X0472156Y0321418D01*
X0476418Y0317156D01*
X0481986Y0314850D01*
X0488014Y0314850D01*
X0493581Y0317156D01*
X0497844Y0321418D01*
X0500150Y0326986D01*
X0500150Y0173014D02*
X0500150Y0166986D01*
X0500150Y0173014D02*
X0497844Y0178582D01*
X0493581Y0182844D01*
X0488014Y0185150D01*
X0481986Y0185150D01*
X0476418Y0182844D01*
X0472156Y0178582D01*
X0469850Y0173014D01*
X0469850Y0166986D01*
X0472156Y0161418D01*
X0476418Y0157156D01*
X0481986Y0154850D01*
X0488014Y0154850D01*
X0493581Y0157156D01*
X0497844Y0161418D01*
X0500150Y0166986D01*
X0476796Y0157000D02*
X0417744Y0157000D01*
X0493204Y0157000D02*
X0552256Y0157000D01*
X0473075Y0160500D02*
X0411000Y0160500D01*
X0496925Y0160500D02*
X0559000Y0160500D01*
X0471087Y0164000D02*
X0406435Y0164000D01*
X0498913Y0164000D02*
X0563565Y0164000D01*
X0445488Y0167500D02*
X0402935Y0167500D01*
X0456512Y0167500D02*
X0469850Y0167500D01*
X0500150Y0167500D02*
X0513488Y0167500D01*
X0524512Y0167500D02*
X0567065Y0167500D01*
X0431532Y0171000D02*
X0400500Y0171000D01*
X0457432Y0171000D02*
X0469850Y0171000D01*
X0500150Y0171000D02*
X0512568Y0171000D01*
X0534776Y0171000D02*
X0569500Y0171000D01*
X0428031Y0174500D02*
X0398479Y0174500D01*
X0456512Y0174500D02*
X0470466Y0174500D01*
X0499534Y0174500D02*
X0513488Y0174500D01*
X0538276Y0174500D02*
X0571521Y0174500D01*
X0424532Y0178000D02*
X0396931Y0178000D01*
X0449432Y0178000D02*
X0471915Y0178000D01*
X0498085Y0178000D02*
X0520568Y0178000D01*
X0541776Y0178000D02*
X0573069Y0178000D01*
X0421032Y0181500D02*
X0395994Y0181500D01*
X0456512Y0181500D02*
X0475075Y0181500D01*
X0494925Y0181500D02*
X0513488Y0181500D01*
X0545276Y0181500D02*
X0574006Y0181500D01*
X0417532Y0185000D02*
X0395056Y0185000D01*
X0457432Y0185000D02*
X0481624Y0185000D01*
X0488376Y0185000D02*
X0512568Y0185000D01*
X0548776Y0185000D02*
X0574944Y0185000D01*
X0414032Y0188500D02*
X0394748Y0188500D01*
X0456512Y0188500D02*
X0513488Y0188500D01*
X0552276Y0188500D02*
X0575252Y0188500D01*
X0410531Y0192000D02*
X0394650Y0192000D01*
X0449432Y0192000D02*
X0520568Y0192000D01*
X0555776Y0192000D02*
X0575350Y0192000D01*
X0407032Y0195500D02*
X0394650Y0195500D01*
X0426336Y0195500D02*
X0437488Y0195500D01*
X0448512Y0195500D02*
X0510264Y0195500D01*
X0557670Y0195500D02*
X0575350Y0195500D01*
X0403532Y0199000D02*
X0394650Y0199000D01*
X0422836Y0199000D02*
X0509467Y0199000D01*
X0557670Y0199000D02*
X0575350Y0199000D01*
X0400032Y0202500D02*
X0394650Y0202500D01*
X0419336Y0202500D02*
X0510604Y0202500D01*
X0521196Y0202500D02*
X0530724Y0202500D01*
X0560926Y0202500D02*
X0575350Y0202500D01*
X0398080Y0206000D02*
X0394650Y0206000D01*
X0429337Y0206000D02*
X0534224Y0206000D01*
X0561432Y0206000D02*
X0575350Y0206000D01*
X0398080Y0209500D02*
X0394650Y0209500D01*
X0430889Y0209500D02*
X0536560Y0209500D01*
X0559596Y0209500D02*
X0575350Y0209500D01*
X0398080Y0213000D02*
X0394650Y0213000D01*
X0430889Y0213000D02*
X0536560Y0213000D01*
X0550670Y0213000D02*
X0575350Y0213000D01*
X0398080Y0216500D02*
X0394650Y0216500D01*
X0430889Y0216500D02*
X0536560Y0216500D01*
X0550670Y0216500D02*
X0575350Y0216500D01*
X0398080Y0220000D02*
X0394650Y0220000D01*
X0430889Y0220000D02*
X0536560Y0220000D01*
X0550776Y0220000D02*
X0550904Y0220000D01*
X0559096Y0220000D02*
X0575350Y0220000D01*
X0398080Y0223500D02*
X0394650Y0223500D01*
X0429837Y0223500D02*
X0536560Y0223500D01*
X0561341Y0223500D02*
X0575350Y0223500D01*
X0398080Y0227000D02*
X0394650Y0227000D01*
X0430336Y0227000D02*
X0536560Y0227000D01*
X0547670Y0227000D02*
X0548867Y0227000D01*
X0561134Y0227000D02*
X0575350Y0227000D01*
X0398080Y0230500D02*
X0394650Y0230500D01*
X0430889Y0230500D02*
X0536560Y0230500D01*
X0547670Y0230500D02*
X0551471Y0230500D01*
X0558529Y0230500D02*
X0575350Y0230500D01*
X0398080Y0234000D02*
X0394650Y0234000D01*
X0430889Y0234000D02*
X0536560Y0234000D01*
X0547670Y0234000D02*
X0575350Y0234000D01*
X0398080Y0237500D02*
X0394650Y0237500D01*
X0430889Y0237500D02*
X0536560Y0237500D01*
X0550171Y0237500D02*
X0575350Y0237500D01*
X0398080Y0241000D02*
X0394650Y0241000D01*
X0430889Y0241000D02*
X0536560Y0241000D01*
X0544900Y0241000D02*
X0546029Y0241000D01*
X0560096Y0241000D02*
X0575350Y0241000D01*
X0398080Y0244500D02*
X0394650Y0244500D01*
X0427734Y0244500D02*
X0536560Y0244500D01*
X0544900Y0244500D02*
X0548568Y0244500D01*
X0561432Y0244500D02*
X0575350Y0244500D01*
X0398080Y0248000D02*
X0394650Y0248000D01*
X0430889Y0248000D02*
X0536560Y0248000D01*
X0544900Y0248000D02*
X0549281Y0248000D01*
X0560719Y0248000D02*
X0575350Y0248000D01*
X0398080Y0251500D02*
X0394650Y0251500D01*
X0430889Y0251500D02*
X0536560Y0251500D01*
X0544900Y0251500D02*
X0575350Y0251500D01*
X0398080Y0255000D02*
X0394650Y0255000D01*
X0430889Y0255000D02*
X0536560Y0255000D01*
X0547516Y0255000D02*
X0575350Y0255000D01*
X0398080Y0258500D02*
X0394650Y0258500D01*
X0430889Y0258500D02*
X0536560Y0258500D01*
X0541900Y0258500D02*
X0543400Y0258500D01*
X0551564Y0258500D02*
X0575350Y0258500D01*
X0398080Y0262000D02*
X0394650Y0262000D01*
X0430889Y0262000D02*
X0536560Y0262000D01*
X0541900Y0262000D02*
X0547448Y0262000D01*
X0560719Y0262000D02*
X0575350Y0262000D01*
X0398080Y0265500D02*
X0394650Y0265500D01*
X0427734Y0265500D02*
X0536560Y0265500D01*
X0541900Y0265500D02*
X0548568Y0265500D01*
X0561432Y0265500D02*
X0575350Y0265500D01*
X0398080Y0269000D02*
X0394650Y0269000D01*
X0430889Y0269000D02*
X0435678Y0269000D01*
X0440322Y0269000D02*
X0536560Y0269000D01*
X0541900Y0269000D02*
X0549904Y0269000D01*
X0560096Y0269000D02*
X0575350Y0269000D01*
X0398080Y0272500D02*
X0394650Y0272500D01*
X0443926Y0272500D02*
X0536892Y0272500D01*
X0544937Y0272500D02*
X0575350Y0272500D01*
X0398080Y0276000D02*
X0394650Y0276000D01*
X0444432Y0276000D02*
X0540836Y0276000D01*
X0548881Y0276000D02*
X0575350Y0276000D01*
X0400660Y0279500D02*
X0394650Y0279500D01*
X0430889Y0279500D02*
X0433404Y0279500D01*
X0442596Y0279500D02*
X0544780Y0279500D01*
X0558529Y0279500D02*
X0575350Y0279500D01*
X0404159Y0283000D02*
X0394650Y0283000D01*
X0430336Y0283000D02*
X0548724Y0283000D01*
X0561133Y0283000D02*
X0575350Y0283000D01*
X0407660Y0286500D02*
X0394650Y0286500D01*
X0429837Y0286500D02*
X0548659Y0286500D01*
X0561341Y0286500D02*
X0575350Y0286500D01*
X0411111Y0290000D02*
X0394650Y0290000D01*
X0430889Y0290000D02*
X0550904Y0290000D01*
X0559096Y0290000D02*
X0575350Y0290000D01*
X0409704Y0293500D02*
X0394650Y0293500D01*
X0430889Y0293500D02*
X0575350Y0293500D01*
X0409822Y0297000D02*
X0394650Y0297000D01*
X0430889Y0297000D02*
X0575350Y0297000D01*
X0411111Y0300500D02*
X0394650Y0300500D01*
X0430889Y0300500D02*
X0575350Y0300500D01*
X0575350Y0304000D02*
X0394650Y0304000D01*
X0394650Y0307500D02*
X0575350Y0307500D01*
X0575284Y0311000D02*
X0394716Y0311000D01*
X0394945Y0314500D02*
X0575055Y0314500D01*
X0475575Y0318000D02*
X0395860Y0318000D01*
X0494425Y0318000D02*
X0574140Y0318000D01*
X0472123Y0321500D02*
X0396796Y0321500D01*
X0497877Y0321500D02*
X0573202Y0321500D01*
X0470673Y0325000D02*
X0398191Y0325000D01*
X0499326Y0325000D02*
X0571809Y0325000D01*
X0469850Y0328500D02*
X0400212Y0328500D01*
X0500150Y0328500D02*
X0569788Y0328500D01*
X0469850Y0332000D02*
X0402435Y0332000D01*
X0500150Y0332000D02*
X0567565Y0332000D01*
X0470880Y0335500D02*
X0405935Y0335500D01*
X0499120Y0335500D02*
X0564065Y0335500D01*
X0472575Y0339000D02*
X0410134Y0339000D01*
X0497425Y0339000D02*
X0559866Y0339000D01*
X0476075Y0342500D02*
X0416197Y0342500D01*
X0493925Y0342500D02*
X0553803Y0342500D01*
X0397000Y0322256D02*
X0397000Y0177744D01*
X0400500Y0171000D02*
X0400500Y0202032D01*
X0400500Y0279340D02*
X0400500Y0329000D01*
X0404000Y0198532D02*
X0404000Y0166435D01*
X0404000Y0282840D02*
X0404000Y0333564D01*
X0407500Y0195032D02*
X0407500Y0162935D01*
X0407500Y0286340D02*
X0407500Y0337065D01*
X0411000Y0191531D02*
X0411000Y0160500D01*
X0411000Y0289840D02*
X0411000Y0291011D01*
X0411000Y0299203D02*
X0411000Y0339500D01*
X0414500Y0188032D02*
X0414500Y0158479D01*
X0414500Y0304000D02*
X0414500Y0341521D01*
X0418000Y0184532D02*
X0418000Y0156931D01*
X0418000Y0203836D02*
X0418000Y0206000D01*
X0418000Y0304000D02*
X0418000Y0343069D01*
X0421500Y0181032D02*
X0421500Y0155994D01*
X0421500Y0200336D02*
X0421500Y0206000D01*
X0421500Y0304000D02*
X0421500Y0344006D01*
X0425000Y0177532D02*
X0425000Y0155056D01*
X0425000Y0196835D02*
X0425000Y0206000D01*
X0425000Y0304000D02*
X0425000Y0344944D01*
X0428500Y0174031D02*
X0428500Y0154748D01*
X0428500Y0194670D02*
X0428500Y0206000D01*
X0428500Y0224000D02*
X0428500Y0226000D01*
X0428500Y0244000D02*
X0428500Y0246000D01*
X0428500Y0264000D02*
X0428500Y0266000D01*
X0428500Y0284000D02*
X0428500Y0286000D01*
X0428500Y0304000D02*
X0428500Y0345252D01*
X0432000Y0170532D02*
X0432000Y0154650D01*
X0432000Y0194670D02*
X0432000Y0272330D01*
X0432000Y0277670D02*
X0432000Y0345349D01*
X0435500Y0168329D02*
X0435500Y0154650D01*
X0435500Y0194670D02*
X0435500Y0269074D01*
X0435500Y0280926D02*
X0435500Y0345349D01*
X0439000Y0168329D02*
X0439000Y0154650D01*
X0439000Y0197096D02*
X0439000Y0268568D01*
X0439000Y0281432D02*
X0439000Y0345349D01*
X0442500Y0168329D02*
X0442500Y0154650D01*
X0442500Y0198432D02*
X0442500Y0270404D01*
X0442500Y0279596D02*
X0442500Y0345349D01*
X0446000Y0166904D02*
X0446000Y0154650D01*
X0446000Y0197719D02*
X0446000Y0345349D01*
X0449500Y0164659D02*
X0449500Y0154650D01*
X0449500Y0177341D02*
X0449500Y0178659D01*
X0449500Y0191341D02*
X0449500Y0345349D01*
X0453000Y0164866D02*
X0453000Y0154650D01*
X0453000Y0177133D02*
X0453000Y0178866D01*
X0453000Y0191133D02*
X0453000Y0345349D01*
X0456500Y0167471D02*
X0456500Y0154650D01*
X0456500Y0174529D02*
X0456500Y0181471D01*
X0456500Y0188528D02*
X0456500Y0345349D01*
X0460000Y0345349D02*
X0460000Y0154650D01*
X0463500Y0154650D02*
X0463500Y0345349D01*
X0467000Y0345349D02*
X0467000Y0154650D01*
X0470500Y0154650D02*
X0470500Y0165417D01*
X0470500Y0174583D02*
X0470500Y0325417D01*
X0470500Y0334583D02*
X0470500Y0345349D01*
X0474000Y0159575D02*
X0474000Y0154650D01*
X0474000Y0180425D02*
X0474000Y0319575D01*
X0474000Y0340425D02*
X0474000Y0345349D01*
X0477500Y0156708D02*
X0477500Y0154650D01*
X0477500Y0183292D02*
X0477500Y0316708D01*
X0477500Y0343292D02*
X0477500Y0345349D01*
X0481000Y0155259D02*
X0481000Y0154650D01*
X0481000Y0184741D02*
X0481000Y0315259D01*
X0481000Y0344741D02*
X0481000Y0345349D01*
X0484500Y0154850D02*
X0484500Y0154650D01*
X0484500Y0185150D02*
X0484500Y0314850D01*
X0484500Y0345150D02*
X0484500Y0345349D01*
X0488000Y0154850D02*
X0488000Y0154650D01*
X0488000Y0185150D02*
X0488000Y0314850D01*
X0488000Y0345150D02*
X0488000Y0345349D01*
X0491500Y0156294D02*
X0491500Y0154650D01*
X0491500Y0183706D02*
X0491500Y0316294D01*
X0491500Y0343705D02*
X0491500Y0345349D01*
X0495000Y0158575D02*
X0495000Y0154650D01*
X0495000Y0181424D02*
X0495000Y0318575D01*
X0495000Y0341425D02*
X0495000Y0345349D01*
X0498500Y0163003D02*
X0498500Y0154650D01*
X0498500Y0176997D02*
X0498500Y0323003D01*
X0498500Y0336997D02*
X0498500Y0345349D01*
X0502000Y0345349D02*
X0502000Y0154650D01*
X0505500Y0154650D02*
X0505500Y0345349D01*
X0509000Y0345349D02*
X0509000Y0154650D01*
X0512500Y0154650D02*
X0512500Y0193146D01*
X0512500Y0204254D02*
X0512500Y0345349D01*
X0516000Y0165280D02*
X0516000Y0154650D01*
X0516000Y0176719D02*
X0516000Y0179281D01*
X0516000Y0190719D02*
X0516000Y0192268D01*
X0516000Y0205132D02*
X0516000Y0345349D01*
X0519500Y0164568D02*
X0519500Y0154650D01*
X0519500Y0177432D02*
X0519500Y0178568D01*
X0519500Y0191432D02*
X0519500Y0193229D01*
X0519500Y0204170D02*
X0519500Y0345349D01*
X0523000Y0165904D02*
X0523000Y0154650D01*
X0523000Y0201370D02*
X0523000Y0345349D01*
X0526500Y0168329D02*
X0526500Y0154650D01*
X0526500Y0201370D02*
X0526500Y0345349D01*
X0530000Y0168329D02*
X0530000Y0154650D01*
X0530000Y0201775D02*
X0530000Y0345349D01*
X0533500Y0169724D02*
X0533500Y0154650D01*
X0533500Y0205276D02*
X0533500Y0345349D01*
X0537000Y0173224D02*
X0537000Y0154650D01*
X0537000Y0272596D02*
X0537000Y0345349D01*
X0540500Y0176724D02*
X0540500Y0154683D01*
X0540500Y0275702D02*
X0540500Y0345317D01*
X0544000Y0180224D02*
X0544000Y0154912D01*
X0544000Y0259018D02*
X0544000Y0271668D01*
X0544000Y0278808D02*
X0544000Y0345088D01*
X0547500Y0183724D02*
X0547500Y0155726D01*
X0547500Y0242226D02*
X0547500Y0254986D01*
X0547500Y0262045D02*
X0547500Y0274774D01*
X0547500Y0281914D02*
X0547500Y0344274D01*
X0551000Y0187224D02*
X0551000Y0156664D01*
X0551000Y0210096D02*
X0551000Y0219904D01*
X0551000Y0230096D02*
X0551000Y0238191D01*
X0551000Y0250096D02*
X0551000Y0258012D01*
X0551000Y0270096D02*
X0551000Y0277880D01*
X0551000Y0290096D02*
X0551000Y0343336D01*
X0554500Y0190724D02*
X0554500Y0157902D01*
X0554500Y0211432D02*
X0554500Y0218568D01*
X0554500Y0231432D02*
X0554500Y0238568D01*
X0554500Y0251432D02*
X0554500Y0258568D01*
X0554500Y0271432D02*
X0554500Y0278568D01*
X0554500Y0291432D02*
X0554500Y0342098D01*
X0558000Y0199281D02*
X0558000Y0159923D01*
X0558000Y0210719D02*
X0558000Y0219281D01*
X0558000Y0230719D02*
X0558000Y0239281D01*
X0558000Y0250719D02*
X0558000Y0259281D01*
X0558000Y0270719D02*
X0558000Y0279281D01*
X0558000Y0290719D02*
X0558000Y0340077D01*
X0561500Y0338056D02*
X0561500Y0161944D01*
X0565000Y0165435D02*
X0565000Y0334565D01*
X0568500Y0330732D02*
X0568500Y0169268D01*
X0572000Y0175331D02*
X0572000Y0324670D01*
D11*
X0402500Y0175000D03*
X0402500Y0183500D03*
X0402500Y0192000D03*
X0567500Y0183500D03*
X0567500Y0192000D03*
X0567500Y0175000D03*
X0567500Y0320000D03*
X0567500Y0310000D03*
X0545000Y0340000D03*
X0402500Y0310000D03*
X0421500Y0340000D03*
X0402500Y0320000D03*
X0466500Y0222500D03*
X0443700Y0295900D03*
X0502900Y0230799D03*
X0438500Y0214500D03*
X0447500Y0214500D03*
X0530500Y0285500D03*
X0456000Y0206000D03*
X0514000Y0295000D03*
X0522000Y0285500D03*
D13*
X0425064Y0295000D02*
X0425064Y0275000D01*
X0425064Y0255000D01*
X0425064Y0235000D01*
X0425064Y0215000D01*
D11*
X0438000Y0275000D03*
D13*
X0425064Y0275000D01*
D11*
X0415893Y0275000D03*
D14*
X0416936Y0275000D01*
D13*
X0416936Y0271936D01*
X0403519Y0258520D01*
X0403519Y0206705D01*
X0548000Y0221000D02*
X0552000Y0225000D01*
X0555000Y0225000D01*
D11*
X0555000Y0225000D03*
X0443000Y0178000D03*
X0527000Y0178000D03*
D13*
X0432224Y0178000D02*
X0403519Y0206705D01*
X0432224Y0178000D02*
X0443000Y0178000D01*
X0531000Y0178000D02*
X0548000Y0195000D01*
X0531000Y0178000D02*
X0527000Y0178000D01*
X0548000Y0195000D02*
X0548000Y0221000D01*
D11*
X0416000Y0255107D03*
D14*
X0416107Y0255000D02*
X0416936Y0255000D01*
X0416107Y0255000D02*
X0416000Y0255107D01*
D13*
X0416936Y0255000D02*
X0416936Y0251646D01*
X0406290Y0241000D01*
X0406290Y0207853D02*
X0429143Y0185000D01*
X0406290Y0207853D02*
X0406290Y0241000D01*
X0545000Y0236667D02*
X0555000Y0245000D01*
D11*
X0555000Y0245000D03*
X0451000Y0185000D03*
X0519000Y0185000D03*
D13*
X0451000Y0185000D02*
X0429143Y0185000D01*
X0519000Y0185000D02*
X0531238Y0185000D01*
X0545000Y0198762D01*
X0545000Y0236667D01*
D11*
X0416000Y0235107D03*
D14*
X0416107Y0235000D02*
X0416936Y0235000D01*
X0416107Y0235000D02*
X0416000Y0235107D01*
D13*
X0416936Y0235000D02*
X0416936Y0231876D01*
X0409060Y0224000D01*
X0409060Y0209000D01*
D11*
X0555000Y0265000D03*
D13*
X0542230Y0253958D02*
X0542230Y0203230D01*
X0542230Y0253958D02*
X0555000Y0265000D01*
D11*
X0443000Y0192000D03*
X0527000Y0192000D03*
D13*
X0443000Y0192000D02*
X0426060Y0192000D01*
X0409060Y0209000D01*
X0527000Y0192000D02*
X0531000Y0192000D01*
X0542230Y0203230D01*
D11*
X0416000Y0215107D03*
D14*
X0416107Y0215000D02*
X0416936Y0215000D01*
X0416107Y0215000D02*
X0416000Y0215107D01*
D13*
X0539230Y0207230D02*
X0539230Y0271005D01*
D11*
X0555000Y0285000D03*
D13*
X0539230Y0271005D01*
D11*
X0515900Y0198700D03*
D13*
X0530700Y0198700D01*
X0539230Y0207230D01*
D11*
X0416000Y0295107D03*
D14*
X0416084Y0295023D02*
X0416936Y0295000D01*
X0416084Y0295023D02*
X0416000Y0295107D01*
D13*
X0416936Y0295000D02*
X0416936Y0292000D01*
X0400750Y0275814D01*
X0400750Y0205557D01*
D11*
X0555000Y0205000D03*
X0451000Y0171000D03*
X0519000Y0171000D03*
D13*
X0435308Y0171000D02*
X0400750Y0205557D01*
X0435308Y0171000D02*
X0451000Y0171000D01*
X0519000Y0171000D02*
X0531000Y0171000D01*
X0555000Y0195000D01*
X0555000Y0205000D01*
M02*