G04 EAGLE Gerber RS-274X export*
G75*
%MOMM*%
%FSLAX34Y34*%
%LPD*%
%INSilk Screen*%
%IPPOS*%
%AMOC8*
5,1,8,0,0,$1,22.5*%
G01*
%ADD10C,0.127*%
D10*
X0404169Y0294900D02*
X0404167Y0295048D01*
X0404161Y0295196D01*
X0404151Y0295343D01*
X0404137Y0295491D01*
X0404120Y0295638D01*
X0404097Y0295784D01*
X0404073Y0295930D01*
X0404043Y0296075D01*
X0404010Y0296219D01*
X0403973Y0296362D01*
X0403932Y0296504D01*
X0403887Y0296646D01*
X0403838Y0296785D01*
X0403787Y0296924D01*
X0403731Y0297061D01*
X0403671Y0297196D01*
X0403608Y0297330D01*
X0403608Y0297331D02*
X0403583Y0297398D01*
X0403555Y0297463D01*
X0403523Y0297527D01*
X0403488Y0297590D01*
X0403450Y0297650D01*
X0403409Y0297708D01*
X0403365Y0297765D01*
X0403318Y0297818D01*
X0403268Y0297870D01*
X0403216Y0297918D01*
X0403161Y0297964D01*
X0403104Y0298007D01*
X0403045Y0298047D01*
X0402983Y0298084D01*
X0402920Y0298118D01*
X0402856Y0298148D01*
X0402789Y0298175D01*
X0402722Y0298199D01*
X0402653Y0298219D01*
X0402584Y0298236D01*
X0402513Y0298248D01*
X0402443Y0298258D01*
X0402371Y0298263D01*
X0402299Y0298265D01*
X0402229Y0298263D01*
X0402157Y0298258D01*
X0402085Y0298248D01*
X0402016Y0298236D01*
X0401947Y0298219D01*
X0401878Y0298199D01*
X0401810Y0298175D01*
X0401744Y0298148D01*
X0401680Y0298118D01*
X0401617Y0298084D01*
X0401555Y0298047D01*
X0401496Y0298007D01*
X0401439Y0297964D01*
X0401384Y0297918D01*
X0401332Y0297870D01*
X0401282Y0297818D01*
X0401235Y0297765D01*
X0401191Y0297708D01*
X0401150Y0297650D01*
X0401111Y0297590D01*
X0401077Y0297527D01*
X0401045Y0297463D01*
X0401017Y0297398D01*
X0400992Y0297331D01*
X0400991Y0297330D02*
X0400927Y0297196D01*
X0400867Y0297061D01*
X0400812Y0296924D01*
X0400760Y0296785D01*
X0400712Y0296646D01*
X0400667Y0296505D01*
X0400626Y0296362D01*
X0400589Y0296219D01*
X0400556Y0296075D01*
X0400526Y0295930D01*
X0400501Y0295784D01*
X0400479Y0295638D01*
X0400462Y0295491D01*
X0400448Y0295343D01*
X0400438Y0295196D01*
X0400432Y0295048D01*
X0400430Y0294900D01*
X0404169Y0294900D02*
X0404167Y0294752D01*
X0404161Y0294604D01*
X0404151Y0294457D01*
X0404137Y0294309D01*
X0404120Y0294162D01*
X0404097Y0294016D01*
X0404073Y0293870D01*
X0404043Y0293725D01*
X0404010Y0293581D01*
X0403973Y0293438D01*
X0403932Y0293296D01*
X0403887Y0293155D01*
X0403838Y0293015D01*
X0403787Y0292876D01*
X0403731Y0292739D01*
X0403671Y0292604D01*
X0403608Y0292470D01*
X0403608Y0292469D02*
X0403583Y0292402D01*
X0403555Y0292337D01*
X0403523Y0292273D01*
X0403488Y0292210D01*
X0403450Y0292150D01*
X0403409Y0292092D01*
X0403365Y0292035D01*
X0403318Y0291982D01*
X0403268Y0291930D01*
X0403216Y0291882D01*
X0403161Y0291836D01*
X0403104Y0291793D01*
X0403045Y0291753D01*
X0402983Y0291716D01*
X0402920Y0291682D01*
X0402856Y0291652D01*
X0402789Y0291625D01*
X0402722Y0291601D01*
X0402653Y0291581D01*
X0402584Y0291564D01*
X0402513Y0291552D01*
X0402443Y0291542D01*
X0402371Y0291537D01*
X0402299Y0291535D01*
X0400992Y0292470D02*
X0400929Y0292604D01*
X0400869Y0292739D01*
X0400813Y0292876D01*
X0400760Y0293015D01*
X0400713Y0293154D01*
X0400668Y0293295D01*
X0400627Y0293438D01*
X0400590Y0293581D01*
X0400557Y0293725D01*
X0400527Y0293870D01*
X0400501Y0294016D01*
X0400480Y0294162D01*
X0400463Y0294309D01*
X0400449Y0294457D01*
X0400439Y0294604D01*
X0400433Y0294752D01*
X0400431Y0294900D01*
X0400992Y0292469D02*
X0401017Y0292402D01*
X0401045Y0292337D01*
X0401077Y0292273D01*
X0401111Y0292210D01*
X0401150Y0292150D01*
X0401191Y0292092D01*
X0401235Y0292035D01*
X0401282Y0291982D01*
X0401332Y0291930D01*
X0401384Y0291882D01*
X0401439Y0291836D01*
X0401496Y0291793D01*
X0401555Y0291753D01*
X0401617Y0291716D01*
X0401680Y0291682D01*
X0401744Y0291652D01*
X0401810Y0291625D01*
X0401878Y0291601D01*
X0401947Y0291581D01*
X0402016Y0291564D01*
X0402085Y0291552D01*
X0402157Y0291542D01*
X0402229Y0291537D01*
X0402299Y0291535D01*
X0403795Y0293031D02*
X0400804Y0296769D01*
X0402400Y0278265D02*
X0404269Y0276769D01*
X0402400Y0278265D02*
X0402400Y0271535D01*
X0404269Y0271535D02*
X0400531Y0271535D01*
X0402413Y0258366D02*
X0402333Y0258363D01*
X0402253Y0258358D01*
X0402173Y0258348D01*
X0402094Y0258336D01*
X0402016Y0258318D01*
X0401939Y0258298D01*
X0401863Y0258273D01*
X0401787Y0258245D01*
X0401714Y0258214D01*
X0401642Y0258179D01*
X0401572Y0258141D01*
X0401503Y0258099D01*
X0401437Y0258054D01*
X0401373Y0258006D01*
X0401311Y0257955D01*
X0401252Y0257901D01*
X0401195Y0257843D01*
X0401141Y0257785D01*
X0401090Y0257723D01*
X0401042Y0257659D01*
X0400997Y0257593D01*
X0400955Y0257524D01*
X0400917Y0257454D01*
X0400882Y0257382D01*
X0400850Y0257308D01*
X0400823Y0257233D01*
X0400798Y0257156D01*
X0400777Y0257079D01*
X0400760Y0257002D01*
X0400747Y0256923D01*
X0400738Y0256843D01*
X0400732Y0256762D01*
X0400730Y0256683D01*
X0402413Y0258365D02*
X0402504Y0258363D01*
X0402594Y0258357D01*
X0402684Y0258348D01*
X0402774Y0258335D01*
X0402863Y0258318D01*
X0402951Y0258297D01*
X0403038Y0258273D01*
X0403125Y0258245D01*
X0403209Y0258213D01*
X0403293Y0258177D01*
X0403375Y0258139D01*
X0403455Y0258097D01*
X0403534Y0258052D01*
X0403610Y0258003D01*
X0403685Y0257950D01*
X0403757Y0257897D01*
X0403827Y0257839D01*
X0403894Y0257778D01*
X0403959Y0257715D01*
X0404021Y0257649D01*
X0404080Y0257580D01*
X0404136Y0257509D01*
X0404189Y0257436D01*
X0404239Y0257360D01*
X0404286Y0257282D01*
X0404330Y0257203D01*
X0404370Y0257122D01*
X0404407Y0257039D01*
X0404440Y0256955D01*
X0404470Y0256869D01*
X0401292Y0255373D02*
X0401233Y0255432D01*
X0401179Y0255492D01*
X0401126Y0255554D01*
X0401078Y0255619D01*
X0401031Y0255685D01*
X0400988Y0255754D01*
X0400948Y0255825D01*
X0400911Y0255897D01*
X0400877Y0255970D01*
X0400847Y0256047D01*
X0400820Y0256122D01*
X0400796Y0256201D01*
X0400777Y0256280D01*
X0400760Y0256360D01*
X0400747Y0256439D01*
X0400738Y0256521D01*
X0400733Y0256602D01*
X0400730Y0256683D01*
X0401291Y0255373D02*
X0404469Y0251635D01*
X0400730Y0251635D01*
X0402500Y0231635D02*
X0404369Y0231635D01*
X0402500Y0231635D02*
X0402415Y0231637D01*
X0402329Y0231643D01*
X0402246Y0231652D01*
X0402161Y0231666D01*
X0402078Y0231683D01*
X0401995Y0231704D01*
X0401914Y0231728D01*
X0401834Y0231758D01*
X0401755Y0231790D01*
X0401678Y0231824D01*
X0401603Y0231865D01*
X0401529Y0231907D01*
X0401457Y0231953D01*
X0401388Y0232002D01*
X0401320Y0232053D01*
X0401256Y0232109D01*
X0401194Y0232167D01*
X0401134Y0232228D01*
X0401077Y0232292D01*
X0401024Y0232357D01*
X0400972Y0232426D01*
X0400926Y0232497D01*
X0400881Y0232569D01*
X0400841Y0232644D01*
X0400803Y0232721D01*
X0400769Y0232798D01*
X0400739Y0232878D01*
X0400712Y0232959D01*
X0400689Y0233040D01*
X0400670Y0233124D01*
X0400655Y0233207D01*
X0400643Y0233292D01*
X0400635Y0233376D01*
X0400631Y0233461D01*
X0400631Y0233547D01*
X0400635Y0233632D01*
X0400643Y0233716D01*
X0400655Y0233801D01*
X0400670Y0233884D01*
X0400689Y0233967D01*
X0400712Y0234048D01*
X0400739Y0234130D01*
X0400769Y0234209D01*
X0400803Y0234287D01*
X0400841Y0234364D01*
X0400881Y0234439D01*
X0400926Y0234511D01*
X0400972Y0234581D01*
X0401024Y0234650D01*
X0401077Y0234716D01*
X0401134Y0234780D01*
X0401194Y0234840D01*
X0401256Y0234899D01*
X0401320Y0234954D01*
X0401388Y0235006D01*
X0401457Y0235054D01*
X0401529Y0235101D01*
X0401603Y0235143D01*
X0401678Y0235183D01*
X0401755Y0235218D01*
X0401834Y0235250D01*
X0401914Y0235279D01*
X0401995Y0235304D01*
X0402078Y0235325D01*
X0402161Y0235341D01*
X0402246Y0235356D01*
X0402329Y0235365D01*
X0402415Y0235371D01*
X0402500Y0235373D01*
X0402126Y0238365D02*
X0404369Y0238365D01*
X0402126Y0238365D02*
X0402050Y0238363D01*
X0401975Y0238357D01*
X0401899Y0238348D01*
X0401825Y0238333D01*
X0401751Y0238316D01*
X0401678Y0238296D01*
X0401606Y0238271D01*
X0401536Y0238244D01*
X0401467Y0238211D01*
X0401400Y0238177D01*
X0401335Y0238139D01*
X0401271Y0238097D01*
X0401210Y0238052D01*
X0401152Y0238004D01*
X0401094Y0237952D01*
X0401042Y0237900D01*
X0400991Y0237843D01*
X0400942Y0237785D01*
X0400897Y0237723D01*
X0400856Y0237659D01*
X0400818Y0237595D01*
X0400783Y0237528D01*
X0400751Y0237459D01*
X0400723Y0237389D01*
X0400698Y0237317D01*
X0400678Y0237244D01*
X0400661Y0237170D01*
X0400647Y0237096D01*
X0400638Y0237019D01*
X0400632Y0236944D01*
X0400630Y0236869D01*
X0400632Y0236792D01*
X0400638Y0236717D01*
X0400647Y0236642D01*
X0400661Y0236568D01*
X0400678Y0236494D01*
X0400698Y0236421D01*
X0400723Y0236349D01*
X0400751Y0236279D01*
X0400783Y0236210D01*
X0400818Y0236143D01*
X0400856Y0236077D01*
X0400897Y0236013D01*
X0400942Y0235953D01*
X0400991Y0235895D01*
X0401042Y0235838D01*
X0401094Y0235784D01*
X0401152Y0235734D01*
X0401210Y0235686D01*
X0401271Y0235641D01*
X0401335Y0235599D01*
X0401400Y0235561D01*
X0401467Y0235525D01*
X0401536Y0235494D01*
X0401606Y0235465D01*
X0401678Y0235442D01*
X0401751Y0235420D01*
X0401825Y0235403D01*
X0401899Y0235390D01*
X0401975Y0235381D01*
X0402050Y0235375D01*
X0402126Y0235373D01*
X0402126Y0235373D02*
X0403622Y0235373D01*
X0402874Y0218365D02*
X0404369Y0213131D01*
X0400631Y0213131D01*
X0401751Y0214626D02*
X0401751Y0211635D01*
M02*