G04 EAGLE Gerber RS-274X export*
G75*
%MOMM*%
%FSLAX34Y34*%
%LPD*%
%INComponent side*%
%IPPOS*%
%AMOC8*
5,1,8,0,0,$1,22.5*%
G01*
%ADD10R,2X0.6*%
%ADD11R,2.9X2.6*%
%ADD12R,0.45X1.45*%
%ADD13C,0.25*%
%ADD14C,0.125*%
%ADD15R,0.2X0.3*%
%ADD16C,0.15*%
%ADD17C,0.13*%
%ADD18C,0.7564*%
%ADD19C,0.3*%
G36*
X0499139Y0246713D02*
X0499139Y0246713D01*
X0499208Y0246715D01*
X0499309Y0246741D01*
X0499412Y0246758D01*
X0499476Y0246785D01*
X0499542Y0246802D01*
X0499634Y0246850D01*
X0499731Y0246891D01*
X0499787Y0246931D01*
X0499848Y0246964D01*
X0499927Y0247032D01*
X0500011Y0247093D01*
X0500057Y0247145D01*
X0500109Y0247190D01*
X0500169Y0247275D01*
X0500238Y0247353D01*
X0500270Y0247415D01*
X0500311Y0247472D01*
X0500349Y0247567D01*
X0500399Y0247659D01*
X0500416Y0247727D01*
X0500443Y0247791D01*
X0500459Y0247894D01*
X0500485Y0247995D01*
X0500492Y0248099D01*
X0500498Y0248132D01*
X0500496Y0248155D01*
X0500499Y0248200D01*
X0500499Y0257915D01*
X0500483Y0258053D01*
X0500473Y0258192D01*
X0500463Y0258224D01*
X0500459Y0258258D01*
X0500412Y0258389D01*
X0500371Y0258523D01*
X0500353Y0258552D01*
X0500342Y0258584D01*
X0500266Y0258699D01*
X0500195Y0258819D01*
X0500165Y0258854D01*
X0500152Y0258873D01*
X0500129Y0258896D01*
X0500060Y0258975D01*
X0486725Y0272310D01*
X0486616Y0272397D01*
X0486509Y0272488D01*
X0486479Y0272504D01*
X0486454Y0272525D01*
X0486328Y0272584D01*
X0486204Y0272649D01*
X0486171Y0272657D01*
X0486141Y0272672D01*
X0486004Y0272700D01*
X0485870Y0272735D01*
X0485824Y0272738D01*
X0485803Y0272743D01*
X0485769Y0272742D01*
X0485665Y0272749D01*
X0479518Y0272749D01*
X0479402Y0272736D01*
X0479286Y0272731D01*
X0479231Y0272716D01*
X0479174Y0272709D01*
X0479065Y0272670D01*
X0478952Y0272639D01*
X0478879Y0272603D01*
X0478849Y0272592D01*
X0478825Y0272576D01*
X0478768Y0272548D01*
X0478481Y0272382D01*
X0477835Y0272209D01*
X0476749Y0272209D01*
X0476749Y0275000D01*
X0476745Y0275035D01*
X0476748Y0275071D01*
X0476725Y0275207D01*
X0476710Y0275343D01*
X0476697Y0275377D01*
X0476692Y0275412D01*
X0476639Y0275539D01*
X0476592Y0275669D01*
X0476573Y0275698D01*
X0476559Y0275731D01*
X0476479Y0275843D01*
X0476402Y0275958D01*
X0476378Y0275983D01*
X0476357Y0276011D01*
X0476252Y0276102D01*
X0476153Y0276197D01*
X0476123Y0276215D01*
X0476096Y0276238D01*
X0475973Y0276302D01*
X0475854Y0276372D01*
X0475820Y0276382D01*
X0475790Y0276399D01*
X0475656Y0276433D01*
X0475525Y0276474D01*
X0475489Y0276476D01*
X0475455Y0276485D01*
X0475250Y0276499D01*
X0475215Y0276495D01*
X0475180Y0276498D01*
X0475179Y0276498D01*
X0475043Y0276475D01*
X0474906Y0276459D01*
X0474873Y0276447D01*
X0474838Y0276442D01*
X0474711Y0276389D01*
X0474581Y0276342D01*
X0474551Y0276323D01*
X0474519Y0276309D01*
X0474407Y0276228D01*
X0474292Y0276153D01*
X0474266Y0276127D01*
X0474238Y0276107D01*
X0474148Y0276003D01*
X0474052Y0275903D01*
X0474035Y0275872D01*
X0474012Y0275846D01*
X0473948Y0275723D01*
X0473878Y0275605D01*
X0473868Y0275571D01*
X0473851Y0275539D01*
X0473817Y0275406D01*
X0473776Y0275274D01*
X0473773Y0275239D01*
X0473765Y0275205D01*
X0473751Y0275000D01*
X0473751Y0272209D01*
X0472665Y0272209D01*
X0472019Y0272382D01*
X0471750Y0272538D01*
X0471675Y0272570D01*
X0471605Y0272612D01*
X0471517Y0272639D01*
X0471432Y0272675D01*
X0471352Y0272690D01*
X0471274Y0272714D01*
X0471183Y0272720D01*
X0471092Y0272736D01*
X0471011Y0272732D01*
X0470929Y0272737D01*
X0470839Y0272722D01*
X0470747Y0272717D01*
X0470668Y0272694D01*
X0470588Y0272681D01*
X0470503Y0272646D01*
X0470415Y0272620D01*
X0470344Y0272580D01*
X0470269Y0272549D01*
X0470194Y0272495D01*
X0470114Y0272449D01*
X0470055Y0272394D01*
X0469989Y0272346D01*
X0469928Y0272277D01*
X0469861Y0272214D01*
X0469814Y0272147D01*
X0469762Y0272085D01*
X0469719Y0272004D01*
X0469668Y0271927D01*
X0469639Y0271851D01*
X0469600Y0271779D01*
X0469578Y0271690D01*
X0469546Y0271604D01*
X0469535Y0271523D01*
X0469515Y0271444D01*
X0469504Y0271282D01*
X0469501Y0271261D01*
X0469502Y0271253D01*
X0469501Y0271240D01*
X0469501Y0265492D01*
X0469517Y0265354D01*
X0469527Y0265214D01*
X0469537Y0265182D01*
X0469540Y0265149D01*
X0469587Y0265018D01*
X0469629Y0264884D01*
X0469647Y0264855D01*
X0469658Y0264823D01*
X0469734Y0264707D01*
X0469805Y0264587D01*
X0469835Y0264552D01*
X0469847Y0264534D01*
X0469871Y0264511D01*
X0469940Y0264432D01*
X0470820Y0263551D01*
X0470820Y0254720D01*
X0470824Y0254685D01*
X0470822Y0254649D01*
X0470845Y0254513D01*
X0470861Y0254377D01*
X0470873Y0254343D01*
X0470878Y0254307D01*
X0470931Y0254181D01*
X0470978Y0254050D01*
X0470997Y0254022D01*
X0471011Y0253988D01*
X0471092Y0253877D01*
X0471167Y0253762D01*
X0471193Y0253737D01*
X0471213Y0253709D01*
X0471317Y0253618D01*
X0471417Y0253523D01*
X0471448Y0253505D01*
X0471474Y0253481D01*
X0471597Y0253418D01*
X0471715Y0253348D01*
X0471749Y0253338D01*
X0471781Y0253321D01*
X0471914Y0253286D01*
X0472046Y0253246D01*
X0472081Y0253244D01*
X0472115Y0253235D01*
X0472320Y0253221D01*
X0483137Y0253221D01*
X0488668Y0247689D01*
X0488777Y0247603D01*
X0488882Y0247512D01*
X0488912Y0247496D01*
X0488939Y0247475D01*
X0489065Y0247415D01*
X0489189Y0247351D01*
X0489221Y0247342D01*
X0489252Y0247327D01*
X0489388Y0247300D01*
X0489523Y0247265D01*
X0489568Y0247262D01*
X0489590Y0247257D01*
X0489624Y0247258D01*
X0489728Y0247250D01*
X0497829Y0247250D01*
X0497939Y0247140D01*
X0498022Y0247075D01*
X0498097Y0247003D01*
X0498157Y0246968D01*
X0498211Y0246925D01*
X0498305Y0246881D01*
X0498395Y0246828D01*
X0498461Y0246807D01*
X0498524Y0246777D01*
X0498626Y0246757D01*
X0498726Y0246726D01*
X0498795Y0246721D01*
X0498862Y0246707D01*
X0498966Y0246709D01*
X0499071Y0246702D01*
X0499139Y0246713D01*
G37*
D10*
X0404500Y0295000D03*
X0439500Y0285000D03*
X0404500Y0275000D03*
X0439500Y0265000D03*
X0404500Y0255000D03*
X0439500Y0245000D03*
X0404500Y0235000D03*
X0439500Y0225000D03*
X0404500Y0215000D03*
X0439500Y0205000D03*
D11*
X0422000Y0319000D03*
X0422000Y0181000D03*
D12*
X0494750Y0282000D03*
X0488250Y0282000D03*
X0481750Y0282000D03*
X0475250Y0282000D03*
X0475250Y0238000D03*
X0481750Y0238000D03*
X0488250Y0238000D03*
X0494750Y0238000D03*
D13*
X0457525Y0284350D02*
X0455025Y0284350D01*
X0455025Y0286850D01*
X0457525Y0286850D01*
X0457525Y0284350D01*
X0457525Y0286725D02*
X0455025Y0286725D01*
X0464275Y0284350D02*
X0466775Y0284350D01*
X0464275Y0284350D02*
X0464275Y0286850D01*
X0466775Y0286850D01*
X0466775Y0284350D01*
X0466775Y0286725D02*
X0464275Y0286725D01*
X0493825Y0220250D02*
X0496325Y0220250D01*
X0493825Y0220250D02*
X0493825Y0222750D01*
X0496325Y0222750D01*
X0496325Y0220250D01*
X0496325Y0222625D02*
X0493825Y0222625D01*
X0503075Y0220250D02*
X0505575Y0220250D01*
X0503075Y0220250D02*
X0503075Y0222750D01*
X0505575Y0222750D01*
X0505575Y0220250D01*
X0505575Y0222625D02*
X0503075Y0222625D01*
D10*
X0565500Y0205000D03*
X0530500Y0215000D03*
X0565500Y0225000D03*
X0530500Y0235000D03*
X0565500Y0245000D03*
X0530500Y0255000D03*
X0565500Y0265000D03*
X0530500Y0275000D03*
X0565500Y0285000D03*
X0530500Y0295000D03*
D11*
X0548000Y0181000D03*
X0548000Y0319000D03*
D14*
X0465289Y0269975D02*
X0461539Y0269975D01*
X0465289Y0269975D02*
X0465289Y0266225D01*
X0461539Y0266225D01*
X0461539Y0269975D01*
X0461539Y0267412D02*
X0465289Y0267412D01*
X0465289Y0268599D02*
X0461539Y0268599D01*
X0461539Y0269786D02*
X0465289Y0269786D01*
X0458661Y0269975D02*
X0454911Y0269975D01*
X0458661Y0269975D02*
X0458661Y0266225D01*
X0454911Y0266225D01*
X0454911Y0269975D01*
X0454911Y0267412D02*
X0458661Y0267412D01*
X0458661Y0268599D02*
X0454911Y0268599D01*
X0454911Y0269786D02*
X0458661Y0269786D01*
X0461639Y0251375D02*
X0465389Y0251375D01*
X0465389Y0247625D01*
X0461639Y0247625D01*
X0461639Y0251375D01*
X0461639Y0248812D02*
X0465389Y0248812D01*
X0465389Y0249999D02*
X0461639Y0249999D01*
X0461639Y0251186D02*
X0465389Y0251186D01*
X0458761Y0251375D02*
X0455011Y0251375D01*
X0458761Y0251375D02*
X0458761Y0247625D01*
X0455011Y0247625D01*
X0455011Y0251375D01*
X0455011Y0248812D02*
X0458761Y0248812D01*
X0458761Y0249999D02*
X0455011Y0249999D01*
X0455011Y0251186D02*
X0458761Y0251186D01*
X0461639Y0232875D02*
X0465389Y0232875D01*
X0465389Y0229125D01*
X0461639Y0229125D01*
X0461639Y0232875D01*
X0461639Y0230311D02*
X0465389Y0230311D01*
X0465389Y0231499D02*
X0461639Y0231499D01*
X0461639Y0232686D02*
X0465389Y0232686D01*
X0458761Y0232875D02*
X0455011Y0232875D01*
X0458761Y0232875D02*
X0458761Y0229125D01*
X0455011Y0229125D01*
X0455011Y0232875D01*
X0455011Y0230311D02*
X0458761Y0230311D01*
X0458761Y0231499D02*
X0455011Y0231499D01*
X0455011Y0232686D02*
X0458761Y0232686D01*
D15*
X0475000Y0218500D03*
X0479000Y0218500D03*
X0483000Y0218500D03*
X0487000Y0218500D03*
X0487000Y0224500D03*
X0483000Y0224500D03*
X0479000Y0224500D03*
X0475000Y0224500D03*
D16*
X0463514Y0231000D02*
X0468814Y0236300D01*
X0473550Y0236300D02*
X0475250Y0238000D01*
X0473550Y0236300D02*
X0468814Y0236300D01*
X0476750Y0233100D02*
X0476750Y0229611D01*
X0476750Y0233100D02*
X0473550Y0236300D01*
X0479000Y0227361D02*
X0479000Y0224500D01*
X0479000Y0227361D02*
X0476750Y0229611D01*
X0481850Y0238100D02*
X0481850Y0245489D01*
X0481850Y0238100D02*
X0481750Y0238000D01*
X0481850Y0245489D02*
X0479239Y0248100D01*
X0468100Y0248100D01*
X0466700Y0249500D01*
X0463514Y0249500D01*
X0482750Y0224750D02*
X0483000Y0224500D01*
X0481750Y0228528D02*
X0481750Y0238000D01*
X0482750Y0227528D02*
X0482750Y0224750D01*
X0482750Y0227528D02*
X0481750Y0228528D01*
X0488250Y0238000D02*
X0488250Y0245250D01*
X0482300Y0251199D02*
X0470800Y0251199D01*
X0468800Y0253200D01*
X0468800Y0262714D02*
X0463414Y0268100D01*
X0482300Y0251199D02*
X0488250Y0245250D01*
X0468800Y0253200D02*
X0468800Y0262714D01*
X0486800Y0224700D02*
X0487000Y0224500D01*
X0486800Y0224700D02*
X0486800Y0233350D01*
X0488250Y0234800D02*
X0488250Y0238000D01*
X0488250Y0234800D02*
X0486800Y0233350D01*
D17*
X0506830Y0230613D02*
X0506830Y0227987D01*
X0517849Y0216967D01*
X0517849Y0214487D01*
X0515717Y0216620D01*
X0508168Y0216620D01*
X0508301Y0216697D01*
X0509128Y0217524D01*
X0509711Y0218536D01*
X0510015Y0219665D01*
X0510015Y0220900D01*
X0504925Y0220900D01*
X0504925Y0222100D01*
X0510015Y0222100D01*
X0510015Y0223335D01*
X0509711Y0224464D01*
X0509128Y0225476D01*
X0508301Y0226302D01*
X0507288Y0226887D01*
X0506160Y0227190D01*
X0504925Y0227190D01*
X0504925Y0222100D01*
X0503725Y0222100D01*
X0503725Y0227190D01*
X0502490Y0227190D01*
X0501361Y0226887D01*
X0500349Y0226302D01*
X0499522Y0225476D01*
X0499373Y0225218D01*
X0498170Y0226420D01*
X0498170Y0228172D01*
X0499650Y0229652D01*
X0499650Y0246347D01*
X0498097Y0247900D01*
X0489376Y0247900D01*
X0483406Y0253870D01*
X0471906Y0253870D01*
X0471470Y0254305D01*
X0471470Y0263820D01*
X0469906Y0265384D01*
X0468564Y0266726D01*
X0468564Y0271332D01*
X0466646Y0273250D01*
X0460206Y0273250D01*
X0460206Y0273844D01*
X0465693Y0280450D01*
X0468390Y0280450D01*
X0470415Y0282475D01*
X0474775Y0282475D01*
X0474775Y0281525D01*
X0469810Y0281525D01*
X0469810Y0274330D01*
X0470027Y0273519D01*
X0470447Y0272791D01*
X0471041Y0272197D01*
X0471769Y0271777D01*
X0472579Y0271560D01*
X0474775Y0271560D01*
X0474775Y0281525D01*
X0475725Y0281525D01*
X0475725Y0271560D01*
X0477920Y0271560D01*
X0478731Y0271777D01*
X0479290Y0272100D01*
X0486017Y0272100D01*
X0506830Y0251287D01*
X0506830Y0230613D01*
X0475000Y0218500D02*
X0475000Y0218500D01*
X0479000Y0218500D01*
X0479000Y0218500D01*
X0478810Y0218500D01*
X0475000Y0218500D01*
X0479000Y0218500D02*
X0479000Y0218500D01*
X0483000Y0218500D01*
X0483000Y0218500D01*
X0482810Y0218500D01*
X0479000Y0218500D01*
X0460073Y0225850D02*
X0458630Y0224407D01*
X0460073Y0225850D02*
X0460118Y0225850D01*
X0460199Y0225932D01*
X0460282Y0225850D01*
X0466746Y0225850D01*
X0468664Y0227768D01*
X0468664Y0232374D01*
X0469920Y0233630D01*
X0470349Y0233630D01*
X0470349Y0229652D01*
X0471902Y0228100D01*
X0472352Y0228100D01*
X0471350Y0227098D01*
X0471350Y0221902D01*
X0471391Y0221861D01*
X0471027Y0221231D01*
X0470810Y0220420D01*
X0470810Y0218500D01*
X0475000Y0218500D01*
X0475000Y0218500D01*
X0470810Y0218500D01*
X0470810Y0216620D01*
X0466417Y0216620D01*
X0458630Y0224407D01*
X0483000Y0218500D02*
X0483000Y0218500D01*
X0487000Y0218500D01*
X0487000Y0218500D01*
X0483000Y0218500D01*
X0543150Y0273687D02*
X0543150Y0279098D01*
X0541598Y0280650D01*
X0519402Y0280650D01*
X0517849Y0279098D01*
X0517849Y0270902D01*
X0519402Y0269350D01*
X0537813Y0269350D01*
X0543180Y0263983D01*
X0543180Y0212617D01*
X0543150Y0212587D01*
X0543150Y0219098D01*
X0541598Y0220650D01*
X0523133Y0220650D01*
X0513170Y0230613D01*
X0513170Y0253913D01*
X0494983Y0272100D01*
X0495717Y0272100D01*
X0513530Y0254287D01*
X0513530Y0239487D01*
X0517849Y0235167D01*
X0517849Y0230902D01*
X0519402Y0229350D01*
X0541598Y0229350D01*
X0543150Y0230902D01*
X0543150Y0239098D01*
X0541598Y0240649D01*
X0521333Y0240649D01*
X0519870Y0242113D01*
X0519870Y0249350D01*
X0541598Y0249350D01*
X0543150Y0250902D01*
X0543150Y0259098D01*
X0541598Y0260649D01*
X0519402Y0260649D01*
X0517849Y0259098D01*
X0517849Y0258933D01*
X0499650Y0277133D01*
X0499650Y0290348D01*
X0498170Y0291828D01*
X0498170Y0298313D01*
X0496312Y0300170D01*
X0489013Y0307470D01*
X0439690Y0307470D01*
X0439690Y0318350D01*
X0422650Y0318350D01*
X0422650Y0319650D01*
X0439690Y0319650D01*
X0439690Y0332420D01*
X0439473Y0333230D01*
X0439052Y0333959D01*
X0438459Y0334553D01*
X0437731Y0334972D01*
X0436920Y0335190D01*
X0422650Y0335190D01*
X0422650Y0319650D01*
X0421350Y0319650D01*
X0421350Y0335190D01*
X0407080Y0335190D01*
X0406269Y0334972D01*
X0405541Y0334553D01*
X0404947Y0333959D01*
X0404527Y0333230D01*
X0404310Y0332420D01*
X0404310Y0319650D01*
X0421350Y0319650D01*
X0421350Y0318350D01*
X0404310Y0318350D01*
X0404310Y0305580D01*
X0404527Y0304769D01*
X0404947Y0304041D01*
X0405541Y0303447D01*
X0406269Y0303027D01*
X0407080Y0302810D01*
X0421350Y0302810D01*
X0421350Y0318350D01*
X0422650Y0318350D01*
X0422650Y0302810D01*
X0433627Y0302810D01*
X0419968Y0289152D01*
X0419968Y0280020D01*
X0419536Y0280453D01*
X0417172Y0281432D01*
X0414614Y0281432D01*
X0412725Y0280650D01*
X0394650Y0280650D01*
X0394650Y0289350D01*
X0413091Y0289350D01*
X0414721Y0288675D01*
X0417279Y0288675D01*
X0419643Y0289654D01*
X0421453Y0291464D01*
X0422432Y0293828D01*
X0422432Y0296386D01*
X0421453Y0298750D01*
X0419643Y0300560D01*
X0417279Y0301539D01*
X0414721Y0301539D01*
X0412573Y0300650D01*
X0394650Y0300650D01*
X0394650Y0310000D01*
X0394951Y0314614D01*
X0397341Y0323528D01*
X0397341Y0323528D01*
X0401955Y0331520D01*
X0408480Y0338045D01*
X0416472Y0342659D01*
X0425386Y0345048D01*
X0430000Y0345349D01*
X0471860Y0345349D01*
X0468294Y0342138D01*
X0468294Y0342138D01*
X0464801Y0334293D01*
X0464801Y0325707D01*
X0468294Y0317862D01*
X0468294Y0317862D01*
X0468294Y0317862D01*
X0474675Y0312117D01*
X0474675Y0312117D01*
X0482841Y0309463D01*
X0482842Y0309463D01*
X0491381Y0310361D01*
X0498818Y0314654D01*
X0498818Y0314654D01*
X0503865Y0321601D01*
X0505650Y0330000D01*
X0505650Y0330000D01*
X0503865Y0338399D01*
X0503865Y0338399D01*
X0498818Y0345346D01*
X0498818Y0345346D01*
X0498818Y0345346D01*
X0498810Y0345349D01*
X0540000Y0345349D01*
X0544614Y0345048D01*
X0553528Y0342659D01*
X0561520Y0338045D01*
X0568045Y0331520D01*
X0572659Y0323528D01*
X0575048Y0314614D01*
X0575350Y0310000D01*
X0575350Y0290650D01*
X0558167Y0290650D01*
X0556279Y0291432D01*
X0553721Y0291432D01*
X0551357Y0290453D01*
X0549547Y0288643D01*
X0548568Y0286279D01*
X0548568Y0283721D01*
X0549547Y0281357D01*
X0551357Y0279547D01*
X0553721Y0278568D01*
X0556279Y0278568D01*
X0558167Y0279350D01*
X0575350Y0279350D01*
X0575350Y0270650D01*
X0558167Y0270650D01*
X0556279Y0271432D01*
X0553721Y0271432D01*
X0551357Y0270453D01*
X0549547Y0268643D01*
X0549151Y0267686D01*
X0543150Y0273687D01*
X0529850Y0288810D02*
X0529850Y0294350D01*
X0531150Y0294350D01*
X0531150Y0288810D01*
X0540920Y0288810D01*
X0541731Y0289027D01*
X0542459Y0289447D01*
X0543053Y0290041D01*
X0543473Y0290769D01*
X0543690Y0291580D01*
X0543690Y0294350D01*
X0531150Y0294350D01*
X0531150Y0295650D01*
X0543690Y0295650D01*
X0543690Y0298420D01*
X0543473Y0299231D01*
X0543053Y0299959D01*
X0542459Y0300553D01*
X0541731Y0300973D01*
X0540920Y0301190D01*
X0531150Y0301190D01*
X0531150Y0295650D01*
X0529850Y0295650D01*
X0529850Y0301190D01*
X0520079Y0301190D01*
X0519269Y0300973D01*
X0518541Y0300553D01*
X0517947Y0299959D01*
X0517527Y0299231D01*
X0517310Y0298420D01*
X0517310Y0295650D01*
X0529850Y0295650D01*
X0529850Y0294350D01*
X0517310Y0294350D01*
X0517310Y0291580D01*
X0517527Y0290769D01*
X0517947Y0290041D01*
X0518541Y0289447D01*
X0519269Y0289027D01*
X0520079Y0288810D01*
X0529850Y0288810D01*
X0548650Y0318350D02*
X0565690Y0318350D01*
X0548650Y0318350D02*
X0548650Y0319650D01*
X0565690Y0319650D01*
X0565690Y0332420D01*
X0565473Y0333230D01*
X0565053Y0333959D01*
X0564459Y0334553D01*
X0563731Y0334972D01*
X0562920Y0335190D01*
X0548650Y0335190D01*
X0548650Y0319650D01*
X0547350Y0319650D01*
X0547350Y0335190D01*
X0533080Y0335190D01*
X0532269Y0334972D01*
X0531541Y0334553D01*
X0530947Y0333959D01*
X0530527Y0333230D01*
X0530310Y0332420D01*
X0530310Y0319650D01*
X0547350Y0319650D01*
X0547350Y0318350D01*
X0530310Y0318350D01*
X0530310Y0305580D01*
X0530527Y0304769D01*
X0530947Y0304041D01*
X0531541Y0303447D01*
X0532269Y0303027D01*
X0533080Y0302810D01*
X0547350Y0302810D01*
X0547350Y0318350D01*
X0548650Y0318350D01*
X0548650Y0302810D01*
X0562920Y0302810D01*
X0563731Y0303027D01*
X0564459Y0303447D01*
X0565053Y0304041D01*
X0565473Y0304769D01*
X0565690Y0305580D01*
X0565690Y0318350D01*
X0440150Y0211190D02*
X0440150Y0205650D01*
X0438850Y0205650D01*
X0438850Y0211190D01*
X0429080Y0211190D01*
X0428269Y0210973D01*
X0427541Y0210553D01*
X0426947Y0209959D01*
X0426527Y0209230D01*
X0426310Y0208420D01*
X0426310Y0205650D01*
X0438850Y0205650D01*
X0438850Y0204350D01*
X0426310Y0204350D01*
X0426310Y0203466D01*
X0419883Y0209893D01*
X0421453Y0211464D01*
X0422432Y0213828D01*
X0422432Y0216386D01*
X0421453Y0218750D01*
X0419643Y0220560D01*
X0417279Y0221539D01*
X0414721Y0221539D01*
X0412573Y0220650D01*
X0394650Y0220650D01*
X0394650Y0229350D01*
X0413091Y0229350D01*
X0414721Y0228675D01*
X0417279Y0228675D01*
X0419643Y0229654D01*
X0421453Y0231464D01*
X0422432Y0233828D01*
X0422432Y0236386D01*
X0421453Y0238750D01*
X0419643Y0240559D01*
X0417279Y0241539D01*
X0414721Y0241539D01*
X0412573Y0240649D01*
X0394650Y0240649D01*
X0394650Y0249350D01*
X0413091Y0249350D01*
X0414721Y0248675D01*
X0417279Y0248675D01*
X0419643Y0249654D01*
X0421453Y0251464D01*
X0422432Y0253828D01*
X0422432Y0256386D01*
X0421453Y0258750D01*
X0419643Y0260559D01*
X0417279Y0261539D01*
X0414721Y0261539D01*
X0412573Y0260649D01*
X0394650Y0260649D01*
X0394650Y0269350D01*
X0412725Y0269350D01*
X0414614Y0268568D01*
X0417172Y0268568D01*
X0419536Y0269547D01*
X0421346Y0271357D01*
X0421625Y0272031D01*
X0421826Y0271830D01*
X0426850Y0266806D01*
X0426850Y0260902D01*
X0428402Y0259350D01*
X0450598Y0259350D01*
X0452150Y0260902D01*
X0452150Y0264355D01*
X0453366Y0263138D01*
X0453366Y0254362D01*
X0451736Y0252732D01*
X0451736Y0249512D01*
X0450598Y0250649D01*
X0428402Y0250649D01*
X0426850Y0249098D01*
X0426850Y0240902D01*
X0428402Y0239350D01*
X0450598Y0239350D01*
X0452150Y0240902D01*
X0452150Y0245855D01*
X0453466Y0244538D01*
X0453466Y0235962D01*
X0451736Y0234232D01*
X0451736Y0229512D01*
X0450598Y0230649D01*
X0428402Y0230649D01*
X0426850Y0229098D01*
X0426850Y0220902D01*
X0428402Y0219350D01*
X0450598Y0219350D01*
X0451828Y0220580D01*
X0452783Y0220580D01*
X0463583Y0209780D01*
X0512883Y0209780D01*
X0515880Y0206783D01*
X0515880Y0206783D01*
X0517780Y0204883D01*
X0517179Y0205132D01*
X0514621Y0205132D01*
X0512257Y0204153D01*
X0510690Y0202586D01*
X0504606Y0208670D01*
X0464894Y0208670D01*
X0463330Y0207106D01*
X0457894Y0201670D01*
X0452690Y0201670D01*
X0452690Y0204350D01*
X0440150Y0204350D01*
X0440150Y0205650D01*
X0452690Y0205650D01*
X0452690Y0208420D01*
X0452473Y0209230D01*
X0452053Y0209959D01*
X0451459Y0210553D01*
X0450730Y0210973D01*
X0449920Y0211190D01*
X0440150Y0211190D01*
X0422650Y0197190D02*
X0422650Y0181650D01*
X0421350Y0181650D01*
X0421350Y0197190D01*
X0407080Y0197190D01*
X0406269Y0196972D01*
X0405541Y0196553D01*
X0404947Y0195959D01*
X0404527Y0195231D01*
X0404310Y0194420D01*
X0404310Y0181650D01*
X0421350Y0181650D01*
X0421350Y0180350D01*
X0404310Y0180350D01*
X0404310Y0167580D01*
X0404527Y0166769D01*
X0404947Y0166041D01*
X0405541Y0165447D01*
X0406269Y0165027D01*
X0407080Y0164810D01*
X0421350Y0164810D01*
X0421350Y0180350D01*
X0422650Y0180350D01*
X0422650Y0164810D01*
X0436920Y0164810D01*
X0437731Y0165027D01*
X0438459Y0165447D01*
X0439052Y0166041D01*
X0439473Y0166769D01*
X0439690Y0167580D01*
X0439690Y0172409D01*
X0441721Y0171568D01*
X0444279Y0171568D01*
X0444568Y0171688D01*
X0444568Y0169721D01*
X0445546Y0167357D01*
X0447357Y0165547D01*
X0449721Y0164568D01*
X0452279Y0164568D01*
X0454643Y0165547D01*
X0456453Y0167357D01*
X0457432Y0169721D01*
X0457432Y0172278D01*
X0457029Y0173253D01*
X0475105Y0191330D01*
X0494394Y0191330D01*
X0512825Y0172899D01*
X0512568Y0172278D01*
X0512568Y0169721D01*
X0513547Y0167357D01*
X0515357Y0165547D01*
X0517721Y0164568D01*
X0520279Y0164568D01*
X0522643Y0165547D01*
X0524453Y0167357D01*
X0525432Y0169721D01*
X0525432Y0171688D01*
X0525721Y0171568D01*
X0528279Y0171568D01*
X0530310Y0172409D01*
X0530310Y0167580D01*
X0530527Y0166769D01*
X0530947Y0166041D01*
X0531541Y0165447D01*
X0532269Y0165027D01*
X0533080Y0164810D01*
X0547350Y0164810D01*
X0547350Y0180350D01*
X0548650Y0180350D01*
X0548650Y0164810D01*
X0562920Y0164810D01*
X0563731Y0165027D01*
X0564459Y0165447D01*
X0565053Y0166041D01*
X0565473Y0166769D01*
X0565690Y0167580D01*
X0565690Y0180350D01*
X0548650Y0180350D01*
X0548650Y0181650D01*
X0565690Y0181650D01*
X0565690Y0194420D01*
X0565473Y0195231D01*
X0565053Y0195959D01*
X0564459Y0196553D01*
X0563731Y0196972D01*
X0562920Y0197190D01*
X0548650Y0197190D01*
X0548650Y0181650D01*
X0547350Y0181650D01*
X0547350Y0197190D01*
X0533080Y0197190D01*
X0532269Y0196972D01*
X0531543Y0196553D01*
X0530643Y0197453D01*
X0528279Y0198432D01*
X0525721Y0198432D01*
X0523357Y0197453D01*
X0521629Y0195726D01*
X0522331Y0197421D01*
X0522331Y0199979D01*
X0521353Y0202343D01*
X0519543Y0204153D01*
X0518029Y0204780D01*
X0545017Y0204780D01*
X0548017Y0207780D01*
X0550020Y0209783D01*
X0550020Y0220884D01*
X0551357Y0219547D01*
X0553721Y0218568D01*
X0556279Y0218568D01*
X0558167Y0219350D01*
X0575350Y0219350D01*
X0575350Y0210650D01*
X0558167Y0210650D01*
X0556279Y0211432D01*
X0553721Y0211432D01*
X0551357Y0210453D01*
X0549547Y0208643D01*
X0548568Y0206279D01*
X0548568Y0203721D01*
X0549547Y0201357D01*
X0551357Y0199547D01*
X0553721Y0198568D01*
X0556279Y0198568D01*
X0558167Y0199350D01*
X0575350Y0199350D01*
X0575350Y0190000D01*
X0575048Y0185386D01*
X0572659Y0176472D01*
X0568045Y0168480D01*
X0561520Y0161955D01*
X0553528Y0157341D01*
X0544614Y0154952D01*
X0540000Y0154650D01*
X0498810Y0154650D01*
X0498818Y0154654D01*
X0498818Y0154654D01*
X0498818Y0154654D01*
X0503865Y0161601D01*
X0503865Y0161601D01*
X0505650Y0170000D01*
X0503865Y0178399D01*
X0503865Y0178399D01*
X0498818Y0185346D01*
X0498818Y0185346D01*
X0498818Y0185346D01*
X0491381Y0189639D01*
X0491381Y0189639D01*
X0482842Y0190537D01*
X0482841Y0190537D01*
X0474675Y0187883D01*
X0474675Y0187883D01*
X0468294Y0182138D01*
X0468294Y0182138D01*
X0464801Y0174293D01*
X0464801Y0165707D01*
X0468294Y0157862D01*
X0468294Y0157862D01*
X0471860Y0154650D01*
X0430000Y0154650D01*
X0425386Y0154952D01*
X0416472Y0157341D01*
X0408480Y0161955D01*
X0401955Y0168480D01*
X0397341Y0176472D01*
X0394951Y0185386D01*
X0394650Y0190000D01*
X0394650Y0209350D01*
X0412874Y0209350D01*
X0424330Y0197894D01*
X0425034Y0197190D01*
X0422650Y0197190D01*
X0455987Y0300470D02*
X0458613Y0300470D01*
X0455987Y0300470D02*
X0446167Y0290650D01*
X0430433Y0290650D01*
X0440913Y0301130D01*
X0486387Y0301130D01*
X0491830Y0295687D01*
X0491830Y0291900D01*
X0491419Y0291900D01*
X0491419Y0295063D01*
X0486013Y0300470D01*
X0483387Y0300470D01*
X0458613Y0300470D01*
X0470362Y0156000D02*
X0421475Y0156000D01*
X0499795Y0156000D02*
X0548524Y0156000D01*
X0467787Y0159000D02*
X0413598Y0159000D01*
X0501975Y0159000D02*
X0556402Y0159000D01*
X0466452Y0162000D02*
X0408435Y0162000D01*
X0503949Y0162000D02*
X0561565Y0162000D01*
X0406370Y0165000D02*
X0405435Y0165000D01*
X0421350Y0165000D02*
X0422650Y0165000D01*
X0437629Y0165000D02*
X0448678Y0165000D01*
X0453322Y0165000D02*
X0465116Y0165000D01*
X0504587Y0165000D02*
X0516678Y0165000D01*
X0521322Y0165000D02*
X0532371Y0165000D01*
X0547350Y0165000D02*
X0548650Y0165000D01*
X0563629Y0165000D02*
X0564565Y0165000D01*
X0404310Y0168000D02*
X0402435Y0168000D01*
X0421350Y0168000D02*
X0422650Y0168000D01*
X0439690Y0168000D02*
X0445281Y0168000D01*
X0456719Y0168000D02*
X0464801Y0168000D01*
X0505225Y0168000D02*
X0513281Y0168000D01*
X0524719Y0168000D02*
X0530310Y0168000D01*
X0547350Y0168000D02*
X0548650Y0168000D01*
X0565690Y0168000D02*
X0567565Y0168000D01*
X0404310Y0171000D02*
X0400500Y0171000D01*
X0421350Y0171000D02*
X0422650Y0171000D01*
X0439690Y0171000D02*
X0444568Y0171000D01*
X0457432Y0171000D02*
X0464801Y0171000D01*
X0505437Y0171000D02*
X0512568Y0171000D01*
X0525432Y0171000D02*
X0530310Y0171000D01*
X0547350Y0171000D02*
X0548650Y0171000D01*
X0565690Y0171000D02*
X0569500Y0171000D01*
X0404310Y0174000D02*
X0398768Y0174000D01*
X0421350Y0174000D02*
X0422650Y0174000D01*
X0457776Y0174000D02*
X0464801Y0174000D01*
X0504800Y0174000D02*
X0511723Y0174000D01*
X0547350Y0174000D02*
X0548650Y0174000D01*
X0565690Y0174000D02*
X0571232Y0174000D01*
X0404310Y0177000D02*
X0397199Y0177000D01*
X0421350Y0177000D02*
X0422650Y0177000D01*
X0460776Y0177000D02*
X0466006Y0177000D01*
X0504162Y0177000D02*
X0508724Y0177000D01*
X0547350Y0177000D02*
X0548650Y0177000D01*
X0565690Y0177000D02*
X0572801Y0177000D01*
X0404310Y0180000D02*
X0396396Y0180000D01*
X0421350Y0180000D02*
X0422650Y0180000D01*
X0463776Y0180000D02*
X0467342Y0180000D01*
X0502702Y0180000D02*
X0505724Y0180000D01*
X0547350Y0180000D02*
X0548650Y0180000D01*
X0565690Y0180000D02*
X0573604Y0180000D01*
X0404310Y0183000D02*
X0395591Y0183000D01*
X0421350Y0183000D02*
X0422650Y0183000D01*
X0466776Y0183000D02*
X0469251Y0183000D01*
X0500522Y0183000D02*
X0502724Y0183000D01*
X0547350Y0183000D02*
X0548650Y0183000D01*
X0565690Y0183000D02*
X0574408Y0183000D01*
X0404310Y0186000D02*
X0394912Y0186000D01*
X0421350Y0186000D02*
X0422650Y0186000D01*
X0469776Y0186000D02*
X0472583Y0186000D01*
X0497685Y0186000D02*
X0499724Y0186000D01*
X0547350Y0186000D02*
X0548650Y0186000D01*
X0565690Y0186000D02*
X0575088Y0186000D01*
X0404310Y0189000D02*
X0394716Y0189000D01*
X0421350Y0189000D02*
X0422650Y0189000D01*
X0472776Y0189000D02*
X0478112Y0189000D01*
X0492488Y0189000D02*
X0496723Y0189000D01*
X0547350Y0189000D02*
X0548650Y0189000D01*
X0565690Y0189000D02*
X0575284Y0189000D01*
X0404310Y0192000D02*
X0394650Y0192000D01*
X0421350Y0192000D02*
X0422650Y0192000D01*
X0547350Y0192000D02*
X0548650Y0192000D01*
X0565690Y0192000D02*
X0575350Y0192000D01*
X0404465Y0195000D02*
X0394650Y0195000D01*
X0421350Y0195000D02*
X0422650Y0195000D01*
X0547350Y0195000D02*
X0548650Y0195000D01*
X0565535Y0195000D02*
X0575350Y0195000D01*
X0424224Y0198000D02*
X0394650Y0198000D01*
X0522331Y0198000D02*
X0524678Y0198000D01*
X0529322Y0198000D02*
X0575350Y0198000D01*
X0421224Y0201000D02*
X0394650Y0201000D01*
X0521909Y0201000D02*
X0549904Y0201000D01*
X0418224Y0204000D02*
X0394650Y0204000D01*
X0425775Y0204000D02*
X0426310Y0204000D01*
X0452690Y0204000D02*
X0460224Y0204000D01*
X0509276Y0204000D02*
X0512104Y0204000D01*
X0519696Y0204000D02*
X0548568Y0204000D01*
X0415224Y0207000D02*
X0394650Y0207000D01*
X0422776Y0207000D02*
X0426310Y0207000D01*
X0438850Y0207000D02*
X0440150Y0207000D01*
X0452690Y0207000D02*
X0463224Y0207000D01*
X0506276Y0207000D02*
X0515663Y0207000D01*
X0547237Y0207000D02*
X0548867Y0207000D01*
X0426989Y0210000D02*
X0419989Y0210000D01*
X0438850Y0210000D02*
X0440150Y0210000D01*
X0452010Y0210000D02*
X0463363Y0210000D01*
X0550020Y0210000D02*
X0550904Y0210000D01*
X0460363Y0213000D02*
X0422089Y0213000D01*
X0543150Y0213000D02*
X0543180Y0213000D01*
X0550020Y0213000D02*
X0575350Y0213000D01*
X0457363Y0216000D02*
X0422432Y0216000D01*
X0516337Y0216000D02*
X0517849Y0216000D01*
X0543150Y0216000D02*
X0543180Y0216000D01*
X0550020Y0216000D02*
X0575350Y0216000D01*
X0454363Y0219000D02*
X0421203Y0219000D01*
X0464037Y0219000D02*
X0470810Y0219000D01*
X0509837Y0219000D02*
X0515817Y0219000D01*
X0543150Y0219000D02*
X0543180Y0219000D01*
X0550020Y0219000D02*
X0552678Y0219000D01*
X0557322Y0219000D02*
X0575350Y0219000D01*
X0426850Y0222000D02*
X0394650Y0222000D01*
X0461037Y0222000D02*
X0471350Y0222000D01*
X0504925Y0222000D02*
X0512817Y0222000D01*
X0521783Y0222000D02*
X0543180Y0222000D01*
X0426850Y0225000D02*
X0394650Y0225000D01*
X0459223Y0225000D02*
X0471350Y0225000D01*
X0503725Y0225000D02*
X0504925Y0225000D01*
X0509403Y0225000D02*
X0509817Y0225000D01*
X0518782Y0225000D02*
X0543180Y0225000D01*
X0426850Y0228000D02*
X0394650Y0228000D01*
X0468664Y0228000D02*
X0472252Y0228000D01*
X0498170Y0228000D02*
X0506830Y0228000D01*
X0515783Y0228000D02*
X0543180Y0228000D01*
X0451736Y0231000D02*
X0420989Y0231000D01*
X0468664Y0231000D02*
X0470349Y0231000D01*
X0499650Y0231000D02*
X0506830Y0231000D01*
X0513170Y0231000D02*
X0517849Y0231000D01*
X0543150Y0231000D02*
X0543180Y0231000D01*
X0451736Y0234000D02*
X0422432Y0234000D01*
X0499650Y0234000D02*
X0506830Y0234000D01*
X0513170Y0234000D02*
X0517849Y0234000D01*
X0543150Y0234000D02*
X0543180Y0234000D01*
X0453466Y0237000D02*
X0422177Y0237000D01*
X0499650Y0237000D02*
X0506830Y0237000D01*
X0513170Y0237000D02*
X0516017Y0237000D01*
X0543150Y0237000D02*
X0543180Y0237000D01*
X0427752Y0240000D02*
X0420203Y0240000D01*
X0451248Y0240000D02*
X0453466Y0240000D01*
X0499650Y0240000D02*
X0506830Y0240000D01*
X0513170Y0240000D02*
X0513530Y0240000D01*
X0542248Y0240000D02*
X0543180Y0240000D01*
X0426850Y0243000D02*
X0394650Y0243000D01*
X0452150Y0243000D02*
X0453466Y0243000D01*
X0499650Y0243000D02*
X0506830Y0243000D01*
X0513170Y0243000D02*
X0513530Y0243000D01*
X0519870Y0243000D02*
X0543180Y0243000D01*
X0426850Y0246000D02*
X0394650Y0246000D01*
X0499650Y0246000D02*
X0506830Y0246000D01*
X0513170Y0246000D02*
X0513530Y0246000D01*
X0519870Y0246000D02*
X0543180Y0246000D01*
X0413936Y0249000D02*
X0394650Y0249000D01*
X0418063Y0249000D02*
X0426850Y0249000D01*
X0488276Y0249000D02*
X0506830Y0249000D01*
X0513170Y0249000D02*
X0513530Y0249000D01*
X0519870Y0249000D02*
X0543180Y0249000D01*
X0451736Y0252000D02*
X0421674Y0252000D01*
X0485276Y0252000D02*
X0506117Y0252000D01*
X0513170Y0252000D02*
X0513530Y0252000D01*
X0543150Y0252000D02*
X0543180Y0252000D01*
X0453366Y0255000D02*
X0422432Y0255000D01*
X0471470Y0255000D02*
X0503117Y0255000D01*
X0512083Y0255000D02*
X0512817Y0255000D01*
X0543150Y0255000D02*
X0543180Y0255000D01*
X0453366Y0258000D02*
X0421764Y0258000D01*
X0471470Y0258000D02*
X0500117Y0258000D01*
X0509082Y0258000D02*
X0509817Y0258000D01*
X0543150Y0258000D02*
X0543180Y0258000D01*
X0413419Y0261000D02*
X0394650Y0261000D01*
X0418581Y0261000D02*
X0426850Y0261000D01*
X0452150Y0261000D02*
X0453366Y0261000D01*
X0471470Y0261000D02*
X0497117Y0261000D01*
X0506083Y0261000D02*
X0506817Y0261000D01*
X0515783Y0261000D02*
X0543180Y0261000D01*
X0426850Y0264000D02*
X0394650Y0264000D01*
X0452150Y0264000D02*
X0452504Y0264000D01*
X0471290Y0264000D02*
X0494116Y0264000D01*
X0503083Y0264000D02*
X0503817Y0264000D01*
X0512783Y0264000D02*
X0543163Y0264000D01*
X0426656Y0267000D02*
X0394650Y0267000D01*
X0468564Y0267000D02*
X0491117Y0267000D01*
X0500083Y0267000D02*
X0500817Y0267000D01*
X0509783Y0267000D02*
X0540163Y0267000D01*
X0423656Y0270000D02*
X0419989Y0270000D01*
X0468564Y0270000D02*
X0488117Y0270000D01*
X0497083Y0270000D02*
X0497817Y0270000D01*
X0506783Y0270000D02*
X0518752Y0270000D01*
X0546837Y0270000D02*
X0550904Y0270000D01*
X0470327Y0273000D02*
X0466896Y0273000D01*
X0474775Y0273000D02*
X0475725Y0273000D01*
X0503782Y0273000D02*
X0517849Y0273000D01*
X0543837Y0273000D02*
X0575350Y0273000D01*
X0469810Y0276000D02*
X0461997Y0276000D01*
X0474775Y0276000D02*
X0475725Y0276000D01*
X0500783Y0276000D02*
X0517849Y0276000D01*
X0543150Y0276000D02*
X0575350Y0276000D01*
X0469810Y0279000D02*
X0464489Y0279000D01*
X0474775Y0279000D02*
X0475725Y0279000D01*
X0499650Y0279000D02*
X0517849Y0279000D01*
X0543150Y0279000D02*
X0552678Y0279000D01*
X0557322Y0279000D02*
X0575350Y0279000D01*
X0419968Y0282000D02*
X0394650Y0282000D01*
X0469940Y0282000D02*
X0474775Y0282000D01*
X0499650Y0282000D02*
X0549281Y0282000D01*
X0419968Y0285000D02*
X0394650Y0285000D01*
X0499650Y0285000D02*
X0548568Y0285000D01*
X0419968Y0288000D02*
X0394650Y0288000D01*
X0499650Y0288000D02*
X0549281Y0288000D01*
X0421817Y0291000D02*
X0420989Y0291000D01*
X0430783Y0291000D02*
X0446517Y0291000D01*
X0498998Y0291000D02*
X0517465Y0291000D01*
X0529850Y0291000D02*
X0531150Y0291000D01*
X0543535Y0291000D02*
X0552678Y0291000D01*
X0557322Y0291000D02*
X0575350Y0291000D01*
X0424817Y0294000D02*
X0422432Y0294000D01*
X0433783Y0294000D02*
X0449517Y0294000D01*
X0491419Y0294000D02*
X0491830Y0294000D01*
X0498170Y0294000D02*
X0517310Y0294000D01*
X0529850Y0294000D02*
X0531150Y0294000D01*
X0543690Y0294000D02*
X0575350Y0294000D01*
X0427817Y0297000D02*
X0422177Y0297000D01*
X0436783Y0297000D02*
X0452517Y0297000D01*
X0489483Y0297000D02*
X0490516Y0297000D01*
X0498170Y0297000D02*
X0517310Y0297000D01*
X0529850Y0297000D02*
X0531150Y0297000D01*
X0543690Y0297000D02*
X0575350Y0297000D01*
X0430817Y0300000D02*
X0420203Y0300000D01*
X0439783Y0300000D02*
X0455516Y0300000D01*
X0486483Y0300000D02*
X0487517Y0300000D01*
X0496483Y0300000D02*
X0517989Y0300000D01*
X0529850Y0300000D02*
X0531150Y0300000D01*
X0543011Y0300000D02*
X0575350Y0300000D01*
X0406370Y0303000D02*
X0394650Y0303000D01*
X0421350Y0303000D02*
X0422650Y0303000D01*
X0493483Y0303000D02*
X0532371Y0303000D01*
X0547350Y0303000D02*
X0548650Y0303000D01*
X0563629Y0303000D02*
X0575350Y0303000D01*
X0404310Y0306000D02*
X0394650Y0306000D01*
X0421350Y0306000D02*
X0422650Y0306000D01*
X0490483Y0306000D02*
X0530310Y0306000D01*
X0547350Y0306000D02*
X0548650Y0306000D01*
X0565690Y0306000D02*
X0575350Y0306000D01*
X0404310Y0309000D02*
X0394650Y0309000D01*
X0421350Y0309000D02*
X0422650Y0309000D01*
X0439690Y0309000D02*
X0530310Y0309000D01*
X0547350Y0309000D02*
X0548650Y0309000D01*
X0565690Y0309000D02*
X0575350Y0309000D01*
X0404310Y0312000D02*
X0394781Y0312000D01*
X0421350Y0312000D02*
X0422650Y0312000D01*
X0439690Y0312000D02*
X0475034Y0312000D01*
X0494221Y0312000D02*
X0530310Y0312000D01*
X0547350Y0312000D02*
X0548650Y0312000D01*
X0565690Y0312000D02*
X0575219Y0312000D01*
X0404310Y0315000D02*
X0395056Y0315000D01*
X0421350Y0315000D02*
X0422650Y0315000D01*
X0439690Y0315000D02*
X0471473Y0315000D01*
X0499069Y0315000D02*
X0530310Y0315000D01*
X0547350Y0315000D02*
X0548650Y0315000D01*
X0565690Y0315000D02*
X0574944Y0315000D01*
X0404310Y0318000D02*
X0395860Y0318000D01*
X0421350Y0318000D02*
X0422650Y0318000D01*
X0439690Y0318000D02*
X0468232Y0318000D01*
X0501248Y0318000D02*
X0530310Y0318000D01*
X0547350Y0318000D02*
X0548650Y0318000D01*
X0565690Y0318000D02*
X0574140Y0318000D01*
X0404310Y0321000D02*
X0396663Y0321000D01*
X0421350Y0321000D02*
X0422650Y0321000D01*
X0439690Y0321000D02*
X0466897Y0321000D01*
X0503427Y0321000D02*
X0530310Y0321000D01*
X0547350Y0321000D02*
X0548650Y0321000D01*
X0565690Y0321000D02*
X0573336Y0321000D01*
X0404310Y0324000D02*
X0397613Y0324000D01*
X0421350Y0324000D02*
X0422650Y0324000D01*
X0439690Y0324000D02*
X0465561Y0324000D01*
X0504375Y0324000D02*
X0530310Y0324000D01*
X0547350Y0324000D02*
X0548650Y0324000D01*
X0565690Y0324000D02*
X0572387Y0324000D01*
X0404310Y0327000D02*
X0399345Y0327000D01*
X0421350Y0327000D02*
X0422650Y0327000D01*
X0439690Y0327000D02*
X0464801Y0327000D01*
X0505012Y0327000D02*
X0530310Y0327000D01*
X0547350Y0327000D02*
X0548650Y0327000D01*
X0565690Y0327000D02*
X0570654Y0327000D01*
X0404310Y0330000D02*
X0401078Y0330000D01*
X0421350Y0330000D02*
X0422650Y0330000D01*
X0439690Y0330000D02*
X0464801Y0330000D01*
X0505650Y0330000D02*
X0530310Y0330000D01*
X0547350Y0330000D02*
X0548650Y0330000D01*
X0565690Y0330000D02*
X0568922Y0330000D01*
X0404465Y0333000D02*
X0403435Y0333000D01*
X0421350Y0333000D02*
X0422650Y0333000D01*
X0439535Y0333000D02*
X0464801Y0333000D01*
X0505012Y0333000D02*
X0530465Y0333000D01*
X0547350Y0333000D02*
X0548650Y0333000D01*
X0565535Y0333000D02*
X0566565Y0333000D01*
X0465561Y0336000D02*
X0406435Y0336000D01*
X0504375Y0336000D02*
X0563565Y0336000D01*
X0466897Y0339000D02*
X0410134Y0339000D01*
X0503427Y0339000D02*
X0559866Y0339000D01*
X0468232Y0342000D02*
X0415330Y0342000D01*
X0501248Y0342000D02*
X0554669Y0342000D01*
X0471473Y0345000D02*
X0425208Y0345000D01*
X0499069Y0345000D02*
X0544792Y0345000D01*
X0396000Y0209350D02*
X0396000Y0181476D01*
X0396000Y0220650D02*
X0396000Y0229350D01*
X0396000Y0240649D02*
X0396000Y0249350D01*
X0396000Y0260649D02*
X0396000Y0269350D01*
X0396000Y0280650D02*
X0396000Y0289350D01*
X0396000Y0300650D02*
X0396000Y0318524D01*
X0399000Y0209350D02*
X0399000Y0173598D01*
X0399000Y0220650D02*
X0399000Y0229350D01*
X0399000Y0240649D02*
X0399000Y0249350D01*
X0399000Y0260649D02*
X0399000Y0269350D01*
X0399000Y0280650D02*
X0399000Y0289350D01*
X0399000Y0300650D02*
X0399000Y0326402D01*
X0402000Y0209350D02*
X0402000Y0168435D01*
X0402000Y0220650D02*
X0402000Y0229350D01*
X0402000Y0240649D02*
X0402000Y0249350D01*
X0402000Y0260649D02*
X0402000Y0269350D01*
X0402000Y0280650D02*
X0402000Y0289350D01*
X0402000Y0300650D02*
X0402000Y0331565D01*
X0405000Y0165989D02*
X0405000Y0165435D01*
X0405000Y0180350D02*
X0405000Y0181650D01*
X0405000Y0196011D02*
X0405000Y0209350D01*
X0405000Y0220650D02*
X0405000Y0229350D01*
X0405000Y0240649D02*
X0405000Y0249350D01*
X0405000Y0260649D02*
X0405000Y0269350D01*
X0405000Y0280650D02*
X0405000Y0289350D01*
X0405000Y0300650D02*
X0405000Y0303989D01*
X0405000Y0318350D02*
X0405000Y0319650D01*
X0405000Y0334011D02*
X0405000Y0334565D01*
X0408000Y0164810D02*
X0408000Y0162435D01*
X0408000Y0180350D02*
X0408000Y0181650D01*
X0408000Y0197190D02*
X0408000Y0209350D01*
X0408000Y0220650D02*
X0408000Y0229350D01*
X0408000Y0240649D02*
X0408000Y0249350D01*
X0408000Y0260649D02*
X0408000Y0269350D01*
X0408000Y0280650D02*
X0408000Y0289350D01*
X0408000Y0300650D02*
X0408000Y0302810D01*
X0408000Y0318350D02*
X0408000Y0319650D01*
X0408000Y0335190D02*
X0408000Y0337565D01*
X0411000Y0164810D02*
X0411000Y0160500D01*
X0411000Y0180350D02*
X0411000Y0181650D01*
X0411000Y0197190D02*
X0411000Y0209350D01*
X0411000Y0220650D02*
X0411000Y0229350D01*
X0411000Y0240649D02*
X0411000Y0249350D01*
X0411000Y0260649D02*
X0411000Y0269350D01*
X0411000Y0280650D02*
X0411000Y0289350D01*
X0411000Y0300650D02*
X0411000Y0302810D01*
X0411000Y0318350D02*
X0411000Y0319650D01*
X0411000Y0335190D02*
X0411000Y0339500D01*
X0414000Y0164810D02*
X0414000Y0158768D01*
X0414000Y0180350D02*
X0414000Y0181650D01*
X0414000Y0197190D02*
X0414000Y0208224D01*
X0414000Y0221241D02*
X0414000Y0228974D01*
X0414000Y0241241D02*
X0414000Y0248973D01*
X0414000Y0261241D02*
X0414000Y0268822D01*
X0414000Y0281178D02*
X0414000Y0288974D01*
X0414000Y0301241D02*
X0414000Y0302810D01*
X0414000Y0318350D02*
X0414000Y0319650D01*
X0414000Y0335190D02*
X0414000Y0341232D01*
X0417000Y0164810D02*
X0417000Y0157199D01*
X0417000Y0180350D02*
X0417000Y0181650D01*
X0417000Y0197190D02*
X0417000Y0205224D01*
X0417000Y0221539D02*
X0417000Y0228675D01*
X0417000Y0241539D02*
X0417000Y0248675D01*
X0417000Y0261539D02*
X0417000Y0268568D01*
X0417000Y0281432D02*
X0417000Y0288675D01*
X0417000Y0301539D02*
X0417000Y0302810D01*
X0417000Y0318350D02*
X0417000Y0319650D01*
X0417000Y0335190D02*
X0417000Y0342801D01*
X0420000Y0164810D02*
X0420000Y0156396D01*
X0420000Y0180350D02*
X0420000Y0181650D01*
X0420000Y0197190D02*
X0420000Y0202224D01*
X0420000Y0209776D02*
X0420000Y0210011D01*
X0420000Y0220203D02*
X0420000Y0230011D01*
X0420000Y0240203D02*
X0420000Y0250011D01*
X0420000Y0260203D02*
X0420000Y0270011D01*
X0420000Y0289183D02*
X0420000Y0290011D01*
X0420000Y0300203D02*
X0420000Y0302810D01*
X0420000Y0318350D02*
X0420000Y0319650D01*
X0420000Y0335190D02*
X0420000Y0343604D01*
X0423000Y0164810D02*
X0423000Y0155592D01*
X0423000Y0197190D02*
X0423000Y0199224D01*
X0423000Y0206775D02*
X0423000Y0270656D01*
X0423000Y0292183D02*
X0423000Y0302810D01*
X0423000Y0318350D02*
X0423000Y0319650D01*
X0423000Y0335190D02*
X0423000Y0344407D01*
X0426000Y0164810D02*
X0426000Y0154912D01*
X0426000Y0203776D02*
X0426000Y0267656D01*
X0426000Y0295183D02*
X0426000Y0302810D01*
X0426000Y0318350D02*
X0426000Y0319650D01*
X0426000Y0335190D02*
X0426000Y0345088D01*
X0429000Y0164810D02*
X0429000Y0154716D01*
X0429000Y0204350D02*
X0429000Y0205650D01*
X0429000Y0211169D02*
X0429000Y0219350D01*
X0429000Y0230649D02*
X0429000Y0239350D01*
X0429000Y0250649D02*
X0429000Y0259350D01*
X0429000Y0298183D02*
X0429000Y0302810D01*
X0429000Y0318350D02*
X0429000Y0319650D01*
X0429000Y0335190D02*
X0429000Y0345284D01*
X0432000Y0164810D02*
X0432000Y0154650D01*
X0432000Y0204350D02*
X0432000Y0205650D01*
X0432000Y0211190D02*
X0432000Y0219350D01*
X0432000Y0230649D02*
X0432000Y0239350D01*
X0432000Y0250649D02*
X0432000Y0259350D01*
X0432000Y0290650D02*
X0432000Y0292217D01*
X0432000Y0301183D02*
X0432000Y0302810D01*
X0432000Y0318350D02*
X0432000Y0319650D01*
X0432000Y0335190D02*
X0432000Y0345349D01*
X0435000Y0164810D02*
X0435000Y0154650D01*
X0435000Y0204350D02*
X0435000Y0205650D01*
X0435000Y0211190D02*
X0435000Y0219350D01*
X0435000Y0230649D02*
X0435000Y0239350D01*
X0435000Y0250649D02*
X0435000Y0259350D01*
X0435000Y0290650D02*
X0435000Y0295217D01*
X0435000Y0318350D02*
X0435000Y0319650D01*
X0435000Y0335190D02*
X0435000Y0345349D01*
X0438000Y0165183D02*
X0438000Y0154650D01*
X0438000Y0204350D02*
X0438000Y0205650D01*
X0438000Y0211190D02*
X0438000Y0219350D01*
X0438000Y0230649D02*
X0438000Y0239350D01*
X0438000Y0250649D02*
X0438000Y0259350D01*
X0438000Y0290650D02*
X0438000Y0298217D01*
X0438000Y0318350D02*
X0438000Y0319650D01*
X0438000Y0334817D02*
X0438000Y0345349D01*
X0441000Y0171867D02*
X0441000Y0154650D01*
X0441000Y0204350D02*
X0441000Y0205650D01*
X0441000Y0211190D02*
X0441000Y0219350D01*
X0441000Y0230649D02*
X0441000Y0239350D01*
X0441000Y0250649D02*
X0441000Y0259350D01*
X0441000Y0290650D02*
X0441000Y0301130D01*
X0441000Y0307470D02*
X0441000Y0345349D01*
X0444000Y0171568D02*
X0444000Y0154650D01*
X0444000Y0204350D02*
X0444000Y0205650D01*
X0444000Y0211190D02*
X0444000Y0219350D01*
X0444000Y0230649D02*
X0444000Y0239350D01*
X0444000Y0250649D02*
X0444000Y0259350D01*
X0444000Y0290650D02*
X0444000Y0301130D01*
X0444000Y0307470D02*
X0444000Y0345349D01*
X0447000Y0165904D02*
X0447000Y0154650D01*
X0447000Y0204350D02*
X0447000Y0205650D01*
X0447000Y0211190D02*
X0447000Y0219350D01*
X0447000Y0230649D02*
X0447000Y0239350D01*
X0447000Y0250649D02*
X0447000Y0259350D01*
X0447000Y0291483D02*
X0447000Y0301130D01*
X0447000Y0307470D02*
X0447000Y0345349D01*
X0450000Y0164568D02*
X0450000Y0154650D01*
X0450000Y0204350D02*
X0450000Y0205650D01*
X0450000Y0211169D02*
X0450000Y0219350D01*
X0450000Y0230649D02*
X0450000Y0239350D01*
X0450000Y0250649D02*
X0450000Y0259350D01*
X0450000Y0294483D02*
X0450000Y0301130D01*
X0450000Y0307470D02*
X0450000Y0345349D01*
X0453000Y0164866D02*
X0453000Y0154650D01*
X0453000Y0201670D02*
X0453000Y0220363D01*
X0453000Y0235495D02*
X0453000Y0245004D01*
X0453000Y0253996D02*
X0453000Y0263504D01*
X0453000Y0297483D02*
X0453000Y0301130D01*
X0453000Y0307470D02*
X0453000Y0345349D01*
X0456000Y0166904D02*
X0456000Y0154650D01*
X0456000Y0201670D02*
X0456000Y0217363D01*
X0456000Y0300470D02*
X0456000Y0301130D01*
X0456000Y0307470D02*
X0456000Y0345349D01*
X0459000Y0175224D02*
X0459000Y0154650D01*
X0459000Y0202776D02*
X0459000Y0214363D01*
X0459000Y0224037D02*
X0459000Y0224777D01*
X0459000Y0300470D02*
X0459000Y0301130D01*
X0459000Y0307470D02*
X0459000Y0345349D01*
X0462000Y0178224D02*
X0462000Y0154650D01*
X0462000Y0205776D02*
X0462000Y0211362D01*
X0462000Y0221037D02*
X0462000Y0225850D01*
X0462000Y0273250D02*
X0462000Y0276004D01*
X0462000Y0300470D02*
X0462000Y0301130D01*
X0462000Y0307470D02*
X0462000Y0345349D01*
X0465000Y0165260D02*
X0465000Y0154650D01*
X0465000Y0174740D02*
X0465000Y0181224D01*
X0465000Y0208670D02*
X0465000Y0209780D01*
X0465000Y0218037D02*
X0465000Y0225850D01*
X0465000Y0273250D02*
X0465000Y0279616D01*
X0465000Y0300470D02*
X0465000Y0301130D01*
X0465000Y0307470D02*
X0465000Y0325259D01*
X0465000Y0334740D02*
X0465000Y0345349D01*
X0468000Y0158522D02*
X0468000Y0154650D01*
X0468000Y0181478D02*
X0468000Y0184224D01*
X0468000Y0208670D02*
X0468000Y0209780D01*
X0468000Y0216620D02*
X0468000Y0227104D01*
X0468000Y0271896D02*
X0468000Y0280450D01*
X0468000Y0300470D02*
X0468000Y0301130D01*
X0468000Y0307470D02*
X0468000Y0318522D01*
X0468000Y0341478D02*
X0468000Y0345349D01*
X0471000Y0155426D02*
X0471000Y0154650D01*
X0471000Y0184574D02*
X0471000Y0187224D01*
X0471000Y0208670D02*
X0471000Y0209780D01*
X0471000Y0218500D02*
X0471000Y0218500D01*
X0471000Y0221129D02*
X0471000Y0229001D01*
X0471000Y0264290D02*
X0471000Y0272239D01*
X0471000Y0281525D02*
X0471000Y0282475D01*
X0471000Y0300470D02*
X0471000Y0301130D01*
X0471000Y0307470D02*
X0471000Y0315426D01*
X0471000Y0344574D02*
X0471000Y0345349D01*
X0474000Y0190224D02*
X0474000Y0187276D01*
X0474000Y0208670D02*
X0474000Y0209780D01*
X0474000Y0218500D02*
X0474000Y0218500D01*
X0474000Y0253870D02*
X0474000Y0271560D01*
X0474000Y0281525D02*
X0474000Y0282475D01*
X0474000Y0300470D02*
X0474000Y0301130D01*
X0474000Y0307470D02*
X0474000Y0312724D01*
X0477000Y0191330D02*
X0477000Y0188639D01*
X0477000Y0208670D02*
X0477000Y0209780D01*
X0477000Y0218500D02*
X0477000Y0218500D01*
X0477000Y0253870D02*
X0477000Y0271560D01*
X0477000Y0300470D02*
X0477000Y0301130D01*
X0477000Y0307470D02*
X0477000Y0311361D01*
X0480000Y0191330D02*
X0480000Y0189614D01*
X0480000Y0208670D02*
X0480000Y0209780D01*
X0480000Y0218500D02*
X0480000Y0218500D01*
X0480000Y0253870D02*
X0480000Y0272100D01*
X0480000Y0300470D02*
X0480000Y0301130D01*
X0480000Y0307470D02*
X0480000Y0310386D01*
X0483000Y0191330D02*
X0483000Y0190520D01*
X0483000Y0208670D02*
X0483000Y0209780D01*
X0483000Y0253870D02*
X0483000Y0272100D01*
X0483000Y0300470D02*
X0483000Y0301130D01*
X0483000Y0307470D02*
X0483000Y0309480D01*
X0486000Y0191330D02*
X0486000Y0190204D01*
X0486000Y0208670D02*
X0486000Y0209780D01*
X0486000Y0218500D02*
X0486000Y0218500D01*
X0486000Y0251276D02*
X0486000Y0272100D01*
X0486000Y0300470D02*
X0486000Y0301130D01*
X0486000Y0307470D02*
X0486000Y0309795D01*
X0489000Y0191330D02*
X0489000Y0189890D01*
X0489000Y0208670D02*
X0489000Y0209780D01*
X0489000Y0248276D02*
X0489000Y0269117D01*
X0489000Y0297483D02*
X0489000Y0298517D01*
X0489000Y0307470D02*
X0489000Y0310110D01*
X0492000Y0191330D02*
X0492000Y0189282D01*
X0492000Y0208670D02*
X0492000Y0209780D01*
X0492000Y0247900D02*
X0492000Y0266117D01*
X0492000Y0304483D02*
X0492000Y0310718D01*
X0495000Y0190724D02*
X0495000Y0187550D01*
X0495000Y0208670D02*
X0495000Y0209780D01*
X0495000Y0247900D02*
X0495000Y0263117D01*
X0495000Y0272083D02*
X0495000Y0272100D01*
X0495000Y0301483D02*
X0495000Y0312450D01*
X0498000Y0187724D02*
X0498000Y0185818D01*
X0498000Y0208670D02*
X0498000Y0209780D01*
X0498000Y0247900D02*
X0498000Y0260116D01*
X0498000Y0269083D02*
X0498000Y0269817D01*
X0498000Y0298483D02*
X0498000Y0314182D01*
X0501000Y0157658D02*
X0501000Y0154650D01*
X0501000Y0182342D02*
X0501000Y0184724D01*
X0501000Y0208670D02*
X0501000Y0209780D01*
X0501000Y0226679D02*
X0501000Y0257117D01*
X0501000Y0266083D02*
X0501000Y0266817D01*
X0501000Y0275783D02*
X0501000Y0317658D01*
X0501000Y0342342D02*
X0501000Y0345349D01*
X0504000Y0162237D02*
X0504000Y0154650D01*
X0504000Y0177762D02*
X0504000Y0181724D01*
X0504000Y0208670D02*
X0504000Y0209780D01*
X0504000Y0222100D02*
X0504000Y0254117D01*
X0504000Y0263083D02*
X0504000Y0263817D01*
X0504000Y0272783D02*
X0504000Y0322238D01*
X0504000Y0337762D02*
X0504000Y0345349D01*
X0507000Y0178724D02*
X0507000Y0154650D01*
X0507000Y0206276D02*
X0507000Y0209780D01*
X0507000Y0220900D02*
X0507000Y0222100D01*
X0507000Y0226965D02*
X0507000Y0227817D01*
X0507000Y0260082D02*
X0507000Y0260816D01*
X0507000Y0269783D02*
X0507000Y0345349D01*
X0510000Y0175724D02*
X0510000Y0154650D01*
X0510000Y0203276D02*
X0510000Y0209780D01*
X0510000Y0216620D02*
X0510000Y0219609D01*
X0510000Y0220900D02*
X0510000Y0222100D01*
X0510000Y0223390D02*
X0510000Y0224817D01*
X0510000Y0257083D02*
X0510000Y0257817D01*
X0510000Y0266783D02*
X0510000Y0345349D01*
X0513000Y0168678D02*
X0513000Y0154650D01*
X0513000Y0204461D02*
X0513000Y0209663D01*
X0513000Y0216620D02*
X0513000Y0221817D01*
X0513000Y0254083D02*
X0513000Y0254817D01*
X0513000Y0263783D02*
X0513000Y0345349D01*
X0516000Y0165280D02*
X0516000Y0154650D01*
X0516000Y0205132D02*
X0516000Y0206663D01*
X0516000Y0216337D02*
X0516000Y0218817D01*
X0516000Y0227783D02*
X0516000Y0237017D01*
X0516000Y0260783D02*
X0516000Y0345349D01*
X0519000Y0164568D02*
X0519000Y0154650D01*
X0519000Y0204378D02*
X0519000Y0204780D01*
X0519000Y0224783D02*
X0519000Y0229752D01*
X0519000Y0260248D02*
X0519000Y0269752D01*
X0519000Y0280248D02*
X0519000Y0289183D01*
X0519000Y0294350D02*
X0519000Y0295650D01*
X0519000Y0300817D02*
X0519000Y0345349D01*
X0522000Y0165280D02*
X0522000Y0154650D01*
X0522000Y0196096D02*
X0522000Y0196619D01*
X0522000Y0200781D02*
X0522000Y0204780D01*
X0522000Y0221783D02*
X0522000Y0229350D01*
X0522000Y0240649D02*
X0522000Y0249350D01*
X0522000Y0260649D02*
X0522000Y0269350D01*
X0522000Y0280650D02*
X0522000Y0288810D01*
X0522000Y0294350D02*
X0522000Y0295650D01*
X0522000Y0301190D02*
X0522000Y0345349D01*
X0525000Y0168678D02*
X0525000Y0154650D01*
X0525000Y0198134D02*
X0525000Y0204780D01*
X0525000Y0220650D02*
X0525000Y0229350D01*
X0525000Y0240649D02*
X0525000Y0249350D01*
X0525000Y0260649D02*
X0525000Y0269350D01*
X0525000Y0280650D02*
X0525000Y0288810D01*
X0525000Y0294350D02*
X0525000Y0295650D01*
X0525000Y0301190D02*
X0525000Y0345349D01*
X0528000Y0171568D02*
X0528000Y0154650D01*
X0528000Y0198432D02*
X0528000Y0204780D01*
X0528000Y0220650D02*
X0528000Y0229350D01*
X0528000Y0240649D02*
X0528000Y0249350D01*
X0528000Y0260649D02*
X0528000Y0269350D01*
X0528000Y0280650D02*
X0528000Y0288810D01*
X0528000Y0294350D02*
X0528000Y0295650D01*
X0528000Y0301190D02*
X0528000Y0345349D01*
X0531000Y0165989D02*
X0531000Y0154650D01*
X0531000Y0197096D02*
X0531000Y0204780D01*
X0531000Y0220650D02*
X0531000Y0229350D01*
X0531000Y0240649D02*
X0531000Y0249350D01*
X0531000Y0260649D02*
X0531000Y0269350D01*
X0531000Y0280650D02*
X0531000Y0294350D01*
X0531000Y0295650D02*
X0531000Y0303989D01*
X0531000Y0318350D02*
X0531000Y0319650D01*
X0531000Y0334011D02*
X0531000Y0345349D01*
X0534000Y0164810D02*
X0534000Y0154650D01*
X0534000Y0197190D02*
X0534000Y0204780D01*
X0534000Y0220650D02*
X0534000Y0229350D01*
X0534000Y0240649D02*
X0534000Y0249350D01*
X0534000Y0260649D02*
X0534000Y0269350D01*
X0534000Y0280650D02*
X0534000Y0288810D01*
X0534000Y0294350D02*
X0534000Y0295650D01*
X0534000Y0301190D02*
X0534000Y0302810D01*
X0534000Y0318350D02*
X0534000Y0319650D01*
X0534000Y0335190D02*
X0534000Y0345349D01*
X0537000Y0164810D02*
X0537000Y0154650D01*
X0537000Y0197190D02*
X0537000Y0204780D01*
X0537000Y0220650D02*
X0537000Y0229350D01*
X0537000Y0240649D02*
X0537000Y0249350D01*
X0537000Y0260649D02*
X0537000Y0269350D01*
X0537000Y0280650D02*
X0537000Y0288810D01*
X0537000Y0294350D02*
X0537000Y0295650D01*
X0537000Y0301190D02*
X0537000Y0302810D01*
X0537000Y0318350D02*
X0537000Y0319650D01*
X0537000Y0335190D02*
X0537000Y0345349D01*
X0540000Y0164810D02*
X0540000Y0154650D01*
X0540000Y0197190D02*
X0540000Y0204780D01*
X0540000Y0220650D02*
X0540000Y0229350D01*
X0540000Y0240649D02*
X0540000Y0249350D01*
X0540000Y0260649D02*
X0540000Y0267163D01*
X0540000Y0280650D02*
X0540000Y0288810D01*
X0540000Y0294350D02*
X0540000Y0295650D01*
X0540000Y0301190D02*
X0540000Y0302810D01*
X0540000Y0318350D02*
X0540000Y0319650D01*
X0540000Y0335190D02*
X0540000Y0345349D01*
X0543000Y0164810D02*
X0543000Y0154847D01*
X0543000Y0197190D02*
X0543000Y0204780D01*
X0543000Y0219248D02*
X0543000Y0230752D01*
X0543000Y0239247D02*
X0543000Y0250752D01*
X0543000Y0259247D02*
X0543000Y0264163D01*
X0543000Y0279248D02*
X0543000Y0289989D01*
X0543000Y0294350D02*
X0543000Y0295650D01*
X0543000Y0300011D02*
X0543000Y0302810D01*
X0543000Y0318350D02*
X0543000Y0319650D01*
X0543000Y0335190D02*
X0543000Y0345152D01*
X0546000Y0164810D02*
X0546000Y0155324D01*
X0546000Y0197190D02*
X0546000Y0205763D01*
X0546000Y0270837D02*
X0546000Y0302810D01*
X0546000Y0318350D02*
X0546000Y0319650D01*
X0546000Y0335190D02*
X0546000Y0344676D01*
X0549000Y0164810D02*
X0549000Y0156128D01*
X0549000Y0180350D02*
X0549000Y0181650D01*
X0549000Y0197190D02*
X0549000Y0202678D01*
X0549000Y0207322D02*
X0549000Y0208763D01*
X0549000Y0267837D02*
X0549000Y0282678D01*
X0549000Y0287322D02*
X0549000Y0302810D01*
X0549000Y0318350D02*
X0549000Y0319650D01*
X0549000Y0335190D02*
X0549000Y0343872D01*
X0552000Y0164810D02*
X0552000Y0156931D01*
X0552000Y0180350D02*
X0552000Y0181650D01*
X0552000Y0197190D02*
X0552000Y0199281D01*
X0552000Y0210719D02*
X0552000Y0219281D01*
X0552000Y0270719D02*
X0552000Y0279281D01*
X0552000Y0290719D02*
X0552000Y0302810D01*
X0552000Y0318350D02*
X0552000Y0319650D01*
X0552000Y0335190D02*
X0552000Y0343069D01*
X0555000Y0164810D02*
X0555000Y0158191D01*
X0555000Y0180350D02*
X0555000Y0181650D01*
X0555000Y0197190D02*
X0555000Y0198568D01*
X0555000Y0211432D02*
X0555000Y0218568D01*
X0555000Y0271432D02*
X0555000Y0278568D01*
X0555000Y0291432D02*
X0555000Y0302810D01*
X0555000Y0318350D02*
X0555000Y0319650D01*
X0555000Y0335190D02*
X0555000Y0341809D01*
X0558000Y0164810D02*
X0558000Y0159923D01*
X0558000Y0180350D02*
X0558000Y0181650D01*
X0558000Y0197190D02*
X0558000Y0199281D01*
X0558000Y0210719D02*
X0558000Y0219281D01*
X0558000Y0270719D02*
X0558000Y0279281D01*
X0558000Y0290719D02*
X0558000Y0302810D01*
X0558000Y0318350D02*
X0558000Y0319650D01*
X0558000Y0335190D02*
X0558000Y0340077D01*
X0561000Y0164810D02*
X0561000Y0161655D01*
X0561000Y0180350D02*
X0561000Y0181650D01*
X0561000Y0197190D02*
X0561000Y0199350D01*
X0561000Y0210650D02*
X0561000Y0219350D01*
X0561000Y0270650D02*
X0561000Y0279350D01*
X0561000Y0290650D02*
X0561000Y0302810D01*
X0561000Y0318350D02*
X0561000Y0319650D01*
X0561000Y0335190D02*
X0561000Y0338345D01*
X0564000Y0165183D02*
X0564000Y0164435D01*
X0564000Y0180350D02*
X0564000Y0181650D01*
X0564000Y0196817D02*
X0564000Y0199350D01*
X0564000Y0210650D02*
X0564000Y0219350D01*
X0564000Y0270650D02*
X0564000Y0279350D01*
X0564000Y0290650D02*
X0564000Y0303183D01*
X0564000Y0318350D02*
X0564000Y0319650D01*
X0564000Y0334817D02*
X0564000Y0335565D01*
X0567000Y0199350D02*
X0567000Y0167435D01*
X0567000Y0210650D02*
X0567000Y0219350D01*
X0567000Y0270650D02*
X0567000Y0279350D01*
X0567000Y0290650D02*
X0567000Y0332565D01*
X0570000Y0199350D02*
X0570000Y0171866D01*
X0570000Y0210650D02*
X0570000Y0219350D01*
X0570000Y0270650D02*
X0570000Y0279350D01*
X0570000Y0290650D02*
X0570000Y0328134D01*
X0573000Y0199350D02*
X0573000Y0177744D01*
X0573000Y0210650D02*
X0573000Y0219350D01*
X0573000Y0270650D02*
X0573000Y0279350D01*
X0573000Y0290650D02*
X0573000Y0322256D01*
D18*
X0485000Y0260000D03*
X0496000Y0252000D03*
X0475000Y0270000D03*
X0402500Y0175000D03*
X0402500Y0183500D03*
X0402500Y0192000D03*
X0567500Y0183500D03*
X0567500Y0192000D03*
X0567500Y0175000D03*
X0567500Y0320000D03*
X0567500Y0310000D03*
X0545000Y0340000D03*
X0402500Y0310000D03*
X0421500Y0340000D03*
X0402500Y0320000D03*
X0466500Y0222500D03*
X0443700Y0295900D03*
X0502900Y0230799D03*
X0438500Y0214500D03*
X0447500Y0214500D03*
X0530500Y0285500D03*
X0456000Y0206000D03*
X0514000Y0295000D03*
X0522000Y0285500D03*
D19*
X0465525Y0285600D02*
X0456786Y0275079D01*
X0456786Y0268100D01*
X0456786Y0249600D01*
X0456886Y0249500D01*
X0456886Y0231000D01*
X0456986Y0230900D01*
X0456986Y0227599D01*
X0454386Y0225000D01*
X0439500Y0225000D01*
X0440500Y0224000D02*
X0454200Y0224000D01*
X0440500Y0224000D02*
X0439500Y0225000D01*
X0454200Y0224000D02*
X0465000Y0213200D01*
X0494775Y0221200D02*
X0495075Y0221500D01*
X0494750Y0221825D02*
X0494750Y0238000D01*
X0494750Y0221825D02*
X0495075Y0221500D01*
X0519300Y0208200D02*
X0543600Y0208200D01*
X0546600Y0211200D01*
X0546600Y0265400D01*
X0536700Y0275300D01*
X0530800Y0275300D01*
X0530500Y0275000D01*
X0495000Y0213200D02*
X0465000Y0213200D01*
X0495000Y0213200D02*
X0514300Y0213200D01*
X0519300Y0208200D01*
X0495075Y0213275D02*
X0495075Y0221500D01*
X0495075Y0213275D02*
X0495000Y0213200D01*
D13*
X0439500Y0265000D02*
X0433139Y0265000D01*
X0423138Y0275000D01*
X0423138Y0287839D01*
X0439600Y0304300D01*
X0487699Y0304300D01*
X0495000Y0297000D01*
X0495000Y0282250D01*
X0494750Y0282000D01*
X0494750Y0277550D01*
X0516700Y0255600D02*
X0516700Y0240799D01*
X0522500Y0235000D02*
X0530500Y0235000D01*
X0522500Y0235000D02*
X0516700Y0240799D01*
X0516700Y0255600D02*
X0494750Y0277550D01*
X0484700Y0297300D02*
X0457300Y0297300D01*
X0445000Y0285000D02*
X0439500Y0285000D01*
X0445000Y0285000D02*
X0457300Y0297300D01*
X0488250Y0293750D02*
X0488250Y0282000D01*
X0488250Y0293750D02*
X0484700Y0297300D01*
X0488250Y0282000D02*
X0488250Y0274350D01*
X0510000Y0252599D02*
X0510000Y0229300D01*
X0524300Y0215000D01*
X0530500Y0215000D01*
X0510000Y0252599D02*
X0488250Y0274350D01*
D16*
X0481750Y0282000D02*
X0481750Y0290980D01*
X0479000Y0293730D01*
X0446775Y0275000D02*
X0438000Y0275000D01*
D18*
X0438000Y0275000D03*
D16*
X0456275Y0285600D02*
X0464405Y0293730D01*
X0479000Y0293730D01*
X0456275Y0284500D02*
X0446775Y0275000D01*
X0456275Y0284500D02*
X0456275Y0285600D01*
D19*
X0415893Y0275000D02*
X0404500Y0275000D01*
D18*
X0415893Y0275000D03*
X0555000Y0225000D03*
D16*
X0565500Y0225000D01*
D18*
X0443000Y0178000D03*
X0527000Y0178000D03*
D16*
X0443032Y0177968D02*
X0443000Y0178000D01*
X0443032Y0177968D02*
X0453206Y0177968D01*
X0472238Y0197000D01*
X0497500Y0197000D01*
X0516500Y0178000D02*
X0527000Y0178000D01*
X0516500Y0178000D02*
X0497500Y0197000D01*
D19*
X0416000Y0255107D02*
X0404509Y0255009D01*
X0404500Y0255000D01*
D18*
X0416000Y0255107D03*
X0555000Y0245000D03*
D16*
X0565500Y0245000D01*
D18*
X0451000Y0185000D03*
X0519000Y0185000D03*
D16*
X0455319Y0185000D02*
X0451000Y0185000D01*
X0455319Y0185000D02*
X0470319Y0200000D01*
X0499548Y0200000D01*
X0514548Y0185000D02*
X0519000Y0185000D01*
X0514548Y0185000D02*
X0499548Y0200000D01*
D19*
X0416000Y0235107D02*
X0404509Y0235009D01*
X0404500Y0235000D01*
D18*
X0416000Y0235107D03*
X0555000Y0265000D03*
D16*
X0565500Y0265000D01*
D18*
X0443000Y0192000D03*
X0527000Y0192000D03*
D16*
X0457000Y0192000D02*
X0443000Y0192000D01*
X0457000Y0192000D02*
X0468000Y0203000D01*
X0501500Y0203000D01*
X0512500Y0192000D02*
X0527000Y0192000D01*
X0512500Y0192000D02*
X0501500Y0203000D01*
D19*
X0404509Y0215009D02*
X0404500Y0215000D01*
X0404509Y0215009D02*
X0416000Y0215107D01*
D18*
X0416000Y0215107D03*
X0555000Y0285000D03*
D16*
X0565500Y0285000D01*
X0411000Y0215000D02*
X0404500Y0215000D01*
D18*
X0515900Y0198700D03*
D16*
X0427000Y0199000D02*
X0411000Y0215000D01*
X0427000Y0199000D02*
X0459000Y0199000D01*
X0466000Y0206000D01*
X0503500Y0206000D01*
X0510800Y0198700D02*
X0515900Y0198700D01*
X0510800Y0198700D02*
X0503500Y0206000D01*
D19*
X0416000Y0295107D02*
X0404500Y0295000D01*
D18*
X0416000Y0295107D03*
X0555000Y0205000D03*
D16*
X0565500Y0205000D01*
D18*
X0451000Y0171000D03*
X0519000Y0171000D03*
D16*
X0474000Y0194000D02*
X0451000Y0171000D01*
X0474000Y0194000D02*
X0495500Y0194000D01*
X0518500Y0171000D02*
X0519000Y0171000D01*
X0518500Y0171000D02*
X0495500Y0194000D01*
M02*