G04 EAGLE Gerber RS-274X export*
G75*
%MOMM*%
%FSLAX34Y34*%
%LPD*%
%INSolder side*%
%IPPOS*%
%AMOC8*
5,1,8,0,0,$1,22.5*%
G01*
%ADD10R,0.635X1.27*%
%ADD11C,0.7564*%
%ADD12C,0.13*%
%ADD13C,0.15*%
%ADD14C,0.3*%
G36*
X0718248Y0154007D02*
X0718248Y0154007D01*
X0718300Y0154004D01*
X0718419Y0154027D01*
X0718540Y0154041D01*
X0718589Y0154058D01*
X0718640Y0154068D01*
X0718751Y0154117D01*
X0718865Y0154158D01*
X0718909Y0154187D01*
X0718956Y0154208D01*
X0719053Y0154281D01*
X0719154Y0154347D01*
X0719191Y0154385D01*
X0719232Y0154416D01*
X0719308Y0154509D01*
X0719393Y0154597D01*
X0719420Y0154642D01*
X0719453Y0154682D01*
X0719507Y0154791D01*
X0719568Y0154895D01*
X0719584Y0154945D01*
X0719607Y0154992D01*
X0719634Y0155110D01*
X0719670Y0155226D01*
X0719674Y0155278D01*
X0719686Y0155329D01*
X0719686Y0155450D01*
X0719694Y0155571D01*
X0719685Y0155622D01*
X0719685Y0155674D01*
X0719657Y0155792D01*
X0719638Y0155912D01*
X0719618Y0155960D01*
X0719606Y0156011D01*
X0719552Y0156119D01*
X0719505Y0156231D01*
X0719475Y0156273D01*
X0719451Y0156320D01*
X0719374Y0156413D01*
X0719303Y0156511D01*
X0719263Y0156546D01*
X0719230Y0156586D01*
X0719132Y0156659D01*
X0719042Y0156738D01*
X0718995Y0156762D01*
X0718954Y0156794D01*
X0718770Y0156885D01*
X0716786Y0157707D01*
X0712707Y0161786D01*
X0710498Y0167116D01*
X0710498Y0172884D01*
X0712707Y0178214D01*
X0716786Y0182292D01*
X0722116Y0184501D01*
X0727884Y0184501D01*
X0733214Y0182292D01*
X0737293Y0178214D01*
X0739501Y0172884D01*
X0739501Y0167116D01*
X0737293Y0161786D01*
X0733214Y0157707D01*
X0731230Y0156885D01*
X0731183Y0156860D01*
X0731135Y0156842D01*
X0731033Y0156776D01*
X0730928Y0156717D01*
X0730889Y0156682D01*
X0730846Y0156653D01*
X0730762Y0156565D01*
X0730673Y0156484D01*
X0730643Y0156441D01*
X0730607Y0156403D01*
X0730545Y0156298D01*
X0730477Y0156199D01*
X0730458Y0156150D01*
X0730432Y0156105D01*
X0730396Y0155989D01*
X0730353Y0155876D01*
X0730345Y0155824D01*
X0730330Y0155774D01*
X0730322Y0155653D01*
X0730305Y0155534D01*
X0730310Y0155482D01*
X0730305Y0155429D01*
X0730326Y0155310D01*
X0730337Y0155189D01*
X0730354Y0155140D01*
X0730361Y0155088D01*
X0730408Y0154976D01*
X0730447Y0154862D01*
X0730475Y0154817D01*
X0730495Y0154769D01*
X0730566Y0154671D01*
X0730629Y0154568D01*
X0730665Y0154531D01*
X0730697Y0154489D01*
X0730789Y0154409D01*
X0730874Y0154324D01*
X0730919Y0154296D01*
X0730958Y0154262D01*
X0731066Y0154205D01*
X0731168Y0154142D01*
X0731218Y0154126D01*
X0731264Y0154101D01*
X0731382Y0154071D01*
X0731495Y0154033D01*
X0731548Y0154028D01*
X0731598Y0154015D01*
X0731804Y0154001D01*
X0775000Y0154001D01*
X0775035Y0154005D01*
X0775070Y0154002D01*
X0775207Y0154025D01*
X0775343Y0154041D01*
X0775377Y0154053D01*
X0775412Y0154058D01*
X0775539Y0154111D01*
X0775669Y0154158D01*
X0775698Y0154177D01*
X0775731Y0154191D01*
X0775843Y0154272D01*
X0775958Y0154347D01*
X0775983Y0154373D01*
X0776011Y0154393D01*
X0776102Y0154497D01*
X0776197Y0154597D01*
X0776215Y0154628D01*
X0776238Y0154654D01*
X0776302Y0154777D01*
X0776372Y0154895D01*
X0776382Y0154929D01*
X0776399Y0154961D01*
X0776433Y0155094D01*
X0776474Y0155226D01*
X0776476Y0155261D01*
X0776485Y0155295D01*
X0776499Y0155500D01*
X0776499Y0165000D01*
X0776495Y0165035D01*
X0776498Y0165071D01*
X0776475Y0165207D01*
X0776459Y0165343D01*
X0776447Y0165377D01*
X0776442Y0165412D01*
X0776389Y0165539D01*
X0776341Y0165669D01*
X0776323Y0165698D01*
X0776309Y0165731D01*
X0776228Y0165843D01*
X0776153Y0165958D01*
X0776127Y0165983D01*
X0776107Y0166011D01*
X0776003Y0166102D01*
X0775903Y0166197D01*
X0775872Y0166215D01*
X0775846Y0166238D01*
X0775723Y0166301D01*
X0775605Y0166372D01*
X0775571Y0166382D01*
X0775539Y0166399D01*
X0775406Y0166433D01*
X0775274Y0166474D01*
X0775239Y0166476D01*
X0775205Y0166484D01*
X0775000Y0166499D01*
X0763298Y0166499D01*
X0763160Y0166483D01*
X0763021Y0166473D01*
X0762988Y0166463D01*
X0762955Y0166459D01*
X0762824Y0166412D01*
X0762690Y0166371D01*
X0762661Y0166353D01*
X0762630Y0166342D01*
X0762513Y0166266D01*
X0762393Y0166195D01*
X0762359Y0166164D01*
X0762340Y0166153D01*
X0762317Y0166129D01*
X0762286Y0166102D01*
X0760150Y0165217D01*
X0757850Y0165217D01*
X0755724Y0166098D01*
X0754098Y0167724D01*
X0753216Y0169850D01*
X0753216Y0172150D01*
X0753347Y0172464D01*
X0753370Y0172548D01*
X0753405Y0172629D01*
X0753418Y0172714D01*
X0753442Y0172796D01*
X0753446Y0172884D01*
X0753460Y0172971D01*
X0753454Y0173055D01*
X0753458Y0173142D01*
X0753442Y0173228D01*
X0753435Y0173314D01*
X0753409Y0173397D01*
X0753394Y0173481D01*
X0753359Y0173562D01*
X0753332Y0173646D01*
X0753289Y0173720D01*
X0753254Y0173798D01*
X0753202Y0173868D01*
X0753156Y0173943D01*
X0753062Y0174052D01*
X0753045Y0174074D01*
X0753036Y0174082D01*
X0753022Y0174098D01*
X0736499Y0190621D01*
X0736499Y0239379D01*
X0746060Y0248939D01*
X0746135Y0249035D01*
X0746150Y0249050D01*
X0746153Y0249058D01*
X0746238Y0249153D01*
X0746254Y0249183D01*
X0746275Y0249211D01*
X0746334Y0249337D01*
X0746399Y0249461D01*
X0746407Y0249493D01*
X0746422Y0249524D01*
X0746450Y0249660D01*
X0746485Y0249795D01*
X0746488Y0249840D01*
X0746493Y0249862D01*
X0746492Y0249896D01*
X0746499Y0250000D01*
X0746499Y0270000D01*
X0746483Y0270138D01*
X0746473Y0270278D01*
X0746463Y0270310D01*
X0746459Y0270343D01*
X0746412Y0270474D01*
X0746371Y0270608D01*
X0746353Y0270637D01*
X0746341Y0270669D01*
X0746266Y0270785D01*
X0746195Y0270905D01*
X0746165Y0270940D01*
X0746153Y0270958D01*
X0746129Y0270982D01*
X0746060Y0271060D01*
X0736499Y0280621D01*
X0736499Y0309379D01*
X0760621Y0333501D01*
X0775000Y0333501D01*
X0775035Y0333504D01*
X0775070Y0333502D01*
X0775207Y0333525D01*
X0775343Y0333541D01*
X0775377Y0333553D01*
X0775412Y0333558D01*
X0775539Y0333611D01*
X0775669Y0333658D01*
X0775698Y0333678D01*
X0775731Y0333691D01*
X0775843Y0333772D01*
X0775958Y0333846D01*
X0775983Y0333872D01*
X0776011Y0333893D01*
X0776102Y0333998D01*
X0776197Y0334097D01*
X0776215Y0334128D01*
X0776238Y0334154D01*
X0776302Y0334277D01*
X0776372Y0334394D01*
X0776382Y0334429D01*
X0776399Y0334461D01*
X0776433Y0334594D01*
X0776474Y0334726D01*
X0776476Y0334761D01*
X0776485Y0334795D01*
X0776499Y0335000D01*
X0776499Y0344500D01*
X0776495Y0344535D01*
X0776498Y0344570D01*
X0776475Y0344707D01*
X0776459Y0344843D01*
X0776447Y0344877D01*
X0776442Y0344912D01*
X0776389Y0345039D01*
X0776341Y0345169D01*
X0776323Y0345198D01*
X0776309Y0345231D01*
X0776228Y0345343D01*
X0776153Y0345458D01*
X0776127Y0345483D01*
X0776107Y0345511D01*
X0776003Y0345601D01*
X0775903Y0345697D01*
X0775872Y0345715D01*
X0775846Y0345738D01*
X0775723Y0345802D01*
X0775605Y0345871D01*
X0775571Y0345882D01*
X0775539Y0345899D01*
X0775406Y0345933D01*
X0775274Y0345974D01*
X0775239Y0345976D01*
X0775205Y0345985D01*
X0775000Y0345999D01*
X0731804Y0345999D01*
X0731752Y0345993D01*
X0731700Y0345995D01*
X0731581Y0345973D01*
X0731460Y0345959D01*
X0731411Y0345942D01*
X0731360Y0345931D01*
X0731249Y0345883D01*
X0731135Y0345841D01*
X0731091Y0345813D01*
X0731044Y0345792D01*
X0730947Y0345719D01*
X0730846Y0345653D01*
X0730809Y0345614D01*
X0730768Y0345584D01*
X0730690Y0345490D01*
X0730607Y0345403D01*
X0730581Y0345357D01*
X0730547Y0345318D01*
X0730493Y0345209D01*
X0730432Y0345105D01*
X0730417Y0345055D01*
X0730393Y0345008D01*
X0730365Y0344890D01*
X0730330Y0344774D01*
X0730326Y0344722D01*
X0730314Y0344671D01*
X0730314Y0344550D01*
X0730305Y0344429D01*
X0730314Y0344377D01*
X0730314Y0344326D01*
X0730343Y0344208D01*
X0730361Y0344088D01*
X0730382Y0344039D01*
X0730394Y0343989D01*
X0730449Y0343881D01*
X0730495Y0343769D01*
X0730525Y0343726D01*
X0730549Y0343679D01*
X0730626Y0343587D01*
X0730697Y0343489D01*
X0730737Y0343454D01*
X0730770Y0343414D01*
X0730867Y0343341D01*
X0730958Y0343262D01*
X0731005Y0343238D01*
X0731046Y0343206D01*
X0731230Y0343114D01*
X0733214Y0342292D01*
X0737293Y0338213D01*
X0739501Y0332883D01*
X0739501Y0327116D01*
X0737293Y0321786D01*
X0733214Y0317707D01*
X0727884Y0315499D01*
X0722116Y0315499D01*
X0716786Y0317707D01*
X0712707Y0321786D01*
X0710498Y0327116D01*
X0710498Y0332883D01*
X0712707Y0338213D01*
X0716786Y0342292D01*
X0718770Y0343114D01*
X0718816Y0343140D01*
X0718865Y0343157D01*
X0718966Y0343224D01*
X0719072Y0343283D01*
X0719111Y0343318D01*
X0719154Y0343347D01*
X0719238Y0343434D01*
X0719327Y0343516D01*
X0719357Y0343559D01*
X0719393Y0343597D01*
X0719454Y0343701D01*
X0719522Y0343801D01*
X0719542Y0343850D01*
X0719568Y0343895D01*
X0719603Y0344011D01*
X0719646Y0344124D01*
X0719655Y0344176D01*
X0719670Y0344226D01*
X0719678Y0344346D01*
X0719695Y0344466D01*
X0719689Y0344518D01*
X0719694Y0344570D01*
X0719674Y0344690D01*
X0719663Y0344811D01*
X0719646Y0344860D01*
X0719638Y0344912D01*
X0719591Y0345024D01*
X0719552Y0345138D01*
X0719525Y0345182D01*
X0719505Y0345231D01*
X0719434Y0345329D01*
X0719370Y0345432D01*
X0719333Y0345469D01*
X0719303Y0345511D01*
X0719212Y0345591D01*
X0719126Y0345676D01*
X0719081Y0345704D01*
X0719042Y0345738D01*
X0718935Y0345794D01*
X0718832Y0345858D01*
X0718781Y0345875D01*
X0718736Y0345899D01*
X0718618Y0345929D01*
X0718504Y0345967D01*
X0718452Y0345972D01*
X0718401Y0345985D01*
X0718195Y0345999D01*
X0675000Y0345999D01*
X0674965Y0345995D01*
X0674929Y0345998D01*
X0674793Y0345974D01*
X0674657Y0345959D01*
X0674623Y0345947D01*
X0674588Y0345942D01*
X0674461Y0345888D01*
X0674331Y0345841D01*
X0674302Y0345823D01*
X0674269Y0345809D01*
X0674157Y0345728D01*
X0674042Y0345653D01*
X0674017Y0345627D01*
X0673989Y0345607D01*
X0673897Y0345503D01*
X0673803Y0345403D01*
X0673785Y0345372D01*
X0673762Y0345346D01*
X0673698Y0345223D01*
X0673627Y0345105D01*
X0673618Y0345071D01*
X0673601Y0345039D01*
X0673567Y0344906D01*
X0673526Y0344774D01*
X0673524Y0344739D01*
X0673515Y0344705D01*
X0673501Y0344500D01*
X0673501Y0335000D01*
X0673505Y0334965D01*
X0673502Y0334929D01*
X0673525Y0334792D01*
X0673541Y0334657D01*
X0673553Y0334623D01*
X0673558Y0334587D01*
X0673610Y0334461D01*
X0673658Y0334330D01*
X0673678Y0334302D01*
X0673691Y0334269D01*
X0673772Y0334157D01*
X0673847Y0334042D01*
X0673873Y0334017D01*
X0673893Y0333989D01*
X0673998Y0333898D01*
X0674097Y0333803D01*
X0674128Y0333785D01*
X0674154Y0333762D01*
X0674277Y0333698D01*
X0674395Y0333628D01*
X0674429Y0333618D01*
X0674461Y0333601D01*
X0674594Y0333567D01*
X0674726Y0333525D01*
X0674761Y0333524D01*
X0674795Y0333515D01*
X0675000Y0333501D01*
X0689379Y0333501D01*
X0713501Y0309379D01*
X0713501Y0280621D01*
X0703940Y0271060D01*
X0703854Y0270951D01*
X0703762Y0270846D01*
X0703746Y0270816D01*
X0703725Y0270789D01*
X0703666Y0270663D01*
X0703601Y0270539D01*
X0703593Y0270507D01*
X0703578Y0270476D01*
X0703550Y0270340D01*
X0703515Y0270205D01*
X0703512Y0270160D01*
X0703507Y0270138D01*
X0703507Y0270104D01*
X0703501Y0270000D01*
X0703501Y0250000D01*
X0703516Y0249862D01*
X0703527Y0249722D01*
X0703537Y0249690D01*
X0703541Y0249656D01*
X0703588Y0249526D01*
X0703629Y0249392D01*
X0703647Y0249363D01*
X0703658Y0249331D01*
X0703734Y0249215D01*
X0703805Y0249095D01*
X0703835Y0249060D01*
X0703847Y0249042D01*
X0703871Y0249018D01*
X0703940Y0248939D01*
X0713501Y0239379D01*
X0713501Y0190630D01*
X0696887Y0174355D01*
X0696827Y0174281D01*
X0696760Y0174213D01*
X0696718Y0174147D01*
X0696669Y0174086D01*
X0696628Y0174001D01*
X0696578Y0173919D01*
X0696553Y0173845D01*
X0696519Y0173775D01*
X0696499Y0173682D01*
X0696468Y0173592D01*
X0696461Y0173513D01*
X0696444Y0173436D01*
X0696446Y0173342D01*
X0696437Y0173247D01*
X0696448Y0173170D01*
X0696449Y0173092D01*
X0696472Y0172999D01*
X0696485Y0172905D01*
X0696525Y0172787D01*
X0696533Y0172756D01*
X0696540Y0172741D01*
X0696551Y0172710D01*
X0696783Y0172150D01*
X0696783Y0169850D01*
X0695902Y0167724D01*
X0694276Y0166098D01*
X0692150Y0165217D01*
X0689850Y0165217D01*
X0687704Y0166106D01*
X0687653Y0166147D01*
X0687547Y0166238D01*
X0687517Y0166254D01*
X0687491Y0166275D01*
X0687365Y0166334D01*
X0687240Y0166399D01*
X0687208Y0166407D01*
X0687178Y0166422D01*
X0687042Y0166450D01*
X0686906Y0166484D01*
X0686862Y0166488D01*
X0686840Y0166493D01*
X0686806Y0166492D01*
X0686701Y0166499D01*
X0675000Y0166499D01*
X0674965Y0166495D01*
X0674929Y0166498D01*
X0674793Y0166475D01*
X0674657Y0166459D01*
X0674623Y0166447D01*
X0674588Y0166442D01*
X0674461Y0166389D01*
X0674331Y0166342D01*
X0674302Y0166323D01*
X0674269Y0166309D01*
X0674157Y0166228D01*
X0674042Y0166153D01*
X0674017Y0166127D01*
X0673989Y0166107D01*
X0673897Y0166003D01*
X0673803Y0165903D01*
X0673785Y0165872D01*
X0673762Y0165846D01*
X0673698Y0165722D01*
X0673627Y0165605D01*
X0673618Y0165570D01*
X0673601Y0165539D01*
X0673567Y0165406D01*
X0673526Y0165274D01*
X0673524Y0165239D01*
X0673515Y0165204D01*
X0673501Y0165000D01*
X0673501Y0155500D01*
X0673505Y0155465D01*
X0673502Y0155429D01*
X0673525Y0155293D01*
X0673541Y0155157D01*
X0673553Y0155123D01*
X0673558Y0155088D01*
X0673610Y0154961D01*
X0673658Y0154831D01*
X0673678Y0154802D01*
X0673691Y0154769D01*
X0673772Y0154657D01*
X0673847Y0154542D01*
X0673873Y0154517D01*
X0673893Y0154489D01*
X0673998Y0154398D01*
X0674097Y0154303D01*
X0674128Y0154285D01*
X0674154Y0154262D01*
X0674277Y0154198D01*
X0674395Y0154128D01*
X0674429Y0154118D01*
X0674461Y0154101D01*
X0674594Y0154067D01*
X0674726Y0154026D01*
X0674761Y0154024D01*
X0674795Y0154015D01*
X0675000Y0154001D01*
X0718195Y0154001D01*
X0718248Y0154007D01*
G37*
D10*
X0656936Y0295000D03*
X0665064Y0295000D03*
X0656936Y0275000D03*
X0665064Y0275000D03*
X0656936Y0255000D03*
X0665064Y0255000D03*
X0656936Y0235000D03*
X0665064Y0235000D03*
X0656936Y0215000D03*
X0665064Y0215000D03*
D11*
X0725000Y0260000D03*
X0736000Y0252000D03*
X0715000Y0270000D03*
D12*
X0648480Y0161955D02*
X0656472Y0157341D01*
X0648480Y0161955D02*
X0641955Y0168480D01*
X0637341Y0176472D01*
X0634952Y0185386D01*
X0634650Y0190000D01*
X0634650Y0310000D01*
X0634952Y0314614D01*
X0637341Y0323528D01*
X0641955Y0331520D01*
X0648480Y0338045D01*
X0656472Y0342659D01*
X0665386Y0345048D01*
X0670000Y0345349D01*
X0780000Y0345349D01*
X0784614Y0345048D01*
X0793528Y0342659D01*
X0801520Y0338045D01*
X0808045Y0331520D01*
X0812659Y0323528D01*
X0815048Y0314614D01*
X0815350Y0310000D01*
X0815350Y0190000D01*
X0815048Y0185386D01*
X0812659Y0176472D01*
X0808045Y0168480D01*
X0801520Y0161955D01*
X0793528Y0157341D01*
X0784614Y0154952D01*
X0780000Y0154650D01*
X0670000Y0154650D01*
X0665386Y0154952D01*
X0656472Y0157341D01*
X0801432Y0283721D02*
X0801432Y0286279D01*
X0800453Y0288643D01*
X0798643Y0290453D01*
X0796279Y0291432D01*
X0793721Y0291432D01*
X0791357Y0290453D01*
X0789547Y0288643D01*
X0788567Y0286279D01*
X0788567Y0283721D01*
X0788828Y0283093D01*
X0778216Y0273675D01*
X0778124Y0273675D01*
X0777398Y0272949D01*
X0776631Y0272268D01*
X0776625Y0272176D01*
X0776560Y0272111D01*
X0776560Y0271084D01*
X0776499Y0270060D01*
X0776560Y0269991D01*
X0776560Y0208336D01*
X0769594Y0201370D01*
X0761756Y0201370D01*
X0761353Y0202343D01*
X0759543Y0204153D01*
X0757179Y0205132D01*
X0754620Y0205132D01*
X0752257Y0204153D01*
X0750447Y0202343D01*
X0749468Y0199979D01*
X0749468Y0197421D01*
X0750447Y0195057D01*
X0752257Y0193247D01*
X0754620Y0192268D01*
X0757179Y0192268D01*
X0759543Y0193247D01*
X0761270Y0194974D01*
X0760568Y0193279D01*
X0760568Y0191312D01*
X0760279Y0191432D01*
X0757721Y0191432D01*
X0755357Y0190453D01*
X0753546Y0188643D01*
X0752568Y0186279D01*
X0752568Y0183721D01*
X0753546Y0181357D01*
X0755357Y0179547D01*
X0757721Y0178568D01*
X0760279Y0178568D01*
X0760568Y0178688D01*
X0760568Y0177312D01*
X0760279Y0177432D01*
X0757721Y0177432D01*
X0755357Y0176453D01*
X0753546Y0174643D01*
X0752568Y0172278D01*
X0752568Y0169721D01*
X0753546Y0167357D01*
X0755357Y0165547D01*
X0757721Y0164568D01*
X0760279Y0164568D01*
X0762643Y0165547D01*
X0764453Y0167357D01*
X0764856Y0168329D01*
X0772106Y0168329D01*
X0796106Y0192330D01*
X0797670Y0193894D01*
X0797670Y0199144D01*
X0798643Y0199547D01*
X0800453Y0201357D01*
X0801432Y0203721D01*
X0801432Y0206279D01*
X0800453Y0208643D01*
X0798643Y0210453D01*
X0796279Y0211432D01*
X0793721Y0211432D01*
X0791357Y0210453D01*
X0790670Y0209766D01*
X0790670Y0219894D01*
X0790840Y0220064D01*
X0791357Y0219547D01*
X0793721Y0218568D01*
X0796279Y0218568D01*
X0798643Y0219547D01*
X0800453Y0221357D01*
X0801432Y0223721D01*
X0801432Y0226279D01*
X0800453Y0228643D01*
X0798643Y0230452D01*
X0796279Y0231432D01*
X0793721Y0231432D01*
X0791357Y0230452D01*
X0789547Y0228643D01*
X0788567Y0226279D01*
X0788567Y0225343D01*
X0787670Y0224446D01*
X0787670Y0235416D01*
X0792205Y0239196D01*
X0793721Y0238568D01*
X0796279Y0238568D01*
X0798643Y0239547D01*
X0800453Y0241357D01*
X0801432Y0243721D01*
X0801432Y0246279D01*
X0800453Y0248643D01*
X0798643Y0250452D01*
X0796279Y0251432D01*
X0793721Y0251432D01*
X0791357Y0250452D01*
X0789547Y0248643D01*
X0788567Y0246279D01*
X0788567Y0243721D01*
X0788754Y0243271D01*
X0784900Y0240059D01*
X0784900Y0252738D01*
X0792316Y0259150D01*
X0793721Y0258568D01*
X0796279Y0258568D01*
X0798643Y0259547D01*
X0800453Y0261357D01*
X0801432Y0263721D01*
X0801432Y0266279D01*
X0800453Y0268643D01*
X0798643Y0270453D01*
X0796279Y0271432D01*
X0793721Y0271432D01*
X0791357Y0270453D01*
X0789547Y0268643D01*
X0788567Y0266279D01*
X0788567Y0263721D01*
X0788797Y0263167D01*
X0781900Y0257203D01*
X0781900Y0269805D01*
X0792394Y0279118D01*
X0793721Y0278568D01*
X0796279Y0278568D01*
X0798643Y0279547D01*
X0800453Y0281357D01*
X0801432Y0283721D01*
X0684432Y0276279D02*
X0684432Y0273721D01*
X0684432Y0276279D02*
X0683453Y0278643D01*
X0681643Y0280453D01*
X0679278Y0281432D01*
X0676721Y0281432D01*
X0674357Y0280453D01*
X0672547Y0278643D01*
X0672144Y0277670D01*
X0670889Y0277670D01*
X0670889Y0282448D01*
X0669337Y0284000D01*
X0667734Y0284000D01*
X0667734Y0286000D01*
X0669337Y0286000D01*
X0670889Y0287552D01*
X0670889Y0302448D01*
X0669337Y0304000D01*
X0652663Y0304000D01*
X0651110Y0302448D01*
X0651110Y0299314D01*
X0650547Y0298750D01*
X0649568Y0296386D01*
X0649568Y0293828D01*
X0650547Y0291464D01*
X0651110Y0290900D01*
X0651110Y0289951D01*
X0639644Y0278484D01*
X0638080Y0276920D01*
X0638080Y0204452D01*
X0639644Y0202888D01*
X0639644Y0202888D01*
X0672638Y0169894D01*
X0672638Y0169894D01*
X0674201Y0168329D01*
X0685144Y0168329D01*
X0685547Y0167357D01*
X0687357Y0165547D01*
X0689721Y0164568D01*
X0692279Y0164568D01*
X0694643Y0165547D01*
X0696453Y0167357D01*
X0697432Y0169721D01*
X0697432Y0172278D01*
X0696453Y0174643D01*
X0694643Y0176453D01*
X0692279Y0177432D01*
X0689721Y0177432D01*
X0689432Y0177312D01*
X0689432Y0178688D01*
X0689721Y0178568D01*
X0692279Y0178568D01*
X0694643Y0179547D01*
X0696453Y0181357D01*
X0697432Y0183721D01*
X0697432Y0186279D01*
X0696453Y0188643D01*
X0694643Y0190453D01*
X0692279Y0191432D01*
X0689721Y0191432D01*
X0689432Y0191312D01*
X0689432Y0193279D01*
X0688453Y0195643D01*
X0686643Y0197453D01*
X0684278Y0198432D01*
X0681721Y0198432D01*
X0679357Y0197453D01*
X0677547Y0195643D01*
X0677144Y0194670D01*
X0667166Y0194670D01*
X0655836Y0206000D01*
X0669337Y0206000D01*
X0670889Y0207552D01*
X0670889Y0222447D01*
X0669337Y0224000D01*
X0667734Y0224000D01*
X0667734Y0226000D01*
X0669337Y0226000D01*
X0670889Y0227552D01*
X0670889Y0242447D01*
X0669337Y0244000D01*
X0667734Y0244000D01*
X0667734Y0246000D01*
X0669337Y0246000D01*
X0670889Y0247552D01*
X0670889Y0262448D01*
X0669337Y0264000D01*
X0667734Y0264000D01*
X0667734Y0266000D01*
X0669337Y0266000D01*
X0670889Y0267552D01*
X0670889Y0272330D01*
X0672144Y0272330D01*
X0672547Y0271357D01*
X0674357Y0269547D01*
X0676721Y0268568D01*
X0679278Y0268568D01*
X0681643Y0269547D01*
X0683453Y0271357D01*
X0684432Y0273721D01*
X0740150Y0326986D02*
X0740150Y0333014D01*
X0737844Y0338581D01*
X0733582Y0342844D01*
X0728014Y0345150D01*
X0721986Y0345150D01*
X0716418Y0342844D01*
X0712156Y0338581D01*
X0709850Y0333014D01*
X0709850Y0326986D01*
X0712156Y0321418D01*
X0716418Y0317156D01*
X0721986Y0314850D01*
X0728014Y0314850D01*
X0733582Y0317156D01*
X0737844Y0321418D01*
X0740150Y0326986D01*
X0740150Y0173014D02*
X0740150Y0166986D01*
X0740150Y0173014D02*
X0737844Y0178582D01*
X0733582Y0182844D01*
X0728014Y0185150D01*
X0721986Y0185150D01*
X0716418Y0182844D01*
X0712156Y0178582D01*
X0709850Y0173014D01*
X0709850Y0166986D01*
X0712156Y0161418D01*
X0716418Y0157156D01*
X0721986Y0154850D01*
X0728014Y0154850D01*
X0733582Y0157156D01*
X0737844Y0161418D01*
X0740150Y0166986D01*
X0716795Y0157000D02*
X0657744Y0157000D01*
X0733204Y0157000D02*
X0792256Y0157000D01*
X0713075Y0160500D02*
X0651000Y0160500D01*
X0736925Y0160500D02*
X0799000Y0160500D01*
X0711087Y0164000D02*
X0646435Y0164000D01*
X0738913Y0164000D02*
X0803565Y0164000D01*
X0685488Y0167500D02*
X0642935Y0167500D01*
X0696512Y0167500D02*
X0709850Y0167500D01*
X0740150Y0167500D02*
X0753488Y0167500D01*
X0764512Y0167500D02*
X0807065Y0167500D01*
X0671532Y0171000D02*
X0640500Y0171000D01*
X0697432Y0171000D02*
X0709850Y0171000D01*
X0740150Y0171000D02*
X0752568Y0171000D01*
X0774776Y0171000D02*
X0809500Y0171000D01*
X0668032Y0174500D02*
X0638479Y0174500D01*
X0696512Y0174500D02*
X0710466Y0174500D01*
X0739534Y0174500D02*
X0753488Y0174500D01*
X0778276Y0174500D02*
X0811521Y0174500D01*
X0664532Y0178000D02*
X0636931Y0178000D01*
X0689432Y0178000D02*
X0711915Y0178000D01*
X0738085Y0178000D02*
X0760568Y0178000D01*
X0781776Y0178000D02*
X0813069Y0178000D01*
X0661032Y0181500D02*
X0635994Y0181500D01*
X0696512Y0181500D02*
X0715074Y0181500D01*
X0734925Y0181500D02*
X0753488Y0181500D01*
X0785276Y0181500D02*
X0814006Y0181500D01*
X0657532Y0185000D02*
X0635056Y0185000D01*
X0697432Y0185000D02*
X0721624Y0185000D01*
X0728376Y0185000D02*
X0752568Y0185000D01*
X0788776Y0185000D02*
X0814944Y0185000D01*
X0654032Y0188500D02*
X0634748Y0188500D01*
X0696512Y0188500D02*
X0753488Y0188500D01*
X0792276Y0188500D02*
X0815252Y0188500D01*
X0650532Y0192000D02*
X0634650Y0192000D01*
X0689432Y0192000D02*
X0760568Y0192000D01*
X0795776Y0192000D02*
X0815350Y0192000D01*
X0647032Y0195500D02*
X0634650Y0195500D01*
X0666336Y0195500D02*
X0677488Y0195500D01*
X0688512Y0195500D02*
X0750264Y0195500D01*
X0797670Y0195500D02*
X0815350Y0195500D01*
X0643532Y0199000D02*
X0634650Y0199000D01*
X0662836Y0199000D02*
X0749468Y0199000D01*
X0797670Y0199000D02*
X0815350Y0199000D01*
X0640032Y0202500D02*
X0634650Y0202500D01*
X0659336Y0202500D02*
X0750604Y0202500D01*
X0761196Y0202500D02*
X0770724Y0202500D01*
X0800926Y0202500D02*
X0815350Y0202500D01*
X0638080Y0206000D02*
X0634650Y0206000D01*
X0669337Y0206000D02*
X0774224Y0206000D01*
X0801432Y0206000D02*
X0815350Y0206000D01*
X0638080Y0209500D02*
X0634650Y0209500D01*
X0670889Y0209500D02*
X0776560Y0209500D01*
X0799596Y0209500D02*
X0815350Y0209500D01*
X0638080Y0213000D02*
X0634650Y0213000D01*
X0670889Y0213000D02*
X0776560Y0213000D01*
X0790670Y0213000D02*
X0815350Y0213000D01*
X0638080Y0216500D02*
X0634650Y0216500D01*
X0670889Y0216500D02*
X0776560Y0216500D01*
X0790670Y0216500D02*
X0815350Y0216500D01*
X0638080Y0220000D02*
X0634650Y0220000D01*
X0670889Y0220000D02*
X0776560Y0220000D01*
X0790776Y0220000D02*
X0790904Y0220000D01*
X0799096Y0220000D02*
X0815350Y0220000D01*
X0638080Y0223500D02*
X0634650Y0223500D01*
X0669837Y0223500D02*
X0776560Y0223500D01*
X0801341Y0223500D02*
X0815350Y0223500D01*
X0638080Y0227000D02*
X0634650Y0227000D01*
X0670337Y0227000D02*
X0776560Y0227000D01*
X0787670Y0227000D02*
X0788867Y0227000D01*
X0801134Y0227000D02*
X0815350Y0227000D01*
X0638080Y0230500D02*
X0634650Y0230500D01*
X0670889Y0230500D02*
X0776560Y0230500D01*
X0787670Y0230500D02*
X0791471Y0230500D01*
X0798529Y0230500D02*
X0815350Y0230500D01*
X0638080Y0234000D02*
X0634650Y0234000D01*
X0670889Y0234000D02*
X0776560Y0234000D01*
X0787670Y0234000D02*
X0815350Y0234000D01*
X0638080Y0237500D02*
X0634650Y0237500D01*
X0670889Y0237500D02*
X0776560Y0237500D01*
X0790171Y0237500D02*
X0815350Y0237500D01*
X0638080Y0241000D02*
X0634650Y0241000D01*
X0670889Y0241000D02*
X0776560Y0241000D01*
X0784900Y0241000D02*
X0786029Y0241000D01*
X0800096Y0241000D02*
X0815350Y0241000D01*
X0638080Y0244500D02*
X0634650Y0244500D01*
X0667734Y0244500D02*
X0776560Y0244500D01*
X0784900Y0244500D02*
X0788567Y0244500D01*
X0801432Y0244500D02*
X0815350Y0244500D01*
X0638080Y0248000D02*
X0634650Y0248000D01*
X0670889Y0248000D02*
X0776560Y0248000D01*
X0784900Y0248000D02*
X0789281Y0248000D01*
X0800719Y0248000D02*
X0815350Y0248000D01*
X0638080Y0251500D02*
X0634650Y0251500D01*
X0670889Y0251500D02*
X0776560Y0251500D01*
X0784900Y0251500D02*
X0815350Y0251500D01*
X0638080Y0255000D02*
X0634650Y0255000D01*
X0670889Y0255000D02*
X0776560Y0255000D01*
X0787516Y0255000D02*
X0815350Y0255000D01*
X0638080Y0258500D02*
X0634650Y0258500D01*
X0670889Y0258500D02*
X0776560Y0258500D01*
X0781900Y0258500D02*
X0783400Y0258500D01*
X0791564Y0258500D02*
X0815350Y0258500D01*
X0638080Y0262000D02*
X0634650Y0262000D01*
X0670889Y0262000D02*
X0776560Y0262000D01*
X0781900Y0262000D02*
X0787448Y0262000D01*
X0800719Y0262000D02*
X0815350Y0262000D01*
X0638080Y0265500D02*
X0634650Y0265500D01*
X0667734Y0265500D02*
X0776560Y0265500D01*
X0781900Y0265500D02*
X0788567Y0265500D01*
X0801432Y0265500D02*
X0815350Y0265500D01*
X0638080Y0269000D02*
X0634650Y0269000D01*
X0670889Y0269000D02*
X0675678Y0269000D01*
X0680322Y0269000D02*
X0776560Y0269000D01*
X0781900Y0269000D02*
X0789903Y0269000D01*
X0800096Y0269000D02*
X0815350Y0269000D01*
X0638080Y0272500D02*
X0634650Y0272500D01*
X0683926Y0272500D02*
X0776892Y0272500D01*
X0784937Y0272500D02*
X0815350Y0272500D01*
X0638080Y0276000D02*
X0634650Y0276000D01*
X0684432Y0276000D02*
X0780836Y0276000D01*
X0788881Y0276000D02*
X0815350Y0276000D01*
X0640660Y0279500D02*
X0634650Y0279500D01*
X0670889Y0279500D02*
X0673404Y0279500D01*
X0682596Y0279500D02*
X0784780Y0279500D01*
X0798529Y0279500D02*
X0815350Y0279500D01*
X0644160Y0283000D02*
X0634650Y0283000D01*
X0670337Y0283000D02*
X0788724Y0283000D01*
X0801133Y0283000D02*
X0815350Y0283000D01*
X0647660Y0286500D02*
X0634650Y0286500D01*
X0669837Y0286500D02*
X0788659Y0286500D01*
X0801341Y0286500D02*
X0815350Y0286500D01*
X0651110Y0290000D02*
X0634650Y0290000D01*
X0670889Y0290000D02*
X0790904Y0290000D01*
X0799096Y0290000D02*
X0815350Y0290000D01*
X0649704Y0293500D02*
X0634650Y0293500D01*
X0670889Y0293500D02*
X0815350Y0293500D01*
X0649822Y0297000D02*
X0634650Y0297000D01*
X0670889Y0297000D02*
X0815350Y0297000D01*
X0651110Y0300500D02*
X0634650Y0300500D01*
X0670889Y0300500D02*
X0815350Y0300500D01*
X0815350Y0304000D02*
X0634650Y0304000D01*
X0634650Y0307500D02*
X0815350Y0307500D01*
X0815284Y0311000D02*
X0634716Y0311000D01*
X0634945Y0314500D02*
X0815055Y0314500D01*
X0715575Y0318000D02*
X0635860Y0318000D01*
X0734425Y0318000D02*
X0814140Y0318000D01*
X0712123Y0321500D02*
X0636797Y0321500D01*
X0737877Y0321500D02*
X0813202Y0321500D01*
X0710673Y0325000D02*
X0638191Y0325000D01*
X0739327Y0325000D02*
X0811809Y0325000D01*
X0709850Y0328500D02*
X0640211Y0328500D01*
X0740150Y0328500D02*
X0809788Y0328500D01*
X0709850Y0332000D02*
X0642435Y0332000D01*
X0740150Y0332000D02*
X0807565Y0332000D01*
X0710879Y0335500D02*
X0645935Y0335500D01*
X0739120Y0335500D02*
X0804064Y0335500D01*
X0712574Y0339000D02*
X0650134Y0339000D01*
X0737425Y0339000D02*
X0799866Y0339000D01*
X0716075Y0342500D02*
X0656197Y0342500D01*
X0733925Y0342500D02*
X0793803Y0342500D01*
X0637000Y0322256D02*
X0637000Y0177744D01*
X0640500Y0171000D02*
X0640500Y0202032D01*
X0640500Y0279340D02*
X0640500Y0329000D01*
X0644000Y0198532D02*
X0644000Y0166435D01*
X0644000Y0282840D02*
X0644000Y0333564D01*
X0647500Y0195032D02*
X0647500Y0162935D01*
X0647500Y0286340D02*
X0647500Y0337065D01*
X0651000Y0191531D02*
X0651000Y0160500D01*
X0651000Y0289840D02*
X0651000Y0291011D01*
X0651000Y0299203D02*
X0651000Y0339500D01*
X0654500Y0188032D02*
X0654500Y0158479D01*
X0654500Y0304000D02*
X0654500Y0341521D01*
X0658000Y0184532D02*
X0658000Y0156931D01*
X0658000Y0203836D02*
X0658000Y0206000D01*
X0658000Y0304000D02*
X0658000Y0343069D01*
X0661500Y0181032D02*
X0661500Y0155994D01*
X0661500Y0200336D02*
X0661500Y0206000D01*
X0661500Y0304000D02*
X0661500Y0344006D01*
X0665000Y0177532D02*
X0665000Y0155056D01*
X0665000Y0196835D02*
X0665000Y0206000D01*
X0665000Y0304000D02*
X0665000Y0344944D01*
X0668500Y0174031D02*
X0668500Y0154748D01*
X0668500Y0194670D02*
X0668500Y0206000D01*
X0668500Y0224000D02*
X0668500Y0226000D01*
X0668500Y0244000D02*
X0668500Y0246000D01*
X0668500Y0264000D02*
X0668500Y0266000D01*
X0668500Y0284000D02*
X0668500Y0286000D01*
X0668500Y0304000D02*
X0668500Y0345252D01*
X0672000Y0170532D02*
X0672000Y0154650D01*
X0672000Y0194670D02*
X0672000Y0272330D01*
X0672000Y0277670D02*
X0672000Y0345349D01*
X0675500Y0168329D02*
X0675500Y0154650D01*
X0675500Y0194670D02*
X0675500Y0269074D01*
X0675500Y0280926D02*
X0675500Y0345349D01*
X0679000Y0168329D02*
X0679000Y0154650D01*
X0679000Y0197096D02*
X0679000Y0268568D01*
X0679000Y0281432D02*
X0679000Y0345349D01*
X0682500Y0168329D02*
X0682500Y0154650D01*
X0682500Y0198432D02*
X0682500Y0270404D01*
X0682500Y0279596D02*
X0682500Y0345349D01*
X0686000Y0166904D02*
X0686000Y0154650D01*
X0686000Y0197719D02*
X0686000Y0345349D01*
X0689500Y0164659D02*
X0689500Y0154650D01*
X0689500Y0177341D02*
X0689500Y0178659D01*
X0689500Y0191341D02*
X0689500Y0345349D01*
X0693000Y0164866D02*
X0693000Y0154650D01*
X0693000Y0177133D02*
X0693000Y0178866D01*
X0693000Y0191133D02*
X0693000Y0345349D01*
X0696500Y0167471D02*
X0696500Y0154650D01*
X0696500Y0174529D02*
X0696500Y0181471D01*
X0696500Y0188528D02*
X0696500Y0345349D01*
X0700000Y0345349D02*
X0700000Y0154650D01*
X0703500Y0154650D02*
X0703500Y0345349D01*
X0707000Y0345349D02*
X0707000Y0154650D01*
X0710500Y0154650D02*
X0710500Y0165417D01*
X0710500Y0174583D02*
X0710500Y0325417D01*
X0710500Y0334583D02*
X0710500Y0345349D01*
X0714000Y0159575D02*
X0714000Y0154650D01*
X0714000Y0180425D02*
X0714000Y0319575D01*
X0714000Y0340425D02*
X0714000Y0345349D01*
X0717500Y0156708D02*
X0717500Y0154650D01*
X0717500Y0183292D02*
X0717500Y0316708D01*
X0717500Y0343292D02*
X0717500Y0345349D01*
X0721000Y0155259D02*
X0721000Y0154650D01*
X0721000Y0184741D02*
X0721000Y0315259D01*
X0721000Y0344741D02*
X0721000Y0345349D01*
X0724500Y0154850D02*
X0724500Y0154650D01*
X0724500Y0185150D02*
X0724500Y0314850D01*
X0724500Y0345150D02*
X0724500Y0345349D01*
X0728000Y0154850D02*
X0728000Y0154650D01*
X0728000Y0185150D02*
X0728000Y0314850D01*
X0728000Y0345150D02*
X0728000Y0345349D01*
X0731500Y0156294D02*
X0731500Y0154650D01*
X0731500Y0183706D02*
X0731500Y0316294D01*
X0731500Y0343705D02*
X0731500Y0345349D01*
X0735000Y0158575D02*
X0735000Y0154650D01*
X0735000Y0181424D02*
X0735000Y0318575D01*
X0735000Y0341425D02*
X0735000Y0345349D01*
X0738500Y0163003D02*
X0738500Y0154650D01*
X0738500Y0176997D02*
X0738500Y0323003D01*
X0738500Y0336997D02*
X0738500Y0345349D01*
X0742000Y0345349D02*
X0742000Y0154650D01*
X0745500Y0154650D02*
X0745500Y0345349D01*
X0749000Y0345349D02*
X0749000Y0154650D01*
X0752500Y0154650D02*
X0752500Y0193146D01*
X0752500Y0204254D02*
X0752500Y0345349D01*
X0756000Y0165280D02*
X0756000Y0154650D01*
X0756000Y0176719D02*
X0756000Y0179281D01*
X0756000Y0190719D02*
X0756000Y0192268D01*
X0756000Y0205132D02*
X0756000Y0345349D01*
X0759500Y0164568D02*
X0759500Y0154650D01*
X0759500Y0177432D02*
X0759500Y0178568D01*
X0759500Y0191432D02*
X0759500Y0193229D01*
X0759500Y0204170D02*
X0759500Y0345349D01*
X0763000Y0165904D02*
X0763000Y0154650D01*
X0763000Y0201370D02*
X0763000Y0345349D01*
X0766500Y0168329D02*
X0766500Y0154650D01*
X0766500Y0201370D02*
X0766500Y0345349D01*
X0770000Y0168329D02*
X0770000Y0154650D01*
X0770000Y0201775D02*
X0770000Y0345349D01*
X0773500Y0169724D02*
X0773500Y0154650D01*
X0773500Y0205276D02*
X0773500Y0345349D01*
X0777000Y0173224D02*
X0777000Y0154650D01*
X0777000Y0272596D02*
X0777000Y0345349D01*
X0780500Y0176724D02*
X0780500Y0154683D01*
X0780500Y0275702D02*
X0780500Y0345317D01*
X0784000Y0180224D02*
X0784000Y0154912D01*
X0784000Y0259018D02*
X0784000Y0271668D01*
X0784000Y0278808D02*
X0784000Y0345088D01*
X0787500Y0183724D02*
X0787500Y0155726D01*
X0787500Y0242226D02*
X0787500Y0254986D01*
X0787500Y0262045D02*
X0787500Y0274774D01*
X0787500Y0281914D02*
X0787500Y0344274D01*
X0791000Y0187224D02*
X0791000Y0156664D01*
X0791000Y0210096D02*
X0791000Y0219904D01*
X0791000Y0230096D02*
X0791000Y0238191D01*
X0791000Y0250096D02*
X0791000Y0258012D01*
X0791000Y0270096D02*
X0791000Y0277880D01*
X0791000Y0290096D02*
X0791000Y0343336D01*
X0794500Y0190724D02*
X0794500Y0157902D01*
X0794500Y0211432D02*
X0794500Y0218568D01*
X0794500Y0231432D02*
X0794500Y0238568D01*
X0794500Y0251432D02*
X0794500Y0258568D01*
X0794500Y0271432D02*
X0794500Y0278568D01*
X0794500Y0291432D02*
X0794500Y0342098D01*
X0798000Y0199281D02*
X0798000Y0159923D01*
X0798000Y0210719D02*
X0798000Y0219281D01*
X0798000Y0230719D02*
X0798000Y0239281D01*
X0798000Y0250719D02*
X0798000Y0259281D01*
X0798000Y0270719D02*
X0798000Y0279281D01*
X0798000Y0290719D02*
X0798000Y0340077D01*
X0801500Y0338056D02*
X0801500Y0161944D01*
X0805000Y0165435D02*
X0805000Y0334565D01*
X0808500Y0330732D02*
X0808500Y0169268D01*
X0812000Y0175331D02*
X0812000Y0324670D01*
D11*
X0642500Y0175000D03*
X0642500Y0183500D03*
X0642500Y0192000D03*
X0807500Y0183500D03*
X0807500Y0192000D03*
X0807500Y0175000D03*
X0807500Y0320000D03*
X0807500Y0310000D03*
X0785000Y0340000D03*
X0642500Y0310000D03*
X0661500Y0340000D03*
X0642500Y0320000D03*
X0706500Y0222500D03*
X0683700Y0295900D03*
X0742899Y0230799D03*
X0678500Y0214500D03*
X0687500Y0214500D03*
X0770500Y0285500D03*
X0696000Y0206000D03*
X0754000Y0295000D03*
X0762000Y0285500D03*
D13*
X0665064Y0295000D02*
X0665064Y0275000D01*
X0665064Y0255000D01*
X0665064Y0235000D01*
X0665064Y0215000D01*
D11*
X0678000Y0275000D03*
D13*
X0665064Y0275000D01*
D11*
X0655893Y0275000D03*
D14*
X0656936Y0275000D01*
D13*
X0656936Y0271936D01*
X0643520Y0258520D01*
X0643520Y0206705D01*
X0788000Y0221000D02*
X0792000Y0225000D01*
X0795000Y0225000D01*
D11*
X0795000Y0225000D03*
X0683000Y0178000D03*
X0767000Y0178000D03*
D13*
X0672225Y0178000D02*
X0643520Y0206705D01*
X0672225Y0178000D02*
X0683000Y0178000D01*
X0771000Y0178000D02*
X0788000Y0195000D01*
X0771000Y0178000D02*
X0767000Y0178000D01*
X0788000Y0195000D02*
X0788000Y0221000D01*
D11*
X0656000Y0255107D03*
D14*
X0656107Y0255000D02*
X0656936Y0255000D01*
X0656107Y0255000D02*
X0656000Y0255107D01*
D13*
X0656936Y0255000D02*
X0656936Y0251646D01*
X0646290Y0241000D01*
X0646290Y0207853D02*
X0669143Y0185000D01*
X0646290Y0207853D02*
X0646290Y0241000D01*
X0785000Y0236667D02*
X0795000Y0245000D01*
D11*
X0795000Y0245000D03*
X0691000Y0185000D03*
X0759000Y0185000D03*
D13*
X0691000Y0185000D02*
X0669143Y0185000D01*
X0759000Y0185000D02*
X0771238Y0185000D01*
X0785000Y0198762D01*
X0785000Y0236667D01*
D11*
X0656000Y0235107D03*
D14*
X0656107Y0235000D02*
X0656936Y0235000D01*
X0656107Y0235000D02*
X0656000Y0235107D01*
D13*
X0656936Y0235000D02*
X0656936Y0231876D01*
X0649060Y0224000D01*
X0649060Y0209000D01*
D11*
X0795000Y0265000D03*
D13*
X0782230Y0253958D02*
X0782230Y0203230D01*
X0782230Y0253958D02*
X0795000Y0265000D01*
D11*
X0683000Y0192000D03*
X0767000Y0192000D03*
D13*
X0683000Y0192000D02*
X0666060Y0192000D01*
X0649060Y0209000D01*
X0767000Y0192000D02*
X0771000Y0192000D01*
X0782230Y0203230D01*
D11*
X0656000Y0215107D03*
D14*
X0656107Y0215000D02*
X0656936Y0215000D01*
X0656107Y0215000D02*
X0656000Y0215107D01*
D13*
X0779230Y0207230D02*
X0779230Y0271005D01*
D11*
X0795000Y0285000D03*
D13*
X0779230Y0271005D01*
D11*
X0755900Y0198700D03*
D13*
X0770699Y0198700D01*
X0779230Y0207230D01*
D11*
X0656000Y0295107D03*
D14*
X0656084Y0295023D02*
X0656936Y0295000D01*
X0656084Y0295023D02*
X0656000Y0295107D01*
D13*
X0656936Y0295000D02*
X0656936Y0292000D01*
X0640750Y0275814D01*
X0640750Y0205557D01*
D11*
X0795000Y0205000D03*
X0691000Y0171000D03*
X0759000Y0171000D03*
D13*
X0675308Y0171000D02*
X0640750Y0205557D01*
X0675308Y0171000D02*
X0691000Y0171000D01*
X0759000Y0171000D02*
X0771000Y0171000D01*
X0795000Y0195000D01*
X0795000Y0205000D01*
M02*