G04 EAGLE Gerber RS-274X export*
G75*
%MOMM*%
%FSLAX34Y34*%
%LPD*%
%INSilk Screen*%
%IPPOS*%
%AMOC8*
5,1,8,0,0,$1,22.5*%
G01*
%ADD10C,0.127*%
D10*
X0644169Y0294900D02*
X0644167Y0295048D01*
X0644161Y0295196D01*
X0644151Y0295343D01*
X0644137Y0295491D01*
X0644120Y0295638D01*
X0644098Y0295784D01*
X0644073Y0295930D01*
X0644043Y0296075D01*
X0644010Y0296219D01*
X0643973Y0296362D01*
X0643931Y0296504D01*
X0643887Y0296646D01*
X0643839Y0296785D01*
X0643787Y0296924D01*
X0643730Y0297061D01*
X0643670Y0297196D01*
X0643608Y0297330D01*
X0643608Y0297331D02*
X0643583Y0297398D01*
X0643555Y0297463D01*
X0643523Y0297527D01*
X0643488Y0297590D01*
X0643450Y0297650D01*
X0643409Y0297708D01*
X0643365Y0297765D01*
X0643318Y0297818D01*
X0643268Y0297870D01*
X0643216Y0297918D01*
X0643161Y0297964D01*
X0643104Y0298007D01*
X0643045Y0298047D01*
X0642983Y0298084D01*
X0642920Y0298118D01*
X0642856Y0298148D01*
X0642790Y0298175D01*
X0642722Y0298199D01*
X0642653Y0298219D01*
X0642584Y0298236D01*
X0642514Y0298248D01*
X0642443Y0298258D01*
X0642371Y0298263D01*
X0642300Y0298265D01*
X0642229Y0298263D01*
X0642157Y0298258D01*
X0642086Y0298248D01*
X0642016Y0298236D01*
X0641947Y0298219D01*
X0641878Y0298199D01*
X0641810Y0298175D01*
X0641744Y0298148D01*
X0641680Y0298118D01*
X0641617Y0298084D01*
X0641555Y0298047D01*
X0641496Y0298007D01*
X0641439Y0297964D01*
X0641384Y0297918D01*
X0641332Y0297870D01*
X0641282Y0297818D01*
X0641235Y0297765D01*
X0641191Y0297708D01*
X0641150Y0297650D01*
X0641112Y0297590D01*
X0641076Y0297527D01*
X0641045Y0297463D01*
X0641016Y0297398D01*
X0640992Y0297331D01*
X0640990Y0297330D02*
X0640928Y0297196D01*
X0640868Y0297061D01*
X0640812Y0296924D01*
X0640759Y0296785D01*
X0640712Y0296646D01*
X0640667Y0296505D01*
X0640626Y0296362D01*
X0640589Y0296219D01*
X0640556Y0296075D01*
X0640526Y0295930D01*
X0640501Y0295784D01*
X0640479Y0295638D01*
X0640462Y0295491D01*
X0640448Y0295343D01*
X0640438Y0295196D01*
X0640432Y0295048D01*
X0640430Y0294900D01*
X0644169Y0294900D02*
X0644167Y0294752D01*
X0644161Y0294604D01*
X0644151Y0294457D01*
X0644137Y0294309D01*
X0644120Y0294162D01*
X0644098Y0294016D01*
X0644073Y0293870D01*
X0644043Y0293725D01*
X0644010Y0293581D01*
X0643973Y0293438D01*
X0643931Y0293296D01*
X0643887Y0293155D01*
X0643839Y0293015D01*
X0643787Y0292876D01*
X0643730Y0292739D01*
X0643670Y0292604D01*
X0643608Y0292470D01*
X0643608Y0292469D02*
X0643583Y0292402D01*
X0643555Y0292337D01*
X0643523Y0292273D01*
X0643488Y0292210D01*
X0643450Y0292150D01*
X0643409Y0292092D01*
X0643365Y0292035D01*
X0643318Y0291982D01*
X0643268Y0291930D01*
X0643216Y0291882D01*
X0643161Y0291836D01*
X0643104Y0291793D01*
X0643045Y0291753D01*
X0642983Y0291716D01*
X0642920Y0291682D01*
X0642856Y0291652D01*
X0642790Y0291625D01*
X0642722Y0291601D01*
X0642653Y0291581D01*
X0642584Y0291564D01*
X0642514Y0291552D01*
X0642443Y0291542D01*
X0642371Y0291537D01*
X0642300Y0291535D01*
X0640992Y0292470D02*
X0640929Y0292604D01*
X0640869Y0292739D01*
X0640813Y0292876D01*
X0640761Y0293015D01*
X0640712Y0293154D01*
X0640668Y0293295D01*
X0640627Y0293438D01*
X0640590Y0293581D01*
X0640557Y0293725D01*
X0640527Y0293870D01*
X0640502Y0294016D01*
X0640480Y0294162D01*
X0640463Y0294309D01*
X0640449Y0294457D01*
X0640438Y0294604D01*
X0640433Y0294752D01*
X0640431Y0294900D01*
X0640992Y0292469D02*
X0641016Y0292402D01*
X0641045Y0292337D01*
X0641076Y0292273D01*
X0641112Y0292210D01*
X0641150Y0292150D01*
X0641191Y0292092D01*
X0641235Y0292035D01*
X0641282Y0291982D01*
X0641332Y0291930D01*
X0641384Y0291882D01*
X0641439Y0291836D01*
X0641496Y0291793D01*
X0641555Y0291753D01*
X0641617Y0291716D01*
X0641680Y0291682D01*
X0641744Y0291652D01*
X0641810Y0291625D01*
X0641878Y0291601D01*
X0641947Y0291581D01*
X0642016Y0291564D01*
X0642086Y0291552D01*
X0642157Y0291542D01*
X0642229Y0291537D01*
X0642300Y0291535D01*
X0643796Y0293031D02*
X0640804Y0296769D01*
X0642400Y0278265D02*
X0644269Y0276769D01*
X0642400Y0278265D02*
X0642400Y0271535D01*
X0644269Y0271535D02*
X0640531Y0271535D01*
X0642413Y0258366D02*
X0642333Y0258363D01*
X0642253Y0258358D01*
X0642173Y0258348D01*
X0642094Y0258336D01*
X0642016Y0258318D01*
X0641939Y0258298D01*
X0641863Y0258273D01*
X0641787Y0258245D01*
X0641714Y0258214D01*
X0641641Y0258179D01*
X0641572Y0258141D01*
X0641503Y0258099D01*
X0641437Y0258054D01*
X0641373Y0258006D01*
X0641311Y0257955D01*
X0641252Y0257901D01*
X0641195Y0257843D01*
X0641140Y0257785D01*
X0641090Y0257723D01*
X0641042Y0257659D01*
X0640997Y0257593D01*
X0640955Y0257524D01*
X0640917Y0257454D01*
X0640882Y0257382D01*
X0640851Y0257308D01*
X0640823Y0257233D01*
X0640798Y0257156D01*
X0640776Y0257079D01*
X0640759Y0257002D01*
X0640747Y0256923D01*
X0640738Y0256843D01*
X0640732Y0256762D01*
X0640729Y0256683D01*
X0642413Y0258365D02*
X0642504Y0258363D01*
X0642594Y0258357D01*
X0642684Y0258348D01*
X0642774Y0258335D01*
X0642863Y0258318D01*
X0642951Y0258297D01*
X0643038Y0258273D01*
X0643125Y0258245D01*
X0643209Y0258213D01*
X0643293Y0258177D01*
X0643375Y0258139D01*
X0643455Y0258097D01*
X0643533Y0258052D01*
X0643610Y0258003D01*
X0643685Y0257950D01*
X0643757Y0257897D01*
X0643827Y0257839D01*
X0643894Y0257778D01*
X0643959Y0257715D01*
X0644021Y0257649D01*
X0644080Y0257580D01*
X0644136Y0257509D01*
X0644188Y0257436D01*
X0644239Y0257360D01*
X0644286Y0257282D01*
X0644330Y0257203D01*
X0644370Y0257122D01*
X0644407Y0257039D01*
X0644440Y0256955D01*
X0644470Y0256869D01*
X0641292Y0255373D02*
X0641234Y0255432D01*
X0641179Y0255492D01*
X0641127Y0255554D01*
X0641078Y0255619D01*
X0641031Y0255685D01*
X0640988Y0255754D01*
X0640948Y0255825D01*
X0640911Y0255897D01*
X0640877Y0255970D01*
X0640847Y0256047D01*
X0640819Y0256122D01*
X0640796Y0256201D01*
X0640776Y0256280D01*
X0640759Y0256360D01*
X0640747Y0256439D01*
X0640738Y0256521D01*
X0640733Y0256602D01*
X0640731Y0256683D01*
X0641290Y0255373D02*
X0644469Y0251635D01*
X0640731Y0251635D01*
X0642500Y0231635D02*
X0644369Y0231635D01*
X0642500Y0231635D02*
X0642415Y0231637D01*
X0642330Y0231643D01*
X0642246Y0231652D01*
X0642161Y0231666D01*
X0642078Y0231683D01*
X0641996Y0231704D01*
X0641914Y0231728D01*
X0641834Y0231758D01*
X0641755Y0231790D01*
X0641678Y0231824D01*
X0641603Y0231865D01*
X0641529Y0231907D01*
X0641457Y0231953D01*
X0641388Y0232002D01*
X0641320Y0232053D01*
X0641256Y0232109D01*
X0641194Y0232167D01*
X0641134Y0232228D01*
X0641076Y0232292D01*
X0641024Y0232357D01*
X0640973Y0232426D01*
X0640926Y0232497D01*
X0640881Y0232569D01*
X0640841Y0232644D01*
X0640802Y0232721D01*
X0640769Y0232798D01*
X0640739Y0232878D01*
X0640712Y0232959D01*
X0640689Y0233040D01*
X0640669Y0233124D01*
X0640655Y0233207D01*
X0640643Y0233292D01*
X0640635Y0233376D01*
X0640631Y0233461D01*
X0640631Y0233547D01*
X0640635Y0233632D01*
X0640643Y0233716D01*
X0640655Y0233801D01*
X0640669Y0233884D01*
X0640689Y0233967D01*
X0640712Y0234048D01*
X0640739Y0234130D01*
X0640769Y0234209D01*
X0640802Y0234287D01*
X0640841Y0234364D01*
X0640881Y0234439D01*
X0640926Y0234511D01*
X0640973Y0234581D01*
X0641024Y0234650D01*
X0641076Y0234716D01*
X0641134Y0234780D01*
X0641194Y0234840D01*
X0641256Y0234899D01*
X0641320Y0234954D01*
X0641388Y0235006D01*
X0641457Y0235054D01*
X0641529Y0235101D01*
X0641603Y0235143D01*
X0641678Y0235183D01*
X0641755Y0235218D01*
X0641834Y0235250D01*
X0641914Y0235279D01*
X0641996Y0235304D01*
X0642078Y0235325D01*
X0642161Y0235341D01*
X0642246Y0235356D01*
X0642330Y0235365D01*
X0642415Y0235371D01*
X0642500Y0235373D01*
X0642126Y0238365D02*
X0644369Y0238365D01*
X0642126Y0238365D02*
X0642050Y0238363D01*
X0641975Y0238357D01*
X0641899Y0238348D01*
X0641825Y0238333D01*
X0641751Y0238316D01*
X0641678Y0238296D01*
X0641606Y0238271D01*
X0641536Y0238244D01*
X0641467Y0238211D01*
X0641400Y0238177D01*
X0641335Y0238139D01*
X0641271Y0238097D01*
X0641210Y0238052D01*
X0641152Y0238004D01*
X0641095Y0237952D01*
X0641042Y0237900D01*
X0640990Y0237843D01*
X0640943Y0237785D01*
X0640898Y0237723D01*
X0640856Y0237659D01*
X0640818Y0237595D01*
X0640783Y0237528D01*
X0640751Y0237459D01*
X0640723Y0237389D01*
X0640699Y0237317D01*
X0640678Y0237244D01*
X0640661Y0237170D01*
X0640647Y0237096D01*
X0640638Y0237019D01*
X0640632Y0236944D01*
X0640630Y0236869D01*
X0640632Y0236792D01*
X0640638Y0236717D01*
X0640647Y0236642D01*
X0640661Y0236568D01*
X0640678Y0236494D01*
X0640699Y0236421D01*
X0640723Y0236349D01*
X0640751Y0236279D01*
X0640783Y0236210D01*
X0640818Y0236143D01*
X0640856Y0236077D01*
X0640898Y0236013D01*
X0640943Y0235953D01*
X0640990Y0235895D01*
X0641042Y0235838D01*
X0641095Y0235784D01*
X0641152Y0235734D01*
X0641210Y0235686D01*
X0641271Y0235641D01*
X0641335Y0235599D01*
X0641400Y0235561D01*
X0641467Y0235525D01*
X0641536Y0235494D01*
X0641606Y0235465D01*
X0641678Y0235442D01*
X0641751Y0235420D01*
X0641825Y0235403D01*
X0641899Y0235390D01*
X0641975Y0235381D01*
X0642050Y0235375D01*
X0642126Y0235373D01*
X0642126Y0235373D02*
X0643622Y0235373D01*
X0642874Y0218365D02*
X0644369Y0213131D01*
X0640631Y0213131D01*
X0641752Y0214626D02*
X0641752Y0211635D01*
M02*