G04 EAGLE Gerber RS-274X export*
G75*
%MOMM*%
%FSLAX34Y34*%
%LPD*%
%INSilk screen*%
%IPPOS*%
%AMOC8*
5,1,8,0,0,$1,22.5*%
G01*
%ADD10C,0.127*%
%ADD11C,0.1524*%
%ADD12C,0.2*%
%ADD13C,0.0762*%
%ADD14C,0.15*%
G36*
X0705982Y0282935D02*
X0705982Y0282935D01*
X0705984Y0282934D01*
X0706027Y0282954D01*
X0706071Y0282972D01*
X0706071Y0282974D01*
X0706073Y0282975D01*
X0706106Y0283060D01*
X0706106Y0288140D01*
X0706105Y0288142D01*
X0706106Y0288144D01*
X0706086Y0288187D01*
X0706067Y0288231D01*
X0706066Y0288231D01*
X0706065Y0288233D01*
X0705980Y0288266D01*
X0695819Y0288266D01*
X0695818Y0288265D01*
X0695816Y0288266D01*
X0695772Y0288246D01*
X0695729Y0288228D01*
X0695729Y0288226D01*
X0695727Y0288225D01*
X0695694Y0288140D01*
X0695694Y0283060D01*
X0695695Y0283058D01*
X0695694Y0283056D01*
X0695714Y0283013D01*
X0695732Y0282969D01*
X0695734Y0282969D01*
X0695735Y0282967D01*
X0695819Y0282934D01*
X0705980Y0282934D01*
X0705982Y0282935D01*
G37*
G36*
X0744782Y0218834D02*
X0744782Y0218834D01*
X0744783Y0218834D01*
X0744826Y0218854D01*
X0744871Y0218872D01*
X0744871Y0218874D01*
X0744873Y0218875D01*
X0744906Y0218960D01*
X0744906Y0224040D01*
X0744905Y0224042D01*
X0744906Y0224044D01*
X0744886Y0224087D01*
X0744868Y0224131D01*
X0744866Y0224131D01*
X0744865Y0224133D01*
X0744780Y0224166D01*
X0734620Y0224166D01*
X0734618Y0224165D01*
X0734616Y0224166D01*
X0734573Y0224146D01*
X0734529Y0224128D01*
X0734529Y0224126D01*
X0734526Y0224125D01*
X0734494Y0224040D01*
X0734494Y0218960D01*
X0734495Y0218958D01*
X0734494Y0218956D01*
X0734514Y0218913D01*
X0734532Y0218869D01*
X0734534Y0218869D01*
X0734535Y0218867D01*
X0734620Y0218834D01*
X0744780Y0218834D01*
X0744782Y0218834D01*
G37*
G36*
X0743154Y0277536D02*
X0743154Y0277536D01*
X0743160Y0277543D01*
X0743165Y0277540D01*
X0743769Y0277789D01*
X0743774Y0277798D01*
X0743780Y0277796D01*
X0744298Y0278193D01*
X0744300Y0278202D01*
X0744307Y0278202D01*
X0744704Y0278720D01*
X0744704Y0278730D01*
X0744711Y0278731D01*
X0744960Y0279334D01*
X0744958Y0279343D01*
X0744964Y0279347D01*
X0745048Y0279994D01*
X0745044Y0280002D01*
X0745048Y0280006D01*
X0744964Y0280654D01*
X0744957Y0280660D01*
X0744960Y0280666D01*
X0744711Y0281269D01*
X0744702Y0281274D01*
X0744704Y0281280D01*
X0744307Y0281798D01*
X0744298Y0281800D01*
X0744298Y0281807D01*
X0743780Y0282204D01*
X0743771Y0282204D01*
X0743769Y0282211D01*
X0743165Y0282460D01*
X0743156Y0282458D01*
X0743154Y0282464D01*
X0742506Y0282549D01*
X0742497Y0282544D01*
X0742494Y0282549D01*
X0741846Y0282464D01*
X0741840Y0282457D01*
X0741834Y0282460D01*
X0741230Y0282211D01*
X0741226Y0282202D01*
X0741220Y0282204D01*
X0740702Y0281807D01*
X0740699Y0281798D01*
X0740693Y0281798D01*
X0740296Y0281280D01*
X0740296Y0281271D01*
X0740288Y0281269D01*
X0740040Y0280666D01*
X0740040Y0280665D01*
X0740042Y0280657D01*
X0740036Y0280654D01*
X0739951Y0280006D01*
X0739956Y0279998D01*
X0739951Y0279994D01*
X0740036Y0279347D01*
X0740043Y0279340D01*
X0740040Y0279334D01*
X0740288Y0278731D01*
X0740298Y0278726D01*
X0740296Y0278720D01*
X0740693Y0278202D01*
X0740702Y0278200D01*
X0740702Y0278193D01*
X0741220Y0277796D01*
X0741230Y0277796D01*
X0741230Y0277789D01*
X0741834Y0277540D01*
X0741843Y0277542D01*
X0741846Y0277536D01*
X0742494Y0277451D01*
X0742502Y0277456D01*
X0742506Y0277451D01*
X0743154Y0277536D01*
G37*
D10*
X0694344Y0273635D02*
X0696587Y0280365D01*
X0698830Y0273635D01*
X0698269Y0275318D02*
X0694903Y0275318D01*
X0701918Y0277000D02*
X0701920Y0277148D01*
X0701926Y0277296D01*
X0701936Y0277443D01*
X0701949Y0277591D01*
X0701966Y0277738D01*
X0701989Y0277884D01*
X0702014Y0278030D01*
X0702043Y0278175D01*
X0702077Y0278319D01*
X0702114Y0278462D01*
X0702155Y0278604D01*
X0702200Y0278746D01*
X0702248Y0278885D01*
X0702300Y0279024D01*
X0702356Y0279161D01*
X0702416Y0279296D01*
X0702479Y0279430D01*
X0702479Y0279431D02*
X0702504Y0279498D01*
X0702531Y0279563D01*
X0702564Y0279627D01*
X0702599Y0279690D01*
X0702637Y0279750D01*
X0702677Y0279808D01*
X0702722Y0279865D01*
X0702769Y0279918D01*
X0702819Y0279970D01*
X0702871Y0280018D01*
X0702925Y0280064D01*
X0702983Y0280107D01*
X0703042Y0280147D01*
X0703104Y0280184D01*
X0703167Y0280218D01*
X0703231Y0280248D01*
X0703297Y0280275D01*
X0703365Y0280299D01*
X0703434Y0280319D01*
X0703503Y0280336D01*
X0703573Y0280348D01*
X0703644Y0280358D01*
X0703716Y0280363D01*
X0703787Y0280365D01*
X0703858Y0280363D01*
X0703930Y0280358D01*
X0704001Y0280348D01*
X0704071Y0280336D01*
X0704140Y0280319D01*
X0704209Y0280299D01*
X0704277Y0280275D01*
X0704343Y0280248D01*
X0704406Y0280218D01*
X0704470Y0280184D01*
X0704532Y0280147D01*
X0704591Y0280107D01*
X0704648Y0280064D01*
X0704703Y0280018D01*
X0704755Y0279970D01*
X0704805Y0279918D01*
X0704852Y0279865D01*
X0704896Y0279808D01*
X0704937Y0279750D01*
X0704975Y0279689D01*
X0705010Y0279627D01*
X0705042Y0279563D01*
X0705070Y0279497D01*
X0705095Y0279430D01*
X0705096Y0279430D02*
X0705159Y0279296D01*
X0705219Y0279161D01*
X0705275Y0279024D01*
X0705327Y0278885D01*
X0705375Y0278746D01*
X0705420Y0278605D01*
X0705461Y0278462D01*
X0705498Y0278319D01*
X0705531Y0278175D01*
X0705561Y0278030D01*
X0705586Y0277884D01*
X0705608Y0277738D01*
X0705625Y0277591D01*
X0705639Y0277443D01*
X0705649Y0277296D01*
X0705655Y0277148D01*
X0705656Y0277000D01*
X0701918Y0277000D02*
X0701920Y0276852D01*
X0701926Y0276704D01*
X0701936Y0276557D01*
X0701949Y0276409D01*
X0701966Y0276262D01*
X0701989Y0276116D01*
X0702014Y0275970D01*
X0702043Y0275825D01*
X0702077Y0275681D01*
X0702114Y0275538D01*
X0702155Y0275396D01*
X0702200Y0275255D01*
X0702248Y0275115D01*
X0702300Y0274976D01*
X0702356Y0274839D01*
X0702416Y0274704D01*
X0702479Y0274570D01*
X0702479Y0274569D02*
X0702504Y0274502D01*
X0702531Y0274437D01*
X0702564Y0274373D01*
X0702599Y0274310D01*
X0702637Y0274250D01*
X0702677Y0274192D01*
X0702722Y0274135D01*
X0702769Y0274082D01*
X0702819Y0274030D01*
X0702871Y0273982D01*
X0702925Y0273936D01*
X0702983Y0273893D01*
X0703042Y0273853D01*
X0703104Y0273816D01*
X0703167Y0273782D01*
X0703231Y0273752D01*
X0703297Y0273725D01*
X0703365Y0273701D01*
X0703434Y0273681D01*
X0703503Y0273664D01*
X0703573Y0273652D01*
X0703644Y0273642D01*
X0703716Y0273637D01*
X0703787Y0273635D01*
X0705095Y0274570D02*
X0705158Y0274704D01*
X0705218Y0274839D01*
X0705274Y0274976D01*
X0705326Y0275115D01*
X0705374Y0275254D01*
X0705419Y0275395D01*
X0705460Y0275538D01*
X0705497Y0275681D01*
X0705530Y0275825D01*
X0705560Y0275970D01*
X0705585Y0276116D01*
X0705607Y0276262D01*
X0705624Y0276409D01*
X0705638Y0276557D01*
X0705648Y0276704D01*
X0705654Y0276852D01*
X0705656Y0277000D01*
X0705095Y0274569D02*
X0705070Y0274502D01*
X0705042Y0274437D01*
X0705010Y0274373D01*
X0704975Y0274310D01*
X0704937Y0274250D01*
X0704896Y0274192D01*
X0704852Y0274135D01*
X0704805Y0274082D01*
X0704755Y0274030D01*
X0704703Y0273982D01*
X0704648Y0273936D01*
X0704591Y0273893D01*
X0704532Y0273853D01*
X0704470Y0273816D01*
X0704406Y0273782D01*
X0704343Y0273752D01*
X0704277Y0273725D01*
X0704209Y0273701D01*
X0704140Y0273681D01*
X0704071Y0273664D01*
X0704001Y0273652D01*
X0703930Y0273642D01*
X0703858Y0273637D01*
X0703787Y0273635D01*
X0702291Y0275131D02*
X0705283Y0278869D01*
X0697086Y0261865D02*
X0694843Y0255135D01*
X0699329Y0255135D02*
X0697086Y0261865D01*
X0698769Y0256818D02*
X0695404Y0256818D01*
X0702418Y0260369D02*
X0704287Y0261865D01*
X0704287Y0255135D01*
X0702418Y0255135D02*
X0706156Y0255135D01*
X0696587Y0243365D02*
X0694344Y0236635D01*
X0698830Y0236635D02*
X0696587Y0243365D01*
X0698269Y0238318D02*
X0694903Y0238318D01*
X0703974Y0243366D02*
X0704054Y0243363D01*
X0704134Y0243358D01*
X0704214Y0243348D01*
X0704293Y0243336D01*
X0704371Y0243318D01*
X0704448Y0243298D01*
X0704524Y0243273D01*
X0704599Y0243245D01*
X0704673Y0243214D01*
X0704745Y0243179D01*
X0704816Y0243141D01*
X0704884Y0243099D01*
X0704950Y0243054D01*
X0705014Y0243006D01*
X0705076Y0242955D01*
X0705134Y0242901D01*
X0705192Y0242843D01*
X0705246Y0242785D01*
X0705297Y0242723D01*
X0705345Y0242659D01*
X0705390Y0242593D01*
X0705432Y0242524D01*
X0705470Y0242454D01*
X0705505Y0242382D01*
X0705536Y0242308D01*
X0705564Y0242233D01*
X0705589Y0242156D01*
X0705610Y0242079D01*
X0705627Y0242002D01*
X0705639Y0241923D01*
X0705649Y0241843D01*
X0705655Y0241762D01*
X0705656Y0241683D01*
X0703974Y0243365D02*
X0703883Y0243363D01*
X0703793Y0243357D01*
X0703703Y0243348D01*
X0703613Y0243335D01*
X0703524Y0243318D01*
X0703436Y0243297D01*
X0703349Y0243273D01*
X0703262Y0243245D01*
X0703178Y0243213D01*
X0703094Y0243177D01*
X0703012Y0243139D01*
X0702932Y0243097D01*
X0702853Y0243052D01*
X0702777Y0243003D01*
X0702702Y0242950D01*
X0702630Y0242897D01*
X0702560Y0242839D01*
X0702493Y0242778D01*
X0702428Y0242715D01*
X0702366Y0242649D01*
X0702307Y0242580D01*
X0702251Y0242509D01*
X0702198Y0242436D01*
X0702148Y0242360D01*
X0702101Y0242282D01*
X0702057Y0242203D01*
X0702017Y0242122D01*
X0701980Y0242039D01*
X0701947Y0241955D01*
X0701917Y0241869D01*
X0705095Y0240373D02*
X0705153Y0240432D01*
X0705207Y0240492D01*
X0705260Y0240554D01*
X0705309Y0240619D01*
X0705356Y0240685D01*
X0705399Y0240754D01*
X0705438Y0240825D01*
X0705476Y0240897D01*
X0705510Y0240970D01*
X0705540Y0241047D01*
X0705567Y0241122D01*
X0705591Y0241201D01*
X0705610Y0241280D01*
X0705627Y0241360D01*
X0705639Y0241439D01*
X0705649Y0241521D01*
X0705654Y0241602D01*
X0705656Y0241683D01*
X0705096Y0240373D02*
X0701918Y0236635D01*
X0705656Y0236635D01*
D11*
X0655320Y0163438D02*
X0653161Y0156962D01*
X0657479Y0156962D02*
X0655320Y0163438D01*
X0656939Y0158581D02*
X0653700Y0158581D01*
X0660180Y0157322D02*
X0660180Y0156962D01*
X0660180Y0157322D02*
X0660540Y0157322D01*
X0660540Y0156962D01*
X0660180Y0156962D01*
X0664848Y0158401D02*
X0664848Y0163438D01*
X0664848Y0158401D02*
X0664846Y0158328D01*
X0664841Y0158255D01*
X0664830Y0158183D01*
X0664819Y0158111D01*
X0664802Y0158040D01*
X0664782Y0157970D01*
X0664758Y0157901D01*
X0664731Y0157834D01*
X0664701Y0157767D01*
X0664667Y0157703D01*
X0664629Y0157640D01*
X0664590Y0157579D01*
X0664547Y0157520D01*
X0664501Y0157464D01*
X0664452Y0157410D01*
X0664400Y0157358D01*
X0664346Y0157309D01*
X0664290Y0157263D01*
X0664231Y0157220D01*
X0664170Y0157180D01*
X0664107Y0157143D01*
X0664043Y0157109D01*
X0663976Y0157079D01*
X0663909Y0157052D01*
X0663840Y0157028D01*
X0663770Y0157008D01*
X0663699Y0156991D01*
X0663627Y0156979D01*
X0663555Y0156969D01*
X0663482Y0156964D01*
X0663409Y0156962D01*
X0662690Y0156962D01*
X0668905Y0156962D02*
X0671783Y0156962D01*
X0668905Y0156962D02*
X0668905Y0163438D01*
X0671783Y0163438D01*
X0671063Y0160560D02*
X0668905Y0160560D01*
X0675121Y0163438D02*
X0675121Y0156962D01*
X0678719Y0156962D02*
X0675121Y0163438D01*
X0678719Y0163438D02*
X0678719Y0156962D01*
X0682825Y0156962D02*
X0685703Y0156962D01*
X0682825Y0156962D02*
X0682825Y0163438D01*
X0685703Y0163438D01*
X0684984Y0160560D02*
X0682825Y0160560D01*
X0689119Y0163438D02*
X0689119Y0156962D01*
X0689119Y0163438D02*
X0690918Y0163438D01*
X0691001Y0163436D01*
X0691084Y0163430D01*
X0691167Y0163420D01*
X0691249Y0163406D01*
X0691330Y0163390D01*
X0691410Y0163369D01*
X0691490Y0163344D01*
X0691568Y0163317D01*
X0691645Y0163284D01*
X0691720Y0163249D01*
X0691793Y0163211D01*
X0691865Y0163169D01*
X0691935Y0163123D01*
X0692002Y0163075D01*
X0692067Y0163023D01*
X0692129Y0162968D01*
X0692189Y0162911D01*
X0692247Y0162851D01*
X0692302Y0162788D01*
X0692354Y0162723D01*
X0692402Y0162656D01*
X0692448Y0162586D01*
X0692490Y0162514D01*
X0692527Y0162441D01*
X0692564Y0162366D01*
X0692596Y0162289D01*
X0692624Y0162211D01*
X0692647Y0162131D01*
X0692668Y0162051D01*
X0692686Y0161970D01*
X0692700Y0161888D01*
X0692709Y0161805D01*
X0692715Y0161722D01*
X0692717Y0161638D01*
X0692715Y0161556D01*
X0692709Y0161473D01*
X0692700Y0161390D01*
X0692686Y0161308D01*
X0692668Y0161227D01*
X0692647Y0161147D01*
X0692624Y0161067D01*
X0692596Y0160989D01*
X0692564Y0160912D01*
X0692527Y0160837D01*
X0692490Y0160764D01*
X0692448Y0160692D01*
X0692402Y0160622D01*
X0692354Y0160555D01*
X0692302Y0160490D01*
X0692247Y0160427D01*
X0692189Y0160367D01*
X0692129Y0160310D01*
X0692067Y0160255D01*
X0692002Y0160203D01*
X0691935Y0160155D01*
X0691865Y0160109D01*
X0691793Y0160067D01*
X0691720Y0160029D01*
X0691645Y0159993D01*
X0691568Y0159961D01*
X0691490Y0159933D01*
X0691410Y0159909D01*
X0691330Y0159888D01*
X0691249Y0159871D01*
X0691167Y0159857D01*
X0691084Y0159848D01*
X0691001Y0159842D01*
X0690918Y0159840D01*
X0689119Y0159840D01*
X0691277Y0159840D02*
X0692717Y0156962D01*
X0697560Y0156962D02*
X0697560Y0163438D01*
X0695761Y0163438D02*
X0699359Y0163438D01*
X0704400Y0156962D02*
X0704475Y0156964D01*
X0704550Y0156970D01*
X0704625Y0156980D01*
X0704699Y0156993D01*
X0704772Y0157011D01*
X0704845Y0157032D01*
X0704916Y0157058D01*
X0704985Y0157086D01*
X0705053Y0157119D01*
X0705120Y0157155D01*
X0705184Y0157194D01*
X0705246Y0157237D01*
X0705305Y0157283D01*
X0705363Y0157332D01*
X0705418Y0157383D01*
X0705468Y0157438D01*
X0705518Y0157495D01*
X0705564Y0157555D01*
X0705607Y0157617D01*
X0705646Y0157682D01*
X0705682Y0157748D01*
X0705715Y0157816D01*
X0705742Y0157885D01*
X0705769Y0157956D01*
X0705789Y0158029D01*
X0705808Y0158102D01*
X0705821Y0158176D01*
X0705831Y0158251D01*
X0705836Y0158326D01*
X0705839Y0158401D01*
X0704400Y0156962D02*
X0704291Y0156964D01*
X0704182Y0156970D01*
X0704073Y0156980D01*
X0703965Y0156993D01*
X0703857Y0157011D01*
X0703750Y0157032D01*
X0703644Y0157057D01*
X0703539Y0157086D01*
X0703435Y0157119D01*
X0703332Y0157156D01*
X0703231Y0157196D01*
X0703131Y0157240D01*
X0703033Y0157287D01*
X0702936Y0157338D01*
X0702841Y0157392D01*
X0702749Y0157450D01*
X0702658Y0157511D01*
X0702570Y0157575D01*
X0702484Y0157642D01*
X0702400Y0157712D01*
X0702320Y0157785D01*
X0702240Y0157861D01*
X0702420Y0161999D02*
X0702423Y0162074D01*
X0702429Y0162149D01*
X0702439Y0162224D01*
X0702452Y0162298D01*
X0702470Y0162371D01*
X0702491Y0162444D01*
X0702517Y0162515D01*
X0702545Y0162584D01*
X0702578Y0162652D01*
X0702614Y0162719D01*
X0702653Y0162783D01*
X0702696Y0162845D01*
X0702742Y0162905D01*
X0702791Y0162962D01*
X0702842Y0163017D01*
X0702897Y0163068D01*
X0702954Y0163117D01*
X0703014Y0163162D01*
X0703075Y0163206D01*
X0703141Y0163245D01*
X0703207Y0163281D01*
X0703275Y0163314D01*
X0703344Y0163342D01*
X0703415Y0163368D01*
X0703488Y0163389D01*
X0703561Y0163406D01*
X0703635Y0163420D01*
X0703710Y0163430D01*
X0703785Y0163436D01*
X0703860Y0163438D01*
X0703961Y0163436D01*
X0704064Y0163430D01*
X0704166Y0163420D01*
X0704267Y0163406D01*
X0704368Y0163390D01*
X0704468Y0163369D01*
X0704567Y0163344D01*
X0704665Y0163314D01*
X0704762Y0163283D01*
X0704857Y0163247D01*
X0704950Y0163207D01*
X0705044Y0163164D01*
X0705134Y0163118D01*
X0705224Y0163068D01*
X0705311Y0163015D01*
X0705396Y0162958D01*
X0705479Y0162898D01*
X0703139Y0160739D02*
X0703075Y0160780D01*
X0703013Y0160823D01*
X0702953Y0160870D01*
X0702896Y0160920D01*
X0702841Y0160972D01*
X0702788Y0161027D01*
X0702740Y0161086D01*
X0702694Y0161146D01*
X0702651Y0161209D01*
X0702613Y0161274D01*
X0702577Y0161340D01*
X0702544Y0161408D01*
X0702514Y0161479D01*
X0702490Y0161551D01*
X0702469Y0161624D01*
X0702450Y0161698D01*
X0702437Y0161772D01*
X0702428Y0161847D01*
X0702422Y0161923D01*
X0702420Y0161999D01*
X0705119Y0159661D02*
X0705184Y0159620D01*
X0705246Y0159577D01*
X0705305Y0159530D01*
X0705363Y0159480D01*
X0705418Y0159428D01*
X0705470Y0159372D01*
X0705519Y0159314D01*
X0705564Y0159254D01*
X0705607Y0159191D01*
X0705646Y0159126D01*
X0705682Y0159060D01*
X0705715Y0158991D01*
X0705744Y0158921D01*
X0705769Y0158849D01*
X0705789Y0158776D01*
X0705808Y0158702D01*
X0705821Y0158628D01*
X0705831Y0158553D01*
X0705836Y0158477D01*
X0705839Y0158401D01*
X0705119Y0159660D02*
X0703139Y0160740D01*
X0745401Y0161539D02*
X0745401Y0158661D01*
X0745401Y0161539D02*
X0745403Y0161622D01*
X0745408Y0161705D01*
X0745418Y0161788D01*
X0745432Y0161870D01*
X0745449Y0161951D01*
X0745470Y0162031D01*
X0745494Y0162111D01*
X0745522Y0162189D01*
X0745554Y0162266D01*
X0745590Y0162341D01*
X0745628Y0162414D01*
X0745670Y0162486D01*
X0745716Y0162556D01*
X0745764Y0162623D01*
X0745816Y0162688D01*
X0745870Y0162750D01*
X0745928Y0162811D01*
X0745988Y0162868D01*
X0746050Y0162923D01*
X0746116Y0162975D01*
X0746183Y0163023D01*
X0746253Y0163069D01*
X0746324Y0163111D01*
X0746397Y0163149D01*
X0746473Y0163185D01*
X0746550Y0163217D01*
X0746628Y0163245D01*
X0746708Y0163268D01*
X0746788Y0163290D01*
X0746869Y0163307D01*
X0746951Y0163321D01*
X0747034Y0163329D01*
X0747117Y0163336D01*
X0747200Y0163338D01*
X0747283Y0163336D01*
X0747366Y0163329D01*
X0747449Y0163321D01*
X0747531Y0163307D01*
X0747612Y0163290D01*
X0747692Y0163268D01*
X0747771Y0163245D01*
X0747850Y0163217D01*
X0747927Y0163185D01*
X0748002Y0163149D01*
X0748075Y0163111D01*
X0748147Y0163069D01*
X0748216Y0163023D01*
X0748284Y0162975D01*
X0748349Y0162923D01*
X0748412Y0162868D01*
X0748472Y0162811D01*
X0748529Y0162750D01*
X0748584Y0162688D01*
X0748636Y0162623D01*
X0748683Y0162556D01*
X0748730Y0162486D01*
X0748772Y0162414D01*
X0748810Y0162341D01*
X0748846Y0162266D01*
X0748878Y0162189D01*
X0748906Y0162111D01*
X0748930Y0162031D01*
X0748951Y0161951D01*
X0748968Y0161870D01*
X0748982Y0161788D01*
X0748991Y0161705D01*
X0748997Y0161622D01*
X0748999Y0161539D01*
X0748999Y0158661D01*
X0748997Y0158578D01*
X0748991Y0158495D01*
X0748982Y0158412D01*
X0748968Y0158330D01*
X0748951Y0158249D01*
X0748930Y0158169D01*
X0748906Y0158089D01*
X0748878Y0158011D01*
X0748846Y0157934D01*
X0748810Y0157859D01*
X0748772Y0157786D01*
X0748730Y0157714D01*
X0748683Y0157644D01*
X0748636Y0157577D01*
X0748584Y0157512D01*
X0748529Y0157449D01*
X0748472Y0157389D01*
X0748412Y0157332D01*
X0748349Y0157277D01*
X0748284Y0157225D01*
X0748216Y0157177D01*
X0748147Y0157131D01*
X0748075Y0157089D01*
X0748002Y0157051D01*
X0747927Y0157015D01*
X0747850Y0156983D01*
X0747771Y0156955D01*
X0747692Y0156931D01*
X0747612Y0156910D01*
X0747531Y0156893D01*
X0747449Y0156879D01*
X0747366Y0156870D01*
X0747283Y0156864D01*
X0747200Y0156862D01*
X0747117Y0156864D01*
X0747034Y0156870D01*
X0746951Y0156879D01*
X0746869Y0156893D01*
X0746788Y0156910D01*
X0746708Y0156931D01*
X0746628Y0156955D01*
X0746550Y0156983D01*
X0746473Y0157015D01*
X0746397Y0157051D01*
X0746324Y0157089D01*
X0746253Y0157131D01*
X0746183Y0157177D01*
X0746116Y0157225D01*
X0746050Y0157277D01*
X0745988Y0157332D01*
X0745928Y0157389D01*
X0745870Y0157449D01*
X0745816Y0157512D01*
X0745764Y0157577D01*
X0745716Y0157644D01*
X0745670Y0157714D01*
X0745628Y0157786D01*
X0745590Y0157859D01*
X0745554Y0157934D01*
X0745522Y0158011D01*
X0745494Y0158089D01*
X0745470Y0158169D01*
X0745449Y0158249D01*
X0745432Y0158330D01*
X0745418Y0158412D01*
X0745408Y0158495D01*
X0745403Y0158578D01*
X0745401Y0158661D01*
X0753574Y0156862D02*
X0755014Y0156862D01*
X0753574Y0156862D02*
X0753511Y0156864D01*
X0753449Y0156869D01*
X0753387Y0156878D01*
X0753325Y0156891D01*
X0753265Y0156907D01*
X0753205Y0156927D01*
X0753147Y0156950D01*
X0753090Y0156977D01*
X0753035Y0157007D01*
X0752981Y0157040D01*
X0752930Y0157076D01*
X0752880Y0157114D01*
X0752834Y0157156D01*
X0752788Y0157201D01*
X0752747Y0157247D01*
X0752709Y0157297D01*
X0752673Y0157348D01*
X0752640Y0157402D01*
X0752610Y0157457D01*
X0752583Y0157514D01*
X0752560Y0157572D01*
X0752540Y0157632D01*
X0752524Y0157692D01*
X0752510Y0157754D01*
X0752502Y0157816D01*
X0752497Y0157878D01*
X0752495Y0157941D01*
X0752495Y0160100D01*
X0752497Y0160163D01*
X0752502Y0160225D01*
X0752510Y0160287D01*
X0752524Y0160349D01*
X0752540Y0160409D01*
X0752560Y0160469D01*
X0752583Y0160527D01*
X0752610Y0160584D01*
X0752640Y0160640D01*
X0752673Y0160692D01*
X0752709Y0160744D01*
X0752747Y0160794D01*
X0752788Y0160840D01*
X0752834Y0160885D01*
X0752880Y0160927D01*
X0752930Y0160965D01*
X0752981Y0161001D01*
X0753035Y0161034D01*
X0753090Y0161064D01*
X0753147Y0161091D01*
X0753205Y0161114D01*
X0753265Y0161134D01*
X0753325Y0161149D01*
X0753387Y0161163D01*
X0753449Y0161172D01*
X0753511Y0161177D01*
X0753574Y0161179D01*
X0755014Y0161179D01*
X0757302Y0161179D02*
X0759461Y0161179D01*
X0758022Y0163338D02*
X0758022Y0157941D01*
X0758024Y0157878D01*
X0758028Y0157816D01*
X0758038Y0157754D01*
X0758051Y0157692D01*
X0758067Y0157632D01*
X0758087Y0157572D01*
X0758110Y0157514D01*
X0758137Y0157457D01*
X0758167Y0157401D01*
X0758199Y0157348D01*
X0758236Y0157297D01*
X0758274Y0157247D01*
X0758316Y0157201D01*
X0758361Y0157156D01*
X0758407Y0157114D01*
X0758456Y0157075D01*
X0758507Y0157039D01*
X0758562Y0157007D01*
X0758617Y0156977D01*
X0758674Y0156950D01*
X0758732Y0156927D01*
X0758792Y0156907D01*
X0758852Y0156891D01*
X0758914Y0156878D01*
X0758976Y0156869D01*
X0759038Y0156864D01*
X0759101Y0156862D01*
X0759461Y0156862D01*
X0762140Y0156862D02*
X0762140Y0157222D01*
X0762500Y0157222D01*
X0762500Y0156862D01*
X0762140Y0156862D01*
X0771380Y0163338D02*
X0771459Y0163336D01*
X0771538Y0163329D01*
X0771618Y0163320D01*
X0771696Y0163307D01*
X0771773Y0163289D01*
X0771850Y0163268D01*
X0771925Y0163243D01*
X0772000Y0163215D01*
X0772072Y0163183D01*
X0772143Y0163146D01*
X0772212Y0163108D01*
X0772279Y0163065D01*
X0772343Y0163019D01*
X0772407Y0162971D01*
X0772467Y0162918D01*
X0772525Y0162864D01*
X0772580Y0162806D01*
X0772632Y0162746D01*
X0772680Y0162683D01*
X0772726Y0162618D01*
X0772769Y0162551D01*
X0772808Y0162482D01*
X0772844Y0162411D01*
X0772876Y0162338D01*
X0772904Y0162263D01*
X0772929Y0162189D01*
X0772950Y0162112D01*
X0772968Y0162034D01*
X0772981Y0161957D01*
X0772991Y0161878D01*
X0772997Y0161798D01*
X0772998Y0161719D01*
X0771380Y0163338D02*
X0771290Y0163336D01*
X0771200Y0163329D01*
X0771110Y0163320D01*
X0771021Y0163307D01*
X0770933Y0163289D01*
X0770845Y0163268D01*
X0770758Y0163243D01*
X0770673Y0163214D01*
X0770589Y0163182D01*
X0770506Y0163145D01*
X0770425Y0163106D01*
X0770346Y0163063D01*
X0770269Y0163016D01*
X0770193Y0162966D01*
X0770120Y0162913D01*
X0770050Y0162856D01*
X0769982Y0162798D01*
X0769916Y0162736D01*
X0769854Y0162671D01*
X0769794Y0162603D01*
X0769736Y0162533D01*
X0769683Y0162460D01*
X0769633Y0162385D01*
X0769585Y0162310D01*
X0769541Y0162231D01*
X0769501Y0162150D01*
X0769464Y0162068D01*
X0769431Y0161984D01*
X0769401Y0161899D01*
X0772459Y0160460D02*
X0772514Y0160515D01*
X0772568Y0160573D01*
X0772617Y0160632D01*
X0772665Y0160695D01*
X0772710Y0160759D01*
X0772752Y0160825D01*
X0772790Y0160893D01*
X0772826Y0160963D01*
X0772858Y0161034D01*
X0772888Y0161107D01*
X0772913Y0161180D01*
X0772936Y0161255D01*
X0772955Y0161331D01*
X0772971Y0161408D01*
X0772983Y0161484D01*
X0772992Y0161563D01*
X0772997Y0161641D01*
X0772998Y0161719D01*
X0772459Y0160460D02*
X0769401Y0156862D01*
X0772998Y0156862D01*
X0776601Y0160100D02*
X0776603Y0160242D01*
X0776609Y0160385D01*
X0776618Y0160527D01*
X0776631Y0160669D01*
X0776648Y0160810D01*
X0776669Y0160951D01*
X0776694Y0161091D01*
X0776722Y0161231D01*
X0776754Y0161369D01*
X0776790Y0161507D01*
X0776829Y0161644D01*
X0776872Y0161780D01*
X0776919Y0161914D01*
X0776969Y0162048D01*
X0777022Y0162179D01*
X0777080Y0162310D01*
X0777141Y0162439D01*
X0777166Y0162506D01*
X0777195Y0162572D01*
X0777227Y0162636D01*
X0777263Y0162698D01*
X0777300Y0162758D01*
X0777343Y0162817D01*
X0777389Y0162872D01*
X0777437Y0162926D01*
X0777488Y0162976D01*
X0777540Y0163024D01*
X0777597Y0163069D01*
X0777656Y0163111D01*
X0777716Y0163149D01*
X0777779Y0163184D01*
X0777843Y0163216D01*
X0777908Y0163244D01*
X0777977Y0163268D01*
X0778045Y0163290D01*
X0778115Y0163307D01*
X0778186Y0163321D01*
X0778257Y0163329D01*
X0778328Y0163336D01*
X0778400Y0163338D01*
X0778472Y0163336D01*
X0778543Y0163329D01*
X0778614Y0163321D01*
X0778685Y0163307D01*
X0778755Y0163290D01*
X0778823Y0163268D01*
X0778891Y0163244D01*
X0778957Y0163216D01*
X0779021Y0163184D01*
X0779084Y0163149D01*
X0779144Y0163111D01*
X0779203Y0163069D01*
X0779259Y0163024D01*
X0779312Y0162976D01*
X0779363Y0162926D01*
X0779411Y0162872D01*
X0779456Y0162817D01*
X0779499Y0162758D01*
X0779537Y0162698D01*
X0779573Y0162636D01*
X0779605Y0162572D01*
X0779634Y0162506D01*
X0779659Y0162439D01*
X0779720Y0162310D01*
X0779777Y0162179D01*
X0779831Y0162048D01*
X0779881Y0161914D01*
X0779928Y0161780D01*
X0779971Y0161644D01*
X0780010Y0161507D01*
X0780046Y0161369D01*
X0780078Y0161231D01*
X0780106Y0161091D01*
X0780131Y0160951D01*
X0780151Y0160810D01*
X0780168Y0160669D01*
X0780182Y0160527D01*
X0780191Y0160385D01*
X0780197Y0160242D01*
X0780199Y0160100D01*
X0776601Y0160100D02*
X0776603Y0159958D01*
X0776609Y0159815D01*
X0776618Y0159673D01*
X0776631Y0159531D01*
X0776648Y0159390D01*
X0776669Y0159249D01*
X0776694Y0159109D01*
X0776722Y0158969D01*
X0776754Y0158831D01*
X0776790Y0158693D01*
X0776829Y0158556D01*
X0776872Y0158420D01*
X0776919Y0158286D01*
X0776969Y0158152D01*
X0777022Y0158021D01*
X0777080Y0157890D01*
X0777141Y0157761D01*
X0777166Y0157694D01*
X0777195Y0157628D01*
X0777227Y0157564D01*
X0777263Y0157502D01*
X0777300Y0157441D01*
X0777343Y0157383D01*
X0777389Y0157328D01*
X0777437Y0157274D01*
X0777488Y0157224D01*
X0777540Y0157176D01*
X0777597Y0157131D01*
X0777656Y0157089D01*
X0777716Y0157051D01*
X0777779Y0157016D01*
X0777843Y0156984D01*
X0777908Y0156956D01*
X0777977Y0156931D01*
X0778045Y0156910D01*
X0778115Y0156893D01*
X0778186Y0156879D01*
X0778257Y0156870D01*
X0778328Y0156864D01*
X0778400Y0156862D01*
X0779659Y0157761D02*
X0779720Y0157890D01*
X0779777Y0158021D01*
X0779831Y0158152D01*
X0779881Y0158286D01*
X0779928Y0158420D01*
X0779971Y0158556D01*
X0780010Y0158693D01*
X0780046Y0158831D01*
X0780078Y0158969D01*
X0780106Y0159109D01*
X0780131Y0159249D01*
X0780151Y0159390D01*
X0780168Y0159531D01*
X0780182Y0159673D01*
X0780191Y0159815D01*
X0780197Y0159958D01*
X0780199Y0160100D01*
X0779659Y0157761D02*
X0779634Y0157694D01*
X0779605Y0157628D01*
X0779573Y0157564D01*
X0779537Y0157502D01*
X0779499Y0157442D01*
X0779456Y0157383D01*
X0779411Y0157328D01*
X0779363Y0157274D01*
X0779312Y0157224D01*
X0779259Y0157176D01*
X0779203Y0157131D01*
X0779144Y0157089D01*
X0779084Y0157051D01*
X0779021Y0157016D01*
X0778957Y0156984D01*
X0778891Y0156956D01*
X0778823Y0156931D01*
X0778755Y0156910D01*
X0778685Y0156893D01*
X0778614Y0156879D01*
X0778543Y0156870D01*
X0778472Y0156864D01*
X0778400Y0156862D01*
X0776961Y0158301D02*
X0779839Y0161899D01*
X0785780Y0163338D02*
X0785859Y0163336D01*
X0785939Y0163329D01*
X0786018Y0163320D01*
X0786096Y0163307D01*
X0786173Y0163289D01*
X0786250Y0163268D01*
X0786324Y0163243D01*
X0786400Y0163215D01*
X0786472Y0163183D01*
X0786543Y0163146D01*
X0786611Y0163108D01*
X0786679Y0163065D01*
X0786744Y0163019D01*
X0786807Y0162971D01*
X0786867Y0162918D01*
X0786925Y0162864D01*
X0786980Y0162806D01*
X0787032Y0162746D01*
X0787080Y0162683D01*
X0787126Y0162618D01*
X0787169Y0162551D01*
X0787208Y0162482D01*
X0787244Y0162411D01*
X0787276Y0162338D01*
X0787304Y0162263D01*
X0787329Y0162189D01*
X0787350Y0162112D01*
X0787368Y0162034D01*
X0787381Y0161957D01*
X0787391Y0161878D01*
X0787397Y0161798D01*
X0787399Y0161719D01*
X0785780Y0163338D02*
X0785690Y0163336D01*
X0785600Y0163329D01*
X0785510Y0163320D01*
X0785421Y0163307D01*
X0785333Y0163289D01*
X0785245Y0163268D01*
X0785158Y0163243D01*
X0785073Y0163214D01*
X0784989Y0163182D01*
X0784906Y0163145D01*
X0784825Y0163106D01*
X0784746Y0163063D01*
X0784669Y0163016D01*
X0784593Y0162966D01*
X0784520Y0162913D01*
X0784449Y0162856D01*
X0784382Y0162798D01*
X0784316Y0162736D01*
X0784254Y0162671D01*
X0784194Y0162603D01*
X0784137Y0162533D01*
X0784083Y0162460D01*
X0784033Y0162385D01*
X0783985Y0162310D01*
X0783941Y0162231D01*
X0783901Y0162150D01*
X0783864Y0162068D01*
X0783831Y0161984D01*
X0783801Y0161899D01*
X0786859Y0160460D02*
X0786915Y0160515D01*
X0786968Y0160573D01*
X0787018Y0160632D01*
X0787065Y0160695D01*
X0787110Y0160759D01*
X0787152Y0160825D01*
X0787189Y0160893D01*
X0787226Y0160963D01*
X0787257Y0161034D01*
X0787288Y0161107D01*
X0787313Y0161180D01*
X0787336Y0161255D01*
X0787355Y0161331D01*
X0787371Y0161408D01*
X0787383Y0161484D01*
X0787392Y0161563D01*
X0787397Y0161641D01*
X0787399Y0161719D01*
X0786859Y0160460D02*
X0783801Y0156862D01*
X0787399Y0156862D01*
X0791001Y0161899D02*
X0792800Y0163338D01*
X0792800Y0156862D01*
X0791001Y0156862D02*
X0794599Y0156862D01*
D12*
X0674500Y0326000D02*
X0649500Y0326000D01*
X0649500Y0174000D01*
X0674500Y0174000D01*
X0674500Y0195000D01*
X0674500Y0305000D01*
X0674500Y0326000D01*
X0674500Y0305000D02*
X0662000Y0305000D01*
X0662000Y0195000D01*
X0674500Y0195000D01*
D10*
X0740000Y0245000D02*
X0740000Y0275000D01*
X0710000Y0275000D01*
X0710000Y0245000D01*
X0740000Y0245000D01*
D13*
X0709290Y0288275D02*
X0709288Y0288344D01*
X0709283Y0288412D01*
X0709273Y0288480D01*
X0709260Y0288548D01*
X0709244Y0288615D01*
X0709224Y0288681D01*
X0709200Y0288745D01*
X0709173Y0288808D01*
X0709141Y0288870D01*
X0709108Y0288930D01*
X0709071Y0288988D01*
X0709031Y0289044D01*
X0708988Y0289097D01*
X0708942Y0289148D01*
X0708893Y0289197D01*
X0708841Y0289243D01*
X0708789Y0289286D01*
X0708733Y0289326D01*
X0708675Y0289363D01*
X0708615Y0289397D01*
X0708553Y0289428D01*
X0708490Y0289455D01*
X0708426Y0289479D01*
X0708360Y0289499D01*
X0708293Y0289515D01*
X0708225Y0289528D01*
X0708156Y0289538D01*
X0708089Y0289543D01*
X0708019Y0289545D01*
X0709290Y0288275D02*
X0709290Y0282925D01*
X0709288Y0282856D01*
X0709283Y0282788D01*
X0709273Y0282720D01*
X0709260Y0282652D01*
X0709244Y0282585D01*
X0709224Y0282519D01*
X0709200Y0282455D01*
X0709173Y0282392D01*
X0709141Y0282330D01*
X0709108Y0282270D01*
X0709071Y0282212D01*
X0709031Y0282156D01*
X0708988Y0282103D01*
X0708942Y0282052D01*
X0708893Y0282003D01*
X0708841Y0281957D01*
X0708789Y0281914D01*
X0708733Y0281874D01*
X0708675Y0281837D01*
X0708615Y0281803D01*
X0708553Y0281772D01*
X0708490Y0281745D01*
X0708426Y0281721D01*
X0708360Y0281701D01*
X0708293Y0281685D01*
X0708225Y0281672D01*
X0708156Y0281662D01*
X0708089Y0281657D01*
X0708019Y0281655D01*
X0693780Y0281655D01*
X0693711Y0281657D01*
X0693643Y0281662D01*
X0693575Y0281672D01*
X0693507Y0281685D01*
X0693439Y0281701D01*
X0693374Y0281721D01*
X0693310Y0281745D01*
X0693247Y0281772D01*
X0693185Y0281803D01*
X0693125Y0281837D01*
X0693067Y0281874D01*
X0693011Y0281914D01*
X0692958Y0281957D01*
X0692907Y0282003D01*
X0692858Y0282052D01*
X0692812Y0282103D01*
X0692769Y0282156D01*
X0692728Y0282212D01*
X0692692Y0282270D01*
X0692658Y0282330D01*
X0692627Y0282392D01*
X0692600Y0282455D01*
X0692576Y0282519D01*
X0692556Y0282585D01*
X0692540Y0282652D01*
X0692527Y0282720D01*
X0692517Y0282788D01*
X0692512Y0282856D01*
X0692510Y0282925D01*
X0692510Y0288275D01*
X0692512Y0288344D01*
X0692517Y0288412D01*
X0692527Y0288480D01*
X0692540Y0288548D01*
X0692556Y0288615D01*
X0692576Y0288681D01*
X0692600Y0288745D01*
X0692627Y0288808D01*
X0692658Y0288870D01*
X0692692Y0288930D01*
X0692728Y0288988D01*
X0692769Y0289044D01*
X0692812Y0289097D01*
X0692858Y0289148D01*
X0692907Y0289197D01*
X0692958Y0289243D01*
X0693011Y0289286D01*
X0693067Y0289326D01*
X0693125Y0289363D01*
X0693185Y0289397D01*
X0693247Y0289428D01*
X0693310Y0289455D01*
X0693374Y0289479D01*
X0693439Y0289499D01*
X0693507Y0289515D01*
X0693575Y0289528D01*
X0693643Y0289538D01*
X0693711Y0289543D01*
X0693780Y0289545D01*
X0708019Y0289545D01*
X0746820Y0225445D02*
X0746889Y0225443D01*
X0746957Y0225438D01*
X0747025Y0225428D01*
X0747093Y0225415D01*
X0747159Y0225399D01*
X0747226Y0225379D01*
X0747290Y0225355D01*
X0747353Y0225328D01*
X0747415Y0225296D01*
X0747475Y0225263D01*
X0747533Y0225226D01*
X0747589Y0225186D01*
X0747642Y0225143D01*
X0747693Y0225097D01*
X0747742Y0225048D01*
X0747788Y0224997D01*
X0747831Y0224944D01*
X0747871Y0224888D01*
X0747908Y0224830D01*
X0747942Y0224770D01*
X0747973Y0224708D01*
X0748000Y0224645D01*
X0748024Y0224581D01*
X0748044Y0224515D01*
X0748060Y0224448D01*
X0748073Y0224380D01*
X0748083Y0224312D01*
X0748088Y0224244D01*
X0748090Y0224175D01*
X0748090Y0218825D01*
X0748088Y0218756D01*
X0748083Y0218688D01*
X0748073Y0218620D01*
X0748060Y0218552D01*
X0748044Y0218485D01*
X0748024Y0218419D01*
X0748000Y0218355D01*
X0747973Y0218292D01*
X0747942Y0218230D01*
X0747908Y0218170D01*
X0747871Y0218112D01*
X0747831Y0218055D01*
X0747788Y0218003D01*
X0747742Y0217952D01*
X0747693Y0217903D01*
X0747642Y0217856D01*
X0747589Y0217813D01*
X0747533Y0217774D01*
X0747475Y0217736D01*
X0747415Y0217703D01*
X0747353Y0217672D01*
X0747290Y0217644D01*
X0747226Y0217621D01*
X0747159Y0217601D01*
X0747093Y0217584D01*
X0747025Y0217572D01*
X0746957Y0217562D01*
X0746889Y0217557D01*
X0746820Y0217554D01*
X0732580Y0217554D01*
X0732510Y0217557D01*
X0732443Y0217562D01*
X0732375Y0217572D01*
X0732307Y0217584D01*
X0732240Y0217601D01*
X0732174Y0217621D01*
X0732110Y0217644D01*
X0732047Y0217672D01*
X0731985Y0217703D01*
X0731925Y0217736D01*
X0731867Y0217774D01*
X0731811Y0217813D01*
X0731758Y0217856D01*
X0731707Y0217903D01*
X0731658Y0217952D01*
X0731611Y0218003D01*
X0731569Y0218055D01*
X0731529Y0218112D01*
X0731492Y0218170D01*
X0731457Y0218230D01*
X0731427Y0218292D01*
X0731400Y0218355D01*
X0731376Y0218419D01*
X0731356Y0218485D01*
X0731340Y0218552D01*
X0731327Y0218620D01*
X0731317Y0218688D01*
X0731312Y0218756D01*
X0731310Y0218825D01*
X0731310Y0224175D01*
X0731312Y0224244D01*
X0731317Y0224312D01*
X0731327Y0224380D01*
X0731340Y0224448D01*
X0731356Y0224515D01*
X0731376Y0224581D01*
X0731400Y0224645D01*
X0731427Y0224708D01*
X0731457Y0224770D01*
X0731492Y0224830D01*
X0731529Y0224888D01*
X0731569Y0224944D01*
X0731611Y0224997D01*
X0731658Y0225048D01*
X0731707Y0225097D01*
X0731758Y0225143D01*
X0731811Y0225186D01*
X0731867Y0225226D01*
X0731925Y0225263D01*
X0731985Y0225296D01*
X0732047Y0225328D01*
X0732110Y0225355D01*
X0732174Y0225379D01*
X0732240Y0225399D01*
X0732307Y0225415D01*
X0732375Y0225428D01*
X0732443Y0225438D01*
X0732510Y0225443D01*
X0732580Y0225445D01*
X0746820Y0225445D01*
D12*
X0775500Y0174000D02*
X0800500Y0174000D01*
X0800500Y0326000D01*
X0775500Y0326000D01*
X0775500Y0305000D01*
X0775500Y0195000D01*
X0775500Y0174000D01*
X0775500Y0195000D02*
X0788000Y0195000D01*
X0788000Y0305000D01*
X0775500Y0305000D01*
D14*
X0705466Y0272180D02*
X0694734Y0272180D01*
X0692694Y0266060D02*
X0692696Y0265971D01*
X0692702Y0265882D01*
X0692711Y0265794D01*
X0692724Y0265706D01*
X0692742Y0265618D01*
X0692764Y0265532D01*
X0692788Y0265447D01*
X0692817Y0265362D01*
X0692848Y0265279D01*
X0692885Y0265198D01*
X0692924Y0265118D01*
X0692967Y0265040D01*
X0693013Y0264964D01*
X0693062Y0264890D01*
X0693116Y0264818D01*
X0693171Y0264749D01*
X0693230Y0264682D01*
X0693292Y0264618D01*
X0693356Y0264556D01*
X0693423Y0264497D01*
X0693492Y0264442D01*
X0693563Y0264389D01*
X0693638Y0264339D01*
X0693714Y0264293D01*
X0693792Y0264250D01*
X0693872Y0264211D01*
X0693953Y0264175D01*
X0694036Y0264143D01*
X0694121Y0264114D01*
X0694206Y0264090D01*
X0694292Y0264068D01*
X0694380Y0264051D01*
X0694468Y0264037D01*
X0694556Y0264028D01*
X0694645Y0264022D01*
X0694734Y0264020D01*
X0705466Y0264020D02*
X0705555Y0264022D01*
X0705644Y0264028D01*
X0705732Y0264037D01*
X0705819Y0264051D01*
X0705908Y0264068D01*
X0705994Y0264090D01*
X0706079Y0264114D01*
X0706164Y0264143D01*
X0706247Y0264175D01*
X0706328Y0264211D01*
X0706408Y0264250D01*
X0706486Y0264293D01*
X0706562Y0264339D01*
X0706636Y0264389D01*
X0706708Y0264442D01*
X0706777Y0264497D01*
X0706844Y0264556D01*
X0706908Y0264618D01*
X0706970Y0264682D01*
X0707029Y0264749D01*
X0707084Y0264818D01*
X0707137Y0264890D01*
X0707187Y0264964D01*
X0707233Y0265040D01*
X0707276Y0265118D01*
X0707315Y0265198D01*
X0707351Y0265279D01*
X0707383Y0265362D01*
X0707412Y0265447D01*
X0707436Y0265532D01*
X0707458Y0265618D01*
X0707475Y0265706D01*
X0707489Y0265794D01*
X0707497Y0265882D01*
X0707504Y0265971D01*
X0707506Y0266060D01*
X0707506Y0270140D02*
X0707504Y0270229D01*
X0707497Y0270318D01*
X0707489Y0270406D01*
X0707475Y0270494D01*
X0707458Y0270582D01*
X0707436Y0270668D01*
X0707412Y0270753D01*
X0707383Y0270838D01*
X0707351Y0270921D01*
X0707315Y0271002D01*
X0707276Y0271082D01*
X0707233Y0271160D01*
X0707187Y0271236D01*
X0707137Y0271310D01*
X0707084Y0271382D01*
X0707029Y0271451D01*
X0706970Y0271518D01*
X0706908Y0271582D01*
X0706844Y0271644D01*
X0706777Y0271703D01*
X0706708Y0271758D01*
X0706636Y0271811D01*
X0706562Y0271861D01*
X0706486Y0271907D01*
X0706408Y0271950D01*
X0706328Y0271989D01*
X0706247Y0272025D01*
X0706164Y0272057D01*
X0706079Y0272086D01*
X0705994Y0272110D01*
X0705908Y0272132D01*
X0705819Y0272149D01*
X0705732Y0272163D01*
X0705644Y0272172D01*
X0705555Y0272178D01*
X0705466Y0272180D01*
X0694734Y0272180D02*
X0694645Y0272178D01*
X0694556Y0272172D01*
X0694468Y0272163D01*
X0694380Y0272149D01*
X0694292Y0272132D01*
X0694206Y0272110D01*
X0694121Y0272086D01*
X0694036Y0272057D01*
X0693953Y0272025D01*
X0693872Y0271989D01*
X0693792Y0271950D01*
X0693714Y0271907D01*
X0693638Y0271861D01*
X0693563Y0271811D01*
X0693492Y0271758D01*
X0693423Y0271703D01*
X0693356Y0271644D01*
X0693292Y0271582D01*
X0693230Y0271518D01*
X0693171Y0271451D01*
X0693116Y0271382D01*
X0693062Y0271310D01*
X0693013Y0271236D01*
X0692967Y0271160D01*
X0692924Y0271082D01*
X0692885Y0271002D01*
X0692848Y0270921D01*
X0692817Y0270838D01*
X0692788Y0270753D01*
X0692764Y0270668D01*
X0692742Y0270582D01*
X0692724Y0270494D01*
X0692711Y0270406D01*
X0692702Y0270318D01*
X0692696Y0270229D01*
X0692694Y0270140D01*
X0692694Y0266060D01*
X0707506Y0266060D02*
X0707506Y0270140D01*
X0705466Y0264020D02*
X0694734Y0264020D01*
X0694834Y0253580D02*
X0705566Y0253580D01*
X0694834Y0245420D02*
X0694745Y0245422D01*
X0694656Y0245428D01*
X0694568Y0245437D01*
X0694480Y0245450D01*
X0694392Y0245467D01*
X0694306Y0245490D01*
X0694221Y0245514D01*
X0694136Y0245542D01*
X0694053Y0245574D01*
X0693972Y0245611D01*
X0693892Y0245649D01*
X0693814Y0245692D01*
X0693738Y0245739D01*
X0693664Y0245789D01*
X0693592Y0245842D01*
X0693523Y0245897D01*
X0693456Y0245955D01*
X0693392Y0246018D01*
X0693330Y0246082D01*
X0693271Y0246149D01*
X0693216Y0246218D01*
X0693163Y0246289D01*
X0693113Y0246364D01*
X0693067Y0246439D01*
X0693024Y0246518D01*
X0692985Y0246598D01*
X0692949Y0246679D01*
X0692917Y0246762D01*
X0692888Y0246847D01*
X0692864Y0246931D01*
X0692842Y0247018D01*
X0692825Y0247106D01*
X0692811Y0247194D01*
X0692801Y0247282D01*
X0692796Y0247370D01*
X0692794Y0247460D01*
X0705566Y0245420D02*
X0705655Y0245422D01*
X0705744Y0245428D01*
X0705832Y0245437D01*
X0705920Y0245450D01*
X0706007Y0245467D01*
X0706093Y0245490D01*
X0706179Y0245514D01*
X0706264Y0245542D01*
X0706347Y0245574D01*
X0706427Y0245611D01*
X0706508Y0245649D01*
X0706586Y0245692D01*
X0706662Y0245739D01*
X0706735Y0245789D01*
X0706808Y0245842D01*
X0706877Y0245897D01*
X0706944Y0245955D01*
X0707008Y0246018D01*
X0707069Y0246082D01*
X0707129Y0246149D01*
X0707184Y0246218D01*
X0707236Y0246289D01*
X0707287Y0246364D01*
X0707333Y0246439D01*
X0707376Y0246518D01*
X0707415Y0246598D01*
X0707450Y0246679D01*
X0707483Y0246762D01*
X0707512Y0246847D01*
X0707536Y0246931D01*
X0707557Y0247018D01*
X0707574Y0247106D01*
X0707589Y0247194D01*
X0707598Y0247282D01*
X0707604Y0247370D01*
X0707606Y0247460D01*
X0707606Y0251540D02*
X0707604Y0251629D01*
X0707598Y0251717D01*
X0707589Y0251805D01*
X0707574Y0251894D01*
X0707557Y0251982D01*
X0707536Y0252068D01*
X0707512Y0252153D01*
X0707483Y0252238D01*
X0707450Y0252321D01*
X0707415Y0252402D01*
X0707376Y0252482D01*
X0707333Y0252560D01*
X0707287Y0252636D01*
X0707236Y0252710D01*
X0707184Y0252781D01*
X0707129Y0252851D01*
X0707069Y0252918D01*
X0707008Y0252982D01*
X0706944Y0253044D01*
X0706877Y0253102D01*
X0706808Y0253158D01*
X0706735Y0253211D01*
X0706662Y0253261D01*
X0706586Y0253307D01*
X0706508Y0253350D01*
X0706427Y0253389D01*
X0706347Y0253425D01*
X0706264Y0253457D01*
X0706179Y0253485D01*
X0706093Y0253510D01*
X0706007Y0253532D01*
X0705920Y0253549D01*
X0705832Y0253562D01*
X0705744Y0253572D01*
X0705655Y0253577D01*
X0705566Y0253580D01*
X0694834Y0253580D02*
X0694745Y0253577D01*
X0694656Y0253572D01*
X0694568Y0253562D01*
X0694480Y0253549D01*
X0694392Y0253532D01*
X0694306Y0253510D01*
X0694221Y0253485D01*
X0694136Y0253457D01*
X0694053Y0253425D01*
X0693972Y0253389D01*
X0693892Y0253350D01*
X0693814Y0253307D01*
X0693738Y0253261D01*
X0693664Y0253211D01*
X0693592Y0253158D01*
X0693523Y0253102D01*
X0693456Y0253044D01*
X0693392Y0252982D01*
X0693330Y0252918D01*
X0693271Y0252851D01*
X0693216Y0252781D01*
X0693163Y0252710D01*
X0693113Y0252636D01*
X0693067Y0252560D01*
X0693024Y0252482D01*
X0692985Y0252402D01*
X0692949Y0252321D01*
X0692917Y0252238D01*
X0692888Y0252153D01*
X0692864Y0252068D01*
X0692842Y0251982D01*
X0692825Y0251894D01*
X0692811Y0251805D01*
X0692801Y0251717D01*
X0692796Y0251629D01*
X0692794Y0251540D01*
X0692794Y0247460D01*
X0707606Y0247460D02*
X0707606Y0251540D01*
X0705566Y0245420D02*
X0694834Y0245420D01*
X0694834Y0235080D02*
X0705566Y0235080D01*
X0694834Y0226920D02*
X0694745Y0226922D01*
X0694656Y0226927D01*
X0694568Y0226937D01*
X0694480Y0226951D01*
X0694392Y0226968D01*
X0694306Y0226989D01*
X0694221Y0227014D01*
X0694136Y0227043D01*
X0694053Y0227075D01*
X0693972Y0227111D01*
X0693892Y0227150D01*
X0693814Y0227193D01*
X0693738Y0227239D01*
X0693664Y0227289D01*
X0693592Y0227342D01*
X0693523Y0227397D01*
X0693456Y0227456D01*
X0693392Y0227518D01*
X0693330Y0227582D01*
X0693271Y0227649D01*
X0693216Y0227718D01*
X0693163Y0227790D01*
X0693113Y0227864D01*
X0693067Y0227940D01*
X0693024Y0228018D01*
X0692985Y0228098D01*
X0692949Y0228179D01*
X0692917Y0228262D01*
X0692888Y0228346D01*
X0692864Y0228432D01*
X0692842Y0228518D01*
X0692825Y0228605D01*
X0692811Y0228694D01*
X0692801Y0228782D01*
X0692796Y0228871D01*
X0692794Y0228960D01*
X0705566Y0226920D02*
X0705655Y0226922D01*
X0705744Y0226927D01*
X0705832Y0226937D01*
X0705920Y0226951D01*
X0706007Y0226968D01*
X0706093Y0226989D01*
X0706179Y0227014D01*
X0706264Y0227043D01*
X0706347Y0227075D01*
X0706427Y0227111D01*
X0706508Y0227150D01*
X0706586Y0227193D01*
X0706662Y0227239D01*
X0706735Y0227289D01*
X0706808Y0227342D01*
X0706877Y0227397D01*
X0706944Y0227456D01*
X0707008Y0227518D01*
X0707069Y0227582D01*
X0707129Y0227649D01*
X0707184Y0227718D01*
X0707236Y0227790D01*
X0707287Y0227864D01*
X0707333Y0227940D01*
X0707376Y0228018D01*
X0707415Y0228098D01*
X0707450Y0228179D01*
X0707483Y0228262D01*
X0707512Y0228346D01*
X0707536Y0228432D01*
X0707557Y0228518D01*
X0707574Y0228605D01*
X0707589Y0228694D01*
X0707598Y0228782D01*
X0707604Y0228871D01*
X0707606Y0228960D01*
X0707606Y0233040D02*
X0707604Y0233129D01*
X0707598Y0233218D01*
X0707589Y0233306D01*
X0707574Y0233393D01*
X0707557Y0233481D01*
X0707536Y0233568D01*
X0707512Y0233652D01*
X0707483Y0233738D01*
X0707450Y0233821D01*
X0707415Y0233902D01*
X0707376Y0233982D01*
X0707333Y0234060D01*
X0707287Y0234136D01*
X0707236Y0234210D01*
X0707184Y0234282D01*
X0707129Y0234350D01*
X0707069Y0234418D01*
X0707008Y0234482D01*
X0706944Y0234544D01*
X0706877Y0234603D01*
X0706808Y0234658D01*
X0706735Y0234711D01*
X0706662Y0234761D01*
X0706586Y0234807D01*
X0706508Y0234850D01*
X0706427Y0234889D01*
X0706347Y0234925D01*
X0706264Y0234957D01*
X0706179Y0234986D01*
X0706093Y0235009D01*
X0706007Y0235032D01*
X0705920Y0235049D01*
X0705832Y0235063D01*
X0705744Y0235071D01*
X0705655Y0235078D01*
X0705566Y0235080D01*
X0694834Y0235080D02*
X0694745Y0235078D01*
X0694656Y0235071D01*
X0694568Y0235063D01*
X0694480Y0235049D01*
X0694392Y0235032D01*
X0694306Y0235009D01*
X0694221Y0234986D01*
X0694136Y0234957D01*
X0694053Y0234925D01*
X0693972Y0234889D01*
X0693892Y0234850D01*
X0693814Y0234807D01*
X0693738Y0234761D01*
X0693664Y0234711D01*
X0693592Y0234658D01*
X0693523Y0234603D01*
X0693456Y0234544D01*
X0693392Y0234482D01*
X0693330Y0234418D01*
X0693271Y0234350D01*
X0693216Y0234282D01*
X0693163Y0234210D01*
X0693113Y0234136D01*
X0693067Y0234060D01*
X0693024Y0233982D01*
X0692985Y0233902D01*
X0692949Y0233821D01*
X0692917Y0233738D01*
X0692888Y0233652D01*
X0692864Y0233568D01*
X0692842Y0233481D01*
X0692825Y0233393D01*
X0692811Y0233306D01*
X0692801Y0233218D01*
X0692796Y0233129D01*
X0692794Y0233040D01*
X0692794Y0228960D01*
X0707606Y0228960D02*
X0707606Y0233040D01*
X0705566Y0226920D02*
X0694834Y0226920D01*
D12*
X0714000Y0223500D02*
X0728000Y0223500D01*
X0728000Y0219500D01*
X0714000Y0219500D01*
X0714000Y0223500D01*
M02*