G04 EAGLE Gerber RS-274X export*
G75*
%MOMM*%
%FSLAX34Y34*%
%LPD*%
%INSolder side*%
%IPPOS*%
%AMOC8*
5,1,8,0,0,$1,22.5*%
G01*
%ADD10R,0.635X1.27*%
%ADD11C,0.7564*%
%ADD12C,0.13*%
%ADD13C,0.15*%
%ADD14C,0.3*%
G36*
X0238248Y0404007D02*
X0238248Y0404007D01*
X0238299Y0404004D01*
X0238419Y0404027D01*
X0238540Y0404041D01*
X0238588Y0404058D01*
X0238640Y0404067D01*
X0238751Y0404117D01*
X0238864Y0404158D01*
X0238909Y0404187D01*
X0238956Y0404208D01*
X0239053Y0404281D01*
X0239153Y0404347D01*
X0239191Y0404385D01*
X0239232Y0404416D01*
X0239309Y0404509D01*
X0239393Y0404597D01*
X0239420Y0404642D01*
X0239453Y0404682D01*
X0239506Y0404791D01*
X0239568Y0404895D01*
X0239583Y0404945D01*
X0239607Y0404992D01*
X0239634Y0405110D01*
X0239670Y0405225D01*
X0239673Y0405278D01*
X0239686Y0405329D01*
X0239686Y0405450D01*
X0239694Y0405571D01*
X0239685Y0405622D01*
X0239685Y0405674D01*
X0239656Y0405792D01*
X0239638Y0405912D01*
X0239618Y0405959D01*
X0239606Y0406011D01*
X0239551Y0406119D01*
X0239504Y0406231D01*
X0239474Y0406273D01*
X0239451Y0406320D01*
X0239374Y0406413D01*
X0239303Y0406511D01*
X0239262Y0406546D01*
X0239230Y0406586D01*
X0239133Y0406659D01*
X0239042Y0406738D01*
X0238995Y0406762D01*
X0238954Y0406794D01*
X0238770Y0406885D01*
X0236786Y0407707D01*
X0232706Y0411786D01*
X0230499Y0417116D01*
X0230499Y0422884D01*
X0232706Y0428213D01*
X0236786Y0432293D01*
X0242116Y0434501D01*
X0247884Y0434501D01*
X0253214Y0432293D01*
X0257293Y0428213D01*
X0259501Y0422884D01*
X0259501Y0417116D01*
X0257293Y0411786D01*
X0253214Y0407707D01*
X0251229Y0406885D01*
X0251184Y0406860D01*
X0251135Y0406841D01*
X0251034Y0406776D01*
X0250928Y0406717D01*
X0250889Y0406682D01*
X0250846Y0406653D01*
X0250762Y0406565D01*
X0250673Y0406484D01*
X0250643Y0406441D01*
X0250607Y0406403D01*
X0250546Y0406298D01*
X0250477Y0406199D01*
X0250458Y0406150D01*
X0250432Y0406105D01*
X0250396Y0405989D01*
X0250353Y0405876D01*
X0250345Y0405824D01*
X0250330Y0405774D01*
X0250322Y0405653D01*
X0250305Y0405534D01*
X0250310Y0405482D01*
X0250306Y0405429D01*
X0250326Y0405310D01*
X0250337Y0405189D01*
X0250354Y0405140D01*
X0250362Y0405088D01*
X0250409Y0404976D01*
X0250447Y0404861D01*
X0250475Y0404817D01*
X0250495Y0404769D01*
X0250566Y0404671D01*
X0250629Y0404568D01*
X0250666Y0404531D01*
X0250696Y0404489D01*
X0250789Y0404409D01*
X0250874Y0404324D01*
X0250919Y0404296D01*
X0250958Y0404262D01*
X0251066Y0404204D01*
X0251167Y0404142D01*
X0251218Y0404126D01*
X0251264Y0404101D01*
X0251381Y0404071D01*
X0251496Y0404033D01*
X0251548Y0404028D01*
X0251599Y0404015D01*
X0251804Y0404001D01*
X0295000Y0404001D01*
X0295035Y0404005D01*
X0295071Y0404002D01*
X0295207Y0404025D01*
X0295343Y0404041D01*
X0295377Y0404052D01*
X0295412Y0404058D01*
X0295539Y0404111D01*
X0295669Y0404158D01*
X0295698Y0404177D01*
X0295731Y0404191D01*
X0295843Y0404272D01*
X0295958Y0404347D01*
X0295983Y0404373D01*
X0296011Y0404393D01*
X0296102Y0404497D01*
X0296197Y0404597D01*
X0296215Y0404628D01*
X0296238Y0404654D01*
X0296302Y0404777D01*
X0296372Y0404895D01*
X0296382Y0404929D01*
X0296399Y0404961D01*
X0296433Y0405094D01*
X0296474Y0405225D01*
X0296476Y0405261D01*
X0296485Y0405295D01*
X0296499Y0405500D01*
X0296499Y0415000D01*
X0296495Y0415035D01*
X0296498Y0415071D01*
X0296475Y0415207D01*
X0296459Y0415343D01*
X0296447Y0415377D01*
X0296442Y0415412D01*
X0296389Y0415539D01*
X0296342Y0415668D01*
X0296323Y0415698D01*
X0296309Y0415730D01*
X0296228Y0415843D01*
X0296153Y0415957D01*
X0296127Y0415983D01*
X0296107Y0416011D01*
X0296003Y0416102D01*
X0295903Y0416197D01*
X0295872Y0416215D01*
X0295846Y0416238D01*
X0295723Y0416302D01*
X0295605Y0416372D01*
X0295571Y0416382D01*
X0295539Y0416399D01*
X0295406Y0416432D01*
X0295274Y0416474D01*
X0295239Y0416475D01*
X0295205Y0416485D01*
X0295000Y0416499D01*
X0283298Y0416499D01*
X0283160Y0416483D01*
X0283021Y0416473D01*
X0282988Y0416462D01*
X0282955Y0416459D01*
X0282824Y0416412D01*
X0282690Y0416370D01*
X0282661Y0416353D01*
X0282630Y0416342D01*
X0282513Y0416266D01*
X0282393Y0416195D01*
X0282359Y0416165D01*
X0282340Y0416153D01*
X0282317Y0416129D01*
X0282286Y0416102D01*
X0280150Y0415217D01*
X0277850Y0415217D01*
X0275724Y0416098D01*
X0274098Y0417724D01*
X0273217Y0419850D01*
X0273217Y0422150D01*
X0273347Y0422464D01*
X0273371Y0422548D01*
X0273405Y0422629D01*
X0273418Y0422714D01*
X0273442Y0422797D01*
X0273446Y0422884D01*
X0273460Y0422971D01*
X0273454Y0423056D01*
X0273458Y0423142D01*
X0273442Y0423228D01*
X0273435Y0423315D01*
X0273410Y0423397D01*
X0273394Y0423482D01*
X0273359Y0423562D01*
X0273333Y0423646D01*
X0273289Y0423720D01*
X0273254Y0423798D01*
X0273202Y0423868D01*
X0273157Y0423943D01*
X0273063Y0424052D01*
X0273046Y0424074D01*
X0273036Y0424082D01*
X0273022Y0424097D01*
X0256499Y0440621D01*
X0256499Y0489379D01*
X0266060Y0498940D01*
X0266135Y0499035D01*
X0266150Y0499050D01*
X0266154Y0499058D01*
X0266238Y0499154D01*
X0266254Y0499184D01*
X0266275Y0499210D01*
X0266334Y0499337D01*
X0266399Y0499461D01*
X0266407Y0499493D01*
X0266422Y0499524D01*
X0266450Y0499660D01*
X0266485Y0499795D01*
X0266488Y0499840D01*
X0266493Y0499861D01*
X0266492Y0499895D01*
X0266499Y0500000D01*
X0266499Y0520000D01*
X0266483Y0520138D01*
X0266473Y0520278D01*
X0266463Y0520310D01*
X0266459Y0520343D01*
X0266412Y0520473D01*
X0266371Y0520608D01*
X0266353Y0520637D01*
X0266342Y0520669D01*
X0266266Y0520785D01*
X0266195Y0520905D01*
X0266165Y0520940D01*
X0266153Y0520957D01*
X0266129Y0520982D01*
X0266060Y0521060D01*
X0256499Y0530621D01*
X0256499Y0559379D01*
X0280621Y0583501D01*
X0295000Y0583501D01*
X0295035Y0583505D01*
X0295071Y0583502D01*
X0295207Y0583525D01*
X0295343Y0583541D01*
X0295377Y0583553D01*
X0295412Y0583558D01*
X0295539Y0583611D01*
X0295669Y0583658D01*
X0295698Y0583678D01*
X0295731Y0583691D01*
X0295843Y0583772D01*
X0295958Y0583847D01*
X0295983Y0583873D01*
X0296011Y0583893D01*
X0296102Y0583998D01*
X0296197Y0584097D01*
X0296215Y0584128D01*
X0296238Y0584154D01*
X0296302Y0584277D01*
X0296372Y0584395D01*
X0296382Y0584429D01*
X0296399Y0584461D01*
X0296433Y0584594D01*
X0296474Y0584726D01*
X0296476Y0584761D01*
X0296485Y0584795D01*
X0296499Y0585000D01*
X0296499Y0594500D01*
X0296495Y0594535D01*
X0296498Y0594571D01*
X0296475Y0594707D01*
X0296459Y0594843D01*
X0296447Y0594877D01*
X0296442Y0594912D01*
X0296389Y0595039D01*
X0296342Y0595169D01*
X0296323Y0595198D01*
X0296309Y0595231D01*
X0296228Y0595343D01*
X0296153Y0595458D01*
X0296127Y0595483D01*
X0296107Y0595511D01*
X0296003Y0595602D01*
X0295903Y0595697D01*
X0295872Y0595715D01*
X0295846Y0595738D01*
X0295723Y0595802D01*
X0295605Y0595872D01*
X0295571Y0595882D01*
X0295539Y0595899D01*
X0295406Y0595933D01*
X0295274Y0595974D01*
X0295239Y0595976D01*
X0295205Y0595985D01*
X0295000Y0595999D01*
X0251804Y0595999D01*
X0251752Y0595993D01*
X0251700Y0595996D01*
X0251580Y0595973D01*
X0251460Y0595959D01*
X0251411Y0595942D01*
X0251360Y0595932D01*
X0251249Y0595883D01*
X0251135Y0595842D01*
X0251090Y0595813D01*
X0251043Y0595792D01*
X0250947Y0595719D01*
X0250846Y0595653D01*
X0250809Y0595615D01*
X0250768Y0595584D01*
X0250690Y0595490D01*
X0250607Y0595403D01*
X0250581Y0595358D01*
X0250547Y0595318D01*
X0250493Y0595209D01*
X0250432Y0595105D01*
X0250417Y0595055D01*
X0250393Y0595008D01*
X0250366Y0594890D01*
X0250330Y0594774D01*
X0250326Y0594722D01*
X0250313Y0594671D01*
X0250315Y0594550D01*
X0250306Y0594429D01*
X0250315Y0594378D01*
X0250315Y0594326D01*
X0250343Y0594208D01*
X0250362Y0594088D01*
X0250382Y0594040D01*
X0250394Y0593989D01*
X0250448Y0593881D01*
X0250495Y0593769D01*
X0250525Y0593727D01*
X0250549Y0593680D01*
X0250626Y0593587D01*
X0250696Y0593489D01*
X0250737Y0593454D01*
X0250769Y0593414D01*
X0250867Y0593341D01*
X0250958Y0593262D01*
X0251005Y0593238D01*
X0251045Y0593206D01*
X0251229Y0593115D01*
X0253214Y0592293D01*
X0257293Y0588214D01*
X0259501Y0582884D01*
X0259501Y0577116D01*
X0257293Y0571786D01*
X0253214Y0567707D01*
X0247884Y0565499D01*
X0242116Y0565499D01*
X0236786Y0567707D01*
X0232706Y0571786D01*
X0230499Y0577116D01*
X0230499Y0582884D01*
X0232706Y0588214D01*
X0236786Y0592293D01*
X0238770Y0593115D01*
X0238816Y0593140D01*
X0238864Y0593158D01*
X0238966Y0593224D01*
X0239072Y0593283D01*
X0239110Y0593318D01*
X0239153Y0593347D01*
X0239238Y0593434D01*
X0239327Y0593516D01*
X0239357Y0593559D01*
X0239393Y0593597D01*
X0239454Y0593701D01*
X0239523Y0593801D01*
X0239542Y0593850D01*
X0239568Y0593895D01*
X0239604Y0594011D01*
X0239647Y0594124D01*
X0239655Y0594176D01*
X0239670Y0594226D01*
X0239678Y0594346D01*
X0239695Y0594466D01*
X0239690Y0594518D01*
X0239694Y0594571D01*
X0239673Y0594690D01*
X0239663Y0594811D01*
X0239646Y0594860D01*
X0239638Y0594912D01*
X0239591Y0595024D01*
X0239553Y0595138D01*
X0239525Y0595183D01*
X0239504Y0595231D01*
X0239434Y0595329D01*
X0239369Y0595432D01*
X0239333Y0595469D01*
X0239303Y0595511D01*
X0239212Y0595591D01*
X0239125Y0595676D01*
X0239080Y0595704D01*
X0239042Y0595738D01*
X0238935Y0595794D01*
X0238832Y0595858D01*
X0238782Y0595875D01*
X0238736Y0595899D01*
X0238618Y0595929D01*
X0238504Y0595967D01*
X0238451Y0595972D01*
X0238401Y0595985D01*
X0238196Y0595999D01*
X0195000Y0595999D01*
X0194965Y0595995D01*
X0194929Y0595998D01*
X0194793Y0595975D01*
X0194656Y0595959D01*
X0194623Y0595947D01*
X0194588Y0595942D01*
X0194461Y0595889D01*
X0194331Y0595842D01*
X0194302Y0595823D01*
X0194269Y0595809D01*
X0194157Y0595728D01*
X0194042Y0595653D01*
X0194016Y0595627D01*
X0193989Y0595607D01*
X0193898Y0595503D01*
X0193802Y0595403D01*
X0193785Y0595372D01*
X0193762Y0595346D01*
X0193697Y0595223D01*
X0193628Y0595105D01*
X0193618Y0595071D01*
X0193601Y0595039D01*
X0193567Y0594906D01*
X0193526Y0594774D01*
X0193524Y0594739D01*
X0193515Y0594705D01*
X0193501Y0594500D01*
X0193501Y0585000D01*
X0193505Y0584965D01*
X0193502Y0584929D01*
X0193525Y0584793D01*
X0193541Y0584657D01*
X0193553Y0584623D01*
X0193558Y0584588D01*
X0193611Y0584461D01*
X0193658Y0584331D01*
X0193678Y0584302D01*
X0193691Y0584269D01*
X0193772Y0584157D01*
X0193847Y0584042D01*
X0193873Y0584017D01*
X0193893Y0583989D01*
X0193998Y0583898D01*
X0194097Y0583803D01*
X0194128Y0583785D01*
X0194153Y0583762D01*
X0194277Y0583698D01*
X0194395Y0583628D01*
X0194429Y0583618D01*
X0194461Y0583601D01*
X0194594Y0583567D01*
X0194726Y0583526D01*
X0194761Y0583524D01*
X0194795Y0583515D01*
X0195000Y0583501D01*
X0209379Y0583501D01*
X0233500Y0559379D01*
X0233500Y0530621D01*
X0223939Y0521060D01*
X0223854Y0520951D01*
X0223762Y0520846D01*
X0223746Y0520816D01*
X0223725Y0520789D01*
X0223665Y0520663D01*
X0223601Y0520539D01*
X0223593Y0520507D01*
X0223578Y0520476D01*
X0223550Y0520340D01*
X0223515Y0520205D01*
X0223512Y0520160D01*
X0223507Y0520138D01*
X0223508Y0520104D01*
X0223501Y0520000D01*
X0223501Y0500000D01*
X0223517Y0499861D01*
X0223527Y0499722D01*
X0223537Y0499690D01*
X0223541Y0499657D01*
X0223588Y0499526D01*
X0223629Y0499392D01*
X0223647Y0499363D01*
X0223658Y0499330D01*
X0223734Y0499215D01*
X0223804Y0499095D01*
X0223834Y0499060D01*
X0223847Y0499042D01*
X0223871Y0499019D01*
X0223939Y0498940D01*
X0233500Y0489379D01*
X0233500Y0440630D01*
X0216887Y0424355D01*
X0216827Y0424281D01*
X0216760Y0424214D01*
X0216718Y0424146D01*
X0216668Y0424086D01*
X0216628Y0424001D01*
X0216578Y0423919D01*
X0216553Y0423845D01*
X0216519Y0423775D01*
X0216499Y0423682D01*
X0216468Y0423592D01*
X0216461Y0423514D01*
X0216444Y0423437D01*
X0216446Y0423342D01*
X0216437Y0423247D01*
X0216448Y0423170D01*
X0216449Y0423091D01*
X0216471Y0422999D01*
X0216484Y0422905D01*
X0216525Y0422787D01*
X0216533Y0422756D01*
X0216540Y0422741D01*
X0216551Y0422710D01*
X0216783Y0422150D01*
X0216783Y0419850D01*
X0215902Y0417724D01*
X0214275Y0416098D01*
X0212150Y0415217D01*
X0209850Y0415217D01*
X0207704Y0416106D01*
X0207653Y0416147D01*
X0207547Y0416238D01*
X0207517Y0416254D01*
X0207491Y0416275D01*
X0207365Y0416334D01*
X0207241Y0416399D01*
X0207208Y0416407D01*
X0207178Y0416422D01*
X0207042Y0416450D01*
X0206906Y0416485D01*
X0206862Y0416488D01*
X0206840Y0416492D01*
X0206805Y0416492D01*
X0206702Y0416499D01*
X0195000Y0416499D01*
X0194965Y0416495D01*
X0194929Y0416498D01*
X0194793Y0416475D01*
X0194656Y0416459D01*
X0194623Y0416447D01*
X0194588Y0416442D01*
X0194461Y0416389D01*
X0194331Y0416342D01*
X0194302Y0416323D01*
X0194269Y0416308D01*
X0194157Y0416228D01*
X0194042Y0416153D01*
X0194016Y0416126D01*
X0193989Y0416107D01*
X0193898Y0416003D01*
X0193802Y0415903D01*
X0193785Y0415872D01*
X0193762Y0415846D01*
X0193697Y0415723D01*
X0193628Y0415605D01*
X0193618Y0415571D01*
X0193601Y0415539D01*
X0193567Y0415406D01*
X0193526Y0415274D01*
X0193524Y0415239D01*
X0193515Y0415205D01*
X0193501Y0415000D01*
X0193501Y0405500D01*
X0193505Y0405465D01*
X0193502Y0405429D01*
X0193525Y0405293D01*
X0193541Y0405157D01*
X0193553Y0405123D01*
X0193558Y0405088D01*
X0193611Y0404961D01*
X0193658Y0404831D01*
X0193678Y0404802D01*
X0193691Y0404769D01*
X0193772Y0404657D01*
X0193847Y0404542D01*
X0193873Y0404517D01*
X0193893Y0404489D01*
X0193998Y0404398D01*
X0194097Y0404303D01*
X0194128Y0404285D01*
X0194153Y0404262D01*
X0194277Y0404198D01*
X0194395Y0404128D01*
X0194429Y0404118D01*
X0194461Y0404101D01*
X0194594Y0404067D01*
X0194726Y0404026D01*
X0194761Y0404024D01*
X0194795Y0404015D01*
X0195000Y0404001D01*
X0238196Y0404001D01*
X0238248Y0404007D01*
G37*
D10*
X0176936Y0545000D03*
X0185064Y0545000D03*
X0176936Y0525000D03*
X0185064Y0525000D03*
X0176936Y0505000D03*
X0185064Y0505000D03*
X0176936Y0485000D03*
X0185064Y0485000D03*
X0176936Y0465000D03*
X0185064Y0465000D03*
D11*
X0245000Y0510000D03*
X0256000Y0502000D03*
X0235000Y0520000D03*
D12*
X0168480Y0411955D02*
X0176472Y0407341D01*
X0168480Y0411955D02*
X0161955Y0418480D01*
X0157341Y0426472D01*
X0154952Y0435386D01*
X0154650Y0440000D01*
X0154650Y0560000D01*
X0154952Y0564614D01*
X0157341Y0573528D01*
X0161955Y0581520D01*
X0168480Y0588045D01*
X0176472Y0592659D01*
X0185386Y0595048D01*
X0190000Y0595350D01*
X0300000Y0595350D01*
X0304614Y0595048D01*
X0313528Y0592659D01*
X0321520Y0588045D01*
X0328045Y0581520D01*
X0332659Y0573528D01*
X0335048Y0564614D01*
X0335349Y0560000D01*
X0335349Y0440000D01*
X0335048Y0435386D01*
X0332659Y0426472D01*
X0328045Y0418480D01*
X0321520Y0411955D01*
X0313528Y0407341D01*
X0304614Y0404951D01*
X0300000Y0404650D01*
X0190000Y0404650D01*
X0185386Y0404951D01*
X0176472Y0407341D01*
X0321432Y0533721D02*
X0321432Y0536279D01*
X0320453Y0538643D01*
X0318643Y0540453D01*
X0316279Y0541432D01*
X0313721Y0541432D01*
X0311357Y0540453D01*
X0309547Y0538643D01*
X0308568Y0536279D01*
X0308568Y0533721D01*
X0308828Y0533093D01*
X0298216Y0523675D01*
X0298124Y0523675D01*
X0297398Y0522949D01*
X0296631Y0522268D01*
X0296625Y0522176D01*
X0296560Y0522111D01*
X0296560Y0521084D01*
X0296499Y0520060D01*
X0296560Y0519991D01*
X0296560Y0458335D01*
X0289594Y0451370D01*
X0281756Y0451370D01*
X0281353Y0452343D01*
X0279543Y0454153D01*
X0277179Y0455132D01*
X0274621Y0455132D01*
X0272257Y0454153D01*
X0270447Y0452343D01*
X0269468Y0449979D01*
X0269468Y0447421D01*
X0270447Y0445057D01*
X0272257Y0443247D01*
X0274621Y0442268D01*
X0277179Y0442268D01*
X0279543Y0443247D01*
X0281270Y0444974D01*
X0280568Y0443279D01*
X0280568Y0441312D01*
X0280279Y0441432D01*
X0277721Y0441432D01*
X0275357Y0440453D01*
X0273547Y0438643D01*
X0272568Y0436278D01*
X0272568Y0433721D01*
X0273547Y0431357D01*
X0275357Y0429547D01*
X0277721Y0428568D01*
X0280279Y0428568D01*
X0280568Y0428688D01*
X0280568Y0427312D01*
X0280279Y0427432D01*
X0277721Y0427432D01*
X0275357Y0426453D01*
X0273547Y0424643D01*
X0272568Y0422279D01*
X0272568Y0419721D01*
X0273547Y0417357D01*
X0275357Y0415546D01*
X0277721Y0414568D01*
X0280279Y0414568D01*
X0282643Y0415546D01*
X0284453Y0417357D01*
X0284856Y0418330D01*
X0292106Y0418330D01*
X0316106Y0442329D01*
X0317670Y0443894D01*
X0317670Y0449144D01*
X0318643Y0449547D01*
X0320453Y0451357D01*
X0321432Y0453721D01*
X0321432Y0456278D01*
X0320453Y0458643D01*
X0318643Y0460453D01*
X0316279Y0461432D01*
X0313721Y0461432D01*
X0311357Y0460453D01*
X0310670Y0459766D01*
X0310670Y0469894D01*
X0310840Y0470064D01*
X0311357Y0469547D01*
X0313721Y0468568D01*
X0316279Y0468568D01*
X0318643Y0469547D01*
X0320453Y0471357D01*
X0321432Y0473721D01*
X0321432Y0476278D01*
X0320453Y0478643D01*
X0318643Y0480453D01*
X0316279Y0481432D01*
X0313721Y0481432D01*
X0311357Y0480453D01*
X0309547Y0478643D01*
X0308568Y0476278D01*
X0308568Y0475344D01*
X0307670Y0474446D01*
X0307670Y0485416D01*
X0312205Y0489196D01*
X0313721Y0488568D01*
X0316279Y0488568D01*
X0318643Y0489547D01*
X0320453Y0491357D01*
X0321432Y0493721D01*
X0321432Y0496278D01*
X0320453Y0498643D01*
X0318643Y0500453D01*
X0316279Y0501432D01*
X0313721Y0501432D01*
X0311357Y0500453D01*
X0309547Y0498643D01*
X0308568Y0496278D01*
X0308568Y0493721D01*
X0308754Y0493271D01*
X0304900Y0490058D01*
X0304900Y0502738D01*
X0312316Y0509150D01*
X0313721Y0508568D01*
X0316279Y0508568D01*
X0318643Y0509547D01*
X0320453Y0511357D01*
X0321432Y0513721D01*
X0321432Y0516278D01*
X0320453Y0518643D01*
X0318643Y0520453D01*
X0316279Y0521432D01*
X0313721Y0521432D01*
X0311357Y0520453D01*
X0309547Y0518643D01*
X0308568Y0516278D01*
X0308568Y0513721D01*
X0308797Y0513167D01*
X0301900Y0507203D01*
X0301900Y0519805D01*
X0312394Y0529118D01*
X0313721Y0528568D01*
X0316279Y0528568D01*
X0318643Y0529547D01*
X0320453Y0531357D01*
X0321432Y0533721D01*
X0204432Y0526279D02*
X0204432Y0523721D01*
X0204432Y0526279D02*
X0203453Y0528643D01*
X0201643Y0530453D01*
X0199279Y0531432D01*
X0196721Y0531432D01*
X0194357Y0530453D01*
X0192547Y0528643D01*
X0192144Y0527670D01*
X0190889Y0527670D01*
X0190889Y0532448D01*
X0189337Y0534000D01*
X0187734Y0534000D01*
X0187734Y0536000D01*
X0189337Y0536000D01*
X0190889Y0537552D01*
X0190889Y0552448D01*
X0189337Y0554000D01*
X0172663Y0554000D01*
X0171111Y0552448D01*
X0171111Y0549314D01*
X0170547Y0548750D01*
X0169568Y0546386D01*
X0169568Y0543828D01*
X0170547Y0541464D01*
X0171111Y0540900D01*
X0171111Y0539951D01*
X0159644Y0528484D01*
X0158080Y0526920D01*
X0158080Y0454452D01*
X0159644Y0452888D01*
X0159644Y0452888D01*
X0192638Y0419894D01*
X0192638Y0419894D01*
X0194202Y0418330D01*
X0205144Y0418330D01*
X0205547Y0417357D01*
X0207357Y0415546D01*
X0209721Y0414568D01*
X0212278Y0414568D01*
X0214643Y0415546D01*
X0216453Y0417357D01*
X0217432Y0419721D01*
X0217432Y0422279D01*
X0216453Y0424643D01*
X0214643Y0426453D01*
X0212278Y0427432D01*
X0209721Y0427432D01*
X0209432Y0427312D01*
X0209432Y0428688D01*
X0209721Y0428568D01*
X0212278Y0428568D01*
X0214643Y0429547D01*
X0216453Y0431357D01*
X0217432Y0433721D01*
X0217432Y0436278D01*
X0216453Y0438643D01*
X0214643Y0440453D01*
X0212278Y0441432D01*
X0209721Y0441432D01*
X0209432Y0441312D01*
X0209432Y0443279D01*
X0208453Y0445643D01*
X0206643Y0447453D01*
X0204279Y0448432D01*
X0201721Y0448432D01*
X0199357Y0447453D01*
X0197547Y0445643D01*
X0197144Y0444670D01*
X0187166Y0444670D01*
X0175836Y0456000D01*
X0189337Y0456000D01*
X0190889Y0457552D01*
X0190889Y0472448D01*
X0189337Y0474000D01*
X0187734Y0474000D01*
X0187734Y0476000D01*
X0189337Y0476000D01*
X0190889Y0477552D01*
X0190889Y0492448D01*
X0189337Y0494000D01*
X0187734Y0494000D01*
X0187734Y0496000D01*
X0189337Y0496000D01*
X0190889Y0497552D01*
X0190889Y0512448D01*
X0189337Y0514000D01*
X0187734Y0514000D01*
X0187734Y0516000D01*
X0189337Y0516000D01*
X0190889Y0517552D01*
X0190889Y0522330D01*
X0192144Y0522330D01*
X0192547Y0521357D01*
X0194357Y0519547D01*
X0196721Y0518568D01*
X0199279Y0518568D01*
X0201643Y0519547D01*
X0203453Y0521357D01*
X0204432Y0523721D01*
X0260150Y0576986D02*
X0260150Y0583014D01*
X0257843Y0588582D01*
X0253582Y0592844D01*
X0248014Y0595150D01*
X0241986Y0595150D01*
X0236418Y0592844D01*
X0232156Y0588582D01*
X0229850Y0583014D01*
X0229850Y0576986D01*
X0232156Y0571418D01*
X0236418Y0567156D01*
X0241986Y0564850D01*
X0248014Y0564850D01*
X0253582Y0567156D01*
X0257843Y0571418D01*
X0260150Y0576986D01*
X0260150Y0423014D02*
X0260150Y0416986D01*
X0260150Y0423014D02*
X0257843Y0428581D01*
X0253582Y0432844D01*
X0248014Y0435150D01*
X0241986Y0435150D01*
X0236418Y0432844D01*
X0232156Y0428581D01*
X0229850Y0423014D01*
X0229850Y0416986D01*
X0232156Y0411418D01*
X0236418Y0407156D01*
X0241986Y0404850D01*
X0248014Y0404850D01*
X0253582Y0407156D01*
X0257843Y0411418D01*
X0260150Y0416986D01*
X0236796Y0407000D02*
X0177744Y0407000D01*
X0253204Y0407000D02*
X0312256Y0407000D01*
X0233074Y0410500D02*
X0171000Y0410500D01*
X0256925Y0410500D02*
X0319000Y0410500D01*
X0231087Y0414000D02*
X0166435Y0414000D01*
X0258913Y0414000D02*
X0323564Y0414000D01*
X0205488Y0417500D02*
X0162935Y0417500D01*
X0216512Y0417500D02*
X0229850Y0417500D01*
X0260150Y0417500D02*
X0273488Y0417500D01*
X0284512Y0417500D02*
X0327065Y0417500D01*
X0191531Y0421000D02*
X0160500Y0421000D01*
X0217432Y0421000D02*
X0229850Y0421000D01*
X0260150Y0421000D02*
X0272568Y0421000D01*
X0294776Y0421000D02*
X0329500Y0421000D01*
X0188032Y0424500D02*
X0158479Y0424500D01*
X0216512Y0424500D02*
X0230465Y0424500D01*
X0259534Y0424500D02*
X0273488Y0424500D01*
X0298276Y0424500D02*
X0331521Y0424500D01*
X0184532Y0428000D02*
X0156931Y0428000D01*
X0209432Y0428000D02*
X0231914Y0428000D01*
X0258085Y0428000D02*
X0280568Y0428000D01*
X0301776Y0428000D02*
X0333069Y0428000D01*
X0181032Y0431500D02*
X0155994Y0431500D01*
X0216512Y0431500D02*
X0235075Y0431500D01*
X0254925Y0431500D02*
X0273488Y0431500D01*
X0305276Y0431500D02*
X0334006Y0431500D01*
X0177532Y0435000D02*
X0155056Y0435000D01*
X0217432Y0435000D02*
X0241623Y0435000D01*
X0248376Y0435000D02*
X0272568Y0435000D01*
X0308776Y0435000D02*
X0334944Y0435000D01*
X0174031Y0438500D02*
X0154748Y0438500D01*
X0216512Y0438500D02*
X0273488Y0438500D01*
X0312276Y0438500D02*
X0335252Y0438500D01*
X0170532Y0442000D02*
X0154650Y0442000D01*
X0209432Y0442000D02*
X0280568Y0442000D01*
X0315776Y0442000D02*
X0335349Y0442000D01*
X0167032Y0445500D02*
X0154650Y0445500D01*
X0186336Y0445500D02*
X0197488Y0445500D01*
X0208512Y0445500D02*
X0270264Y0445500D01*
X0317670Y0445500D02*
X0335349Y0445500D01*
X0163532Y0449000D02*
X0154650Y0449000D01*
X0182836Y0449000D02*
X0269468Y0449000D01*
X0317670Y0449000D02*
X0335349Y0449000D01*
X0160032Y0452500D02*
X0154650Y0452500D01*
X0179335Y0452500D02*
X0270604Y0452500D01*
X0281196Y0452500D02*
X0290724Y0452500D01*
X0320926Y0452500D02*
X0335349Y0452500D01*
X0158080Y0456000D02*
X0154650Y0456000D01*
X0189337Y0456000D02*
X0294224Y0456000D01*
X0321432Y0456000D02*
X0335349Y0456000D01*
X0158080Y0459500D02*
X0154650Y0459500D01*
X0190889Y0459500D02*
X0296560Y0459500D01*
X0319596Y0459500D02*
X0335349Y0459500D01*
X0158080Y0463000D02*
X0154650Y0463000D01*
X0190889Y0463000D02*
X0296560Y0463000D01*
X0310670Y0463000D02*
X0335349Y0463000D01*
X0158080Y0466500D02*
X0154650Y0466500D01*
X0190889Y0466500D02*
X0296560Y0466500D01*
X0310670Y0466500D02*
X0335349Y0466500D01*
X0158080Y0470000D02*
X0154650Y0470000D01*
X0190889Y0470000D02*
X0296560Y0470000D01*
X0310776Y0470000D02*
X0310904Y0470000D01*
X0319096Y0470000D02*
X0335349Y0470000D01*
X0158080Y0473500D02*
X0154650Y0473500D01*
X0189837Y0473500D02*
X0296560Y0473500D01*
X0321341Y0473500D02*
X0335349Y0473500D01*
X0158080Y0477000D02*
X0154650Y0477000D01*
X0190337Y0477000D02*
X0296560Y0477000D01*
X0307670Y0477000D02*
X0308867Y0477000D01*
X0321134Y0477000D02*
X0335349Y0477000D01*
X0158080Y0480500D02*
X0154650Y0480500D01*
X0190889Y0480500D02*
X0296560Y0480500D01*
X0307670Y0480500D02*
X0311471Y0480500D01*
X0318529Y0480500D02*
X0335349Y0480500D01*
X0158080Y0484000D02*
X0154650Y0484000D01*
X0190889Y0484000D02*
X0296560Y0484000D01*
X0307670Y0484000D02*
X0335349Y0484000D01*
X0158080Y0487500D02*
X0154650Y0487500D01*
X0190889Y0487500D02*
X0296560Y0487500D01*
X0310171Y0487500D02*
X0335349Y0487500D01*
X0158080Y0491000D02*
X0154650Y0491000D01*
X0190889Y0491000D02*
X0296560Y0491000D01*
X0304900Y0491000D02*
X0306029Y0491000D01*
X0320096Y0491000D02*
X0335349Y0491000D01*
X0158080Y0494500D02*
X0154650Y0494500D01*
X0187734Y0494500D02*
X0296560Y0494500D01*
X0304900Y0494500D02*
X0308568Y0494500D01*
X0321432Y0494500D02*
X0335349Y0494500D01*
X0158080Y0498000D02*
X0154650Y0498000D01*
X0190889Y0498000D02*
X0296560Y0498000D01*
X0304900Y0498000D02*
X0309281Y0498000D01*
X0320719Y0498000D02*
X0335349Y0498000D01*
X0158080Y0501500D02*
X0154650Y0501500D01*
X0190889Y0501500D02*
X0296560Y0501500D01*
X0304900Y0501500D02*
X0335349Y0501500D01*
X0158080Y0505000D02*
X0154650Y0505000D01*
X0190889Y0505000D02*
X0296560Y0505000D01*
X0307516Y0505000D02*
X0335349Y0505000D01*
X0158080Y0508500D02*
X0154650Y0508500D01*
X0190889Y0508500D02*
X0296560Y0508500D01*
X0301900Y0508500D02*
X0303400Y0508500D01*
X0311564Y0508500D02*
X0335349Y0508500D01*
X0158080Y0512000D02*
X0154650Y0512000D01*
X0190889Y0512000D02*
X0296560Y0512000D01*
X0301900Y0512000D02*
X0307448Y0512000D01*
X0320719Y0512000D02*
X0335349Y0512000D01*
X0158080Y0515500D02*
X0154650Y0515500D01*
X0187734Y0515500D02*
X0296560Y0515500D01*
X0301900Y0515500D02*
X0308568Y0515500D01*
X0321432Y0515500D02*
X0335349Y0515500D01*
X0158080Y0519000D02*
X0154650Y0519000D01*
X0190889Y0519000D02*
X0195677Y0519000D01*
X0200322Y0519000D02*
X0296560Y0519000D01*
X0301900Y0519000D02*
X0309904Y0519000D01*
X0320096Y0519000D02*
X0335349Y0519000D01*
X0158080Y0522500D02*
X0154650Y0522500D01*
X0203926Y0522500D02*
X0296892Y0522500D01*
X0304937Y0522500D02*
X0335349Y0522500D01*
X0158080Y0526000D02*
X0154650Y0526000D01*
X0204432Y0526000D02*
X0300836Y0526000D01*
X0308881Y0526000D02*
X0335349Y0526000D01*
X0160660Y0529500D02*
X0154650Y0529500D01*
X0190889Y0529500D02*
X0193404Y0529500D01*
X0202596Y0529500D02*
X0304780Y0529500D01*
X0318529Y0529500D02*
X0335349Y0529500D01*
X0164160Y0533000D02*
X0154650Y0533000D01*
X0190337Y0533000D02*
X0308724Y0533000D01*
X0321132Y0533000D02*
X0335349Y0533000D01*
X0167659Y0536500D02*
X0154650Y0536500D01*
X0189837Y0536500D02*
X0308659Y0536500D01*
X0321341Y0536500D02*
X0335349Y0536500D01*
X0171111Y0540000D02*
X0154650Y0540000D01*
X0190889Y0540000D02*
X0310904Y0540000D01*
X0319096Y0540000D02*
X0335349Y0540000D01*
X0169704Y0543500D02*
X0154650Y0543500D01*
X0190889Y0543500D02*
X0335349Y0543500D01*
X0169822Y0547000D02*
X0154650Y0547000D01*
X0190889Y0547000D02*
X0335349Y0547000D01*
X0171111Y0550500D02*
X0154650Y0550500D01*
X0190889Y0550500D02*
X0335349Y0550500D01*
X0335349Y0554000D02*
X0154650Y0554000D01*
X0154650Y0557500D02*
X0335349Y0557500D01*
X0335284Y0561000D02*
X0154716Y0561000D01*
X0154945Y0564500D02*
X0335055Y0564500D01*
X0235574Y0568000D02*
X0155860Y0568000D01*
X0254425Y0568000D02*
X0334140Y0568000D01*
X0232123Y0571500D02*
X0156797Y0571500D01*
X0257877Y0571500D02*
X0333202Y0571500D01*
X0230673Y0575000D02*
X0158191Y0575000D01*
X0259327Y0575000D02*
X0331809Y0575000D01*
X0229850Y0578500D02*
X0160212Y0578500D01*
X0260150Y0578500D02*
X0329788Y0578500D01*
X0229850Y0582000D02*
X0162435Y0582000D01*
X0260150Y0582000D02*
X0327565Y0582000D01*
X0230880Y0585500D02*
X0165935Y0585500D01*
X0259120Y0585500D02*
X0324065Y0585500D01*
X0232575Y0589000D02*
X0170134Y0589000D01*
X0257425Y0589000D02*
X0319866Y0589000D01*
X0236075Y0592500D02*
X0176197Y0592500D01*
X0253924Y0592500D02*
X0313803Y0592500D01*
X0157000Y0572256D02*
X0157000Y0427744D01*
X0160500Y0421000D02*
X0160500Y0452032D01*
X0160500Y0529340D02*
X0160500Y0579000D01*
X0164000Y0448532D02*
X0164000Y0416435D01*
X0164000Y0532840D02*
X0164000Y0583565D01*
X0167500Y0445032D02*
X0167500Y0412935D01*
X0167500Y0536340D02*
X0167500Y0587065D01*
X0171000Y0441532D02*
X0171000Y0410500D01*
X0171000Y0539840D02*
X0171000Y0541011D01*
X0171000Y0549203D02*
X0171000Y0589500D01*
X0174500Y0438031D02*
X0174500Y0408479D01*
X0174500Y0554000D02*
X0174500Y0591521D01*
X0178000Y0434532D02*
X0178000Y0406931D01*
X0178000Y0453836D02*
X0178000Y0456000D01*
X0178000Y0554000D02*
X0178000Y0593069D01*
X0181500Y0431032D02*
X0181500Y0405994D01*
X0181500Y0450336D02*
X0181500Y0456000D01*
X0181500Y0554000D02*
X0181500Y0594006D01*
X0185000Y0427532D02*
X0185000Y0405056D01*
X0185000Y0446836D02*
X0185000Y0456000D01*
X0185000Y0554000D02*
X0185000Y0594944D01*
X0188500Y0424032D02*
X0188500Y0404748D01*
X0188500Y0444670D02*
X0188500Y0456000D01*
X0188500Y0474000D02*
X0188500Y0476000D01*
X0188500Y0494000D02*
X0188500Y0496000D01*
X0188500Y0514000D02*
X0188500Y0516000D01*
X0188500Y0534000D02*
X0188500Y0536000D01*
X0188500Y0554000D02*
X0188500Y0595252D01*
X0192000Y0420531D02*
X0192000Y0404650D01*
X0192000Y0444670D02*
X0192000Y0522330D01*
X0192000Y0527670D02*
X0192000Y0595350D01*
X0195500Y0418330D02*
X0195500Y0404650D01*
X0195500Y0444670D02*
X0195500Y0519074D01*
X0195500Y0530926D02*
X0195500Y0595350D01*
X0199000Y0418330D02*
X0199000Y0404650D01*
X0199000Y0447096D02*
X0199000Y0518568D01*
X0199000Y0531432D02*
X0199000Y0595350D01*
X0202500Y0418330D02*
X0202500Y0404650D01*
X0202500Y0448432D02*
X0202500Y0520404D01*
X0202500Y0529596D02*
X0202500Y0595350D01*
X0206000Y0416903D02*
X0206000Y0404650D01*
X0206000Y0447719D02*
X0206000Y0595350D01*
X0209500Y0414659D02*
X0209500Y0404650D01*
X0209500Y0427341D02*
X0209500Y0428658D01*
X0209500Y0441341D02*
X0209500Y0595350D01*
X0213000Y0414866D02*
X0213000Y0404650D01*
X0213000Y0427132D02*
X0213000Y0428866D01*
X0213000Y0441133D02*
X0213000Y0595350D01*
X0216500Y0417471D02*
X0216500Y0404650D01*
X0216500Y0424529D02*
X0216500Y0431471D01*
X0216500Y0438529D02*
X0216500Y0595350D01*
X0220000Y0595350D02*
X0220000Y0404650D01*
X0223500Y0404650D02*
X0223500Y0595350D01*
X0227000Y0595350D02*
X0227000Y0404650D01*
X0230500Y0404650D02*
X0230500Y0415417D01*
X0230500Y0424583D02*
X0230500Y0575417D01*
X0230500Y0584583D02*
X0230500Y0595350D01*
X0234000Y0409575D02*
X0234000Y0404650D01*
X0234000Y0430424D02*
X0234000Y0569575D01*
X0234000Y0590425D02*
X0234000Y0595350D01*
X0237500Y0406708D02*
X0237500Y0404650D01*
X0237500Y0433292D02*
X0237500Y0566708D01*
X0237500Y0593292D02*
X0237500Y0595350D01*
X0241000Y0405259D02*
X0241000Y0404650D01*
X0241000Y0434741D02*
X0241000Y0565259D01*
X0241000Y0594741D02*
X0241000Y0595350D01*
X0244500Y0404850D02*
X0244500Y0404650D01*
X0244500Y0435150D02*
X0244500Y0564850D01*
X0244500Y0595150D02*
X0244500Y0595350D01*
X0248000Y0404850D02*
X0248000Y0404650D01*
X0248000Y0435150D02*
X0248000Y0564850D01*
X0248000Y0595150D02*
X0248000Y0595350D01*
X0251500Y0406293D02*
X0251500Y0404650D01*
X0251500Y0433706D02*
X0251500Y0566294D01*
X0251500Y0593706D02*
X0251500Y0595350D01*
X0255000Y0408575D02*
X0255000Y0404650D01*
X0255000Y0431425D02*
X0255000Y0568575D01*
X0255000Y0591425D02*
X0255000Y0595350D01*
X0258500Y0413003D02*
X0258500Y0404650D01*
X0258500Y0426997D02*
X0258500Y0573003D01*
X0258500Y0586997D02*
X0258500Y0595350D01*
X0262000Y0595350D02*
X0262000Y0404650D01*
X0265500Y0404650D02*
X0265500Y0595350D01*
X0269000Y0595350D02*
X0269000Y0404650D01*
X0272500Y0404650D02*
X0272500Y0443146D01*
X0272500Y0454253D02*
X0272500Y0595350D01*
X0276000Y0415281D02*
X0276000Y0404650D01*
X0276000Y0426719D02*
X0276000Y0429281D01*
X0276000Y0440719D02*
X0276000Y0442268D01*
X0276000Y0455132D02*
X0276000Y0595350D01*
X0279500Y0414568D02*
X0279500Y0404650D01*
X0279500Y0427432D02*
X0279500Y0428568D01*
X0279500Y0441432D02*
X0279500Y0443228D01*
X0279500Y0454171D02*
X0279500Y0595350D01*
X0283000Y0415904D02*
X0283000Y0404650D01*
X0283000Y0451370D02*
X0283000Y0595350D01*
X0286500Y0418330D02*
X0286500Y0404650D01*
X0286500Y0451370D02*
X0286500Y0595350D01*
X0290000Y0418330D02*
X0290000Y0404650D01*
X0290000Y0451776D02*
X0290000Y0595350D01*
X0293500Y0419724D02*
X0293500Y0404650D01*
X0293500Y0455276D02*
X0293500Y0595350D01*
X0297000Y0423224D02*
X0297000Y0404650D01*
X0297000Y0522596D02*
X0297000Y0595350D01*
X0300500Y0426724D02*
X0300500Y0404683D01*
X0300500Y0525702D02*
X0300500Y0595317D01*
X0304000Y0430224D02*
X0304000Y0404912D01*
X0304000Y0509019D02*
X0304000Y0521668D01*
X0304000Y0528808D02*
X0304000Y0595088D01*
X0307500Y0433724D02*
X0307500Y0405726D01*
X0307500Y0492226D02*
X0307500Y0504985D01*
X0307500Y0512044D02*
X0307500Y0524774D01*
X0307500Y0531914D02*
X0307500Y0594274D01*
X0311000Y0437224D02*
X0311000Y0406664D01*
X0311000Y0460096D02*
X0311000Y0469904D01*
X0311000Y0480096D02*
X0311000Y0488191D01*
X0311000Y0500096D02*
X0311000Y0508012D01*
X0311000Y0520096D02*
X0311000Y0527880D01*
X0311000Y0540096D02*
X0311000Y0593336D01*
X0314500Y0440724D02*
X0314500Y0407902D01*
X0314500Y0461432D02*
X0314500Y0468568D01*
X0314500Y0481432D02*
X0314500Y0488568D01*
X0314500Y0501432D02*
X0314500Y0508568D01*
X0314500Y0521432D02*
X0314500Y0528568D01*
X0314500Y0541432D02*
X0314500Y0592098D01*
X0318000Y0449281D02*
X0318000Y0409923D01*
X0318000Y0460719D02*
X0318000Y0469281D01*
X0318000Y0480719D02*
X0318000Y0489281D01*
X0318000Y0500719D02*
X0318000Y0509281D01*
X0318000Y0520719D02*
X0318000Y0529281D01*
X0318000Y0540719D02*
X0318000Y0590077D01*
X0321500Y0588056D02*
X0321500Y0411944D01*
X0325000Y0415435D02*
X0325000Y0584565D01*
X0328500Y0580732D02*
X0328500Y0419268D01*
X0332000Y0425331D02*
X0332000Y0574670D01*
D11*
X0162500Y0425000D03*
X0162500Y0433500D03*
X0162500Y0442000D03*
X0327500Y0433500D03*
X0327500Y0442000D03*
X0327500Y0425000D03*
X0327500Y0570000D03*
X0327500Y0560000D03*
X0305000Y0590000D03*
X0162500Y0560000D03*
X0181500Y0590000D03*
X0162500Y0570000D03*
X0226500Y0472500D03*
X0203700Y0545900D03*
X0262900Y0480800D03*
X0198500Y0464500D03*
X0207500Y0464500D03*
X0290500Y0535500D03*
X0216000Y0456000D03*
X0274000Y0545000D03*
X0282000Y0535500D03*
D13*
X0185064Y0545000D02*
X0185064Y0525000D01*
X0185064Y0505000D01*
X0185064Y0485000D01*
X0185064Y0465000D01*
D11*
X0198000Y0525000D03*
D13*
X0185064Y0525000D01*
D11*
X0175893Y0525000D03*
D14*
X0176936Y0525000D01*
D13*
X0176936Y0521936D01*
X0163520Y0508520D01*
X0163520Y0456704D01*
X0308000Y0471000D02*
X0312000Y0475000D01*
X0315000Y0475000D01*
D11*
X0315000Y0475000D03*
X0203000Y0428000D03*
X0287000Y0428000D03*
D13*
X0192225Y0428000D02*
X0163520Y0456704D01*
X0192225Y0428000D02*
X0203000Y0428000D01*
X0291000Y0428000D02*
X0308000Y0445000D01*
X0291000Y0428000D02*
X0287000Y0428000D01*
X0308000Y0445000D02*
X0308000Y0471000D01*
D11*
X0176000Y0505107D03*
D14*
X0176107Y0505000D02*
X0176936Y0505000D01*
X0176107Y0505000D02*
X0176000Y0505107D01*
D13*
X0176936Y0505000D02*
X0176936Y0501646D01*
X0166290Y0491000D01*
X0166290Y0457853D02*
X0189143Y0435000D01*
X0166290Y0457853D02*
X0166290Y0491000D01*
X0305000Y0486667D02*
X0315000Y0495000D01*
D11*
X0315000Y0495000D03*
X0211000Y0435000D03*
X0279000Y0435000D03*
D13*
X0211000Y0435000D02*
X0189143Y0435000D01*
X0279000Y0435000D02*
X0291238Y0435000D01*
X0305000Y0448762D01*
X0305000Y0486667D01*
D11*
X0176000Y0485107D03*
D14*
X0176107Y0485000D02*
X0176936Y0485000D01*
X0176107Y0485000D02*
X0176000Y0485107D01*
D13*
X0176936Y0485000D02*
X0176936Y0481876D01*
X0169060Y0474000D01*
X0169060Y0459000D01*
D11*
X0315000Y0515000D03*
D13*
X0302230Y0503959D02*
X0302230Y0453230D01*
X0302230Y0503959D02*
X0315000Y0515000D01*
D11*
X0203000Y0442000D03*
X0287000Y0442000D03*
D13*
X0203000Y0442000D02*
X0186060Y0442000D01*
X0169060Y0459000D01*
X0287000Y0442000D02*
X0291000Y0442000D01*
X0302230Y0453230D01*
D11*
X0176000Y0465107D03*
D14*
X0176107Y0465000D02*
X0176936Y0465000D01*
X0176107Y0465000D02*
X0176000Y0465107D01*
D13*
X0299230Y0457230D02*
X0299230Y0521004D01*
D11*
X0315000Y0535000D03*
D13*
X0299230Y0521004D01*
D11*
X0275900Y0448700D03*
D13*
X0290700Y0448700D01*
X0299230Y0457230D01*
D11*
X0176000Y0545107D03*
D14*
X0176084Y0545023D02*
X0176936Y0545000D01*
X0176084Y0545023D02*
X0176000Y0545107D01*
D13*
X0176936Y0545000D02*
X0176936Y0542000D01*
X0160750Y0525814D01*
X0160750Y0455558D01*
D11*
X0315000Y0455000D03*
X0211000Y0421000D03*
X0279000Y0421000D03*
D13*
X0195308Y0421000D02*
X0160750Y0455558D01*
X0195308Y0421000D02*
X0211000Y0421000D01*
X0279000Y0421000D02*
X0291000Y0421000D01*
X0315000Y0445000D01*
X0315000Y0455000D01*
M02*