G04 EAGLE Gerber RS-274X export*
G75*
%MOMM*%
%FSLAX34Y34*%
%LPD*%
%INSilk Screen*%
%IPPOS*%
%AMOC8*
5,1,8,0,0,$1,22.5*%
G01*
%ADD10C,0.127*%
D10*
X0164168Y0544900D02*
X0164167Y0545048D01*
X0164161Y0545196D01*
X0164151Y0545343D01*
X0164137Y0545491D01*
X0164120Y0545638D01*
X0164098Y0545784D01*
X0164073Y0545930D01*
X0164043Y0546075D01*
X0164010Y0546219D01*
X0163973Y0546362D01*
X0163932Y0546504D01*
X0163887Y0546646D01*
X0163839Y0546785D01*
X0163786Y0546924D01*
X0163731Y0547061D01*
X0163671Y0547196D01*
X0163608Y0547330D01*
X0163608Y0547331D02*
X0163583Y0547398D01*
X0163555Y0547463D01*
X0163523Y0547527D01*
X0163488Y0547590D01*
X0163450Y0547650D01*
X0163409Y0547708D01*
X0163365Y0547765D01*
X0163318Y0547818D01*
X0163268Y0547870D01*
X0163216Y0547918D01*
X0163161Y0547964D01*
X0163104Y0548007D01*
X0163045Y0548047D01*
X0162983Y0548084D01*
X0162920Y0548118D01*
X0162856Y0548148D01*
X0162790Y0548175D01*
X0162722Y0548199D01*
X0162653Y0548219D01*
X0162584Y0548236D01*
X0162514Y0548248D01*
X0162443Y0548258D01*
X0162371Y0548263D01*
X0162300Y0548265D01*
X0162229Y0548263D01*
X0162156Y0548258D01*
X0162086Y0548248D01*
X0162016Y0548236D01*
X0161947Y0548219D01*
X0161878Y0548199D01*
X0161810Y0548175D01*
X0161744Y0548148D01*
X0161680Y0548118D01*
X0161617Y0548084D01*
X0161555Y0548047D01*
X0161496Y0548007D01*
X0161439Y0547964D01*
X0161384Y0547918D01*
X0161332Y0547870D01*
X0161282Y0547818D01*
X0161235Y0547765D01*
X0161191Y0547708D01*
X0161149Y0547650D01*
X0161112Y0547590D01*
X0161077Y0547527D01*
X0161045Y0547463D01*
X0161017Y0547398D01*
X0160992Y0547331D01*
X0160991Y0547330D02*
X0160928Y0547196D01*
X0160868Y0547061D01*
X0160812Y0546924D01*
X0160760Y0546785D01*
X0160712Y0546646D01*
X0160667Y0546505D01*
X0160626Y0546362D01*
X0160589Y0546219D01*
X0160555Y0546075D01*
X0160525Y0545930D01*
X0160501Y0545784D01*
X0160478Y0545638D01*
X0160462Y0545491D01*
X0160448Y0545343D01*
X0160438Y0545196D01*
X0160432Y0545048D01*
X0160430Y0544900D01*
X0164168Y0544900D02*
X0164167Y0544752D01*
X0164161Y0544604D01*
X0164151Y0544457D01*
X0164137Y0544309D01*
X0164120Y0544162D01*
X0164098Y0544016D01*
X0164073Y0543870D01*
X0164043Y0543725D01*
X0164010Y0543581D01*
X0163973Y0543438D01*
X0163932Y0543296D01*
X0163887Y0543155D01*
X0163839Y0543015D01*
X0163786Y0542876D01*
X0163731Y0542739D01*
X0163671Y0542604D01*
X0163608Y0542470D01*
X0163608Y0542469D02*
X0163583Y0542402D01*
X0163555Y0542337D01*
X0163523Y0542273D01*
X0163488Y0542210D01*
X0163450Y0542150D01*
X0163409Y0542092D01*
X0163365Y0542035D01*
X0163318Y0541982D01*
X0163268Y0541930D01*
X0163216Y0541882D01*
X0163161Y0541836D01*
X0163104Y0541793D01*
X0163045Y0541753D01*
X0162983Y0541716D01*
X0162920Y0541682D01*
X0162856Y0541652D01*
X0162790Y0541625D01*
X0162722Y0541601D01*
X0162653Y0541581D01*
X0162584Y0541564D01*
X0162514Y0541552D01*
X0162443Y0541542D01*
X0162371Y0541537D01*
X0162300Y0541535D01*
X0160992Y0542470D02*
X0160929Y0542604D01*
X0160869Y0542739D01*
X0160813Y0542876D01*
X0160761Y0543015D01*
X0160713Y0543154D01*
X0160668Y0543295D01*
X0160627Y0543438D01*
X0160590Y0543581D01*
X0160557Y0543725D01*
X0160527Y0543870D01*
X0160502Y0544016D01*
X0160480Y0544162D01*
X0160463Y0544309D01*
X0160448Y0544457D01*
X0160439Y0544604D01*
X0160433Y0544752D01*
X0160431Y0544900D01*
X0160992Y0542469D02*
X0161017Y0542402D01*
X0161045Y0542337D01*
X0161077Y0542273D01*
X0161112Y0542210D01*
X0161149Y0542150D01*
X0161191Y0542092D01*
X0161235Y0542035D01*
X0161282Y0541982D01*
X0161332Y0541930D01*
X0161384Y0541882D01*
X0161439Y0541836D01*
X0161496Y0541793D01*
X0161555Y0541753D01*
X0161617Y0541716D01*
X0161680Y0541682D01*
X0161744Y0541652D01*
X0161810Y0541625D01*
X0161878Y0541601D01*
X0161947Y0541581D01*
X0162016Y0541564D01*
X0162086Y0541552D01*
X0162156Y0541542D01*
X0162229Y0541537D01*
X0162300Y0541535D01*
X0163796Y0543031D02*
X0160804Y0546769D01*
X0162399Y0528265D02*
X0164269Y0526769D01*
X0162399Y0528265D02*
X0162399Y0521535D01*
X0164269Y0521535D02*
X0160531Y0521535D01*
X0162413Y0508366D02*
X0162333Y0508364D01*
X0162253Y0508358D01*
X0162173Y0508349D01*
X0162094Y0508336D01*
X0162016Y0508319D01*
X0161939Y0508298D01*
X0161863Y0508273D01*
X0161787Y0508245D01*
X0161713Y0508213D01*
X0161642Y0508179D01*
X0161572Y0508140D01*
X0161503Y0508099D01*
X0161437Y0508054D01*
X0161373Y0508006D01*
X0161311Y0507955D01*
X0161252Y0507901D01*
X0161195Y0507844D01*
X0161141Y0507785D01*
X0161090Y0507723D01*
X0161042Y0507659D01*
X0160997Y0507592D01*
X0160955Y0507525D01*
X0160917Y0507454D01*
X0160882Y0507382D01*
X0160851Y0507309D01*
X0160823Y0507233D01*
X0160798Y0507157D01*
X0160777Y0507080D01*
X0160760Y0507002D01*
X0160747Y0506923D01*
X0160737Y0506843D01*
X0160732Y0506763D01*
X0160730Y0506683D01*
X0162413Y0508365D02*
X0162504Y0508363D01*
X0162594Y0508357D01*
X0162684Y0508348D01*
X0162774Y0508335D01*
X0162863Y0508318D01*
X0162951Y0508297D01*
X0163038Y0508273D01*
X0163125Y0508245D01*
X0163209Y0508213D01*
X0163293Y0508178D01*
X0163375Y0508139D01*
X0163455Y0508097D01*
X0163534Y0508052D01*
X0163610Y0508003D01*
X0163685Y0507951D01*
X0163756Y0507896D01*
X0163827Y0507839D01*
X0163893Y0507778D01*
X0163959Y0507715D01*
X0164021Y0507649D01*
X0164080Y0507579D01*
X0164136Y0507509D01*
X0164189Y0507436D01*
X0164239Y0507360D01*
X0164286Y0507282D01*
X0164330Y0507203D01*
X0164370Y0507121D01*
X0164407Y0507039D01*
X0164440Y0506954D01*
X0164470Y0506869D01*
X0161292Y0505374D02*
X0161234Y0505432D01*
X0161179Y0505492D01*
X0161127Y0505554D01*
X0161078Y0505619D01*
X0161031Y0505685D01*
X0160988Y0505754D01*
X0160948Y0505824D01*
X0160911Y0505897D01*
X0160876Y0505971D01*
X0160847Y0506047D01*
X0160820Y0506123D01*
X0160796Y0506201D01*
X0160777Y0506280D01*
X0160760Y0506359D01*
X0160747Y0506440D01*
X0160737Y0506521D01*
X0160733Y0506602D01*
X0160731Y0506683D01*
X0161291Y0505374D02*
X0164469Y0501635D01*
X0160731Y0501635D01*
X0162500Y0481635D02*
X0164369Y0481635D01*
X0162500Y0481635D02*
X0162414Y0481637D01*
X0162330Y0481643D01*
X0162246Y0481652D01*
X0162161Y0481666D01*
X0162078Y0481683D01*
X0161996Y0481704D01*
X0161914Y0481729D01*
X0161834Y0481758D01*
X0161755Y0481790D01*
X0161678Y0481825D01*
X0161603Y0481865D01*
X0161529Y0481907D01*
X0161457Y0481953D01*
X0161388Y0482002D01*
X0161320Y0482054D01*
X0161256Y0482109D01*
X0161194Y0482167D01*
X0161134Y0482228D01*
X0161077Y0482292D01*
X0161024Y0482358D01*
X0160973Y0482425D01*
X0160926Y0482497D01*
X0160881Y0482570D01*
X0160841Y0482644D01*
X0160803Y0482721D01*
X0160768Y0482799D01*
X0160739Y0482878D01*
X0160712Y0482959D01*
X0160689Y0483041D01*
X0160670Y0483123D01*
X0160655Y0483207D01*
X0160643Y0483292D01*
X0160635Y0483376D01*
X0160631Y0483461D01*
X0160631Y0483547D01*
X0160635Y0483632D01*
X0160643Y0483716D01*
X0160655Y0483801D01*
X0160670Y0483884D01*
X0160689Y0483966D01*
X0160712Y0484049D01*
X0160739Y0484129D01*
X0160768Y0484209D01*
X0160803Y0484287D01*
X0160841Y0484364D01*
X0160881Y0484439D01*
X0160926Y0484510D01*
X0160973Y0484582D01*
X0161024Y0484650D01*
X0161077Y0484716D01*
X0161134Y0484780D01*
X0161194Y0484841D01*
X0161256Y0484899D01*
X0161320Y0484954D01*
X0161388Y0485006D01*
X0161457Y0485055D01*
X0161529Y0485101D01*
X0161603Y0485143D01*
X0161678Y0485182D01*
X0161755Y0485218D01*
X0161834Y0485250D01*
X0161914Y0485279D01*
X0161996Y0485304D01*
X0162078Y0485325D01*
X0162161Y0485342D01*
X0162246Y0485356D01*
X0162330Y0485365D01*
X0162414Y0485371D01*
X0162500Y0485373D01*
X0162125Y0488365D02*
X0164369Y0488365D01*
X0162125Y0488365D02*
X0162049Y0488363D01*
X0161975Y0488357D01*
X0161899Y0488348D01*
X0161825Y0488334D01*
X0161751Y0488317D01*
X0161678Y0488296D01*
X0161606Y0488272D01*
X0161536Y0488244D01*
X0161467Y0488212D01*
X0161400Y0488177D01*
X0161335Y0488139D01*
X0161271Y0488097D01*
X0161210Y0488052D01*
X0161152Y0488003D01*
X0161095Y0487953D01*
X0161042Y0487900D01*
X0160991Y0487843D01*
X0160943Y0487785D01*
X0160898Y0487724D01*
X0160856Y0487660D01*
X0160818Y0487595D01*
X0160783Y0487528D01*
X0160751Y0487459D01*
X0160722Y0487389D01*
X0160699Y0487317D01*
X0160677Y0487244D01*
X0160661Y0487170D01*
X0160646Y0487096D01*
X0160638Y0487020D01*
X0160631Y0486945D01*
X0160630Y0486869D01*
X0160631Y0486793D01*
X0160638Y0486718D01*
X0160646Y0486642D01*
X0160661Y0486568D01*
X0160677Y0486494D01*
X0160699Y0486421D01*
X0160722Y0486349D01*
X0160751Y0486278D01*
X0160783Y0486210D01*
X0160818Y0486143D01*
X0160856Y0486078D01*
X0160898Y0486014D01*
X0160943Y0485953D01*
X0160991Y0485895D01*
X0161042Y0485837D01*
X0161095Y0485785D01*
X0161152Y0485734D01*
X0161210Y0485686D01*
X0161271Y0485640D01*
X0161335Y0485599D01*
X0161400Y0485561D01*
X0161467Y0485526D01*
X0161536Y0485494D01*
X0161606Y0485466D01*
X0161678Y0485442D01*
X0161751Y0485421D01*
X0161825Y0485404D01*
X0161899Y0485390D01*
X0161975Y0485381D01*
X0162049Y0485375D01*
X0162125Y0485373D01*
X0162125Y0485374D02*
X0163622Y0485374D01*
X0162874Y0468365D02*
X0164369Y0463131D01*
X0160631Y0463131D01*
X0161752Y0464626D02*
X0161752Y0461635D01*
M02*