G04 EAGLE Gerber RS-274X export*
G75*
%MOMM*%
%FSLAX34Y34*%
%LPD*%
%INoutline*%
%IPPOS*%
%AMOC8*
5,1,8,0,0,$1,22.5*%
G01*
%ADD10C,0.254*%
D10*
X0150000Y0440000D02*
X0150152Y0436514D01*
X0150608Y0433054D01*
X0151363Y0429647D01*
X0152412Y0426319D01*
X0153748Y0423095D01*
X0155359Y0420000D01*
X0157234Y0417057D01*
X0159358Y0414289D01*
X0161716Y0411716D01*
X0164289Y0409358D01*
X0167057Y0407234D01*
X0170000Y0405359D01*
X0173095Y0403748D01*
X0176319Y0402412D01*
X0179647Y0401363D01*
X0183054Y0400608D01*
X0186514Y0400152D01*
X0190000Y0400000D01*
X0300000Y0400000D01*
X0303486Y0400152D01*
X0306946Y0400608D01*
X0310353Y0401363D01*
X0313681Y0402412D01*
X0316905Y0403748D01*
X0320000Y0405359D01*
X0322943Y0407234D01*
X0325712Y0409358D01*
X0328284Y0411716D01*
X0330642Y0414289D01*
X0332766Y0417057D01*
X0334641Y0420000D01*
X0336252Y0423095D01*
X0337588Y0426319D01*
X0338637Y0429647D01*
X0339392Y0433054D01*
X0339848Y0436514D01*
X0340000Y0440000D01*
X0340000Y0560000D01*
X0339848Y0563486D01*
X0339392Y0566946D01*
X0338637Y0570353D01*
X0337588Y0573681D01*
X0336252Y0576905D01*
X0334641Y0580000D01*
X0332766Y0582943D01*
X0330642Y0585712D01*
X0328284Y0588284D01*
X0325712Y0590642D01*
X0322943Y0592766D01*
X0320000Y0594641D01*
X0316905Y0596252D01*
X0313681Y0597588D01*
X0310353Y0598637D01*
X0306946Y0599392D01*
X0303486Y0599848D01*
X0300000Y0600000D01*
X0190000Y0600000D01*
X0186514Y0599848D01*
X0183054Y0599392D01*
X0179647Y0598637D01*
X0176319Y0597588D01*
X0173095Y0596252D01*
X0170000Y0594641D01*
X0167057Y0592766D01*
X0164289Y0590642D01*
X0161716Y0588284D01*
X0159358Y0585712D01*
X0157234Y0582943D01*
X0155359Y0580000D01*
X0153748Y0576905D01*
X0152412Y0573681D01*
X0151363Y0570353D01*
X0150608Y0566946D01*
X0150152Y0563486D01*
X0150000Y0560000D01*
X0150000Y0440000D01*
M02*