G04 EAGLE Gerber RS-274X export*
G75*
%MOMM*%
%FSLAX34Y34*%
%LPD*%
%INSolder stop mask*%
%IPPOS*%
%AMOC8*
5,1,8,0,0,$1,22.5*%
G01*
%ADD10C,2.3032*%
%ADD11R,2.2032X0.8032*%
%ADD12R,3.1032X2.8032*%
%ADD13R,0.6532X1.6532*%
%ADD14C,0.450047*%
%ADD15C,0.330503*%
%ADD16R,0.4032X0.5032*%
D10*
X0150000Y0400000D02*
X0245000Y0580000D03*
X0245000Y0420000D03*
D11*
X0164500Y0545000D03*
X0199500Y0535000D03*
X0164500Y0525000D03*
X0199500Y0515000D03*
X0164500Y0505000D03*
X0199500Y0495000D03*
X0164500Y0485000D03*
X0199500Y0475000D03*
X0164500Y0465000D03*
X0199500Y0455000D03*
D12*
X0182000Y0569000D03*
X0182000Y0431000D03*
D13*
X0254750Y0532000D03*
X0248250Y0532000D03*
X0241750Y0532000D03*
X0235250Y0532000D03*
X0235250Y0488000D03*
X0241750Y0488000D03*
X0248250Y0488000D03*
X0254750Y0488000D03*
D14*
X0217541Y0534334D02*
X0215009Y0534334D01*
X0215009Y0536866D01*
X0217541Y0536866D01*
X0217541Y0534334D01*
X0224259Y0534334D02*
X0226790Y0534334D01*
X0224259Y0534334D02*
X0224259Y0536866D01*
X0226790Y0536866D01*
X0226790Y0534334D01*
X0253809Y0470234D02*
X0256341Y0470234D01*
X0253809Y0470234D02*
X0253809Y0472766D01*
X0256341Y0472766D01*
X0256341Y0470234D01*
X0263059Y0470234D02*
X0265591Y0470234D01*
X0263059Y0470234D02*
X0263059Y0472766D01*
X0265591Y0472766D01*
X0265591Y0470234D01*
D11*
X0325500Y0455000D03*
X0290500Y0465000D03*
X0325500Y0475000D03*
X0290500Y0485000D03*
X0325500Y0495000D03*
X0290500Y0505000D03*
X0325500Y0515000D03*
X0290500Y0525000D03*
X0325500Y0535000D03*
X0290500Y0545000D03*
D12*
X0308000Y0431000D03*
X0308000Y0569000D03*
D15*
X0225278Y0519964D02*
X0221550Y0519964D01*
X0225278Y0519964D02*
X0225278Y0516235D01*
X0221550Y0516235D01*
X0221550Y0519964D01*
X0221550Y0519376D02*
X0225278Y0519376D01*
X0218650Y0519964D02*
X0214922Y0519964D01*
X0218650Y0519964D02*
X0218650Y0516235D01*
X0214922Y0516235D01*
X0214922Y0519964D01*
X0214922Y0519376D02*
X0218650Y0519376D01*
X0221650Y0501364D02*
X0225378Y0501364D01*
X0225378Y0497635D01*
X0221650Y0497635D01*
X0221650Y0501364D01*
X0221650Y0500776D02*
X0225378Y0500776D01*
X0218750Y0501364D02*
X0215022Y0501364D01*
X0218750Y0501364D02*
X0218750Y0497635D01*
X0215022Y0497635D01*
X0215022Y0501364D01*
X0215022Y0500776D02*
X0218750Y0500776D01*
X0221650Y0482864D02*
X0225378Y0482864D01*
X0225378Y0479136D01*
X0221650Y0479136D01*
X0221650Y0482864D01*
X0221650Y0482276D02*
X0225378Y0482276D01*
X0218750Y0482864D02*
X0215022Y0482864D01*
X0218750Y0482864D02*
X0218750Y0479136D01*
X0215022Y0479136D01*
X0215022Y0482864D01*
X0215022Y0482276D02*
X0218750Y0482276D01*
D16*
X0235000Y0468500D03*
X0239000Y0468500D03*
X0243000Y0468500D03*
X0247000Y0468500D03*
X0247000Y0474500D03*
X0243000Y0474500D03*
X0239000Y0474500D03*
X0235000Y0474500D03*
M02*