G04 EAGLE Gerber RS-274X export*
G75*
%MOMM*%
%FSLAX34Y34*%
%LPD*%
%INStencil*%
%IPPOS*%
%AMOC8*
5,1,8,0,0,$1,22.5*%
G01*
%ADD10R,2X0.6*%
%ADD11R,2.9X2.6*%
%ADD12R,0.45X1.45*%
%ADD13C,0.25*%
%ADD14R,0.2X0.3*%
D10*
X0390000Y0400000D02*
X0404500Y0545000D03*
X0439500Y0535000D03*
X0404500Y0525000D03*
X0439500Y0515000D03*
X0404500Y0505000D03*
X0439500Y0495000D03*
X0404500Y0485000D03*
X0439500Y0475000D03*
X0404500Y0465000D03*
X0439500Y0455000D03*
D11*
X0422000Y0569000D03*
X0422000Y0431000D03*
D12*
X0494750Y0532000D03*
X0488250Y0532000D03*
X0481750Y0532000D03*
X0475250Y0532000D03*
X0475250Y0488000D03*
X0481750Y0488000D03*
X0488250Y0488000D03*
X0494750Y0488000D03*
D13*
X0457525Y0534350D02*
X0455025Y0534350D01*
X0455025Y0536850D01*
X0457525Y0536850D01*
X0457525Y0534350D01*
X0457525Y0536725D02*
X0455025Y0536725D01*
X0464275Y0534350D02*
X0466775Y0534350D01*
X0464275Y0534350D02*
X0464275Y0536850D01*
X0466775Y0536850D01*
X0466775Y0534350D01*
X0466775Y0536725D02*
X0464275Y0536725D01*
X0493825Y0470250D02*
X0496325Y0470250D01*
X0493825Y0470250D02*
X0493825Y0472750D01*
X0496325Y0472750D01*
X0496325Y0470250D01*
X0496325Y0472625D02*
X0493825Y0472625D01*
X0503075Y0470250D02*
X0505575Y0470250D01*
X0503075Y0470250D02*
X0503075Y0472750D01*
X0505575Y0472750D01*
X0505575Y0470250D01*
X0505575Y0472625D02*
X0503075Y0472625D01*
D10*
X0565500Y0455000D03*
X0530500Y0465000D03*
X0565500Y0475000D03*
X0530500Y0485000D03*
X0565500Y0495000D03*
X0530500Y0505000D03*
X0565500Y0515000D03*
X0530500Y0525000D03*
X0565500Y0535000D03*
X0530500Y0545000D03*
D11*
X0548000Y0431000D03*
X0548000Y0569000D03*
D14*
X0475000Y0468500D03*
X0479000Y0468500D03*
X0483000Y0468500D03*
X0487000Y0468500D03*
X0487000Y0474500D03*
X0483000Y0474500D03*
X0479000Y0474500D03*
X0475000Y0474500D03*
M02*