G04 EAGLE Gerber RS-274X export*
G75*
%MOMM*%
%FSLAX34Y34*%
%LPD*%
%INSolder side*%
%IPPOS*%
%AMOC8*
5,1,8,0,0,$1,22.5*%
G01*
%ADD10R,0.635X1.27*%
%ADD11C,0.7564*%
%ADD12C,0.13*%
%ADD13C,0.15*%
%ADD14C,0.3*%
G36*
X0478247Y0404007D02*
X0478247Y0404007D01*
X0478300Y0404004D01*
X0478419Y0404027D01*
X0478540Y0404041D01*
X0478589Y0404058D01*
X0478640Y0404067D01*
X0478751Y0404117D01*
X0478865Y0404158D01*
X0478909Y0404187D01*
X0478956Y0404208D01*
X0479052Y0404281D01*
X0479154Y0404347D01*
X0479191Y0404385D01*
X0479232Y0404416D01*
X0479309Y0404509D01*
X0479393Y0404597D01*
X0479420Y0404642D01*
X0479453Y0404682D01*
X0479507Y0404791D01*
X0479568Y0404895D01*
X0479584Y0404945D01*
X0479607Y0404992D01*
X0479634Y0405110D01*
X0479670Y0405225D01*
X0479674Y0405278D01*
X0479686Y0405329D01*
X0479686Y0405450D01*
X0479694Y0405571D01*
X0479685Y0405622D01*
X0479685Y0405674D01*
X0479657Y0405792D01*
X0479638Y0405912D01*
X0479617Y0405959D01*
X0479606Y0406011D01*
X0479552Y0406119D01*
X0479505Y0406231D01*
X0479475Y0406273D01*
X0479450Y0406320D01*
X0479373Y0406413D01*
X0479303Y0406511D01*
X0479263Y0406546D01*
X0479230Y0406586D01*
X0479133Y0406659D01*
X0479042Y0406738D01*
X0478995Y0406762D01*
X0478954Y0406794D01*
X0478770Y0406885D01*
X0476786Y0407707D01*
X0472707Y0411786D01*
X0470499Y0417116D01*
X0470499Y0422884D01*
X0472707Y0428213D01*
X0476786Y0432293D01*
X0482116Y0434501D01*
X0487883Y0434501D01*
X0493213Y0432293D01*
X0497293Y0428213D01*
X0499501Y0422884D01*
X0499501Y0417116D01*
X0497293Y0411786D01*
X0493213Y0407707D01*
X0491230Y0406885D01*
X0491184Y0406860D01*
X0491135Y0406841D01*
X0491034Y0406776D01*
X0490927Y0406717D01*
X0490889Y0406682D01*
X0490846Y0406653D01*
X0490762Y0406565D01*
X0490673Y0406484D01*
X0490643Y0406441D01*
X0490607Y0406403D01*
X0490546Y0406298D01*
X0490477Y0406199D01*
X0490458Y0406150D01*
X0490432Y0406105D01*
X0490396Y0405989D01*
X0490353Y0405876D01*
X0490345Y0405824D01*
X0490330Y0405774D01*
X0490322Y0405653D01*
X0490305Y0405534D01*
X0490310Y0405482D01*
X0490306Y0405429D01*
X0490326Y0405310D01*
X0490336Y0405189D01*
X0490353Y0405140D01*
X0490362Y0405088D01*
X0490409Y0404976D01*
X0490447Y0404861D01*
X0490475Y0404817D01*
X0490495Y0404769D01*
X0490566Y0404671D01*
X0490629Y0404568D01*
X0490666Y0404531D01*
X0490697Y0404489D01*
X0490789Y0404409D01*
X0490874Y0404324D01*
X0490919Y0404296D01*
X0490957Y0404262D01*
X0491066Y0404204D01*
X0491168Y0404142D01*
X0491218Y0404126D01*
X0491264Y0404101D01*
X0491382Y0404071D01*
X0491496Y0404033D01*
X0491548Y0404028D01*
X0491599Y0404015D01*
X0491804Y0404001D01*
X0535000Y0404001D01*
X0535035Y0404005D01*
X0535071Y0404002D01*
X0535207Y0404025D01*
X0535343Y0404041D01*
X0535377Y0404052D01*
X0535412Y0404058D01*
X0535539Y0404111D01*
X0535669Y0404158D01*
X0535698Y0404177D01*
X0535731Y0404191D01*
X0535843Y0404272D01*
X0535958Y0404347D01*
X0535983Y0404373D01*
X0536011Y0404393D01*
X0536102Y0404497D01*
X0536197Y0404597D01*
X0536215Y0404628D01*
X0536238Y0404654D01*
X0536302Y0404777D01*
X0536372Y0404895D01*
X0536382Y0404929D01*
X0536399Y0404961D01*
X0536433Y0405094D01*
X0536474Y0405225D01*
X0536476Y0405261D01*
X0536485Y0405295D01*
X0536499Y0405500D01*
X0536499Y0415000D01*
X0536495Y0415035D01*
X0536498Y0415071D01*
X0536475Y0415207D01*
X0536459Y0415343D01*
X0536447Y0415377D01*
X0536442Y0415412D01*
X0536389Y0415539D01*
X0536342Y0415668D01*
X0536323Y0415698D01*
X0536309Y0415730D01*
X0536228Y0415843D01*
X0536153Y0415957D01*
X0536127Y0415983D01*
X0536107Y0416011D01*
X0536003Y0416102D01*
X0535903Y0416197D01*
X0535872Y0416215D01*
X0535846Y0416238D01*
X0535723Y0416302D01*
X0535605Y0416372D01*
X0535571Y0416382D01*
X0535539Y0416399D01*
X0535406Y0416432D01*
X0535274Y0416474D01*
X0535239Y0416475D01*
X0535205Y0416485D01*
X0535000Y0416499D01*
X0523298Y0416499D01*
X0523160Y0416483D01*
X0523020Y0416473D01*
X0522988Y0416462D01*
X0522955Y0416459D01*
X0522824Y0416412D01*
X0522690Y0416370D01*
X0522661Y0416353D01*
X0522630Y0416342D01*
X0522513Y0416266D01*
X0522393Y0416195D01*
X0522359Y0416165D01*
X0522340Y0416153D01*
X0522317Y0416129D01*
X0522286Y0416102D01*
X0520150Y0415217D01*
X0517849Y0415217D01*
X0515724Y0416098D01*
X0514098Y0417724D01*
X0513217Y0419850D01*
X0513217Y0422150D01*
X0513347Y0422464D01*
X0513371Y0422548D01*
X0513405Y0422629D01*
X0513418Y0422714D01*
X0513442Y0422797D01*
X0513446Y0422884D01*
X0513460Y0422971D01*
X0513454Y0423056D01*
X0513457Y0423142D01*
X0513442Y0423228D01*
X0513435Y0423315D01*
X0513410Y0423397D01*
X0513394Y0423482D01*
X0513359Y0423562D01*
X0513333Y0423646D01*
X0513289Y0423720D01*
X0513254Y0423798D01*
X0513202Y0423868D01*
X0513157Y0423943D01*
X0513063Y0424052D01*
X0513046Y0424074D01*
X0513036Y0424082D01*
X0513022Y0424097D01*
X0496499Y0440621D01*
X0496499Y0489379D01*
X0506060Y0498940D01*
X0506135Y0499035D01*
X0506150Y0499050D01*
X0506154Y0499058D01*
X0506238Y0499154D01*
X0506254Y0499184D01*
X0506275Y0499210D01*
X0506334Y0499337D01*
X0506399Y0499461D01*
X0506407Y0499493D01*
X0506422Y0499524D01*
X0506449Y0499660D01*
X0506485Y0499795D01*
X0506488Y0499840D01*
X0506492Y0499861D01*
X0506492Y0499895D01*
X0506499Y0500000D01*
X0506499Y0520000D01*
X0506483Y0520138D01*
X0506473Y0520278D01*
X0506462Y0520310D01*
X0506459Y0520343D01*
X0506412Y0520473D01*
X0506371Y0520608D01*
X0506353Y0520637D01*
X0506342Y0520669D01*
X0506265Y0520785D01*
X0506195Y0520905D01*
X0506165Y0520940D01*
X0506153Y0520957D01*
X0506128Y0520982D01*
X0506060Y0521060D01*
X0496499Y0530621D01*
X0496499Y0559379D01*
X0520621Y0583501D01*
X0535000Y0583501D01*
X0535035Y0583505D01*
X0535071Y0583502D01*
X0535207Y0583525D01*
X0535343Y0583541D01*
X0535377Y0583553D01*
X0535412Y0583558D01*
X0535539Y0583611D01*
X0535669Y0583658D01*
X0535698Y0583678D01*
X0535731Y0583691D01*
X0535843Y0583772D01*
X0535958Y0583847D01*
X0535983Y0583873D01*
X0536011Y0583893D01*
X0536102Y0583998D01*
X0536197Y0584097D01*
X0536215Y0584128D01*
X0536238Y0584154D01*
X0536302Y0584277D01*
X0536372Y0584395D01*
X0536382Y0584429D01*
X0536399Y0584461D01*
X0536433Y0584594D01*
X0536474Y0584726D01*
X0536476Y0584761D01*
X0536485Y0584795D01*
X0536499Y0585000D01*
X0536499Y0594500D01*
X0536495Y0594535D01*
X0536498Y0594571D01*
X0536475Y0594707D01*
X0536459Y0594843D01*
X0536447Y0594877D01*
X0536442Y0594912D01*
X0536389Y0595039D01*
X0536342Y0595169D01*
X0536323Y0595198D01*
X0536309Y0595231D01*
X0536228Y0595343D01*
X0536153Y0595458D01*
X0536127Y0595483D01*
X0536107Y0595511D01*
X0536003Y0595602D01*
X0535903Y0595697D01*
X0535872Y0595715D01*
X0535846Y0595738D01*
X0535723Y0595802D01*
X0535605Y0595872D01*
X0535571Y0595882D01*
X0535539Y0595899D01*
X0535406Y0595933D01*
X0535274Y0595974D01*
X0535239Y0595976D01*
X0535205Y0595985D01*
X0535000Y0595999D01*
X0491804Y0595999D01*
X0491752Y0595993D01*
X0491700Y0595996D01*
X0491581Y0595973D01*
X0491460Y0595959D01*
X0491411Y0595942D01*
X0491359Y0595932D01*
X0491248Y0595883D01*
X0491135Y0595842D01*
X0491091Y0595813D01*
X0491044Y0595792D01*
X0490947Y0595719D01*
X0490846Y0595653D01*
X0490809Y0595615D01*
X0490768Y0595584D01*
X0490690Y0595490D01*
X0490607Y0595403D01*
X0490580Y0595358D01*
X0490546Y0595318D01*
X0490493Y0595209D01*
X0490432Y0595105D01*
X0490417Y0595055D01*
X0490393Y0595008D01*
X0490366Y0594890D01*
X0490330Y0594774D01*
X0490326Y0594722D01*
X0490314Y0594671D01*
X0490315Y0594550D01*
X0490306Y0594429D01*
X0490315Y0594378D01*
X0490315Y0594326D01*
X0490343Y0594208D01*
X0490362Y0594088D01*
X0490382Y0594040D01*
X0490394Y0593989D01*
X0490449Y0593881D01*
X0490495Y0593769D01*
X0490525Y0593727D01*
X0490549Y0593680D01*
X0490626Y0593587D01*
X0490697Y0593489D01*
X0490737Y0593454D01*
X0490770Y0593414D01*
X0490867Y0593341D01*
X0490957Y0593262D01*
X0491004Y0593238D01*
X0491046Y0593206D01*
X0491230Y0593115D01*
X0493213Y0592293D01*
X0497293Y0588214D01*
X0499501Y0582884D01*
X0499501Y0577116D01*
X0497293Y0571786D01*
X0493213Y0567707D01*
X0487883Y0565499D01*
X0482116Y0565499D01*
X0476786Y0567707D01*
X0472707Y0571786D01*
X0470499Y0577116D01*
X0470499Y0582884D01*
X0472707Y0588214D01*
X0476786Y0592293D01*
X0478770Y0593115D01*
X0478816Y0593140D01*
X0478865Y0593158D01*
X0478966Y0593224D01*
X0479072Y0593283D01*
X0479111Y0593318D01*
X0479154Y0593347D01*
X0479238Y0593434D01*
X0479326Y0593516D01*
X0479357Y0593559D01*
X0479393Y0593597D01*
X0479454Y0593701D01*
X0479523Y0593801D01*
X0479542Y0593850D01*
X0479568Y0593895D01*
X0479604Y0594011D01*
X0479647Y0594124D01*
X0479655Y0594176D01*
X0479670Y0594226D01*
X0479677Y0594346D01*
X0479694Y0594466D01*
X0479690Y0594518D01*
X0479694Y0594571D01*
X0479674Y0594690D01*
X0479663Y0594811D01*
X0479646Y0594860D01*
X0479638Y0594912D01*
X0479591Y0595024D01*
X0479553Y0595138D01*
X0479525Y0595183D01*
X0479505Y0595231D01*
X0479433Y0595329D01*
X0479370Y0595432D01*
X0479333Y0595469D01*
X0479303Y0595511D01*
X0479212Y0595591D01*
X0479126Y0595676D01*
X0479081Y0595704D01*
X0479042Y0595738D01*
X0478935Y0595794D01*
X0478832Y0595858D01*
X0478782Y0595875D01*
X0478735Y0595899D01*
X0478618Y0595929D01*
X0478504Y0595967D01*
X0478452Y0595972D01*
X0478401Y0595985D01*
X0478196Y0595999D01*
X0435000Y0595999D01*
X0434965Y0595995D01*
X0434929Y0595998D01*
X0434793Y0595975D01*
X0434657Y0595959D01*
X0434623Y0595947D01*
X0434587Y0595942D01*
X0434461Y0595889D01*
X0434330Y0595842D01*
X0434302Y0595823D01*
X0434269Y0595809D01*
X0434157Y0595728D01*
X0434042Y0595653D01*
X0434017Y0595627D01*
X0433989Y0595607D01*
X0433898Y0595503D01*
X0433803Y0595403D01*
X0433785Y0595372D01*
X0433762Y0595346D01*
X0433698Y0595223D01*
X0433628Y0595105D01*
X0433618Y0595071D01*
X0433601Y0595039D01*
X0433567Y0594906D01*
X0433526Y0594774D01*
X0433524Y0594739D01*
X0433515Y0594705D01*
X0433501Y0594500D01*
X0433501Y0585000D01*
X0433504Y0584965D01*
X0433502Y0584929D01*
X0433525Y0584793D01*
X0433541Y0584657D01*
X0433553Y0584623D01*
X0433558Y0584588D01*
X0433611Y0584461D01*
X0433658Y0584331D01*
X0433678Y0584302D01*
X0433691Y0584269D01*
X0433772Y0584157D01*
X0433847Y0584042D01*
X0433872Y0584017D01*
X0433893Y0583989D01*
X0433998Y0583898D01*
X0434097Y0583803D01*
X0434128Y0583785D01*
X0434154Y0583762D01*
X0434277Y0583698D01*
X0434395Y0583628D01*
X0434429Y0583618D01*
X0434461Y0583601D01*
X0434594Y0583567D01*
X0434726Y0583526D01*
X0434761Y0583524D01*
X0434795Y0583515D01*
X0435000Y0583501D01*
X0449379Y0583501D01*
X0473501Y0559379D01*
X0473501Y0530621D01*
X0463940Y0521060D01*
X0463853Y0520951D01*
X0463762Y0520846D01*
X0463746Y0520816D01*
X0463725Y0520789D01*
X0463666Y0520663D01*
X0463601Y0520539D01*
X0463593Y0520507D01*
X0463578Y0520476D01*
X0463550Y0520340D01*
X0463515Y0520205D01*
X0463512Y0520160D01*
X0463507Y0520138D01*
X0463508Y0520104D01*
X0463501Y0520000D01*
X0463501Y0500000D01*
X0463517Y0499861D01*
X0463527Y0499722D01*
X0463537Y0499690D01*
X0463541Y0499657D01*
X0463588Y0499526D01*
X0463628Y0499392D01*
X0463647Y0499363D01*
X0463658Y0499330D01*
X0463734Y0499215D01*
X0463805Y0499095D01*
X0463835Y0499060D01*
X0463847Y0499042D01*
X0463871Y0499019D01*
X0463940Y0498940D01*
X0473501Y0489379D01*
X0473501Y0440630D01*
X0456887Y0424355D01*
X0456826Y0424281D01*
X0456760Y0424214D01*
X0456718Y0424146D01*
X0456669Y0424086D01*
X0456628Y0424001D01*
X0456578Y0423919D01*
X0456552Y0423845D01*
X0456519Y0423775D01*
X0456499Y0423682D01*
X0456468Y0423592D01*
X0456460Y0423514D01*
X0456444Y0423437D01*
X0456445Y0423342D01*
X0456437Y0423247D01*
X0456448Y0423170D01*
X0456449Y0423091D01*
X0456472Y0422999D01*
X0456485Y0422905D01*
X0456525Y0422787D01*
X0456533Y0422756D01*
X0456539Y0422741D01*
X0456551Y0422710D01*
X0456783Y0422150D01*
X0456783Y0419850D01*
X0455902Y0417724D01*
X0454276Y0416098D01*
X0452150Y0415217D01*
X0449850Y0415217D01*
X0447704Y0416106D01*
X0447652Y0416147D01*
X0447547Y0416238D01*
X0447517Y0416254D01*
X0447491Y0416275D01*
X0447365Y0416334D01*
X0447241Y0416399D01*
X0447207Y0416407D01*
X0447177Y0416422D01*
X0447042Y0416450D01*
X0446906Y0416485D01*
X0446862Y0416488D01*
X0446840Y0416492D01*
X0446806Y0416492D01*
X0446702Y0416499D01*
X0435000Y0416499D01*
X0434965Y0416495D01*
X0434929Y0416498D01*
X0434793Y0416475D01*
X0434657Y0416459D01*
X0434623Y0416447D01*
X0434587Y0416442D01*
X0434461Y0416389D01*
X0434330Y0416342D01*
X0434302Y0416323D01*
X0434269Y0416308D01*
X0434157Y0416228D01*
X0434042Y0416153D01*
X0434017Y0416126D01*
X0433989Y0416107D01*
X0433898Y0416003D01*
X0433803Y0415903D01*
X0433785Y0415872D01*
X0433762Y0415846D01*
X0433698Y0415723D01*
X0433628Y0415605D01*
X0433618Y0415571D01*
X0433601Y0415539D01*
X0433567Y0415406D01*
X0433526Y0415274D01*
X0433524Y0415239D01*
X0433515Y0415205D01*
X0433501Y0415000D01*
X0433501Y0405500D01*
X0433504Y0405465D01*
X0433502Y0405429D01*
X0433525Y0405293D01*
X0433541Y0405157D01*
X0433553Y0405123D01*
X0433558Y0405088D01*
X0433611Y0404961D01*
X0433658Y0404831D01*
X0433678Y0404802D01*
X0433691Y0404769D01*
X0433772Y0404657D01*
X0433847Y0404542D01*
X0433872Y0404517D01*
X0433893Y0404489D01*
X0433998Y0404398D01*
X0434097Y0404303D01*
X0434128Y0404285D01*
X0434154Y0404262D01*
X0434277Y0404198D01*
X0434395Y0404128D01*
X0434429Y0404118D01*
X0434461Y0404101D01*
X0434594Y0404067D01*
X0434726Y0404026D01*
X0434761Y0404024D01*
X0434795Y0404015D01*
X0435000Y0404001D01*
X0478196Y0404001D01*
X0478247Y0404007D01*
G37*
D10*
X0416936Y0545000D03*
X0425064Y0545000D03*
X0416936Y0525000D03*
X0425064Y0525000D03*
X0416936Y0505000D03*
X0425064Y0505000D03*
X0416936Y0485000D03*
X0425064Y0485000D03*
X0416936Y0465000D03*
X0425064Y0465000D03*
D11*
X0485000Y0510000D03*
X0496000Y0502000D03*
X0475000Y0520000D03*
D12*
X0408480Y0411955D02*
X0416472Y0407341D01*
X0408480Y0411955D02*
X0401955Y0418480D01*
X0397341Y0426472D01*
X0394951Y0435386D01*
X0394650Y0440000D01*
X0394650Y0560000D01*
X0394951Y0564614D01*
X0397341Y0573528D01*
X0401955Y0581520D01*
X0408480Y0588045D01*
X0416472Y0592659D01*
X0425386Y0595048D01*
X0430000Y0595350D01*
X0540000Y0595350D01*
X0544614Y0595048D01*
X0553528Y0592659D01*
X0561520Y0588045D01*
X0568045Y0581520D01*
X0572659Y0573528D01*
X0575048Y0564614D01*
X0575350Y0560000D01*
X0575350Y0440000D01*
X0575048Y0435386D01*
X0572659Y0426472D01*
X0568045Y0418480D01*
X0561520Y0411955D01*
X0553528Y0407341D01*
X0544614Y0404951D01*
X0540000Y0404650D01*
X0430000Y0404650D01*
X0425386Y0404951D01*
X0416472Y0407341D01*
X0561432Y0533721D02*
X0561432Y0536279D01*
X0560453Y0538643D01*
X0558643Y0540453D01*
X0556279Y0541432D01*
X0553721Y0541432D01*
X0551357Y0540453D01*
X0549547Y0538643D01*
X0548568Y0536279D01*
X0548568Y0533721D01*
X0548828Y0533093D01*
X0538216Y0523675D01*
X0538124Y0523675D01*
X0537398Y0522949D01*
X0536631Y0522268D01*
X0536625Y0522176D01*
X0536560Y0522111D01*
X0536560Y0521084D01*
X0536499Y0520060D01*
X0536560Y0519991D01*
X0536560Y0458335D01*
X0529594Y0451370D01*
X0521756Y0451370D01*
X0521353Y0452343D01*
X0519543Y0454153D01*
X0517179Y0455132D01*
X0514621Y0455132D01*
X0512257Y0454153D01*
X0510447Y0452343D01*
X0509467Y0449979D01*
X0509467Y0447421D01*
X0510447Y0445057D01*
X0512257Y0443247D01*
X0514621Y0442268D01*
X0517179Y0442268D01*
X0519543Y0443247D01*
X0521270Y0444974D01*
X0520568Y0443279D01*
X0520568Y0441312D01*
X0520279Y0441432D01*
X0517721Y0441432D01*
X0515357Y0440453D01*
X0513547Y0438643D01*
X0512568Y0436278D01*
X0512568Y0433721D01*
X0513547Y0431357D01*
X0515357Y0429547D01*
X0517721Y0428568D01*
X0520279Y0428568D01*
X0520568Y0428688D01*
X0520568Y0427312D01*
X0520279Y0427432D01*
X0517721Y0427432D01*
X0515357Y0426453D01*
X0513547Y0424643D01*
X0512568Y0422279D01*
X0512568Y0419721D01*
X0513547Y0417357D01*
X0515357Y0415546D01*
X0517721Y0414568D01*
X0520279Y0414568D01*
X0522643Y0415546D01*
X0524453Y0417357D01*
X0524856Y0418330D01*
X0532106Y0418330D01*
X0556106Y0442329D01*
X0557670Y0443894D01*
X0557670Y0449144D01*
X0558643Y0449547D01*
X0560453Y0451357D01*
X0561432Y0453721D01*
X0561432Y0456278D01*
X0560453Y0458643D01*
X0558643Y0460453D01*
X0556279Y0461432D01*
X0553721Y0461432D01*
X0551357Y0460453D01*
X0550670Y0459766D01*
X0550670Y0469894D01*
X0550840Y0470064D01*
X0551357Y0469547D01*
X0553721Y0468568D01*
X0556279Y0468568D01*
X0558643Y0469547D01*
X0560453Y0471357D01*
X0561432Y0473721D01*
X0561432Y0476278D01*
X0560453Y0478643D01*
X0558643Y0480453D01*
X0556279Y0481432D01*
X0553721Y0481432D01*
X0551357Y0480453D01*
X0549547Y0478643D01*
X0548568Y0476278D01*
X0548568Y0475344D01*
X0547670Y0474446D01*
X0547670Y0485416D01*
X0552205Y0489196D01*
X0553721Y0488568D01*
X0556279Y0488568D01*
X0558643Y0489547D01*
X0560453Y0491357D01*
X0561432Y0493721D01*
X0561432Y0496278D01*
X0560453Y0498643D01*
X0558643Y0500453D01*
X0556279Y0501432D01*
X0553721Y0501432D01*
X0551357Y0500453D01*
X0549547Y0498643D01*
X0548568Y0496278D01*
X0548568Y0493721D01*
X0548754Y0493271D01*
X0544900Y0490058D01*
X0544900Y0502738D01*
X0552316Y0509150D01*
X0553721Y0508568D01*
X0556279Y0508568D01*
X0558643Y0509547D01*
X0560453Y0511357D01*
X0561432Y0513721D01*
X0561432Y0516278D01*
X0560453Y0518643D01*
X0558643Y0520453D01*
X0556279Y0521432D01*
X0553721Y0521432D01*
X0551357Y0520453D01*
X0549547Y0518643D01*
X0548568Y0516278D01*
X0548568Y0513721D01*
X0548797Y0513167D01*
X0541900Y0507203D01*
X0541900Y0519805D01*
X0552394Y0529118D01*
X0553721Y0528568D01*
X0556279Y0528568D01*
X0558643Y0529547D01*
X0560453Y0531357D01*
X0561432Y0533721D01*
X0444432Y0526279D02*
X0444432Y0523721D01*
X0444432Y0526279D02*
X0443453Y0528643D01*
X0441643Y0530453D01*
X0439279Y0531432D01*
X0436721Y0531432D01*
X0434357Y0530453D01*
X0432547Y0528643D01*
X0432144Y0527670D01*
X0430889Y0527670D01*
X0430889Y0532448D01*
X0429337Y0534000D01*
X0427734Y0534000D01*
X0427734Y0536000D01*
X0429337Y0536000D01*
X0430889Y0537552D01*
X0430889Y0552448D01*
X0429337Y0554000D01*
X0412663Y0554000D01*
X0411111Y0552448D01*
X0411111Y0549314D01*
X0410546Y0548750D01*
X0409568Y0546386D01*
X0409568Y0543828D01*
X0410546Y0541464D01*
X0411111Y0540900D01*
X0411111Y0539951D01*
X0399644Y0528484D01*
X0398080Y0526920D01*
X0398080Y0454452D01*
X0399644Y0452888D01*
X0399644Y0452888D01*
X0432638Y0419894D01*
X0432638Y0419894D01*
X0434202Y0418330D01*
X0445144Y0418330D01*
X0445546Y0417357D01*
X0447357Y0415546D01*
X0449721Y0414568D01*
X0452279Y0414568D01*
X0454643Y0415546D01*
X0456453Y0417357D01*
X0457432Y0419721D01*
X0457432Y0422279D01*
X0456453Y0424643D01*
X0454643Y0426453D01*
X0452279Y0427432D01*
X0449721Y0427432D01*
X0449432Y0427312D01*
X0449432Y0428688D01*
X0449721Y0428568D01*
X0452279Y0428568D01*
X0454643Y0429547D01*
X0456453Y0431357D01*
X0457432Y0433721D01*
X0457432Y0436278D01*
X0456453Y0438643D01*
X0454643Y0440453D01*
X0452279Y0441432D01*
X0449721Y0441432D01*
X0449432Y0441312D01*
X0449432Y0443279D01*
X0448453Y0445643D01*
X0446643Y0447453D01*
X0444279Y0448432D01*
X0441721Y0448432D01*
X0439357Y0447453D01*
X0437547Y0445643D01*
X0437144Y0444670D01*
X0427166Y0444670D01*
X0415835Y0456000D01*
X0429337Y0456000D01*
X0430889Y0457552D01*
X0430889Y0472448D01*
X0429337Y0474000D01*
X0427734Y0474000D01*
X0427734Y0476000D01*
X0429337Y0476000D01*
X0430889Y0477552D01*
X0430889Y0492448D01*
X0429337Y0494000D01*
X0427734Y0494000D01*
X0427734Y0496000D01*
X0429337Y0496000D01*
X0430889Y0497552D01*
X0430889Y0512448D01*
X0429337Y0514000D01*
X0427734Y0514000D01*
X0427734Y0516000D01*
X0429337Y0516000D01*
X0430889Y0517552D01*
X0430889Y0522330D01*
X0432144Y0522330D01*
X0432547Y0521357D01*
X0434357Y0519547D01*
X0436721Y0518568D01*
X0439279Y0518568D01*
X0441643Y0519547D01*
X0443453Y0521357D01*
X0444432Y0523721D01*
X0500150Y0576986D02*
X0500150Y0583014D01*
X0497844Y0588582D01*
X0493581Y0592844D01*
X0488014Y0595150D01*
X0481986Y0595150D01*
X0476418Y0592844D01*
X0472156Y0588582D01*
X0469850Y0583014D01*
X0469850Y0576986D01*
X0472156Y0571418D01*
X0476418Y0567156D01*
X0481986Y0564850D01*
X0488014Y0564850D01*
X0493581Y0567156D01*
X0497844Y0571418D01*
X0500150Y0576986D01*
X0500150Y0423014D02*
X0500150Y0416986D01*
X0500150Y0423014D02*
X0497844Y0428581D01*
X0493581Y0432844D01*
X0488014Y0435150D01*
X0481986Y0435150D01*
X0476418Y0432844D01*
X0472156Y0428581D01*
X0469850Y0423014D01*
X0469850Y0416986D01*
X0472156Y0411418D01*
X0476418Y0407156D01*
X0481986Y0404850D01*
X0488014Y0404850D01*
X0493581Y0407156D01*
X0497844Y0411418D01*
X0500150Y0416986D01*
X0476796Y0407000D02*
X0417744Y0407000D01*
X0493204Y0407000D02*
X0552256Y0407000D01*
X0473075Y0410500D02*
X0411000Y0410500D01*
X0496925Y0410500D02*
X0559000Y0410500D01*
X0471087Y0414000D02*
X0406435Y0414000D01*
X0498913Y0414000D02*
X0563565Y0414000D01*
X0445488Y0417500D02*
X0402935Y0417500D01*
X0456512Y0417500D02*
X0469850Y0417500D01*
X0500150Y0417500D02*
X0513488Y0417500D01*
X0524512Y0417500D02*
X0567065Y0417500D01*
X0431532Y0421000D02*
X0400500Y0421000D01*
X0457432Y0421000D02*
X0469850Y0421000D01*
X0500150Y0421000D02*
X0512568Y0421000D01*
X0534776Y0421000D02*
X0569500Y0421000D01*
X0428031Y0424500D02*
X0398479Y0424500D01*
X0456512Y0424500D02*
X0470466Y0424500D01*
X0499534Y0424500D02*
X0513488Y0424500D01*
X0538276Y0424500D02*
X0571521Y0424500D01*
X0424532Y0428000D02*
X0396931Y0428000D01*
X0449432Y0428000D02*
X0471915Y0428000D01*
X0498085Y0428000D02*
X0520568Y0428000D01*
X0541776Y0428000D02*
X0573069Y0428000D01*
X0421032Y0431500D02*
X0395994Y0431500D01*
X0456512Y0431500D02*
X0475075Y0431500D01*
X0494925Y0431500D02*
X0513488Y0431500D01*
X0545276Y0431500D02*
X0574006Y0431500D01*
X0417532Y0435000D02*
X0395056Y0435000D01*
X0457432Y0435000D02*
X0481624Y0435000D01*
X0488376Y0435000D02*
X0512568Y0435000D01*
X0548776Y0435000D02*
X0574944Y0435000D01*
X0414032Y0438500D02*
X0394748Y0438500D01*
X0456512Y0438500D02*
X0513488Y0438500D01*
X0552276Y0438500D02*
X0575252Y0438500D01*
X0410531Y0442000D02*
X0394650Y0442000D01*
X0449432Y0442000D02*
X0520568Y0442000D01*
X0555776Y0442000D02*
X0575350Y0442000D01*
X0407032Y0445500D02*
X0394650Y0445500D01*
X0426336Y0445500D02*
X0437488Y0445500D01*
X0448512Y0445500D02*
X0510264Y0445500D01*
X0557670Y0445500D02*
X0575350Y0445500D01*
X0403532Y0449000D02*
X0394650Y0449000D01*
X0422836Y0449000D02*
X0509467Y0449000D01*
X0557670Y0449000D02*
X0575350Y0449000D01*
X0400032Y0452500D02*
X0394650Y0452500D01*
X0419336Y0452500D02*
X0510604Y0452500D01*
X0521196Y0452500D02*
X0530724Y0452500D01*
X0560926Y0452500D02*
X0575350Y0452500D01*
X0398080Y0456000D02*
X0394650Y0456000D01*
X0429337Y0456000D02*
X0534224Y0456000D01*
X0561432Y0456000D02*
X0575350Y0456000D01*
X0398080Y0459500D02*
X0394650Y0459500D01*
X0430889Y0459500D02*
X0536560Y0459500D01*
X0559596Y0459500D02*
X0575350Y0459500D01*
X0398080Y0463000D02*
X0394650Y0463000D01*
X0430889Y0463000D02*
X0536560Y0463000D01*
X0550670Y0463000D02*
X0575350Y0463000D01*
X0398080Y0466500D02*
X0394650Y0466500D01*
X0430889Y0466500D02*
X0536560Y0466500D01*
X0550670Y0466500D02*
X0575350Y0466500D01*
X0398080Y0470000D02*
X0394650Y0470000D01*
X0430889Y0470000D02*
X0536560Y0470000D01*
X0550776Y0470000D02*
X0550904Y0470000D01*
X0559096Y0470000D02*
X0575350Y0470000D01*
X0398080Y0473500D02*
X0394650Y0473500D01*
X0429837Y0473500D02*
X0536560Y0473500D01*
X0561341Y0473500D02*
X0575350Y0473500D01*
X0398080Y0477000D02*
X0394650Y0477000D01*
X0430336Y0477000D02*
X0536560Y0477000D01*
X0547670Y0477000D02*
X0548867Y0477000D01*
X0561134Y0477000D02*
X0575350Y0477000D01*
X0398080Y0480500D02*
X0394650Y0480500D01*
X0430889Y0480500D02*
X0536560Y0480500D01*
X0547670Y0480500D02*
X0551471Y0480500D01*
X0558529Y0480500D02*
X0575350Y0480500D01*
X0398080Y0484000D02*
X0394650Y0484000D01*
X0430889Y0484000D02*
X0536560Y0484000D01*
X0547670Y0484000D02*
X0575350Y0484000D01*
X0398080Y0487500D02*
X0394650Y0487500D01*
X0430889Y0487500D02*
X0536560Y0487500D01*
X0550171Y0487500D02*
X0575350Y0487500D01*
X0398080Y0491000D02*
X0394650Y0491000D01*
X0430889Y0491000D02*
X0536560Y0491000D01*
X0544900Y0491000D02*
X0546029Y0491000D01*
X0560096Y0491000D02*
X0575350Y0491000D01*
X0398080Y0494500D02*
X0394650Y0494500D01*
X0427734Y0494500D02*
X0536560Y0494500D01*
X0544900Y0494500D02*
X0548568Y0494500D01*
X0561432Y0494500D02*
X0575350Y0494500D01*
X0398080Y0498000D02*
X0394650Y0498000D01*
X0430889Y0498000D02*
X0536560Y0498000D01*
X0544900Y0498000D02*
X0549281Y0498000D01*
X0560719Y0498000D02*
X0575350Y0498000D01*
X0398080Y0501500D02*
X0394650Y0501500D01*
X0430889Y0501500D02*
X0536560Y0501500D01*
X0544900Y0501500D02*
X0575350Y0501500D01*
X0398080Y0505000D02*
X0394650Y0505000D01*
X0430889Y0505000D02*
X0536560Y0505000D01*
X0547516Y0505000D02*
X0575350Y0505000D01*
X0398080Y0508500D02*
X0394650Y0508500D01*
X0430889Y0508500D02*
X0536560Y0508500D01*
X0541900Y0508500D02*
X0543400Y0508500D01*
X0551564Y0508500D02*
X0575350Y0508500D01*
X0398080Y0512000D02*
X0394650Y0512000D01*
X0430889Y0512000D02*
X0536560Y0512000D01*
X0541900Y0512000D02*
X0547448Y0512000D01*
X0560719Y0512000D02*
X0575350Y0512000D01*
X0398080Y0515500D02*
X0394650Y0515500D01*
X0427734Y0515500D02*
X0536560Y0515500D01*
X0541900Y0515500D02*
X0548568Y0515500D01*
X0561432Y0515500D02*
X0575350Y0515500D01*
X0398080Y0519000D02*
X0394650Y0519000D01*
X0430889Y0519000D02*
X0435678Y0519000D01*
X0440322Y0519000D02*
X0536560Y0519000D01*
X0541900Y0519000D02*
X0549904Y0519000D01*
X0560096Y0519000D02*
X0575350Y0519000D01*
X0398080Y0522500D02*
X0394650Y0522500D01*
X0443926Y0522500D02*
X0536892Y0522500D01*
X0544937Y0522500D02*
X0575350Y0522500D01*
X0398080Y0526000D02*
X0394650Y0526000D01*
X0444432Y0526000D02*
X0540836Y0526000D01*
X0548881Y0526000D02*
X0575350Y0526000D01*
X0400660Y0529500D02*
X0394650Y0529500D01*
X0430889Y0529500D02*
X0433404Y0529500D01*
X0442596Y0529500D02*
X0544780Y0529500D01*
X0558529Y0529500D02*
X0575350Y0529500D01*
X0404159Y0533000D02*
X0394650Y0533000D01*
X0430336Y0533000D02*
X0548724Y0533000D01*
X0561133Y0533000D02*
X0575350Y0533000D01*
X0407660Y0536500D02*
X0394650Y0536500D01*
X0429837Y0536500D02*
X0548659Y0536500D01*
X0561341Y0536500D02*
X0575350Y0536500D01*
X0411111Y0540000D02*
X0394650Y0540000D01*
X0430889Y0540000D02*
X0550904Y0540000D01*
X0559096Y0540000D02*
X0575350Y0540000D01*
X0409704Y0543500D02*
X0394650Y0543500D01*
X0430889Y0543500D02*
X0575350Y0543500D01*
X0409822Y0547000D02*
X0394650Y0547000D01*
X0430889Y0547000D02*
X0575350Y0547000D01*
X0411111Y0550500D02*
X0394650Y0550500D01*
X0430889Y0550500D02*
X0575350Y0550500D01*
X0575350Y0554000D02*
X0394650Y0554000D01*
X0394650Y0557500D02*
X0575350Y0557500D01*
X0575284Y0561000D02*
X0394716Y0561000D01*
X0394945Y0564500D02*
X0575055Y0564500D01*
X0475575Y0568000D02*
X0395860Y0568000D01*
X0494425Y0568000D02*
X0574140Y0568000D01*
X0472123Y0571500D02*
X0396796Y0571500D01*
X0497877Y0571500D02*
X0573202Y0571500D01*
X0470673Y0575000D02*
X0398191Y0575000D01*
X0499326Y0575000D02*
X0571809Y0575000D01*
X0469850Y0578500D02*
X0400212Y0578500D01*
X0500150Y0578500D02*
X0569788Y0578500D01*
X0469850Y0582000D02*
X0402435Y0582000D01*
X0500150Y0582000D02*
X0567565Y0582000D01*
X0470880Y0585500D02*
X0405935Y0585500D01*
X0499120Y0585500D02*
X0564065Y0585500D01*
X0472575Y0589000D02*
X0410134Y0589000D01*
X0497425Y0589000D02*
X0559866Y0589000D01*
X0476075Y0592500D02*
X0416197Y0592500D01*
X0493925Y0592500D02*
X0553803Y0592500D01*
X0397000Y0572256D02*
X0397000Y0427744D01*
X0400500Y0421000D02*
X0400500Y0452032D01*
X0400500Y0529340D02*
X0400500Y0579000D01*
X0404000Y0448532D02*
X0404000Y0416435D01*
X0404000Y0532840D02*
X0404000Y0583565D01*
X0407500Y0445032D02*
X0407500Y0412935D01*
X0407500Y0536340D02*
X0407500Y0587065D01*
X0411000Y0441532D02*
X0411000Y0410500D01*
X0411000Y0539840D02*
X0411000Y0541011D01*
X0411000Y0549203D02*
X0411000Y0589500D01*
X0414500Y0438031D02*
X0414500Y0408479D01*
X0414500Y0554000D02*
X0414500Y0591521D01*
X0418000Y0434532D02*
X0418000Y0406931D01*
X0418000Y0453836D02*
X0418000Y0456000D01*
X0418000Y0554000D02*
X0418000Y0593069D01*
X0421500Y0431032D02*
X0421500Y0405994D01*
X0421500Y0450336D02*
X0421500Y0456000D01*
X0421500Y0554000D02*
X0421500Y0594006D01*
X0425000Y0427532D02*
X0425000Y0405056D01*
X0425000Y0446836D02*
X0425000Y0456000D01*
X0425000Y0554000D02*
X0425000Y0594944D01*
X0428500Y0424032D02*
X0428500Y0404748D01*
X0428500Y0444670D02*
X0428500Y0456000D01*
X0428500Y0474000D02*
X0428500Y0476000D01*
X0428500Y0494000D02*
X0428500Y0496000D01*
X0428500Y0514000D02*
X0428500Y0516000D01*
X0428500Y0534000D02*
X0428500Y0536000D01*
X0428500Y0554000D02*
X0428500Y0595252D01*
X0432000Y0420531D02*
X0432000Y0404650D01*
X0432000Y0444670D02*
X0432000Y0522330D01*
X0432000Y0527670D02*
X0432000Y0595350D01*
X0435500Y0418330D02*
X0435500Y0404650D01*
X0435500Y0444670D02*
X0435500Y0519074D01*
X0435500Y0530926D02*
X0435500Y0595350D01*
X0439000Y0418330D02*
X0439000Y0404650D01*
X0439000Y0447096D02*
X0439000Y0518568D01*
X0439000Y0531432D02*
X0439000Y0595350D01*
X0442500Y0418330D02*
X0442500Y0404650D01*
X0442500Y0448432D02*
X0442500Y0520404D01*
X0442500Y0529596D02*
X0442500Y0595350D01*
X0446000Y0416903D02*
X0446000Y0404650D01*
X0446000Y0447719D02*
X0446000Y0595350D01*
X0449500Y0414659D02*
X0449500Y0404650D01*
X0449500Y0427341D02*
X0449500Y0428658D01*
X0449500Y0441341D02*
X0449500Y0595350D01*
X0453000Y0414866D02*
X0453000Y0404650D01*
X0453000Y0427132D02*
X0453000Y0428866D01*
X0453000Y0441133D02*
X0453000Y0595350D01*
X0456500Y0417471D02*
X0456500Y0404650D01*
X0456500Y0424529D02*
X0456500Y0431471D01*
X0456500Y0438529D02*
X0456500Y0595350D01*
X0460000Y0595350D02*
X0460000Y0404650D01*
X0463500Y0404650D02*
X0463500Y0595350D01*
X0467000Y0595350D02*
X0467000Y0404650D01*
X0470500Y0404650D02*
X0470500Y0415417D01*
X0470500Y0424583D02*
X0470500Y0575417D01*
X0470500Y0584583D02*
X0470500Y0595350D01*
X0474000Y0409575D02*
X0474000Y0404650D01*
X0474000Y0430424D02*
X0474000Y0569575D01*
X0474000Y0590425D02*
X0474000Y0595350D01*
X0477500Y0406708D02*
X0477500Y0404650D01*
X0477500Y0433292D02*
X0477500Y0566708D01*
X0477500Y0593292D02*
X0477500Y0595350D01*
X0481000Y0405259D02*
X0481000Y0404650D01*
X0481000Y0434741D02*
X0481000Y0565259D01*
X0481000Y0594741D02*
X0481000Y0595350D01*
X0484500Y0404850D02*
X0484500Y0404650D01*
X0484500Y0435150D02*
X0484500Y0564850D01*
X0484500Y0595150D02*
X0484500Y0595350D01*
X0488000Y0404850D02*
X0488000Y0404650D01*
X0488000Y0435150D02*
X0488000Y0564850D01*
X0488000Y0595150D02*
X0488000Y0595350D01*
X0491500Y0406293D02*
X0491500Y0404650D01*
X0491500Y0433706D02*
X0491500Y0566294D01*
X0491500Y0593706D02*
X0491500Y0595350D01*
X0495000Y0408575D02*
X0495000Y0404650D01*
X0495000Y0431425D02*
X0495000Y0568575D01*
X0495000Y0591425D02*
X0495000Y0595350D01*
X0498500Y0413003D02*
X0498500Y0404650D01*
X0498500Y0426997D02*
X0498500Y0573003D01*
X0498500Y0586997D02*
X0498500Y0595350D01*
X0502000Y0595350D02*
X0502000Y0404650D01*
X0505500Y0404650D02*
X0505500Y0595350D01*
X0509000Y0595350D02*
X0509000Y0404650D01*
X0512500Y0404650D02*
X0512500Y0443146D01*
X0512500Y0454253D02*
X0512500Y0595350D01*
X0516000Y0415281D02*
X0516000Y0404650D01*
X0516000Y0426719D02*
X0516000Y0429281D01*
X0516000Y0440719D02*
X0516000Y0442268D01*
X0516000Y0455132D02*
X0516000Y0595350D01*
X0519500Y0414568D02*
X0519500Y0404650D01*
X0519500Y0427432D02*
X0519500Y0428568D01*
X0519500Y0441432D02*
X0519500Y0443228D01*
X0519500Y0454171D02*
X0519500Y0595350D01*
X0523000Y0415904D02*
X0523000Y0404650D01*
X0523000Y0451370D02*
X0523000Y0595350D01*
X0526500Y0418330D02*
X0526500Y0404650D01*
X0526500Y0451370D02*
X0526500Y0595350D01*
X0530000Y0418330D02*
X0530000Y0404650D01*
X0530000Y0451776D02*
X0530000Y0595350D01*
X0533500Y0419724D02*
X0533500Y0404650D01*
X0533500Y0455276D02*
X0533500Y0595350D01*
X0537000Y0423224D02*
X0537000Y0404650D01*
X0537000Y0522596D02*
X0537000Y0595350D01*
X0540500Y0426724D02*
X0540500Y0404683D01*
X0540500Y0525702D02*
X0540500Y0595317D01*
X0544000Y0430224D02*
X0544000Y0404912D01*
X0544000Y0509019D02*
X0544000Y0521668D01*
X0544000Y0528808D02*
X0544000Y0595088D01*
X0547500Y0433724D02*
X0547500Y0405726D01*
X0547500Y0492226D02*
X0547500Y0504985D01*
X0547500Y0512044D02*
X0547500Y0524774D01*
X0547500Y0531914D02*
X0547500Y0594274D01*
X0551000Y0437224D02*
X0551000Y0406664D01*
X0551000Y0460096D02*
X0551000Y0469904D01*
X0551000Y0480096D02*
X0551000Y0488191D01*
X0551000Y0500096D02*
X0551000Y0508012D01*
X0551000Y0520096D02*
X0551000Y0527880D01*
X0551000Y0540096D02*
X0551000Y0593336D01*
X0554500Y0440724D02*
X0554500Y0407902D01*
X0554500Y0461432D02*
X0554500Y0468568D01*
X0554500Y0481432D02*
X0554500Y0488568D01*
X0554500Y0501432D02*
X0554500Y0508568D01*
X0554500Y0521432D02*
X0554500Y0528568D01*
X0554500Y0541432D02*
X0554500Y0592098D01*
X0558000Y0449281D02*
X0558000Y0409923D01*
X0558000Y0460719D02*
X0558000Y0469281D01*
X0558000Y0480719D02*
X0558000Y0489281D01*
X0558000Y0500719D02*
X0558000Y0509281D01*
X0558000Y0520719D02*
X0558000Y0529281D01*
X0558000Y0540719D02*
X0558000Y0590077D01*
X0561500Y0588056D02*
X0561500Y0411944D01*
X0565000Y0415435D02*
X0565000Y0584565D01*
X0568500Y0580732D02*
X0568500Y0419268D01*
X0572000Y0425331D02*
X0572000Y0574670D01*
D11*
X0402500Y0425000D03*
X0402500Y0433500D03*
X0402500Y0442000D03*
X0567500Y0433500D03*
X0567500Y0442000D03*
X0567500Y0425000D03*
X0567500Y0570000D03*
X0567500Y0560000D03*
X0545000Y0590000D03*
X0402500Y0560000D03*
X0421500Y0590000D03*
X0402500Y0570000D03*
X0466500Y0472500D03*
X0443700Y0545900D03*
X0502900Y0480800D03*
X0438500Y0464500D03*
X0447500Y0464500D03*
X0530500Y0535500D03*
X0456000Y0456000D03*
X0514000Y0545000D03*
X0522000Y0535500D03*
D13*
X0425064Y0545000D02*
X0425064Y0525000D01*
X0425064Y0505000D01*
X0425064Y0485000D01*
X0425064Y0465000D01*
D11*
X0438000Y0525000D03*
D13*
X0425064Y0525000D01*
D11*
X0415893Y0525000D03*
D14*
X0416936Y0525000D01*
D13*
X0416936Y0521936D01*
X0403519Y0508520D01*
X0403519Y0456704D01*
X0548000Y0471000D02*
X0552000Y0475000D01*
X0555000Y0475000D01*
D11*
X0555000Y0475000D03*
X0443000Y0428000D03*
X0527000Y0428000D03*
D13*
X0432224Y0428000D02*
X0403519Y0456704D01*
X0432224Y0428000D02*
X0443000Y0428000D01*
X0531000Y0428000D02*
X0548000Y0445000D01*
X0531000Y0428000D02*
X0527000Y0428000D01*
X0548000Y0445000D02*
X0548000Y0471000D01*
D11*
X0416000Y0505107D03*
D14*
X0416107Y0505000D02*
X0416936Y0505000D01*
X0416107Y0505000D02*
X0416000Y0505107D01*
D13*
X0416936Y0505000D02*
X0416936Y0501646D01*
X0406290Y0491000D01*
X0406290Y0457853D02*
X0429143Y0435000D01*
X0406290Y0457853D02*
X0406290Y0491000D01*
X0545000Y0486667D02*
X0555000Y0495000D01*
D11*
X0555000Y0495000D03*
X0451000Y0435000D03*
X0519000Y0435000D03*
D13*
X0451000Y0435000D02*
X0429143Y0435000D01*
X0519000Y0435000D02*
X0531238Y0435000D01*
X0545000Y0448762D01*
X0545000Y0486667D01*
D11*
X0416000Y0485107D03*
D14*
X0416107Y0485000D02*
X0416936Y0485000D01*
X0416107Y0485000D02*
X0416000Y0485107D01*
D13*
X0416936Y0485000D02*
X0416936Y0481876D01*
X0409060Y0474000D01*
X0409060Y0459000D01*
D11*
X0555000Y0515000D03*
D13*
X0542230Y0503959D02*
X0542230Y0453230D01*
X0542230Y0503959D02*
X0555000Y0515000D01*
D11*
X0443000Y0442000D03*
X0527000Y0442000D03*
D13*
X0443000Y0442000D02*
X0426060Y0442000D01*
X0409060Y0459000D01*
X0527000Y0442000D02*
X0531000Y0442000D01*
X0542230Y0453230D01*
D11*
X0416000Y0465107D03*
D14*
X0416107Y0465000D02*
X0416936Y0465000D01*
X0416107Y0465000D02*
X0416000Y0465107D01*
D13*
X0539230Y0457230D02*
X0539230Y0521004D01*
D11*
X0555000Y0535000D03*
D13*
X0539230Y0521004D01*
D11*
X0515900Y0448700D03*
D13*
X0530700Y0448700D01*
X0539230Y0457230D01*
D11*
X0416000Y0545107D03*
D14*
X0416084Y0545023D02*
X0416936Y0545000D01*
X0416084Y0545023D02*
X0416000Y0545107D01*
D13*
X0416936Y0545000D02*
X0416936Y0542000D01*
X0400750Y0525814D01*
X0400750Y0455558D01*
D11*
X0555000Y0455000D03*
X0451000Y0421000D03*
X0519000Y0421000D03*
D13*
X0435308Y0421000D02*
X0400750Y0455558D01*
X0435308Y0421000D02*
X0451000Y0421000D01*
X0519000Y0421000D02*
X0531000Y0421000D01*
X0555000Y0445000D01*
X0555000Y0455000D01*
M02*