G04 EAGLE Gerber RS-274X export*
G75*
%MOMM*%
%FSLAX34Y34*%
%LPD*%
%INoutline*%
%IPPOS*%
%AMOC8*
5,1,8,0,0,$1,22.5*%
G01*
%ADD10C,0.254*%
D10*
X0390000Y0440000D02*
X0390152Y0436514D01*
X0390608Y0433054D01*
X0391363Y0429647D01*
X0392412Y0426319D01*
X0393748Y0423095D01*
X0395359Y0420000D01*
X0397234Y0417057D01*
X0399358Y0414289D01*
X0401716Y0411716D01*
X0404289Y0409358D01*
X0407057Y0407234D01*
X0410000Y0405359D01*
X0413095Y0403748D01*
X0416319Y0402412D01*
X0419647Y0401363D01*
X0423054Y0400608D01*
X0426514Y0400152D01*
X0430000Y0400000D01*
X0540000Y0400000D01*
X0543486Y0400152D01*
X0546946Y0400608D01*
X0550353Y0401363D01*
X0553681Y0402412D01*
X0556905Y0403748D01*
X0560000Y0405359D01*
X0562943Y0407234D01*
X0565712Y0409358D01*
X0568284Y0411716D01*
X0570642Y0414289D01*
X0572766Y0417057D01*
X0574641Y0420000D01*
X0576252Y0423095D01*
X0577588Y0426319D01*
X0578637Y0429647D01*
X0579392Y0433054D01*
X0579848Y0436514D01*
X0580000Y0440000D01*
X0580000Y0560000D01*
X0579848Y0563486D01*
X0579392Y0566946D01*
X0578637Y0570353D01*
X0577588Y0573681D01*
X0576252Y0576905D01*
X0574641Y0580000D01*
X0572766Y0582943D01*
X0570642Y0585712D01*
X0568284Y0588284D01*
X0565712Y0590642D01*
X0562943Y0592766D01*
X0560000Y0594641D01*
X0556905Y0596252D01*
X0553681Y0597588D01*
X0550353Y0598637D01*
X0546946Y0599392D01*
X0543486Y0599848D01*
X0540000Y0600000D01*
X0430000Y0600000D01*
X0426514Y0599848D01*
X0423054Y0599392D01*
X0419647Y0598637D01*
X0416319Y0597588D01*
X0413095Y0596252D01*
X0410000Y0594641D01*
X0407057Y0592766D01*
X0404289Y0590642D01*
X0401716Y0588284D01*
X0399358Y0585712D01*
X0397234Y0582943D01*
X0395359Y0580000D01*
X0393748Y0576905D01*
X0392412Y0573681D01*
X0391363Y0570353D01*
X0390608Y0566946D01*
X0390152Y0563486D01*
X0390000Y0560000D01*
X0390000Y0440000D01*
M02*