%MOIN*%
%OFA0B0*%
%FSLAX36Y36*%
%IPPOS*%
%LPD*%
%ADD10C,0.03937007874015748*%
%ADD11C,0.0078740157480314977*%
D10*
X000000000Y000000000D02*
X000196850Y003740157D03*
X000196850Y000196850D03*
X003622047Y000196850D03*
D11*
X000819726Y003789302D02*
X000839318Y003789302D01*
X000862599Y003719660D01*
X000865383Y003711156D01*
X000867295Y003705101D01*
X000869442Y003711726D01*
X000872528Y003720868D01*
X000896078Y003789302D01*
X000913589Y003789302D01*
X000913589Y003690944D01*
X000901043Y003690944D01*
X000901043Y003773267D01*
X000872461Y003690944D01*
X000860720Y003690944D01*
X000832273Y003774676D01*
X000832273Y003690944D01*
X000819726Y003690944D01*
X000819726Y003789302D01*
X001017784Y003722143D02*
X001012056Y003708011D01*
X001003058Y003697687D01*
X000991241Y003691372D01*
X000977058Y003689267D01*
X000962643Y003690886D01*
X000951195Y003695742D01*
X000942422Y003703667D01*
X000936032Y003714494D01*
X000932132Y003727225D01*
X000930832Y003740861D01*
X000932300Y003755244D01*
X000936703Y003767665D01*
X000943815Y003777729D01*
X000953409Y003785042D01*
X000964789Y003789494D01*
X000977260Y003790980D01*
X000990847Y003789101D01*
X001002084Y003783465D01*
X001010621Y003774425D01*
X001016107Y003762331D01*
X001003292Y003759312D01*
X000999099Y003768588D01*
X000993363Y003774945D01*
X000986016Y003778618D01*
X000976992Y003779842D01*
X000966584Y003778484D01*
X000958038Y003774408D01*
X000951555Y003768042D01*
X000947337Y003759815D01*
X000945022Y003750514D01*
X000944251Y003740929D01*
X000945165Y003729178D01*
X000947907Y003719023D01*
X000952579Y003710845D01*
X000959280Y003705033D01*
X000967314Y003701562D01*
X000975986Y003700404D01*
X000986082Y003701980D01*
X000994503Y003706711D01*
X001000860Y003714544D01*
X001004768Y003725430D01*
X001017784Y003722143D01*
X001033820Y003789302D02*
X001070922Y003789302D01*
X001079560Y003789068D01*
X001085884Y003788363D01*
X001098028Y003783767D01*
X001102447Y003779700D01*
X001105911Y003774274D01*
X001108150Y003767866D01*
X001108897Y003760855D01*
X001106901Y003749273D01*
X001100912Y003739620D01*
X001096115Y003735819D01*
X001089708Y003733104D01*
X001081690Y003731475D01*
X001072063Y003730932D01*
X001046836Y003730932D01*
X001046836Y003690944D01*
X001033820Y003690944D01*
X001033820Y003789302D01*
X001072264Y003742539D02*
X001083049Y003743712D01*
X001090178Y003747235D01*
X001094153Y003752888D01*
X001095478Y003760452D01*
X001094698Y003766181D01*
X001092358Y003771020D01*
X001088744Y003774668D01*
X001084139Y003776823D01*
X001079460Y003777477D01*
X001071995Y003777695D01*
X001046836Y003777695D01*
X001046836Y003742539D01*
X001072264Y003742539D01*
X001133989Y003714762D02*
X001136136Y003707701D01*
X001139625Y003702887D01*
X001144372Y003700119D01*
X001150293Y003699197D01*
X001160055Y003701746D01*
X001166932Y003708556D01*
X001169398Y003713563D01*
X001171427Y003720063D01*
X001173239Y003734823D01*
X001173171Y003737238D01*
X001168886Y003732014D01*
X001163275Y003727879D01*
X001156742Y003725187D01*
X001149689Y003724290D01*
X001138417Y003726504D01*
X001129024Y003733146D01*
X001122684Y003743411D01*
X001120571Y003756494D01*
X001122776Y003769997D01*
X001129393Y003780580D01*
X001139332Y003787424D01*
X001151501Y003789705D01*
X001160684Y003788413D01*
X001169045Y003784539D01*
X001176040Y003778274D01*
X001181122Y003769812D01*
X001184217Y003758113D01*
X001185248Y003742135D01*
X001184225Y003725204D01*
X001181156Y003712112D01*
X001176065Y003702275D01*
X001168978Y003695104D01*
X001160197Y003690726D01*
X001150024Y003689267D01*
X001139541Y003690869D01*
X001131171Y003695674D01*
X001125318Y003703382D01*
X001122382Y003713689D01*
X001133989Y003714762D01*
X001170446Y003766424D02*
X001166294Y003773603D01*
X001160197Y003778182D01*
X001152977Y003779707D01*
X001145445Y003778064D01*
X001138954Y003773133D01*
X001134476Y003765585D01*
X001132983Y003756092D01*
X001134400Y003747579D01*
X001138652Y003740828D01*
X001144984Y003736425D01*
X001152641Y003734957D01*
X001160281Y003736425D01*
X001166429Y003740828D01*
X001170479Y003747830D01*
X001171830Y003757097D01*
X001170446Y003766424D01*
X001209033Y003747621D02*
X001204437Y003752133D01*
X001201719Y003757735D01*
X001200814Y003764344D01*
X001202743Y003774223D01*
X001208529Y003782391D01*
X001217520Y003787877D01*
X001229060Y003789705D01*
X001240684Y003787835D01*
X001249792Y003782224D01*
X001255679Y003773930D01*
X001257641Y003764008D01*
X001256744Y003757610D01*
X001254052Y003752100D01*
X001249532Y003747612D01*
X001243149Y003744283D01*
X001251125Y003740425D01*
X001256937Y003734756D01*
X001260484Y003727544D01*
X001261667Y003719056D01*
X001259436Y003707449D01*
X001252744Y003697855D01*
X001242411Y003691414D01*
X001229261Y003689267D01*
X001216111Y003691422D01*
X001205779Y003697888D01*
X001199086Y003707575D01*
X001196855Y003719392D01*
X001198071Y003728205D01*
X001201719Y003735460D01*
X001207615Y003740902D01*
X001215574Y003744283D01*
X001209033Y003747621D01*
X001214283Y003758406D02*
X001217654Y003753341D01*
X001222820Y003750020D01*
X001229328Y003748913D01*
X001235677Y003750011D01*
X001240768Y003753307D01*
X001244114Y003758197D01*
X001245229Y003764076D01*
X001244080Y003770189D01*
X001240633Y003775247D01*
X001235476Y003778643D01*
X001229194Y003779775D01*
X001222871Y003778668D01*
X001217721Y003775347D01*
X001214299Y003770482D01*
X001213159Y003764747D01*
X001214283Y003758406D01*
X001211716Y003709328D02*
X001218996Y003701847D01*
X001224011Y003699858D01*
X001229395Y003699197D01*
X001237295Y003700589D01*
X001243686Y003704766D01*
X001247913Y003711088D01*
X001249322Y003718922D01*
X001247871Y003726889D01*
X001243518Y003733347D01*
X001236985Y003737624D01*
X001228993Y003739050D01*
X001221202Y003737641D01*
X001214870Y003733414D01*
X001210668Y003727074D01*
X001209267Y003719325D01*
X001211716Y003709328D01*
X001274305Y003755194D02*
X001276998Y003767531D01*
X001281459Y003776949D01*
X001287665Y003783935D01*
X001295658Y003788263D01*
X001305479Y003789705D01*
X001312908Y003788908D01*
X001319367Y003786518D01*
X001324818Y003782627D01*
X001329228Y003777326D01*
X001332701Y003770667D01*
X001335335Y003762700D01*
X001336995Y003752577D01*
X001337549Y003739453D01*
X001336660Y003723811D01*
X001333993Y003711508D01*
X001329557Y003702082D01*
X001323359Y003695071D01*
X001315350Y003690717D01*
X001305479Y003689267D01*
X001292780Y003691817D01*
X001283136Y003699465D01*
X001278880Y003706568D01*
X001275840Y003715601D01*
X001274015Y003726562D01*
X001273408Y003739453D01*
X001274305Y003755194D01*
X001286175Y003728355D02*
X001287238Y003719283D01*
X001289009Y003712236D01*
X001291490Y003707214D01*
X001297822Y003701201D01*
X001305479Y003699197D01*
X001313136Y003701210D01*
X001319467Y003707248D01*
X001321948Y003712280D01*
X001323719Y003719325D01*
X001324782Y003728382D01*
X001325136Y003739453D01*
X001324782Y003750577D01*
X001323719Y003759664D01*
X001321948Y003766713D01*
X001319467Y003771724D01*
X001313102Y003777712D01*
X001305344Y003779707D01*
X001297864Y003777947D01*
X001292060Y003772663D01*
X001289330Y003767216D01*
X001287380Y003759865D01*
X001286210Y003750611D01*
X001285820Y003739453D01*
X001286175Y003728355D01*
X001361870Y003747621D02*
X001357274Y003752133D01*
X001354557Y003757735D01*
X001353651Y003764344D01*
X001355580Y003774223D01*
X001361367Y003782391D01*
X001370357Y003787877D01*
X001381897Y003789705D01*
X001393521Y003787835D01*
X001402628Y003782224D01*
X001408516Y003773930D01*
X001410479Y003764008D01*
X001409581Y003757610D01*
X001406889Y003752100D01*
X001402369Y003747612D01*
X001395986Y003744283D01*
X001403962Y003740425D01*
X001409774Y003734756D01*
X001413322Y003727544D01*
X001414504Y003719056D01*
X001412274Y003707449D01*
X001405581Y003697855D01*
X001395249Y003691414D01*
X001382099Y003689267D01*
X001368948Y003691422D01*
X001358615Y003697888D01*
X001351924Y003707575D01*
X001349693Y003719392D01*
X001350909Y003728205D01*
X001354557Y003735460D01*
X001360453Y003740902D01*
X001368412Y003744283D01*
X001361870Y003747621D01*
X001367120Y003758406D02*
X001370491Y003753341D01*
X001375658Y003750020D01*
X001382166Y003748913D01*
X001388514Y003750011D01*
X001393605Y003753307D01*
X001396951Y003758197D01*
X001398067Y003764076D01*
X001396918Y003770189D01*
X001393471Y003775247D01*
X001388313Y003778643D01*
X001382032Y003779775D01*
X001375707Y003778668D01*
X001370559Y003775347D01*
X001367137Y003770482D01*
X001365996Y003764747D01*
X001367120Y003758406D01*
X001364553Y003709328D02*
X001371833Y003701847D01*
X001376849Y003699858D01*
X001382233Y003699197D01*
X001390133Y003700589D01*
X001396524Y003704766D01*
X001400750Y003711088D01*
X001402159Y003718922D01*
X001400708Y003726889D01*
X001396356Y003733347D01*
X001389823Y003737624D01*
X001381830Y003739050D01*
X001374039Y003737641D01*
X001367707Y003733414D01*
X001363505Y003727074D01*
X001362105Y003719325D01*
X001364553Y003709328D01*
X001477169Y003723619D02*
X001478620Y003716901D01*
X001481228Y003711508D01*
X001485296Y003707231D01*
X001491124Y003703860D01*
X001498253Y003701671D01*
X001506220Y003700941D01*
X001519370Y003703155D01*
X001524344Y003705780D01*
X001527858Y003709227D01*
X001529946Y003713261D01*
X001530642Y003717646D01*
X001529971Y003721983D01*
X001527958Y003725732D01*
X001524403Y003728911D01*
X001519102Y003731536D01*
X001512745Y003733506D01*
X001501591Y003736333D01*
X001490068Y003739494D01*
X001482604Y003742472D01*
X001476456Y003746606D01*
X001472104Y003751630D01*
X001469512Y003757425D01*
X001468648Y003763874D01*
X001469705Y003771078D01*
X001472875Y003777796D01*
X001478075Y003783491D01*
X001485220Y003787625D01*
X001493791Y003790140D01*
X001503268Y003790980D01*
X001513559Y003790099D01*
X001522557Y003787456D01*
X001529946Y003783105D01*
X001535406Y003777092D01*
X001538861Y003769794D01*
X001540236Y003761593D01*
X001527757Y003760654D01*
X001525551Y003768839D01*
X001520947Y003774743D01*
X001513760Y003778315D01*
X001503805Y003779507D01*
X001493599Y003778425D01*
X001486596Y003775179D01*
X001482545Y003770407D01*
X001481195Y003764747D01*
X001482151Y003759916D01*
X001485019Y003756024D01*
X001487655Y003754303D01*
X001491804Y003752561D01*
X001497467Y003750797D01*
X001504644Y003749013D01*
X001518020Y003745650D01*
X001526415Y003742740D01*
X001533878Y003738253D01*
X001539096Y003732710D01*
X001542165Y003726177D01*
X001543189Y003718720D01*
X001542065Y003711097D01*
X001538693Y003703927D01*
X001533217Y003697754D01*
X001525778Y003693125D01*
X001516829Y003690232D01*
X001506824Y003689267D01*
X001494555Y003690240D01*
X001484449Y003693158D01*
X001476398Y003698031D01*
X001470292Y003704866D01*
X001466376Y003713194D01*
X001464891Y003722545D01*
X001477169Y003723619D01*
X001620681Y003712347D02*
X001616471Y003702635D01*
X001609745Y003695373D01*
X001600654Y003690843D01*
X001589348Y003689334D01*
X001575334Y003691741D01*
X001564558Y003698962D01*
X001557689Y003710527D01*
X001555399Y003725967D01*
X001557713Y003741935D01*
X001564658Y003753877D01*
X001575292Y003761325D01*
X001588677Y003763807D01*
X001601660Y003761374D01*
X001612026Y003754079D01*
X001618819Y003742371D01*
X001621082Y003726705D01*
X001621016Y003723484D01*
X001567879Y003723484D01*
X001569875Y003713119D01*
X001574521Y003705504D01*
X001581230Y003700824D01*
X001589415Y003699264D01*
X001595571Y003700136D01*
X001600754Y003702752D01*
X001604964Y003707281D01*
X001608201Y003713890D01*
X001620681Y003712347D01*
X001608336Y003733414D02*
X001606793Y003741281D01*
X001603773Y003746900D01*
X001597148Y003752133D01*
X001588812Y003753877D01*
X001581155Y003752485D01*
X001574823Y003748309D01*
X001570420Y003741801D01*
X001568550Y003733414D01*
X001608336Y003733414D01*
X001635844Y003762197D02*
X001646713Y003762197D01*
X001646713Y003752066D01*
X001651074Y003757203D01*
X001656307Y003760872D01*
X001662412Y003763073D01*
X001669390Y003763807D01*
X001681232Y003761493D01*
X001685954Y003758817D01*
X001689317Y003755421D01*
X001693074Y003746497D01*
X001693577Y003741885D01*
X001693744Y003734756D01*
X001693744Y003690944D01*
X001681668Y003690944D01*
X001681668Y003734286D01*
X001681316Y003740736D01*
X001680259Y003745323D01*
X001675261Y003751159D01*
X001666841Y003753341D01*
X001659652Y003752116D01*
X001653523Y003748443D01*
X001649321Y003741348D01*
X001647920Y003729858D01*
X001647920Y003690944D01*
X001635844Y003690944D01*
X001635844Y003762197D01*
X001719374Y003714091D02*
X001721278Y003707751D01*
X001724977Y003703088D01*
X001730487Y003700220D01*
X001737825Y003699264D01*
X001745071Y003700111D01*
X001750170Y003702652D01*
X001753189Y003706334D01*
X001754195Y003710603D01*
X001753307Y003714259D01*
X001750640Y003717043D01*
X001746312Y003718872D01*
X001738294Y003721136D01*
X001727048Y003724264D01*
X001719877Y003726939D01*
X001712095Y003733716D01*
X001710107Y003738270D01*
X001709445Y003743277D01*
X001711625Y003752100D01*
X001717563Y003758842D01*
X001725245Y003762365D01*
X001735678Y003763807D01*
X001750404Y003761392D01*
X001755915Y003758549D01*
X001759764Y003754850D01*
X001762314Y003750028D01*
X001763924Y003743814D01*
X001752116Y003742203D01*
X001750547Y003747101D01*
X001747453Y003750791D01*
X001742798Y003753106D01*
X001736550Y003753877D01*
X001729421Y003753190D01*
X001724675Y003751127D01*
X001722008Y003748141D01*
X001721119Y003744686D01*
X001722594Y003740459D01*
X001727223Y003737238D01*
X001730797Y003736131D01*
X001737892Y003734152D01*
X001748769Y003731041D01*
X001755772Y003728550D01*
X001763723Y003722210D01*
X001765886Y003717547D01*
X001766608Y003711877D01*
X001765727Y003706015D01*
X001763085Y003700505D01*
X001758783Y003695775D01*
X001752921Y003692253D01*
X001745842Y003690064D01*
X001737892Y003689334D01*
X001725656Y003690777D01*
X001716724Y003695104D01*
X001710760Y003702266D01*
X001707432Y003712213D01*
X001719374Y003714091D01*
X001777158Y003735825D02*
X001779220Y003743796D01*
X001782660Y003750485D01*
X001787474Y003755890D01*
X001797672Y003761828D01*
X001809882Y003763807D01*
X001823234Y003761400D01*
X001833902Y003754179D01*
X001840896Y003742715D01*
X001843228Y003727577D01*
X001842196Y003715291D01*
X001839101Y003705940D01*
X001834036Y003698936D01*
X001827092Y003693695D01*
X001818848Y003690424D01*
X001809882Y003689334D01*
X001796355Y003691733D01*
X001785695Y003698928D01*
X001778777Y003710636D01*
X001776470Y003726571D01*
X001777158Y003735825D01*
X001790375Y003714603D02*
X001794854Y003706074D01*
X001801597Y003700966D01*
X001809882Y003699264D01*
X001818118Y003700974D01*
X001824844Y003706107D01*
X001829323Y003714746D01*
X001830816Y003726972D01*
X001829314Y003738589D01*
X001824811Y003746999D01*
X001818076Y003752108D01*
X001809882Y003753810D01*
X001801597Y003752116D01*
X001794854Y003747034D01*
X001790375Y003738530D01*
X001788882Y003726571D01*
X001790375Y003714603D01*
X001857250Y003762197D02*
X001868118Y003762197D01*
X001868118Y003751395D01*
X001872120Y003757685D01*
X001875801Y003761392D01*
X001883549Y003763807D01*
X001889706Y003762834D01*
X001895962Y003759916D01*
X001891803Y003748711D01*
X001887375Y003750674D01*
X001882947Y003751328D01*
X001875834Y003748946D01*
X001871340Y003742337D01*
X001869327Y003728248D01*
X001869327Y003690944D01*
X001857250Y003690944D01*
X001857250Y003762197D01*
X001941250Y003690944D02*
X001941250Y003789302D01*
X001953327Y003789302D01*
X001953327Y003754213D01*
X001962032Y003761409D01*
X001972851Y003763807D01*
X001979250Y003763145D01*
X001985297Y003761157D01*
X001994958Y003753709D01*
X002000896Y003742135D01*
X002003043Y003727644D01*
X002000778Y003711408D01*
X001993985Y003699331D01*
X001984021Y003691833D01*
X001972247Y003689334D01*
X001966280Y003689993D01*
X001960992Y003691968D01*
X001956384Y003695259D01*
X001952455Y003699868D01*
X001952455Y003690944D01*
X001941250Y003690944D01*
X001953193Y003716071D02*
X001955809Y003708590D01*
X001962519Y003701595D01*
X001971241Y003699264D01*
X001978621Y003700983D01*
X001984928Y003706140D01*
X001989255Y003714704D01*
X001990698Y003726638D01*
X001989314Y003738765D01*
X001985163Y003747235D01*
X001979049Y003752217D01*
X001971778Y003753877D01*
X001964397Y003752158D01*
X001958091Y003746999D01*
X001953763Y003738589D01*
X001952321Y003727107D01*
X001953193Y003716071D01*
X002013929Y003735825D02*
X002015991Y003743796D01*
X002019429Y003750485D01*
X002024244Y003755890D01*
X002034441Y003761828D01*
X002046653Y003763807D01*
X002060004Y003761400D01*
X002070672Y003754179D01*
X002077667Y003742715D01*
X002079997Y003727577D01*
X002078967Y003715291D01*
X002075872Y003705940D01*
X002070806Y003698936D01*
X002063861Y003693695D01*
X002055618Y003690424D01*
X002046653Y003689334D01*
X002033126Y003691733D01*
X002022466Y003698928D01*
X002015547Y003710636D01*
X002013240Y003726571D01*
X002013929Y003735825D01*
X002027146Y003714603D02*
X002031623Y003706074D01*
X002038367Y003700966D01*
X002046653Y003699264D01*
X002054889Y003700974D01*
X002061615Y003706107D01*
X002066093Y003714746D01*
X002067586Y003726972D01*
X002066085Y003738589D01*
X002061581Y003746999D01*
X002054847Y003752108D01*
X002046653Y003753810D01*
X002038367Y003752116D01*
X002031623Y003747034D01*
X002027146Y003738530D01*
X002025653Y003726571D01*
X002027146Y003714603D01*
X002134067Y003694869D02*
X002127735Y003691681D01*
X002114417Y003689334D01*
X002104034Y003690768D01*
X002096369Y003695071D01*
X002091638Y003701604D01*
X002090062Y003709730D01*
X002092444Y003719291D01*
X002098684Y003726235D01*
X002107372Y003730194D01*
X002111834Y003731116D01*
X002118107Y003732005D01*
X002130804Y003733917D01*
X002139644Y003736165D01*
X002139711Y003739318D01*
X002138856Y003745607D01*
X002136289Y003749718D01*
X002130536Y003752787D01*
X002122535Y003753810D01*
X002115130Y003753064D01*
X002109955Y003750825D01*
X002106425Y003746690D01*
X002103950Y003740258D01*
X002092142Y003741868D01*
X002094272Y003748720D01*
X002097442Y003754112D01*
X002101954Y003758239D01*
X002108110Y003761291D01*
X002124280Y003763807D01*
X002132549Y003763270D01*
X002139107Y003761660D01*
X002144055Y003759237D01*
X002147494Y003756259D01*
X002151251Y003748040D01*
X002151704Y003743712D01*
X002151855Y003736903D01*
X002151855Y003720801D01*
X002151903Y003713154D01*
X002152048Y003707055D01*
X002152289Y003702503D01*
X002152626Y003699499D01*
X002155679Y003690944D01*
X002143066Y003690944D01*
X002140650Y003699734D01*
X002134067Y003694869D01*
X002131425Y003724222D02*
X002119919Y003722143D01*
X002113562Y003721001D01*
X002109385Y003719727D01*
X002104621Y003715802D01*
X002102944Y003710066D01*
X002103858Y003705638D01*
X002106601Y003702015D01*
X002111104Y003699599D01*
X002117302Y003698794D01*
X002123894Y003699556D01*
X002129714Y003701847D01*
X002134427Y003705462D01*
X002137698Y003710199D01*
X002139157Y003715266D01*
X002139644Y003722277D01*
X002139644Y003726705D01*
X002131425Y003724222D01*
X002170439Y003762197D02*
X002181309Y003762197D01*
X002181309Y003751395D01*
X002185309Y003757685D01*
X002188991Y003761392D01*
X002196740Y003763807D01*
X002202896Y003762834D01*
X002209152Y003759916D01*
X002204992Y003748711D01*
X002200564Y003750674D01*
X002196136Y003751328D01*
X002189024Y003748946D01*
X002184529Y003742337D01*
X002182516Y003728248D01*
X002182516Y003690944D01*
X002170439Y003690944D01*
X002170439Y003762197D01*
X002262558Y003699935D02*
X002258771Y003695297D01*
X002254188Y003691983D01*
X002248808Y003689997D01*
X002242631Y003689334D01*
X002234454Y003690508D01*
X002226965Y003694031D01*
X002220625Y003699658D01*
X002215895Y003707147D01*
X002212951Y003716196D01*
X002211970Y003726504D01*
X002212859Y003736677D01*
X002215526Y003745860D01*
X002219971Y003753534D01*
X002226194Y003759178D01*
X002233725Y003762650D01*
X002242095Y003763807D01*
X002248183Y003763128D01*
X002253567Y003761090D01*
X002261753Y003754011D01*
X002261753Y003789302D01*
X002273762Y003789302D01*
X002273762Y003690944D01*
X002262558Y003690944D01*
X002262558Y003699935D01*
X002225825Y003714544D02*
X002230152Y003706039D01*
X002236442Y003700958D01*
X002243772Y003699264D01*
X002251093Y003700883D01*
X002257224Y003705738D01*
X002261375Y003713915D01*
X002262759Y003725497D01*
X002261350Y003738178D01*
X002257123Y003746967D01*
X002250833Y003752100D01*
X002243235Y003753810D01*
X002235847Y003752167D01*
X002229783Y003747235D01*
X002225732Y003738765D01*
X002224382Y003726504D01*
X002225825Y003714544D01*
X002299862Y003714091D02*
X002301765Y003707751D01*
X002305464Y003703088D01*
X002310974Y003700220D01*
X002318312Y003699264D01*
X002325558Y003700111D01*
X002330657Y003702652D01*
X002333676Y003706334D01*
X002334683Y003710603D01*
X002333794Y003714259D01*
X002331127Y003717043D01*
X002326799Y003718872D01*
X002318782Y003721136D01*
X002307535Y003724264D01*
X002300365Y003726939D01*
X002292582Y003733716D01*
X002290594Y003738270D01*
X002289932Y003743277D01*
X002292112Y003752100D01*
X002298050Y003758842D01*
X002305732Y003762365D01*
X002316165Y003763807D01*
X002330892Y003761392D01*
X002336402Y003758549D01*
X002340251Y003754850D01*
X002342801Y003750028D01*
X002344411Y003743814D01*
X002332603Y003742203D01*
X002331035Y003747101D01*
X002327940Y003750791D01*
X002323285Y003753106D01*
X002317037Y003753877D01*
X002309909Y003753190D01*
X002305162Y003751127D01*
X002302495Y003748141D01*
X002301606Y003744686D01*
X002303082Y003740459D01*
X002307711Y003737238D01*
X002311284Y003736131D01*
X002318379Y003734152D01*
X002329257Y003731041D01*
X002336259Y003728550D01*
X002344210Y003722210D01*
X002346374Y003717547D01*
X002347095Y003711877D01*
X002346214Y003706015D01*
X002343573Y003700505D01*
X002339270Y003695775D01*
X002333408Y003692253D01*
X002326330Y003690064D01*
X002318379Y003689334D01*
X002306143Y003690777D01*
X002297211Y003695104D01*
X002291249Y003702266D01*
X002287919Y003712213D01*
X002299862Y003714091D01*
X002459744Y003690944D02*
X002394731Y003690944D01*
X002396140Y003699331D01*
X002399369Y003705922D01*
X002404090Y003712414D01*
X002410774Y003719358D01*
X002419891Y003727309D01*
X002427258Y003733542D01*
X002433326Y003739091D01*
X002438094Y003743958D01*
X002441562Y003748141D01*
X002445788Y003755613D01*
X002447197Y003762667D01*
X002445914Y003769284D01*
X002442065Y003774777D01*
X002436152Y003778474D01*
X002428680Y003779707D01*
X002420830Y003778400D01*
X002414724Y003774475D01*
X002410783Y003768235D01*
X002409424Y003759982D01*
X002397012Y003761258D01*
X002400048Y003773493D01*
X002406606Y003782425D01*
X002416352Y003787885D01*
X002428948Y003789705D01*
X002441629Y003787743D01*
X002451357Y003781855D01*
X002457547Y003773065D01*
X002459610Y003762398D01*
X002457194Y003750791D01*
X002453982Y003744937D01*
X002449177Y003738782D01*
X002441721Y003731301D01*
X002430558Y003721472D01*
X002421635Y003713815D01*
X002416603Y003709093D01*
X002411504Y003702551D01*
X002459744Y003702551D01*
X002459744Y003690944D01*
X002473590Y003755194D02*
X002476282Y003767531D01*
X002480744Y003776949D01*
X002486950Y003783935D01*
X002494942Y003788263D01*
X002504763Y003789705D01*
X002512194Y003788908D01*
X002518651Y003786518D01*
X002524103Y003782627D01*
X002528514Y003777326D01*
X002531986Y003770667D01*
X002534618Y003762700D01*
X002536279Y003752577D01*
X002536833Y003739453D01*
X002535944Y003723811D01*
X002533278Y003711508D01*
X002528841Y003702082D01*
X002522643Y003695071D01*
X002514634Y003690717D01*
X002504763Y003689267D01*
X002492066Y003691817D01*
X002482421Y003699465D01*
X002478165Y003706568D01*
X002475125Y003715601D01*
X002473301Y003726562D01*
X002472693Y003739453D01*
X002473590Y003755194D01*
X002485459Y003728355D02*
X002486522Y003719283D01*
X002488294Y003712236D01*
X002490774Y003707214D01*
X002497106Y003701201D01*
X002504763Y003699197D01*
X002512420Y003701210D01*
X002518752Y003707248D01*
X002521232Y003712280D01*
X002523004Y003719325D01*
X002524067Y003728382D01*
X002524421Y003739453D01*
X002524067Y003750577D01*
X002523004Y003759664D01*
X002521232Y003766713D01*
X002518752Y003771724D01*
X002512387Y003777712D01*
X002504629Y003779707D01*
X002497148Y003777947D01*
X002491345Y003772663D01*
X002488615Y003767216D01*
X002486665Y003759865D01*
X002485495Y003750611D01*
X002485105Y003739453D01*
X002485459Y003728355D01*
X002612581Y003690944D02*
X002547568Y003690944D01*
X002548976Y003699331D01*
X002552206Y003705922D01*
X002556928Y003712414D01*
X002563612Y003719358D01*
X002572728Y003727309D01*
X002580096Y003733542D01*
X002586163Y003739091D01*
X002590931Y003743958D01*
X002594398Y003748141D01*
X002598626Y003755613D01*
X002600034Y003762667D01*
X002598752Y003769284D01*
X002594902Y003774777D01*
X002588990Y003778474D01*
X002581517Y003779707D01*
X002573667Y003778400D01*
X002567562Y003774475D01*
X002563620Y003768235D01*
X002562262Y003759982D01*
X002549849Y003761258D01*
X002552885Y003773493D01*
X002559444Y003782425D01*
X002569189Y003787885D01*
X002581785Y003789705D01*
X002594466Y003787743D01*
X002604195Y003781855D01*
X002610384Y003773065D01*
X002612447Y003762398D01*
X002610032Y003750791D01*
X002606820Y003744937D01*
X002602014Y003738782D01*
X002594557Y003731301D01*
X002583396Y003721472D01*
X002574473Y003713815D01*
X002569441Y003709093D01*
X002564342Y003702551D01*
X002612581Y003702551D01*
X002612581Y003690944D01*
X002658942Y003690944D02*
X002658942Y003767900D01*
X002653902Y003763739D01*
X002647503Y003759580D01*
X002634789Y003753341D01*
X002634789Y003765015D01*
X002652502Y003776555D01*
X002658976Y003783231D01*
X002663236Y003789705D01*
X002671019Y003789705D01*
X002671019Y003690944D01*
X002658942Y003690944D01*
X002738783Y003732609D02*
X002775885Y003732609D01*
X002775885Y003720465D01*
X002738783Y003720465D01*
X002738783Y003732609D01*
X002855524Y003691079D02*
X002846400Y003690005D01*
X002840563Y003690525D01*
X002836202Y003692085D01*
X002831103Y003697553D01*
X002829996Y003702811D01*
X002829627Y003711810D01*
X002829627Y003752804D01*
X002820769Y003752804D01*
X002820769Y003762197D01*
X002829627Y003762197D01*
X002829627Y003779842D01*
X002841636Y003787088D01*
X002841636Y003762197D01*
X002853780Y003762197D01*
X002853780Y003752804D01*
X002841636Y003752804D01*
X002841636Y003711139D01*
X002841796Y003706896D01*
X002842274Y003704497D01*
X002844354Y003702149D01*
X002848480Y003701276D01*
X002853780Y003701746D01*
X002855524Y003691079D01*
X002861781Y003735825D02*
X002863844Y003743796D01*
X002867282Y003750485D01*
X002872096Y003755890D01*
X002882295Y003761828D01*
X002894505Y003763807D01*
X002907857Y003761400D01*
X002918525Y003754179D01*
X002925519Y003742715D01*
X002927851Y003727577D01*
X002926819Y003715291D01*
X002923724Y003705940D01*
X002918659Y003698936D01*
X002911715Y003693695D01*
X002903471Y003690424D01*
X002894505Y003689334D01*
X002880977Y003691733D01*
X002870318Y003698928D01*
X002863399Y003710636D01*
X002861093Y003726571D01*
X002861781Y003735825D01*
X002874998Y003714603D02*
X002879477Y003706074D01*
X002886218Y003700966D01*
X002894505Y003699264D01*
X002902740Y003700974D01*
X002909467Y003706107D01*
X002913945Y003714746D01*
X002915438Y003726972D01*
X002913937Y003738589D01*
X002909434Y003746999D01*
X002902699Y003752108D01*
X002894505Y003753810D01*
X002886218Y003752116D01*
X002879477Y003747034D01*
X002874998Y003738530D01*
X002873505Y003726571D01*
X002874998Y003714603D01*
X002942007Y003762197D02*
X002953010Y003762197D01*
X002953010Y003752937D01*
X002957153Y003757693D01*
X002961800Y003761090D01*
X002967217Y003763128D01*
X002973675Y003763807D01*
X002982263Y003762633D01*
X002989777Y003759111D01*
X002995899Y003753450D01*
X003000310Y003745860D01*
X003002978Y003736895D01*
X003003867Y003727107D01*
X003002885Y003716716D01*
X002999942Y003707416D01*
X002995128Y003699683D01*
X002988536Y003693997D01*
X002980862Y003690500D01*
X002972803Y003689334D01*
X002961967Y003691884D01*
X002954084Y003698325D01*
X002954084Y003663638D01*
X002942007Y003663638D01*
X002942007Y003762197D01*
X002954335Y003714209D02*
X002958512Y003705839D01*
X002964668Y003700908D01*
X002971998Y003699264D01*
X002979470Y003700966D01*
X002985785Y003706074D01*
X002990088Y003714754D01*
X002991522Y003727175D01*
X002990121Y003739083D01*
X002985919Y003747571D01*
X002979772Y003752653D01*
X002972534Y003754347D01*
X002965263Y003752544D01*
X002958881Y003747135D01*
X002954428Y003738287D01*
X002952943Y003726167D01*
X002954335Y003714209D01*
M02*