G04 EAGLE Gerber RS-274X export*
G75*
%MOMM*%
%FSLAX34Y34*%
%LPD*%
%INComponent side*%
%IPPOS*%
%AMOC8*
5,1,8,0,0,$1,22.5*%
G01*
%ADD10R,2X0.6*%
%ADD11R,2.9X2.6*%
%ADD12R,0.45X1.45*%
%ADD13C,0.25*%
%ADD14C,0.125*%
%ADD15R,0.2X0.3*%
%ADD16C,0.15*%
%ADD17C,0.13*%
%ADD18C,0.7564*%
%ADD19C,0.3*%
G36*
X0499139Y0496713D02*
X0499139Y0496713D01*
X0499208Y0496715D01*
X0499309Y0496740D01*
X0499412Y0496758D01*
X0499476Y0496785D01*
X0499542Y0496802D01*
X0499634Y0496851D01*
X0499731Y0496890D01*
X0499787Y0496931D01*
X0499848Y0496963D01*
X0499927Y0497032D01*
X0500011Y0497093D01*
X0500057Y0497145D01*
X0500109Y0497191D01*
X0500169Y0497275D01*
X0500238Y0497354D01*
X0500270Y0497415D01*
X0500311Y0497472D01*
X0500349Y0497568D01*
X0500399Y0497660D01*
X0500416Y0497727D01*
X0500443Y0497791D01*
X0500459Y0497894D01*
X0500485Y0497995D01*
X0500492Y0498099D01*
X0500498Y0498132D01*
X0500496Y0498155D01*
X0500499Y0498200D01*
X0500499Y0507915D01*
X0500483Y0508053D01*
X0500473Y0508192D01*
X0500463Y0508225D01*
X0500459Y0508258D01*
X0500412Y0508389D01*
X0500371Y0508523D01*
X0500353Y0508551D01*
X0500342Y0508584D01*
X0500266Y0508700D01*
X0500195Y0508820D01*
X0500165Y0508854D01*
X0500152Y0508872D01*
X0500129Y0508896D01*
X0500060Y0508975D01*
X0486725Y0522310D01*
X0486616Y0522397D01*
X0486509Y0522488D01*
X0486479Y0522504D01*
X0486454Y0522525D01*
X0486328Y0522584D01*
X0486204Y0522649D01*
X0486171Y0522657D01*
X0486141Y0522672D01*
X0486004Y0522699D01*
X0485870Y0522735D01*
X0485824Y0522738D01*
X0485803Y0522742D01*
X0485769Y0522742D01*
X0485665Y0522749D01*
X0479518Y0522749D01*
X0479402Y0522736D01*
X0479286Y0522731D01*
X0479231Y0522716D01*
X0479174Y0522709D01*
X0479065Y0522669D01*
X0478952Y0522639D01*
X0478879Y0522603D01*
X0478849Y0522592D01*
X0478825Y0522575D01*
X0478768Y0522548D01*
X0478481Y0522382D01*
X0477835Y0522209D01*
X0476749Y0522209D01*
X0476749Y0525000D01*
X0476745Y0525035D01*
X0476748Y0525071D01*
X0476725Y0525207D01*
X0476710Y0525343D01*
X0476697Y0525377D01*
X0476692Y0525412D01*
X0476639Y0525539D01*
X0476592Y0525669D01*
X0476573Y0525698D01*
X0476559Y0525731D01*
X0476479Y0525843D01*
X0476402Y0525958D01*
X0476378Y0525983D01*
X0476357Y0526011D01*
X0476252Y0526102D01*
X0476153Y0526197D01*
X0476123Y0526215D01*
X0476096Y0526238D01*
X0475973Y0526302D01*
X0475854Y0526372D01*
X0475820Y0526382D01*
X0475790Y0526399D01*
X0475656Y0526433D01*
X0475525Y0526474D01*
X0475489Y0526476D01*
X0475455Y0526485D01*
X0475250Y0526499D01*
X0475215Y0526495D01*
X0475180Y0526498D01*
X0475179Y0526498D01*
X0475043Y0526475D01*
X0474906Y0526459D01*
X0474873Y0526447D01*
X0474838Y0526442D01*
X0474711Y0526389D01*
X0474581Y0526342D01*
X0474551Y0526323D01*
X0474519Y0526309D01*
X0474407Y0526228D01*
X0474292Y0526153D01*
X0474266Y0526127D01*
X0474238Y0526107D01*
X0474148Y0526003D01*
X0474052Y0525903D01*
X0474035Y0525872D01*
X0474012Y0525846D01*
X0473948Y0525723D01*
X0473878Y0525605D01*
X0473868Y0525571D01*
X0473851Y0525539D01*
X0473817Y0525406D01*
X0473776Y0525274D01*
X0473773Y0525239D01*
X0473765Y0525205D01*
X0473751Y0525000D01*
X0473751Y0522209D01*
X0472665Y0522209D01*
X0472019Y0522382D01*
X0471750Y0522538D01*
X0471675Y0522570D01*
X0471605Y0522612D01*
X0471517Y0522639D01*
X0471432Y0522675D01*
X0471352Y0522690D01*
X0471274Y0522714D01*
X0471183Y0522720D01*
X0471092Y0522736D01*
X0471011Y0522732D01*
X0470929Y0522737D01*
X0470839Y0522722D01*
X0470747Y0522716D01*
X0470668Y0522694D01*
X0470588Y0522681D01*
X0470503Y0522646D01*
X0470415Y0522620D01*
X0470344Y0522579D01*
X0470269Y0522549D01*
X0470194Y0522495D01*
X0470114Y0522449D01*
X0470055Y0522394D01*
X0469989Y0522346D01*
X0469928Y0522277D01*
X0469861Y0522214D01*
X0469814Y0522147D01*
X0469762Y0522085D01*
X0469719Y0522004D01*
X0469668Y0521927D01*
X0469639Y0521851D01*
X0469600Y0521779D01*
X0469578Y0521689D01*
X0469546Y0521603D01*
X0469535Y0521522D01*
X0469515Y0521444D01*
X0469504Y0521282D01*
X0469501Y0521261D01*
X0469502Y0521252D01*
X0469501Y0521240D01*
X0469501Y0515492D01*
X0469517Y0515353D01*
X0469527Y0515214D01*
X0469537Y0515182D01*
X0469540Y0515149D01*
X0469587Y0515018D01*
X0469629Y0514884D01*
X0469647Y0514855D01*
X0469658Y0514823D01*
X0469734Y0514707D01*
X0469805Y0514587D01*
X0469835Y0514552D01*
X0469847Y0514534D01*
X0469871Y0514510D01*
X0469940Y0514432D01*
X0470820Y0513551D01*
X0470820Y0504720D01*
X0470824Y0504685D01*
X0470822Y0504649D01*
X0470845Y0504513D01*
X0470861Y0504377D01*
X0470873Y0504343D01*
X0470878Y0504308D01*
X0470931Y0504181D01*
X0470978Y0504051D01*
X0470997Y0504022D01*
X0471011Y0503989D01*
X0471092Y0503877D01*
X0471167Y0503762D01*
X0471193Y0503737D01*
X0471213Y0503709D01*
X0471317Y0503618D01*
X0471417Y0503523D01*
X0471448Y0503504D01*
X0471474Y0503482D01*
X0471597Y0503418D01*
X0471715Y0503348D01*
X0471749Y0503337D01*
X0471781Y0503320D01*
X0471914Y0503287D01*
X0472046Y0503246D01*
X0472081Y0503244D01*
X0472115Y0503234D01*
X0472320Y0503221D01*
X0483137Y0503221D01*
X0488668Y0497690D01*
X0488777Y0497603D01*
X0488882Y0497512D01*
X0488912Y0497496D01*
X0488939Y0497475D01*
X0489065Y0497416D01*
X0489189Y0497351D01*
X0489221Y0497343D01*
X0489252Y0497328D01*
X0489388Y0497300D01*
X0489523Y0497265D01*
X0489568Y0497262D01*
X0489590Y0497257D01*
X0489624Y0497258D01*
X0489728Y0497251D01*
X0497829Y0497251D01*
X0497939Y0497140D01*
X0498022Y0497074D01*
X0498097Y0497003D01*
X0498157Y0496967D01*
X0498211Y0496925D01*
X0498305Y0496881D01*
X0498395Y0496828D01*
X0498461Y0496807D01*
X0498524Y0496778D01*
X0498626Y0496757D01*
X0498726Y0496726D01*
X0498795Y0496721D01*
X0498862Y0496706D01*
X0498966Y0496709D01*
X0499071Y0496702D01*
X0499139Y0496713D01*
G37*
D10*
X0404500Y0545000D03*
X0439500Y0535000D03*
X0404500Y0525000D03*
X0439500Y0515000D03*
X0404500Y0505000D03*
X0439500Y0495000D03*
X0404500Y0485000D03*
X0439500Y0475000D03*
X0404500Y0465000D03*
X0439500Y0455000D03*
D11*
X0422000Y0569000D03*
X0422000Y0431000D03*
D12*
X0494750Y0532000D03*
X0488250Y0532000D03*
X0481750Y0532000D03*
X0475250Y0532000D03*
X0475250Y0488000D03*
X0481750Y0488000D03*
X0488250Y0488000D03*
X0494750Y0488000D03*
D13*
X0457525Y0534350D02*
X0455025Y0534350D01*
X0455025Y0536850D01*
X0457525Y0536850D01*
X0457525Y0534350D01*
X0457525Y0536725D02*
X0455025Y0536725D01*
X0464275Y0534350D02*
X0466775Y0534350D01*
X0464275Y0534350D02*
X0464275Y0536850D01*
X0466775Y0536850D01*
X0466775Y0534350D01*
X0466775Y0536725D02*
X0464275Y0536725D01*
X0493825Y0470250D02*
X0496325Y0470250D01*
X0493825Y0470250D02*
X0493825Y0472750D01*
X0496325Y0472750D01*
X0496325Y0470250D01*
X0496325Y0472625D02*
X0493825Y0472625D01*
X0503075Y0470250D02*
X0505575Y0470250D01*
X0503075Y0470250D02*
X0503075Y0472750D01*
X0505575Y0472750D01*
X0505575Y0470250D01*
X0505575Y0472625D02*
X0503075Y0472625D01*
D10*
X0565500Y0455000D03*
X0530500Y0465000D03*
X0565500Y0475000D03*
X0530500Y0485000D03*
X0565500Y0495000D03*
X0530500Y0505000D03*
X0565500Y0515000D03*
X0530500Y0525000D03*
X0565500Y0535000D03*
X0530500Y0545000D03*
D11*
X0548000Y0431000D03*
X0548000Y0569000D03*
D14*
X0465289Y0519975D02*
X0461539Y0519975D01*
X0465289Y0519975D02*
X0465289Y0516225D01*
X0461539Y0516225D01*
X0461539Y0519975D01*
X0461539Y0517412D02*
X0465289Y0517412D01*
X0465289Y0518598D02*
X0461539Y0518598D01*
X0461539Y0519786D02*
X0465289Y0519786D01*
X0458661Y0519975D02*
X0454911Y0519975D01*
X0458661Y0519975D02*
X0458661Y0516225D01*
X0454911Y0516225D01*
X0454911Y0519975D01*
X0454911Y0517412D02*
X0458661Y0517412D01*
X0458661Y0518598D02*
X0454911Y0518598D01*
X0454911Y0519786D02*
X0458661Y0519786D01*
X0461639Y0501375D02*
X0465389Y0501375D01*
X0465389Y0497625D01*
X0461639Y0497625D01*
X0461639Y0501375D01*
X0461639Y0498812D02*
X0465389Y0498812D01*
X0465389Y0499998D02*
X0461639Y0499998D01*
X0461639Y0501186D02*
X0465389Y0501186D01*
X0458761Y0501375D02*
X0455011Y0501375D01*
X0458761Y0501375D02*
X0458761Y0497625D01*
X0455011Y0497625D01*
X0455011Y0501375D01*
X0455011Y0498812D02*
X0458761Y0498812D01*
X0458761Y0499998D02*
X0455011Y0499998D01*
X0455011Y0501186D02*
X0458761Y0501186D01*
X0461639Y0482875D02*
X0465389Y0482875D01*
X0465389Y0479125D01*
X0461639Y0479125D01*
X0461639Y0482875D01*
X0461639Y0480312D02*
X0465389Y0480312D01*
X0465389Y0481499D02*
X0461639Y0481499D01*
X0461639Y0482686D02*
X0465389Y0482686D01*
X0458761Y0482875D02*
X0455011Y0482875D01*
X0458761Y0482875D02*
X0458761Y0479125D01*
X0455011Y0479125D01*
X0455011Y0482875D01*
X0455011Y0480312D02*
X0458761Y0480312D01*
X0458761Y0481499D02*
X0455011Y0481499D01*
X0455011Y0482686D02*
X0458761Y0482686D01*
D15*
X0475000Y0468500D03*
X0479000Y0468500D03*
X0483000Y0468500D03*
X0487000Y0468500D03*
X0487000Y0474500D03*
X0483000Y0474500D03*
X0479000Y0474500D03*
X0475000Y0474500D03*
D16*
X0463514Y0481000D02*
X0468814Y0486300D01*
X0473550Y0486300D02*
X0475250Y0488000D01*
X0473550Y0486300D02*
X0468814Y0486300D01*
X0476750Y0483100D02*
X0476750Y0479611D01*
X0476750Y0483100D02*
X0473550Y0486300D01*
X0479000Y0477361D02*
X0479000Y0474500D01*
X0479000Y0477361D02*
X0476750Y0479611D01*
X0481850Y0488100D02*
X0481850Y0495489D01*
X0481850Y0488100D02*
X0481750Y0488000D01*
X0481850Y0495489D02*
X0479239Y0498100D01*
X0468100Y0498100D01*
X0466700Y0499500D01*
X0463514Y0499500D01*
X0482750Y0474750D02*
X0483000Y0474500D01*
X0481750Y0478528D02*
X0481750Y0488000D01*
X0482750Y0477528D02*
X0482750Y0474750D01*
X0482750Y0477528D02*
X0481750Y0478528D01*
X0488250Y0488000D02*
X0488250Y0495250D01*
X0482300Y0501200D02*
X0470800Y0501200D01*
X0468800Y0503200D01*
X0468800Y0512714D02*
X0463414Y0518100D01*
X0482300Y0501200D02*
X0488250Y0495250D01*
X0468800Y0503200D02*
X0468800Y0512714D01*
X0486800Y0474700D02*
X0487000Y0474500D01*
X0486800Y0474700D02*
X0486800Y0483350D01*
X0488250Y0484800D02*
X0488250Y0488000D01*
X0488250Y0484800D02*
X0486800Y0483350D01*
D17*
X0506830Y0480613D02*
X0506830Y0477986D01*
X0517849Y0466967D01*
X0517849Y0464487D01*
X0515717Y0466620D01*
X0508168Y0466620D01*
X0508301Y0466697D01*
X0509128Y0467524D01*
X0509711Y0468536D01*
X0510015Y0469664D01*
X0510015Y0470900D01*
X0504925Y0470900D01*
X0504925Y0472100D01*
X0510015Y0472100D01*
X0510015Y0473335D01*
X0509711Y0474463D01*
X0509128Y0475476D01*
X0508301Y0476303D01*
X0507288Y0476887D01*
X0506160Y0477190D01*
X0504925Y0477190D01*
X0504925Y0472100D01*
X0503725Y0472100D01*
X0503725Y0477190D01*
X0502490Y0477190D01*
X0501361Y0476887D01*
X0500349Y0476303D01*
X0499522Y0475476D01*
X0499373Y0475218D01*
X0498170Y0476420D01*
X0498170Y0478172D01*
X0499650Y0479652D01*
X0499650Y0496348D01*
X0498097Y0497900D01*
X0489376Y0497900D01*
X0483406Y0503870D01*
X0471906Y0503870D01*
X0471470Y0504306D01*
X0471470Y0513820D01*
X0469906Y0515383D01*
X0468564Y0516726D01*
X0468564Y0521332D01*
X0466646Y0523250D01*
X0460206Y0523250D01*
X0460206Y0523844D01*
X0465693Y0530450D01*
X0468390Y0530450D01*
X0470415Y0532475D01*
X0474775Y0532475D01*
X0474775Y0531525D01*
X0469810Y0531525D01*
X0469810Y0524330D01*
X0470027Y0523519D01*
X0470447Y0522791D01*
X0471041Y0522197D01*
X0471769Y0521777D01*
X0472579Y0521560D01*
X0474775Y0521560D01*
X0474775Y0531525D01*
X0475725Y0531525D01*
X0475725Y0521560D01*
X0477920Y0521560D01*
X0478731Y0521777D01*
X0479290Y0522100D01*
X0486017Y0522100D01*
X0506830Y0501287D01*
X0506830Y0480613D01*
X0475000Y0468500D02*
X0475000Y0468500D01*
X0479000Y0468500D01*
X0479000Y0468500D01*
X0478810Y0468500D01*
X0475000Y0468500D01*
X0479000Y0468500D02*
X0479000Y0468500D01*
X0483000Y0468500D01*
X0483000Y0468500D01*
X0482810Y0468500D01*
X0479000Y0468500D01*
X0460073Y0475850D02*
X0458630Y0474407D01*
X0460073Y0475850D02*
X0460118Y0475850D01*
X0460199Y0475932D01*
X0460282Y0475850D01*
X0466746Y0475850D01*
X0468664Y0477768D01*
X0468664Y0482374D01*
X0469920Y0483630D01*
X0470349Y0483630D01*
X0470349Y0479652D01*
X0471902Y0478100D01*
X0472352Y0478100D01*
X0471350Y0477098D01*
X0471350Y0471902D01*
X0471391Y0471860D01*
X0471027Y0471231D01*
X0470810Y0470420D01*
X0470810Y0468500D01*
X0475000Y0468500D01*
X0475000Y0468500D01*
X0470810Y0468500D01*
X0470810Y0466620D01*
X0466417Y0466620D01*
X0458630Y0474407D01*
X0483000Y0468500D02*
X0483000Y0468500D01*
X0487000Y0468500D01*
X0487000Y0468500D01*
X0483000Y0468500D01*
X0543150Y0523687D02*
X0543150Y0529098D01*
X0541598Y0530650D01*
X0519402Y0530650D01*
X0517849Y0529098D01*
X0517849Y0520901D01*
X0519402Y0519350D01*
X0537813Y0519350D01*
X0543180Y0513983D01*
X0543180Y0462617D01*
X0543150Y0462587D01*
X0543150Y0469097D01*
X0541598Y0470650D01*
X0523133Y0470650D01*
X0513170Y0480613D01*
X0513170Y0503913D01*
X0494983Y0522100D01*
X0495717Y0522100D01*
X0513530Y0504287D01*
X0513530Y0489487D01*
X0517849Y0485167D01*
X0517849Y0480901D01*
X0519402Y0479350D01*
X0541598Y0479350D01*
X0543150Y0480901D01*
X0543150Y0489098D01*
X0541598Y0490650D01*
X0521333Y0490650D01*
X0519870Y0492113D01*
X0519870Y0499350D01*
X0541598Y0499350D01*
X0543150Y0500901D01*
X0543150Y0509098D01*
X0541598Y0510650D01*
X0519402Y0510650D01*
X0517849Y0509098D01*
X0517849Y0508932D01*
X0499650Y0527133D01*
X0499650Y0540348D01*
X0498170Y0541828D01*
X0498170Y0548313D01*
X0496312Y0550170D01*
X0489013Y0557470D01*
X0439690Y0557470D01*
X0439690Y0568350D01*
X0422650Y0568350D01*
X0422650Y0569650D01*
X0439690Y0569650D01*
X0439690Y0582420D01*
X0439473Y0583231D01*
X0439052Y0583959D01*
X0438459Y0584553D01*
X0437731Y0584973D01*
X0436920Y0585190D01*
X0422650Y0585190D01*
X0422650Y0569650D01*
X0421350Y0569650D01*
X0421350Y0585190D01*
X0407080Y0585190D01*
X0406269Y0584973D01*
X0405541Y0584553D01*
X0404947Y0583959D01*
X0404527Y0583231D01*
X0404310Y0582420D01*
X0404310Y0569650D01*
X0421350Y0569650D01*
X0421350Y0568350D01*
X0404310Y0568350D01*
X0404310Y0555580D01*
X0404527Y0554769D01*
X0404947Y0554041D01*
X0405541Y0553447D01*
X0406269Y0553027D01*
X0407080Y0552810D01*
X0421350Y0552810D01*
X0421350Y0568350D01*
X0422650Y0568350D01*
X0422650Y0552810D01*
X0433627Y0552810D01*
X0419968Y0539152D01*
X0419968Y0530020D01*
X0419536Y0530453D01*
X0417172Y0531432D01*
X0414614Y0531432D01*
X0412725Y0530650D01*
X0394650Y0530650D01*
X0394650Y0539350D01*
X0413091Y0539350D01*
X0414721Y0538675D01*
X0417279Y0538675D01*
X0419643Y0539654D01*
X0421453Y0541464D01*
X0422432Y0543828D01*
X0422432Y0546386D01*
X0421453Y0548750D01*
X0419643Y0550560D01*
X0417279Y0551539D01*
X0414721Y0551539D01*
X0412573Y0550650D01*
X0394650Y0550650D01*
X0394650Y0560000D01*
X0394951Y0564614D01*
X0397341Y0573528D01*
X0397341Y0573528D01*
X0401955Y0581520D01*
X0408480Y0588045D01*
X0416472Y0592659D01*
X0425386Y0595048D01*
X0430000Y0595350D01*
X0471860Y0595350D01*
X0468294Y0592138D01*
X0468294Y0592138D01*
X0464801Y0584293D01*
X0464801Y0575707D01*
X0468294Y0567862D01*
X0468294Y0567862D01*
X0468294Y0567862D01*
X0474675Y0562117D01*
X0474675Y0562117D01*
X0482841Y0559463D01*
X0482842Y0559463D01*
X0491381Y0560361D01*
X0498818Y0564654D01*
X0498818Y0564654D01*
X0503865Y0571601D01*
X0505650Y0580000D01*
X0505650Y0580000D01*
X0503865Y0588399D01*
X0503865Y0588399D01*
X0498818Y0595346D01*
X0498818Y0595346D01*
X0498818Y0595346D01*
X0498810Y0595350D01*
X0540000Y0595350D01*
X0544614Y0595048D01*
X0553528Y0592659D01*
X0561520Y0588045D01*
X0568045Y0581520D01*
X0572659Y0573528D01*
X0575048Y0564614D01*
X0575350Y0560000D01*
X0575350Y0540650D01*
X0558167Y0540650D01*
X0556279Y0541432D01*
X0553721Y0541432D01*
X0551357Y0540453D01*
X0549547Y0538643D01*
X0548568Y0536279D01*
X0548568Y0533721D01*
X0549547Y0531357D01*
X0551357Y0529547D01*
X0553721Y0528568D01*
X0556279Y0528568D01*
X0558167Y0529350D01*
X0575350Y0529350D01*
X0575350Y0520650D01*
X0558167Y0520650D01*
X0556279Y0521432D01*
X0553721Y0521432D01*
X0551357Y0520453D01*
X0549547Y0518643D01*
X0549151Y0517686D01*
X0543150Y0523687D01*
X0529850Y0538810D02*
X0529850Y0544350D01*
X0531150Y0544350D01*
X0531150Y0538810D01*
X0540920Y0538810D01*
X0541731Y0539027D01*
X0542459Y0539447D01*
X0543053Y0540041D01*
X0543473Y0540769D01*
X0543690Y0541580D01*
X0543690Y0544350D01*
X0531150Y0544350D01*
X0531150Y0545650D01*
X0543690Y0545650D01*
X0543690Y0548420D01*
X0543473Y0549231D01*
X0543053Y0549959D01*
X0542459Y0550553D01*
X0541731Y0550973D01*
X0540920Y0551190D01*
X0531150Y0551190D01*
X0531150Y0545650D01*
X0529850Y0545650D01*
X0529850Y0551190D01*
X0520079Y0551190D01*
X0519269Y0550973D01*
X0518541Y0550553D01*
X0517947Y0549959D01*
X0517527Y0549231D01*
X0517310Y0548420D01*
X0517310Y0545650D01*
X0529850Y0545650D01*
X0529850Y0544350D01*
X0517310Y0544350D01*
X0517310Y0541580D01*
X0517527Y0540769D01*
X0517947Y0540041D01*
X0518541Y0539447D01*
X0519269Y0539027D01*
X0520079Y0538810D01*
X0529850Y0538810D01*
X0548650Y0568350D02*
X0565690Y0568350D01*
X0548650Y0568350D02*
X0548650Y0569650D01*
X0565690Y0569650D01*
X0565690Y0582420D01*
X0565473Y0583231D01*
X0565053Y0583959D01*
X0564459Y0584553D01*
X0563731Y0584973D01*
X0562920Y0585190D01*
X0548650Y0585190D01*
X0548650Y0569650D01*
X0547350Y0569650D01*
X0547350Y0585190D01*
X0533080Y0585190D01*
X0532269Y0584973D01*
X0531541Y0584553D01*
X0530947Y0583959D01*
X0530527Y0583231D01*
X0530310Y0582420D01*
X0530310Y0569650D01*
X0547350Y0569650D01*
X0547350Y0568350D01*
X0530310Y0568350D01*
X0530310Y0555580D01*
X0530527Y0554769D01*
X0530947Y0554041D01*
X0531541Y0553447D01*
X0532269Y0553027D01*
X0533080Y0552810D01*
X0547350Y0552810D01*
X0547350Y0568350D01*
X0548650Y0568350D01*
X0548650Y0552810D01*
X0562920Y0552810D01*
X0563731Y0553027D01*
X0564459Y0553447D01*
X0565053Y0554041D01*
X0565473Y0554769D01*
X0565690Y0555580D01*
X0565690Y0568350D01*
X0440150Y0461190D02*
X0440150Y0455650D01*
X0438850Y0455650D01*
X0438850Y0461190D01*
X0429080Y0461190D01*
X0428269Y0460972D01*
X0427541Y0460553D01*
X0426947Y0459959D01*
X0426527Y0459231D01*
X0426310Y0458420D01*
X0426310Y0455650D01*
X0438850Y0455650D01*
X0438850Y0454350D01*
X0426310Y0454350D01*
X0426310Y0453466D01*
X0419883Y0459893D01*
X0421453Y0461464D01*
X0422432Y0463828D01*
X0422432Y0466385D01*
X0421453Y0468750D01*
X0419643Y0470560D01*
X0417279Y0471539D01*
X0414721Y0471539D01*
X0412573Y0470650D01*
X0394650Y0470650D01*
X0394650Y0479350D01*
X0413091Y0479350D01*
X0414721Y0478675D01*
X0417279Y0478675D01*
X0419643Y0479654D01*
X0421453Y0481464D01*
X0422432Y0483828D01*
X0422432Y0486385D01*
X0421453Y0488750D01*
X0419643Y0490560D01*
X0417279Y0491539D01*
X0414721Y0491539D01*
X0412573Y0490650D01*
X0394650Y0490650D01*
X0394650Y0499350D01*
X0413091Y0499350D01*
X0414721Y0498675D01*
X0417279Y0498675D01*
X0419643Y0499654D01*
X0421453Y0501464D01*
X0422432Y0503828D01*
X0422432Y0506385D01*
X0421453Y0508750D01*
X0419643Y0510560D01*
X0417279Y0511539D01*
X0414721Y0511539D01*
X0412573Y0510650D01*
X0394650Y0510650D01*
X0394650Y0519350D01*
X0412725Y0519350D01*
X0414614Y0518568D01*
X0417172Y0518568D01*
X0419536Y0519547D01*
X0421346Y0521357D01*
X0421625Y0522031D01*
X0421826Y0521830D01*
X0426850Y0516806D01*
X0426850Y0510901D01*
X0428402Y0509350D01*
X0450598Y0509350D01*
X0452150Y0510901D01*
X0452150Y0514355D01*
X0453366Y0513138D01*
X0453366Y0504362D01*
X0451736Y0502732D01*
X0451736Y0499512D01*
X0450598Y0500650D01*
X0428402Y0500650D01*
X0426850Y0499098D01*
X0426850Y0490901D01*
X0428402Y0489350D01*
X0450598Y0489350D01*
X0452150Y0490901D01*
X0452150Y0495854D01*
X0453466Y0494538D01*
X0453466Y0485961D01*
X0451736Y0484232D01*
X0451736Y0479512D01*
X0450598Y0480650D01*
X0428402Y0480650D01*
X0426850Y0479097D01*
X0426850Y0470902D01*
X0428402Y0469350D01*
X0450598Y0469350D01*
X0451828Y0470580D01*
X0452783Y0470580D01*
X0463583Y0459780D01*
X0512883Y0459780D01*
X0515880Y0456783D01*
X0515880Y0456783D01*
X0517780Y0454883D01*
X0517179Y0455132D01*
X0514621Y0455132D01*
X0512257Y0454153D01*
X0510690Y0452586D01*
X0504606Y0458670D01*
X0464894Y0458670D01*
X0463330Y0457106D01*
X0457894Y0451670D01*
X0452690Y0451670D01*
X0452690Y0454350D01*
X0440150Y0454350D01*
X0440150Y0455650D01*
X0452690Y0455650D01*
X0452690Y0458420D01*
X0452473Y0459231D01*
X0452053Y0459959D01*
X0451459Y0460553D01*
X0450730Y0460972D01*
X0449920Y0461190D01*
X0440150Y0461190D01*
X0422650Y0447190D02*
X0422650Y0431650D01*
X0421350Y0431650D01*
X0421350Y0447190D01*
X0407080Y0447190D01*
X0406269Y0446973D01*
X0405541Y0446552D01*
X0404947Y0445959D01*
X0404527Y0445231D01*
X0404310Y0444420D01*
X0404310Y0431650D01*
X0421350Y0431650D01*
X0421350Y0430349D01*
X0404310Y0430349D01*
X0404310Y0417580D01*
X0404527Y0416769D01*
X0404947Y0416041D01*
X0405541Y0415447D01*
X0406269Y0415027D01*
X0407080Y0414810D01*
X0421350Y0414810D01*
X0421350Y0430349D01*
X0422650Y0430349D01*
X0422650Y0414810D01*
X0436920Y0414810D01*
X0437731Y0415027D01*
X0438459Y0415447D01*
X0439052Y0416041D01*
X0439473Y0416769D01*
X0439690Y0417580D01*
X0439690Y0422408D01*
X0441721Y0421567D01*
X0444279Y0421567D01*
X0444568Y0421688D01*
X0444568Y0419721D01*
X0445546Y0417357D01*
X0447357Y0415546D01*
X0449721Y0414568D01*
X0452279Y0414568D01*
X0454643Y0415546D01*
X0456453Y0417357D01*
X0457432Y0419721D01*
X0457432Y0422279D01*
X0457029Y0423253D01*
X0475105Y0441330D01*
X0494394Y0441330D01*
X0512825Y0422899D01*
X0512568Y0422279D01*
X0512568Y0419721D01*
X0513547Y0417357D01*
X0515357Y0415546D01*
X0517721Y0414568D01*
X0520279Y0414568D01*
X0522643Y0415546D01*
X0524453Y0417357D01*
X0525432Y0419721D01*
X0525432Y0421688D01*
X0525721Y0421567D01*
X0528279Y0421567D01*
X0530310Y0422408D01*
X0530310Y0417580D01*
X0530527Y0416769D01*
X0530947Y0416041D01*
X0531541Y0415447D01*
X0532269Y0415027D01*
X0533080Y0414810D01*
X0547350Y0414810D01*
X0547350Y0430349D01*
X0548650Y0430349D01*
X0548650Y0414810D01*
X0562920Y0414810D01*
X0563731Y0415027D01*
X0564459Y0415447D01*
X0565053Y0416041D01*
X0565473Y0416769D01*
X0565690Y0417580D01*
X0565690Y0430349D01*
X0548650Y0430349D01*
X0548650Y0431650D01*
X0565690Y0431650D01*
X0565690Y0444420D01*
X0565473Y0445231D01*
X0565053Y0445959D01*
X0564459Y0446552D01*
X0563731Y0446973D01*
X0562920Y0447190D01*
X0548650Y0447190D01*
X0548650Y0431650D01*
X0547350Y0431650D01*
X0547350Y0447190D01*
X0533080Y0447190D01*
X0532269Y0446973D01*
X0531543Y0446552D01*
X0530643Y0447453D01*
X0528279Y0448432D01*
X0525721Y0448432D01*
X0523357Y0447453D01*
X0521629Y0445726D01*
X0522331Y0447421D01*
X0522331Y0449979D01*
X0521353Y0452343D01*
X0519543Y0454153D01*
X0518029Y0454780D01*
X0545017Y0454780D01*
X0548017Y0457780D01*
X0550020Y0459783D01*
X0550020Y0470884D01*
X0551357Y0469547D01*
X0553721Y0468568D01*
X0556279Y0468568D01*
X0558167Y0469350D01*
X0575350Y0469350D01*
X0575350Y0460650D01*
X0558167Y0460650D01*
X0556279Y0461432D01*
X0553721Y0461432D01*
X0551357Y0460453D01*
X0549547Y0458643D01*
X0548568Y0456278D01*
X0548568Y0453721D01*
X0549547Y0451357D01*
X0551357Y0449547D01*
X0553721Y0448568D01*
X0556279Y0448568D01*
X0558167Y0449350D01*
X0575350Y0449350D01*
X0575350Y0440000D01*
X0575048Y0435386D01*
X0572659Y0426472D01*
X0568045Y0418480D01*
X0561520Y0411955D01*
X0553528Y0407341D01*
X0544614Y0404951D01*
X0540000Y0404650D01*
X0498810Y0404650D01*
X0498818Y0404654D01*
X0498818Y0404654D01*
X0498818Y0404654D01*
X0503865Y0411601D01*
X0503865Y0411601D01*
X0505650Y0420000D01*
X0503865Y0428399D01*
X0503865Y0428399D01*
X0498818Y0435346D01*
X0498818Y0435346D01*
X0498818Y0435346D01*
X0491381Y0439639D01*
X0491381Y0439639D01*
X0482842Y0440537D01*
X0482841Y0440537D01*
X0474675Y0437883D01*
X0474675Y0437883D01*
X0468294Y0432138D01*
X0468294Y0432138D01*
X0464801Y0424293D01*
X0464801Y0415707D01*
X0468294Y0407862D01*
X0468294Y0407862D01*
X0471860Y0404650D01*
X0430000Y0404650D01*
X0425386Y0404951D01*
X0416472Y0407341D01*
X0408480Y0411955D01*
X0401955Y0418480D01*
X0397341Y0426472D01*
X0394951Y0435386D01*
X0394650Y0440000D01*
X0394650Y0459350D01*
X0412874Y0459350D01*
X0424330Y0447894D01*
X0425034Y0447190D01*
X0422650Y0447190D01*
X0455987Y0550470D02*
X0458613Y0550470D01*
X0455987Y0550470D02*
X0446167Y0540650D01*
X0430433Y0540650D01*
X0440913Y0551130D01*
X0486387Y0551130D01*
X0491830Y0545687D01*
X0491830Y0541900D01*
X0491419Y0541900D01*
X0491419Y0545063D01*
X0486013Y0550470D01*
X0483387Y0550470D01*
X0458613Y0550470D01*
X0470362Y0406000D02*
X0421475Y0406000D01*
X0499795Y0406000D02*
X0548524Y0406000D01*
X0467787Y0409000D02*
X0413598Y0409000D01*
X0501975Y0409000D02*
X0556402Y0409000D01*
X0466452Y0412000D02*
X0408435Y0412000D01*
X0503949Y0412000D02*
X0561565Y0412000D01*
X0406370Y0415000D02*
X0405435Y0415000D01*
X0421350Y0415000D02*
X0422650Y0415000D01*
X0437629Y0415000D02*
X0448678Y0415000D01*
X0453322Y0415000D02*
X0465116Y0415000D01*
X0504587Y0415000D02*
X0516678Y0415000D01*
X0521322Y0415000D02*
X0532371Y0415000D01*
X0547350Y0415000D02*
X0548650Y0415000D01*
X0563629Y0415000D02*
X0564565Y0415000D01*
X0404310Y0418000D02*
X0402435Y0418000D01*
X0421350Y0418000D02*
X0422650Y0418000D01*
X0439690Y0418000D02*
X0445281Y0418000D01*
X0456719Y0418000D02*
X0464801Y0418000D01*
X0505225Y0418000D02*
X0513281Y0418000D01*
X0524719Y0418000D02*
X0530310Y0418000D01*
X0547350Y0418000D02*
X0548650Y0418000D01*
X0565690Y0418000D02*
X0567565Y0418000D01*
X0404310Y0421000D02*
X0400500Y0421000D01*
X0421350Y0421000D02*
X0422650Y0421000D01*
X0439690Y0421000D02*
X0444568Y0421000D01*
X0457432Y0421000D02*
X0464801Y0421000D01*
X0505437Y0421000D02*
X0512568Y0421000D01*
X0525432Y0421000D02*
X0530310Y0421000D01*
X0547350Y0421000D02*
X0548650Y0421000D01*
X0565690Y0421000D02*
X0569500Y0421000D01*
X0404310Y0424000D02*
X0398768Y0424000D01*
X0421350Y0424000D02*
X0422650Y0424000D01*
X0457776Y0424000D02*
X0464801Y0424000D01*
X0504800Y0424000D02*
X0511723Y0424000D01*
X0547350Y0424000D02*
X0548650Y0424000D01*
X0565690Y0424000D02*
X0571232Y0424000D01*
X0404310Y0427000D02*
X0397199Y0427000D01*
X0421350Y0427000D02*
X0422650Y0427000D01*
X0460776Y0427000D02*
X0466006Y0427000D01*
X0504162Y0427000D02*
X0508724Y0427000D01*
X0547350Y0427000D02*
X0548650Y0427000D01*
X0565690Y0427000D02*
X0572801Y0427000D01*
X0404310Y0430000D02*
X0396396Y0430000D01*
X0421350Y0430000D02*
X0422650Y0430000D01*
X0463776Y0430000D02*
X0467342Y0430000D01*
X0502702Y0430000D02*
X0505724Y0430000D01*
X0547350Y0430000D02*
X0548650Y0430000D01*
X0565690Y0430000D02*
X0573604Y0430000D01*
X0404310Y0433000D02*
X0395591Y0433000D01*
X0421350Y0433000D02*
X0422650Y0433000D01*
X0466776Y0433000D02*
X0469251Y0433000D01*
X0500522Y0433000D02*
X0502724Y0433000D01*
X0547350Y0433000D02*
X0548650Y0433000D01*
X0565690Y0433000D02*
X0574408Y0433000D01*
X0404310Y0436000D02*
X0394912Y0436000D01*
X0421350Y0436000D02*
X0422650Y0436000D01*
X0469776Y0436000D02*
X0472583Y0436000D01*
X0497685Y0436000D02*
X0499724Y0436000D01*
X0547350Y0436000D02*
X0548650Y0436000D01*
X0565690Y0436000D02*
X0575088Y0436000D01*
X0404310Y0439000D02*
X0394716Y0439000D01*
X0421350Y0439000D02*
X0422650Y0439000D01*
X0472776Y0439000D02*
X0478112Y0439000D01*
X0492488Y0439000D02*
X0496723Y0439000D01*
X0547350Y0439000D02*
X0548650Y0439000D01*
X0565690Y0439000D02*
X0575284Y0439000D01*
X0404310Y0442000D02*
X0394650Y0442000D01*
X0421350Y0442000D02*
X0422650Y0442000D01*
X0547350Y0442000D02*
X0548650Y0442000D01*
X0565690Y0442000D02*
X0575350Y0442000D01*
X0404465Y0445000D02*
X0394650Y0445000D01*
X0421350Y0445000D02*
X0422650Y0445000D01*
X0547350Y0445000D02*
X0548650Y0445000D01*
X0565535Y0445000D02*
X0575350Y0445000D01*
X0424224Y0448000D02*
X0394650Y0448000D01*
X0522331Y0448000D02*
X0524678Y0448000D01*
X0529322Y0448000D02*
X0575350Y0448000D01*
X0421224Y0451000D02*
X0394650Y0451000D01*
X0521909Y0451000D02*
X0549904Y0451000D01*
X0418224Y0454000D02*
X0394650Y0454000D01*
X0425775Y0454000D02*
X0426310Y0454000D01*
X0452690Y0454000D02*
X0460224Y0454000D01*
X0509276Y0454000D02*
X0512104Y0454000D01*
X0519696Y0454000D02*
X0548568Y0454000D01*
X0415224Y0457000D02*
X0394650Y0457000D01*
X0422776Y0457000D02*
X0426310Y0457000D01*
X0438850Y0457000D02*
X0440150Y0457000D01*
X0452690Y0457000D02*
X0463224Y0457000D01*
X0506276Y0457000D02*
X0515663Y0457000D01*
X0547237Y0457000D02*
X0548867Y0457000D01*
X0426989Y0460000D02*
X0419989Y0460000D01*
X0438850Y0460000D02*
X0440150Y0460000D01*
X0452010Y0460000D02*
X0463363Y0460000D01*
X0550020Y0460000D02*
X0550904Y0460000D01*
X0460363Y0463000D02*
X0422089Y0463000D01*
X0543150Y0463000D02*
X0543180Y0463000D01*
X0550020Y0463000D02*
X0575350Y0463000D01*
X0457363Y0466000D02*
X0422432Y0466000D01*
X0516337Y0466000D02*
X0517849Y0466000D01*
X0543150Y0466000D02*
X0543180Y0466000D01*
X0550020Y0466000D02*
X0575350Y0466000D01*
X0454363Y0469000D02*
X0421203Y0469000D01*
X0464037Y0469000D02*
X0470810Y0469000D01*
X0509837Y0469000D02*
X0515817Y0469000D01*
X0543150Y0469000D02*
X0543180Y0469000D01*
X0550020Y0469000D02*
X0552678Y0469000D01*
X0557322Y0469000D02*
X0575350Y0469000D01*
X0426850Y0472000D02*
X0394650Y0472000D01*
X0461037Y0472000D02*
X0471350Y0472000D01*
X0504925Y0472000D02*
X0512817Y0472000D01*
X0521783Y0472000D02*
X0543180Y0472000D01*
X0426850Y0475000D02*
X0394650Y0475000D01*
X0459223Y0475000D02*
X0471350Y0475000D01*
X0503725Y0475000D02*
X0504925Y0475000D01*
X0509403Y0475000D02*
X0509817Y0475000D01*
X0518782Y0475000D02*
X0543180Y0475000D01*
X0426850Y0478000D02*
X0394650Y0478000D01*
X0468664Y0478000D02*
X0472252Y0478000D01*
X0498170Y0478000D02*
X0506830Y0478000D01*
X0515783Y0478000D02*
X0543180Y0478000D01*
X0451736Y0481000D02*
X0420989Y0481000D01*
X0468664Y0481000D02*
X0470349Y0481000D01*
X0499650Y0481000D02*
X0506830Y0481000D01*
X0513170Y0481000D02*
X0517849Y0481000D01*
X0543150Y0481000D02*
X0543180Y0481000D01*
X0451736Y0484000D02*
X0422432Y0484000D01*
X0499650Y0484000D02*
X0506830Y0484000D01*
X0513170Y0484000D02*
X0517849Y0484000D01*
X0543150Y0484000D02*
X0543180Y0484000D01*
X0453466Y0487000D02*
X0422177Y0487000D01*
X0499650Y0487000D02*
X0506830Y0487000D01*
X0513170Y0487000D02*
X0516017Y0487000D01*
X0543150Y0487000D02*
X0543180Y0487000D01*
X0427752Y0490000D02*
X0420203Y0490000D01*
X0451248Y0490000D02*
X0453466Y0490000D01*
X0499650Y0490000D02*
X0506830Y0490000D01*
X0513170Y0490000D02*
X0513530Y0490000D01*
X0542248Y0490000D02*
X0543180Y0490000D01*
X0426850Y0493000D02*
X0394650Y0493000D01*
X0452150Y0493000D02*
X0453466Y0493000D01*
X0499650Y0493000D02*
X0506830Y0493000D01*
X0513170Y0493000D02*
X0513530Y0493000D01*
X0519870Y0493000D02*
X0543180Y0493000D01*
X0426850Y0496000D02*
X0394650Y0496000D01*
X0499650Y0496000D02*
X0506830Y0496000D01*
X0513170Y0496000D02*
X0513530Y0496000D01*
X0519870Y0496000D02*
X0543180Y0496000D01*
X0413936Y0499000D02*
X0394650Y0499000D01*
X0418063Y0499000D02*
X0426850Y0499000D01*
X0488276Y0499000D02*
X0506830Y0499000D01*
X0513170Y0499000D02*
X0513530Y0499000D01*
X0519870Y0499000D02*
X0543180Y0499000D01*
X0451736Y0502000D02*
X0421674Y0502000D01*
X0485276Y0502000D02*
X0506117Y0502000D01*
X0513170Y0502000D02*
X0513530Y0502000D01*
X0543150Y0502000D02*
X0543180Y0502000D01*
X0453366Y0505000D02*
X0422432Y0505000D01*
X0471470Y0505000D02*
X0503117Y0505000D01*
X0512083Y0505000D02*
X0512817Y0505000D01*
X0543150Y0505000D02*
X0543180Y0505000D01*
X0453366Y0508000D02*
X0421764Y0508000D01*
X0471470Y0508000D02*
X0500117Y0508000D01*
X0509082Y0508000D02*
X0509817Y0508000D01*
X0543150Y0508000D02*
X0543180Y0508000D01*
X0413419Y0511000D02*
X0394650Y0511000D01*
X0418581Y0511000D02*
X0426850Y0511000D01*
X0452150Y0511000D02*
X0453366Y0511000D01*
X0471470Y0511000D02*
X0497117Y0511000D01*
X0506083Y0511000D02*
X0506817Y0511000D01*
X0515783Y0511000D02*
X0543180Y0511000D01*
X0426850Y0514000D02*
X0394650Y0514000D01*
X0452150Y0514000D02*
X0452504Y0514000D01*
X0471290Y0514000D02*
X0494116Y0514000D01*
X0503083Y0514000D02*
X0503817Y0514000D01*
X0512783Y0514000D02*
X0543163Y0514000D01*
X0426656Y0517000D02*
X0394650Y0517000D01*
X0468564Y0517000D02*
X0491117Y0517000D01*
X0500083Y0517000D02*
X0500817Y0517000D01*
X0509783Y0517000D02*
X0540163Y0517000D01*
X0423656Y0520000D02*
X0419989Y0520000D01*
X0468564Y0520000D02*
X0488117Y0520000D01*
X0497083Y0520000D02*
X0497817Y0520000D01*
X0506783Y0520000D02*
X0518752Y0520000D01*
X0546837Y0520000D02*
X0550904Y0520000D01*
X0470327Y0523000D02*
X0466896Y0523000D01*
X0474775Y0523000D02*
X0475725Y0523000D01*
X0503782Y0523000D02*
X0517849Y0523000D01*
X0543837Y0523000D02*
X0575350Y0523000D01*
X0469810Y0526000D02*
X0461997Y0526000D01*
X0474775Y0526000D02*
X0475725Y0526000D01*
X0500783Y0526000D02*
X0517849Y0526000D01*
X0543150Y0526000D02*
X0575350Y0526000D01*
X0469810Y0529000D02*
X0464489Y0529000D01*
X0474775Y0529000D02*
X0475725Y0529000D01*
X0499650Y0529000D02*
X0517849Y0529000D01*
X0543150Y0529000D02*
X0552678Y0529000D01*
X0557322Y0529000D02*
X0575350Y0529000D01*
X0419968Y0532000D02*
X0394650Y0532000D01*
X0469940Y0532000D02*
X0474775Y0532000D01*
X0499650Y0532000D02*
X0549281Y0532000D01*
X0419968Y0535000D02*
X0394650Y0535000D01*
X0499650Y0535000D02*
X0548568Y0535000D01*
X0419968Y0538000D02*
X0394650Y0538000D01*
X0499650Y0538000D02*
X0549281Y0538000D01*
X0421817Y0541000D02*
X0420989Y0541000D01*
X0430783Y0541000D02*
X0446517Y0541000D01*
X0498998Y0541000D02*
X0517465Y0541000D01*
X0529850Y0541000D02*
X0531150Y0541000D01*
X0543535Y0541000D02*
X0552678Y0541000D01*
X0557322Y0541000D02*
X0575350Y0541000D01*
X0424817Y0544000D02*
X0422432Y0544000D01*
X0433783Y0544000D02*
X0449517Y0544000D01*
X0491419Y0544000D02*
X0491830Y0544000D01*
X0498170Y0544000D02*
X0517310Y0544000D01*
X0529850Y0544000D02*
X0531150Y0544000D01*
X0543690Y0544000D02*
X0575350Y0544000D01*
X0427817Y0547000D02*
X0422177Y0547000D01*
X0436783Y0547000D02*
X0452517Y0547000D01*
X0489483Y0547000D02*
X0490516Y0547000D01*
X0498170Y0547000D02*
X0517310Y0547000D01*
X0529850Y0547000D02*
X0531150Y0547000D01*
X0543690Y0547000D02*
X0575350Y0547000D01*
X0430817Y0550000D02*
X0420203Y0550000D01*
X0439783Y0550000D02*
X0455516Y0550000D01*
X0486483Y0550000D02*
X0487517Y0550000D01*
X0496483Y0550000D02*
X0517989Y0550000D01*
X0529850Y0550000D02*
X0531150Y0550000D01*
X0543011Y0550000D02*
X0575350Y0550000D01*
X0406370Y0553000D02*
X0394650Y0553000D01*
X0421350Y0553000D02*
X0422650Y0553000D01*
X0493483Y0553000D02*
X0532371Y0553000D01*
X0547350Y0553000D02*
X0548650Y0553000D01*
X0563629Y0553000D02*
X0575350Y0553000D01*
X0404310Y0556000D02*
X0394650Y0556000D01*
X0421350Y0556000D02*
X0422650Y0556000D01*
X0490483Y0556000D02*
X0530310Y0556000D01*
X0547350Y0556000D02*
X0548650Y0556000D01*
X0565690Y0556000D02*
X0575350Y0556000D01*
X0404310Y0559000D02*
X0394650Y0559000D01*
X0421350Y0559000D02*
X0422650Y0559000D01*
X0439690Y0559000D02*
X0530310Y0559000D01*
X0547350Y0559000D02*
X0548650Y0559000D01*
X0565690Y0559000D02*
X0575350Y0559000D01*
X0404310Y0562000D02*
X0394781Y0562000D01*
X0421350Y0562000D02*
X0422650Y0562000D01*
X0439690Y0562000D02*
X0475034Y0562000D01*
X0494221Y0562000D02*
X0530310Y0562000D01*
X0547350Y0562000D02*
X0548650Y0562000D01*
X0565690Y0562000D02*
X0575219Y0562000D01*
X0404310Y0565000D02*
X0395056Y0565000D01*
X0421350Y0565000D02*
X0422650Y0565000D01*
X0439690Y0565000D02*
X0471473Y0565000D01*
X0499069Y0565000D02*
X0530310Y0565000D01*
X0547350Y0565000D02*
X0548650Y0565000D01*
X0565690Y0565000D02*
X0574944Y0565000D01*
X0404310Y0568000D02*
X0395860Y0568000D01*
X0421350Y0568000D02*
X0422650Y0568000D01*
X0439690Y0568000D02*
X0468232Y0568000D01*
X0501248Y0568000D02*
X0530310Y0568000D01*
X0547350Y0568000D02*
X0548650Y0568000D01*
X0565690Y0568000D02*
X0574140Y0568000D01*
X0404310Y0571000D02*
X0396663Y0571000D01*
X0421350Y0571000D02*
X0422650Y0571000D01*
X0439690Y0571000D02*
X0466897Y0571000D01*
X0503427Y0571000D02*
X0530310Y0571000D01*
X0547350Y0571000D02*
X0548650Y0571000D01*
X0565690Y0571000D02*
X0573336Y0571000D01*
X0404310Y0574000D02*
X0397613Y0574000D01*
X0421350Y0574000D02*
X0422650Y0574000D01*
X0439690Y0574000D02*
X0465561Y0574000D01*
X0504375Y0574000D02*
X0530310Y0574000D01*
X0547350Y0574000D02*
X0548650Y0574000D01*
X0565690Y0574000D02*
X0572387Y0574000D01*
X0404310Y0577000D02*
X0399345Y0577000D01*
X0421350Y0577000D02*
X0422650Y0577000D01*
X0439690Y0577000D02*
X0464801Y0577000D01*
X0505012Y0577000D02*
X0530310Y0577000D01*
X0547350Y0577000D02*
X0548650Y0577000D01*
X0565690Y0577000D02*
X0570654Y0577000D01*
X0404310Y0580000D02*
X0401078Y0580000D01*
X0421350Y0580000D02*
X0422650Y0580000D01*
X0439690Y0580000D02*
X0464801Y0580000D01*
X0505650Y0580000D02*
X0530310Y0580000D01*
X0547350Y0580000D02*
X0548650Y0580000D01*
X0565690Y0580000D02*
X0568922Y0580000D01*
X0404465Y0583000D02*
X0403435Y0583000D01*
X0421350Y0583000D02*
X0422650Y0583000D01*
X0439535Y0583000D02*
X0464801Y0583000D01*
X0505012Y0583000D02*
X0530465Y0583000D01*
X0547350Y0583000D02*
X0548650Y0583000D01*
X0565535Y0583000D02*
X0566565Y0583000D01*
X0465561Y0586000D02*
X0406435Y0586000D01*
X0504375Y0586000D02*
X0563565Y0586000D01*
X0466897Y0589000D02*
X0410134Y0589000D01*
X0503427Y0589000D02*
X0559866Y0589000D01*
X0468232Y0592000D02*
X0415330Y0592000D01*
X0501248Y0592000D02*
X0554669Y0592000D01*
X0471473Y0595000D02*
X0425208Y0595000D01*
X0499069Y0595000D02*
X0544792Y0595000D01*
X0396000Y0459350D02*
X0396000Y0431475D01*
X0396000Y0470650D02*
X0396000Y0479350D01*
X0396000Y0490650D02*
X0396000Y0499350D01*
X0396000Y0510650D02*
X0396000Y0519350D01*
X0396000Y0530650D02*
X0396000Y0539350D01*
X0396000Y0550650D02*
X0396000Y0568524D01*
X0399000Y0459350D02*
X0399000Y0423598D01*
X0399000Y0470650D02*
X0399000Y0479350D01*
X0399000Y0490650D02*
X0399000Y0499350D01*
X0399000Y0510650D02*
X0399000Y0519350D01*
X0399000Y0530650D02*
X0399000Y0539350D01*
X0399000Y0550650D02*
X0399000Y0576402D01*
X0402000Y0459350D02*
X0402000Y0418435D01*
X0402000Y0470650D02*
X0402000Y0479350D01*
X0402000Y0490650D02*
X0402000Y0499350D01*
X0402000Y0510650D02*
X0402000Y0519350D01*
X0402000Y0530650D02*
X0402000Y0539350D01*
X0402000Y0550650D02*
X0402000Y0581565D01*
X0405000Y0415989D02*
X0405000Y0415435D01*
X0405000Y0430349D02*
X0405000Y0431650D01*
X0405000Y0446011D02*
X0405000Y0459350D01*
X0405000Y0470650D02*
X0405000Y0479350D01*
X0405000Y0490650D02*
X0405000Y0499350D01*
X0405000Y0510650D02*
X0405000Y0519350D01*
X0405000Y0530650D02*
X0405000Y0539350D01*
X0405000Y0550650D02*
X0405000Y0553989D01*
X0405000Y0568350D02*
X0405000Y0569650D01*
X0405000Y0584011D02*
X0405000Y0584565D01*
X0408000Y0414810D02*
X0408000Y0412435D01*
X0408000Y0430349D02*
X0408000Y0431650D01*
X0408000Y0447190D02*
X0408000Y0459350D01*
X0408000Y0470650D02*
X0408000Y0479350D01*
X0408000Y0490650D02*
X0408000Y0499350D01*
X0408000Y0510650D02*
X0408000Y0519350D01*
X0408000Y0530650D02*
X0408000Y0539350D01*
X0408000Y0550650D02*
X0408000Y0552810D01*
X0408000Y0568350D02*
X0408000Y0569650D01*
X0408000Y0585190D02*
X0408000Y0587565D01*
X0411000Y0414810D02*
X0411000Y0410500D01*
X0411000Y0430349D02*
X0411000Y0431650D01*
X0411000Y0447190D02*
X0411000Y0459350D01*
X0411000Y0470650D02*
X0411000Y0479350D01*
X0411000Y0490650D02*
X0411000Y0499350D01*
X0411000Y0510650D02*
X0411000Y0519350D01*
X0411000Y0530650D02*
X0411000Y0539350D01*
X0411000Y0550650D02*
X0411000Y0552810D01*
X0411000Y0568350D02*
X0411000Y0569650D01*
X0411000Y0585190D02*
X0411000Y0589500D01*
X0414000Y0414810D02*
X0414000Y0408768D01*
X0414000Y0430349D02*
X0414000Y0431650D01*
X0414000Y0447190D02*
X0414000Y0458224D01*
X0414000Y0471241D02*
X0414000Y0478974D01*
X0414000Y0491241D02*
X0414000Y0498974D01*
X0414000Y0511241D02*
X0414000Y0518822D01*
X0414000Y0531178D02*
X0414000Y0538974D01*
X0414000Y0551241D02*
X0414000Y0552810D01*
X0414000Y0568350D02*
X0414000Y0569650D01*
X0414000Y0585190D02*
X0414000Y0591232D01*
X0417000Y0414810D02*
X0417000Y0407199D01*
X0417000Y0430349D02*
X0417000Y0431650D01*
X0417000Y0447190D02*
X0417000Y0455224D01*
X0417000Y0471539D02*
X0417000Y0478675D01*
X0417000Y0491539D02*
X0417000Y0498675D01*
X0417000Y0511539D02*
X0417000Y0518568D01*
X0417000Y0531432D02*
X0417000Y0538675D01*
X0417000Y0551539D02*
X0417000Y0552810D01*
X0417000Y0568350D02*
X0417000Y0569650D01*
X0417000Y0585190D02*
X0417000Y0592801D01*
X0420000Y0414810D02*
X0420000Y0406396D01*
X0420000Y0430349D02*
X0420000Y0431650D01*
X0420000Y0447190D02*
X0420000Y0452224D01*
X0420000Y0459776D02*
X0420000Y0460011D01*
X0420000Y0470203D02*
X0420000Y0480011D01*
X0420000Y0490203D02*
X0420000Y0500011D01*
X0420000Y0510203D02*
X0420000Y0520011D01*
X0420000Y0539183D02*
X0420000Y0540011D01*
X0420000Y0550203D02*
X0420000Y0552810D01*
X0420000Y0568350D02*
X0420000Y0569650D01*
X0420000Y0585190D02*
X0420000Y0593604D01*
X0423000Y0414810D02*
X0423000Y0405591D01*
X0423000Y0447190D02*
X0423000Y0449223D01*
X0423000Y0456776D02*
X0423000Y0520656D01*
X0423000Y0542183D02*
X0423000Y0552810D01*
X0423000Y0568350D02*
X0423000Y0569650D01*
X0423000Y0585190D02*
X0423000Y0594408D01*
X0426000Y0414810D02*
X0426000Y0404912D01*
X0426000Y0453776D02*
X0426000Y0517656D01*
X0426000Y0545183D02*
X0426000Y0552810D01*
X0426000Y0568350D02*
X0426000Y0569650D01*
X0426000Y0585190D02*
X0426000Y0595088D01*
X0429000Y0414810D02*
X0429000Y0404716D01*
X0429000Y0454350D02*
X0429000Y0455650D01*
X0429000Y0461169D02*
X0429000Y0469350D01*
X0429000Y0480650D02*
X0429000Y0489350D01*
X0429000Y0500650D02*
X0429000Y0509350D01*
X0429000Y0548183D02*
X0429000Y0552810D01*
X0429000Y0568350D02*
X0429000Y0569650D01*
X0429000Y0585190D02*
X0429000Y0595284D01*
X0432000Y0414810D02*
X0432000Y0404650D01*
X0432000Y0454350D02*
X0432000Y0455650D01*
X0432000Y0461190D02*
X0432000Y0469350D01*
X0432000Y0480650D02*
X0432000Y0489350D01*
X0432000Y0500650D02*
X0432000Y0509350D01*
X0432000Y0540650D02*
X0432000Y0542217D01*
X0432000Y0551183D02*
X0432000Y0552810D01*
X0432000Y0568350D02*
X0432000Y0569650D01*
X0432000Y0585190D02*
X0432000Y0595350D01*
X0435000Y0414810D02*
X0435000Y0404650D01*
X0435000Y0454350D02*
X0435000Y0455650D01*
X0435000Y0461190D02*
X0435000Y0469350D01*
X0435000Y0480650D02*
X0435000Y0489350D01*
X0435000Y0500650D02*
X0435000Y0509350D01*
X0435000Y0540650D02*
X0435000Y0545217D01*
X0435000Y0568350D02*
X0435000Y0569650D01*
X0435000Y0585190D02*
X0435000Y0595350D01*
X0438000Y0415182D02*
X0438000Y0404650D01*
X0438000Y0454350D02*
X0438000Y0455650D01*
X0438000Y0461190D02*
X0438000Y0469350D01*
X0438000Y0480650D02*
X0438000Y0489350D01*
X0438000Y0500650D02*
X0438000Y0509350D01*
X0438000Y0540650D02*
X0438000Y0548217D01*
X0438000Y0568350D02*
X0438000Y0569650D01*
X0438000Y0584817D02*
X0438000Y0595350D01*
X0441000Y0421867D02*
X0441000Y0404650D01*
X0441000Y0454350D02*
X0441000Y0455650D01*
X0441000Y0461190D02*
X0441000Y0469350D01*
X0441000Y0480650D02*
X0441000Y0489350D01*
X0441000Y0500650D02*
X0441000Y0509350D01*
X0441000Y0540650D02*
X0441000Y0551130D01*
X0441000Y0557470D02*
X0441000Y0595350D01*
X0444000Y0421567D02*
X0444000Y0404650D01*
X0444000Y0454350D02*
X0444000Y0455650D01*
X0444000Y0461190D02*
X0444000Y0469350D01*
X0444000Y0480650D02*
X0444000Y0489350D01*
X0444000Y0500650D02*
X0444000Y0509350D01*
X0444000Y0540650D02*
X0444000Y0551130D01*
X0444000Y0557470D02*
X0444000Y0595350D01*
X0447000Y0415904D02*
X0447000Y0404650D01*
X0447000Y0454350D02*
X0447000Y0455650D01*
X0447000Y0461190D02*
X0447000Y0469350D01*
X0447000Y0480650D02*
X0447000Y0489350D01*
X0447000Y0500650D02*
X0447000Y0509350D01*
X0447000Y0541483D02*
X0447000Y0551130D01*
X0447000Y0557470D02*
X0447000Y0595350D01*
X0450000Y0414568D02*
X0450000Y0404650D01*
X0450000Y0454350D02*
X0450000Y0455650D01*
X0450000Y0461169D02*
X0450000Y0469350D01*
X0450000Y0480650D02*
X0450000Y0489350D01*
X0450000Y0500650D02*
X0450000Y0509350D01*
X0450000Y0544483D02*
X0450000Y0551130D01*
X0450000Y0557470D02*
X0450000Y0595350D01*
X0453000Y0414866D02*
X0453000Y0404650D01*
X0453000Y0451670D02*
X0453000Y0470363D01*
X0453000Y0485496D02*
X0453000Y0495004D01*
X0453000Y0503996D02*
X0453000Y0513504D01*
X0453000Y0547483D02*
X0453000Y0551130D01*
X0453000Y0557470D02*
X0453000Y0595350D01*
X0456000Y0416903D02*
X0456000Y0404650D01*
X0456000Y0451670D02*
X0456000Y0467363D01*
X0456000Y0550470D02*
X0456000Y0551130D01*
X0456000Y0557470D02*
X0456000Y0595350D01*
X0459000Y0425224D02*
X0459000Y0404650D01*
X0459000Y0452776D02*
X0459000Y0464363D01*
X0459000Y0474037D02*
X0459000Y0474777D01*
X0459000Y0550470D02*
X0459000Y0551130D01*
X0459000Y0557470D02*
X0459000Y0595350D01*
X0462000Y0428224D02*
X0462000Y0404650D01*
X0462000Y0455776D02*
X0462000Y0461363D01*
X0462000Y0471037D02*
X0462000Y0475850D01*
X0462000Y0523250D02*
X0462000Y0526004D01*
X0462000Y0550470D02*
X0462000Y0551130D01*
X0462000Y0557470D02*
X0462000Y0595350D01*
X0465000Y0415260D02*
X0465000Y0404650D01*
X0465000Y0424740D02*
X0465000Y0431224D01*
X0465000Y0458670D02*
X0465000Y0459780D01*
X0465000Y0468037D02*
X0465000Y0475850D01*
X0465000Y0523250D02*
X0465000Y0529616D01*
X0465000Y0550470D02*
X0465000Y0551130D01*
X0465000Y0557470D02*
X0465000Y0575260D01*
X0465000Y0584740D02*
X0465000Y0595350D01*
X0468000Y0408522D02*
X0468000Y0404650D01*
X0468000Y0431478D02*
X0468000Y0434224D01*
X0468000Y0458670D02*
X0468000Y0459780D01*
X0468000Y0466620D02*
X0468000Y0477104D01*
X0468000Y0521896D02*
X0468000Y0530450D01*
X0468000Y0550470D02*
X0468000Y0551130D01*
X0468000Y0557470D02*
X0468000Y0568522D01*
X0468000Y0591478D02*
X0468000Y0595350D01*
X0471000Y0405426D02*
X0471000Y0404650D01*
X0471000Y0434574D02*
X0471000Y0437224D01*
X0471000Y0458670D02*
X0471000Y0459780D01*
X0471000Y0468500D02*
X0471000Y0468500D01*
X0471000Y0471128D02*
X0471000Y0479002D01*
X0471000Y0514290D02*
X0471000Y0522239D01*
X0471000Y0531525D02*
X0471000Y0532475D01*
X0471000Y0550470D02*
X0471000Y0551130D01*
X0471000Y0557470D02*
X0471000Y0565426D01*
X0471000Y0594574D02*
X0471000Y0595350D01*
X0474000Y0440224D02*
X0474000Y0437276D01*
X0474000Y0458670D02*
X0474000Y0459780D01*
X0474000Y0468500D02*
X0474000Y0468500D01*
X0474000Y0503870D02*
X0474000Y0521560D01*
X0474000Y0531525D02*
X0474000Y0532475D01*
X0474000Y0550470D02*
X0474000Y0551130D01*
X0474000Y0557470D02*
X0474000Y0562724D01*
X0477000Y0441330D02*
X0477000Y0438639D01*
X0477000Y0458670D02*
X0477000Y0459780D01*
X0477000Y0468500D02*
X0477000Y0468500D01*
X0477000Y0503870D02*
X0477000Y0521560D01*
X0477000Y0550470D02*
X0477000Y0551130D01*
X0477000Y0557470D02*
X0477000Y0561361D01*
X0480000Y0441330D02*
X0480000Y0439614D01*
X0480000Y0458670D02*
X0480000Y0459780D01*
X0480000Y0468500D02*
X0480000Y0468500D01*
X0480000Y0503870D02*
X0480000Y0522100D01*
X0480000Y0550470D02*
X0480000Y0551130D01*
X0480000Y0557470D02*
X0480000Y0560386D01*
X0483000Y0441330D02*
X0483000Y0440520D01*
X0483000Y0458670D02*
X0483000Y0459780D01*
X0483000Y0503870D02*
X0483000Y0522100D01*
X0483000Y0550470D02*
X0483000Y0551130D01*
X0483000Y0557470D02*
X0483000Y0559480D01*
X0486000Y0441330D02*
X0486000Y0440205D01*
X0486000Y0458670D02*
X0486000Y0459780D01*
X0486000Y0468500D02*
X0486000Y0468500D01*
X0486000Y0501276D02*
X0486000Y0522100D01*
X0486000Y0550470D02*
X0486000Y0551130D01*
X0486000Y0557470D02*
X0486000Y0559795D01*
X0489000Y0441330D02*
X0489000Y0439890D01*
X0489000Y0458670D02*
X0489000Y0459780D01*
X0489000Y0498276D02*
X0489000Y0519116D01*
X0489000Y0547483D02*
X0489000Y0548517D01*
X0489000Y0557470D02*
X0489000Y0560110D01*
X0492000Y0441330D02*
X0492000Y0439281D01*
X0492000Y0458670D02*
X0492000Y0459780D01*
X0492000Y0497900D02*
X0492000Y0516117D01*
X0492000Y0554483D02*
X0492000Y0560718D01*
X0495000Y0440724D02*
X0495000Y0437550D01*
X0495000Y0458670D02*
X0495000Y0459780D01*
X0495000Y0497900D02*
X0495000Y0513117D01*
X0495000Y0522083D02*
X0495000Y0522100D01*
X0495000Y0551483D02*
X0495000Y0562450D01*
X0498000Y0437724D02*
X0498000Y0435818D01*
X0498000Y0458670D02*
X0498000Y0459780D01*
X0498000Y0497900D02*
X0498000Y0510117D01*
X0498000Y0519082D02*
X0498000Y0519817D01*
X0498000Y0548483D02*
X0498000Y0564182D01*
X0501000Y0407658D02*
X0501000Y0404650D01*
X0501000Y0432342D02*
X0501000Y0434724D01*
X0501000Y0458670D02*
X0501000Y0459780D01*
X0501000Y0476679D02*
X0501000Y0507117D01*
X0501000Y0516083D02*
X0501000Y0516817D01*
X0501000Y0525783D02*
X0501000Y0567658D01*
X0501000Y0592342D02*
X0501000Y0595350D01*
X0504000Y0412237D02*
X0504000Y0404650D01*
X0504000Y0427762D02*
X0504000Y0431724D01*
X0504000Y0458670D02*
X0504000Y0459780D01*
X0504000Y0472100D02*
X0504000Y0504116D01*
X0504000Y0513083D02*
X0504000Y0513817D01*
X0504000Y0522783D02*
X0504000Y0572238D01*
X0504000Y0587762D02*
X0504000Y0595350D01*
X0507000Y0428724D02*
X0507000Y0404650D01*
X0507000Y0456276D02*
X0507000Y0459780D01*
X0507000Y0470900D02*
X0507000Y0472100D01*
X0507000Y0476965D02*
X0507000Y0477817D01*
X0507000Y0510083D02*
X0507000Y0510817D01*
X0507000Y0519783D02*
X0507000Y0595350D01*
X0510000Y0425724D02*
X0510000Y0404650D01*
X0510000Y0453276D02*
X0510000Y0459780D01*
X0510000Y0466620D02*
X0510000Y0469610D01*
X0510000Y0470900D02*
X0510000Y0472100D01*
X0510000Y0473390D02*
X0510000Y0474817D01*
X0510000Y0507083D02*
X0510000Y0507817D01*
X0510000Y0516783D02*
X0510000Y0595350D01*
X0513000Y0418678D02*
X0513000Y0404650D01*
X0513000Y0454461D02*
X0513000Y0459663D01*
X0513000Y0466620D02*
X0513000Y0471817D01*
X0513000Y0504082D02*
X0513000Y0504817D01*
X0513000Y0513782D02*
X0513000Y0595350D01*
X0516000Y0415281D02*
X0516000Y0404650D01*
X0516000Y0455132D02*
X0516000Y0456663D01*
X0516000Y0466337D02*
X0516000Y0468817D01*
X0516000Y0477783D02*
X0516000Y0487017D01*
X0516000Y0510783D02*
X0516000Y0595350D01*
X0519000Y0414568D02*
X0519000Y0404650D01*
X0519000Y0454378D02*
X0519000Y0454780D01*
X0519000Y0474783D02*
X0519000Y0479752D01*
X0519000Y0510248D02*
X0519000Y0519752D01*
X0519000Y0530248D02*
X0519000Y0539183D01*
X0519000Y0544350D02*
X0519000Y0545650D01*
X0519000Y0550817D02*
X0519000Y0595350D01*
X0522000Y0415281D02*
X0522000Y0404650D01*
X0522000Y0446096D02*
X0522000Y0446619D01*
X0522000Y0450781D02*
X0522000Y0454780D01*
X0522000Y0471783D02*
X0522000Y0479350D01*
X0522000Y0490650D02*
X0522000Y0499350D01*
X0522000Y0510650D02*
X0522000Y0519350D01*
X0522000Y0530650D02*
X0522000Y0538810D01*
X0522000Y0544350D02*
X0522000Y0545650D01*
X0522000Y0551190D02*
X0522000Y0595350D01*
X0525000Y0418678D02*
X0525000Y0404650D01*
X0525000Y0448134D02*
X0525000Y0454780D01*
X0525000Y0470650D02*
X0525000Y0479350D01*
X0525000Y0490650D02*
X0525000Y0499350D01*
X0525000Y0510650D02*
X0525000Y0519350D01*
X0525000Y0530650D02*
X0525000Y0538810D01*
X0525000Y0544350D02*
X0525000Y0545650D01*
X0525000Y0551190D02*
X0525000Y0595350D01*
X0528000Y0421567D02*
X0528000Y0404650D01*
X0528000Y0448432D02*
X0528000Y0454780D01*
X0528000Y0470650D02*
X0528000Y0479350D01*
X0528000Y0490650D02*
X0528000Y0499350D01*
X0528000Y0510650D02*
X0528000Y0519350D01*
X0528000Y0530650D02*
X0528000Y0538810D01*
X0528000Y0544350D02*
X0528000Y0545650D01*
X0528000Y0551190D02*
X0528000Y0595350D01*
X0531000Y0415989D02*
X0531000Y0404650D01*
X0531000Y0447096D02*
X0531000Y0454780D01*
X0531000Y0470650D02*
X0531000Y0479350D01*
X0531000Y0490650D02*
X0531000Y0499350D01*
X0531000Y0510650D02*
X0531000Y0519350D01*
X0531000Y0530650D02*
X0531000Y0544350D01*
X0531000Y0545650D02*
X0531000Y0553989D01*
X0531000Y0568350D02*
X0531000Y0569650D01*
X0531000Y0584011D02*
X0531000Y0595350D01*
X0534000Y0414810D02*
X0534000Y0404650D01*
X0534000Y0447190D02*
X0534000Y0454780D01*
X0534000Y0470650D02*
X0534000Y0479350D01*
X0534000Y0490650D02*
X0534000Y0499350D01*
X0534000Y0510650D02*
X0534000Y0519350D01*
X0534000Y0530650D02*
X0534000Y0538810D01*
X0534000Y0544350D02*
X0534000Y0545650D01*
X0534000Y0551190D02*
X0534000Y0552810D01*
X0534000Y0568350D02*
X0534000Y0569650D01*
X0534000Y0585190D02*
X0534000Y0595350D01*
X0537000Y0414810D02*
X0537000Y0404650D01*
X0537000Y0447190D02*
X0537000Y0454780D01*
X0537000Y0470650D02*
X0537000Y0479350D01*
X0537000Y0490650D02*
X0537000Y0499350D01*
X0537000Y0510650D02*
X0537000Y0519350D01*
X0537000Y0530650D02*
X0537000Y0538810D01*
X0537000Y0544350D02*
X0537000Y0545650D01*
X0537000Y0551190D02*
X0537000Y0552810D01*
X0537000Y0568350D02*
X0537000Y0569650D01*
X0537000Y0585190D02*
X0537000Y0595350D01*
X0540000Y0414810D02*
X0540000Y0404650D01*
X0540000Y0447190D02*
X0540000Y0454780D01*
X0540000Y0470650D02*
X0540000Y0479350D01*
X0540000Y0490650D02*
X0540000Y0499350D01*
X0540000Y0510650D02*
X0540000Y0517163D01*
X0540000Y0530650D02*
X0540000Y0538810D01*
X0540000Y0544350D02*
X0540000Y0545650D01*
X0540000Y0551190D02*
X0540000Y0552810D01*
X0540000Y0568350D02*
X0540000Y0569650D01*
X0540000Y0585190D02*
X0540000Y0595350D01*
X0543000Y0414810D02*
X0543000Y0404846D01*
X0543000Y0447190D02*
X0543000Y0454780D01*
X0543000Y0469248D02*
X0543000Y0480752D01*
X0543000Y0489248D02*
X0543000Y0500752D01*
X0543000Y0509248D02*
X0543000Y0514163D01*
X0543000Y0529248D02*
X0543000Y0539989D01*
X0543000Y0544350D02*
X0543000Y0545650D01*
X0543000Y0550011D02*
X0543000Y0552810D01*
X0543000Y0568350D02*
X0543000Y0569650D01*
X0543000Y0585190D02*
X0543000Y0595153D01*
X0546000Y0414810D02*
X0546000Y0405324D01*
X0546000Y0447190D02*
X0546000Y0455763D01*
X0546000Y0520837D02*
X0546000Y0552810D01*
X0546000Y0568350D02*
X0546000Y0569650D01*
X0546000Y0585190D02*
X0546000Y0594676D01*
X0549000Y0414810D02*
X0549000Y0406128D01*
X0549000Y0430349D02*
X0549000Y0431650D01*
X0549000Y0447190D02*
X0549000Y0452678D01*
X0549000Y0457322D02*
X0549000Y0458763D01*
X0549000Y0517836D02*
X0549000Y0532678D01*
X0549000Y0537322D02*
X0549000Y0552810D01*
X0549000Y0568350D02*
X0549000Y0569650D01*
X0549000Y0585190D02*
X0549000Y0593872D01*
X0552000Y0414810D02*
X0552000Y0406931D01*
X0552000Y0430349D02*
X0552000Y0431650D01*
X0552000Y0447190D02*
X0552000Y0449281D01*
X0552000Y0460719D02*
X0552000Y0469281D01*
X0552000Y0520719D02*
X0552000Y0529281D01*
X0552000Y0540719D02*
X0552000Y0552810D01*
X0552000Y0568350D02*
X0552000Y0569650D01*
X0552000Y0585190D02*
X0552000Y0593069D01*
X0555000Y0414810D02*
X0555000Y0408191D01*
X0555000Y0430349D02*
X0555000Y0431650D01*
X0555000Y0447190D02*
X0555000Y0448568D01*
X0555000Y0461432D02*
X0555000Y0468568D01*
X0555000Y0521432D02*
X0555000Y0528568D01*
X0555000Y0541432D02*
X0555000Y0552810D01*
X0555000Y0568350D02*
X0555000Y0569650D01*
X0555000Y0585190D02*
X0555000Y0591809D01*
X0558000Y0414810D02*
X0558000Y0409923D01*
X0558000Y0430349D02*
X0558000Y0431650D01*
X0558000Y0447190D02*
X0558000Y0449281D01*
X0558000Y0460719D02*
X0558000Y0469281D01*
X0558000Y0520719D02*
X0558000Y0529281D01*
X0558000Y0540719D02*
X0558000Y0552810D01*
X0558000Y0568350D02*
X0558000Y0569650D01*
X0558000Y0585190D02*
X0558000Y0590077D01*
X0561000Y0414810D02*
X0561000Y0411655D01*
X0561000Y0430349D02*
X0561000Y0431650D01*
X0561000Y0447190D02*
X0561000Y0449350D01*
X0561000Y0460650D02*
X0561000Y0469350D01*
X0561000Y0520650D02*
X0561000Y0529350D01*
X0561000Y0540650D02*
X0561000Y0552810D01*
X0561000Y0568350D02*
X0561000Y0569650D01*
X0561000Y0585190D02*
X0561000Y0588345D01*
X0564000Y0415182D02*
X0564000Y0414435D01*
X0564000Y0430349D02*
X0564000Y0431650D01*
X0564000Y0446817D02*
X0564000Y0449350D01*
X0564000Y0460650D02*
X0564000Y0469350D01*
X0564000Y0520650D02*
X0564000Y0529350D01*
X0564000Y0540650D02*
X0564000Y0553183D01*
X0564000Y0568350D02*
X0564000Y0569650D01*
X0564000Y0584817D02*
X0564000Y0585565D01*
X0567000Y0449350D02*
X0567000Y0417435D01*
X0567000Y0460650D02*
X0567000Y0469350D01*
X0567000Y0520650D02*
X0567000Y0529350D01*
X0567000Y0540650D02*
X0567000Y0582565D01*
X0570000Y0449350D02*
X0570000Y0421866D01*
X0570000Y0460650D02*
X0570000Y0469350D01*
X0570000Y0520650D02*
X0570000Y0529350D01*
X0570000Y0540650D02*
X0570000Y0578134D01*
X0573000Y0449350D02*
X0573000Y0427744D01*
X0573000Y0460650D02*
X0573000Y0469350D01*
X0573000Y0520650D02*
X0573000Y0529350D01*
X0573000Y0540650D02*
X0573000Y0572256D01*
D18*
X0485000Y0510000D03*
X0496000Y0502000D03*
X0475000Y0520000D03*
X0402500Y0425000D03*
X0402500Y0433500D03*
X0402500Y0442000D03*
X0567500Y0433500D03*
X0567500Y0442000D03*
X0567500Y0425000D03*
X0567500Y0570000D03*
X0567500Y0560000D03*
X0545000Y0590000D03*
X0402500Y0560000D03*
X0421500Y0590000D03*
X0402500Y0570000D03*
X0466500Y0472500D03*
X0443700Y0545900D03*
X0502900Y0480800D03*
X0438500Y0464500D03*
X0447500Y0464500D03*
X0530500Y0535500D03*
X0456000Y0456000D03*
X0514000Y0545000D03*
X0522000Y0535500D03*
D19*
X0465525Y0535600D02*
X0456786Y0525079D01*
X0456786Y0518100D01*
X0456786Y0499600D01*
X0456886Y0499500D01*
X0456886Y0481000D01*
X0456986Y0480900D01*
X0456986Y0477600D01*
X0454386Y0475000D01*
X0439500Y0475000D01*
X0440500Y0474000D02*
X0454200Y0474000D01*
X0440500Y0474000D02*
X0439500Y0475000D01*
X0454200Y0474000D02*
X0465000Y0463200D01*
X0494775Y0471200D02*
X0495075Y0471500D01*
X0494750Y0471825D02*
X0494750Y0488000D01*
X0494750Y0471825D02*
X0495075Y0471500D01*
X0519300Y0458200D02*
X0543600Y0458200D01*
X0546600Y0461200D01*
X0546600Y0515400D01*
X0536700Y0525300D01*
X0530800Y0525300D01*
X0530500Y0525000D01*
X0495000Y0463200D02*
X0465000Y0463200D01*
X0495000Y0463200D02*
X0514300Y0463200D01*
X0519300Y0458200D01*
X0495075Y0463275D02*
X0495075Y0471500D01*
X0495075Y0463275D02*
X0495000Y0463200D01*
D13*
X0439500Y0515000D02*
X0433139Y0515000D01*
X0423138Y0525000D01*
X0423138Y0537839D01*
X0439600Y0554300D01*
X0487699Y0554300D01*
X0495000Y0547000D01*
X0495000Y0532250D01*
X0494750Y0532000D01*
X0494750Y0527550D01*
X0516700Y0505600D02*
X0516700Y0490800D01*
X0522500Y0485000D02*
X0530500Y0485000D01*
X0522500Y0485000D02*
X0516700Y0490800D01*
X0516700Y0505600D02*
X0494750Y0527550D01*
X0484700Y0547300D02*
X0457300Y0547300D01*
X0445000Y0535000D02*
X0439500Y0535000D01*
X0445000Y0535000D02*
X0457300Y0547300D01*
X0488250Y0543750D02*
X0488250Y0532000D01*
X0488250Y0543750D02*
X0484700Y0547300D01*
X0488250Y0532000D02*
X0488250Y0524350D01*
X0510000Y0502600D02*
X0510000Y0479300D01*
X0524300Y0465000D01*
X0530500Y0465000D01*
X0510000Y0502600D02*
X0488250Y0524350D01*
D16*
X0481750Y0532000D02*
X0481750Y0540980D01*
X0479000Y0543730D01*
X0446775Y0525000D02*
X0438000Y0525000D01*
D18*
X0438000Y0525000D03*
D16*
X0456275Y0535600D02*
X0464405Y0543730D01*
X0479000Y0543730D01*
X0456275Y0534500D02*
X0446775Y0525000D01*
X0456275Y0534500D02*
X0456275Y0535600D01*
D19*
X0415893Y0525000D02*
X0404500Y0525000D01*
D18*
X0415893Y0525000D03*
X0555000Y0475000D03*
D16*
X0565500Y0475000D01*
D18*
X0443000Y0428000D03*
X0527000Y0428000D03*
D16*
X0443032Y0427968D02*
X0443000Y0428000D01*
X0443032Y0427968D02*
X0453206Y0427968D01*
X0472238Y0447000D01*
X0497500Y0447000D01*
X0516500Y0428000D02*
X0527000Y0428000D01*
X0516500Y0428000D02*
X0497500Y0447000D01*
D19*
X0416000Y0505107D02*
X0404509Y0505009D01*
X0404500Y0505000D01*
D18*
X0416000Y0505107D03*
X0555000Y0495000D03*
D16*
X0565500Y0495000D01*
D18*
X0451000Y0435000D03*
X0519000Y0435000D03*
D16*
X0455319Y0435000D02*
X0451000Y0435000D01*
X0455319Y0435000D02*
X0470319Y0450000D01*
X0499548Y0450000D01*
X0514548Y0435000D02*
X0519000Y0435000D01*
X0514548Y0435000D02*
X0499548Y0450000D01*
D19*
X0416000Y0485107D02*
X0404509Y0485009D01*
X0404500Y0485000D01*
D18*
X0416000Y0485107D03*
X0555000Y0515000D03*
D16*
X0565500Y0515000D01*
D18*
X0443000Y0442000D03*
X0527000Y0442000D03*
D16*
X0457000Y0442000D02*
X0443000Y0442000D01*
X0457000Y0442000D02*
X0468000Y0453000D01*
X0501500Y0453000D01*
X0512500Y0442000D02*
X0527000Y0442000D01*
X0512500Y0442000D02*
X0501500Y0453000D01*
D19*
X0404509Y0465009D02*
X0404500Y0465000D01*
X0404509Y0465009D02*
X0416000Y0465107D01*
D18*
X0416000Y0465107D03*
X0555000Y0535000D03*
D16*
X0565500Y0535000D01*
X0411000Y0465000D02*
X0404500Y0465000D01*
D18*
X0515900Y0448700D03*
D16*
X0427000Y0449000D02*
X0411000Y0465000D01*
X0427000Y0449000D02*
X0459000Y0449000D01*
X0466000Y0456000D01*
X0503500Y0456000D01*
X0510800Y0448700D02*
X0515900Y0448700D01*
X0510800Y0448700D02*
X0503500Y0456000D01*
D19*
X0416000Y0545107D02*
X0404500Y0545000D01*
D18*
X0416000Y0545107D03*
X0555000Y0455000D03*
D16*
X0565500Y0455000D01*
D18*
X0451000Y0421000D03*
X0519000Y0421000D03*
D16*
X0474000Y0444000D02*
X0451000Y0421000D01*
X0474000Y0444000D02*
X0495500Y0444000D01*
X0518500Y0421000D02*
X0519000Y0421000D01*
X0518500Y0421000D02*
X0495500Y0444000D01*
M02*