G04 EAGLE Gerber RS-274X export*
G75*
%MOMM*%
%FSLAX34Y34*%
%LPD*%
%INSilk screen*%
%IPPOS*%
%AMOC8*
5,1,8,0,0,$1,22.5*%
G01*
%ADD10C,0.127*%
%ADD11C,0.1524*%
%ADD12C,0.2*%
%ADD13C,0.0762*%
%ADD14C,0.15*%
G36*
X0465982Y0532935D02*
X0465982Y0532935D01*
X0465984Y0532934D01*
X0466027Y0532954D01*
X0466071Y0532972D01*
X0466071Y0532974D01*
X0466073Y0532975D01*
X0466106Y0533060D01*
X0466106Y0538140D01*
X0466105Y0538142D01*
X0466106Y0538144D01*
X0466086Y0538187D01*
X0466068Y0538231D01*
X0466066Y0538231D01*
X0466064Y0538233D01*
X0465980Y0538266D01*
X0455820Y0538266D01*
X0455818Y0538265D01*
X0455816Y0538266D01*
X0455773Y0538246D01*
X0455728Y0538228D01*
X0455728Y0538226D01*
X0455727Y0538225D01*
X0455694Y0538140D01*
X0455694Y0533060D01*
X0455695Y0533058D01*
X0455694Y0533056D01*
X0455713Y0533013D01*
X0455732Y0532969D01*
X0455734Y0532969D01*
X0455735Y0532967D01*
X0455820Y0532934D01*
X0465980Y0532934D01*
X0465982Y0532935D01*
G37*
G36*
X0504782Y0468835D02*
X0504782Y0468835D01*
X0504784Y0468834D01*
X0504827Y0468853D01*
X0504871Y0468872D01*
X0504871Y0468874D01*
X0504873Y0468875D01*
X0504906Y0468960D01*
X0504906Y0474039D01*
X0504905Y0474042D01*
X0504906Y0474044D01*
X0504886Y0474086D01*
X0504868Y0474131D01*
X0504865Y0474131D01*
X0504865Y0474133D01*
X0504780Y0474166D01*
X0494620Y0474166D01*
X0494617Y0474165D01*
X0494616Y0474166D01*
X0494573Y0474146D01*
X0494529Y0474128D01*
X0494529Y0474126D01*
X0494527Y0474125D01*
X0494494Y0474039D01*
X0494494Y0468960D01*
X0494495Y0468958D01*
X0494494Y0468956D01*
X0494514Y0468913D01*
X0494532Y0468869D01*
X0494534Y0468869D01*
X0494535Y0468867D01*
X0494620Y0468834D01*
X0504780Y0468834D01*
X0504782Y0468835D01*
G37*
G36*
X0503153Y0527536D02*
X0503153Y0527536D01*
X0503160Y0527543D01*
X0503166Y0527540D01*
X0503769Y0527789D01*
X0503774Y0527798D01*
X0503780Y0527796D01*
X0504298Y0528193D01*
X0504300Y0528202D01*
X0504307Y0528202D01*
X0504704Y0528720D01*
X0504704Y0528730D01*
X0504711Y0528731D01*
X0504960Y0529334D01*
X0504958Y0529343D01*
X0504964Y0529347D01*
X0505049Y0529994D01*
X0505044Y0530002D01*
X0505049Y0530006D01*
X0504964Y0530654D01*
X0504957Y0530660D01*
X0504960Y0530666D01*
X0504711Y0531269D01*
X0504702Y0531274D01*
X0504704Y0531280D01*
X0504307Y0531798D01*
X0504298Y0531800D01*
X0504298Y0531807D01*
X0503780Y0532204D01*
X0503771Y0532204D01*
X0503769Y0532211D01*
X0503166Y0532460D01*
X0503157Y0532458D01*
X0503153Y0532464D01*
X0502506Y0532549D01*
X0502498Y0532544D01*
X0502494Y0532549D01*
X0501847Y0532464D01*
X0501840Y0532457D01*
X0501834Y0532460D01*
X0501231Y0532211D01*
X0501226Y0532202D01*
X0501220Y0532204D01*
X0500702Y0531807D01*
X0500700Y0531798D01*
X0500693Y0531798D01*
X0500296Y0531280D01*
X0500296Y0531271D01*
X0500289Y0531269D01*
X0500040Y0530666D01*
X0500040Y0530665D01*
X0500042Y0530657D01*
X0500036Y0530654D01*
X0499951Y0530006D01*
X0499955Y0529998D01*
X0499951Y0529994D01*
X0500036Y0529347D01*
X0500043Y0529340D01*
X0500040Y0529334D01*
X0500289Y0528731D01*
X0500298Y0528726D01*
X0500296Y0528720D01*
X0500693Y0528202D01*
X0500702Y0528200D01*
X0500702Y0528193D01*
X0501220Y0527796D01*
X0501230Y0527796D01*
X0501231Y0527789D01*
X0501834Y0527540D01*
X0501843Y0527542D01*
X0501847Y0527536D01*
X0502494Y0527451D01*
X0502502Y0527456D01*
X0502506Y0527451D01*
X0503153Y0527536D01*
G37*
D10*
X0454343Y0523635D02*
X0456586Y0530365D01*
X0458830Y0523635D01*
X0458269Y0525318D02*
X0454904Y0525318D01*
X0461918Y0527000D02*
X0461920Y0527148D01*
X0461926Y0527296D01*
X0461936Y0527443D01*
X0461950Y0527591D01*
X0461967Y0527738D01*
X0461989Y0527884D01*
X0462014Y0528030D01*
X0462044Y0528175D01*
X0462077Y0528319D01*
X0462114Y0528462D01*
X0462155Y0528604D01*
X0462200Y0528746D01*
X0462248Y0528885D01*
X0462300Y0529024D01*
X0462356Y0529161D01*
X0462416Y0529296D01*
X0462479Y0529430D01*
X0462479Y0529431D02*
X0462504Y0529498D01*
X0462532Y0529563D01*
X0462564Y0529627D01*
X0462599Y0529690D01*
X0462637Y0529750D01*
X0462678Y0529808D01*
X0462722Y0529865D01*
X0462769Y0529918D01*
X0462819Y0529970D01*
X0462871Y0530018D01*
X0462926Y0530064D01*
X0462983Y0530107D01*
X0463042Y0530147D01*
X0463104Y0530184D01*
X0463167Y0530218D01*
X0463230Y0530248D01*
X0463297Y0530275D01*
X0463365Y0530299D01*
X0463434Y0530319D01*
X0463503Y0530336D01*
X0463573Y0530348D01*
X0463644Y0530358D01*
X0463716Y0530363D01*
X0463787Y0530365D01*
X0463858Y0530363D01*
X0463930Y0530358D01*
X0464001Y0530348D01*
X0464071Y0530336D01*
X0464140Y0530319D01*
X0464209Y0530299D01*
X0464277Y0530275D01*
X0464343Y0530248D01*
X0464407Y0530218D01*
X0464470Y0530184D01*
X0464532Y0530147D01*
X0464591Y0530107D01*
X0464647Y0530064D01*
X0464703Y0530018D01*
X0464754Y0529970D01*
X0464805Y0529918D01*
X0464852Y0529865D01*
X0464896Y0529808D01*
X0464936Y0529750D01*
X0464975Y0529689D01*
X0465010Y0529627D01*
X0465042Y0529563D01*
X0465070Y0529497D01*
X0465095Y0529430D01*
X0465096Y0529430D02*
X0465159Y0529296D01*
X0465219Y0529161D01*
X0465275Y0529024D01*
X0465327Y0528885D01*
X0465375Y0528746D01*
X0465420Y0528605D01*
X0465461Y0528462D01*
X0465498Y0528319D01*
X0465531Y0528175D01*
X0465561Y0528030D01*
X0465586Y0527884D01*
X0465608Y0527738D01*
X0465625Y0527591D01*
X0465639Y0527443D01*
X0465649Y0527296D01*
X0465655Y0527148D01*
X0465657Y0527000D01*
X0461918Y0527000D02*
X0461920Y0526852D01*
X0461926Y0526704D01*
X0461936Y0526557D01*
X0461950Y0526409D01*
X0461967Y0526262D01*
X0461989Y0526116D01*
X0462014Y0525970D01*
X0462044Y0525825D01*
X0462077Y0525681D01*
X0462114Y0525538D01*
X0462155Y0525396D01*
X0462200Y0525255D01*
X0462248Y0525115D01*
X0462300Y0524976D01*
X0462356Y0524839D01*
X0462416Y0524704D01*
X0462479Y0524570D01*
X0462479Y0524569D02*
X0462504Y0524502D01*
X0462532Y0524437D01*
X0462564Y0524373D01*
X0462599Y0524310D01*
X0462637Y0524250D01*
X0462678Y0524192D01*
X0462722Y0524135D01*
X0462769Y0524082D01*
X0462819Y0524030D01*
X0462871Y0523982D01*
X0462926Y0523936D01*
X0462983Y0523893D01*
X0463042Y0523853D01*
X0463104Y0523816D01*
X0463167Y0523782D01*
X0463230Y0523752D01*
X0463297Y0523725D01*
X0463365Y0523701D01*
X0463434Y0523681D01*
X0463503Y0523664D01*
X0463573Y0523652D01*
X0463644Y0523641D01*
X0463716Y0523637D01*
X0463787Y0523635D01*
X0465095Y0524570D02*
X0465158Y0524704D01*
X0465218Y0524839D01*
X0465274Y0524976D01*
X0465326Y0525115D01*
X0465374Y0525254D01*
X0465419Y0525395D01*
X0465460Y0525538D01*
X0465497Y0525681D01*
X0465530Y0525825D01*
X0465560Y0525970D01*
X0465585Y0526116D01*
X0465607Y0526262D01*
X0465623Y0526409D01*
X0465638Y0526557D01*
X0465648Y0526704D01*
X0465653Y0526852D01*
X0465656Y0527000D01*
X0465095Y0524569D02*
X0465070Y0524502D01*
X0465042Y0524437D01*
X0465010Y0524373D01*
X0464975Y0524310D01*
X0464936Y0524250D01*
X0464896Y0524192D01*
X0464852Y0524135D01*
X0464805Y0524082D01*
X0464754Y0524030D01*
X0464703Y0523982D01*
X0464647Y0523936D01*
X0464591Y0523893D01*
X0464532Y0523853D01*
X0464470Y0523816D01*
X0464407Y0523782D01*
X0464343Y0523752D01*
X0464277Y0523725D01*
X0464209Y0523701D01*
X0464140Y0523681D01*
X0464071Y0523664D01*
X0464001Y0523652D01*
X0463930Y0523641D01*
X0463858Y0523637D01*
X0463787Y0523635D01*
X0462291Y0525131D02*
X0465283Y0528869D01*
X0457087Y0511865D02*
X0454844Y0505135D01*
X0459330Y0505135D02*
X0457087Y0511865D01*
X0458769Y0506818D02*
X0455404Y0506818D01*
X0462418Y0510369D02*
X0464287Y0511865D01*
X0464287Y0505135D01*
X0462418Y0505135D02*
X0466156Y0505135D01*
X0456586Y0493365D02*
X0454343Y0486635D01*
X0458830Y0486635D02*
X0456586Y0493365D01*
X0458269Y0488318D02*
X0454904Y0488318D01*
X0463974Y0493366D02*
X0464054Y0493364D01*
X0464134Y0493358D01*
X0464214Y0493349D01*
X0464293Y0493336D01*
X0464371Y0493319D01*
X0464448Y0493298D01*
X0464524Y0493273D01*
X0464600Y0493245D01*
X0464673Y0493213D01*
X0464745Y0493179D01*
X0464816Y0493140D01*
X0464884Y0493099D01*
X0464950Y0493054D01*
X0465014Y0493006D01*
X0465075Y0492955D01*
X0465135Y0492901D01*
X0465192Y0492844D01*
X0465246Y0492785D01*
X0465297Y0492723D01*
X0465345Y0492659D01*
X0465390Y0492592D01*
X0465432Y0492525D01*
X0465469Y0492454D01*
X0465505Y0492382D01*
X0465536Y0492309D01*
X0465563Y0492233D01*
X0465589Y0492157D01*
X0465610Y0492080D01*
X0465627Y0492002D01*
X0465640Y0491923D01*
X0465649Y0491843D01*
X0465655Y0491763D01*
X0465657Y0491683D01*
X0463974Y0493365D02*
X0463883Y0493363D01*
X0463793Y0493357D01*
X0463703Y0493348D01*
X0463613Y0493335D01*
X0463524Y0493318D01*
X0463436Y0493297D01*
X0463349Y0493273D01*
X0463262Y0493245D01*
X0463178Y0493213D01*
X0463093Y0493178D01*
X0463012Y0493139D01*
X0462932Y0493097D01*
X0462853Y0493052D01*
X0462777Y0493003D01*
X0462702Y0492951D01*
X0462630Y0492896D01*
X0462560Y0492839D01*
X0462493Y0492778D01*
X0462428Y0492715D01*
X0462366Y0492649D01*
X0462307Y0492579D01*
X0462251Y0492509D01*
X0462198Y0492436D01*
X0462147Y0492360D01*
X0462100Y0492282D01*
X0462057Y0492203D01*
X0462017Y0492121D01*
X0461980Y0492039D01*
X0461947Y0491954D01*
X0461917Y0491869D01*
X0465095Y0490374D02*
X0465152Y0490432D01*
X0465208Y0490492D01*
X0465259Y0490554D01*
X0465309Y0490619D01*
X0465356Y0490685D01*
X0465399Y0490754D01*
X0465439Y0490824D01*
X0465476Y0490897D01*
X0465510Y0490971D01*
X0465540Y0491047D01*
X0465567Y0491123D01*
X0465591Y0491201D01*
X0465610Y0491280D01*
X0465627Y0491359D01*
X0465640Y0491440D01*
X0465649Y0491521D01*
X0465653Y0491602D01*
X0465656Y0491683D01*
X0465096Y0490374D02*
X0461918Y0486635D01*
X0465656Y0486635D01*
D11*
X0415319Y0413438D02*
X0413161Y0406962D01*
X0417479Y0406962D02*
X0415319Y0413438D01*
X0416939Y0408581D02*
X0413701Y0408581D01*
X0420180Y0407322D02*
X0420180Y0406962D01*
X0420180Y0407322D02*
X0420540Y0407322D01*
X0420540Y0406962D01*
X0420180Y0406962D01*
X0424848Y0408401D02*
X0424848Y0413438D01*
X0424848Y0408401D02*
X0424846Y0408328D01*
X0424841Y0408255D01*
X0424831Y0408183D01*
X0424819Y0408111D01*
X0424801Y0408040D01*
X0424782Y0407969D01*
X0424758Y0407901D01*
X0424731Y0407834D01*
X0424701Y0407767D01*
X0424667Y0407703D01*
X0424630Y0407640D01*
X0424590Y0407579D01*
X0424547Y0407520D01*
X0424501Y0407464D01*
X0424452Y0407410D01*
X0424400Y0407358D01*
X0424346Y0407309D01*
X0424290Y0407263D01*
X0424231Y0407220D01*
X0424170Y0407180D01*
X0424107Y0407143D01*
X0424043Y0407109D01*
X0423975Y0407079D01*
X0423909Y0407052D01*
X0423840Y0407028D01*
X0423770Y0407008D01*
X0423699Y0406991D01*
X0423626Y0406978D01*
X0423555Y0406969D01*
X0423482Y0406963D01*
X0423409Y0406962D01*
X0422690Y0406962D01*
X0428905Y0406962D02*
X0431783Y0406962D01*
X0428905Y0406962D02*
X0428905Y0413438D01*
X0431783Y0413438D01*
X0431064Y0410560D02*
X0428905Y0410560D01*
X0435121Y0413438D02*
X0435121Y0406962D01*
X0438718Y0406962D02*
X0435121Y0413438D01*
X0438718Y0413438D02*
X0438718Y0406962D01*
X0442825Y0406962D02*
X0445703Y0406962D01*
X0442825Y0406962D02*
X0442825Y0413438D01*
X0445703Y0413438D01*
X0444984Y0410560D02*
X0442825Y0410560D01*
X0449119Y0413438D02*
X0449119Y0406962D01*
X0449119Y0413438D02*
X0450918Y0413438D01*
X0451001Y0413436D01*
X0451084Y0413430D01*
X0451167Y0413421D01*
X0451248Y0413407D01*
X0451330Y0413390D01*
X0451410Y0413369D01*
X0451490Y0413345D01*
X0451567Y0413317D01*
X0451645Y0413285D01*
X0451719Y0413249D01*
X0451793Y0413211D01*
X0451865Y0413168D01*
X0451935Y0413123D01*
X0452002Y0413075D01*
X0452067Y0413023D01*
X0452130Y0412968D01*
X0452190Y0412911D01*
X0452247Y0412851D01*
X0452301Y0412787D01*
X0452354Y0412723D01*
X0452402Y0412656D01*
X0452448Y0412586D01*
X0452490Y0412513D01*
X0452528Y0412441D01*
X0452564Y0412366D01*
X0452596Y0412289D01*
X0452624Y0412211D01*
X0452648Y0412131D01*
X0452669Y0412051D01*
X0452686Y0411970D01*
X0452699Y0411888D01*
X0452709Y0411805D01*
X0452715Y0411721D01*
X0452717Y0411639D01*
X0452715Y0411556D01*
X0452709Y0411473D01*
X0452699Y0411390D01*
X0452686Y0411308D01*
X0452669Y0411227D01*
X0452648Y0411147D01*
X0452624Y0411067D01*
X0452596Y0410989D01*
X0452564Y0410912D01*
X0452528Y0410837D01*
X0452490Y0410764D01*
X0452448Y0410692D01*
X0452402Y0410622D01*
X0452354Y0410555D01*
X0452301Y0410490D01*
X0452247Y0410426D01*
X0452190Y0410367D01*
X0452130Y0410310D01*
X0452067Y0410255D01*
X0452002Y0410203D01*
X0451935Y0410155D01*
X0451865Y0410109D01*
X0451793Y0410067D01*
X0451719Y0410028D01*
X0451645Y0409993D01*
X0451567Y0409961D01*
X0451490Y0409933D01*
X0451410Y0409909D01*
X0451330Y0409888D01*
X0451248Y0409871D01*
X0451167Y0409857D01*
X0451084Y0409848D01*
X0451001Y0409842D01*
X0450918Y0409840D01*
X0449119Y0409840D01*
X0451278Y0409840D02*
X0452717Y0406962D01*
X0457560Y0406962D02*
X0457560Y0413438D01*
X0455760Y0413438D02*
X0459359Y0413438D01*
X0464400Y0406962D02*
X0464475Y0406963D01*
X0464550Y0406970D01*
X0464625Y0406980D01*
X0464699Y0406993D01*
X0464771Y0407010D01*
X0464844Y0407032D01*
X0464916Y0407057D01*
X0464985Y0407085D01*
X0465053Y0407119D01*
X0465120Y0407155D01*
X0465184Y0407194D01*
X0465246Y0407237D01*
X0465306Y0407283D01*
X0465363Y0407331D01*
X0465418Y0407383D01*
X0465469Y0407438D01*
X0465518Y0407495D01*
X0465563Y0407555D01*
X0465607Y0407617D01*
X0465646Y0407682D01*
X0465682Y0407748D01*
X0465715Y0407816D01*
X0465743Y0407885D01*
X0465769Y0407956D01*
X0465790Y0408029D01*
X0465807Y0408102D01*
X0465820Y0408176D01*
X0465831Y0408251D01*
X0465837Y0408326D01*
X0465839Y0408401D01*
X0464400Y0406962D02*
X0464291Y0406963D01*
X0464182Y0406970D01*
X0464073Y0406980D01*
X0463965Y0406993D01*
X0463857Y0407010D01*
X0463750Y0407032D01*
X0463644Y0407057D01*
X0463539Y0407085D01*
X0463435Y0407119D01*
X0463332Y0407156D01*
X0463230Y0407196D01*
X0463131Y0407239D01*
X0463033Y0407287D01*
X0462936Y0407338D01*
X0462841Y0407391D01*
X0462749Y0407450D01*
X0462658Y0407511D01*
X0462570Y0407575D01*
X0462484Y0407642D01*
X0462400Y0407712D01*
X0462320Y0407785D01*
X0462241Y0407861D01*
X0462421Y0411999D02*
X0462423Y0412074D01*
X0462429Y0412149D01*
X0462438Y0412224D01*
X0462451Y0412298D01*
X0462470Y0412371D01*
X0462491Y0412444D01*
X0462517Y0412515D01*
X0462545Y0412584D01*
X0462578Y0412652D01*
X0462614Y0412719D01*
X0462652Y0412783D01*
X0462695Y0412845D01*
X0462742Y0412905D01*
X0462791Y0412962D01*
X0462842Y0413016D01*
X0462896Y0413068D01*
X0462954Y0413117D01*
X0463014Y0413163D01*
X0463076Y0413206D01*
X0463140Y0413245D01*
X0463207Y0413281D01*
X0463275Y0413314D01*
X0463344Y0413342D01*
X0463414Y0413367D01*
X0463488Y0413389D01*
X0463561Y0413407D01*
X0463635Y0413420D01*
X0463710Y0413430D01*
X0463785Y0413436D01*
X0463860Y0413438D01*
X0463962Y0413436D01*
X0464064Y0413430D01*
X0464166Y0413421D01*
X0464266Y0413407D01*
X0464368Y0413390D01*
X0464467Y0413369D01*
X0464567Y0413344D01*
X0464664Y0413315D01*
X0464762Y0413283D01*
X0464857Y0413247D01*
X0464951Y0413207D01*
X0465044Y0413164D01*
X0465135Y0413118D01*
X0465224Y0413068D01*
X0465311Y0413015D01*
X0465396Y0412958D01*
X0465479Y0412898D01*
X0463140Y0410739D02*
X0463075Y0410780D01*
X0463013Y0410823D01*
X0462953Y0410870D01*
X0462896Y0410920D01*
X0462841Y0410972D01*
X0462789Y0411028D01*
X0462740Y0411086D01*
X0462695Y0411146D01*
X0462652Y0411209D01*
X0462613Y0411274D01*
X0462577Y0411340D01*
X0462544Y0411409D01*
X0462515Y0411479D01*
X0462490Y0411551D01*
X0462468Y0411624D01*
X0462451Y0411698D01*
X0462438Y0411772D01*
X0462428Y0411847D01*
X0462421Y0411923D01*
X0462420Y0411999D01*
X0465119Y0409661D02*
X0465184Y0409620D01*
X0465246Y0409577D01*
X0465306Y0409530D01*
X0465363Y0409480D01*
X0465418Y0409428D01*
X0465469Y0409372D01*
X0465519Y0409313D01*
X0465563Y0409254D01*
X0465607Y0409191D01*
X0465646Y0409126D01*
X0465682Y0409060D01*
X0465715Y0408991D01*
X0465744Y0408921D01*
X0465769Y0408849D01*
X0465790Y0408776D01*
X0465807Y0408701D01*
X0465820Y0408628D01*
X0465831Y0408553D01*
X0465837Y0408477D01*
X0465839Y0408401D01*
X0465119Y0409660D02*
X0463140Y0410740D01*
X0505401Y0411539D02*
X0505401Y0408661D01*
X0505401Y0411539D02*
X0505403Y0411622D01*
X0505409Y0411704D01*
X0505418Y0411788D01*
X0505432Y0411870D01*
X0505449Y0411950D01*
X0505469Y0412031D01*
X0505494Y0412111D01*
X0505522Y0412189D01*
X0505554Y0412266D01*
X0505590Y0412341D01*
X0505627Y0412414D01*
X0505670Y0412486D01*
X0505716Y0412556D01*
X0505764Y0412623D01*
X0505816Y0412688D01*
X0505871Y0412751D01*
X0505927Y0412811D01*
X0505988Y0412868D01*
X0506051Y0412923D01*
X0506115Y0412975D01*
X0506183Y0413023D01*
X0506252Y0413069D01*
X0506325Y0413111D01*
X0506398Y0413149D01*
X0506473Y0413185D01*
X0506550Y0413217D01*
X0506628Y0413245D01*
X0506708Y0413269D01*
X0506788Y0413290D01*
X0506869Y0413307D01*
X0506950Y0413320D01*
X0507034Y0413330D01*
X0507117Y0413335D01*
X0507200Y0413337D01*
X0507283Y0413335D01*
X0507365Y0413330D01*
X0507449Y0413320D01*
X0507531Y0413307D01*
X0507612Y0413290D01*
X0507692Y0413269D01*
X0507772Y0413245D01*
X0507849Y0413217D01*
X0507926Y0413185D01*
X0508002Y0413149D01*
X0508075Y0413111D01*
X0508147Y0413069D01*
X0508217Y0413023D01*
X0508284Y0412975D01*
X0508349Y0412923D01*
X0508412Y0412868D01*
X0508472Y0412811D01*
X0508529Y0412751D01*
X0508584Y0412688D01*
X0508636Y0412623D01*
X0508684Y0412556D01*
X0508730Y0412486D01*
X0508772Y0412414D01*
X0508810Y0412341D01*
X0508846Y0412266D01*
X0508878Y0412189D01*
X0508906Y0412111D01*
X0508930Y0412031D01*
X0508951Y0411950D01*
X0508968Y0411870D01*
X0508982Y0411788D01*
X0508991Y0411704D01*
X0508996Y0411622D01*
X0508999Y0411539D01*
X0508999Y0408661D01*
X0508996Y0408578D01*
X0508991Y0408495D01*
X0508982Y0408412D01*
X0508968Y0408330D01*
X0508951Y0408249D01*
X0508930Y0408168D01*
X0508906Y0408089D01*
X0508878Y0408011D01*
X0508846Y0407934D01*
X0508810Y0407859D01*
X0508772Y0407786D01*
X0508730Y0407714D01*
X0508684Y0407644D01*
X0508636Y0407577D01*
X0508584Y0407512D01*
X0508529Y0407449D01*
X0508472Y0407389D01*
X0508412Y0407331D01*
X0508349Y0407277D01*
X0508284Y0407224D01*
X0508217Y0407177D01*
X0508147Y0407131D01*
X0508075Y0407089D01*
X0508002Y0407051D01*
X0507926Y0407015D01*
X0507849Y0406983D01*
X0507772Y0406955D01*
X0507692Y0406931D01*
X0507612Y0406910D01*
X0507531Y0406893D01*
X0507449Y0406879D01*
X0507365Y0406870D01*
X0507283Y0406864D01*
X0507200Y0406862D01*
X0507117Y0406864D01*
X0507034Y0406870D01*
X0506950Y0406879D01*
X0506869Y0406893D01*
X0506788Y0406910D01*
X0506708Y0406931D01*
X0506628Y0406955D01*
X0506550Y0406983D01*
X0506473Y0407015D01*
X0506398Y0407051D01*
X0506325Y0407089D01*
X0506252Y0407131D01*
X0506183Y0407177D01*
X0506115Y0407224D01*
X0506051Y0407277D01*
X0505988Y0407331D01*
X0505927Y0407389D01*
X0505871Y0407449D01*
X0505816Y0407512D01*
X0505764Y0407577D01*
X0505716Y0407644D01*
X0505670Y0407714D01*
X0505627Y0407786D01*
X0505590Y0407859D01*
X0505554Y0407934D01*
X0505522Y0408011D01*
X0505494Y0408089D01*
X0505469Y0408168D01*
X0505449Y0408249D01*
X0505432Y0408330D01*
X0505418Y0408412D01*
X0505409Y0408495D01*
X0505403Y0408578D01*
X0505401Y0408661D01*
X0513574Y0406862D02*
X0515014Y0406862D01*
X0513574Y0406862D02*
X0513511Y0406864D01*
X0513449Y0406869D01*
X0513387Y0406878D01*
X0513324Y0406891D01*
X0513264Y0406907D01*
X0513204Y0406927D01*
X0513147Y0406950D01*
X0513090Y0406977D01*
X0513035Y0407007D01*
X0512981Y0407040D01*
X0512930Y0407076D01*
X0512879Y0407114D01*
X0512834Y0407156D01*
X0512789Y0407201D01*
X0512746Y0407247D01*
X0512709Y0407297D01*
X0512673Y0407348D01*
X0512639Y0407402D01*
X0512609Y0407457D01*
X0512583Y0407513D01*
X0512560Y0407572D01*
X0512540Y0407632D01*
X0512524Y0407692D01*
X0512511Y0407754D01*
X0512502Y0407816D01*
X0512497Y0407878D01*
X0512495Y0407941D01*
X0512495Y0410100D01*
X0512497Y0410163D01*
X0512502Y0410225D01*
X0512511Y0410287D01*
X0512524Y0410349D01*
X0512540Y0410409D01*
X0512560Y0410469D01*
X0512583Y0410527D01*
X0512609Y0410584D01*
X0512639Y0410640D01*
X0512673Y0410693D01*
X0512709Y0410744D01*
X0512746Y0410794D01*
X0512789Y0410840D01*
X0512834Y0410885D01*
X0512879Y0410927D01*
X0512930Y0410965D01*
X0512981Y0411001D01*
X0513035Y0411034D01*
X0513090Y0411064D01*
X0513147Y0411091D01*
X0513204Y0411114D01*
X0513264Y0411134D01*
X0513324Y0411150D01*
X0513387Y0411163D01*
X0513449Y0411171D01*
X0513511Y0411177D01*
X0513574Y0411179D01*
X0515014Y0411179D01*
X0517301Y0411179D02*
X0519461Y0411179D01*
X0518022Y0413337D02*
X0518022Y0407941D01*
X0518024Y0407878D01*
X0518029Y0407816D01*
X0518038Y0407754D01*
X0518050Y0407692D01*
X0518067Y0407632D01*
X0518087Y0407572D01*
X0518110Y0407513D01*
X0518137Y0407457D01*
X0518167Y0407401D01*
X0518200Y0407348D01*
X0518236Y0407297D01*
X0518274Y0407247D01*
X0518316Y0407201D01*
X0518361Y0407156D01*
X0518407Y0407114D01*
X0518457Y0407075D01*
X0518508Y0407039D01*
X0518562Y0407007D01*
X0518617Y0406977D01*
X0518674Y0406950D01*
X0518732Y0406927D01*
X0518792Y0406907D01*
X0518852Y0406891D01*
X0518914Y0406878D01*
X0518975Y0406869D01*
X0519038Y0406864D01*
X0519101Y0406862D01*
X0519461Y0406862D01*
X0522140Y0406862D02*
X0522140Y0407222D01*
X0522500Y0407222D01*
X0522500Y0406862D01*
X0522140Y0406862D01*
X0531380Y0413337D02*
X0531459Y0413335D01*
X0531539Y0413330D01*
X0531618Y0413320D01*
X0531696Y0413307D01*
X0531773Y0413289D01*
X0531850Y0413268D01*
X0531925Y0413243D01*
X0532000Y0413215D01*
X0532072Y0413183D01*
X0532143Y0413147D01*
X0532212Y0413108D01*
X0532279Y0413065D01*
X0532344Y0413019D01*
X0532407Y0412971D01*
X0532467Y0412919D01*
X0532525Y0412864D01*
X0532580Y0412806D01*
X0532632Y0412746D01*
X0532680Y0412682D01*
X0532726Y0412618D01*
X0532769Y0412551D01*
X0532808Y0412482D01*
X0532844Y0412411D01*
X0532876Y0412339D01*
X0532904Y0412264D01*
X0532929Y0412189D01*
X0532950Y0412112D01*
X0532968Y0412035D01*
X0532981Y0411957D01*
X0532991Y0411878D01*
X0532997Y0411798D01*
X0532999Y0411719D01*
X0531380Y0413337D02*
X0531290Y0413335D01*
X0531200Y0413330D01*
X0531110Y0413320D01*
X0531021Y0413307D01*
X0530933Y0413289D01*
X0530845Y0413268D01*
X0530758Y0413243D01*
X0530673Y0413213D01*
X0530589Y0413182D01*
X0530506Y0413145D01*
X0530425Y0413106D01*
X0530346Y0413063D01*
X0530269Y0413016D01*
X0530193Y0412966D01*
X0530120Y0412913D01*
X0530050Y0412857D01*
X0529982Y0412798D01*
X0529916Y0412736D01*
X0529854Y0412671D01*
X0529794Y0412603D01*
X0529737Y0412533D01*
X0529683Y0412461D01*
X0529633Y0412386D01*
X0529585Y0412310D01*
X0529541Y0412231D01*
X0529501Y0412150D01*
X0529464Y0412068D01*
X0529431Y0411984D01*
X0529401Y0411899D01*
X0532459Y0410460D02*
X0532515Y0410515D01*
X0532568Y0410573D01*
X0532618Y0410633D01*
X0532665Y0410695D01*
X0532710Y0410759D01*
X0532752Y0410825D01*
X0532790Y0410893D01*
X0532826Y0410963D01*
X0532858Y0411034D01*
X0532888Y0411107D01*
X0532913Y0411180D01*
X0532936Y0411255D01*
X0532955Y0411331D01*
X0532971Y0411408D01*
X0532983Y0411485D01*
X0532992Y0411563D01*
X0532997Y0411641D01*
X0532999Y0411719D01*
X0532459Y0410460D02*
X0529401Y0406862D01*
X0532999Y0406862D01*
X0536601Y0410100D02*
X0536603Y0410242D01*
X0536609Y0410385D01*
X0536618Y0410527D01*
X0536631Y0410668D01*
X0536648Y0410810D01*
X0536669Y0410951D01*
X0536694Y0411091D01*
X0536722Y0411231D01*
X0536754Y0411369D01*
X0536790Y0411507D01*
X0536829Y0411644D01*
X0536872Y0411780D01*
X0536919Y0411914D01*
X0536969Y0412048D01*
X0537023Y0412179D01*
X0537080Y0412310D01*
X0537141Y0412438D01*
X0537166Y0412506D01*
X0537195Y0412572D01*
X0537227Y0412635D01*
X0537263Y0412698D01*
X0537301Y0412757D01*
X0537344Y0412817D01*
X0537389Y0412872D01*
X0537437Y0412926D01*
X0537488Y0412976D01*
X0537541Y0413024D01*
X0537597Y0413069D01*
X0537656Y0413111D01*
X0537716Y0413149D01*
X0537779Y0413183D01*
X0537843Y0413216D01*
X0537909Y0413244D01*
X0537977Y0413269D01*
X0538045Y0413290D01*
X0538115Y0413307D01*
X0538186Y0413320D01*
X0538257Y0413330D01*
X0538328Y0413335D01*
X0538400Y0413337D01*
X0538472Y0413335D01*
X0538543Y0413330D01*
X0538614Y0413320D01*
X0538685Y0413307D01*
X0538755Y0413290D01*
X0538823Y0413269D01*
X0538891Y0413244D01*
X0538957Y0413216D01*
X0539021Y0413183D01*
X0539084Y0413149D01*
X0539144Y0413111D01*
X0539203Y0413069D01*
X0539259Y0413024D01*
X0539312Y0412976D01*
X0539363Y0412926D01*
X0539411Y0412872D01*
X0539456Y0412817D01*
X0539499Y0412757D01*
X0539537Y0412698D01*
X0539573Y0412635D01*
X0539605Y0412572D01*
X0539634Y0412506D01*
X0539659Y0412438D01*
X0539720Y0412310D01*
X0539777Y0412179D01*
X0539831Y0412048D01*
X0539881Y0411914D01*
X0539928Y0411780D01*
X0539971Y0411644D01*
X0540010Y0411507D01*
X0540046Y0411369D01*
X0540078Y0411231D01*
X0540106Y0411091D01*
X0540131Y0410951D01*
X0540152Y0410810D01*
X0540169Y0410668D01*
X0540182Y0410527D01*
X0540191Y0410385D01*
X0540197Y0410242D01*
X0540199Y0410100D01*
X0536601Y0410100D02*
X0536603Y0409958D01*
X0536609Y0409814D01*
X0536618Y0409673D01*
X0536631Y0409531D01*
X0536648Y0409390D01*
X0536669Y0409249D01*
X0536694Y0409109D01*
X0536722Y0408969D01*
X0536754Y0408831D01*
X0536790Y0408693D01*
X0536829Y0408556D01*
X0536872Y0408420D01*
X0536919Y0408286D01*
X0536969Y0408152D01*
X0537023Y0408021D01*
X0537080Y0407890D01*
X0537141Y0407761D01*
X0537166Y0407694D01*
X0537195Y0407628D01*
X0537227Y0407564D01*
X0537263Y0407502D01*
X0537301Y0407441D01*
X0537344Y0407383D01*
X0537389Y0407328D01*
X0537437Y0407274D01*
X0537488Y0407224D01*
X0537541Y0407176D01*
X0537597Y0407131D01*
X0537656Y0407089D01*
X0537716Y0407051D01*
X0537779Y0407016D01*
X0537843Y0406984D01*
X0537909Y0406956D01*
X0537977Y0406931D01*
X0538045Y0406910D01*
X0538115Y0406893D01*
X0538186Y0406879D01*
X0538257Y0406870D01*
X0538328Y0406864D01*
X0538400Y0406862D01*
X0539659Y0407761D02*
X0539720Y0407890D01*
X0539777Y0408021D01*
X0539831Y0408152D01*
X0539881Y0408286D01*
X0539928Y0408420D01*
X0539971Y0408556D01*
X0540010Y0408693D01*
X0540046Y0408831D01*
X0540078Y0408969D01*
X0540106Y0409109D01*
X0540131Y0409249D01*
X0540152Y0409390D01*
X0540169Y0409531D01*
X0540182Y0409673D01*
X0540191Y0409814D01*
X0540197Y0409958D01*
X0540199Y0410100D01*
X0539659Y0407761D02*
X0539634Y0407694D01*
X0539605Y0407628D01*
X0539573Y0407564D01*
X0539537Y0407502D01*
X0539499Y0407442D01*
X0539456Y0407383D01*
X0539411Y0407328D01*
X0539363Y0407274D01*
X0539312Y0407224D01*
X0539259Y0407176D01*
X0539203Y0407131D01*
X0539144Y0407089D01*
X0539084Y0407051D01*
X0539021Y0407016D01*
X0538957Y0406984D01*
X0538891Y0406956D01*
X0538823Y0406931D01*
X0538755Y0406910D01*
X0538685Y0406893D01*
X0538614Y0406879D01*
X0538543Y0406870D01*
X0538472Y0406864D01*
X0538400Y0406862D01*
X0536961Y0408301D02*
X0539839Y0411899D01*
X0545780Y0413337D02*
X0545859Y0413335D01*
X0545939Y0413330D01*
X0546018Y0413320D01*
X0546096Y0413307D01*
X0546173Y0413289D01*
X0546250Y0413268D01*
X0546325Y0413243D01*
X0546400Y0413215D01*
X0546472Y0413183D01*
X0546543Y0413147D01*
X0546612Y0413108D01*
X0546679Y0413065D01*
X0546744Y0413019D01*
X0546807Y0412971D01*
X0546867Y0412919D01*
X0546925Y0412864D01*
X0546980Y0412806D01*
X0547032Y0412746D01*
X0547080Y0412682D01*
X0547126Y0412618D01*
X0547169Y0412551D01*
X0547208Y0412482D01*
X0547244Y0412411D01*
X0547276Y0412339D01*
X0547304Y0412264D01*
X0547329Y0412189D01*
X0547350Y0412112D01*
X0547368Y0412035D01*
X0547381Y0411957D01*
X0547391Y0411878D01*
X0547397Y0411798D01*
X0547399Y0411719D01*
X0545780Y0413337D02*
X0545690Y0413335D01*
X0545600Y0413330D01*
X0545510Y0413320D01*
X0545421Y0413307D01*
X0545333Y0413289D01*
X0545245Y0413268D01*
X0545158Y0413243D01*
X0545073Y0413213D01*
X0544989Y0413182D01*
X0544906Y0413145D01*
X0544825Y0413106D01*
X0544746Y0413063D01*
X0544669Y0413016D01*
X0544593Y0412966D01*
X0544520Y0412913D01*
X0544450Y0412857D01*
X0544382Y0412798D01*
X0544316Y0412736D01*
X0544254Y0412671D01*
X0544194Y0412603D01*
X0544137Y0412533D01*
X0544083Y0412461D01*
X0544033Y0412386D01*
X0543985Y0412310D01*
X0543941Y0412231D01*
X0543901Y0412150D01*
X0543864Y0412068D01*
X0543831Y0411984D01*
X0543801Y0411899D01*
X0546859Y0410460D02*
X0546915Y0410515D01*
X0546968Y0410573D01*
X0547018Y0410633D01*
X0547065Y0410695D01*
X0547110Y0410759D01*
X0547152Y0410825D01*
X0547190Y0410893D01*
X0547226Y0410963D01*
X0547258Y0411034D01*
X0547288Y0411107D01*
X0547313Y0411180D01*
X0547336Y0411255D01*
X0547355Y0411331D01*
X0547371Y0411408D01*
X0547383Y0411485D01*
X0547392Y0411563D01*
X0547397Y0411641D01*
X0547399Y0411719D01*
X0546859Y0410460D02*
X0543801Y0406862D01*
X0547399Y0406862D01*
X0551001Y0411899D02*
X0552800Y0413337D01*
X0552800Y0406862D01*
X0551001Y0406862D02*
X0554599Y0406862D01*
D12*
X0434500Y0576000D02*
X0409500Y0576000D01*
X0409500Y0424000D01*
X0434500Y0424000D01*
X0434500Y0445000D01*
X0434500Y0555000D01*
X0434500Y0576000D01*
X0434500Y0555000D02*
X0422000Y0555000D01*
X0422000Y0445000D01*
X0434500Y0445000D01*
D10*
X0500000Y0495000D02*
X0500000Y0525000D01*
X0470000Y0525000D01*
X0470000Y0495000D01*
X0500000Y0495000D01*
D13*
X0469290Y0538275D02*
X0469288Y0538344D01*
X0469283Y0538412D01*
X0469273Y0538480D01*
X0469260Y0538548D01*
X0469244Y0538615D01*
X0469223Y0538681D01*
X0469200Y0538745D01*
X0469173Y0538808D01*
X0469142Y0538870D01*
X0469108Y0538930D01*
X0469071Y0538988D01*
X0469031Y0539044D01*
X0468988Y0539097D01*
X0468942Y0539148D01*
X0468893Y0539197D01*
X0468842Y0539243D01*
X0468789Y0539286D01*
X0468733Y0539326D01*
X0468675Y0539363D01*
X0468615Y0539397D01*
X0468553Y0539428D01*
X0468490Y0539455D01*
X0468426Y0539479D01*
X0468360Y0539499D01*
X0468293Y0539515D01*
X0468225Y0539528D01*
X0468157Y0539538D01*
X0468089Y0539543D01*
X0468020Y0539545D01*
X0469290Y0538275D02*
X0469290Y0532925D01*
X0469288Y0532856D01*
X0469283Y0532788D01*
X0469273Y0532720D01*
X0469260Y0532652D01*
X0469244Y0532585D01*
X0469223Y0532519D01*
X0469200Y0532455D01*
X0469173Y0532392D01*
X0469142Y0532330D01*
X0469108Y0532270D01*
X0469071Y0532212D01*
X0469031Y0532156D01*
X0468988Y0532103D01*
X0468942Y0532052D01*
X0468893Y0532003D01*
X0468842Y0531957D01*
X0468789Y0531914D01*
X0468733Y0531874D01*
X0468675Y0531837D01*
X0468615Y0531803D01*
X0468553Y0531772D01*
X0468490Y0531745D01*
X0468426Y0531721D01*
X0468360Y0531701D01*
X0468293Y0531685D01*
X0468225Y0531672D01*
X0468157Y0531662D01*
X0468089Y0531657D01*
X0468020Y0531655D01*
X0453780Y0531655D01*
X0453711Y0531657D01*
X0453643Y0531662D01*
X0453575Y0531672D01*
X0453507Y0531685D01*
X0453440Y0531701D01*
X0453374Y0531721D01*
X0453310Y0531745D01*
X0453247Y0531772D01*
X0453185Y0531803D01*
X0453125Y0531837D01*
X0453067Y0531874D01*
X0453011Y0531914D01*
X0452958Y0531957D01*
X0452907Y0532003D01*
X0452858Y0532052D01*
X0452812Y0532103D01*
X0452769Y0532156D01*
X0452729Y0532212D01*
X0452692Y0532270D01*
X0452658Y0532330D01*
X0452627Y0532392D01*
X0452600Y0532455D01*
X0452575Y0532519D01*
X0452556Y0532585D01*
X0452540Y0532652D01*
X0452527Y0532720D01*
X0452517Y0532788D01*
X0452512Y0532856D01*
X0452510Y0532925D01*
X0452510Y0538275D01*
X0452512Y0538344D01*
X0452517Y0538412D01*
X0452527Y0538480D01*
X0452540Y0538548D01*
X0452556Y0538615D01*
X0452575Y0538681D01*
X0452600Y0538745D01*
X0452627Y0538808D01*
X0452658Y0538870D01*
X0452692Y0538930D01*
X0452729Y0538988D01*
X0452769Y0539044D01*
X0452812Y0539097D01*
X0452858Y0539148D01*
X0452907Y0539197D01*
X0452958Y0539243D01*
X0453011Y0539286D01*
X0453067Y0539326D01*
X0453125Y0539363D01*
X0453185Y0539397D01*
X0453247Y0539428D01*
X0453310Y0539455D01*
X0453374Y0539479D01*
X0453440Y0539499D01*
X0453507Y0539515D01*
X0453575Y0539528D01*
X0453643Y0539538D01*
X0453711Y0539543D01*
X0453780Y0539545D01*
X0468020Y0539545D01*
X0506820Y0475445D02*
X0506889Y0475443D01*
X0506957Y0475438D01*
X0507025Y0475428D01*
X0507093Y0475415D01*
X0507160Y0475399D01*
X0507226Y0475379D01*
X0507290Y0475355D01*
X0507353Y0475328D01*
X0507415Y0475297D01*
X0507475Y0475263D01*
X0507532Y0475225D01*
X0507588Y0475186D01*
X0507642Y0475143D01*
X0507693Y0475097D01*
X0507742Y0475048D01*
X0507788Y0474997D01*
X0507831Y0474944D01*
X0507871Y0474888D01*
X0507908Y0474829D01*
X0507942Y0474770D01*
X0507973Y0474707D01*
X0508000Y0474645D01*
X0508024Y0474581D01*
X0508044Y0474515D01*
X0508060Y0474448D01*
X0508073Y0474380D01*
X0508083Y0474311D01*
X0508088Y0474244D01*
X0508090Y0474175D01*
X0508090Y0468825D01*
X0508088Y0468756D01*
X0508083Y0468688D01*
X0508073Y0468620D01*
X0508060Y0468551D01*
X0508044Y0468485D01*
X0508024Y0468419D01*
X0508000Y0468354D01*
X0507973Y0468292D01*
X0507942Y0468230D01*
X0507908Y0468170D01*
X0507871Y0468112D01*
X0507831Y0468056D01*
X0507788Y0468003D01*
X0507742Y0467952D01*
X0507693Y0467903D01*
X0507642Y0467857D01*
X0507588Y0467814D01*
X0507532Y0467774D01*
X0507475Y0467737D01*
X0507415Y0467703D01*
X0507353Y0467672D01*
X0507290Y0467645D01*
X0507226Y0467621D01*
X0507160Y0467601D01*
X0507093Y0467585D01*
X0507025Y0467572D01*
X0506957Y0467562D01*
X0506889Y0467557D01*
X0506820Y0467555D01*
X0492579Y0467555D01*
X0492511Y0467557D01*
X0492443Y0467562D01*
X0492375Y0467572D01*
X0492307Y0467585D01*
X0492240Y0467601D01*
X0492174Y0467621D01*
X0492110Y0467645D01*
X0492047Y0467672D01*
X0491984Y0467703D01*
X0491925Y0467737D01*
X0491867Y0467774D01*
X0491811Y0467814D01*
X0491758Y0467857D01*
X0491706Y0467903D01*
X0491658Y0467952D01*
X0491612Y0468003D01*
X0491569Y0468056D01*
X0491529Y0468112D01*
X0491492Y0468170D01*
X0491458Y0468230D01*
X0491427Y0468292D01*
X0491400Y0468354D01*
X0491376Y0468419D01*
X0491355Y0468485D01*
X0491340Y0468551D01*
X0491327Y0468620D01*
X0491317Y0468688D01*
X0491312Y0468756D01*
X0491310Y0468825D01*
X0491310Y0474175D01*
X0491312Y0474244D01*
X0491317Y0474311D01*
X0491327Y0474380D01*
X0491340Y0474448D01*
X0491355Y0474515D01*
X0491376Y0474581D01*
X0491400Y0474645D01*
X0491427Y0474707D01*
X0491458Y0474770D01*
X0491492Y0474829D01*
X0491529Y0474888D01*
X0491569Y0474944D01*
X0491612Y0474997D01*
X0491658Y0475048D01*
X0491706Y0475097D01*
X0491758Y0475143D01*
X0491811Y0475186D01*
X0491867Y0475225D01*
X0491925Y0475263D01*
X0491984Y0475297D01*
X0492047Y0475328D01*
X0492110Y0475355D01*
X0492174Y0475379D01*
X0492240Y0475399D01*
X0492307Y0475415D01*
X0492375Y0475428D01*
X0492443Y0475438D01*
X0492511Y0475443D01*
X0492579Y0475445D01*
X0506820Y0475445D01*
D12*
X0535500Y0424000D02*
X0560500Y0424000D01*
X0560500Y0576000D01*
X0535500Y0576000D01*
X0535500Y0555000D01*
X0535500Y0445000D01*
X0535500Y0424000D01*
X0535500Y0445000D02*
X0548000Y0445000D01*
X0548000Y0555000D01*
X0535500Y0555000D01*
D14*
X0465466Y0522180D02*
X0454734Y0522180D01*
X0452694Y0516060D02*
X0452695Y0515971D01*
X0452702Y0515882D01*
X0452710Y0515794D01*
X0452725Y0515706D01*
X0452742Y0515618D01*
X0452764Y0515532D01*
X0452788Y0515447D01*
X0452817Y0515362D01*
X0452849Y0515279D01*
X0452885Y0515198D01*
X0452924Y0515118D01*
X0452967Y0515040D01*
X0453013Y0514964D01*
X0453063Y0514890D01*
X0453116Y0514818D01*
X0453170Y0514749D01*
X0453230Y0514681D01*
X0453292Y0514617D01*
X0453356Y0514556D01*
X0453423Y0514497D01*
X0453491Y0514442D01*
X0453564Y0514389D01*
X0453638Y0514339D01*
X0453714Y0514293D01*
X0453792Y0514250D01*
X0453872Y0514210D01*
X0453953Y0514175D01*
X0454036Y0514143D01*
X0454121Y0514114D01*
X0454206Y0514090D01*
X0454292Y0514068D01*
X0454380Y0514051D01*
X0454467Y0514037D01*
X0454555Y0514028D01*
X0454645Y0514022D01*
X0454734Y0514020D01*
X0465466Y0514020D02*
X0465555Y0514022D01*
X0465644Y0514028D01*
X0465732Y0514037D01*
X0465820Y0514051D01*
X0465908Y0514068D01*
X0465994Y0514090D01*
X0466079Y0514114D01*
X0466164Y0514143D01*
X0466247Y0514175D01*
X0466328Y0514210D01*
X0466408Y0514250D01*
X0466486Y0514293D01*
X0466562Y0514339D01*
X0466636Y0514389D01*
X0466708Y0514442D01*
X0466777Y0514497D01*
X0466843Y0514556D01*
X0466908Y0514617D01*
X0466970Y0514681D01*
X0467029Y0514749D01*
X0467084Y0514818D01*
X0467137Y0514890D01*
X0467187Y0514964D01*
X0467233Y0515040D01*
X0467276Y0515118D01*
X0467314Y0515198D01*
X0467351Y0515279D01*
X0467383Y0515362D01*
X0467412Y0515447D01*
X0467436Y0515532D01*
X0467458Y0515618D01*
X0467475Y0515706D01*
X0467489Y0515794D01*
X0467498Y0515882D01*
X0467504Y0515971D01*
X0467506Y0516060D01*
X0467506Y0520139D02*
X0467504Y0520229D01*
X0467498Y0520318D01*
X0467489Y0520406D01*
X0467475Y0520494D01*
X0467458Y0520582D01*
X0467436Y0520668D01*
X0467412Y0520753D01*
X0467383Y0520837D01*
X0467351Y0520921D01*
X0467314Y0521002D01*
X0467276Y0521081D01*
X0467233Y0521160D01*
X0467187Y0521235D01*
X0467137Y0521310D01*
X0467084Y0521382D01*
X0467029Y0521451D01*
X0466970Y0521518D01*
X0466908Y0521582D01*
X0466843Y0521644D01*
X0466777Y0521703D01*
X0466708Y0521758D01*
X0466636Y0521811D01*
X0466562Y0521860D01*
X0466486Y0521907D01*
X0466408Y0521950D01*
X0466328Y0521989D01*
X0466247Y0522025D01*
X0466164Y0522057D01*
X0466079Y0522086D01*
X0465994Y0522110D01*
X0465908Y0522132D01*
X0465820Y0522149D01*
X0465732Y0522163D01*
X0465644Y0522172D01*
X0465555Y0522177D01*
X0465466Y0522180D01*
X0454734Y0522180D02*
X0454645Y0522177D01*
X0454555Y0522172D01*
X0454467Y0522163D01*
X0454380Y0522149D01*
X0454292Y0522132D01*
X0454206Y0522110D01*
X0454121Y0522086D01*
X0454036Y0522057D01*
X0453953Y0522025D01*
X0453872Y0521989D01*
X0453792Y0521950D01*
X0453714Y0521907D01*
X0453638Y0521860D01*
X0453564Y0521811D01*
X0453491Y0521758D01*
X0453423Y0521703D01*
X0453356Y0521644D01*
X0453292Y0521582D01*
X0453230Y0521518D01*
X0453170Y0521451D01*
X0453116Y0521382D01*
X0453063Y0521310D01*
X0453013Y0521235D01*
X0452967Y0521160D01*
X0452924Y0521081D01*
X0452885Y0521002D01*
X0452849Y0520921D01*
X0452817Y0520837D01*
X0452788Y0520753D01*
X0452764Y0520668D01*
X0452742Y0520582D01*
X0452725Y0520494D01*
X0452710Y0520406D01*
X0452702Y0520318D01*
X0452695Y0520229D01*
X0452694Y0520139D01*
X0452694Y0516060D01*
X0467506Y0516060D02*
X0467506Y0520139D01*
X0465466Y0514020D02*
X0454734Y0514020D01*
X0454834Y0503580D02*
X0465566Y0503580D01*
X0454834Y0495420D02*
X0454745Y0495422D01*
X0454656Y0495428D01*
X0454568Y0495437D01*
X0454480Y0495451D01*
X0454392Y0495468D01*
X0454306Y0495490D01*
X0454221Y0495514D01*
X0454136Y0495543D01*
X0454052Y0495575D01*
X0453972Y0495610D01*
X0453892Y0495650D01*
X0453814Y0495693D01*
X0453738Y0495739D01*
X0453664Y0495789D01*
X0453592Y0495841D01*
X0453523Y0495897D01*
X0453456Y0495956D01*
X0453392Y0496018D01*
X0453330Y0496081D01*
X0453271Y0496149D01*
X0453216Y0496218D01*
X0453163Y0496290D01*
X0453113Y0496364D01*
X0453067Y0496440D01*
X0453024Y0496518D01*
X0452985Y0496598D01*
X0452949Y0496679D01*
X0452917Y0496762D01*
X0452888Y0496847D01*
X0452864Y0496932D01*
X0452842Y0497018D01*
X0452825Y0497106D01*
X0452811Y0497194D01*
X0452802Y0497282D01*
X0452796Y0497371D01*
X0452794Y0497460D01*
X0465566Y0495420D02*
X0465655Y0495422D01*
X0465744Y0495428D01*
X0465832Y0495437D01*
X0465920Y0495451D01*
X0466008Y0495468D01*
X0466094Y0495490D01*
X0466179Y0495514D01*
X0466264Y0495543D01*
X0466347Y0495575D01*
X0466428Y0495610D01*
X0466508Y0495650D01*
X0466586Y0495693D01*
X0466662Y0495739D01*
X0466736Y0495789D01*
X0466808Y0495841D01*
X0466877Y0495897D01*
X0466944Y0495956D01*
X0467008Y0496018D01*
X0467070Y0496081D01*
X0467129Y0496149D01*
X0467184Y0496218D01*
X0467237Y0496290D01*
X0467287Y0496364D01*
X0467333Y0496440D01*
X0467376Y0496518D01*
X0467415Y0496598D01*
X0467451Y0496679D01*
X0467483Y0496762D01*
X0467512Y0496847D01*
X0467536Y0496932D01*
X0467558Y0497018D01*
X0467575Y0497106D01*
X0467588Y0497194D01*
X0467598Y0497282D01*
X0467603Y0497371D01*
X0467605Y0497460D01*
X0467605Y0501539D02*
X0467603Y0501629D01*
X0467598Y0501718D01*
X0467588Y0501806D01*
X0467575Y0501894D01*
X0467558Y0501982D01*
X0467536Y0502068D01*
X0467512Y0502153D01*
X0467483Y0502238D01*
X0467451Y0502321D01*
X0467415Y0502402D01*
X0467376Y0502482D01*
X0467333Y0502560D01*
X0467287Y0502635D01*
X0467237Y0502710D01*
X0467184Y0502782D01*
X0467129Y0502851D01*
X0467070Y0502918D01*
X0467008Y0502982D01*
X0466944Y0503044D01*
X0466877Y0503103D01*
X0466808Y0503157D01*
X0466736Y0503211D01*
X0466662Y0503260D01*
X0466586Y0503307D01*
X0466508Y0503350D01*
X0466428Y0503389D01*
X0466347Y0503425D01*
X0466264Y0503457D01*
X0466179Y0503486D01*
X0466094Y0503510D01*
X0466008Y0503532D01*
X0465920Y0503549D01*
X0465832Y0503563D01*
X0465744Y0503572D01*
X0465655Y0503578D01*
X0465566Y0503580D01*
X0454834Y0503580D02*
X0454745Y0503578D01*
X0454656Y0503572D01*
X0454568Y0503563D01*
X0454480Y0503549D01*
X0454392Y0503532D01*
X0454306Y0503510D01*
X0454221Y0503486D01*
X0454136Y0503457D01*
X0454052Y0503425D01*
X0453972Y0503389D01*
X0453892Y0503350D01*
X0453814Y0503307D01*
X0453738Y0503260D01*
X0453664Y0503211D01*
X0453592Y0503157D01*
X0453523Y0503103D01*
X0453456Y0503044D01*
X0453392Y0502982D01*
X0453330Y0502918D01*
X0453271Y0502851D01*
X0453216Y0502782D01*
X0453163Y0502710D01*
X0453113Y0502635D01*
X0453067Y0502560D01*
X0453024Y0502482D01*
X0452985Y0502402D01*
X0452949Y0502321D01*
X0452917Y0502238D01*
X0452888Y0502153D01*
X0452864Y0502068D01*
X0452842Y0501982D01*
X0452825Y0501894D01*
X0452811Y0501806D01*
X0452802Y0501718D01*
X0452796Y0501629D01*
X0452794Y0501539D01*
X0452794Y0497460D01*
X0467605Y0497460D02*
X0467605Y0501539D01*
X0465566Y0495420D02*
X0454834Y0495420D01*
X0454834Y0485079D02*
X0465566Y0485079D01*
X0454834Y0476920D02*
X0454745Y0476922D01*
X0454656Y0476928D01*
X0454568Y0476937D01*
X0454480Y0476950D01*
X0454392Y0476967D01*
X0454306Y0476990D01*
X0454221Y0477014D01*
X0454136Y0477043D01*
X0454052Y0477074D01*
X0453972Y0477111D01*
X0453892Y0477150D01*
X0453814Y0477192D01*
X0453738Y0477239D01*
X0453664Y0477289D01*
X0453592Y0477342D01*
X0453523Y0477397D01*
X0453456Y0477455D01*
X0453392Y0477518D01*
X0453330Y0477582D01*
X0453271Y0477649D01*
X0453216Y0477718D01*
X0453163Y0477789D01*
X0453113Y0477864D01*
X0453067Y0477939D01*
X0453024Y0478018D01*
X0452985Y0478098D01*
X0452949Y0478179D01*
X0452917Y0478262D01*
X0452888Y0478347D01*
X0452864Y0478432D01*
X0452842Y0478518D01*
X0452825Y0478606D01*
X0452811Y0478694D01*
X0452802Y0478782D01*
X0452796Y0478871D01*
X0452794Y0478960D01*
X0465566Y0476920D02*
X0465655Y0476922D01*
X0465744Y0476928D01*
X0465832Y0476937D01*
X0465920Y0476950D01*
X0466008Y0476967D01*
X0466094Y0476990D01*
X0466179Y0477014D01*
X0466264Y0477043D01*
X0466347Y0477074D01*
X0466428Y0477111D01*
X0466508Y0477150D01*
X0466586Y0477192D01*
X0466662Y0477239D01*
X0466736Y0477289D01*
X0466808Y0477342D01*
X0466877Y0477397D01*
X0466944Y0477455D01*
X0467008Y0477518D01*
X0467070Y0477582D01*
X0467129Y0477649D01*
X0467184Y0477718D01*
X0467237Y0477789D01*
X0467287Y0477864D01*
X0467333Y0477939D01*
X0467376Y0478018D01*
X0467415Y0478098D01*
X0467451Y0478179D01*
X0467483Y0478262D01*
X0467512Y0478347D01*
X0467536Y0478432D01*
X0467558Y0478518D01*
X0467575Y0478606D01*
X0467588Y0478694D01*
X0467598Y0478782D01*
X0467603Y0478871D01*
X0467605Y0478960D01*
X0467605Y0483040D02*
X0467603Y0483129D01*
X0467598Y0483217D01*
X0467588Y0483306D01*
X0467575Y0483394D01*
X0467558Y0483482D01*
X0467536Y0483568D01*
X0467512Y0483653D01*
X0467483Y0483738D01*
X0467451Y0483821D01*
X0467415Y0483902D01*
X0467376Y0483982D01*
X0467333Y0484060D01*
X0467287Y0484136D01*
X0467237Y0484210D01*
X0467184Y0484282D01*
X0467129Y0484351D01*
X0467070Y0484418D01*
X0467008Y0484482D01*
X0466944Y0484544D01*
X0466877Y0484603D01*
X0466808Y0484658D01*
X0466736Y0484711D01*
X0466662Y0484761D01*
X0466586Y0484807D01*
X0466508Y0484850D01*
X0466428Y0484889D01*
X0466347Y0484925D01*
X0466264Y0484957D01*
X0466179Y0484985D01*
X0466094Y0485010D01*
X0466008Y0485032D01*
X0465920Y0485049D01*
X0465832Y0485062D01*
X0465744Y0485072D01*
X0465655Y0485078D01*
X0465566Y0485079D01*
X0454834Y0485079D02*
X0454745Y0485078D01*
X0454656Y0485072D01*
X0454568Y0485062D01*
X0454480Y0485049D01*
X0454392Y0485032D01*
X0454306Y0485010D01*
X0454221Y0484985D01*
X0454136Y0484957D01*
X0454052Y0484925D01*
X0453972Y0484889D01*
X0453892Y0484850D01*
X0453814Y0484807D01*
X0453738Y0484761D01*
X0453664Y0484711D01*
X0453592Y0484658D01*
X0453523Y0484603D01*
X0453456Y0484544D01*
X0453392Y0484482D01*
X0453330Y0484418D01*
X0453271Y0484351D01*
X0453216Y0484282D01*
X0453163Y0484210D01*
X0453113Y0484136D01*
X0453067Y0484060D01*
X0453024Y0483982D01*
X0452985Y0483902D01*
X0452949Y0483821D01*
X0452917Y0483738D01*
X0452888Y0483653D01*
X0452864Y0483568D01*
X0452842Y0483482D01*
X0452825Y0483394D01*
X0452811Y0483306D01*
X0452802Y0483217D01*
X0452796Y0483129D01*
X0452794Y0483040D01*
X0452794Y0478960D01*
X0467605Y0478960D02*
X0467605Y0483040D01*
X0465566Y0476920D02*
X0454834Y0476920D01*
D12*
X0474000Y0473500D02*
X0488000Y0473500D01*
X0488000Y0469500D01*
X0474000Y0469500D01*
X0474000Y0473500D01*
M02*