G04 EAGLE Gerber RS-274X export*
G75*
%MOMM*%
%FSLAX34Y34*%
%LPD*%
%INSolder side*%
%IPPOS*%
%AMOC8*
5,1,8,0,0,$1,22.5*%
G01*
%ADD10R,0.635X1.27*%
%ADD11C,0.7564*%
%ADD12C,0.13*%
%ADD13C,0.15*%
%ADD14C,0.3*%
G36*
X0718248Y0404007D02*
X0718248Y0404007D01*
X0718300Y0404004D01*
X0718419Y0404027D01*
X0718540Y0404041D01*
X0718589Y0404058D01*
X0718640Y0404067D01*
X0718751Y0404117D01*
X0718865Y0404158D01*
X0718909Y0404187D01*
X0718956Y0404208D01*
X0719053Y0404281D01*
X0719154Y0404347D01*
X0719191Y0404385D01*
X0719232Y0404416D01*
X0719308Y0404509D01*
X0719393Y0404597D01*
X0719420Y0404642D01*
X0719453Y0404682D01*
X0719507Y0404791D01*
X0719568Y0404895D01*
X0719584Y0404945D01*
X0719607Y0404992D01*
X0719634Y0405110D01*
X0719670Y0405225D01*
X0719674Y0405278D01*
X0719686Y0405329D01*
X0719686Y0405450D01*
X0719694Y0405571D01*
X0719685Y0405622D01*
X0719685Y0405674D01*
X0719657Y0405792D01*
X0719638Y0405912D01*
X0719618Y0405959D01*
X0719606Y0406011D01*
X0719552Y0406119D01*
X0719505Y0406231D01*
X0719475Y0406273D01*
X0719451Y0406320D01*
X0719374Y0406413D01*
X0719303Y0406511D01*
X0719263Y0406546D01*
X0719230Y0406586D01*
X0719132Y0406659D01*
X0719042Y0406738D01*
X0718995Y0406762D01*
X0718954Y0406794D01*
X0718770Y0406885D01*
X0716786Y0407707D01*
X0712707Y0411786D01*
X0710498Y0417116D01*
X0710498Y0422884D01*
X0712707Y0428213D01*
X0716786Y0432293D01*
X0722116Y0434501D01*
X0727884Y0434501D01*
X0733214Y0432293D01*
X0737293Y0428213D01*
X0739501Y0422884D01*
X0739501Y0417116D01*
X0737293Y0411786D01*
X0733214Y0407707D01*
X0731230Y0406885D01*
X0731183Y0406860D01*
X0731135Y0406841D01*
X0731033Y0406776D01*
X0730928Y0406717D01*
X0730889Y0406682D01*
X0730846Y0406653D01*
X0730762Y0406565D01*
X0730673Y0406484D01*
X0730643Y0406441D01*
X0730607Y0406403D01*
X0730545Y0406298D01*
X0730477Y0406199D01*
X0730458Y0406150D01*
X0730432Y0406105D01*
X0730396Y0405989D01*
X0730353Y0405876D01*
X0730345Y0405824D01*
X0730330Y0405774D01*
X0730322Y0405653D01*
X0730305Y0405534D01*
X0730310Y0405482D01*
X0730305Y0405429D01*
X0730326Y0405310D01*
X0730337Y0405189D01*
X0730354Y0405140D01*
X0730361Y0405088D01*
X0730408Y0404976D01*
X0730447Y0404861D01*
X0730475Y0404817D01*
X0730495Y0404769D01*
X0730566Y0404671D01*
X0730629Y0404568D01*
X0730665Y0404531D01*
X0730697Y0404489D01*
X0730789Y0404409D01*
X0730874Y0404324D01*
X0730919Y0404296D01*
X0730958Y0404262D01*
X0731066Y0404204D01*
X0731168Y0404142D01*
X0731218Y0404126D01*
X0731264Y0404101D01*
X0731382Y0404071D01*
X0731495Y0404033D01*
X0731548Y0404028D01*
X0731598Y0404015D01*
X0731804Y0404001D01*
X0775000Y0404001D01*
X0775035Y0404005D01*
X0775070Y0404002D01*
X0775207Y0404025D01*
X0775343Y0404041D01*
X0775377Y0404052D01*
X0775412Y0404058D01*
X0775539Y0404111D01*
X0775669Y0404158D01*
X0775698Y0404177D01*
X0775731Y0404191D01*
X0775843Y0404272D01*
X0775958Y0404347D01*
X0775983Y0404373D01*
X0776011Y0404393D01*
X0776102Y0404497D01*
X0776197Y0404597D01*
X0776215Y0404628D01*
X0776238Y0404654D01*
X0776302Y0404777D01*
X0776372Y0404895D01*
X0776382Y0404929D01*
X0776399Y0404961D01*
X0776433Y0405094D01*
X0776474Y0405225D01*
X0776476Y0405261D01*
X0776485Y0405295D01*
X0776499Y0405500D01*
X0776499Y0415000D01*
X0776495Y0415035D01*
X0776498Y0415071D01*
X0776475Y0415207D01*
X0776459Y0415343D01*
X0776447Y0415377D01*
X0776442Y0415412D01*
X0776389Y0415539D01*
X0776341Y0415668D01*
X0776323Y0415698D01*
X0776309Y0415730D01*
X0776228Y0415843D01*
X0776153Y0415957D01*
X0776127Y0415983D01*
X0776107Y0416011D01*
X0776003Y0416102D01*
X0775903Y0416197D01*
X0775872Y0416215D01*
X0775846Y0416238D01*
X0775723Y0416302D01*
X0775605Y0416372D01*
X0775571Y0416382D01*
X0775539Y0416399D01*
X0775406Y0416432D01*
X0775274Y0416474D01*
X0775239Y0416475D01*
X0775205Y0416485D01*
X0775000Y0416499D01*
X0763298Y0416499D01*
X0763160Y0416483D01*
X0763021Y0416473D01*
X0762988Y0416462D01*
X0762955Y0416459D01*
X0762824Y0416412D01*
X0762690Y0416370D01*
X0762661Y0416353D01*
X0762630Y0416342D01*
X0762513Y0416266D01*
X0762393Y0416195D01*
X0762359Y0416165D01*
X0762340Y0416153D01*
X0762317Y0416129D01*
X0762286Y0416102D01*
X0760150Y0415217D01*
X0757850Y0415217D01*
X0755724Y0416098D01*
X0754098Y0417724D01*
X0753216Y0419850D01*
X0753216Y0422150D01*
X0753347Y0422464D01*
X0753370Y0422548D01*
X0753405Y0422629D01*
X0753418Y0422714D01*
X0753442Y0422797D01*
X0753446Y0422884D01*
X0753460Y0422971D01*
X0753454Y0423056D01*
X0753458Y0423142D01*
X0753442Y0423228D01*
X0753435Y0423315D01*
X0753409Y0423397D01*
X0753394Y0423482D01*
X0753359Y0423562D01*
X0753332Y0423646D01*
X0753289Y0423720D01*
X0753254Y0423798D01*
X0753202Y0423868D01*
X0753156Y0423943D01*
X0753062Y0424052D01*
X0753045Y0424074D01*
X0753036Y0424082D01*
X0753022Y0424097D01*
X0736499Y0440621D01*
X0736499Y0489379D01*
X0746060Y0498940D01*
X0746135Y0499035D01*
X0746150Y0499050D01*
X0746153Y0499058D01*
X0746238Y0499154D01*
X0746254Y0499184D01*
X0746275Y0499210D01*
X0746334Y0499337D01*
X0746399Y0499461D01*
X0746407Y0499493D01*
X0746422Y0499524D01*
X0746450Y0499660D01*
X0746485Y0499795D01*
X0746488Y0499840D01*
X0746493Y0499861D01*
X0746492Y0499895D01*
X0746499Y0500000D01*
X0746499Y0520000D01*
X0746483Y0520138D01*
X0746473Y0520278D01*
X0746463Y0520310D01*
X0746459Y0520343D01*
X0746412Y0520473D01*
X0746371Y0520608D01*
X0746353Y0520637D01*
X0746341Y0520669D01*
X0746266Y0520785D01*
X0746195Y0520905D01*
X0746165Y0520940D01*
X0746153Y0520957D01*
X0746129Y0520982D01*
X0746060Y0521060D01*
X0736499Y0530621D01*
X0736499Y0559379D01*
X0760621Y0583501D01*
X0775000Y0583501D01*
X0775035Y0583505D01*
X0775070Y0583502D01*
X0775207Y0583525D01*
X0775343Y0583541D01*
X0775377Y0583553D01*
X0775412Y0583558D01*
X0775539Y0583611D01*
X0775669Y0583658D01*
X0775698Y0583678D01*
X0775731Y0583691D01*
X0775843Y0583772D01*
X0775958Y0583847D01*
X0775983Y0583873D01*
X0776011Y0583893D01*
X0776102Y0583998D01*
X0776197Y0584097D01*
X0776215Y0584128D01*
X0776238Y0584154D01*
X0776302Y0584277D01*
X0776372Y0584395D01*
X0776382Y0584429D01*
X0776399Y0584461D01*
X0776433Y0584594D01*
X0776474Y0584726D01*
X0776476Y0584761D01*
X0776485Y0584795D01*
X0776499Y0585000D01*
X0776499Y0594500D01*
X0776495Y0594535D01*
X0776498Y0594571D01*
X0776475Y0594707D01*
X0776459Y0594843D01*
X0776447Y0594877D01*
X0776442Y0594912D01*
X0776389Y0595039D01*
X0776341Y0595169D01*
X0776323Y0595198D01*
X0776309Y0595231D01*
X0776228Y0595343D01*
X0776153Y0595458D01*
X0776127Y0595483D01*
X0776107Y0595511D01*
X0776003Y0595602D01*
X0775903Y0595697D01*
X0775872Y0595715D01*
X0775846Y0595738D01*
X0775723Y0595802D01*
X0775605Y0595872D01*
X0775571Y0595882D01*
X0775539Y0595899D01*
X0775406Y0595933D01*
X0775274Y0595974D01*
X0775239Y0595976D01*
X0775205Y0595985D01*
X0775000Y0595999D01*
X0731804Y0595999D01*
X0731752Y0595993D01*
X0731700Y0595996D01*
X0731581Y0595973D01*
X0731460Y0595959D01*
X0731411Y0595942D01*
X0731360Y0595932D01*
X0731249Y0595883D01*
X0731135Y0595842D01*
X0731091Y0595813D01*
X0731044Y0595792D01*
X0730947Y0595719D01*
X0730846Y0595653D01*
X0730809Y0595615D01*
X0730768Y0595584D01*
X0730690Y0595490D01*
X0730607Y0595403D01*
X0730581Y0595358D01*
X0730547Y0595318D01*
X0730493Y0595209D01*
X0730432Y0595105D01*
X0730417Y0595055D01*
X0730393Y0595008D01*
X0730365Y0594890D01*
X0730330Y0594774D01*
X0730326Y0594722D01*
X0730314Y0594671D01*
X0730314Y0594550D01*
X0730305Y0594429D01*
X0730314Y0594378D01*
X0730314Y0594326D01*
X0730343Y0594208D01*
X0730361Y0594088D01*
X0730382Y0594040D01*
X0730394Y0593989D01*
X0730449Y0593881D01*
X0730495Y0593769D01*
X0730525Y0593727D01*
X0730549Y0593680D01*
X0730626Y0593587D01*
X0730697Y0593489D01*
X0730737Y0593454D01*
X0730770Y0593414D01*
X0730867Y0593341D01*
X0730958Y0593262D01*
X0731005Y0593238D01*
X0731046Y0593206D01*
X0731230Y0593115D01*
X0733214Y0592293D01*
X0737293Y0588214D01*
X0739501Y0582884D01*
X0739501Y0577116D01*
X0737293Y0571786D01*
X0733214Y0567707D01*
X0727884Y0565499D01*
X0722116Y0565499D01*
X0716786Y0567707D01*
X0712707Y0571786D01*
X0710498Y0577116D01*
X0710498Y0582884D01*
X0712707Y0588214D01*
X0716786Y0592293D01*
X0718770Y0593115D01*
X0718816Y0593140D01*
X0718865Y0593158D01*
X0718966Y0593224D01*
X0719072Y0593283D01*
X0719111Y0593318D01*
X0719154Y0593347D01*
X0719238Y0593434D01*
X0719327Y0593516D01*
X0719357Y0593559D01*
X0719393Y0593597D01*
X0719454Y0593701D01*
X0719522Y0593801D01*
X0719542Y0593850D01*
X0719568Y0593895D01*
X0719603Y0594011D01*
X0719646Y0594124D01*
X0719655Y0594176D01*
X0719670Y0594226D01*
X0719678Y0594346D01*
X0719695Y0594466D01*
X0719689Y0594518D01*
X0719694Y0594571D01*
X0719674Y0594690D01*
X0719663Y0594811D01*
X0719646Y0594860D01*
X0719638Y0594912D01*
X0719591Y0595024D01*
X0719552Y0595138D01*
X0719525Y0595183D01*
X0719505Y0595231D01*
X0719434Y0595329D01*
X0719370Y0595432D01*
X0719333Y0595469D01*
X0719303Y0595511D01*
X0719212Y0595591D01*
X0719126Y0595676D01*
X0719081Y0595704D01*
X0719042Y0595738D01*
X0718935Y0595794D01*
X0718832Y0595858D01*
X0718781Y0595875D01*
X0718736Y0595899D01*
X0718618Y0595929D01*
X0718504Y0595967D01*
X0718452Y0595972D01*
X0718401Y0595985D01*
X0718195Y0595999D01*
X0675000Y0595999D01*
X0674965Y0595995D01*
X0674929Y0595998D01*
X0674793Y0595975D01*
X0674657Y0595959D01*
X0674623Y0595947D01*
X0674588Y0595942D01*
X0674461Y0595889D01*
X0674331Y0595842D01*
X0674302Y0595823D01*
X0674269Y0595809D01*
X0674157Y0595728D01*
X0674042Y0595653D01*
X0674017Y0595627D01*
X0673989Y0595607D01*
X0673897Y0595503D01*
X0673803Y0595403D01*
X0673785Y0595372D01*
X0673762Y0595346D01*
X0673698Y0595223D01*
X0673627Y0595105D01*
X0673618Y0595071D01*
X0673601Y0595039D01*
X0673567Y0594906D01*
X0673526Y0594774D01*
X0673524Y0594739D01*
X0673515Y0594705D01*
X0673501Y0594500D01*
X0673501Y0585000D01*
X0673505Y0584965D01*
X0673502Y0584929D01*
X0673525Y0584793D01*
X0673541Y0584657D01*
X0673553Y0584623D01*
X0673558Y0584588D01*
X0673610Y0584461D01*
X0673658Y0584331D01*
X0673678Y0584302D01*
X0673691Y0584269D01*
X0673772Y0584157D01*
X0673847Y0584042D01*
X0673873Y0584017D01*
X0673893Y0583989D01*
X0673998Y0583898D01*
X0674097Y0583803D01*
X0674128Y0583785D01*
X0674154Y0583762D01*
X0674277Y0583698D01*
X0674395Y0583628D01*
X0674429Y0583618D01*
X0674461Y0583601D01*
X0674594Y0583567D01*
X0674726Y0583526D01*
X0674761Y0583524D01*
X0674795Y0583515D01*
X0675000Y0583501D01*
X0689379Y0583501D01*
X0713501Y0559379D01*
X0713501Y0530621D01*
X0703940Y0521060D01*
X0703854Y0520951D01*
X0703762Y0520846D01*
X0703746Y0520816D01*
X0703725Y0520789D01*
X0703666Y0520663D01*
X0703601Y0520539D01*
X0703593Y0520507D01*
X0703578Y0520476D01*
X0703550Y0520340D01*
X0703515Y0520205D01*
X0703512Y0520160D01*
X0703507Y0520138D01*
X0703507Y0520104D01*
X0703501Y0520000D01*
X0703501Y0500000D01*
X0703516Y0499861D01*
X0703527Y0499722D01*
X0703537Y0499690D01*
X0703541Y0499657D01*
X0703588Y0499526D01*
X0703629Y0499392D01*
X0703647Y0499363D01*
X0703658Y0499330D01*
X0703734Y0499215D01*
X0703805Y0499095D01*
X0703835Y0499060D01*
X0703847Y0499042D01*
X0703871Y0499019D01*
X0703940Y0498940D01*
X0713501Y0489379D01*
X0713501Y0440630D01*
X0696887Y0424355D01*
X0696827Y0424281D01*
X0696760Y0424214D01*
X0696718Y0424146D01*
X0696669Y0424086D01*
X0696628Y0424001D01*
X0696578Y0423919D01*
X0696553Y0423845D01*
X0696519Y0423775D01*
X0696499Y0423682D01*
X0696468Y0423592D01*
X0696461Y0423514D01*
X0696444Y0423437D01*
X0696446Y0423342D01*
X0696437Y0423247D01*
X0696448Y0423170D01*
X0696449Y0423091D01*
X0696472Y0422999D01*
X0696485Y0422905D01*
X0696525Y0422787D01*
X0696533Y0422756D01*
X0696540Y0422741D01*
X0696551Y0422710D01*
X0696783Y0422150D01*
X0696783Y0419850D01*
X0695902Y0417724D01*
X0694276Y0416098D01*
X0692150Y0415217D01*
X0689850Y0415217D01*
X0687704Y0416106D01*
X0687653Y0416147D01*
X0687547Y0416238D01*
X0687517Y0416254D01*
X0687491Y0416275D01*
X0687365Y0416334D01*
X0687240Y0416399D01*
X0687208Y0416407D01*
X0687178Y0416422D01*
X0687042Y0416450D01*
X0686906Y0416485D01*
X0686862Y0416488D01*
X0686840Y0416492D01*
X0686806Y0416492D01*
X0686701Y0416499D01*
X0675000Y0416499D01*
X0674965Y0416495D01*
X0674929Y0416498D01*
X0674793Y0416475D01*
X0674657Y0416459D01*
X0674623Y0416447D01*
X0674588Y0416442D01*
X0674461Y0416389D01*
X0674331Y0416342D01*
X0674302Y0416323D01*
X0674269Y0416308D01*
X0674157Y0416228D01*
X0674042Y0416153D01*
X0674017Y0416126D01*
X0673989Y0416107D01*
X0673897Y0416003D01*
X0673803Y0415903D01*
X0673785Y0415872D01*
X0673762Y0415846D01*
X0673698Y0415723D01*
X0673627Y0415605D01*
X0673618Y0415571D01*
X0673601Y0415539D01*
X0673567Y0415406D01*
X0673526Y0415274D01*
X0673524Y0415239D01*
X0673515Y0415205D01*
X0673501Y0415000D01*
X0673501Y0405500D01*
X0673505Y0405465D01*
X0673502Y0405429D01*
X0673525Y0405293D01*
X0673541Y0405157D01*
X0673553Y0405123D01*
X0673558Y0405088D01*
X0673610Y0404961D01*
X0673658Y0404831D01*
X0673678Y0404802D01*
X0673691Y0404769D01*
X0673772Y0404657D01*
X0673847Y0404542D01*
X0673873Y0404517D01*
X0673893Y0404489D01*
X0673998Y0404398D01*
X0674097Y0404303D01*
X0674128Y0404285D01*
X0674154Y0404262D01*
X0674277Y0404198D01*
X0674395Y0404128D01*
X0674429Y0404118D01*
X0674461Y0404101D01*
X0674594Y0404067D01*
X0674726Y0404026D01*
X0674761Y0404024D01*
X0674795Y0404015D01*
X0675000Y0404001D01*
X0718195Y0404001D01*
X0718248Y0404007D01*
G37*
D10*
X0656936Y0545000D03*
X0665064Y0545000D03*
X0656936Y0525000D03*
X0665064Y0525000D03*
X0656936Y0505000D03*
X0665064Y0505000D03*
X0656936Y0485000D03*
X0665064Y0485000D03*
X0656936Y0465000D03*
X0665064Y0465000D03*
D11*
X0725000Y0510000D03*
X0736000Y0502000D03*
X0715000Y0520000D03*
D12*
X0648480Y0411955D02*
X0656472Y0407341D01*
X0648480Y0411955D02*
X0641955Y0418480D01*
X0637341Y0426472D01*
X0634952Y0435386D01*
X0634650Y0440000D01*
X0634650Y0560000D01*
X0634952Y0564614D01*
X0637341Y0573528D01*
X0641955Y0581520D01*
X0648480Y0588045D01*
X0656472Y0592659D01*
X0665386Y0595048D01*
X0670000Y0595350D01*
X0780000Y0595350D01*
X0784614Y0595048D01*
X0793528Y0592659D01*
X0801520Y0588045D01*
X0808045Y0581520D01*
X0812659Y0573528D01*
X0815048Y0564614D01*
X0815350Y0560000D01*
X0815350Y0440000D01*
X0815048Y0435386D01*
X0812659Y0426472D01*
X0808045Y0418480D01*
X0801520Y0411955D01*
X0793528Y0407341D01*
X0784614Y0404951D01*
X0780000Y0404650D01*
X0670000Y0404650D01*
X0665386Y0404951D01*
X0656472Y0407341D01*
X0801432Y0533721D02*
X0801432Y0536279D01*
X0800453Y0538643D01*
X0798643Y0540453D01*
X0796279Y0541432D01*
X0793721Y0541432D01*
X0791357Y0540453D01*
X0789547Y0538643D01*
X0788567Y0536279D01*
X0788567Y0533721D01*
X0788828Y0533093D01*
X0778216Y0523675D01*
X0778124Y0523675D01*
X0777398Y0522949D01*
X0776631Y0522268D01*
X0776625Y0522176D01*
X0776560Y0522111D01*
X0776560Y0521084D01*
X0776499Y0520060D01*
X0776560Y0519991D01*
X0776560Y0458335D01*
X0769594Y0451370D01*
X0761756Y0451370D01*
X0761353Y0452343D01*
X0759543Y0454153D01*
X0757179Y0455132D01*
X0754620Y0455132D01*
X0752257Y0454153D01*
X0750447Y0452343D01*
X0749468Y0449979D01*
X0749468Y0447421D01*
X0750447Y0445057D01*
X0752257Y0443247D01*
X0754620Y0442268D01*
X0757179Y0442268D01*
X0759543Y0443247D01*
X0761270Y0444974D01*
X0760568Y0443279D01*
X0760568Y0441312D01*
X0760279Y0441432D01*
X0757721Y0441432D01*
X0755357Y0440453D01*
X0753546Y0438643D01*
X0752568Y0436278D01*
X0752568Y0433721D01*
X0753546Y0431357D01*
X0755357Y0429547D01*
X0757721Y0428568D01*
X0760279Y0428568D01*
X0760568Y0428688D01*
X0760568Y0427312D01*
X0760279Y0427432D01*
X0757721Y0427432D01*
X0755357Y0426453D01*
X0753546Y0424643D01*
X0752568Y0422279D01*
X0752568Y0419721D01*
X0753546Y0417357D01*
X0755357Y0415546D01*
X0757721Y0414568D01*
X0760279Y0414568D01*
X0762643Y0415546D01*
X0764453Y0417357D01*
X0764856Y0418330D01*
X0772106Y0418330D01*
X0796106Y0442329D01*
X0797670Y0443894D01*
X0797670Y0449144D01*
X0798643Y0449547D01*
X0800453Y0451357D01*
X0801432Y0453721D01*
X0801432Y0456278D01*
X0800453Y0458643D01*
X0798643Y0460453D01*
X0796279Y0461432D01*
X0793721Y0461432D01*
X0791357Y0460453D01*
X0790670Y0459766D01*
X0790670Y0469894D01*
X0790840Y0470064D01*
X0791357Y0469547D01*
X0793721Y0468568D01*
X0796279Y0468568D01*
X0798643Y0469547D01*
X0800453Y0471357D01*
X0801432Y0473721D01*
X0801432Y0476278D01*
X0800453Y0478643D01*
X0798643Y0480453D01*
X0796279Y0481432D01*
X0793721Y0481432D01*
X0791357Y0480453D01*
X0789547Y0478643D01*
X0788567Y0476278D01*
X0788567Y0475344D01*
X0787670Y0474446D01*
X0787670Y0485416D01*
X0792205Y0489196D01*
X0793721Y0488568D01*
X0796279Y0488568D01*
X0798643Y0489547D01*
X0800453Y0491357D01*
X0801432Y0493721D01*
X0801432Y0496278D01*
X0800453Y0498643D01*
X0798643Y0500453D01*
X0796279Y0501432D01*
X0793721Y0501432D01*
X0791357Y0500453D01*
X0789547Y0498643D01*
X0788567Y0496278D01*
X0788567Y0493721D01*
X0788754Y0493271D01*
X0784900Y0490058D01*
X0784900Y0502738D01*
X0792316Y0509150D01*
X0793721Y0508568D01*
X0796279Y0508568D01*
X0798643Y0509547D01*
X0800453Y0511357D01*
X0801432Y0513721D01*
X0801432Y0516278D01*
X0800453Y0518643D01*
X0798643Y0520453D01*
X0796279Y0521432D01*
X0793721Y0521432D01*
X0791357Y0520453D01*
X0789547Y0518643D01*
X0788567Y0516278D01*
X0788567Y0513721D01*
X0788797Y0513167D01*
X0781900Y0507203D01*
X0781900Y0519805D01*
X0792394Y0529118D01*
X0793721Y0528568D01*
X0796279Y0528568D01*
X0798643Y0529547D01*
X0800453Y0531357D01*
X0801432Y0533721D01*
X0684432Y0526279D02*
X0684432Y0523721D01*
X0684432Y0526279D02*
X0683453Y0528643D01*
X0681643Y0530453D01*
X0679278Y0531432D01*
X0676721Y0531432D01*
X0674357Y0530453D01*
X0672547Y0528643D01*
X0672144Y0527670D01*
X0670889Y0527670D01*
X0670889Y0532448D01*
X0669337Y0534000D01*
X0667734Y0534000D01*
X0667734Y0536000D01*
X0669337Y0536000D01*
X0670889Y0537552D01*
X0670889Y0552448D01*
X0669337Y0554000D01*
X0652663Y0554000D01*
X0651110Y0552448D01*
X0651110Y0549314D01*
X0650547Y0548750D01*
X0649568Y0546386D01*
X0649568Y0543828D01*
X0650547Y0541464D01*
X0651110Y0540900D01*
X0651110Y0539951D01*
X0639644Y0528484D01*
X0638080Y0526920D01*
X0638080Y0454452D01*
X0639644Y0452888D01*
X0639644Y0452888D01*
X0672638Y0419894D01*
X0672638Y0419894D01*
X0674201Y0418330D01*
X0685144Y0418330D01*
X0685547Y0417357D01*
X0687357Y0415546D01*
X0689721Y0414568D01*
X0692279Y0414568D01*
X0694643Y0415546D01*
X0696453Y0417357D01*
X0697432Y0419721D01*
X0697432Y0422279D01*
X0696453Y0424643D01*
X0694643Y0426453D01*
X0692279Y0427432D01*
X0689721Y0427432D01*
X0689432Y0427312D01*
X0689432Y0428688D01*
X0689721Y0428568D01*
X0692279Y0428568D01*
X0694643Y0429547D01*
X0696453Y0431357D01*
X0697432Y0433721D01*
X0697432Y0436278D01*
X0696453Y0438643D01*
X0694643Y0440453D01*
X0692279Y0441432D01*
X0689721Y0441432D01*
X0689432Y0441312D01*
X0689432Y0443279D01*
X0688453Y0445643D01*
X0686643Y0447453D01*
X0684278Y0448432D01*
X0681721Y0448432D01*
X0679357Y0447453D01*
X0677547Y0445643D01*
X0677144Y0444670D01*
X0667166Y0444670D01*
X0655836Y0456000D01*
X0669337Y0456000D01*
X0670889Y0457552D01*
X0670889Y0472448D01*
X0669337Y0474000D01*
X0667734Y0474000D01*
X0667734Y0476000D01*
X0669337Y0476000D01*
X0670889Y0477552D01*
X0670889Y0492448D01*
X0669337Y0494000D01*
X0667734Y0494000D01*
X0667734Y0496000D01*
X0669337Y0496000D01*
X0670889Y0497552D01*
X0670889Y0512448D01*
X0669337Y0514000D01*
X0667734Y0514000D01*
X0667734Y0516000D01*
X0669337Y0516000D01*
X0670889Y0517552D01*
X0670889Y0522330D01*
X0672144Y0522330D01*
X0672547Y0521357D01*
X0674357Y0519547D01*
X0676721Y0518568D01*
X0679278Y0518568D01*
X0681643Y0519547D01*
X0683453Y0521357D01*
X0684432Y0523721D01*
X0740150Y0576986D02*
X0740150Y0583014D01*
X0737844Y0588582D01*
X0733582Y0592844D01*
X0728014Y0595150D01*
X0721986Y0595150D01*
X0716418Y0592844D01*
X0712156Y0588582D01*
X0709850Y0583014D01*
X0709850Y0576986D01*
X0712156Y0571418D01*
X0716418Y0567156D01*
X0721986Y0564850D01*
X0728014Y0564850D01*
X0733582Y0567156D01*
X0737844Y0571418D01*
X0740150Y0576986D01*
X0740150Y0423014D02*
X0740150Y0416986D01*
X0740150Y0423014D02*
X0737844Y0428581D01*
X0733582Y0432844D01*
X0728014Y0435150D01*
X0721986Y0435150D01*
X0716418Y0432844D01*
X0712156Y0428581D01*
X0709850Y0423014D01*
X0709850Y0416986D01*
X0712156Y0411418D01*
X0716418Y0407156D01*
X0721986Y0404850D01*
X0728014Y0404850D01*
X0733582Y0407156D01*
X0737844Y0411418D01*
X0740150Y0416986D01*
X0716795Y0407000D02*
X0657744Y0407000D01*
X0733204Y0407000D02*
X0792256Y0407000D01*
X0713075Y0410500D02*
X0651000Y0410500D01*
X0736925Y0410500D02*
X0799000Y0410500D01*
X0711087Y0414000D02*
X0646435Y0414000D01*
X0738913Y0414000D02*
X0803565Y0414000D01*
X0685488Y0417500D02*
X0642935Y0417500D01*
X0696512Y0417500D02*
X0709850Y0417500D01*
X0740150Y0417500D02*
X0753488Y0417500D01*
X0764512Y0417500D02*
X0807065Y0417500D01*
X0671532Y0421000D02*
X0640500Y0421000D01*
X0697432Y0421000D02*
X0709850Y0421000D01*
X0740150Y0421000D02*
X0752568Y0421000D01*
X0774776Y0421000D02*
X0809500Y0421000D01*
X0668032Y0424500D02*
X0638479Y0424500D01*
X0696512Y0424500D02*
X0710466Y0424500D01*
X0739534Y0424500D02*
X0753488Y0424500D01*
X0778276Y0424500D02*
X0811521Y0424500D01*
X0664532Y0428000D02*
X0636931Y0428000D01*
X0689432Y0428000D02*
X0711915Y0428000D01*
X0738085Y0428000D02*
X0760568Y0428000D01*
X0781776Y0428000D02*
X0813069Y0428000D01*
X0661032Y0431500D02*
X0635994Y0431500D01*
X0696512Y0431500D02*
X0715074Y0431500D01*
X0734925Y0431500D02*
X0753488Y0431500D01*
X0785276Y0431500D02*
X0814006Y0431500D01*
X0657532Y0435000D02*
X0635056Y0435000D01*
X0697432Y0435000D02*
X0721624Y0435000D01*
X0728376Y0435000D02*
X0752568Y0435000D01*
X0788776Y0435000D02*
X0814944Y0435000D01*
X0654032Y0438500D02*
X0634748Y0438500D01*
X0696512Y0438500D02*
X0753488Y0438500D01*
X0792276Y0438500D02*
X0815252Y0438500D01*
X0650532Y0442000D02*
X0634650Y0442000D01*
X0689432Y0442000D02*
X0760568Y0442000D01*
X0795776Y0442000D02*
X0815350Y0442000D01*
X0647032Y0445500D02*
X0634650Y0445500D01*
X0666336Y0445500D02*
X0677488Y0445500D01*
X0688512Y0445500D02*
X0750264Y0445500D01*
X0797670Y0445500D02*
X0815350Y0445500D01*
X0643532Y0449000D02*
X0634650Y0449000D01*
X0662836Y0449000D02*
X0749468Y0449000D01*
X0797670Y0449000D02*
X0815350Y0449000D01*
X0640032Y0452500D02*
X0634650Y0452500D01*
X0659336Y0452500D02*
X0750604Y0452500D01*
X0761196Y0452500D02*
X0770724Y0452500D01*
X0800926Y0452500D02*
X0815350Y0452500D01*
X0638080Y0456000D02*
X0634650Y0456000D01*
X0669337Y0456000D02*
X0774224Y0456000D01*
X0801432Y0456000D02*
X0815350Y0456000D01*
X0638080Y0459500D02*
X0634650Y0459500D01*
X0670889Y0459500D02*
X0776560Y0459500D01*
X0799596Y0459500D02*
X0815350Y0459500D01*
X0638080Y0463000D02*
X0634650Y0463000D01*
X0670889Y0463000D02*
X0776560Y0463000D01*
X0790670Y0463000D02*
X0815350Y0463000D01*
X0638080Y0466500D02*
X0634650Y0466500D01*
X0670889Y0466500D02*
X0776560Y0466500D01*
X0790670Y0466500D02*
X0815350Y0466500D01*
X0638080Y0470000D02*
X0634650Y0470000D01*
X0670889Y0470000D02*
X0776560Y0470000D01*
X0790776Y0470000D02*
X0790904Y0470000D01*
X0799096Y0470000D02*
X0815350Y0470000D01*
X0638080Y0473500D02*
X0634650Y0473500D01*
X0669837Y0473500D02*
X0776560Y0473500D01*
X0801341Y0473500D02*
X0815350Y0473500D01*
X0638080Y0477000D02*
X0634650Y0477000D01*
X0670337Y0477000D02*
X0776560Y0477000D01*
X0787670Y0477000D02*
X0788867Y0477000D01*
X0801134Y0477000D02*
X0815350Y0477000D01*
X0638080Y0480500D02*
X0634650Y0480500D01*
X0670889Y0480500D02*
X0776560Y0480500D01*
X0787670Y0480500D02*
X0791471Y0480500D01*
X0798529Y0480500D02*
X0815350Y0480500D01*
X0638080Y0484000D02*
X0634650Y0484000D01*
X0670889Y0484000D02*
X0776560Y0484000D01*
X0787670Y0484000D02*
X0815350Y0484000D01*
X0638080Y0487500D02*
X0634650Y0487500D01*
X0670889Y0487500D02*
X0776560Y0487500D01*
X0790171Y0487500D02*
X0815350Y0487500D01*
X0638080Y0491000D02*
X0634650Y0491000D01*
X0670889Y0491000D02*
X0776560Y0491000D01*
X0784900Y0491000D02*
X0786029Y0491000D01*
X0800096Y0491000D02*
X0815350Y0491000D01*
X0638080Y0494500D02*
X0634650Y0494500D01*
X0667734Y0494500D02*
X0776560Y0494500D01*
X0784900Y0494500D02*
X0788567Y0494500D01*
X0801432Y0494500D02*
X0815350Y0494500D01*
X0638080Y0498000D02*
X0634650Y0498000D01*
X0670889Y0498000D02*
X0776560Y0498000D01*
X0784900Y0498000D02*
X0789281Y0498000D01*
X0800719Y0498000D02*
X0815350Y0498000D01*
X0638080Y0501500D02*
X0634650Y0501500D01*
X0670889Y0501500D02*
X0776560Y0501500D01*
X0784900Y0501500D02*
X0815350Y0501500D01*
X0638080Y0505000D02*
X0634650Y0505000D01*
X0670889Y0505000D02*
X0776560Y0505000D01*
X0787516Y0505000D02*
X0815350Y0505000D01*
X0638080Y0508500D02*
X0634650Y0508500D01*
X0670889Y0508500D02*
X0776560Y0508500D01*
X0781900Y0508500D02*
X0783400Y0508500D01*
X0791564Y0508500D02*
X0815350Y0508500D01*
X0638080Y0512000D02*
X0634650Y0512000D01*
X0670889Y0512000D02*
X0776560Y0512000D01*
X0781900Y0512000D02*
X0787448Y0512000D01*
X0800719Y0512000D02*
X0815350Y0512000D01*
X0638080Y0515500D02*
X0634650Y0515500D01*
X0667734Y0515500D02*
X0776560Y0515500D01*
X0781900Y0515500D02*
X0788567Y0515500D01*
X0801432Y0515500D02*
X0815350Y0515500D01*
X0638080Y0519000D02*
X0634650Y0519000D01*
X0670889Y0519000D02*
X0675678Y0519000D01*
X0680322Y0519000D02*
X0776560Y0519000D01*
X0781900Y0519000D02*
X0789903Y0519000D01*
X0800096Y0519000D02*
X0815350Y0519000D01*
X0638080Y0522500D02*
X0634650Y0522500D01*
X0683926Y0522500D02*
X0776892Y0522500D01*
X0784937Y0522500D02*
X0815350Y0522500D01*
X0638080Y0526000D02*
X0634650Y0526000D01*
X0684432Y0526000D02*
X0780836Y0526000D01*
X0788881Y0526000D02*
X0815350Y0526000D01*
X0640660Y0529500D02*
X0634650Y0529500D01*
X0670889Y0529500D02*
X0673404Y0529500D01*
X0682596Y0529500D02*
X0784780Y0529500D01*
X0798529Y0529500D02*
X0815350Y0529500D01*
X0644160Y0533000D02*
X0634650Y0533000D01*
X0670337Y0533000D02*
X0788724Y0533000D01*
X0801133Y0533000D02*
X0815350Y0533000D01*
X0647660Y0536500D02*
X0634650Y0536500D01*
X0669837Y0536500D02*
X0788659Y0536500D01*
X0801341Y0536500D02*
X0815350Y0536500D01*
X0651110Y0540000D02*
X0634650Y0540000D01*
X0670889Y0540000D02*
X0790904Y0540000D01*
X0799096Y0540000D02*
X0815350Y0540000D01*
X0649704Y0543500D02*
X0634650Y0543500D01*
X0670889Y0543500D02*
X0815350Y0543500D01*
X0649822Y0547000D02*
X0634650Y0547000D01*
X0670889Y0547000D02*
X0815350Y0547000D01*
X0651110Y0550500D02*
X0634650Y0550500D01*
X0670889Y0550500D02*
X0815350Y0550500D01*
X0815350Y0554000D02*
X0634650Y0554000D01*
X0634650Y0557500D02*
X0815350Y0557500D01*
X0815284Y0561000D02*
X0634716Y0561000D01*
X0634945Y0564500D02*
X0815055Y0564500D01*
X0715575Y0568000D02*
X0635860Y0568000D01*
X0734425Y0568000D02*
X0814140Y0568000D01*
X0712123Y0571500D02*
X0636797Y0571500D01*
X0737877Y0571500D02*
X0813202Y0571500D01*
X0710673Y0575000D02*
X0638191Y0575000D01*
X0739327Y0575000D02*
X0811809Y0575000D01*
X0709850Y0578500D02*
X0640211Y0578500D01*
X0740150Y0578500D02*
X0809788Y0578500D01*
X0709850Y0582000D02*
X0642435Y0582000D01*
X0740150Y0582000D02*
X0807565Y0582000D01*
X0710879Y0585500D02*
X0645935Y0585500D01*
X0739120Y0585500D02*
X0804064Y0585500D01*
X0712574Y0589000D02*
X0650134Y0589000D01*
X0737425Y0589000D02*
X0799866Y0589000D01*
X0716075Y0592500D02*
X0656197Y0592500D01*
X0733925Y0592500D02*
X0793803Y0592500D01*
X0637000Y0572256D02*
X0637000Y0427744D01*
X0640500Y0421000D02*
X0640500Y0452032D01*
X0640500Y0529340D02*
X0640500Y0579000D01*
X0644000Y0448532D02*
X0644000Y0416435D01*
X0644000Y0532840D02*
X0644000Y0583565D01*
X0647500Y0445032D02*
X0647500Y0412935D01*
X0647500Y0536340D02*
X0647500Y0587065D01*
X0651000Y0441532D02*
X0651000Y0410500D01*
X0651000Y0539840D02*
X0651000Y0541011D01*
X0651000Y0549203D02*
X0651000Y0589500D01*
X0654500Y0438031D02*
X0654500Y0408479D01*
X0654500Y0554000D02*
X0654500Y0591521D01*
X0658000Y0434532D02*
X0658000Y0406931D01*
X0658000Y0453836D02*
X0658000Y0456000D01*
X0658000Y0554000D02*
X0658000Y0593069D01*
X0661500Y0431032D02*
X0661500Y0405994D01*
X0661500Y0450336D02*
X0661500Y0456000D01*
X0661500Y0554000D02*
X0661500Y0594006D01*
X0665000Y0427532D02*
X0665000Y0405056D01*
X0665000Y0446836D02*
X0665000Y0456000D01*
X0665000Y0554000D02*
X0665000Y0594944D01*
X0668500Y0424032D02*
X0668500Y0404748D01*
X0668500Y0444670D02*
X0668500Y0456000D01*
X0668500Y0474000D02*
X0668500Y0476000D01*
X0668500Y0494000D02*
X0668500Y0496000D01*
X0668500Y0514000D02*
X0668500Y0516000D01*
X0668500Y0534000D02*
X0668500Y0536000D01*
X0668500Y0554000D02*
X0668500Y0595252D01*
X0672000Y0420531D02*
X0672000Y0404650D01*
X0672000Y0444670D02*
X0672000Y0522330D01*
X0672000Y0527670D02*
X0672000Y0595350D01*
X0675500Y0418330D02*
X0675500Y0404650D01*
X0675500Y0444670D02*
X0675500Y0519074D01*
X0675500Y0530926D02*
X0675500Y0595350D01*
X0679000Y0418330D02*
X0679000Y0404650D01*
X0679000Y0447096D02*
X0679000Y0518568D01*
X0679000Y0531432D02*
X0679000Y0595350D01*
X0682500Y0418330D02*
X0682500Y0404650D01*
X0682500Y0448432D02*
X0682500Y0520404D01*
X0682500Y0529596D02*
X0682500Y0595350D01*
X0686000Y0416903D02*
X0686000Y0404650D01*
X0686000Y0447719D02*
X0686000Y0595350D01*
X0689500Y0414659D02*
X0689500Y0404650D01*
X0689500Y0427341D02*
X0689500Y0428658D01*
X0689500Y0441341D02*
X0689500Y0595350D01*
X0693000Y0414866D02*
X0693000Y0404650D01*
X0693000Y0427132D02*
X0693000Y0428866D01*
X0693000Y0441133D02*
X0693000Y0595350D01*
X0696500Y0417471D02*
X0696500Y0404650D01*
X0696500Y0424529D02*
X0696500Y0431471D01*
X0696500Y0438529D02*
X0696500Y0595350D01*
X0700000Y0595350D02*
X0700000Y0404650D01*
X0703500Y0404650D02*
X0703500Y0595350D01*
X0707000Y0595350D02*
X0707000Y0404650D01*
X0710500Y0404650D02*
X0710500Y0415417D01*
X0710500Y0424583D02*
X0710500Y0575417D01*
X0710500Y0584583D02*
X0710500Y0595350D01*
X0714000Y0409575D02*
X0714000Y0404650D01*
X0714000Y0430424D02*
X0714000Y0569575D01*
X0714000Y0590425D02*
X0714000Y0595350D01*
X0717500Y0406708D02*
X0717500Y0404650D01*
X0717500Y0433292D02*
X0717500Y0566708D01*
X0717500Y0593292D02*
X0717500Y0595350D01*
X0721000Y0405259D02*
X0721000Y0404650D01*
X0721000Y0434741D02*
X0721000Y0565259D01*
X0721000Y0594741D02*
X0721000Y0595350D01*
X0724500Y0404850D02*
X0724500Y0404650D01*
X0724500Y0435150D02*
X0724500Y0564850D01*
X0724500Y0595150D02*
X0724500Y0595350D01*
X0728000Y0404850D02*
X0728000Y0404650D01*
X0728000Y0435150D02*
X0728000Y0564850D01*
X0728000Y0595150D02*
X0728000Y0595350D01*
X0731500Y0406293D02*
X0731500Y0404650D01*
X0731500Y0433706D02*
X0731500Y0566294D01*
X0731500Y0593706D02*
X0731500Y0595350D01*
X0735000Y0408575D02*
X0735000Y0404650D01*
X0735000Y0431425D02*
X0735000Y0568575D01*
X0735000Y0591425D02*
X0735000Y0595350D01*
X0738500Y0413003D02*
X0738500Y0404650D01*
X0738500Y0426997D02*
X0738500Y0573003D01*
X0738500Y0586997D02*
X0738500Y0595350D01*
X0742000Y0595350D02*
X0742000Y0404650D01*
X0745500Y0404650D02*
X0745500Y0595350D01*
X0749000Y0595350D02*
X0749000Y0404650D01*
X0752500Y0404650D02*
X0752500Y0443146D01*
X0752500Y0454253D02*
X0752500Y0595350D01*
X0756000Y0415281D02*
X0756000Y0404650D01*
X0756000Y0426719D02*
X0756000Y0429281D01*
X0756000Y0440719D02*
X0756000Y0442268D01*
X0756000Y0455132D02*
X0756000Y0595350D01*
X0759500Y0414568D02*
X0759500Y0404650D01*
X0759500Y0427432D02*
X0759500Y0428568D01*
X0759500Y0441432D02*
X0759500Y0443228D01*
X0759500Y0454171D02*
X0759500Y0595350D01*
X0763000Y0415904D02*
X0763000Y0404650D01*
X0763000Y0451370D02*
X0763000Y0595350D01*
X0766500Y0418330D02*
X0766500Y0404650D01*
X0766500Y0451370D02*
X0766500Y0595350D01*
X0770000Y0418330D02*
X0770000Y0404650D01*
X0770000Y0451776D02*
X0770000Y0595350D01*
X0773500Y0419724D02*
X0773500Y0404650D01*
X0773500Y0455276D02*
X0773500Y0595350D01*
X0777000Y0423224D02*
X0777000Y0404650D01*
X0777000Y0522596D02*
X0777000Y0595350D01*
X0780500Y0426724D02*
X0780500Y0404683D01*
X0780500Y0525702D02*
X0780500Y0595317D01*
X0784000Y0430224D02*
X0784000Y0404912D01*
X0784000Y0509019D02*
X0784000Y0521668D01*
X0784000Y0528808D02*
X0784000Y0595088D01*
X0787500Y0433724D02*
X0787500Y0405726D01*
X0787500Y0492226D02*
X0787500Y0504985D01*
X0787500Y0512044D02*
X0787500Y0524774D01*
X0787500Y0531914D02*
X0787500Y0594274D01*
X0791000Y0437224D02*
X0791000Y0406664D01*
X0791000Y0460096D02*
X0791000Y0469904D01*
X0791000Y0480096D02*
X0791000Y0488191D01*
X0791000Y0500096D02*
X0791000Y0508012D01*
X0791000Y0520096D02*
X0791000Y0527880D01*
X0791000Y0540096D02*
X0791000Y0593336D01*
X0794500Y0440724D02*
X0794500Y0407902D01*
X0794500Y0461432D02*
X0794500Y0468568D01*
X0794500Y0481432D02*
X0794500Y0488568D01*
X0794500Y0501432D02*
X0794500Y0508568D01*
X0794500Y0521432D02*
X0794500Y0528568D01*
X0794500Y0541432D02*
X0794500Y0592098D01*
X0798000Y0449281D02*
X0798000Y0409923D01*
X0798000Y0460719D02*
X0798000Y0469281D01*
X0798000Y0480719D02*
X0798000Y0489281D01*
X0798000Y0500719D02*
X0798000Y0509281D01*
X0798000Y0520719D02*
X0798000Y0529281D01*
X0798000Y0540719D02*
X0798000Y0590077D01*
X0801500Y0588056D02*
X0801500Y0411944D01*
X0805000Y0415435D02*
X0805000Y0584565D01*
X0808500Y0580732D02*
X0808500Y0419268D01*
X0812000Y0425331D02*
X0812000Y0574670D01*
D11*
X0642500Y0425000D03*
X0642500Y0433500D03*
X0642500Y0442000D03*
X0807500Y0433500D03*
X0807500Y0442000D03*
X0807500Y0425000D03*
X0807500Y0570000D03*
X0807500Y0560000D03*
X0785000Y0590000D03*
X0642500Y0560000D03*
X0661500Y0590000D03*
X0642500Y0570000D03*
X0706500Y0472500D03*
X0683700Y0545900D03*
X0742899Y0480800D03*
X0678500Y0464500D03*
X0687500Y0464500D03*
X0770500Y0535500D03*
X0696000Y0456000D03*
X0754000Y0545000D03*
X0762000Y0535500D03*
D13*
X0665064Y0545000D02*
X0665064Y0525000D01*
X0665064Y0505000D01*
X0665064Y0485000D01*
X0665064Y0465000D01*
D11*
X0678000Y0525000D03*
D13*
X0665064Y0525000D01*
D11*
X0655893Y0525000D03*
D14*
X0656936Y0525000D01*
D13*
X0656936Y0521936D01*
X0643520Y0508520D01*
X0643520Y0456704D01*
X0788000Y0471000D02*
X0792000Y0475000D01*
X0795000Y0475000D01*
D11*
X0795000Y0475000D03*
X0683000Y0428000D03*
X0767000Y0428000D03*
D13*
X0672225Y0428000D02*
X0643520Y0456704D01*
X0672225Y0428000D02*
X0683000Y0428000D01*
X0771000Y0428000D02*
X0788000Y0445000D01*
X0771000Y0428000D02*
X0767000Y0428000D01*
X0788000Y0445000D02*
X0788000Y0471000D01*
D11*
X0656000Y0505107D03*
D14*
X0656107Y0505000D02*
X0656936Y0505000D01*
X0656107Y0505000D02*
X0656000Y0505107D01*
D13*
X0656936Y0505000D02*
X0656936Y0501646D01*
X0646290Y0491000D01*
X0646290Y0457853D02*
X0669143Y0435000D01*
X0646290Y0457853D02*
X0646290Y0491000D01*
X0785000Y0486667D02*
X0795000Y0495000D01*
D11*
X0795000Y0495000D03*
X0691000Y0435000D03*
X0759000Y0435000D03*
D13*
X0691000Y0435000D02*
X0669143Y0435000D01*
X0759000Y0435000D02*
X0771238Y0435000D01*
X0785000Y0448762D01*
X0785000Y0486667D01*
D11*
X0656000Y0485107D03*
D14*
X0656107Y0485000D02*
X0656936Y0485000D01*
X0656107Y0485000D02*
X0656000Y0485107D01*
D13*
X0656936Y0485000D02*
X0656936Y0481876D01*
X0649060Y0474000D01*
X0649060Y0459000D01*
D11*
X0795000Y0515000D03*
D13*
X0782230Y0503959D02*
X0782230Y0453230D01*
X0782230Y0503959D02*
X0795000Y0515000D01*
D11*
X0683000Y0442000D03*
X0767000Y0442000D03*
D13*
X0683000Y0442000D02*
X0666060Y0442000D01*
X0649060Y0459000D01*
X0767000Y0442000D02*
X0771000Y0442000D01*
X0782230Y0453230D01*
D11*
X0656000Y0465107D03*
D14*
X0656107Y0465000D02*
X0656936Y0465000D01*
X0656107Y0465000D02*
X0656000Y0465107D01*
D13*
X0779230Y0457230D02*
X0779230Y0521004D01*
D11*
X0795000Y0535000D03*
D13*
X0779230Y0521004D01*
D11*
X0755900Y0448700D03*
D13*
X0770699Y0448700D01*
X0779230Y0457230D01*
D11*
X0656000Y0545107D03*
D14*
X0656084Y0545023D02*
X0656936Y0545000D01*
X0656084Y0545023D02*
X0656000Y0545107D01*
D13*
X0656936Y0545000D02*
X0656936Y0542000D01*
X0640750Y0525814D01*
X0640750Y0455558D01*
D11*
X0795000Y0455000D03*
X0691000Y0421000D03*
X0759000Y0421000D03*
D13*
X0675308Y0421000D02*
X0640750Y0455558D01*
X0675308Y0421000D02*
X0691000Y0421000D01*
X0759000Y0421000D02*
X0771000Y0421000D01*
X0795000Y0445000D01*
X0795000Y0455000D01*
M02*