G04 EAGLE Gerber RS-274X export*
G75*
%MOMM*%
%FSLAX34Y34*%
%LPD*%
%INSilk Screen*%
%IPPOS*%
%AMOC8*
5,1,8,0,0,$1,22.5*%
G01*
%ADD10C,0.127*%
D10*
X0644169Y0544900D02*
X0644167Y0545048D01*
X0644161Y0545196D01*
X0644151Y0545343D01*
X0644137Y0545491D01*
X0644120Y0545638D01*
X0644098Y0545784D01*
X0644073Y0545930D01*
X0644043Y0546075D01*
X0644010Y0546219D01*
X0643973Y0546362D01*
X0643931Y0546504D01*
X0643887Y0546646D01*
X0643839Y0546785D01*
X0643787Y0546924D01*
X0643730Y0547061D01*
X0643670Y0547196D01*
X0643608Y0547330D01*
X0643608Y0547331D02*
X0643583Y0547398D01*
X0643555Y0547463D01*
X0643523Y0547527D01*
X0643488Y0547590D01*
X0643450Y0547650D01*
X0643409Y0547708D01*
X0643365Y0547765D01*
X0643318Y0547818D01*
X0643268Y0547870D01*
X0643216Y0547918D01*
X0643161Y0547964D01*
X0643104Y0548007D01*
X0643045Y0548047D01*
X0642983Y0548084D01*
X0642920Y0548118D01*
X0642856Y0548148D01*
X0642790Y0548175D01*
X0642722Y0548199D01*
X0642653Y0548219D01*
X0642584Y0548236D01*
X0642514Y0548248D01*
X0642443Y0548258D01*
X0642371Y0548263D01*
X0642300Y0548265D01*
X0642229Y0548263D01*
X0642157Y0548258D01*
X0642086Y0548248D01*
X0642016Y0548236D01*
X0641947Y0548219D01*
X0641878Y0548199D01*
X0641810Y0548175D01*
X0641744Y0548148D01*
X0641680Y0548118D01*
X0641617Y0548084D01*
X0641555Y0548047D01*
X0641496Y0548007D01*
X0641439Y0547964D01*
X0641384Y0547918D01*
X0641332Y0547870D01*
X0641282Y0547818D01*
X0641235Y0547765D01*
X0641191Y0547708D01*
X0641150Y0547650D01*
X0641112Y0547590D01*
X0641076Y0547527D01*
X0641045Y0547463D01*
X0641016Y0547398D01*
X0640992Y0547331D01*
X0640990Y0547330D02*
X0640928Y0547196D01*
X0640868Y0547061D01*
X0640812Y0546924D01*
X0640759Y0546785D01*
X0640712Y0546646D01*
X0640667Y0546505D01*
X0640626Y0546362D01*
X0640589Y0546219D01*
X0640556Y0546075D01*
X0640526Y0545930D01*
X0640501Y0545784D01*
X0640479Y0545638D01*
X0640462Y0545491D01*
X0640448Y0545343D01*
X0640438Y0545196D01*
X0640432Y0545048D01*
X0640430Y0544900D01*
X0644169Y0544900D02*
X0644167Y0544752D01*
X0644161Y0544604D01*
X0644151Y0544457D01*
X0644137Y0544309D01*
X0644120Y0544162D01*
X0644098Y0544016D01*
X0644073Y0543870D01*
X0644043Y0543725D01*
X0644010Y0543581D01*
X0643973Y0543438D01*
X0643931Y0543296D01*
X0643887Y0543155D01*
X0643839Y0543015D01*
X0643787Y0542876D01*
X0643730Y0542739D01*
X0643670Y0542604D01*
X0643608Y0542470D01*
X0643608Y0542469D02*
X0643583Y0542402D01*
X0643555Y0542337D01*
X0643523Y0542273D01*
X0643488Y0542210D01*
X0643450Y0542150D01*
X0643409Y0542092D01*
X0643365Y0542035D01*
X0643318Y0541982D01*
X0643268Y0541930D01*
X0643216Y0541882D01*
X0643161Y0541836D01*
X0643104Y0541793D01*
X0643045Y0541753D01*
X0642983Y0541716D01*
X0642920Y0541682D01*
X0642856Y0541652D01*
X0642790Y0541625D01*
X0642722Y0541601D01*
X0642653Y0541581D01*
X0642584Y0541564D01*
X0642514Y0541552D01*
X0642443Y0541542D01*
X0642371Y0541537D01*
X0642300Y0541535D01*
X0640992Y0542470D02*
X0640929Y0542604D01*
X0640869Y0542739D01*
X0640813Y0542876D01*
X0640761Y0543015D01*
X0640712Y0543154D01*
X0640668Y0543295D01*
X0640627Y0543438D01*
X0640590Y0543581D01*
X0640557Y0543725D01*
X0640527Y0543870D01*
X0640502Y0544016D01*
X0640480Y0544162D01*
X0640463Y0544309D01*
X0640449Y0544457D01*
X0640438Y0544604D01*
X0640433Y0544752D01*
X0640431Y0544900D01*
X0640992Y0542469D02*
X0641016Y0542402D01*
X0641045Y0542337D01*
X0641076Y0542273D01*
X0641112Y0542210D01*
X0641150Y0542150D01*
X0641191Y0542092D01*
X0641235Y0542035D01*
X0641282Y0541982D01*
X0641332Y0541930D01*
X0641384Y0541882D01*
X0641439Y0541836D01*
X0641496Y0541793D01*
X0641555Y0541753D01*
X0641617Y0541716D01*
X0641680Y0541682D01*
X0641744Y0541652D01*
X0641810Y0541625D01*
X0641878Y0541601D01*
X0641947Y0541581D01*
X0642016Y0541564D01*
X0642086Y0541552D01*
X0642157Y0541542D01*
X0642229Y0541537D01*
X0642300Y0541535D01*
X0643796Y0543031D02*
X0640804Y0546769D01*
X0642400Y0528265D02*
X0644269Y0526769D01*
X0642400Y0528265D02*
X0642400Y0521535D01*
X0644269Y0521535D02*
X0640531Y0521535D01*
X0642413Y0508366D02*
X0642333Y0508364D01*
X0642253Y0508358D01*
X0642173Y0508349D01*
X0642094Y0508336D01*
X0642016Y0508319D01*
X0641939Y0508298D01*
X0641863Y0508273D01*
X0641787Y0508245D01*
X0641714Y0508213D01*
X0641641Y0508179D01*
X0641572Y0508140D01*
X0641503Y0508099D01*
X0641437Y0508054D01*
X0641373Y0508006D01*
X0641311Y0507955D01*
X0641252Y0507901D01*
X0641195Y0507844D01*
X0641140Y0507785D01*
X0641090Y0507723D01*
X0641042Y0507659D01*
X0640997Y0507592D01*
X0640955Y0507525D01*
X0640917Y0507454D01*
X0640882Y0507382D01*
X0640851Y0507309D01*
X0640823Y0507233D01*
X0640798Y0507157D01*
X0640776Y0507080D01*
X0640759Y0507002D01*
X0640747Y0506923D01*
X0640738Y0506843D01*
X0640732Y0506763D01*
X0640729Y0506683D01*
X0642413Y0508365D02*
X0642504Y0508363D01*
X0642594Y0508357D01*
X0642684Y0508348D01*
X0642774Y0508335D01*
X0642863Y0508318D01*
X0642951Y0508297D01*
X0643038Y0508273D01*
X0643125Y0508245D01*
X0643209Y0508213D01*
X0643293Y0508178D01*
X0643375Y0508139D01*
X0643455Y0508097D01*
X0643533Y0508052D01*
X0643610Y0508003D01*
X0643685Y0507951D01*
X0643757Y0507896D01*
X0643827Y0507839D01*
X0643894Y0507778D01*
X0643959Y0507715D01*
X0644021Y0507649D01*
X0644080Y0507579D01*
X0644136Y0507509D01*
X0644188Y0507436D01*
X0644239Y0507360D01*
X0644286Y0507282D01*
X0644330Y0507203D01*
X0644370Y0507121D01*
X0644407Y0507039D01*
X0644440Y0506954D01*
X0644470Y0506869D01*
X0641292Y0505374D02*
X0641234Y0505432D01*
X0641179Y0505492D01*
X0641127Y0505554D01*
X0641078Y0505619D01*
X0641031Y0505685D01*
X0640988Y0505754D01*
X0640948Y0505824D01*
X0640911Y0505897D01*
X0640877Y0505971D01*
X0640847Y0506047D01*
X0640819Y0506123D01*
X0640796Y0506201D01*
X0640776Y0506280D01*
X0640759Y0506359D01*
X0640747Y0506440D01*
X0640738Y0506521D01*
X0640733Y0506602D01*
X0640731Y0506683D01*
X0641290Y0505374D02*
X0644469Y0501635D01*
X0640731Y0501635D01*
X0642500Y0481635D02*
X0644369Y0481635D01*
X0642500Y0481635D02*
X0642415Y0481637D01*
X0642330Y0481643D01*
X0642246Y0481652D01*
X0642161Y0481666D01*
X0642078Y0481683D01*
X0641996Y0481704D01*
X0641914Y0481729D01*
X0641834Y0481758D01*
X0641755Y0481790D01*
X0641678Y0481825D01*
X0641603Y0481865D01*
X0641529Y0481907D01*
X0641457Y0481953D01*
X0641388Y0482002D01*
X0641320Y0482054D01*
X0641256Y0482109D01*
X0641194Y0482167D01*
X0641134Y0482228D01*
X0641076Y0482292D01*
X0641024Y0482358D01*
X0640973Y0482425D01*
X0640926Y0482497D01*
X0640881Y0482570D01*
X0640841Y0482644D01*
X0640802Y0482721D01*
X0640769Y0482799D01*
X0640739Y0482878D01*
X0640712Y0482959D01*
X0640689Y0483041D01*
X0640669Y0483123D01*
X0640655Y0483207D01*
X0640643Y0483292D01*
X0640635Y0483376D01*
X0640631Y0483461D01*
X0640631Y0483547D01*
X0640635Y0483632D01*
X0640643Y0483716D01*
X0640655Y0483801D01*
X0640669Y0483884D01*
X0640689Y0483966D01*
X0640712Y0484049D01*
X0640739Y0484129D01*
X0640769Y0484209D01*
X0640802Y0484287D01*
X0640841Y0484364D01*
X0640881Y0484439D01*
X0640926Y0484510D01*
X0640973Y0484582D01*
X0641024Y0484650D01*
X0641076Y0484716D01*
X0641134Y0484780D01*
X0641194Y0484841D01*
X0641256Y0484899D01*
X0641320Y0484954D01*
X0641388Y0485006D01*
X0641457Y0485055D01*
X0641529Y0485101D01*
X0641603Y0485143D01*
X0641678Y0485182D01*
X0641755Y0485218D01*
X0641834Y0485250D01*
X0641914Y0485279D01*
X0641996Y0485304D01*
X0642078Y0485325D01*
X0642161Y0485342D01*
X0642246Y0485356D01*
X0642330Y0485365D01*
X0642415Y0485371D01*
X0642500Y0485373D01*
X0642126Y0488365D02*
X0644369Y0488365D01*
X0642126Y0488365D02*
X0642050Y0488363D01*
X0641975Y0488357D01*
X0641899Y0488348D01*
X0641825Y0488334D01*
X0641751Y0488317D01*
X0641678Y0488296D01*
X0641606Y0488272D01*
X0641536Y0488244D01*
X0641467Y0488212D01*
X0641400Y0488177D01*
X0641335Y0488139D01*
X0641271Y0488097D01*
X0641210Y0488052D01*
X0641152Y0488003D01*
X0641095Y0487953D01*
X0641042Y0487900D01*
X0640990Y0487843D01*
X0640943Y0487785D01*
X0640898Y0487724D01*
X0640856Y0487660D01*
X0640818Y0487595D01*
X0640783Y0487528D01*
X0640751Y0487459D01*
X0640723Y0487389D01*
X0640699Y0487317D01*
X0640678Y0487244D01*
X0640661Y0487170D01*
X0640647Y0487096D01*
X0640638Y0487020D01*
X0640632Y0486945D01*
X0640630Y0486869D01*
X0640632Y0486793D01*
X0640638Y0486718D01*
X0640647Y0486642D01*
X0640661Y0486568D01*
X0640678Y0486494D01*
X0640699Y0486421D01*
X0640723Y0486349D01*
X0640751Y0486278D01*
X0640783Y0486210D01*
X0640818Y0486143D01*
X0640856Y0486078D01*
X0640898Y0486014D01*
X0640943Y0485953D01*
X0640990Y0485895D01*
X0641042Y0485837D01*
X0641095Y0485785D01*
X0641152Y0485734D01*
X0641210Y0485686D01*
X0641271Y0485640D01*
X0641335Y0485599D01*
X0641400Y0485561D01*
X0641467Y0485526D01*
X0641536Y0485494D01*
X0641606Y0485466D01*
X0641678Y0485442D01*
X0641751Y0485421D01*
X0641825Y0485404D01*
X0641899Y0485390D01*
X0641975Y0485381D01*
X0642050Y0485375D01*
X0642126Y0485373D01*
X0642126Y0485374D02*
X0643622Y0485374D01*
X0642874Y0468365D02*
X0644369Y0463131D01*
X0640631Y0463131D01*
X0641752Y0464626D02*
X0641752Y0461635D01*
M02*