G04 EAGLE Gerber RS-274X export*
G75*
%MOMM*%
%FSLAX34Y34*%
%LPD*%
%INoutline*%
%IPPOS*%
%AMOC8*
5,1,8,0,0,$1,22.5*%
G01*
%ADD10C,0.254*%
D10*
X0630000Y0440000D02*
X0630152Y0436514D01*
X0630608Y0433054D01*
X0631363Y0429647D01*
X0632412Y0426319D01*
X0633748Y0423095D01*
X0635359Y0420000D01*
X0637234Y0417057D01*
X0639358Y0414289D01*
X0641716Y0411716D01*
X0644289Y0409358D01*
X0647056Y0407234D01*
X0650000Y0405359D01*
X0653095Y0403748D01*
X0656319Y0402412D01*
X0659646Y0401363D01*
X0663054Y0400608D01*
X0666514Y0400152D01*
X0670000Y0400000D01*
X0780000Y0400000D01*
X0783486Y0400152D01*
X0786945Y0400608D01*
X0790353Y0401363D01*
X0793681Y0402412D01*
X0796905Y0403748D01*
X0800000Y0405359D01*
X0802942Y0407234D01*
X0805712Y0409358D01*
X0808284Y0411716D01*
X0810642Y0414289D01*
X0812766Y0417057D01*
X0814641Y0420000D01*
X0816252Y0423095D01*
X0817588Y0426319D01*
X0818637Y0429647D01*
X0819392Y0433054D01*
X0819848Y0436514D01*
X0820000Y0440000D01*
X0820000Y0560000D01*
X0819848Y0563486D01*
X0819392Y0566946D01*
X0818637Y0570353D01*
X0817588Y0573681D01*
X0816252Y0576905D01*
X0814641Y0580000D01*
X0812766Y0582943D01*
X0810642Y0585712D01*
X0808284Y0588284D01*
X0805712Y0590642D01*
X0802942Y0592766D01*
X0800000Y0594641D01*
X0796905Y0596252D01*
X0793681Y0597588D01*
X0790353Y0598637D01*
X0786945Y0599392D01*
X0783486Y0599848D01*
X0780000Y0600000D01*
X0670000Y0600000D01*
X0666514Y0599848D01*
X0663054Y0599392D01*
X0659646Y0598637D01*
X0656319Y0597588D01*
X0653095Y0596252D01*
X0650000Y0594641D01*
X0647056Y0592766D01*
X0644289Y0590642D01*
X0641716Y0588284D01*
X0639358Y0585712D01*
X0637234Y0582943D01*
X0635359Y0580000D01*
X0633748Y0576905D01*
X0632412Y0573681D01*
X0631363Y0570353D01*
X0630608Y0566946D01*
X0630152Y0563486D01*
X0630000Y0560000D01*
X0630000Y0440000D01*
M02*