G04 EAGLE Gerber RS-274X export*
G75*
%MOMM*%
%FSLAX34Y34*%
%LPD*%
%INComponent side*%
%IPPOS*%
%AMOC8*
5,1,8,0,0,$1,22.5*%
G01*
%ADD10R,2X0.6*%
%ADD11R,2.9X2.6*%
%ADD12R,0.45X1.45*%
%ADD13C,0.25*%
%ADD14C,0.125*%
%ADD15R,0.2X0.3*%
%ADD16C,0.15*%
%ADD17C,0.13*%
%ADD18C,0.7564*%
%ADD19C,0.3*%
G36*
X0739139Y0496713D02*
X0739139Y0496713D01*
X0739208Y0496715D01*
X0739308Y0496740D01*
X0739412Y0496758D01*
X0739476Y0496785D01*
X0739542Y0496802D01*
X0739635Y0496851D01*
X0739731Y0496890D01*
X0739787Y0496931D01*
X0739848Y0496963D01*
X0739927Y0497032D01*
X0740010Y0497093D01*
X0740057Y0497145D01*
X0740108Y0497191D01*
X0740170Y0497275D01*
X0740238Y0497354D01*
X0740270Y0497415D01*
X0740311Y0497472D01*
X0740350Y0497568D01*
X0740399Y0497660D01*
X0740416Y0497727D01*
X0740442Y0497791D01*
X0740459Y0497894D01*
X0740485Y0497995D01*
X0740492Y0498099D01*
X0740498Y0498132D01*
X0740496Y0498155D01*
X0740498Y0498200D01*
X0740498Y0507915D01*
X0740483Y0508053D01*
X0740473Y0508192D01*
X0740463Y0508225D01*
X0740459Y0508258D01*
X0740412Y0508389D01*
X0740371Y0508523D01*
X0740353Y0508551D01*
X0740342Y0508584D01*
X0740266Y0508700D01*
X0740194Y0508820D01*
X0740165Y0508854D01*
X0740153Y0508872D01*
X0740129Y0508896D01*
X0740060Y0508975D01*
X0726725Y0522310D01*
X0726615Y0522397D01*
X0726510Y0522488D01*
X0726480Y0522504D01*
X0726454Y0522525D01*
X0726328Y0522584D01*
X0726204Y0522649D01*
X0726172Y0522657D01*
X0726141Y0522672D01*
X0726005Y0522699D01*
X0725870Y0522735D01*
X0725824Y0522738D01*
X0725802Y0522742D01*
X0725769Y0522742D01*
X0725665Y0522749D01*
X0719518Y0522749D01*
X0719402Y0522736D01*
X0719286Y0522731D01*
X0719231Y0522716D01*
X0719174Y0522709D01*
X0719064Y0522669D01*
X0718952Y0522639D01*
X0718879Y0522603D01*
X0718849Y0522592D01*
X0718824Y0522575D01*
X0718768Y0522548D01*
X0718481Y0522382D01*
X0717835Y0522209D01*
X0716748Y0522209D01*
X0716748Y0525000D01*
X0716745Y0525035D01*
X0716748Y0525071D01*
X0716725Y0525207D01*
X0716709Y0525343D01*
X0716697Y0525377D01*
X0716692Y0525412D01*
X0716639Y0525539D01*
X0716592Y0525669D01*
X0716572Y0525698D01*
X0716559Y0525731D01*
X0716478Y0525843D01*
X0716403Y0525958D01*
X0716378Y0525983D01*
X0716357Y0526011D01*
X0716253Y0526102D01*
X0716153Y0526197D01*
X0716123Y0526215D01*
X0716096Y0526238D01*
X0715973Y0526302D01*
X0715855Y0526372D01*
X0715821Y0526382D01*
X0715790Y0526399D01*
X0715656Y0526433D01*
X0715525Y0526474D01*
X0715489Y0526476D01*
X0715455Y0526485D01*
X0715250Y0526499D01*
X0715215Y0526495D01*
X0715180Y0526498D01*
X0715179Y0526498D01*
X0715043Y0526475D01*
X0714906Y0526459D01*
X0714873Y0526447D01*
X0714838Y0526442D01*
X0714711Y0526389D01*
X0714581Y0526342D01*
X0714551Y0526323D01*
X0714519Y0526309D01*
X0714406Y0526228D01*
X0714292Y0526153D01*
X0714267Y0526127D01*
X0714238Y0526107D01*
X0714148Y0526003D01*
X0714053Y0525903D01*
X0714034Y0525872D01*
X0714012Y0525846D01*
X0713948Y0525723D01*
X0713878Y0525605D01*
X0713867Y0525571D01*
X0713851Y0525539D01*
X0713817Y0525406D01*
X0713776Y0525274D01*
X0713773Y0525239D01*
X0713764Y0525205D01*
X0713751Y0525000D01*
X0713751Y0522209D01*
X0712665Y0522209D01*
X0712019Y0522382D01*
X0711750Y0522538D01*
X0711675Y0522570D01*
X0711605Y0522612D01*
X0711517Y0522639D01*
X0711432Y0522675D01*
X0711352Y0522690D01*
X0711274Y0522714D01*
X0711183Y0522720D01*
X0711092Y0522736D01*
X0711011Y0522732D01*
X0710929Y0522737D01*
X0710839Y0522722D01*
X0710747Y0522716D01*
X0710668Y0522694D01*
X0710588Y0522681D01*
X0710502Y0522646D01*
X0710415Y0522620D01*
X0710344Y0522579D01*
X0710269Y0522549D01*
X0710194Y0522495D01*
X0710114Y0522449D01*
X0710055Y0522394D01*
X0709989Y0522346D01*
X0709928Y0522277D01*
X0709860Y0522214D01*
X0709815Y0522147D01*
X0709762Y0522085D01*
X0709719Y0522004D01*
X0709668Y0521927D01*
X0709639Y0521851D01*
X0709601Y0521779D01*
X0709578Y0521689D01*
X0709546Y0521603D01*
X0709535Y0521522D01*
X0709515Y0521444D01*
X0709504Y0521282D01*
X0709501Y0521261D01*
X0709502Y0521252D01*
X0709501Y0521240D01*
X0709501Y0515492D01*
X0709517Y0515353D01*
X0709526Y0515214D01*
X0709537Y0515182D01*
X0709541Y0515149D01*
X0709588Y0515018D01*
X0709629Y0514884D01*
X0709646Y0514855D01*
X0709658Y0514823D01*
X0709734Y0514707D01*
X0709805Y0514587D01*
X0709835Y0514552D01*
X0709847Y0514534D01*
X0709871Y0514510D01*
X0709940Y0514432D01*
X0710821Y0513551D01*
X0710821Y0504720D01*
X0710825Y0504685D01*
X0710822Y0504649D01*
X0710845Y0504513D01*
X0710861Y0504377D01*
X0710873Y0504343D01*
X0710878Y0504308D01*
X0710930Y0504181D01*
X0710978Y0504051D01*
X0710997Y0504022D01*
X0711011Y0503989D01*
X0711092Y0503877D01*
X0711167Y0503762D01*
X0711193Y0503737D01*
X0711213Y0503709D01*
X0711317Y0503618D01*
X0711417Y0503523D01*
X0711448Y0503504D01*
X0711474Y0503482D01*
X0711597Y0503418D01*
X0711715Y0503348D01*
X0711748Y0503337D01*
X0711781Y0503320D01*
X0711914Y0503287D01*
X0712046Y0503246D01*
X0712081Y0503244D01*
X0712115Y0503234D01*
X0712320Y0503221D01*
X0723137Y0503221D01*
X0728668Y0497690D01*
X0728777Y0497603D01*
X0728882Y0497512D01*
X0728912Y0497496D01*
X0728939Y0497475D01*
X0729064Y0497416D01*
X0729189Y0497351D01*
X0729221Y0497343D01*
X0729252Y0497328D01*
X0729388Y0497300D01*
X0729522Y0497265D01*
X0729568Y0497262D01*
X0729590Y0497257D01*
X0729624Y0497258D01*
X0729728Y0497251D01*
X0737829Y0497251D01*
X0737940Y0497140D01*
X0738022Y0497074D01*
X0738096Y0497003D01*
X0738156Y0496967D01*
X0738211Y0496925D01*
X0738305Y0496881D01*
X0738395Y0496828D01*
X0738461Y0496807D01*
X0738524Y0496778D01*
X0738626Y0496757D01*
X0738726Y0496726D01*
X0738795Y0496721D01*
X0738862Y0496706D01*
X0738966Y0496709D01*
X0739071Y0496702D01*
X0739139Y0496713D01*
G37*
D10*
X0644500Y0545000D03*
X0679500Y0535000D03*
X0644500Y0525000D03*
X0679500Y0515000D03*
X0644500Y0505000D03*
X0679500Y0495000D03*
X0644500Y0485000D03*
X0679500Y0475000D03*
X0644500Y0465000D03*
X0679500Y0455000D03*
D11*
X0662000Y0569000D03*
X0662000Y0431000D03*
D12*
X0734750Y0532000D03*
X0728250Y0532000D03*
X0721750Y0532000D03*
X0715250Y0532000D03*
X0715250Y0488000D03*
X0721750Y0488000D03*
X0728250Y0488000D03*
X0734750Y0488000D03*
D13*
X0697525Y0534350D02*
X0695025Y0534350D01*
X0695025Y0536850D01*
X0697525Y0536850D01*
X0697525Y0534350D01*
X0697525Y0536725D02*
X0695025Y0536725D01*
X0704275Y0534350D02*
X0706775Y0534350D01*
X0704275Y0534350D02*
X0704275Y0536850D01*
X0706775Y0536850D01*
X0706775Y0534350D01*
X0706775Y0536725D02*
X0704275Y0536725D01*
X0733824Y0470250D02*
X0736324Y0470250D01*
X0733824Y0470250D02*
X0733824Y0472750D01*
X0736324Y0472750D01*
X0736324Y0470250D01*
X0736324Y0472625D02*
X0733824Y0472625D01*
X0743075Y0470250D02*
X0745575Y0470250D01*
X0743075Y0470250D02*
X0743075Y0472750D01*
X0745575Y0472750D01*
X0745575Y0470250D01*
X0745575Y0472625D02*
X0743075Y0472625D01*
D10*
X0805500Y0455000D03*
X0770500Y0465000D03*
X0805500Y0475000D03*
X0770500Y0485000D03*
X0805500Y0495000D03*
X0770500Y0505000D03*
X0805500Y0515000D03*
X0770500Y0525000D03*
X0805500Y0535000D03*
X0770500Y0545000D03*
D11*
X0788000Y0431000D03*
X0788000Y0569000D03*
D14*
X0705288Y0519975D02*
X0701538Y0519975D01*
X0705288Y0519975D02*
X0705288Y0516225D01*
X0701538Y0516225D01*
X0701538Y0519975D01*
X0701538Y0517412D02*
X0705288Y0517412D01*
X0705288Y0518598D02*
X0701538Y0518598D01*
X0701538Y0519786D02*
X0705288Y0519786D01*
X0698661Y0519975D02*
X0694911Y0519975D01*
X0698661Y0519975D02*
X0698661Y0516225D01*
X0694911Y0516225D01*
X0694911Y0519975D01*
X0694911Y0517412D02*
X0698661Y0517412D01*
X0698661Y0518598D02*
X0694911Y0518598D01*
X0694911Y0519786D02*
X0698661Y0519786D01*
X0701639Y0501375D02*
X0705389Y0501375D01*
X0705389Y0497625D01*
X0701639Y0497625D01*
X0701639Y0501375D01*
X0701639Y0498812D02*
X0705389Y0498812D01*
X0705389Y0499998D02*
X0701639Y0499998D01*
X0701639Y0501186D02*
X0705389Y0501186D01*
X0698760Y0501375D02*
X0695010Y0501375D01*
X0698760Y0501375D02*
X0698760Y0497625D01*
X0695010Y0497625D01*
X0695010Y0501375D01*
X0695010Y0498812D02*
X0698760Y0498812D01*
X0698760Y0499998D02*
X0695010Y0499998D01*
X0695010Y0501186D02*
X0698760Y0501186D01*
X0701639Y0482875D02*
X0705389Y0482875D01*
X0705389Y0479125D01*
X0701639Y0479125D01*
X0701639Y0482875D01*
X0701639Y0480312D02*
X0705389Y0480312D01*
X0705389Y0481499D02*
X0701639Y0481499D01*
X0701639Y0482686D02*
X0705389Y0482686D01*
X0698760Y0482875D02*
X0695010Y0482875D01*
X0698760Y0482875D02*
X0698760Y0479125D01*
X0695010Y0479125D01*
X0695010Y0482875D01*
X0695010Y0480312D02*
X0698760Y0480312D01*
X0698760Y0481499D02*
X0695010Y0481499D01*
X0695010Y0482686D02*
X0698760Y0482686D01*
D15*
X0715000Y0468500D03*
X0719000Y0468500D03*
X0723000Y0468500D03*
X0727000Y0468500D03*
X0727000Y0474500D03*
X0723000Y0474500D03*
X0719000Y0474500D03*
X0715000Y0474500D03*
D16*
X0703514Y0481000D02*
X0708814Y0486300D01*
X0713550Y0486300D02*
X0715250Y0488000D01*
X0713550Y0486300D02*
X0708814Y0486300D01*
X0716750Y0483100D02*
X0716750Y0479611D01*
X0716750Y0483100D02*
X0713550Y0486300D01*
X0719000Y0477361D02*
X0719000Y0474500D01*
X0719000Y0477361D02*
X0716750Y0479611D01*
X0721850Y0488100D02*
X0721850Y0495489D01*
X0721850Y0488100D02*
X0721750Y0488000D01*
X0721850Y0495489D02*
X0719239Y0498100D01*
X0708100Y0498100D01*
X0706700Y0499500D01*
X0703514Y0499500D01*
X0722750Y0474750D02*
X0723000Y0474500D01*
X0721750Y0478528D02*
X0721750Y0488000D01*
X0722750Y0477528D02*
X0722750Y0474750D01*
X0722750Y0477528D02*
X0721750Y0478528D01*
X0728250Y0488000D02*
X0728250Y0495250D01*
X0722300Y0501200D02*
X0710800Y0501200D01*
X0708800Y0503200D01*
X0708800Y0512714D02*
X0703413Y0518100D01*
X0722300Y0501200D02*
X0728250Y0495250D01*
X0708800Y0503200D02*
X0708800Y0512714D01*
X0726800Y0474700D02*
X0727000Y0474500D01*
X0726800Y0474700D02*
X0726800Y0483350D01*
X0728250Y0484800D02*
X0728250Y0488000D01*
X0728250Y0484800D02*
X0726800Y0483350D01*
D17*
X0746829Y0480613D02*
X0746829Y0477986D01*
X0757850Y0466967D01*
X0757850Y0464487D01*
X0755716Y0466620D01*
X0748168Y0466620D01*
X0748301Y0466697D01*
X0749128Y0467524D01*
X0749712Y0468536D01*
X0750014Y0469664D01*
X0750014Y0470900D01*
X0744925Y0470900D01*
X0744925Y0472100D01*
X0750014Y0472100D01*
X0750014Y0473335D01*
X0749712Y0474463D01*
X0749128Y0475476D01*
X0748301Y0476303D01*
X0747289Y0476887D01*
X0746160Y0477190D01*
X0744925Y0477190D01*
X0744925Y0472100D01*
X0743725Y0472100D01*
X0743725Y0477190D01*
X0742490Y0477190D01*
X0741361Y0476887D01*
X0740348Y0476303D01*
X0739522Y0475476D01*
X0739372Y0475218D01*
X0738170Y0476420D01*
X0738170Y0478172D01*
X0739650Y0479652D01*
X0739650Y0496348D01*
X0738098Y0497900D01*
X0729376Y0497900D01*
X0723406Y0503870D01*
X0711906Y0503870D01*
X0711470Y0504306D01*
X0711470Y0513820D01*
X0709906Y0515383D01*
X0708563Y0516726D01*
X0708563Y0521332D01*
X0706646Y0523250D01*
X0700206Y0523250D01*
X0700206Y0523844D01*
X0705693Y0530450D01*
X0708390Y0530450D01*
X0710415Y0532475D01*
X0714774Y0532475D01*
X0714774Y0531525D01*
X0709810Y0531525D01*
X0709810Y0524330D01*
X0710027Y0523519D01*
X0710447Y0522791D01*
X0711041Y0522197D01*
X0711769Y0521777D01*
X0712580Y0521560D01*
X0714774Y0521560D01*
X0714774Y0531525D01*
X0715725Y0531525D01*
X0715725Y0521560D01*
X0717920Y0521560D01*
X0718730Y0521777D01*
X0719290Y0522100D01*
X0726016Y0522100D01*
X0746829Y0501287D01*
X0746829Y0480613D01*
X0715000Y0468500D02*
X0715000Y0468500D01*
X0719000Y0468500D01*
X0719000Y0468500D01*
X0718810Y0468500D01*
X0715000Y0468500D01*
X0719000Y0468500D02*
X0719000Y0468500D01*
X0723000Y0468500D01*
X0723000Y0468500D01*
X0722810Y0468500D01*
X0719000Y0468500D01*
X0700073Y0475850D02*
X0698630Y0474407D01*
X0700073Y0475850D02*
X0700117Y0475850D01*
X0700200Y0475932D01*
X0700282Y0475850D01*
X0706746Y0475850D01*
X0708664Y0477768D01*
X0708664Y0482374D01*
X0709920Y0483630D01*
X0710350Y0483630D01*
X0710350Y0479652D01*
X0711902Y0478100D01*
X0712352Y0478100D01*
X0711350Y0477098D01*
X0711350Y0471902D01*
X0711391Y0471860D01*
X0711027Y0471231D01*
X0710810Y0470420D01*
X0710810Y0468500D01*
X0715000Y0468500D01*
X0715000Y0468500D01*
X0710810Y0468500D01*
X0710810Y0466620D01*
X0706417Y0466620D01*
X0698630Y0474407D01*
X0723000Y0468500D02*
X0723000Y0468500D01*
X0727000Y0468500D01*
X0727000Y0468500D01*
X0723000Y0468500D01*
X0783150Y0523687D02*
X0783150Y0529098D01*
X0781598Y0530650D01*
X0759402Y0530650D01*
X0757850Y0529098D01*
X0757850Y0520901D01*
X0759402Y0519350D01*
X0777813Y0519350D01*
X0783180Y0513983D01*
X0783180Y0462617D01*
X0783150Y0462587D01*
X0783150Y0469097D01*
X0781598Y0470650D01*
X0763133Y0470650D01*
X0753170Y0480613D01*
X0753170Y0503913D01*
X0734983Y0522100D01*
X0735716Y0522100D01*
X0753530Y0504287D01*
X0753530Y0489487D01*
X0757850Y0485167D01*
X0757850Y0480901D01*
X0759402Y0479350D01*
X0781598Y0479350D01*
X0783150Y0480901D01*
X0783150Y0489098D01*
X0781598Y0490650D01*
X0761333Y0490650D01*
X0759870Y0492113D01*
X0759870Y0499350D01*
X0781598Y0499350D01*
X0783150Y0500901D01*
X0783150Y0509098D01*
X0781598Y0510650D01*
X0759402Y0510650D01*
X0757850Y0509098D01*
X0757850Y0508932D01*
X0739650Y0527133D01*
X0739650Y0540348D01*
X0738170Y0541828D01*
X0738170Y0548313D01*
X0736313Y0550170D01*
X0729013Y0557470D01*
X0679689Y0557470D01*
X0679689Y0568350D01*
X0662650Y0568350D01*
X0662650Y0569650D01*
X0679689Y0569650D01*
X0679689Y0582420D01*
X0679473Y0583231D01*
X0679053Y0583959D01*
X0678459Y0584553D01*
X0677731Y0584973D01*
X0676920Y0585190D01*
X0662650Y0585190D01*
X0662650Y0569650D01*
X0661350Y0569650D01*
X0661350Y0585190D01*
X0647080Y0585190D01*
X0646269Y0584973D01*
X0645541Y0584553D01*
X0644947Y0583959D01*
X0644526Y0583231D01*
X0644310Y0582420D01*
X0644310Y0569650D01*
X0661350Y0569650D01*
X0661350Y0568350D01*
X0644310Y0568350D01*
X0644310Y0555580D01*
X0644526Y0554769D01*
X0644947Y0554041D01*
X0645541Y0553447D01*
X0646269Y0553027D01*
X0647080Y0552810D01*
X0661350Y0552810D01*
X0661350Y0568350D01*
X0662650Y0568350D01*
X0662650Y0552810D01*
X0673627Y0552810D01*
X0659969Y0539152D01*
X0659969Y0530020D01*
X0659536Y0530453D01*
X0657172Y0531432D01*
X0654614Y0531432D01*
X0652726Y0530650D01*
X0634650Y0530650D01*
X0634650Y0539350D01*
X0653091Y0539350D01*
X0654721Y0538675D01*
X0657279Y0538675D01*
X0659643Y0539654D01*
X0661453Y0541464D01*
X0662432Y0543828D01*
X0662432Y0546386D01*
X0661453Y0548750D01*
X0659643Y0550560D01*
X0657279Y0551539D01*
X0654721Y0551539D01*
X0652574Y0550650D01*
X0634650Y0550650D01*
X0634650Y0560000D01*
X0634952Y0564614D01*
X0637341Y0573528D01*
X0637341Y0573528D01*
X0641955Y0581520D01*
X0648480Y0588045D01*
X0656472Y0592659D01*
X0665386Y0595048D01*
X0670000Y0595350D01*
X0711861Y0595350D01*
X0708293Y0592138D01*
X0708293Y0592138D01*
X0704800Y0584293D01*
X0704800Y0575707D01*
X0708293Y0567862D01*
X0708293Y0567862D01*
X0708293Y0567862D01*
X0714675Y0562117D01*
X0714675Y0562117D01*
X0722841Y0559463D01*
X0722842Y0559463D01*
X0731381Y0560361D01*
X0738818Y0564654D01*
X0738818Y0564654D01*
X0743865Y0571601D01*
X0745650Y0580000D01*
X0745650Y0580000D01*
X0743865Y0588399D01*
X0743865Y0588399D01*
X0738818Y0595346D01*
X0738818Y0595346D01*
X0738818Y0595346D01*
X0738810Y0595350D01*
X0780000Y0595350D01*
X0784614Y0595048D01*
X0793528Y0592659D01*
X0801520Y0588045D01*
X0808045Y0581520D01*
X0812659Y0573528D01*
X0815048Y0564614D01*
X0815350Y0560000D01*
X0815350Y0540650D01*
X0798167Y0540650D01*
X0796279Y0541432D01*
X0793721Y0541432D01*
X0791357Y0540453D01*
X0789547Y0538643D01*
X0788567Y0536279D01*
X0788567Y0533721D01*
X0789547Y0531357D01*
X0791357Y0529547D01*
X0793721Y0528568D01*
X0796279Y0528568D01*
X0798167Y0529350D01*
X0815350Y0529350D01*
X0815350Y0520650D01*
X0798167Y0520650D01*
X0796279Y0521432D01*
X0793721Y0521432D01*
X0791357Y0520453D01*
X0789547Y0518643D01*
X0789151Y0517686D01*
X0783150Y0523687D01*
X0769850Y0538810D02*
X0769850Y0544350D01*
X0771150Y0544350D01*
X0771150Y0538810D01*
X0780920Y0538810D01*
X0781731Y0539027D01*
X0782459Y0539447D01*
X0783053Y0540041D01*
X0783473Y0540769D01*
X0783690Y0541580D01*
X0783690Y0544350D01*
X0771150Y0544350D01*
X0771150Y0545650D01*
X0783690Y0545650D01*
X0783690Y0548420D01*
X0783473Y0549231D01*
X0783053Y0549959D01*
X0782459Y0550553D01*
X0781731Y0550973D01*
X0780920Y0551190D01*
X0771150Y0551190D01*
X0771150Y0545650D01*
X0769850Y0545650D01*
X0769850Y0551190D01*
X0760080Y0551190D01*
X0759269Y0550973D01*
X0758541Y0550553D01*
X0757947Y0549959D01*
X0757527Y0549231D01*
X0757310Y0548420D01*
X0757310Y0545650D01*
X0769850Y0545650D01*
X0769850Y0544350D01*
X0757310Y0544350D01*
X0757310Y0541580D01*
X0757527Y0540769D01*
X0757947Y0540041D01*
X0758541Y0539447D01*
X0759269Y0539027D01*
X0760080Y0538810D01*
X0769850Y0538810D01*
X0788650Y0568350D02*
X0805690Y0568350D01*
X0788650Y0568350D02*
X0788650Y0569650D01*
X0805690Y0569650D01*
X0805690Y0582420D01*
X0805473Y0583231D01*
X0805053Y0583959D01*
X0804459Y0584553D01*
X0803730Y0584973D01*
X0802920Y0585190D01*
X0788650Y0585190D01*
X0788650Y0569650D01*
X0787350Y0569650D01*
X0787350Y0585190D01*
X0773079Y0585190D01*
X0772269Y0584973D01*
X0771541Y0584553D01*
X0770947Y0583959D01*
X0770527Y0583231D01*
X0770310Y0582420D01*
X0770310Y0569650D01*
X0787350Y0569650D01*
X0787350Y0568350D01*
X0770310Y0568350D01*
X0770310Y0555580D01*
X0770527Y0554769D01*
X0770947Y0554041D01*
X0771541Y0553447D01*
X0772269Y0553027D01*
X0773079Y0552810D01*
X0787350Y0552810D01*
X0787350Y0568350D01*
X0788650Y0568350D01*
X0788650Y0552810D01*
X0802920Y0552810D01*
X0803730Y0553027D01*
X0804459Y0553447D01*
X0805053Y0554041D01*
X0805473Y0554769D01*
X0805690Y0555580D01*
X0805690Y0568350D01*
X0680150Y0461190D02*
X0680150Y0455650D01*
X0678850Y0455650D01*
X0678850Y0461190D01*
X0669080Y0461190D01*
X0668269Y0460972D01*
X0667540Y0460553D01*
X0666947Y0459959D01*
X0666527Y0459231D01*
X0666310Y0458420D01*
X0666310Y0455650D01*
X0678850Y0455650D01*
X0678850Y0454350D01*
X0666310Y0454350D01*
X0666310Y0453466D01*
X0659883Y0459893D01*
X0661453Y0461464D01*
X0662432Y0463828D01*
X0662432Y0466385D01*
X0661453Y0468750D01*
X0659643Y0470560D01*
X0657279Y0471539D01*
X0654721Y0471539D01*
X0652574Y0470650D01*
X0634650Y0470650D01*
X0634650Y0479350D01*
X0653091Y0479350D01*
X0654721Y0478675D01*
X0657279Y0478675D01*
X0659643Y0479654D01*
X0661453Y0481464D01*
X0662432Y0483828D01*
X0662432Y0486385D01*
X0661453Y0488750D01*
X0659643Y0490560D01*
X0657279Y0491539D01*
X0654721Y0491539D01*
X0652574Y0490650D01*
X0634650Y0490650D01*
X0634650Y0499350D01*
X0653091Y0499350D01*
X0654721Y0498675D01*
X0657279Y0498675D01*
X0659643Y0499654D01*
X0661453Y0501464D01*
X0662432Y0503828D01*
X0662432Y0506385D01*
X0661453Y0508750D01*
X0659643Y0510560D01*
X0657279Y0511539D01*
X0654721Y0511539D01*
X0652574Y0510650D01*
X0634650Y0510650D01*
X0634650Y0519350D01*
X0652726Y0519350D01*
X0654614Y0518568D01*
X0657172Y0518568D01*
X0659536Y0519547D01*
X0661346Y0521357D01*
X0661625Y0522031D01*
X0661825Y0521830D01*
X0666850Y0516806D01*
X0666850Y0510901D01*
X0668402Y0509350D01*
X0690598Y0509350D01*
X0692150Y0510901D01*
X0692150Y0514355D01*
X0693366Y0513138D01*
X0693366Y0504362D01*
X0691735Y0502732D01*
X0691735Y0499512D01*
X0690598Y0500650D01*
X0668402Y0500650D01*
X0666850Y0499098D01*
X0666850Y0490901D01*
X0668402Y0489350D01*
X0690598Y0489350D01*
X0692150Y0490901D01*
X0692150Y0495854D01*
X0693466Y0494538D01*
X0693466Y0485961D01*
X0691735Y0484232D01*
X0691735Y0479512D01*
X0690598Y0480650D01*
X0668402Y0480650D01*
X0666850Y0479097D01*
X0666850Y0470902D01*
X0668402Y0469350D01*
X0690598Y0469350D01*
X0691828Y0470580D01*
X0692783Y0470580D01*
X0703583Y0459780D01*
X0752882Y0459780D01*
X0755879Y0456783D01*
X0755879Y0456783D01*
X0757780Y0454883D01*
X0757179Y0455132D01*
X0754620Y0455132D01*
X0752257Y0454153D01*
X0750690Y0452586D01*
X0744606Y0458670D01*
X0704894Y0458670D01*
X0703330Y0457106D01*
X0697894Y0451670D01*
X0692690Y0451670D01*
X0692690Y0454350D01*
X0680150Y0454350D01*
X0680150Y0455650D01*
X0692690Y0455650D01*
X0692690Y0458420D01*
X0692473Y0459231D01*
X0692052Y0459959D01*
X0691459Y0460553D01*
X0690731Y0460972D01*
X0689920Y0461190D01*
X0680150Y0461190D01*
X0662650Y0447190D02*
X0662650Y0431650D01*
X0661350Y0431650D01*
X0661350Y0447190D01*
X0647080Y0447190D01*
X0646269Y0446973D01*
X0645541Y0446552D01*
X0644947Y0445959D01*
X0644526Y0445231D01*
X0644310Y0444420D01*
X0644310Y0431650D01*
X0661350Y0431650D01*
X0661350Y0430349D01*
X0644310Y0430349D01*
X0644310Y0417580D01*
X0644526Y0416769D01*
X0644947Y0416041D01*
X0645541Y0415447D01*
X0646269Y0415027D01*
X0647080Y0414810D01*
X0661350Y0414810D01*
X0661350Y0430349D01*
X0662650Y0430349D01*
X0662650Y0414810D01*
X0676920Y0414810D01*
X0677731Y0415027D01*
X0678459Y0415447D01*
X0679053Y0416041D01*
X0679473Y0416769D01*
X0679689Y0417580D01*
X0679689Y0422408D01*
X0681721Y0421567D01*
X0684278Y0421567D01*
X0684568Y0421688D01*
X0684568Y0419721D01*
X0685547Y0417357D01*
X0687357Y0415546D01*
X0689721Y0414568D01*
X0692279Y0414568D01*
X0694643Y0415546D01*
X0696453Y0417357D01*
X0697432Y0419721D01*
X0697432Y0422279D01*
X0697029Y0423253D01*
X0715106Y0441330D01*
X0734394Y0441330D01*
X0752825Y0422899D01*
X0752568Y0422279D01*
X0752568Y0419721D01*
X0753546Y0417357D01*
X0755357Y0415546D01*
X0757721Y0414568D01*
X0760279Y0414568D01*
X0762643Y0415546D01*
X0764453Y0417357D01*
X0765432Y0419721D01*
X0765432Y0421688D01*
X0765721Y0421567D01*
X0768279Y0421567D01*
X0770310Y0422408D01*
X0770310Y0417580D01*
X0770527Y0416769D01*
X0770947Y0416041D01*
X0771541Y0415447D01*
X0772269Y0415027D01*
X0773079Y0414810D01*
X0787350Y0414810D01*
X0787350Y0430349D01*
X0788650Y0430349D01*
X0788650Y0414810D01*
X0802920Y0414810D01*
X0803730Y0415027D01*
X0804459Y0415447D01*
X0805053Y0416041D01*
X0805473Y0416769D01*
X0805690Y0417580D01*
X0805690Y0430349D01*
X0788650Y0430349D01*
X0788650Y0431650D01*
X0805690Y0431650D01*
X0805690Y0444420D01*
X0805473Y0445231D01*
X0805053Y0445959D01*
X0804459Y0446552D01*
X0803730Y0446973D01*
X0802920Y0447190D01*
X0788650Y0447190D01*
X0788650Y0431650D01*
X0787350Y0431650D01*
X0787350Y0447190D01*
X0773079Y0447190D01*
X0772269Y0446973D01*
X0771543Y0446552D01*
X0770643Y0447453D01*
X0768279Y0448432D01*
X0765721Y0448432D01*
X0763357Y0447453D01*
X0761630Y0445726D01*
X0762332Y0447421D01*
X0762332Y0449979D01*
X0761353Y0452343D01*
X0759543Y0454153D01*
X0758028Y0454780D01*
X0785017Y0454780D01*
X0788017Y0457780D01*
X0790020Y0459783D01*
X0790020Y0470884D01*
X0791357Y0469547D01*
X0793721Y0468568D01*
X0796279Y0468568D01*
X0798167Y0469350D01*
X0815350Y0469350D01*
X0815350Y0460650D01*
X0798167Y0460650D01*
X0796279Y0461432D01*
X0793721Y0461432D01*
X0791357Y0460453D01*
X0789547Y0458643D01*
X0788567Y0456278D01*
X0788567Y0453721D01*
X0789547Y0451357D01*
X0791357Y0449547D01*
X0793721Y0448568D01*
X0796279Y0448568D01*
X0798167Y0449350D01*
X0815350Y0449350D01*
X0815350Y0440000D01*
X0815048Y0435386D01*
X0812659Y0426472D01*
X0808045Y0418480D01*
X0801520Y0411955D01*
X0793528Y0407341D01*
X0784614Y0404951D01*
X0780000Y0404650D01*
X0738810Y0404650D01*
X0738818Y0404654D01*
X0738818Y0404654D01*
X0738818Y0404654D01*
X0743865Y0411601D01*
X0743865Y0411601D01*
X0745650Y0420000D01*
X0743865Y0428399D01*
X0743865Y0428399D01*
X0738818Y0435346D01*
X0738818Y0435346D01*
X0738818Y0435346D01*
X0731381Y0439639D01*
X0731381Y0439639D01*
X0722842Y0440537D01*
X0722841Y0440537D01*
X0714675Y0437883D01*
X0714675Y0437883D01*
X0708293Y0432138D01*
X0708293Y0432138D01*
X0704800Y0424293D01*
X0704800Y0415707D01*
X0708293Y0407862D01*
X0708293Y0407862D01*
X0711861Y0404650D01*
X0670000Y0404650D01*
X0665386Y0404951D01*
X0656472Y0407341D01*
X0648480Y0411955D01*
X0641955Y0418480D01*
X0637341Y0426472D01*
X0634952Y0435386D01*
X0634650Y0440000D01*
X0634650Y0459350D01*
X0652874Y0459350D01*
X0664329Y0447894D01*
X0665034Y0447190D01*
X0662650Y0447190D01*
X0695986Y0550470D02*
X0698613Y0550470D01*
X0695986Y0550470D02*
X0686167Y0540650D01*
X0670433Y0540650D01*
X0680913Y0551130D01*
X0726387Y0551130D01*
X0731829Y0545687D01*
X0731829Y0541900D01*
X0731420Y0541900D01*
X0731420Y0545063D01*
X0726013Y0550470D01*
X0723387Y0550470D01*
X0698613Y0550470D01*
X0710361Y0406000D02*
X0661476Y0406000D01*
X0739795Y0406000D02*
X0788524Y0406000D01*
X0707787Y0409000D02*
X0653598Y0409000D01*
X0741975Y0409000D02*
X0796401Y0409000D01*
X0706452Y0412000D02*
X0648435Y0412000D01*
X0743950Y0412000D02*
X0801564Y0412000D01*
X0646371Y0415000D02*
X0645435Y0415000D01*
X0661350Y0415000D02*
X0662650Y0415000D01*
X0677629Y0415000D02*
X0688678Y0415000D01*
X0693322Y0415000D02*
X0705116Y0415000D01*
X0744586Y0415000D02*
X0756678Y0415000D01*
X0761322Y0415000D02*
X0772371Y0415000D01*
X0787350Y0415000D02*
X0788650Y0415000D01*
X0803629Y0415000D02*
X0804565Y0415000D01*
X0644310Y0418000D02*
X0642435Y0418000D01*
X0661350Y0418000D02*
X0662650Y0418000D01*
X0679689Y0418000D02*
X0685281Y0418000D01*
X0696718Y0418000D02*
X0704800Y0418000D01*
X0745225Y0418000D02*
X0753281Y0418000D01*
X0764719Y0418000D02*
X0770310Y0418000D01*
X0787350Y0418000D02*
X0788650Y0418000D01*
X0805690Y0418000D02*
X0807565Y0418000D01*
X0644310Y0421000D02*
X0640500Y0421000D01*
X0661350Y0421000D02*
X0662650Y0421000D01*
X0679689Y0421000D02*
X0684568Y0421000D01*
X0697432Y0421000D02*
X0704800Y0421000D01*
X0745437Y0421000D02*
X0752568Y0421000D01*
X0765432Y0421000D02*
X0770310Y0421000D01*
X0787350Y0421000D02*
X0788650Y0421000D01*
X0805690Y0421000D02*
X0809500Y0421000D01*
X0644310Y0424000D02*
X0638768Y0424000D01*
X0661350Y0424000D02*
X0662650Y0424000D01*
X0697776Y0424000D02*
X0704800Y0424000D01*
X0744800Y0424000D02*
X0751724Y0424000D01*
X0787350Y0424000D02*
X0788650Y0424000D01*
X0805690Y0424000D02*
X0811232Y0424000D01*
X0644310Y0427000D02*
X0637199Y0427000D01*
X0661350Y0427000D02*
X0662650Y0427000D01*
X0700776Y0427000D02*
X0706006Y0427000D01*
X0744162Y0427000D02*
X0748724Y0427000D01*
X0787350Y0427000D02*
X0788650Y0427000D01*
X0805690Y0427000D02*
X0812801Y0427000D01*
X0644310Y0430000D02*
X0636396Y0430000D01*
X0661350Y0430000D02*
X0662650Y0430000D01*
X0703776Y0430000D02*
X0707342Y0430000D01*
X0742702Y0430000D02*
X0745724Y0430000D01*
X0787350Y0430000D02*
X0788650Y0430000D01*
X0805690Y0430000D02*
X0813604Y0430000D01*
X0644310Y0433000D02*
X0635592Y0433000D01*
X0661350Y0433000D02*
X0662650Y0433000D01*
X0706776Y0433000D02*
X0709251Y0433000D01*
X0740522Y0433000D02*
X0742724Y0433000D01*
X0787350Y0433000D02*
X0788650Y0433000D01*
X0805690Y0433000D02*
X0814408Y0433000D01*
X0644310Y0436000D02*
X0634912Y0436000D01*
X0661350Y0436000D02*
X0662650Y0436000D01*
X0709776Y0436000D02*
X0712583Y0436000D01*
X0737685Y0436000D02*
X0739723Y0436000D01*
X0787350Y0436000D02*
X0788650Y0436000D01*
X0805690Y0436000D02*
X0815088Y0436000D01*
X0644310Y0439000D02*
X0634716Y0439000D01*
X0661350Y0439000D02*
X0662650Y0439000D01*
X0712776Y0439000D02*
X0718112Y0439000D01*
X0732488Y0439000D02*
X0736724Y0439000D01*
X0787350Y0439000D02*
X0788650Y0439000D01*
X0805690Y0439000D02*
X0815284Y0439000D01*
X0644310Y0442000D02*
X0634650Y0442000D01*
X0661350Y0442000D02*
X0662650Y0442000D01*
X0787350Y0442000D02*
X0788650Y0442000D01*
X0805690Y0442000D02*
X0815350Y0442000D01*
X0644465Y0445000D02*
X0634650Y0445000D01*
X0661350Y0445000D02*
X0662650Y0445000D01*
X0787350Y0445000D02*
X0788650Y0445000D01*
X0805535Y0445000D02*
X0815350Y0445000D01*
X0664224Y0448000D02*
X0634650Y0448000D01*
X0762332Y0448000D02*
X0764678Y0448000D01*
X0769322Y0448000D02*
X0815350Y0448000D01*
X0661224Y0451000D02*
X0634650Y0451000D01*
X0761909Y0451000D02*
X0789903Y0451000D01*
X0658224Y0454000D02*
X0634650Y0454000D01*
X0665776Y0454000D02*
X0666310Y0454000D01*
X0692690Y0454000D02*
X0700224Y0454000D01*
X0749276Y0454000D02*
X0752103Y0454000D01*
X0759696Y0454000D02*
X0788567Y0454000D01*
X0655224Y0457000D02*
X0634650Y0457000D01*
X0662776Y0457000D02*
X0666310Y0457000D01*
X0678850Y0457000D02*
X0680150Y0457000D01*
X0692690Y0457000D02*
X0703224Y0457000D01*
X0746276Y0457000D02*
X0755663Y0457000D01*
X0787236Y0457000D02*
X0788867Y0457000D01*
X0666989Y0460000D02*
X0659989Y0460000D01*
X0678850Y0460000D02*
X0680150Y0460000D01*
X0692011Y0460000D02*
X0703363Y0460000D01*
X0790020Y0460000D02*
X0790904Y0460000D01*
X0700363Y0463000D02*
X0662089Y0463000D01*
X0783150Y0463000D02*
X0783180Y0463000D01*
X0790020Y0463000D02*
X0815350Y0463000D01*
X0697363Y0466000D02*
X0662432Y0466000D01*
X0756337Y0466000D02*
X0757850Y0466000D01*
X0783150Y0466000D02*
X0783180Y0466000D01*
X0790020Y0466000D02*
X0815350Y0466000D01*
X0694363Y0469000D02*
X0661203Y0469000D01*
X0704037Y0469000D02*
X0710810Y0469000D01*
X0749837Y0469000D02*
X0755817Y0469000D01*
X0783150Y0469000D02*
X0783180Y0469000D01*
X0790020Y0469000D02*
X0792677Y0469000D01*
X0797322Y0469000D02*
X0815350Y0469000D01*
X0666850Y0472000D02*
X0634650Y0472000D01*
X0701037Y0472000D02*
X0711350Y0472000D01*
X0744925Y0472000D02*
X0752817Y0472000D01*
X0761783Y0472000D02*
X0783180Y0472000D01*
X0666850Y0475000D02*
X0634650Y0475000D01*
X0699223Y0475000D02*
X0711350Y0475000D01*
X0743725Y0475000D02*
X0744925Y0475000D01*
X0749403Y0475000D02*
X0749817Y0475000D01*
X0758783Y0475000D02*
X0783180Y0475000D01*
X0666850Y0478000D02*
X0634650Y0478000D01*
X0708664Y0478000D02*
X0712252Y0478000D01*
X0738170Y0478000D02*
X0746829Y0478000D01*
X0755783Y0478000D02*
X0783180Y0478000D01*
X0691735Y0481000D02*
X0660989Y0481000D01*
X0708664Y0481000D02*
X0710350Y0481000D01*
X0739650Y0481000D02*
X0746829Y0481000D01*
X0753170Y0481000D02*
X0757850Y0481000D01*
X0783150Y0481000D02*
X0783180Y0481000D01*
X0691735Y0484000D02*
X0662432Y0484000D01*
X0739650Y0484000D02*
X0746829Y0484000D01*
X0753170Y0484000D02*
X0757850Y0484000D01*
X0783150Y0484000D02*
X0783180Y0484000D01*
X0693466Y0487000D02*
X0662178Y0487000D01*
X0739650Y0487000D02*
X0746829Y0487000D01*
X0753170Y0487000D02*
X0756016Y0487000D01*
X0783150Y0487000D02*
X0783180Y0487000D01*
X0667752Y0490000D02*
X0660203Y0490000D01*
X0691247Y0490000D02*
X0693466Y0490000D01*
X0739650Y0490000D02*
X0746829Y0490000D01*
X0753170Y0490000D02*
X0753530Y0490000D01*
X0782248Y0490000D02*
X0783180Y0490000D01*
X0666850Y0493000D02*
X0634650Y0493000D01*
X0692150Y0493000D02*
X0693466Y0493000D01*
X0739650Y0493000D02*
X0746829Y0493000D01*
X0753170Y0493000D02*
X0753530Y0493000D01*
X0759870Y0493000D02*
X0783180Y0493000D01*
X0666850Y0496000D02*
X0634650Y0496000D01*
X0739650Y0496000D02*
X0746829Y0496000D01*
X0753170Y0496000D02*
X0753530Y0496000D01*
X0759870Y0496000D02*
X0783180Y0496000D01*
X0653936Y0499000D02*
X0634650Y0499000D01*
X0658064Y0499000D02*
X0666850Y0499000D01*
X0728276Y0499000D02*
X0746829Y0499000D01*
X0753170Y0499000D02*
X0753530Y0499000D01*
X0759870Y0499000D02*
X0783180Y0499000D01*
X0691735Y0502000D02*
X0661675Y0502000D01*
X0725276Y0502000D02*
X0746117Y0502000D01*
X0753170Y0502000D02*
X0753530Y0502000D01*
X0783150Y0502000D02*
X0783180Y0502000D01*
X0693366Y0505000D02*
X0662432Y0505000D01*
X0711470Y0505000D02*
X0743117Y0505000D01*
X0752082Y0505000D02*
X0752817Y0505000D01*
X0783150Y0505000D02*
X0783180Y0505000D01*
X0693366Y0508000D02*
X0661764Y0508000D01*
X0711470Y0508000D02*
X0740117Y0508000D01*
X0749083Y0508000D02*
X0749817Y0508000D01*
X0783150Y0508000D02*
X0783180Y0508000D01*
X0653419Y0511000D02*
X0634650Y0511000D01*
X0658580Y0511000D02*
X0666850Y0511000D01*
X0692150Y0511000D02*
X0693366Y0511000D01*
X0711470Y0511000D02*
X0737117Y0511000D01*
X0746083Y0511000D02*
X0746817Y0511000D01*
X0755783Y0511000D02*
X0783180Y0511000D01*
X0666850Y0514000D02*
X0634650Y0514000D01*
X0692150Y0514000D02*
X0692504Y0514000D01*
X0711290Y0514000D02*
X0734117Y0514000D01*
X0743083Y0514000D02*
X0743817Y0514000D01*
X0752783Y0514000D02*
X0783163Y0514000D01*
X0666656Y0517000D02*
X0634650Y0517000D01*
X0708563Y0517000D02*
X0731117Y0517000D01*
X0740083Y0517000D02*
X0740817Y0517000D01*
X0749783Y0517000D02*
X0780163Y0517000D01*
X0663656Y0520000D02*
X0659989Y0520000D01*
X0708563Y0520000D02*
X0728117Y0520000D01*
X0737082Y0520000D02*
X0737817Y0520000D01*
X0746783Y0520000D02*
X0758752Y0520000D01*
X0786837Y0520000D02*
X0790904Y0520000D01*
X0710327Y0523000D02*
X0706896Y0523000D01*
X0714774Y0523000D02*
X0715725Y0523000D01*
X0743783Y0523000D02*
X0757850Y0523000D01*
X0783837Y0523000D02*
X0815350Y0523000D01*
X0709810Y0526000D02*
X0701997Y0526000D01*
X0714774Y0526000D02*
X0715725Y0526000D01*
X0740783Y0526000D02*
X0757850Y0526000D01*
X0783150Y0526000D02*
X0815350Y0526000D01*
X0709810Y0529000D02*
X0704489Y0529000D01*
X0714774Y0529000D02*
X0715725Y0529000D01*
X0739650Y0529000D02*
X0757850Y0529000D01*
X0783150Y0529000D02*
X0792677Y0529000D01*
X0797322Y0529000D02*
X0815350Y0529000D01*
X0659969Y0532000D02*
X0634650Y0532000D01*
X0709940Y0532000D02*
X0714774Y0532000D01*
X0739650Y0532000D02*
X0789281Y0532000D01*
X0659969Y0535000D02*
X0634650Y0535000D01*
X0739650Y0535000D02*
X0788567Y0535000D01*
X0659969Y0538000D02*
X0634650Y0538000D01*
X0739650Y0538000D02*
X0789281Y0538000D01*
X0661817Y0541000D02*
X0660989Y0541000D01*
X0670783Y0541000D02*
X0686517Y0541000D01*
X0738998Y0541000D02*
X0757465Y0541000D01*
X0769850Y0541000D02*
X0771150Y0541000D01*
X0783535Y0541000D02*
X0792677Y0541000D01*
X0797322Y0541000D02*
X0815350Y0541000D01*
X0664817Y0544000D02*
X0662432Y0544000D01*
X0673783Y0544000D02*
X0689517Y0544000D01*
X0731420Y0544000D02*
X0731829Y0544000D01*
X0738170Y0544000D02*
X0757310Y0544000D01*
X0769850Y0544000D02*
X0771150Y0544000D01*
X0783690Y0544000D02*
X0815350Y0544000D01*
X0667817Y0547000D02*
X0662178Y0547000D01*
X0676783Y0547000D02*
X0692517Y0547000D01*
X0729483Y0547000D02*
X0730517Y0547000D01*
X0738170Y0547000D02*
X0757310Y0547000D01*
X0769850Y0547000D02*
X0771150Y0547000D01*
X0783690Y0547000D02*
X0815350Y0547000D01*
X0670817Y0550000D02*
X0660203Y0550000D01*
X0679783Y0550000D02*
X0695517Y0550000D01*
X0726483Y0550000D02*
X0727517Y0550000D01*
X0736483Y0550000D02*
X0757989Y0550000D01*
X0769850Y0550000D02*
X0771150Y0550000D01*
X0783011Y0550000D02*
X0815350Y0550000D01*
X0646371Y0553000D02*
X0634650Y0553000D01*
X0661350Y0553000D02*
X0662650Y0553000D01*
X0733483Y0553000D02*
X0772371Y0553000D01*
X0787350Y0553000D02*
X0788650Y0553000D01*
X0803629Y0553000D02*
X0815350Y0553000D01*
X0644310Y0556000D02*
X0634650Y0556000D01*
X0661350Y0556000D02*
X0662650Y0556000D01*
X0730483Y0556000D02*
X0770310Y0556000D01*
X0787350Y0556000D02*
X0788650Y0556000D01*
X0805690Y0556000D02*
X0815350Y0556000D01*
X0644310Y0559000D02*
X0634650Y0559000D01*
X0661350Y0559000D02*
X0662650Y0559000D01*
X0679689Y0559000D02*
X0770310Y0559000D01*
X0787350Y0559000D02*
X0788650Y0559000D01*
X0805690Y0559000D02*
X0815350Y0559000D01*
X0644310Y0562000D02*
X0634781Y0562000D01*
X0661350Y0562000D02*
X0662650Y0562000D01*
X0679689Y0562000D02*
X0715034Y0562000D01*
X0734221Y0562000D02*
X0770310Y0562000D01*
X0787350Y0562000D02*
X0788650Y0562000D01*
X0805690Y0562000D02*
X0815219Y0562000D01*
X0644310Y0565000D02*
X0635056Y0565000D01*
X0661350Y0565000D02*
X0662650Y0565000D01*
X0679689Y0565000D02*
X0711473Y0565000D01*
X0739069Y0565000D02*
X0770310Y0565000D01*
X0787350Y0565000D02*
X0788650Y0565000D01*
X0805690Y0565000D02*
X0814944Y0565000D01*
X0644310Y0568000D02*
X0635860Y0568000D01*
X0661350Y0568000D02*
X0662650Y0568000D01*
X0679689Y0568000D02*
X0708232Y0568000D01*
X0741247Y0568000D02*
X0770310Y0568000D01*
X0787350Y0568000D02*
X0788650Y0568000D01*
X0805690Y0568000D02*
X0814140Y0568000D01*
X0644310Y0571000D02*
X0636663Y0571000D01*
X0661350Y0571000D02*
X0662650Y0571000D01*
X0679689Y0571000D02*
X0706897Y0571000D01*
X0743428Y0571000D02*
X0770310Y0571000D01*
X0787350Y0571000D02*
X0788650Y0571000D01*
X0805690Y0571000D02*
X0813336Y0571000D01*
X0644310Y0574000D02*
X0637613Y0574000D01*
X0661350Y0574000D02*
X0662650Y0574000D01*
X0679689Y0574000D02*
X0705561Y0574000D01*
X0744375Y0574000D02*
X0770310Y0574000D01*
X0787350Y0574000D02*
X0788650Y0574000D01*
X0805690Y0574000D02*
X0812387Y0574000D01*
X0644310Y0577000D02*
X0639345Y0577000D01*
X0661350Y0577000D02*
X0662650Y0577000D01*
X0679689Y0577000D02*
X0704800Y0577000D01*
X0745012Y0577000D02*
X0770310Y0577000D01*
X0787350Y0577000D02*
X0788650Y0577000D01*
X0805690Y0577000D02*
X0810654Y0577000D01*
X0644310Y0580000D02*
X0641078Y0580000D01*
X0661350Y0580000D02*
X0662650Y0580000D01*
X0679689Y0580000D02*
X0704800Y0580000D01*
X0745650Y0580000D02*
X0770310Y0580000D01*
X0787350Y0580000D02*
X0788650Y0580000D01*
X0805690Y0580000D02*
X0808922Y0580000D01*
X0644465Y0583000D02*
X0643435Y0583000D01*
X0661350Y0583000D02*
X0662650Y0583000D01*
X0679535Y0583000D02*
X0704800Y0583000D01*
X0745012Y0583000D02*
X0770465Y0583000D01*
X0787350Y0583000D02*
X0788650Y0583000D01*
X0805535Y0583000D02*
X0806564Y0583000D01*
X0705561Y0586000D02*
X0646435Y0586000D01*
X0744375Y0586000D02*
X0803565Y0586000D01*
X0706897Y0589000D02*
X0650134Y0589000D01*
X0743428Y0589000D02*
X0799866Y0589000D01*
X0708232Y0592000D02*
X0655330Y0592000D01*
X0741247Y0592000D02*
X0794669Y0592000D01*
X0711473Y0595000D02*
X0665207Y0595000D01*
X0739069Y0595000D02*
X0784792Y0595000D01*
X0636000Y0459350D02*
X0636000Y0431475D01*
X0636000Y0470650D02*
X0636000Y0479350D01*
X0636000Y0490650D02*
X0636000Y0499350D01*
X0636000Y0510650D02*
X0636000Y0519350D01*
X0636000Y0530650D02*
X0636000Y0539350D01*
X0636000Y0550650D02*
X0636000Y0568524D01*
X0639000Y0459350D02*
X0639000Y0423598D01*
X0639000Y0470650D02*
X0639000Y0479350D01*
X0639000Y0490650D02*
X0639000Y0499350D01*
X0639000Y0510650D02*
X0639000Y0519350D01*
X0639000Y0530650D02*
X0639000Y0539350D01*
X0639000Y0550650D02*
X0639000Y0576402D01*
X0642000Y0459350D02*
X0642000Y0418435D01*
X0642000Y0470650D02*
X0642000Y0479350D01*
X0642000Y0490650D02*
X0642000Y0499350D01*
X0642000Y0510650D02*
X0642000Y0519350D01*
X0642000Y0530650D02*
X0642000Y0539350D01*
X0642000Y0550650D02*
X0642000Y0581565D01*
X0645000Y0415989D02*
X0645000Y0415435D01*
X0645000Y0430349D02*
X0645000Y0431650D01*
X0645000Y0446011D02*
X0645000Y0459350D01*
X0645000Y0470650D02*
X0645000Y0479350D01*
X0645000Y0490650D02*
X0645000Y0499350D01*
X0645000Y0510650D02*
X0645000Y0519350D01*
X0645000Y0530650D02*
X0645000Y0539350D01*
X0645000Y0550650D02*
X0645000Y0553989D01*
X0645000Y0568350D02*
X0645000Y0569650D01*
X0645000Y0584011D02*
X0645000Y0584565D01*
X0648000Y0414810D02*
X0648000Y0412435D01*
X0648000Y0430349D02*
X0648000Y0431650D01*
X0648000Y0447190D02*
X0648000Y0459350D01*
X0648000Y0470650D02*
X0648000Y0479350D01*
X0648000Y0490650D02*
X0648000Y0499350D01*
X0648000Y0510650D02*
X0648000Y0519350D01*
X0648000Y0530650D02*
X0648000Y0539350D01*
X0648000Y0550650D02*
X0648000Y0552810D01*
X0648000Y0568350D02*
X0648000Y0569650D01*
X0648000Y0585190D02*
X0648000Y0587565D01*
X0651000Y0414810D02*
X0651000Y0410500D01*
X0651000Y0430349D02*
X0651000Y0431650D01*
X0651000Y0447190D02*
X0651000Y0459350D01*
X0651000Y0470650D02*
X0651000Y0479350D01*
X0651000Y0490650D02*
X0651000Y0499350D01*
X0651000Y0510650D02*
X0651000Y0519350D01*
X0651000Y0530650D02*
X0651000Y0539350D01*
X0651000Y0550650D02*
X0651000Y0552810D01*
X0651000Y0568350D02*
X0651000Y0569650D01*
X0651000Y0585190D02*
X0651000Y0589500D01*
X0654000Y0414810D02*
X0654000Y0408768D01*
X0654000Y0430349D02*
X0654000Y0431650D01*
X0654000Y0447190D02*
X0654000Y0458224D01*
X0654000Y0471241D02*
X0654000Y0478974D01*
X0654000Y0491241D02*
X0654000Y0498974D01*
X0654000Y0511241D02*
X0654000Y0518822D01*
X0654000Y0531178D02*
X0654000Y0538974D01*
X0654000Y0551241D02*
X0654000Y0552810D01*
X0654000Y0568350D02*
X0654000Y0569650D01*
X0654000Y0585190D02*
X0654000Y0591232D01*
X0657000Y0414810D02*
X0657000Y0407199D01*
X0657000Y0430349D02*
X0657000Y0431650D01*
X0657000Y0447190D02*
X0657000Y0455224D01*
X0657000Y0471539D02*
X0657000Y0478675D01*
X0657000Y0491539D02*
X0657000Y0498675D01*
X0657000Y0511539D02*
X0657000Y0518568D01*
X0657000Y0531432D02*
X0657000Y0538675D01*
X0657000Y0551539D02*
X0657000Y0552810D01*
X0657000Y0568350D02*
X0657000Y0569650D01*
X0657000Y0585190D02*
X0657000Y0592801D01*
X0660000Y0414810D02*
X0660000Y0406396D01*
X0660000Y0430349D02*
X0660000Y0431650D01*
X0660000Y0447190D02*
X0660000Y0452224D01*
X0660000Y0459776D02*
X0660000Y0460011D01*
X0660000Y0470203D02*
X0660000Y0480011D01*
X0660000Y0490203D02*
X0660000Y0500011D01*
X0660000Y0510203D02*
X0660000Y0520011D01*
X0660000Y0539183D02*
X0660000Y0540011D01*
X0660000Y0550203D02*
X0660000Y0552810D01*
X0660000Y0568350D02*
X0660000Y0569650D01*
X0660000Y0585190D02*
X0660000Y0593604D01*
X0663000Y0414810D02*
X0663000Y0405591D01*
X0663000Y0447190D02*
X0663000Y0449223D01*
X0663000Y0456776D02*
X0663000Y0520656D01*
X0663000Y0542183D02*
X0663000Y0552810D01*
X0663000Y0568350D02*
X0663000Y0569650D01*
X0663000Y0585190D02*
X0663000Y0594408D01*
X0666000Y0414810D02*
X0666000Y0404912D01*
X0666000Y0453776D02*
X0666000Y0517656D01*
X0666000Y0545183D02*
X0666000Y0552810D01*
X0666000Y0568350D02*
X0666000Y0569650D01*
X0666000Y0585190D02*
X0666000Y0595088D01*
X0669000Y0414810D02*
X0669000Y0404716D01*
X0669000Y0454350D02*
X0669000Y0455650D01*
X0669000Y0461169D02*
X0669000Y0469350D01*
X0669000Y0480650D02*
X0669000Y0489350D01*
X0669000Y0500650D02*
X0669000Y0509350D01*
X0669000Y0548183D02*
X0669000Y0552810D01*
X0669000Y0568350D02*
X0669000Y0569650D01*
X0669000Y0585190D02*
X0669000Y0595284D01*
X0672000Y0414810D02*
X0672000Y0404650D01*
X0672000Y0454350D02*
X0672000Y0455650D01*
X0672000Y0461190D02*
X0672000Y0469350D01*
X0672000Y0480650D02*
X0672000Y0489350D01*
X0672000Y0500650D02*
X0672000Y0509350D01*
X0672000Y0540650D02*
X0672000Y0542217D01*
X0672000Y0551183D02*
X0672000Y0552810D01*
X0672000Y0568350D02*
X0672000Y0569650D01*
X0672000Y0585190D02*
X0672000Y0595350D01*
X0675000Y0414810D02*
X0675000Y0404650D01*
X0675000Y0454350D02*
X0675000Y0455650D01*
X0675000Y0461190D02*
X0675000Y0469350D01*
X0675000Y0480650D02*
X0675000Y0489350D01*
X0675000Y0500650D02*
X0675000Y0509350D01*
X0675000Y0540650D02*
X0675000Y0545217D01*
X0675000Y0568350D02*
X0675000Y0569650D01*
X0675000Y0585190D02*
X0675000Y0595350D01*
X0678000Y0415182D02*
X0678000Y0404650D01*
X0678000Y0454350D02*
X0678000Y0455650D01*
X0678000Y0461190D02*
X0678000Y0469350D01*
X0678000Y0480650D02*
X0678000Y0489350D01*
X0678000Y0500650D02*
X0678000Y0509350D01*
X0678000Y0540650D02*
X0678000Y0548217D01*
X0678000Y0568350D02*
X0678000Y0569650D01*
X0678000Y0584817D02*
X0678000Y0595350D01*
X0681000Y0421867D02*
X0681000Y0404650D01*
X0681000Y0454350D02*
X0681000Y0455650D01*
X0681000Y0461190D02*
X0681000Y0469350D01*
X0681000Y0480650D02*
X0681000Y0489350D01*
X0681000Y0500650D02*
X0681000Y0509350D01*
X0681000Y0540650D02*
X0681000Y0551130D01*
X0681000Y0557470D02*
X0681000Y0595350D01*
X0684000Y0421567D02*
X0684000Y0404650D01*
X0684000Y0454350D02*
X0684000Y0455650D01*
X0684000Y0461190D02*
X0684000Y0469350D01*
X0684000Y0480650D02*
X0684000Y0489350D01*
X0684000Y0500650D02*
X0684000Y0509350D01*
X0684000Y0540650D02*
X0684000Y0551130D01*
X0684000Y0557470D02*
X0684000Y0595350D01*
X0687000Y0415904D02*
X0687000Y0404650D01*
X0687000Y0454350D02*
X0687000Y0455650D01*
X0687000Y0461190D02*
X0687000Y0469350D01*
X0687000Y0480650D02*
X0687000Y0489350D01*
X0687000Y0500650D02*
X0687000Y0509350D01*
X0687000Y0541483D02*
X0687000Y0551130D01*
X0687000Y0557470D02*
X0687000Y0595350D01*
X0690000Y0414568D02*
X0690000Y0404650D01*
X0690000Y0454350D02*
X0690000Y0455650D01*
X0690000Y0461169D02*
X0690000Y0469350D01*
X0690000Y0480650D02*
X0690000Y0489350D01*
X0690000Y0500650D02*
X0690000Y0509350D01*
X0690000Y0544483D02*
X0690000Y0551130D01*
X0690000Y0557470D02*
X0690000Y0595350D01*
X0693000Y0414866D02*
X0693000Y0404650D01*
X0693000Y0451670D02*
X0693000Y0470363D01*
X0693000Y0485496D02*
X0693000Y0495004D01*
X0693000Y0503996D02*
X0693000Y0513504D01*
X0693000Y0547483D02*
X0693000Y0551130D01*
X0693000Y0557470D02*
X0693000Y0595350D01*
X0696000Y0416903D02*
X0696000Y0404650D01*
X0696000Y0451670D02*
X0696000Y0467363D01*
X0696000Y0550470D02*
X0696000Y0551130D01*
X0696000Y0557470D02*
X0696000Y0595350D01*
X0699000Y0425224D02*
X0699000Y0404650D01*
X0699000Y0452776D02*
X0699000Y0464363D01*
X0699000Y0474037D02*
X0699000Y0474777D01*
X0699000Y0550470D02*
X0699000Y0551130D01*
X0699000Y0557470D02*
X0699000Y0595350D01*
X0702000Y0428224D02*
X0702000Y0404650D01*
X0702000Y0455776D02*
X0702000Y0461363D01*
X0702000Y0471037D02*
X0702000Y0475850D01*
X0702000Y0523250D02*
X0702000Y0526004D01*
X0702000Y0550470D02*
X0702000Y0551130D01*
X0702000Y0557470D02*
X0702000Y0595350D01*
X0705000Y0415260D02*
X0705000Y0404650D01*
X0705000Y0424740D02*
X0705000Y0431224D01*
X0705000Y0458670D02*
X0705000Y0459780D01*
X0705000Y0468037D02*
X0705000Y0475850D01*
X0705000Y0523250D02*
X0705000Y0529616D01*
X0705000Y0550470D02*
X0705000Y0551130D01*
X0705000Y0557470D02*
X0705000Y0575260D01*
X0705000Y0584740D02*
X0705000Y0595350D01*
X0708000Y0408522D02*
X0708000Y0404650D01*
X0708000Y0431478D02*
X0708000Y0434224D01*
X0708000Y0458670D02*
X0708000Y0459780D01*
X0708000Y0466620D02*
X0708000Y0477104D01*
X0708000Y0521896D02*
X0708000Y0530450D01*
X0708000Y0550470D02*
X0708000Y0551130D01*
X0708000Y0557470D02*
X0708000Y0568522D01*
X0708000Y0591478D02*
X0708000Y0595350D01*
X0711000Y0405426D02*
X0711000Y0404650D01*
X0711000Y0434574D02*
X0711000Y0437224D01*
X0711000Y0458670D02*
X0711000Y0459780D01*
X0711000Y0468500D02*
X0711000Y0468500D01*
X0711000Y0471128D02*
X0711000Y0479002D01*
X0711000Y0514290D02*
X0711000Y0522239D01*
X0711000Y0531525D02*
X0711000Y0532475D01*
X0711000Y0550470D02*
X0711000Y0551130D01*
X0711000Y0557470D02*
X0711000Y0565426D01*
X0711000Y0594574D02*
X0711000Y0595350D01*
X0714000Y0440224D02*
X0714000Y0437276D01*
X0714000Y0458670D02*
X0714000Y0459780D01*
X0714000Y0468500D02*
X0714000Y0468500D01*
X0714000Y0503870D02*
X0714000Y0521560D01*
X0714000Y0531525D02*
X0714000Y0532475D01*
X0714000Y0550470D02*
X0714000Y0551130D01*
X0714000Y0557470D02*
X0714000Y0562724D01*
X0717000Y0441330D02*
X0717000Y0438639D01*
X0717000Y0458670D02*
X0717000Y0459780D01*
X0717000Y0468500D02*
X0717000Y0468500D01*
X0717000Y0503870D02*
X0717000Y0521560D01*
X0717000Y0550470D02*
X0717000Y0551130D01*
X0717000Y0557470D02*
X0717000Y0561361D01*
X0720000Y0441330D02*
X0720000Y0439614D01*
X0720000Y0458670D02*
X0720000Y0459780D01*
X0720000Y0468500D02*
X0720000Y0468500D01*
X0720000Y0503870D02*
X0720000Y0522100D01*
X0720000Y0550470D02*
X0720000Y0551130D01*
X0720000Y0557470D02*
X0720000Y0560386D01*
X0723000Y0441330D02*
X0723000Y0440520D01*
X0723000Y0458670D02*
X0723000Y0459780D01*
X0723000Y0503870D02*
X0723000Y0522100D01*
X0723000Y0550470D02*
X0723000Y0551130D01*
X0723000Y0557470D02*
X0723000Y0559480D01*
X0726000Y0441330D02*
X0726000Y0440205D01*
X0726000Y0458670D02*
X0726000Y0459780D01*
X0726000Y0468500D02*
X0726000Y0468500D01*
X0726000Y0501276D02*
X0726000Y0522100D01*
X0726000Y0550470D02*
X0726000Y0551130D01*
X0726000Y0557470D02*
X0726000Y0559795D01*
X0729000Y0441330D02*
X0729000Y0439890D01*
X0729000Y0458670D02*
X0729000Y0459780D01*
X0729000Y0498276D02*
X0729000Y0519116D01*
X0729000Y0547483D02*
X0729000Y0548517D01*
X0729000Y0557470D02*
X0729000Y0560110D01*
X0732000Y0441330D02*
X0732000Y0439281D01*
X0732000Y0458670D02*
X0732000Y0459780D01*
X0732000Y0497900D02*
X0732000Y0516117D01*
X0732000Y0554483D02*
X0732000Y0560718D01*
X0735000Y0440724D02*
X0735000Y0437550D01*
X0735000Y0458670D02*
X0735000Y0459780D01*
X0735000Y0497900D02*
X0735000Y0513117D01*
X0735000Y0522083D02*
X0735000Y0522100D01*
X0735000Y0551483D02*
X0735000Y0562450D01*
X0738000Y0437724D02*
X0738000Y0435818D01*
X0738000Y0458670D02*
X0738000Y0459780D01*
X0738000Y0497900D02*
X0738000Y0510117D01*
X0738000Y0519082D02*
X0738000Y0519817D01*
X0738000Y0548483D02*
X0738000Y0564182D01*
X0741000Y0407658D02*
X0741000Y0404650D01*
X0741000Y0432342D02*
X0741000Y0434724D01*
X0741000Y0458670D02*
X0741000Y0459780D01*
X0741000Y0476679D02*
X0741000Y0507117D01*
X0741000Y0516083D02*
X0741000Y0516817D01*
X0741000Y0525783D02*
X0741000Y0567658D01*
X0741000Y0592342D02*
X0741000Y0595350D01*
X0744000Y0412237D02*
X0744000Y0404650D01*
X0744000Y0427762D02*
X0744000Y0431724D01*
X0744000Y0458670D02*
X0744000Y0459780D01*
X0744000Y0472100D02*
X0744000Y0504116D01*
X0744000Y0513083D02*
X0744000Y0513817D01*
X0744000Y0522783D02*
X0744000Y0572238D01*
X0744000Y0587762D02*
X0744000Y0595350D01*
X0747000Y0428724D02*
X0747000Y0404650D01*
X0747000Y0456276D02*
X0747000Y0459780D01*
X0747000Y0470900D02*
X0747000Y0472100D01*
X0747000Y0476965D02*
X0747000Y0477817D01*
X0747000Y0510083D02*
X0747000Y0510817D01*
X0747000Y0519783D02*
X0747000Y0595350D01*
X0750000Y0425724D02*
X0750000Y0404650D01*
X0750000Y0453276D02*
X0750000Y0459780D01*
X0750000Y0466620D02*
X0750000Y0469610D01*
X0750000Y0470900D02*
X0750000Y0472100D01*
X0750000Y0473390D02*
X0750000Y0474817D01*
X0750000Y0507083D02*
X0750000Y0507817D01*
X0750000Y0516783D02*
X0750000Y0595350D01*
X0753000Y0418678D02*
X0753000Y0404650D01*
X0753000Y0454461D02*
X0753000Y0459663D01*
X0753000Y0466620D02*
X0753000Y0471817D01*
X0753000Y0504082D02*
X0753000Y0504817D01*
X0753000Y0513782D02*
X0753000Y0595350D01*
X0756000Y0415281D02*
X0756000Y0404650D01*
X0756000Y0455132D02*
X0756000Y0456663D01*
X0756000Y0466337D02*
X0756000Y0468817D01*
X0756000Y0477783D02*
X0756000Y0487017D01*
X0756000Y0510783D02*
X0756000Y0595350D01*
X0759000Y0414568D02*
X0759000Y0404650D01*
X0759000Y0454378D02*
X0759000Y0454780D01*
X0759000Y0474783D02*
X0759000Y0479752D01*
X0759000Y0510248D02*
X0759000Y0519752D01*
X0759000Y0530248D02*
X0759000Y0539183D01*
X0759000Y0544350D02*
X0759000Y0545650D01*
X0759000Y0550817D02*
X0759000Y0595350D01*
X0762000Y0415281D02*
X0762000Y0404650D01*
X0762000Y0446096D02*
X0762000Y0446619D01*
X0762000Y0450781D02*
X0762000Y0454780D01*
X0762000Y0471783D02*
X0762000Y0479350D01*
X0762000Y0490650D02*
X0762000Y0499350D01*
X0762000Y0510650D02*
X0762000Y0519350D01*
X0762000Y0530650D02*
X0762000Y0538810D01*
X0762000Y0544350D02*
X0762000Y0545650D01*
X0762000Y0551190D02*
X0762000Y0595350D01*
X0765000Y0418678D02*
X0765000Y0404650D01*
X0765000Y0448134D02*
X0765000Y0454780D01*
X0765000Y0470650D02*
X0765000Y0479350D01*
X0765000Y0490650D02*
X0765000Y0499350D01*
X0765000Y0510650D02*
X0765000Y0519350D01*
X0765000Y0530650D02*
X0765000Y0538810D01*
X0765000Y0544350D02*
X0765000Y0545650D01*
X0765000Y0551190D02*
X0765000Y0595350D01*
X0768000Y0421567D02*
X0768000Y0404650D01*
X0768000Y0448432D02*
X0768000Y0454780D01*
X0768000Y0470650D02*
X0768000Y0479350D01*
X0768000Y0490650D02*
X0768000Y0499350D01*
X0768000Y0510650D02*
X0768000Y0519350D01*
X0768000Y0530650D02*
X0768000Y0538810D01*
X0768000Y0544350D02*
X0768000Y0545650D01*
X0768000Y0551190D02*
X0768000Y0595350D01*
X0771000Y0415989D02*
X0771000Y0404650D01*
X0771000Y0447096D02*
X0771000Y0454780D01*
X0771000Y0470650D02*
X0771000Y0479350D01*
X0771000Y0490650D02*
X0771000Y0499350D01*
X0771000Y0510650D02*
X0771000Y0519350D01*
X0771000Y0530650D02*
X0771000Y0544350D01*
X0771000Y0545650D02*
X0771000Y0553989D01*
X0771000Y0568350D02*
X0771000Y0569650D01*
X0771000Y0584011D02*
X0771000Y0595350D01*
X0774000Y0414810D02*
X0774000Y0404650D01*
X0774000Y0447190D02*
X0774000Y0454780D01*
X0774000Y0470650D02*
X0774000Y0479350D01*
X0774000Y0490650D02*
X0774000Y0499350D01*
X0774000Y0510650D02*
X0774000Y0519350D01*
X0774000Y0530650D02*
X0774000Y0538810D01*
X0774000Y0544350D02*
X0774000Y0545650D01*
X0774000Y0551190D02*
X0774000Y0552810D01*
X0774000Y0568350D02*
X0774000Y0569650D01*
X0774000Y0585190D02*
X0774000Y0595350D01*
X0777000Y0414810D02*
X0777000Y0404650D01*
X0777000Y0447190D02*
X0777000Y0454780D01*
X0777000Y0470650D02*
X0777000Y0479350D01*
X0777000Y0490650D02*
X0777000Y0499350D01*
X0777000Y0510650D02*
X0777000Y0519350D01*
X0777000Y0530650D02*
X0777000Y0538810D01*
X0777000Y0544350D02*
X0777000Y0545650D01*
X0777000Y0551190D02*
X0777000Y0552810D01*
X0777000Y0568350D02*
X0777000Y0569650D01*
X0777000Y0585190D02*
X0777000Y0595350D01*
X0780000Y0414810D02*
X0780000Y0404650D01*
X0780000Y0447190D02*
X0780000Y0454780D01*
X0780000Y0470650D02*
X0780000Y0479350D01*
X0780000Y0490650D02*
X0780000Y0499350D01*
X0780000Y0510650D02*
X0780000Y0517163D01*
X0780000Y0530650D02*
X0780000Y0538810D01*
X0780000Y0544350D02*
X0780000Y0545650D01*
X0780000Y0551190D02*
X0780000Y0552810D01*
X0780000Y0568350D02*
X0780000Y0569650D01*
X0780000Y0585190D02*
X0780000Y0595350D01*
X0783000Y0414810D02*
X0783000Y0404846D01*
X0783000Y0447190D02*
X0783000Y0454780D01*
X0783000Y0469248D02*
X0783000Y0480752D01*
X0783000Y0489248D02*
X0783000Y0500752D01*
X0783000Y0509248D02*
X0783000Y0514163D01*
X0783000Y0529248D02*
X0783000Y0539989D01*
X0783000Y0544350D02*
X0783000Y0545650D01*
X0783000Y0550011D02*
X0783000Y0552810D01*
X0783000Y0568350D02*
X0783000Y0569650D01*
X0783000Y0585190D02*
X0783000Y0595153D01*
X0786000Y0414810D02*
X0786000Y0405324D01*
X0786000Y0447190D02*
X0786000Y0455763D01*
X0786000Y0520837D02*
X0786000Y0552810D01*
X0786000Y0568350D02*
X0786000Y0569650D01*
X0786000Y0585190D02*
X0786000Y0594676D01*
X0789000Y0414810D02*
X0789000Y0406128D01*
X0789000Y0430349D02*
X0789000Y0431650D01*
X0789000Y0447190D02*
X0789000Y0452678D01*
X0789000Y0457322D02*
X0789000Y0458763D01*
X0789000Y0517836D02*
X0789000Y0532678D01*
X0789000Y0537322D02*
X0789000Y0552810D01*
X0789000Y0568350D02*
X0789000Y0569650D01*
X0789000Y0585190D02*
X0789000Y0593872D01*
X0792000Y0414810D02*
X0792000Y0406931D01*
X0792000Y0430349D02*
X0792000Y0431650D01*
X0792000Y0447190D02*
X0792000Y0449281D01*
X0792000Y0460719D02*
X0792000Y0469281D01*
X0792000Y0520719D02*
X0792000Y0529281D01*
X0792000Y0540719D02*
X0792000Y0552810D01*
X0792000Y0568350D02*
X0792000Y0569650D01*
X0792000Y0585190D02*
X0792000Y0593069D01*
X0795000Y0414810D02*
X0795000Y0408191D01*
X0795000Y0430349D02*
X0795000Y0431650D01*
X0795000Y0447190D02*
X0795000Y0448568D01*
X0795000Y0461432D02*
X0795000Y0468568D01*
X0795000Y0521432D02*
X0795000Y0528568D01*
X0795000Y0541432D02*
X0795000Y0552810D01*
X0795000Y0568350D02*
X0795000Y0569650D01*
X0795000Y0585190D02*
X0795000Y0591809D01*
X0798000Y0414810D02*
X0798000Y0409923D01*
X0798000Y0430349D02*
X0798000Y0431650D01*
X0798000Y0447190D02*
X0798000Y0449281D01*
X0798000Y0460719D02*
X0798000Y0469281D01*
X0798000Y0520719D02*
X0798000Y0529281D01*
X0798000Y0540719D02*
X0798000Y0552810D01*
X0798000Y0568350D02*
X0798000Y0569650D01*
X0798000Y0585190D02*
X0798000Y0590077D01*
X0801000Y0414810D02*
X0801000Y0411655D01*
X0801000Y0430349D02*
X0801000Y0431650D01*
X0801000Y0447190D02*
X0801000Y0449350D01*
X0801000Y0460650D02*
X0801000Y0469350D01*
X0801000Y0520650D02*
X0801000Y0529350D01*
X0801000Y0540650D02*
X0801000Y0552810D01*
X0801000Y0568350D02*
X0801000Y0569650D01*
X0801000Y0585190D02*
X0801000Y0588345D01*
X0804000Y0415182D02*
X0804000Y0414435D01*
X0804000Y0430349D02*
X0804000Y0431650D01*
X0804000Y0446817D02*
X0804000Y0449350D01*
X0804000Y0460650D02*
X0804000Y0469350D01*
X0804000Y0520650D02*
X0804000Y0529350D01*
X0804000Y0540650D02*
X0804000Y0553183D01*
X0804000Y0568350D02*
X0804000Y0569650D01*
X0804000Y0584817D02*
X0804000Y0585565D01*
X0807000Y0449350D02*
X0807000Y0417435D01*
X0807000Y0460650D02*
X0807000Y0469350D01*
X0807000Y0520650D02*
X0807000Y0529350D01*
X0807000Y0540650D02*
X0807000Y0582565D01*
X0810000Y0449350D02*
X0810000Y0421866D01*
X0810000Y0460650D02*
X0810000Y0469350D01*
X0810000Y0520650D02*
X0810000Y0529350D01*
X0810000Y0540650D02*
X0810000Y0578134D01*
X0813000Y0449350D02*
X0813000Y0427744D01*
X0813000Y0460650D02*
X0813000Y0469350D01*
X0813000Y0520650D02*
X0813000Y0529350D01*
X0813000Y0540650D02*
X0813000Y0572256D01*
D18*
X0725000Y0510000D03*
X0736000Y0502000D03*
X0715000Y0520000D03*
X0642500Y0425000D03*
X0642500Y0433500D03*
X0642500Y0442000D03*
X0807500Y0433500D03*
X0807500Y0442000D03*
X0807500Y0425000D03*
X0807500Y0570000D03*
X0807500Y0560000D03*
X0785000Y0590000D03*
X0642500Y0560000D03*
X0661500Y0590000D03*
X0642500Y0570000D03*
X0706500Y0472500D03*
X0683700Y0545900D03*
X0742899Y0480800D03*
X0678500Y0464500D03*
X0687500Y0464500D03*
X0770500Y0535500D03*
X0696000Y0456000D03*
X0754000Y0545000D03*
X0762000Y0535500D03*
D19*
X0705525Y0535600D02*
X0696786Y0525079D01*
X0696786Y0518100D01*
X0696786Y0499600D01*
X0696885Y0499500D01*
X0696885Y0481000D01*
X0696986Y0480900D01*
X0696986Y0477600D01*
X0694385Y0475000D01*
X0679500Y0475000D01*
X0680500Y0474000D02*
X0694200Y0474000D01*
X0680500Y0474000D02*
X0679500Y0475000D01*
X0694200Y0474000D02*
X0705000Y0463200D01*
X0734774Y0471200D02*
X0735074Y0471500D01*
X0734750Y0471825D02*
X0734750Y0488000D01*
X0734750Y0471825D02*
X0735074Y0471500D01*
X0759300Y0458200D02*
X0783600Y0458200D01*
X0786600Y0461200D01*
X0786600Y0515400D01*
X0776700Y0525300D01*
X0770800Y0525300D01*
X0770500Y0525000D01*
X0735000Y0463200D02*
X0705000Y0463200D01*
X0735000Y0463200D02*
X0754300Y0463200D01*
X0759300Y0458200D01*
X0735074Y0463275D02*
X0735074Y0471500D01*
X0735074Y0463275D02*
X0735000Y0463200D01*
D13*
X0679500Y0515000D02*
X0673139Y0515000D01*
X0663139Y0525000D01*
X0663139Y0537839D01*
X0679599Y0554300D01*
X0727700Y0554300D01*
X0735000Y0547000D01*
X0735000Y0532250D01*
X0734750Y0532000D01*
X0734750Y0527550D01*
X0756700Y0505600D02*
X0756700Y0490800D01*
X0762500Y0485000D02*
X0770500Y0485000D01*
X0762500Y0485000D02*
X0756700Y0490800D01*
X0756700Y0505600D02*
X0734750Y0527550D01*
X0724700Y0547300D02*
X0697300Y0547300D01*
X0685000Y0535000D02*
X0679500Y0535000D01*
X0685000Y0535000D02*
X0697300Y0547300D01*
X0728250Y0543750D02*
X0728250Y0532000D01*
X0728250Y0543750D02*
X0724700Y0547300D01*
X0728250Y0532000D02*
X0728250Y0524350D01*
X0750000Y0502600D02*
X0750000Y0479300D01*
X0764300Y0465000D01*
X0770500Y0465000D01*
X0750000Y0502600D02*
X0728250Y0524350D01*
D16*
X0721750Y0532000D02*
X0721750Y0540980D01*
X0719000Y0543730D01*
X0686775Y0525000D02*
X0678000Y0525000D01*
D18*
X0678000Y0525000D03*
D16*
X0696275Y0535600D02*
X0704405Y0543730D01*
X0719000Y0543730D01*
X0696275Y0534500D02*
X0686775Y0525000D01*
X0696275Y0534500D02*
X0696275Y0535600D01*
D19*
X0655893Y0525000D02*
X0644500Y0525000D01*
D18*
X0655893Y0525000D03*
X0795000Y0475000D03*
D16*
X0805500Y0475000D01*
D18*
X0683000Y0428000D03*
X0767000Y0428000D03*
D16*
X0683032Y0427968D02*
X0683000Y0428000D01*
X0683032Y0427968D02*
X0693206Y0427968D01*
X0712238Y0447000D01*
X0737500Y0447000D01*
X0756500Y0428000D02*
X0767000Y0428000D01*
X0756500Y0428000D02*
X0737500Y0447000D01*
D19*
X0656000Y0505107D02*
X0644509Y0505009D01*
X0644500Y0505000D01*
D18*
X0656000Y0505107D03*
X0795000Y0495000D03*
D16*
X0805500Y0495000D01*
D18*
X0691000Y0435000D03*
X0759000Y0435000D03*
D16*
X0695320Y0435000D02*
X0691000Y0435000D01*
X0695320Y0435000D02*
X0710320Y0450000D01*
X0739548Y0450000D01*
X0754548Y0435000D02*
X0759000Y0435000D01*
X0754548Y0435000D02*
X0739548Y0450000D01*
D19*
X0656000Y0485107D02*
X0644509Y0485009D01*
X0644500Y0485000D01*
D18*
X0656000Y0485107D03*
X0795000Y0515000D03*
D16*
X0805500Y0515000D01*
D18*
X0683000Y0442000D03*
X0767000Y0442000D03*
D16*
X0697000Y0442000D02*
X0683000Y0442000D01*
X0697000Y0442000D02*
X0708000Y0453000D01*
X0741500Y0453000D01*
X0752500Y0442000D02*
X0767000Y0442000D01*
X0752500Y0442000D02*
X0741500Y0453000D01*
D19*
X0644509Y0465009D02*
X0644500Y0465000D01*
X0644509Y0465009D02*
X0656000Y0465107D01*
D18*
X0656000Y0465107D03*
X0795000Y0535000D03*
D16*
X0805500Y0535000D01*
X0651000Y0465000D02*
X0644500Y0465000D01*
D18*
X0755900Y0448700D03*
D16*
X0667000Y0449000D02*
X0651000Y0465000D01*
X0667000Y0449000D02*
X0699000Y0449000D01*
X0706000Y0456000D01*
X0743500Y0456000D01*
X0750800Y0448700D02*
X0755900Y0448700D01*
X0750800Y0448700D02*
X0743500Y0456000D01*
D19*
X0656000Y0545107D02*
X0644500Y0545000D01*
D18*
X0656000Y0545107D03*
X0795000Y0455000D03*
D16*
X0805500Y0455000D01*
D18*
X0691000Y0421000D03*
X0759000Y0421000D03*
D16*
X0714000Y0444000D02*
X0691000Y0421000D01*
X0714000Y0444000D02*
X0735500Y0444000D01*
X0758500Y0421000D02*
X0759000Y0421000D01*
X0758500Y0421000D02*
X0735500Y0444000D01*
M02*