G04 EAGLE Gerber RS-274X export*
G75*
%MOMM*%
%FSLAX34Y34*%
%LPD*%
%INSolder side*%
%IPPOS*%
%AMOC8*
5,1,8,0,0,$1,22.5*%
G01*
%ADD10R,0.635X1.27*%
%ADD11C,0.7564*%
%ADD12C,0.13*%
%ADD13C,0.15*%
%ADD14C,0.3*%
G36*
X0238248Y0654007D02*
X0238248Y0654007D01*
X0238299Y0654004D01*
X0238419Y0654027D01*
X0238540Y0654041D01*
X0238588Y0654058D01*
X0238640Y0654068D01*
X0238751Y0654117D01*
X0238864Y0654158D01*
X0238909Y0654187D01*
X0238956Y0654208D01*
X0239053Y0654281D01*
X0239153Y0654347D01*
X0239191Y0654385D01*
X0239232Y0654415D01*
X0239309Y0654509D01*
X0239393Y0654597D01*
X0239420Y0654642D01*
X0239453Y0654682D01*
X0239506Y0654791D01*
X0239568Y0654895D01*
X0239583Y0654945D01*
X0239607Y0654992D01*
X0239634Y0655110D01*
X0239670Y0655226D01*
X0239673Y0655278D01*
X0239686Y0655329D01*
X0239686Y0655450D01*
X0239694Y0655571D01*
X0239685Y0655622D01*
X0239685Y0655674D01*
X0239656Y0655792D01*
X0239638Y0655912D01*
X0239618Y0655960D01*
X0239606Y0656011D01*
X0239551Y0656119D01*
X0239504Y0656230D01*
X0239474Y0656273D01*
X0239451Y0656320D01*
X0239374Y0656413D01*
X0239303Y0656511D01*
X0239262Y0656546D01*
X0239230Y0656586D01*
X0239133Y0656658D01*
X0239042Y0656738D01*
X0238995Y0656762D01*
X0238954Y0656794D01*
X0238770Y0656885D01*
X0236786Y0657707D01*
X0232706Y0661786D01*
X0230499Y0667116D01*
X0230499Y0672884D01*
X0232706Y0678214D01*
X0236786Y0682293D01*
X0242116Y0684501D01*
X0247884Y0684501D01*
X0253214Y0682293D01*
X0257293Y0678214D01*
X0259501Y0672884D01*
X0259501Y0667116D01*
X0257293Y0661786D01*
X0253214Y0657707D01*
X0251229Y0656885D01*
X0251184Y0656860D01*
X0251135Y0656842D01*
X0251034Y0656776D01*
X0250928Y0656717D01*
X0250889Y0656682D01*
X0250846Y0656653D01*
X0250762Y0656564D01*
X0250673Y0656484D01*
X0250643Y0656441D01*
X0250607Y0656403D01*
X0250546Y0656298D01*
X0250477Y0656199D01*
X0250458Y0656150D01*
X0250432Y0656105D01*
X0250396Y0655989D01*
X0250353Y0655876D01*
X0250345Y0655824D01*
X0250330Y0655774D01*
X0250322Y0655652D01*
X0250305Y0655534D01*
X0250310Y0655482D01*
X0250306Y0655429D01*
X0250326Y0655310D01*
X0250337Y0655189D01*
X0250354Y0655140D01*
X0250362Y0655087D01*
X0250409Y0654976D01*
X0250447Y0654862D01*
X0250475Y0654817D01*
X0250495Y0654769D01*
X0250566Y0654671D01*
X0250629Y0654568D01*
X0250666Y0654531D01*
X0250696Y0654489D01*
X0250789Y0654409D01*
X0250874Y0654324D01*
X0250919Y0654295D01*
X0250958Y0654262D01*
X0251066Y0654205D01*
X0251167Y0654141D01*
X0251218Y0654126D01*
X0251264Y0654101D01*
X0251381Y0654071D01*
X0251496Y0654033D01*
X0251548Y0654028D01*
X0251599Y0654015D01*
X0251804Y0654001D01*
X0295000Y0654001D01*
X0295035Y0654004D01*
X0295071Y0654002D01*
X0295207Y0654025D01*
X0295343Y0654041D01*
X0295377Y0654053D01*
X0295412Y0654058D01*
X0295539Y0654111D01*
X0295669Y0654158D01*
X0295698Y0654177D01*
X0295731Y0654191D01*
X0295843Y0654272D01*
X0295958Y0654347D01*
X0295983Y0654372D01*
X0296011Y0654393D01*
X0296102Y0654497D01*
X0296197Y0654597D01*
X0296215Y0654628D01*
X0296238Y0654654D01*
X0296302Y0654777D01*
X0296372Y0654895D01*
X0296382Y0654929D01*
X0296399Y0654961D01*
X0296433Y0655094D01*
X0296474Y0655226D01*
X0296476Y0655261D01*
X0296485Y0655295D01*
X0296499Y0655500D01*
X0296499Y0665000D01*
X0296495Y0665035D01*
X0296498Y0665070D01*
X0296475Y0665207D01*
X0296459Y0665343D01*
X0296447Y0665377D01*
X0296442Y0665412D01*
X0296389Y0665539D01*
X0296342Y0665669D01*
X0296323Y0665698D01*
X0296309Y0665731D01*
X0296228Y0665843D01*
X0296153Y0665958D01*
X0296127Y0665983D01*
X0296107Y0666011D01*
X0296003Y0666102D01*
X0295903Y0666197D01*
X0295872Y0666215D01*
X0295846Y0666238D01*
X0295723Y0666302D01*
X0295605Y0666372D01*
X0295571Y0666382D01*
X0295539Y0666399D01*
X0295406Y0666433D01*
X0295274Y0666474D01*
X0295239Y0666476D01*
X0295205Y0666485D01*
X0295000Y0666499D01*
X0283298Y0666499D01*
X0283160Y0666483D01*
X0283021Y0666473D01*
X0282988Y0666463D01*
X0282955Y0666459D01*
X0282824Y0666412D01*
X0282690Y0666371D01*
X0282661Y0666353D01*
X0282630Y0666342D01*
X0282513Y0666266D01*
X0282393Y0666195D01*
X0282359Y0666165D01*
X0282340Y0666153D01*
X0282317Y0666129D01*
X0282286Y0666102D01*
X0280150Y0665217D01*
X0277850Y0665217D01*
X0275724Y0666098D01*
X0274098Y0667724D01*
X0273217Y0669850D01*
X0273217Y0672150D01*
X0273347Y0672464D01*
X0273371Y0672548D01*
X0273405Y0672629D01*
X0273418Y0672714D01*
X0273442Y0672797D01*
X0273446Y0672884D01*
X0273460Y0672971D01*
X0273454Y0673056D01*
X0273458Y0673142D01*
X0273442Y0673228D01*
X0273435Y0673315D01*
X0273410Y0673396D01*
X0273394Y0673482D01*
X0273359Y0673562D01*
X0273333Y0673646D01*
X0273289Y0673720D01*
X0273254Y0673798D01*
X0273202Y0673867D01*
X0273157Y0673943D01*
X0273063Y0674051D01*
X0273046Y0674074D01*
X0273036Y0674081D01*
X0273022Y0674098D01*
X0256499Y0690621D01*
X0256499Y0739379D01*
X0266060Y0748940D01*
X0266135Y0749034D01*
X0266150Y0749050D01*
X0266154Y0749058D01*
X0266238Y0749154D01*
X0266254Y0749184D01*
X0266275Y0749211D01*
X0266334Y0749337D01*
X0266399Y0749461D01*
X0266407Y0749492D01*
X0266422Y0749524D01*
X0266450Y0749659D01*
X0266485Y0749795D01*
X0266488Y0749840D01*
X0266493Y0749862D01*
X0266492Y0749896D01*
X0266499Y0750000D01*
X0266499Y0770000D01*
X0266483Y0770138D01*
X0266473Y0770278D01*
X0266463Y0770310D01*
X0266459Y0770343D01*
X0266412Y0770474D01*
X0266371Y0770608D01*
X0266353Y0770637D01*
X0266342Y0770669D01*
X0266266Y0770785D01*
X0266195Y0770905D01*
X0266165Y0770939D01*
X0266153Y0770958D01*
X0266129Y0770982D01*
X0266060Y0771060D01*
X0256499Y0780621D01*
X0256499Y0809379D01*
X0280621Y0833501D01*
X0295000Y0833501D01*
X0295035Y0833505D01*
X0295071Y0833502D01*
X0295207Y0833524D01*
X0295343Y0833541D01*
X0295377Y0833553D01*
X0295412Y0833558D01*
X0295539Y0833610D01*
X0295669Y0833658D01*
X0295698Y0833678D01*
X0295731Y0833691D01*
X0295843Y0833772D01*
X0295958Y0833847D01*
X0295983Y0833873D01*
X0296011Y0833892D01*
X0296102Y0833998D01*
X0296197Y0834097D01*
X0296215Y0834128D01*
X0296238Y0834154D01*
X0296302Y0834277D01*
X0296372Y0834395D01*
X0296382Y0834429D01*
X0296399Y0834461D01*
X0296433Y0834594D01*
X0296474Y0834726D01*
X0296476Y0834761D01*
X0296485Y0834795D01*
X0296499Y0835000D01*
X0296499Y0844500D01*
X0296495Y0844534D01*
X0296498Y0844571D01*
X0296475Y0844706D01*
X0296459Y0844843D01*
X0296447Y0844877D01*
X0296442Y0844911D01*
X0296389Y0845039D01*
X0296342Y0845168D01*
X0296323Y0845198D01*
X0296309Y0845231D01*
X0296228Y0845343D01*
X0296153Y0845458D01*
X0296127Y0845483D01*
X0296107Y0845511D01*
X0296003Y0845602D01*
X0295903Y0845697D01*
X0295872Y0845715D01*
X0295846Y0845738D01*
X0295723Y0845802D01*
X0295605Y0845872D01*
X0295571Y0845882D01*
X0295539Y0845899D01*
X0295406Y0845933D01*
X0295274Y0845973D01*
X0295239Y0845976D01*
X0295205Y0845985D01*
X0295000Y0845999D01*
X0251804Y0845999D01*
X0251752Y0845993D01*
X0251700Y0845996D01*
X0251580Y0845973D01*
X0251460Y0845959D01*
X0251411Y0845942D01*
X0251360Y0845932D01*
X0251249Y0845883D01*
X0251135Y0845842D01*
X0251090Y0845813D01*
X0251043Y0845792D01*
X0250947Y0845719D01*
X0250846Y0845653D01*
X0250809Y0845615D01*
X0250768Y0845584D01*
X0250690Y0845490D01*
X0250607Y0845403D01*
X0250581Y0845358D01*
X0250547Y0845318D01*
X0250493Y0845209D01*
X0250432Y0845105D01*
X0250417Y0845055D01*
X0250393Y0845008D01*
X0250366Y0844890D01*
X0250330Y0844774D01*
X0250326Y0844722D01*
X0250313Y0844671D01*
X0250315Y0844550D01*
X0250306Y0844429D01*
X0250315Y0844378D01*
X0250315Y0844326D01*
X0250343Y0844208D01*
X0250362Y0844088D01*
X0250382Y0844040D01*
X0250394Y0843989D01*
X0250448Y0843881D01*
X0250495Y0843769D01*
X0250525Y0843727D01*
X0250549Y0843680D01*
X0250626Y0843587D01*
X0250696Y0843489D01*
X0250737Y0843454D01*
X0250769Y0843413D01*
X0250867Y0843341D01*
X0250958Y0843262D01*
X0251005Y0843238D01*
X0251045Y0843206D01*
X0251229Y0843115D01*
X0253214Y0842293D01*
X0257293Y0838214D01*
X0259501Y0832884D01*
X0259501Y0827116D01*
X0257293Y0821786D01*
X0253214Y0817707D01*
X0247884Y0815499D01*
X0242116Y0815499D01*
X0236786Y0817707D01*
X0232706Y0821786D01*
X0230499Y0827116D01*
X0230499Y0832884D01*
X0232706Y0838214D01*
X0236786Y0842293D01*
X0238770Y0843115D01*
X0238816Y0843139D01*
X0238864Y0843158D01*
X0238966Y0843224D01*
X0239072Y0843283D01*
X0239110Y0843318D01*
X0239153Y0843347D01*
X0239238Y0843434D01*
X0239327Y0843516D01*
X0239357Y0843558D01*
X0239393Y0843597D01*
X0239454Y0843701D01*
X0239523Y0843801D01*
X0239542Y0843850D01*
X0239568Y0843895D01*
X0239604Y0844011D01*
X0239647Y0844124D01*
X0239655Y0844175D01*
X0239670Y0844226D01*
X0239678Y0844346D01*
X0239695Y0844466D01*
X0239690Y0844517D01*
X0239694Y0844571D01*
X0239673Y0844689D01*
X0239663Y0844811D01*
X0239646Y0844860D01*
X0239638Y0844911D01*
X0239591Y0845024D01*
X0239553Y0845138D01*
X0239525Y0845183D01*
X0239504Y0845231D01*
X0239434Y0845329D01*
X0239369Y0845432D01*
X0239333Y0845468D01*
X0239303Y0845511D01*
X0239212Y0845591D01*
X0239125Y0845676D01*
X0239080Y0845704D01*
X0239042Y0845738D01*
X0238935Y0845793D01*
X0238832Y0845858D01*
X0238782Y0845875D01*
X0238736Y0845899D01*
X0238618Y0845929D01*
X0238504Y0845967D01*
X0238451Y0845972D01*
X0238401Y0845985D01*
X0238196Y0845999D01*
X0195000Y0845999D01*
X0194965Y0845995D01*
X0194929Y0845998D01*
X0194793Y0845975D01*
X0194656Y0845959D01*
X0194623Y0845947D01*
X0194588Y0845942D01*
X0194461Y0845889D01*
X0194331Y0845842D01*
X0194302Y0845823D01*
X0194269Y0845809D01*
X0194157Y0845728D01*
X0194042Y0845653D01*
X0194016Y0845627D01*
X0193989Y0845607D01*
X0193898Y0845502D01*
X0193802Y0845403D01*
X0193785Y0845372D01*
X0193762Y0845346D01*
X0193697Y0845223D01*
X0193628Y0845105D01*
X0193618Y0845071D01*
X0193601Y0845039D01*
X0193567Y0844906D01*
X0193526Y0844774D01*
X0193524Y0844739D01*
X0193515Y0844705D01*
X0193501Y0844500D01*
X0193501Y0835000D01*
X0193505Y0834965D01*
X0193502Y0834928D01*
X0193525Y0834793D01*
X0193541Y0834657D01*
X0193553Y0834623D01*
X0193558Y0834588D01*
X0193611Y0834461D01*
X0193658Y0834331D01*
X0193678Y0834302D01*
X0193691Y0834269D01*
X0193772Y0834157D01*
X0193847Y0834042D01*
X0193873Y0834017D01*
X0193893Y0833989D01*
X0193998Y0833898D01*
X0194097Y0833803D01*
X0194128Y0833785D01*
X0194153Y0833762D01*
X0194277Y0833698D01*
X0194395Y0833627D01*
X0194429Y0833618D01*
X0194461Y0833601D01*
X0194594Y0833567D01*
X0194726Y0833526D01*
X0194761Y0833524D01*
X0194795Y0833515D01*
X0195000Y0833501D01*
X0209379Y0833501D01*
X0233500Y0809379D01*
X0233500Y0780621D01*
X0223939Y0771060D01*
X0223854Y0770951D01*
X0223762Y0770846D01*
X0223746Y0770816D01*
X0223725Y0770789D01*
X0223665Y0770663D01*
X0223601Y0770539D01*
X0223593Y0770507D01*
X0223578Y0770476D01*
X0223550Y0770340D01*
X0223515Y0770205D01*
X0223512Y0770160D01*
X0223507Y0770138D01*
X0223508Y0770104D01*
X0223501Y0770000D01*
X0223501Y0750000D01*
X0223517Y0749862D01*
X0223527Y0749722D01*
X0223537Y0749689D01*
X0223541Y0749657D01*
X0223588Y0749526D01*
X0223629Y0749392D01*
X0223647Y0749363D01*
X0223658Y0749331D01*
X0223734Y0749215D01*
X0223804Y0749095D01*
X0223834Y0749060D01*
X0223847Y0749042D01*
X0223871Y0749019D01*
X0223939Y0748940D01*
X0233500Y0739379D01*
X0233500Y0690630D01*
X0216887Y0674355D01*
X0216827Y0674281D01*
X0216760Y0674214D01*
X0216718Y0674147D01*
X0216668Y0674086D01*
X0216628Y0674001D01*
X0216578Y0673919D01*
X0216553Y0673845D01*
X0216519Y0673775D01*
X0216499Y0673682D01*
X0216468Y0673592D01*
X0216461Y0673514D01*
X0216444Y0673437D01*
X0216446Y0673342D01*
X0216437Y0673247D01*
X0216448Y0673170D01*
X0216449Y0673092D01*
X0216471Y0672998D01*
X0216484Y0672905D01*
X0216525Y0672787D01*
X0216533Y0672756D01*
X0216540Y0672741D01*
X0216551Y0672710D01*
X0216783Y0672150D01*
X0216783Y0669850D01*
X0215902Y0667724D01*
X0214275Y0666098D01*
X0212150Y0665217D01*
X0209850Y0665217D01*
X0207704Y0666106D01*
X0207653Y0666147D01*
X0207547Y0666238D01*
X0207517Y0666254D01*
X0207491Y0666275D01*
X0207365Y0666334D01*
X0207241Y0666399D01*
X0207208Y0666407D01*
X0207178Y0666422D01*
X0207042Y0666450D01*
X0206906Y0666485D01*
X0206862Y0666488D01*
X0206840Y0666493D01*
X0206805Y0666491D01*
X0206702Y0666499D01*
X0195000Y0666499D01*
X0194965Y0666495D01*
X0194929Y0666498D01*
X0194793Y0666474D01*
X0194656Y0666459D01*
X0194623Y0666447D01*
X0194588Y0666442D01*
X0194461Y0666389D01*
X0194331Y0666342D01*
X0194302Y0666323D01*
X0194269Y0666309D01*
X0194157Y0666228D01*
X0194042Y0666153D01*
X0194016Y0666127D01*
X0193989Y0666107D01*
X0193898Y0666003D01*
X0193802Y0665903D01*
X0193785Y0665872D01*
X0193762Y0665846D01*
X0193697Y0665723D01*
X0193628Y0665605D01*
X0193618Y0665571D01*
X0193601Y0665539D01*
X0193567Y0665406D01*
X0193526Y0665274D01*
X0193524Y0665239D01*
X0193515Y0665205D01*
X0193501Y0665000D01*
X0193501Y0655500D01*
X0193505Y0655465D01*
X0193502Y0655429D01*
X0193525Y0655293D01*
X0193541Y0655157D01*
X0193553Y0655123D01*
X0193558Y0655087D01*
X0193611Y0654961D01*
X0193658Y0654830D01*
X0193678Y0654802D01*
X0193691Y0654769D01*
X0193772Y0654657D01*
X0193847Y0654542D01*
X0193873Y0654517D01*
X0193893Y0654489D01*
X0193998Y0654398D01*
X0194097Y0654303D01*
X0194128Y0654285D01*
X0194153Y0654262D01*
X0194277Y0654198D01*
X0194395Y0654128D01*
X0194429Y0654118D01*
X0194461Y0654101D01*
X0194594Y0654067D01*
X0194726Y0654026D01*
X0194761Y0654024D01*
X0194795Y0654015D01*
X0195000Y0654001D01*
X0238196Y0654001D01*
X0238248Y0654007D01*
G37*
D10*
X0176936Y0795000D03*
X0185064Y0795000D03*
X0176936Y0775000D03*
X0185064Y0775000D03*
X0176936Y0755000D03*
X0185064Y0755000D03*
X0176936Y0735000D03*
X0185064Y0735000D03*
X0176936Y0715000D03*
X0185064Y0715000D03*
D11*
X0245000Y0760000D03*
X0256000Y0752000D03*
X0235000Y0770000D03*
D12*
X0168480Y0661955D02*
X0176472Y0657341D01*
X0168480Y0661955D02*
X0161955Y0668480D01*
X0157341Y0676472D01*
X0154952Y0685386D01*
X0154650Y0690000D01*
X0154650Y0810000D01*
X0154952Y0814614D01*
X0157341Y0823528D01*
X0161955Y0831520D01*
X0168480Y0838045D01*
X0176472Y0842659D01*
X0185386Y0845048D01*
X0190000Y0845350D01*
X0300000Y0845350D01*
X0304614Y0845048D01*
X0313528Y0842659D01*
X0321520Y0838045D01*
X0328045Y0831520D01*
X0332659Y0823528D01*
X0335048Y0814614D01*
X0335349Y0810000D01*
X0335349Y0690000D01*
X0335048Y0685386D01*
X0332659Y0676472D01*
X0328045Y0668480D01*
X0321520Y0661955D01*
X0313528Y0657341D01*
X0304614Y0654952D01*
X0300000Y0654650D01*
X0190000Y0654650D01*
X0185386Y0654952D01*
X0176472Y0657341D01*
X0321432Y0783721D02*
X0321432Y0786279D01*
X0320453Y0788643D01*
X0318643Y0790453D01*
X0316279Y0791432D01*
X0313721Y0791432D01*
X0311357Y0790453D01*
X0309547Y0788643D01*
X0308568Y0786279D01*
X0308568Y0783721D01*
X0308828Y0783093D01*
X0298216Y0773675D01*
X0298124Y0773675D01*
X0297398Y0772949D01*
X0296631Y0772268D01*
X0296625Y0772176D01*
X0296560Y0772111D01*
X0296560Y0771084D01*
X0296499Y0770060D01*
X0296560Y0769991D01*
X0296560Y0708336D01*
X0289594Y0701370D01*
X0281756Y0701370D01*
X0281353Y0702343D01*
X0279543Y0704153D01*
X0277179Y0705132D01*
X0274621Y0705132D01*
X0272257Y0704153D01*
X0270447Y0702343D01*
X0269468Y0699979D01*
X0269468Y0697420D01*
X0270447Y0695057D01*
X0272257Y0693247D01*
X0274621Y0692268D01*
X0277179Y0692268D01*
X0279543Y0693247D01*
X0281270Y0694974D01*
X0280568Y0693279D01*
X0280568Y0691312D01*
X0280279Y0691432D01*
X0277721Y0691432D01*
X0275357Y0690453D01*
X0273547Y0688643D01*
X0272568Y0686279D01*
X0272568Y0683721D01*
X0273547Y0681357D01*
X0275357Y0679547D01*
X0277721Y0678567D01*
X0280279Y0678567D01*
X0280568Y0678687D01*
X0280568Y0677312D01*
X0280279Y0677432D01*
X0277721Y0677432D01*
X0275357Y0676453D01*
X0273547Y0674643D01*
X0272568Y0672279D01*
X0272568Y0669721D01*
X0273547Y0667357D01*
X0275357Y0665547D01*
X0277721Y0664568D01*
X0280279Y0664568D01*
X0282643Y0665547D01*
X0284453Y0667357D01*
X0284856Y0668330D01*
X0292106Y0668330D01*
X0316106Y0692330D01*
X0317670Y0693894D01*
X0317670Y0699144D01*
X0318643Y0699547D01*
X0320453Y0701357D01*
X0321432Y0703721D01*
X0321432Y0706279D01*
X0320453Y0708643D01*
X0318643Y0710453D01*
X0316279Y0711432D01*
X0313721Y0711432D01*
X0311357Y0710453D01*
X0310670Y0709766D01*
X0310670Y0719894D01*
X0310840Y0720064D01*
X0311357Y0719547D01*
X0313721Y0718567D01*
X0316279Y0718567D01*
X0318643Y0719547D01*
X0320453Y0721357D01*
X0321432Y0723721D01*
X0321432Y0726279D01*
X0320453Y0728643D01*
X0318643Y0730453D01*
X0316279Y0731432D01*
X0313721Y0731432D01*
X0311357Y0730453D01*
X0309547Y0728643D01*
X0308568Y0726279D01*
X0308568Y0725344D01*
X0307670Y0724445D01*
X0307670Y0735416D01*
X0312205Y0739196D01*
X0313721Y0738567D01*
X0316279Y0738567D01*
X0318643Y0739547D01*
X0320453Y0741357D01*
X0321432Y0743721D01*
X0321432Y0746279D01*
X0320453Y0748643D01*
X0318643Y0750453D01*
X0316279Y0751432D01*
X0313721Y0751432D01*
X0311357Y0750453D01*
X0309547Y0748643D01*
X0308568Y0746279D01*
X0308568Y0743721D01*
X0308754Y0743271D01*
X0304900Y0740059D01*
X0304900Y0752738D01*
X0312316Y0759149D01*
X0313721Y0758567D01*
X0316279Y0758567D01*
X0318643Y0759547D01*
X0320453Y0761357D01*
X0321432Y0763721D01*
X0321432Y0766279D01*
X0320453Y0768643D01*
X0318643Y0770453D01*
X0316279Y0771432D01*
X0313721Y0771432D01*
X0311357Y0770453D01*
X0309547Y0768643D01*
X0308568Y0766279D01*
X0308568Y0763721D01*
X0308797Y0763167D01*
X0301900Y0757203D01*
X0301900Y0769805D01*
X0312394Y0779118D01*
X0313721Y0778567D01*
X0316279Y0778567D01*
X0318643Y0779547D01*
X0320453Y0781357D01*
X0321432Y0783721D01*
X0204432Y0776279D02*
X0204432Y0773721D01*
X0204432Y0776279D02*
X0203453Y0778643D01*
X0201643Y0780453D01*
X0199279Y0781432D01*
X0196721Y0781432D01*
X0194357Y0780453D01*
X0192547Y0778643D01*
X0192144Y0777670D01*
X0190889Y0777670D01*
X0190889Y0782448D01*
X0189337Y0784000D01*
X0187734Y0784000D01*
X0187734Y0786000D01*
X0189337Y0786000D01*
X0190889Y0787552D01*
X0190889Y0802448D01*
X0189337Y0804000D01*
X0172663Y0804000D01*
X0171111Y0802448D01*
X0171111Y0799314D01*
X0170547Y0798750D01*
X0169568Y0796386D01*
X0169568Y0793828D01*
X0170547Y0791464D01*
X0171111Y0790900D01*
X0171111Y0789951D01*
X0159644Y0778484D01*
X0158080Y0776920D01*
X0158080Y0704452D01*
X0159644Y0702888D01*
X0159644Y0702888D01*
X0192638Y0669894D01*
X0192638Y0669894D01*
X0194202Y0668330D01*
X0205144Y0668330D01*
X0205547Y0667357D01*
X0207357Y0665547D01*
X0209721Y0664568D01*
X0212278Y0664568D01*
X0214643Y0665547D01*
X0216453Y0667357D01*
X0217432Y0669721D01*
X0217432Y0672279D01*
X0216453Y0674643D01*
X0214643Y0676453D01*
X0212278Y0677432D01*
X0209721Y0677432D01*
X0209432Y0677312D01*
X0209432Y0678687D01*
X0209721Y0678567D01*
X0212278Y0678567D01*
X0214643Y0679547D01*
X0216453Y0681357D01*
X0217432Y0683721D01*
X0217432Y0686279D01*
X0216453Y0688643D01*
X0214643Y0690453D01*
X0212278Y0691432D01*
X0209721Y0691432D01*
X0209432Y0691312D01*
X0209432Y0693279D01*
X0208453Y0695643D01*
X0206643Y0697453D01*
X0204279Y0698432D01*
X0201721Y0698432D01*
X0199357Y0697453D01*
X0197547Y0695643D01*
X0197144Y0694670D01*
X0187166Y0694670D01*
X0175836Y0706000D01*
X0189337Y0706000D01*
X0190889Y0707552D01*
X0190889Y0722448D01*
X0189337Y0724000D01*
X0187734Y0724000D01*
X0187734Y0726000D01*
X0189337Y0726000D01*
X0190889Y0727552D01*
X0190889Y0742448D01*
X0189337Y0744000D01*
X0187734Y0744000D01*
X0187734Y0746000D01*
X0189337Y0746000D01*
X0190889Y0747552D01*
X0190889Y0762448D01*
X0189337Y0764000D01*
X0187734Y0764000D01*
X0187734Y0766000D01*
X0189337Y0766000D01*
X0190889Y0767552D01*
X0190889Y0772330D01*
X0192144Y0772330D01*
X0192547Y0771357D01*
X0194357Y0769547D01*
X0196721Y0768567D01*
X0199279Y0768567D01*
X0201643Y0769547D01*
X0203453Y0771357D01*
X0204432Y0773721D01*
X0260150Y0826986D02*
X0260150Y0833014D01*
X0257843Y0838582D01*
X0253582Y0842844D01*
X0248014Y0845150D01*
X0241986Y0845150D01*
X0236418Y0842844D01*
X0232156Y0838582D01*
X0229850Y0833014D01*
X0229850Y0826986D01*
X0232156Y0821418D01*
X0236418Y0817156D01*
X0241986Y0814850D01*
X0248014Y0814850D01*
X0253582Y0817156D01*
X0257843Y0821418D01*
X0260150Y0826986D01*
X0260150Y0673014D02*
X0260150Y0666986D01*
X0260150Y0673014D02*
X0257843Y0678582D01*
X0253582Y0682844D01*
X0248014Y0685150D01*
X0241986Y0685150D01*
X0236418Y0682844D01*
X0232156Y0678582D01*
X0229850Y0673014D01*
X0229850Y0666986D01*
X0232156Y0661418D01*
X0236418Y0657156D01*
X0241986Y0654850D01*
X0248014Y0654850D01*
X0253582Y0657156D01*
X0257843Y0661418D01*
X0260150Y0666986D01*
X0236796Y0657000D02*
X0177744Y0657000D01*
X0253204Y0657000D02*
X0312256Y0657000D01*
X0233074Y0660500D02*
X0171000Y0660500D01*
X0256925Y0660500D02*
X0319000Y0660500D01*
X0231087Y0664000D02*
X0166435Y0664000D01*
X0258913Y0664000D02*
X0323564Y0664000D01*
X0205488Y0667500D02*
X0162935Y0667500D01*
X0216512Y0667500D02*
X0229850Y0667500D01*
X0260150Y0667500D02*
X0273488Y0667500D01*
X0284512Y0667500D02*
X0327065Y0667500D01*
X0191531Y0671000D02*
X0160500Y0671000D01*
X0217432Y0671000D02*
X0229850Y0671000D01*
X0260150Y0671000D02*
X0272568Y0671000D01*
X0294776Y0671000D02*
X0329500Y0671000D01*
X0188032Y0674500D02*
X0158479Y0674500D01*
X0216512Y0674500D02*
X0230465Y0674500D01*
X0259534Y0674500D02*
X0273488Y0674500D01*
X0298276Y0674500D02*
X0331521Y0674500D01*
X0184532Y0678000D02*
X0156931Y0678000D01*
X0209432Y0678000D02*
X0231914Y0678000D01*
X0258085Y0678000D02*
X0280568Y0678000D01*
X0301776Y0678000D02*
X0333069Y0678000D01*
X0181032Y0681500D02*
X0155994Y0681500D01*
X0216512Y0681500D02*
X0235075Y0681500D01*
X0254925Y0681500D02*
X0273488Y0681500D01*
X0305276Y0681500D02*
X0334006Y0681500D01*
X0177532Y0685000D02*
X0155056Y0685000D01*
X0217432Y0685000D02*
X0241623Y0685000D01*
X0248376Y0685000D02*
X0272568Y0685000D01*
X0308776Y0685000D02*
X0334944Y0685000D01*
X0174031Y0688500D02*
X0154748Y0688500D01*
X0216512Y0688500D02*
X0273488Y0688500D01*
X0312276Y0688500D02*
X0335252Y0688500D01*
X0170532Y0692000D02*
X0154650Y0692000D01*
X0209432Y0692000D02*
X0280568Y0692000D01*
X0315776Y0692000D02*
X0335349Y0692000D01*
X0167032Y0695500D02*
X0154650Y0695500D01*
X0186336Y0695500D02*
X0197488Y0695500D01*
X0208512Y0695500D02*
X0270264Y0695500D01*
X0317670Y0695500D02*
X0335349Y0695500D01*
X0163532Y0699000D02*
X0154650Y0699000D01*
X0182836Y0699000D02*
X0269468Y0699000D01*
X0317670Y0699000D02*
X0335349Y0699000D01*
X0160032Y0702500D02*
X0154650Y0702500D01*
X0179335Y0702500D02*
X0270604Y0702500D01*
X0281196Y0702500D02*
X0290724Y0702500D01*
X0320926Y0702500D02*
X0335349Y0702500D01*
X0158080Y0706000D02*
X0154650Y0706000D01*
X0189337Y0706000D02*
X0294224Y0706000D01*
X0321432Y0706000D02*
X0335349Y0706000D01*
X0158080Y0709500D02*
X0154650Y0709500D01*
X0190889Y0709500D02*
X0296560Y0709500D01*
X0319596Y0709500D02*
X0335349Y0709500D01*
X0158080Y0713000D02*
X0154650Y0713000D01*
X0190889Y0713000D02*
X0296560Y0713000D01*
X0310670Y0713000D02*
X0335349Y0713000D01*
X0158080Y0716500D02*
X0154650Y0716500D01*
X0190889Y0716500D02*
X0296560Y0716500D01*
X0310670Y0716500D02*
X0335349Y0716500D01*
X0158080Y0720000D02*
X0154650Y0720000D01*
X0190889Y0720000D02*
X0296560Y0720000D01*
X0310776Y0720000D02*
X0310904Y0720000D01*
X0319096Y0720000D02*
X0335349Y0720000D01*
X0158080Y0723500D02*
X0154650Y0723500D01*
X0189837Y0723500D02*
X0296560Y0723500D01*
X0321341Y0723500D02*
X0335349Y0723500D01*
X0158080Y0727000D02*
X0154650Y0727000D01*
X0190337Y0727000D02*
X0296560Y0727000D01*
X0307670Y0727000D02*
X0308867Y0727000D01*
X0321134Y0727000D02*
X0335349Y0727000D01*
X0158080Y0730500D02*
X0154650Y0730500D01*
X0190889Y0730500D02*
X0296560Y0730500D01*
X0307670Y0730500D02*
X0311471Y0730500D01*
X0318529Y0730500D02*
X0335349Y0730500D01*
X0158080Y0734000D02*
X0154650Y0734000D01*
X0190889Y0734000D02*
X0296560Y0734000D01*
X0307670Y0734000D02*
X0335349Y0734000D01*
X0158080Y0737500D02*
X0154650Y0737500D01*
X0190889Y0737500D02*
X0296560Y0737500D01*
X0310171Y0737500D02*
X0335349Y0737500D01*
X0158080Y0741000D02*
X0154650Y0741000D01*
X0190889Y0741000D02*
X0296560Y0741000D01*
X0304900Y0741000D02*
X0306029Y0741000D01*
X0320096Y0741000D02*
X0335349Y0741000D01*
X0158080Y0744500D02*
X0154650Y0744500D01*
X0187734Y0744500D02*
X0296560Y0744500D01*
X0304900Y0744500D02*
X0308568Y0744500D01*
X0321432Y0744500D02*
X0335349Y0744500D01*
X0158080Y0748000D02*
X0154650Y0748000D01*
X0190889Y0748000D02*
X0296560Y0748000D01*
X0304900Y0748000D02*
X0309281Y0748000D01*
X0320719Y0748000D02*
X0335349Y0748000D01*
X0158080Y0751500D02*
X0154650Y0751500D01*
X0190889Y0751500D02*
X0296560Y0751500D01*
X0304900Y0751500D02*
X0335349Y0751500D01*
X0158080Y0755000D02*
X0154650Y0755000D01*
X0190889Y0755000D02*
X0296560Y0755000D01*
X0307516Y0755000D02*
X0335349Y0755000D01*
X0158080Y0758500D02*
X0154650Y0758500D01*
X0190889Y0758500D02*
X0296560Y0758500D01*
X0301900Y0758500D02*
X0303400Y0758500D01*
X0311564Y0758500D02*
X0335349Y0758500D01*
X0158080Y0762000D02*
X0154650Y0762000D01*
X0190889Y0762000D02*
X0296560Y0762000D01*
X0301900Y0762000D02*
X0307448Y0762000D01*
X0320719Y0762000D02*
X0335349Y0762000D01*
X0158080Y0765500D02*
X0154650Y0765500D01*
X0187734Y0765500D02*
X0296560Y0765500D01*
X0301900Y0765500D02*
X0308568Y0765500D01*
X0321432Y0765500D02*
X0335349Y0765500D01*
X0158080Y0769000D02*
X0154650Y0769000D01*
X0190889Y0769000D02*
X0195677Y0769000D01*
X0200322Y0769000D02*
X0296560Y0769000D01*
X0301900Y0769000D02*
X0309904Y0769000D01*
X0320096Y0769000D02*
X0335349Y0769000D01*
X0158080Y0772500D02*
X0154650Y0772500D01*
X0203926Y0772500D02*
X0296892Y0772500D01*
X0304937Y0772500D02*
X0335349Y0772500D01*
X0158080Y0776000D02*
X0154650Y0776000D01*
X0204432Y0776000D02*
X0300836Y0776000D01*
X0308881Y0776000D02*
X0335349Y0776000D01*
X0160660Y0779500D02*
X0154650Y0779500D01*
X0190889Y0779500D02*
X0193404Y0779500D01*
X0202596Y0779500D02*
X0304780Y0779500D01*
X0318529Y0779500D02*
X0335349Y0779500D01*
X0164160Y0783000D02*
X0154650Y0783000D01*
X0190337Y0783000D02*
X0308724Y0783000D01*
X0321132Y0783000D02*
X0335349Y0783000D01*
X0167659Y0786500D02*
X0154650Y0786500D01*
X0189837Y0786500D02*
X0308659Y0786500D01*
X0321341Y0786500D02*
X0335349Y0786500D01*
X0171111Y0790000D02*
X0154650Y0790000D01*
X0190889Y0790000D02*
X0310904Y0790000D01*
X0319096Y0790000D02*
X0335349Y0790000D01*
X0169704Y0793500D02*
X0154650Y0793500D01*
X0190889Y0793500D02*
X0335349Y0793500D01*
X0169822Y0797000D02*
X0154650Y0797000D01*
X0190889Y0797000D02*
X0335349Y0797000D01*
X0171111Y0800500D02*
X0154650Y0800500D01*
X0190889Y0800500D02*
X0335349Y0800500D01*
X0335349Y0804000D02*
X0154650Y0804000D01*
X0154650Y0807500D02*
X0335349Y0807500D01*
X0335284Y0811000D02*
X0154716Y0811000D01*
X0154945Y0814500D02*
X0335055Y0814500D01*
X0235574Y0818000D02*
X0155860Y0818000D01*
X0254425Y0818000D02*
X0334140Y0818000D01*
X0232123Y0821500D02*
X0156797Y0821500D01*
X0257877Y0821500D02*
X0333202Y0821500D01*
X0230673Y0825000D02*
X0158191Y0825000D01*
X0259327Y0825000D02*
X0331809Y0825000D01*
X0229850Y0828500D02*
X0160212Y0828500D01*
X0260150Y0828500D02*
X0329788Y0828500D01*
X0229850Y0832000D02*
X0162435Y0832000D01*
X0260150Y0832000D02*
X0327565Y0832000D01*
X0230880Y0835500D02*
X0165935Y0835500D01*
X0259120Y0835500D02*
X0324065Y0835500D01*
X0232575Y0839000D02*
X0170134Y0839000D01*
X0257425Y0839000D02*
X0319866Y0839000D01*
X0236075Y0842500D02*
X0176197Y0842500D01*
X0253924Y0842500D02*
X0313803Y0842500D01*
X0157000Y0822256D02*
X0157000Y0677744D01*
X0160500Y0671000D02*
X0160500Y0702032D01*
X0160500Y0779340D02*
X0160500Y0829000D01*
X0164000Y0698532D02*
X0164000Y0666435D01*
X0164000Y0782840D02*
X0164000Y0833565D01*
X0167500Y0695031D02*
X0167500Y0662935D01*
X0167500Y0786340D02*
X0167500Y0837065D01*
X0171000Y0691532D02*
X0171000Y0660500D01*
X0171000Y0789840D02*
X0171000Y0791011D01*
X0171000Y0799203D02*
X0171000Y0839500D01*
X0174500Y0688032D02*
X0174500Y0658479D01*
X0174500Y0804000D02*
X0174500Y0841521D01*
X0178000Y0684532D02*
X0178000Y0656931D01*
X0178000Y0703836D02*
X0178000Y0706000D01*
X0178000Y0804000D02*
X0178000Y0843069D01*
X0181500Y0681032D02*
X0181500Y0655994D01*
X0181500Y0700336D02*
X0181500Y0706000D01*
X0181500Y0804000D02*
X0181500Y0844006D01*
X0185000Y0677532D02*
X0185000Y0655056D01*
X0185000Y0696836D02*
X0185000Y0706000D01*
X0185000Y0804000D02*
X0185000Y0844944D01*
X0188500Y0674032D02*
X0188500Y0654748D01*
X0188500Y0694670D02*
X0188500Y0706000D01*
X0188500Y0724000D02*
X0188500Y0726000D01*
X0188500Y0744000D02*
X0188500Y0746000D01*
X0188500Y0764000D02*
X0188500Y0766000D01*
X0188500Y0784000D02*
X0188500Y0786000D01*
X0188500Y0804000D02*
X0188500Y0845252D01*
X0192000Y0670532D02*
X0192000Y0654650D01*
X0192000Y0694670D02*
X0192000Y0772330D01*
X0192000Y0777670D02*
X0192000Y0845350D01*
X0195500Y0668330D02*
X0195500Y0654650D01*
X0195500Y0694670D02*
X0195500Y0769074D01*
X0195500Y0780926D02*
X0195500Y0845350D01*
X0199000Y0668330D02*
X0199000Y0654650D01*
X0199000Y0697096D02*
X0199000Y0768567D01*
X0199000Y0781432D02*
X0199000Y0845350D01*
X0202500Y0668330D02*
X0202500Y0654650D01*
X0202500Y0698432D02*
X0202500Y0770404D01*
X0202500Y0779596D02*
X0202500Y0845350D01*
X0206000Y0666904D02*
X0206000Y0654650D01*
X0206000Y0697719D02*
X0206000Y0845350D01*
X0209500Y0664659D02*
X0209500Y0654650D01*
X0209500Y0677341D02*
X0209500Y0678659D01*
X0209500Y0691341D02*
X0209500Y0845350D01*
X0213000Y0664866D02*
X0213000Y0654650D01*
X0213000Y0677133D02*
X0213000Y0678866D01*
X0213000Y0691133D02*
X0213000Y0845350D01*
X0216500Y0667471D02*
X0216500Y0654650D01*
X0216500Y0674529D02*
X0216500Y0681471D01*
X0216500Y0688529D02*
X0216500Y0845350D01*
X0220000Y0845350D02*
X0220000Y0654650D01*
X0223500Y0654650D02*
X0223500Y0845350D01*
X0227000Y0845350D02*
X0227000Y0654650D01*
X0230500Y0654650D02*
X0230500Y0665417D01*
X0230500Y0674582D02*
X0230500Y0825416D01*
X0230500Y0834583D02*
X0230500Y0845350D01*
X0234000Y0659575D02*
X0234000Y0654650D01*
X0234000Y0680425D02*
X0234000Y0819575D01*
X0234000Y0840425D02*
X0234000Y0845350D01*
X0237500Y0656708D02*
X0237500Y0654650D01*
X0237500Y0683292D02*
X0237500Y0816708D01*
X0237500Y0843292D02*
X0237500Y0845350D01*
X0241000Y0655259D02*
X0241000Y0654650D01*
X0241000Y0684740D02*
X0241000Y0815259D01*
X0241000Y0844740D02*
X0241000Y0845350D01*
X0244500Y0654850D02*
X0244500Y0654650D01*
X0244500Y0685150D02*
X0244500Y0814850D01*
X0244500Y0845150D02*
X0244500Y0845350D01*
X0248000Y0654850D02*
X0248000Y0654650D01*
X0248000Y0685150D02*
X0248000Y0814850D01*
X0248000Y0845150D02*
X0248000Y0845350D01*
X0251500Y0656294D02*
X0251500Y0654650D01*
X0251500Y0683706D02*
X0251500Y0816294D01*
X0251500Y0843706D02*
X0251500Y0845350D01*
X0255000Y0658575D02*
X0255000Y0654650D01*
X0255000Y0681425D02*
X0255000Y0818575D01*
X0255000Y0841425D02*
X0255000Y0845350D01*
X0258500Y0663002D02*
X0258500Y0654650D01*
X0258500Y0676997D02*
X0258500Y0823002D01*
X0258500Y0836997D02*
X0258500Y0845350D01*
X0262000Y0845350D02*
X0262000Y0654650D01*
X0265500Y0654650D02*
X0265500Y0845350D01*
X0269000Y0845350D02*
X0269000Y0654650D01*
X0272500Y0654650D02*
X0272500Y0693146D01*
X0272500Y0704254D02*
X0272500Y0845350D01*
X0276000Y0665281D02*
X0276000Y0654650D01*
X0276000Y0676718D02*
X0276000Y0679281D01*
X0276000Y0690719D02*
X0276000Y0692268D01*
X0276000Y0705132D02*
X0276000Y0845350D01*
X0279500Y0664568D02*
X0279500Y0654650D01*
X0279500Y0677432D02*
X0279500Y0678567D01*
X0279500Y0691432D02*
X0279500Y0693229D01*
X0279500Y0704171D02*
X0279500Y0845350D01*
X0283000Y0665904D02*
X0283000Y0654650D01*
X0283000Y0701370D02*
X0283000Y0845350D01*
X0286500Y0668330D02*
X0286500Y0654650D01*
X0286500Y0701370D02*
X0286500Y0845350D01*
X0290000Y0668330D02*
X0290000Y0654650D01*
X0290000Y0701776D02*
X0290000Y0845350D01*
X0293500Y0669723D02*
X0293500Y0654650D01*
X0293500Y0705276D02*
X0293500Y0845350D01*
X0297000Y0673224D02*
X0297000Y0654650D01*
X0297000Y0772596D02*
X0297000Y0845350D01*
X0300500Y0676724D02*
X0300500Y0654683D01*
X0300500Y0775702D02*
X0300500Y0845317D01*
X0304000Y0680224D02*
X0304000Y0654912D01*
X0304000Y0759019D02*
X0304000Y0771668D01*
X0304000Y0778807D02*
X0304000Y0845088D01*
X0307500Y0683724D02*
X0307500Y0655726D01*
X0307500Y0742226D02*
X0307500Y0754986D01*
X0307500Y0762045D02*
X0307500Y0774774D01*
X0307500Y0781914D02*
X0307500Y0844274D01*
X0311000Y0687223D02*
X0311000Y0656664D01*
X0311000Y0710096D02*
X0311000Y0719903D01*
X0311000Y0730096D02*
X0311000Y0738191D01*
X0311000Y0750096D02*
X0311000Y0758012D01*
X0311000Y0770096D02*
X0311000Y0777880D01*
X0311000Y0790096D02*
X0311000Y0843336D01*
X0314500Y0690724D02*
X0314500Y0657902D01*
X0314500Y0711432D02*
X0314500Y0718567D01*
X0314500Y0731432D02*
X0314500Y0738567D01*
X0314500Y0751432D02*
X0314500Y0758567D01*
X0314500Y0771432D02*
X0314500Y0778567D01*
X0314500Y0791432D02*
X0314500Y0842098D01*
X0318000Y0699281D02*
X0318000Y0659923D01*
X0318000Y0710719D02*
X0318000Y0719281D01*
X0318000Y0730719D02*
X0318000Y0739281D01*
X0318000Y0750719D02*
X0318000Y0759281D01*
X0318000Y0770719D02*
X0318000Y0779281D01*
X0318000Y0790719D02*
X0318000Y0840077D01*
X0321500Y0838056D02*
X0321500Y0661944D01*
X0325000Y0665435D02*
X0325000Y0834565D01*
X0328500Y0830732D02*
X0328500Y0669268D01*
X0332000Y0675331D02*
X0332000Y0824670D01*
D11*
X0162500Y0675000D03*
X0162500Y0683500D03*
X0162500Y0692000D03*
X0327500Y0683500D03*
X0327500Y0692000D03*
X0327500Y0675000D03*
X0327500Y0820000D03*
X0327500Y0810000D03*
X0305000Y0840000D03*
X0162500Y0810000D03*
X0181500Y0840000D03*
X0162500Y0820000D03*
X0226500Y0722500D03*
X0203700Y0795900D03*
X0262900Y0730800D03*
X0198500Y0714500D03*
X0207500Y0714500D03*
X0290500Y0785500D03*
X0216000Y0706000D03*
X0274000Y0795000D03*
X0282000Y0785500D03*
D13*
X0185064Y0795000D02*
X0185064Y0775000D01*
X0185064Y0755000D01*
X0185064Y0735000D01*
X0185064Y0715000D01*
D11*
X0198000Y0775000D03*
D13*
X0185064Y0775000D01*
D11*
X0175893Y0775000D03*
D14*
X0176936Y0775000D01*
D13*
X0176936Y0771936D01*
X0163520Y0758520D01*
X0163520Y0706705D01*
X0308000Y0721000D02*
X0312000Y0725000D01*
X0315000Y0725000D01*
D11*
X0315000Y0725000D03*
X0203000Y0678000D03*
X0287000Y0678000D03*
D13*
X0192225Y0678000D02*
X0163520Y0706705D01*
X0192225Y0678000D02*
X0203000Y0678000D01*
X0291000Y0678000D02*
X0308000Y0695000D01*
X0291000Y0678000D02*
X0287000Y0678000D01*
X0308000Y0695000D02*
X0308000Y0721000D01*
D11*
X0176000Y0755107D03*
D14*
X0176107Y0755000D02*
X0176936Y0755000D01*
X0176107Y0755000D02*
X0176000Y0755107D01*
D13*
X0176936Y0755000D02*
X0176936Y0751646D01*
X0166290Y0741000D01*
X0166290Y0707853D02*
X0189143Y0685000D01*
X0166290Y0707853D02*
X0166290Y0741000D01*
X0305000Y0736667D02*
X0315000Y0745000D01*
D11*
X0315000Y0745000D03*
X0211000Y0685000D03*
X0279000Y0685000D03*
D13*
X0211000Y0685000D02*
X0189143Y0685000D01*
X0279000Y0685000D02*
X0291238Y0685000D01*
X0305000Y0698762D01*
X0305000Y0736667D01*
D11*
X0176000Y0735107D03*
D14*
X0176107Y0735000D02*
X0176936Y0735000D01*
X0176107Y0735000D02*
X0176000Y0735107D01*
D13*
X0176936Y0735000D02*
X0176936Y0731876D01*
X0169060Y0724000D01*
X0169060Y0709000D01*
D11*
X0315000Y0765000D03*
D13*
X0302230Y0753959D02*
X0302230Y0703230D01*
X0302230Y0753959D02*
X0315000Y0765000D01*
D11*
X0203000Y0692000D03*
X0287000Y0692000D03*
D13*
X0203000Y0692000D02*
X0186060Y0692000D01*
X0169060Y0709000D01*
X0287000Y0692000D02*
X0291000Y0692000D01*
X0302230Y0703230D01*
D11*
X0176000Y0715107D03*
D14*
X0176107Y0715000D02*
X0176936Y0715000D01*
X0176107Y0715000D02*
X0176000Y0715107D01*
D13*
X0299230Y0707230D02*
X0299230Y0771005D01*
D11*
X0315000Y0785000D03*
D13*
X0299230Y0771005D01*
D11*
X0275900Y0698700D03*
D13*
X0290700Y0698700D01*
X0299230Y0707230D01*
D11*
X0176000Y0795107D03*
D14*
X0176084Y0795023D02*
X0176936Y0795000D01*
X0176084Y0795023D02*
X0176000Y0795107D01*
D13*
X0176936Y0795000D02*
X0176936Y0792000D01*
X0160750Y0775814D01*
X0160750Y0705558D01*
D11*
X0315000Y0705000D03*
X0211000Y0671000D03*
X0279000Y0671000D03*
D13*
X0195308Y0671000D02*
X0160750Y0705558D01*
X0195308Y0671000D02*
X0211000Y0671000D01*
X0279000Y0671000D02*
X0291000Y0671000D01*
X0315000Y0695000D01*
X0315000Y0705000D01*
M02*