G04 EAGLE Gerber RS-274X export*
G75*
%MOMM*%
%FSLAX34Y34*%
%LPD*%
%INSolder stop mask*%
%IPPOS*%
%AMOC8*
5,1,8,0,0,$1,22.5*%
G01*
%ADD10C,2.3032*%
%ADD11R,0.8382X1.4732*%
G36*
X0255005Y0719999D02*
X0255005Y0719999D01*
X0255005Y0720000D01*
X0255005Y0739997D01*
X0265004Y0749996D01*
X0265004Y0749999D01*
X0265005Y0750000D01*
X0265005Y0770000D01*
X0265003Y0770002D01*
X0265004Y0770004D01*
X0255005Y0780002D01*
X0255005Y0800000D01*
X0255001Y0800005D01*
X0255000Y0800005D01*
X0235000Y0800005D01*
X0234994Y0800001D01*
X0234994Y0800000D01*
X0234994Y0780002D01*
X0224996Y0770004D01*
X0224996Y0770002D01*
X0224996Y0770001D01*
X0224995Y0770000D01*
X0224995Y0750000D01*
X0224997Y0749997D01*
X0224996Y0749996D01*
X0234994Y0739997D01*
X0234994Y0720000D01*
X0234999Y0719995D01*
X0235000Y0719995D01*
X0255000Y0719995D01*
X0255005Y0719999D01*
G37*
D10*
X0245000Y0830000D03*
X0245000Y0670000D03*
D11*
X0176936Y0795000D03*
X0185064Y0795000D03*
X0176936Y0775000D03*
X0185064Y0775000D03*
X0176936Y0755000D03*
X0185064Y0755000D03*
X0176936Y0735000D03*
X0185064Y0735000D03*
X0176936Y0715000D03*
X0185064Y0715000D03*
M02*