G04 EAGLE Gerber RS-274X export*
G75*
%MOMM*%
%FSLAX34Y34*%
%LPD*%
%INoutline*%
%IPPOS*%
%AMOC8*
5,1,8,0,0,$1,22.5*%
G01*
%ADD10C,0.254*%
D10*
X0150000Y0690000D02*
X0150152Y0686514D01*
X0150608Y0683054D01*
X0151363Y0679646D01*
X0152412Y0676319D01*
X0153748Y0673095D01*
X0155359Y0670000D01*
X0157234Y0667056D01*
X0159358Y0664289D01*
X0161716Y0661716D01*
X0164289Y0659358D01*
X0167057Y0657234D01*
X0170000Y0655359D01*
X0173095Y0653747D01*
X0176319Y0652412D01*
X0179647Y0651363D01*
X0183054Y0650608D01*
X0186514Y0650151D01*
X0190000Y0650000D01*
X0300000Y0650000D01*
X0303486Y0650151D01*
X0306946Y0650608D01*
X0310353Y0651363D01*
X0313681Y0652412D01*
X0316905Y0653747D01*
X0320000Y0655359D01*
X0322943Y0657234D01*
X0325712Y0659358D01*
X0328284Y0661716D01*
X0330642Y0664289D01*
X0332766Y0667056D01*
X0334641Y0670000D01*
X0336252Y0673095D01*
X0337588Y0676319D01*
X0338637Y0679646D01*
X0339392Y0683054D01*
X0339848Y0686514D01*
X0340000Y0690000D01*
X0340000Y0810000D01*
X0339848Y0813486D01*
X0339392Y0816946D01*
X0338637Y0820353D01*
X0337588Y0823681D01*
X0336252Y0826905D01*
X0334641Y0830000D01*
X0332766Y0832942D01*
X0330642Y0835712D01*
X0328284Y0838284D01*
X0325712Y0840642D01*
X0322943Y0842766D01*
X0320000Y0844641D01*
X0316905Y0846252D01*
X0313681Y0847588D01*
X0310353Y0848637D01*
X0306946Y0849392D01*
X0303486Y0849848D01*
X0300000Y0850000D01*
X0190000Y0850000D01*
X0186514Y0849848D01*
X0183054Y0849392D01*
X0179647Y0848637D01*
X0176319Y0847588D01*
X0173095Y0846252D01*
X0170000Y0844641D01*
X0167057Y0842766D01*
X0164289Y0840642D01*
X0161716Y0838284D01*
X0159358Y0835712D01*
X0157234Y0832942D01*
X0155359Y0830000D01*
X0153748Y0826905D01*
X0152412Y0823681D01*
X0151363Y0820353D01*
X0150608Y0816946D01*
X0150152Y0813486D01*
X0150000Y0810000D01*
X0150000Y0690000D01*
M02*