G04 EAGLE Gerber RS-274X export*
G75*
%MOMM*%
%FSLAX34Y34*%
%LPD*%
%INSilk screen*%
%IPPOS*%
%AMOC8*
5,1,8,0,0,$1,22.5*%
G01*
%ADD10C,0.127*%
%ADD11C,0.1524*%
%ADD12C,0.2*%
%ADD13C,0.0762*%
%ADD14C,0.15*%
G36*
X0225981Y0782935D02*
X0225981Y0782935D01*
X0225983Y0782934D01*
X0226027Y0782954D01*
X0226071Y0782972D01*
X0226071Y0782974D01*
X0226073Y0782975D01*
X0226105Y0783060D01*
X0226105Y0788139D01*
X0226105Y0788142D01*
X0226105Y0788144D01*
X0226086Y0788187D01*
X0226068Y0788231D01*
X0226066Y0788231D01*
X0226065Y0788233D01*
X0225980Y0788266D01*
X0215820Y0788266D01*
X0215818Y0788265D01*
X0215816Y0788266D01*
X0215773Y0788246D01*
X0215729Y0788228D01*
X0215729Y0788226D01*
X0215727Y0788225D01*
X0215694Y0788139D01*
X0215694Y0783060D01*
X0215694Y0783058D01*
X0215694Y0783056D01*
X0215714Y0783013D01*
X0215732Y0782968D01*
X0215734Y0782968D01*
X0215735Y0782967D01*
X0215820Y0782934D01*
X0225980Y0782934D01*
X0225981Y0782935D01*
G37*
G36*
X0264782Y0718835D02*
X0264782Y0718835D01*
X0264784Y0718834D01*
X0264827Y0718854D01*
X0264871Y0718872D01*
X0264871Y0718874D01*
X0264873Y0718875D01*
X0264906Y0718960D01*
X0264906Y0724040D01*
X0264905Y0724042D01*
X0264906Y0724044D01*
X0264886Y0724087D01*
X0264868Y0724131D01*
X0264866Y0724131D01*
X0264865Y0724132D01*
X0264780Y0724166D01*
X0254620Y0724166D01*
X0254618Y0724165D01*
X0254616Y0724166D01*
X0254573Y0724146D01*
X0254529Y0724128D01*
X0254529Y0724126D01*
X0254527Y0724125D01*
X0254494Y0724040D01*
X0254494Y0718960D01*
X0254495Y0718957D01*
X0254494Y0718956D01*
X0254514Y0718913D01*
X0254532Y0718869D01*
X0254534Y0718869D01*
X0254534Y0718867D01*
X0254620Y0718834D01*
X0264780Y0718834D01*
X0264782Y0718835D01*
G37*
G36*
X0263154Y0777536D02*
X0263154Y0777536D01*
X0263160Y0777543D01*
X0263166Y0777540D01*
X0263769Y0777788D01*
X0263774Y0777798D01*
X0263780Y0777796D01*
X0264298Y0778193D01*
X0264300Y0778202D01*
X0264307Y0778202D01*
X0264704Y0778720D01*
X0264704Y0778730D01*
X0264711Y0778730D01*
X0264960Y0779334D01*
X0264958Y0779343D01*
X0264964Y0779346D01*
X0265049Y0779994D01*
X0265044Y0780002D01*
X0265049Y0780006D01*
X0264964Y0780654D01*
X0264957Y0780660D01*
X0264960Y0780665D01*
X0264711Y0781269D01*
X0264702Y0781274D01*
X0264704Y0781280D01*
X0264307Y0781798D01*
X0264298Y0781800D01*
X0264298Y0781807D01*
X0263780Y0782204D01*
X0263771Y0782204D01*
X0263769Y0782211D01*
X0263166Y0782460D01*
X0263157Y0782458D01*
X0263154Y0782464D01*
X0262506Y0782548D01*
X0262498Y0782544D01*
X0262494Y0782548D01*
X0261847Y0782464D01*
X0261839Y0782457D01*
X0261834Y0782460D01*
X0261231Y0782211D01*
X0261225Y0782202D01*
X0261220Y0782204D01*
X0260702Y0781807D01*
X0260700Y0781798D01*
X0260692Y0781798D01*
X0260296Y0781280D01*
X0260296Y0781271D01*
X0260289Y0781269D01*
X0260039Y0780665D01*
X0260039Y0780665D01*
X0260042Y0780656D01*
X0260036Y0780654D01*
X0259951Y0780006D01*
X0259956Y0779997D01*
X0259951Y0779994D01*
X0260036Y0779346D01*
X0260043Y0779340D01*
X0260039Y0779334D01*
X0260289Y0778730D01*
X0260298Y0778726D01*
X0260296Y0778720D01*
X0260692Y0778202D01*
X0260702Y0778199D01*
X0260702Y0778193D01*
X0261220Y0777796D01*
X0261229Y0777796D01*
X0261231Y0777788D01*
X0261834Y0777540D01*
X0261843Y0777542D01*
X0261847Y0777536D01*
X0262494Y0777451D01*
X0262502Y0777456D01*
X0262506Y0777451D01*
X0263154Y0777536D01*
G37*
D10*
X0214344Y0773635D02*
X0216587Y0780365D01*
X0218830Y0773635D01*
X0218269Y0775318D02*
X0214904Y0775318D01*
X0221918Y0777000D02*
X0221920Y0777148D01*
X0221926Y0777296D01*
X0221936Y0777443D01*
X0221950Y0777591D01*
X0221967Y0777738D01*
X0221989Y0777884D01*
X0222014Y0778030D01*
X0222044Y0778175D01*
X0222077Y0778319D01*
X0222114Y0778462D01*
X0222155Y0778604D01*
X0222200Y0778746D01*
X0222248Y0778884D01*
X0222300Y0779024D01*
X0222355Y0779161D01*
X0222415Y0779295D01*
X0222479Y0779430D01*
X0222479Y0779431D02*
X0222504Y0779498D01*
X0222532Y0779563D01*
X0222564Y0779627D01*
X0222599Y0779689D01*
X0222637Y0779750D01*
X0222678Y0779808D01*
X0222721Y0779865D01*
X0222769Y0779918D01*
X0222819Y0779970D01*
X0222871Y0780018D01*
X0222926Y0780064D01*
X0222983Y0780107D01*
X0223042Y0780147D01*
X0223104Y0780184D01*
X0223167Y0780218D01*
X0223231Y0780248D01*
X0223297Y0780275D01*
X0223365Y0780299D01*
X0223434Y0780319D01*
X0223503Y0780336D01*
X0223573Y0780348D01*
X0223644Y0780358D01*
X0223716Y0780363D01*
X0223787Y0780365D01*
X0223858Y0780363D01*
X0223930Y0780358D01*
X0224001Y0780348D01*
X0224071Y0780336D01*
X0224140Y0780319D01*
X0224209Y0780299D01*
X0224277Y0780275D01*
X0224343Y0780248D01*
X0224407Y0780218D01*
X0224470Y0780184D01*
X0224532Y0780147D01*
X0224591Y0780107D01*
X0224648Y0780064D01*
X0224703Y0780018D01*
X0224755Y0779970D01*
X0224805Y0779918D01*
X0224852Y0779865D01*
X0224896Y0779808D01*
X0224937Y0779750D01*
X0224975Y0779689D01*
X0225010Y0779627D01*
X0225042Y0779563D01*
X0225069Y0779497D01*
X0225095Y0779430D01*
X0225096Y0779430D02*
X0225159Y0779295D01*
X0225219Y0779161D01*
X0225275Y0779024D01*
X0225326Y0778884D01*
X0225375Y0778746D01*
X0225420Y0778605D01*
X0225461Y0778462D01*
X0225498Y0778319D01*
X0225531Y0778175D01*
X0225561Y0778030D01*
X0225585Y0777884D01*
X0225608Y0777738D01*
X0225625Y0777591D01*
X0225639Y0777443D01*
X0225649Y0777296D01*
X0225655Y0777148D01*
X0225657Y0777000D01*
X0221918Y0777000D02*
X0221920Y0776852D01*
X0221926Y0776704D01*
X0221936Y0776557D01*
X0221950Y0776409D01*
X0221967Y0776262D01*
X0221989Y0776116D01*
X0222014Y0775970D01*
X0222044Y0775825D01*
X0222077Y0775681D01*
X0222114Y0775538D01*
X0222155Y0775396D01*
X0222200Y0775254D01*
X0222248Y0775115D01*
X0222300Y0774976D01*
X0222355Y0774839D01*
X0222415Y0774704D01*
X0222479Y0774569D01*
X0222479Y0774569D02*
X0222504Y0774502D01*
X0222532Y0774437D01*
X0222564Y0774372D01*
X0222599Y0774310D01*
X0222637Y0774250D01*
X0222678Y0774192D01*
X0222721Y0774135D01*
X0222769Y0774081D01*
X0222819Y0774030D01*
X0222871Y0773982D01*
X0222926Y0773935D01*
X0222983Y0773893D01*
X0223042Y0773853D01*
X0223104Y0773816D01*
X0223167Y0773781D01*
X0223231Y0773752D01*
X0223297Y0773725D01*
X0223365Y0773701D01*
X0223434Y0773681D01*
X0223503Y0773664D01*
X0223573Y0773652D01*
X0223644Y0773642D01*
X0223716Y0773637D01*
X0223787Y0773635D01*
X0225095Y0774569D02*
X0225158Y0774704D01*
X0225218Y0774839D01*
X0225274Y0774976D01*
X0225326Y0775115D01*
X0225373Y0775254D01*
X0225418Y0775395D01*
X0225460Y0775538D01*
X0225497Y0775681D01*
X0225530Y0775825D01*
X0225560Y0775970D01*
X0225585Y0776116D01*
X0225607Y0776262D01*
X0225624Y0776409D01*
X0225638Y0776557D01*
X0225647Y0776704D01*
X0225654Y0776852D01*
X0225656Y0777000D01*
X0225095Y0774569D02*
X0225069Y0774502D01*
X0225042Y0774437D01*
X0225010Y0774372D01*
X0224975Y0774310D01*
X0224937Y0774250D01*
X0224896Y0774192D01*
X0224852Y0774135D01*
X0224805Y0774081D01*
X0224755Y0774030D01*
X0224703Y0773982D01*
X0224648Y0773935D01*
X0224591Y0773893D01*
X0224532Y0773853D01*
X0224470Y0773816D01*
X0224407Y0773781D01*
X0224343Y0773752D01*
X0224277Y0773725D01*
X0224209Y0773701D01*
X0224140Y0773681D01*
X0224071Y0773664D01*
X0224001Y0773652D01*
X0223930Y0773642D01*
X0223858Y0773637D01*
X0223787Y0773635D01*
X0222291Y0775131D02*
X0225283Y0778869D01*
X0217087Y0761865D02*
X0214844Y0755134D01*
X0219330Y0755134D02*
X0217087Y0761865D01*
X0218769Y0756818D02*
X0215403Y0756818D01*
X0222417Y0760369D02*
X0224287Y0761865D01*
X0224287Y0755134D01*
X0222417Y0755134D02*
X0226156Y0755134D01*
X0216587Y0743365D02*
X0214344Y0736635D01*
X0218830Y0736635D02*
X0216587Y0743365D01*
X0218269Y0738318D02*
X0214904Y0738318D01*
X0223974Y0743366D02*
X0224054Y0743364D01*
X0224134Y0743358D01*
X0224213Y0743349D01*
X0224292Y0743336D01*
X0224371Y0743319D01*
X0224448Y0743298D01*
X0224524Y0743272D01*
X0224600Y0743245D01*
X0224673Y0743214D01*
X0224745Y0743179D01*
X0224816Y0743141D01*
X0224884Y0743099D01*
X0224950Y0743054D01*
X0225014Y0743006D01*
X0225076Y0742955D01*
X0225135Y0742901D01*
X0225191Y0742844D01*
X0225246Y0742784D01*
X0225296Y0742723D01*
X0225345Y0742659D01*
X0225390Y0742593D01*
X0225432Y0742525D01*
X0225470Y0742454D01*
X0225505Y0742382D01*
X0225536Y0742309D01*
X0225564Y0742233D01*
X0225589Y0742157D01*
X0225610Y0742080D01*
X0225627Y0742002D01*
X0225640Y0741923D01*
X0225649Y0741843D01*
X0225655Y0741763D01*
X0225657Y0741683D01*
X0223974Y0743365D02*
X0223883Y0743363D01*
X0223793Y0743357D01*
X0223703Y0743348D01*
X0223613Y0743335D01*
X0223524Y0743318D01*
X0223436Y0743297D01*
X0223349Y0743272D01*
X0223262Y0743245D01*
X0223177Y0743213D01*
X0223094Y0743178D01*
X0223012Y0743139D01*
X0222932Y0743096D01*
X0222853Y0743052D01*
X0222777Y0743002D01*
X0222702Y0742951D01*
X0222629Y0742897D01*
X0222560Y0742839D01*
X0222492Y0742778D01*
X0222428Y0742715D01*
X0222366Y0742649D01*
X0222307Y0742580D01*
X0222251Y0742509D01*
X0222198Y0742436D01*
X0222148Y0742360D01*
X0222101Y0742282D01*
X0222057Y0742203D01*
X0222017Y0742122D01*
X0221980Y0742039D01*
X0221947Y0741955D01*
X0221917Y0741869D01*
X0225095Y0740374D02*
X0225153Y0740432D01*
X0225208Y0740492D01*
X0225260Y0740554D01*
X0225309Y0740619D01*
X0225356Y0740685D01*
X0225399Y0740754D01*
X0225439Y0740825D01*
X0225476Y0740896D01*
X0225510Y0740971D01*
X0225540Y0741046D01*
X0225567Y0741123D01*
X0225591Y0741201D01*
X0225610Y0741280D01*
X0225627Y0741360D01*
X0225640Y0741440D01*
X0225649Y0741521D01*
X0225654Y0741602D01*
X0225656Y0741683D01*
X0225096Y0740374D02*
X0221918Y0736635D01*
X0225656Y0736635D01*
D11*
X0175320Y0663438D02*
X0173161Y0656962D01*
X0177479Y0656962D02*
X0175320Y0663438D01*
X0176939Y0658580D02*
X0173701Y0658580D01*
X0180180Y0657322D02*
X0180180Y0656962D01*
X0180180Y0657322D02*
X0180539Y0657322D01*
X0180539Y0656962D01*
X0180180Y0656962D01*
X0184848Y0658401D02*
X0184848Y0663438D01*
X0184848Y0658401D02*
X0184846Y0658328D01*
X0184841Y0658255D01*
X0184831Y0658182D01*
X0184819Y0658111D01*
X0184802Y0658040D01*
X0184782Y0657970D01*
X0184758Y0657901D01*
X0184731Y0657834D01*
X0184701Y0657767D01*
X0184667Y0657703D01*
X0184630Y0657640D01*
X0184590Y0657579D01*
X0184547Y0657520D01*
X0184501Y0657464D01*
X0184452Y0657410D01*
X0184400Y0657358D01*
X0184346Y0657309D01*
X0184289Y0657263D01*
X0184230Y0657220D01*
X0184170Y0657180D01*
X0184106Y0657143D01*
X0184043Y0657109D01*
X0183976Y0657079D01*
X0183908Y0657052D01*
X0183840Y0657028D01*
X0183770Y0657008D01*
X0183699Y0656991D01*
X0183627Y0656979D01*
X0183555Y0656969D01*
X0183481Y0656964D01*
X0183409Y0656962D01*
X0182689Y0656962D01*
X0188905Y0656962D02*
X0191783Y0656962D01*
X0188905Y0656962D02*
X0188905Y0663438D01*
X0191783Y0663438D01*
X0191064Y0660560D02*
X0188905Y0660560D01*
X0195121Y0663438D02*
X0195121Y0656962D01*
X0198719Y0656962D02*
X0195121Y0663438D01*
X0198719Y0663438D02*
X0198719Y0656962D01*
X0202825Y0656962D02*
X0205703Y0656962D01*
X0202825Y0656962D02*
X0202825Y0663438D01*
X0205703Y0663438D01*
X0204984Y0660560D02*
X0202825Y0660560D01*
X0209119Y0663438D02*
X0209119Y0656962D01*
X0209119Y0663438D02*
X0210918Y0663438D01*
X0211001Y0663436D01*
X0211084Y0663430D01*
X0211167Y0663421D01*
X0211249Y0663407D01*
X0211330Y0663390D01*
X0211409Y0663369D01*
X0211490Y0663345D01*
X0211568Y0663317D01*
X0211645Y0663285D01*
X0211720Y0663249D01*
X0211792Y0663211D01*
X0211865Y0663169D01*
X0211935Y0663122D01*
X0212002Y0663075D01*
X0212066Y0663023D01*
X0212130Y0662968D01*
X0212190Y0662911D01*
X0212247Y0662851D01*
X0212302Y0662788D01*
X0212353Y0662723D01*
X0212402Y0662656D01*
X0212447Y0662586D01*
X0212490Y0662514D01*
X0212528Y0662441D01*
X0212564Y0662366D01*
X0212596Y0662289D01*
X0212624Y0662211D01*
X0212648Y0662131D01*
X0212669Y0662051D01*
X0212686Y0661970D01*
X0212700Y0661888D01*
X0212709Y0661805D01*
X0212715Y0661722D01*
X0212717Y0661639D01*
X0212715Y0661556D01*
X0212709Y0661473D01*
X0212700Y0661390D01*
X0212686Y0661307D01*
X0212669Y0661227D01*
X0212648Y0661147D01*
X0212624Y0661067D01*
X0212596Y0660989D01*
X0212564Y0660912D01*
X0212528Y0660836D01*
X0212490Y0660764D01*
X0212447Y0660692D01*
X0212402Y0660622D01*
X0212353Y0660555D01*
X0212302Y0660490D01*
X0212247Y0660427D01*
X0212190Y0660367D01*
X0212130Y0660310D01*
X0212066Y0660254D01*
X0212002Y0660203D01*
X0211935Y0660155D01*
X0211865Y0660109D01*
X0211792Y0660067D01*
X0211720Y0660029D01*
X0211645Y0659993D01*
X0211568Y0659961D01*
X0211490Y0659933D01*
X0211409Y0659909D01*
X0211330Y0659888D01*
X0211249Y0659871D01*
X0211167Y0659857D01*
X0211084Y0659848D01*
X0211001Y0659842D01*
X0210918Y0659840D01*
X0209119Y0659840D01*
X0211278Y0659840D02*
X0212717Y0656962D01*
X0217560Y0656962D02*
X0217560Y0663438D01*
X0215761Y0663438D02*
X0219359Y0663438D01*
X0224400Y0656962D02*
X0224474Y0656964D01*
X0224549Y0656970D01*
X0224625Y0656979D01*
X0224699Y0656992D01*
X0224772Y0657011D01*
X0224845Y0657032D01*
X0224915Y0657058D01*
X0224985Y0657086D01*
X0225052Y0657119D01*
X0225120Y0657155D01*
X0225184Y0657193D01*
X0225246Y0657236D01*
X0225306Y0657283D01*
X0225363Y0657332D01*
X0225418Y0657383D01*
X0225469Y0657437D01*
X0225518Y0657495D01*
X0225564Y0657555D01*
X0225607Y0657617D01*
X0225646Y0657681D01*
X0225682Y0657748D01*
X0225715Y0657816D01*
X0225743Y0657885D01*
X0225769Y0657955D01*
X0225790Y0658028D01*
X0225808Y0658102D01*
X0225821Y0658176D01*
X0225831Y0658251D01*
X0225837Y0658326D01*
X0225839Y0658401D01*
X0224400Y0656962D02*
X0224290Y0656964D01*
X0224182Y0656970D01*
X0224073Y0656979D01*
X0223965Y0656992D01*
X0223857Y0657011D01*
X0223750Y0657032D01*
X0223644Y0657056D01*
X0223539Y0657086D01*
X0223435Y0657119D01*
X0223331Y0657156D01*
X0223231Y0657196D01*
X0223131Y0657240D01*
X0223033Y0657287D01*
X0222935Y0657338D01*
X0222841Y0657392D01*
X0222749Y0657450D01*
X0222658Y0657510D01*
X0222569Y0657574D01*
X0222484Y0657642D01*
X0222400Y0657711D01*
X0222320Y0657784D01*
X0222241Y0657861D01*
X0222421Y0661999D02*
X0222423Y0662074D01*
X0222429Y0662149D01*
X0222439Y0662223D01*
X0222452Y0662298D01*
X0222470Y0662371D01*
X0222491Y0662444D01*
X0222517Y0662514D01*
X0222545Y0662584D01*
X0222578Y0662651D01*
X0222614Y0662719D01*
X0222653Y0662783D01*
X0222696Y0662845D01*
X0222742Y0662905D01*
X0222791Y0662962D01*
X0222841Y0663017D01*
X0222897Y0663068D01*
X0222954Y0663117D01*
X0223014Y0663163D01*
X0223076Y0663206D01*
X0223141Y0663245D01*
X0223207Y0663281D01*
X0223275Y0663314D01*
X0223344Y0663342D01*
X0223415Y0663368D01*
X0223488Y0663389D01*
X0223560Y0663407D01*
X0223635Y0663420D01*
X0223710Y0663430D01*
X0223785Y0663436D01*
X0223860Y0663438D01*
X0223962Y0663436D01*
X0224063Y0663430D01*
X0224166Y0663421D01*
X0224267Y0663407D01*
X0224367Y0663390D01*
X0224468Y0663369D01*
X0224566Y0663344D01*
X0224665Y0663315D01*
X0224762Y0663283D01*
X0224857Y0663247D01*
X0224951Y0663207D01*
X0225044Y0663164D01*
X0225135Y0663118D01*
X0225224Y0663068D01*
X0225311Y0663015D01*
X0225396Y0662958D01*
X0225478Y0662898D01*
X0223140Y0660739D02*
X0223075Y0660780D01*
X0223013Y0660823D01*
X0222953Y0660870D01*
X0222896Y0660920D01*
X0222841Y0660972D01*
X0222789Y0661028D01*
X0222740Y0661086D01*
X0222695Y0661146D01*
X0222652Y0661209D01*
X0222612Y0661274D01*
X0222577Y0661340D01*
X0222544Y0661409D01*
X0222515Y0661478D01*
X0222490Y0661551D01*
X0222469Y0661624D01*
X0222451Y0661698D01*
X0222438Y0661772D01*
X0222428Y0661847D01*
X0222422Y0661923D01*
X0222420Y0661999D01*
X0225119Y0659661D02*
X0225184Y0659620D01*
X0225246Y0659577D01*
X0225306Y0659530D01*
X0225363Y0659479D01*
X0225418Y0659428D01*
X0225470Y0659372D01*
X0225519Y0659314D01*
X0225564Y0659254D01*
X0225607Y0659191D01*
X0225646Y0659126D01*
X0225682Y0659060D01*
X0225715Y0658991D01*
X0225744Y0658921D01*
X0225769Y0658849D01*
X0225790Y0658776D01*
X0225808Y0658702D01*
X0225821Y0658627D01*
X0225831Y0658553D01*
X0225837Y0658477D01*
X0225839Y0658401D01*
X0225119Y0659659D02*
X0223140Y0660740D01*
X0265401Y0661538D02*
X0265401Y0658661D01*
X0265401Y0661538D02*
X0265403Y0661622D01*
X0265409Y0661705D01*
X0265418Y0661788D01*
X0265432Y0661870D01*
X0265449Y0661951D01*
X0265470Y0662031D01*
X0265494Y0662111D01*
X0265522Y0662189D01*
X0265554Y0662266D01*
X0265590Y0662341D01*
X0265628Y0662414D01*
X0265670Y0662486D01*
X0265716Y0662556D01*
X0265764Y0662623D01*
X0265816Y0662688D01*
X0265871Y0662751D01*
X0265928Y0662811D01*
X0265988Y0662868D01*
X0266051Y0662923D01*
X0266116Y0662975D01*
X0266183Y0663023D01*
X0266253Y0663069D01*
X0266325Y0663111D01*
X0266398Y0663149D01*
X0266473Y0663185D01*
X0266550Y0663217D01*
X0266628Y0663245D01*
X0266708Y0663269D01*
X0266788Y0663289D01*
X0266869Y0663306D01*
X0266951Y0663321D01*
X0267034Y0663330D01*
X0267117Y0663336D01*
X0267200Y0663338D01*
X0267283Y0663336D01*
X0267366Y0663330D01*
X0267449Y0663321D01*
X0267531Y0663306D01*
X0267612Y0663289D01*
X0267692Y0663269D01*
X0267772Y0663245D01*
X0267850Y0663217D01*
X0267927Y0663185D01*
X0268002Y0663149D01*
X0268075Y0663111D01*
X0268147Y0663069D01*
X0268217Y0663023D01*
X0268284Y0662975D01*
X0268349Y0662923D01*
X0268412Y0662868D01*
X0268472Y0662811D01*
X0268529Y0662751D01*
X0268584Y0662688D01*
X0268636Y0662623D01*
X0268684Y0662556D01*
X0268730Y0662486D01*
X0268772Y0662414D01*
X0268810Y0662341D01*
X0268846Y0662266D01*
X0268878Y0662189D01*
X0268906Y0662111D01*
X0268930Y0662031D01*
X0268951Y0661951D01*
X0268968Y0661870D01*
X0268982Y0661788D01*
X0268991Y0661705D01*
X0268997Y0661622D01*
X0268999Y0661538D01*
X0268999Y0658661D01*
X0268997Y0658578D01*
X0268991Y0658495D01*
X0268982Y0658412D01*
X0268968Y0658330D01*
X0268951Y0658249D01*
X0268930Y0658169D01*
X0268906Y0658089D01*
X0268878Y0658011D01*
X0268846Y0657934D01*
X0268810Y0657859D01*
X0268772Y0657786D01*
X0268730Y0657714D01*
X0268684Y0657644D01*
X0268636Y0657577D01*
X0268584Y0657512D01*
X0268529Y0657449D01*
X0268472Y0657389D01*
X0268412Y0657332D01*
X0268349Y0657277D01*
X0268284Y0657225D01*
X0268217Y0657176D01*
X0268147Y0657131D01*
X0268075Y0657089D01*
X0268002Y0657051D01*
X0267927Y0657015D01*
X0267850Y0656983D01*
X0267772Y0656955D01*
X0267692Y0656931D01*
X0267612Y0656910D01*
X0267531Y0656893D01*
X0267449Y0656879D01*
X0267366Y0656870D01*
X0267283Y0656864D01*
X0267200Y0656862D01*
X0267117Y0656864D01*
X0267034Y0656870D01*
X0266951Y0656879D01*
X0266869Y0656893D01*
X0266788Y0656910D01*
X0266708Y0656931D01*
X0266628Y0656955D01*
X0266550Y0656983D01*
X0266473Y0657015D01*
X0266398Y0657051D01*
X0266325Y0657089D01*
X0266253Y0657131D01*
X0266183Y0657176D01*
X0266116Y0657225D01*
X0266051Y0657277D01*
X0265988Y0657332D01*
X0265928Y0657389D01*
X0265871Y0657449D01*
X0265816Y0657512D01*
X0265764Y0657577D01*
X0265716Y0657644D01*
X0265670Y0657714D01*
X0265628Y0657786D01*
X0265590Y0657859D01*
X0265554Y0657934D01*
X0265522Y0658011D01*
X0265494Y0658089D01*
X0265470Y0658169D01*
X0265449Y0658249D01*
X0265432Y0658330D01*
X0265418Y0658412D01*
X0265409Y0658495D01*
X0265403Y0658578D01*
X0265401Y0658661D01*
X0273574Y0656862D02*
X0275014Y0656862D01*
X0273574Y0656862D02*
X0273511Y0656864D01*
X0273449Y0656869D01*
X0273387Y0656878D01*
X0273325Y0656891D01*
X0273265Y0656907D01*
X0273205Y0656927D01*
X0273147Y0656949D01*
X0273090Y0656977D01*
X0273035Y0657007D01*
X0272981Y0657039D01*
X0272930Y0657076D01*
X0272880Y0657114D01*
X0272834Y0657156D01*
X0272789Y0657201D01*
X0272747Y0657247D01*
X0272709Y0657296D01*
X0272673Y0657348D01*
X0272640Y0657402D01*
X0272610Y0657457D01*
X0272583Y0657514D01*
X0272560Y0657572D01*
X0272540Y0657632D01*
X0272524Y0657692D01*
X0272511Y0657754D01*
X0272502Y0657816D01*
X0272497Y0657878D01*
X0272495Y0657941D01*
X0272495Y0660100D01*
X0272497Y0660163D01*
X0272502Y0660224D01*
X0272511Y0660287D01*
X0272524Y0660348D01*
X0272540Y0660408D01*
X0272560Y0660468D01*
X0272583Y0660527D01*
X0272610Y0660584D01*
X0272640Y0660639D01*
X0272673Y0660693D01*
X0272709Y0660744D01*
X0272747Y0660794D01*
X0272789Y0660840D01*
X0272834Y0660885D01*
X0272880Y0660926D01*
X0272930Y0660965D01*
X0272981Y0661001D01*
X0273035Y0661033D01*
X0273090Y0661063D01*
X0273147Y0661091D01*
X0273205Y0661114D01*
X0273265Y0661134D01*
X0273325Y0661150D01*
X0273387Y0661163D01*
X0273449Y0661172D01*
X0273511Y0661177D01*
X0273574Y0661179D01*
X0275014Y0661179D01*
X0277302Y0661179D02*
X0279461Y0661179D01*
X0278022Y0663338D02*
X0278022Y0657941D01*
X0278024Y0657878D01*
X0278029Y0657816D01*
X0278038Y0657754D01*
X0278051Y0657692D01*
X0278067Y0657632D01*
X0278087Y0657572D01*
X0278110Y0657514D01*
X0278137Y0657457D01*
X0278167Y0657401D01*
X0278200Y0657348D01*
X0278236Y0657296D01*
X0278274Y0657247D01*
X0278316Y0657201D01*
X0278361Y0657156D01*
X0278407Y0657114D01*
X0278457Y0657075D01*
X0278508Y0657039D01*
X0278562Y0657007D01*
X0278617Y0656977D01*
X0278674Y0656949D01*
X0278732Y0656927D01*
X0278792Y0656907D01*
X0278852Y0656891D01*
X0278914Y0656878D01*
X0278976Y0656869D01*
X0279038Y0656864D01*
X0279101Y0656862D01*
X0279461Y0656862D01*
X0282140Y0656862D02*
X0282140Y0657222D01*
X0282500Y0657222D01*
X0282500Y0656862D01*
X0282140Y0656862D01*
X0291380Y0663338D02*
X0291459Y0663336D01*
X0291539Y0663330D01*
X0291618Y0663319D01*
X0291696Y0663306D01*
X0291773Y0663289D01*
X0291850Y0663268D01*
X0291925Y0663242D01*
X0292000Y0663215D01*
X0292072Y0663182D01*
X0292143Y0663147D01*
X0292212Y0663108D01*
X0292279Y0663065D01*
X0292344Y0663019D01*
X0292407Y0662971D01*
X0292467Y0662919D01*
X0292525Y0662864D01*
X0292580Y0662806D01*
X0292632Y0662746D01*
X0292680Y0662683D01*
X0292726Y0662617D01*
X0292769Y0662551D01*
X0292808Y0662482D01*
X0292844Y0662411D01*
X0292876Y0662339D01*
X0292904Y0662264D01*
X0292929Y0662189D01*
X0292950Y0662112D01*
X0292968Y0662035D01*
X0292981Y0661957D01*
X0292991Y0661878D01*
X0292997Y0661798D01*
X0292999Y0661718D01*
X0291380Y0663338D02*
X0291290Y0663336D01*
X0291200Y0663330D01*
X0291110Y0663319D01*
X0291021Y0663306D01*
X0290933Y0663289D01*
X0290845Y0663268D01*
X0290758Y0663242D01*
X0290673Y0663214D01*
X0290589Y0663182D01*
X0290506Y0663145D01*
X0290425Y0663105D01*
X0290346Y0663062D01*
X0290269Y0663015D01*
X0290193Y0662966D01*
X0290120Y0662913D01*
X0290050Y0662857D01*
X0289982Y0662798D01*
X0289916Y0662736D01*
X0289854Y0662671D01*
X0289794Y0662603D01*
X0289737Y0662533D01*
X0289683Y0662461D01*
X0289633Y0662386D01*
X0289585Y0662310D01*
X0289541Y0662231D01*
X0289501Y0662150D01*
X0289464Y0662068D01*
X0289431Y0661984D01*
X0289401Y0661899D01*
X0292459Y0660460D02*
X0292515Y0660515D01*
X0292568Y0660573D01*
X0292618Y0660633D01*
X0292665Y0660695D01*
X0292710Y0660759D01*
X0292752Y0660825D01*
X0292790Y0660893D01*
X0292826Y0660963D01*
X0292858Y0661033D01*
X0292888Y0661107D01*
X0292913Y0661180D01*
X0292936Y0661255D01*
X0292955Y0661331D01*
X0292971Y0661408D01*
X0292983Y0661485D01*
X0292992Y0661563D01*
X0292997Y0661641D01*
X0292999Y0661718D01*
X0292459Y0660460D02*
X0289401Y0656862D01*
X0292999Y0656862D01*
X0296601Y0660100D02*
X0296603Y0660241D01*
X0296609Y0660385D01*
X0296618Y0660527D01*
X0296631Y0660669D01*
X0296648Y0660810D01*
X0296669Y0660951D01*
X0296694Y0661091D01*
X0296722Y0661230D01*
X0296754Y0661369D01*
X0296790Y0661507D01*
X0296829Y0661644D01*
X0296872Y0661780D01*
X0296919Y0661914D01*
X0296969Y0662048D01*
X0297023Y0662179D01*
X0297080Y0662310D01*
X0297141Y0662439D01*
X0297166Y0662506D01*
X0297195Y0662572D01*
X0297227Y0662636D01*
X0297263Y0662698D01*
X0297301Y0662758D01*
X0297344Y0662817D01*
X0297389Y0662872D01*
X0297437Y0662925D01*
X0297488Y0662976D01*
X0297541Y0663024D01*
X0297597Y0663069D01*
X0297656Y0663111D01*
X0297716Y0663149D01*
X0297779Y0663184D01*
X0297843Y0663216D01*
X0297909Y0663244D01*
X0297977Y0663269D01*
X0298045Y0663289D01*
X0298115Y0663306D01*
X0298186Y0663321D01*
X0298257Y0663330D01*
X0298328Y0663336D01*
X0298400Y0663338D01*
X0298472Y0663336D01*
X0298543Y0663330D01*
X0298614Y0663321D01*
X0298685Y0663306D01*
X0298755Y0663289D01*
X0298823Y0663269D01*
X0298891Y0663244D01*
X0298957Y0663216D01*
X0299021Y0663184D01*
X0299084Y0663149D01*
X0299144Y0663111D01*
X0299203Y0663069D01*
X0299259Y0663024D01*
X0299312Y0662976D01*
X0299363Y0662925D01*
X0299411Y0662872D01*
X0299456Y0662817D01*
X0299499Y0662758D01*
X0299537Y0662698D01*
X0299573Y0662636D01*
X0299605Y0662572D01*
X0299634Y0662506D01*
X0299659Y0662439D01*
X0299720Y0662310D01*
X0299777Y0662179D01*
X0299831Y0662048D01*
X0299881Y0661914D01*
X0299928Y0661780D01*
X0299971Y0661644D01*
X0300010Y0661507D01*
X0300046Y0661369D01*
X0300078Y0661230D01*
X0300106Y0661091D01*
X0300131Y0660951D01*
X0300152Y0660810D01*
X0300169Y0660669D01*
X0300182Y0660527D01*
X0300191Y0660385D01*
X0300197Y0660241D01*
X0300199Y0660100D01*
X0296601Y0660100D02*
X0296603Y0659958D01*
X0296609Y0659815D01*
X0296618Y0659673D01*
X0296631Y0659531D01*
X0296648Y0659389D01*
X0296669Y0659248D01*
X0296694Y0659109D01*
X0296722Y0658969D01*
X0296754Y0658831D01*
X0296790Y0658693D01*
X0296829Y0658556D01*
X0296872Y0658420D01*
X0296919Y0658286D01*
X0296969Y0658152D01*
X0297023Y0658021D01*
X0297080Y0657890D01*
X0297141Y0657761D01*
X0297166Y0657694D01*
X0297195Y0657628D01*
X0297227Y0657564D01*
X0297263Y0657502D01*
X0297301Y0657441D01*
X0297344Y0657383D01*
X0297389Y0657328D01*
X0297437Y0657274D01*
X0297488Y0657223D01*
X0297541Y0657176D01*
X0297597Y0657131D01*
X0297656Y0657089D01*
X0297716Y0657051D01*
X0297779Y0657016D01*
X0297843Y0656984D01*
X0297909Y0656956D01*
X0297977Y0656931D01*
X0298045Y0656910D01*
X0298115Y0656893D01*
X0298186Y0656879D01*
X0298257Y0656870D01*
X0298328Y0656864D01*
X0298400Y0656862D01*
X0299659Y0657761D02*
X0299720Y0657890D01*
X0299777Y0658021D01*
X0299831Y0658152D01*
X0299881Y0658286D01*
X0299928Y0658420D01*
X0299971Y0658556D01*
X0300010Y0658693D01*
X0300046Y0658831D01*
X0300078Y0658969D01*
X0300106Y0659109D01*
X0300131Y0659248D01*
X0300152Y0659389D01*
X0300169Y0659531D01*
X0300182Y0659673D01*
X0300191Y0659815D01*
X0300197Y0659958D01*
X0300199Y0660100D01*
X0299659Y0657761D02*
X0299634Y0657694D01*
X0299605Y0657628D01*
X0299573Y0657564D01*
X0299537Y0657502D01*
X0299499Y0657442D01*
X0299456Y0657383D01*
X0299411Y0657328D01*
X0299363Y0657274D01*
X0299312Y0657223D01*
X0299259Y0657176D01*
X0299203Y0657131D01*
X0299144Y0657089D01*
X0299084Y0657051D01*
X0299021Y0657016D01*
X0298957Y0656984D01*
X0298891Y0656956D01*
X0298823Y0656931D01*
X0298755Y0656910D01*
X0298685Y0656893D01*
X0298614Y0656879D01*
X0298543Y0656870D01*
X0298472Y0656864D01*
X0298400Y0656862D01*
X0296961Y0658301D02*
X0299839Y0661899D01*
X0305780Y0663338D02*
X0305859Y0663336D01*
X0305939Y0663330D01*
X0306018Y0663319D01*
X0306096Y0663306D01*
X0306173Y0663289D01*
X0306250Y0663268D01*
X0306325Y0663242D01*
X0306400Y0663215D01*
X0306472Y0663182D01*
X0306543Y0663147D01*
X0306612Y0663108D01*
X0306679Y0663065D01*
X0306744Y0663019D01*
X0306807Y0662971D01*
X0306867Y0662919D01*
X0306925Y0662864D01*
X0306980Y0662806D01*
X0307032Y0662746D01*
X0307080Y0662683D01*
X0307126Y0662617D01*
X0307169Y0662551D01*
X0307208Y0662482D01*
X0307244Y0662411D01*
X0307276Y0662339D01*
X0307304Y0662264D01*
X0307329Y0662189D01*
X0307350Y0662112D01*
X0307368Y0662035D01*
X0307381Y0661957D01*
X0307391Y0661878D01*
X0307397Y0661798D01*
X0307399Y0661718D01*
X0305780Y0663338D02*
X0305690Y0663336D01*
X0305600Y0663330D01*
X0305510Y0663319D01*
X0305421Y0663306D01*
X0305333Y0663289D01*
X0305245Y0663268D01*
X0305158Y0663242D01*
X0305073Y0663214D01*
X0304989Y0663182D01*
X0304906Y0663145D01*
X0304825Y0663105D01*
X0304746Y0663062D01*
X0304669Y0663015D01*
X0304593Y0662966D01*
X0304520Y0662913D01*
X0304450Y0662857D01*
X0304382Y0662798D01*
X0304316Y0662736D01*
X0304254Y0662671D01*
X0304194Y0662603D01*
X0304137Y0662533D01*
X0304083Y0662461D01*
X0304033Y0662386D01*
X0303985Y0662310D01*
X0303941Y0662231D01*
X0303901Y0662150D01*
X0303864Y0662068D01*
X0303831Y0661984D01*
X0303801Y0661899D01*
X0306859Y0660460D02*
X0306915Y0660515D01*
X0306968Y0660573D01*
X0307018Y0660633D01*
X0307065Y0660695D01*
X0307110Y0660759D01*
X0307152Y0660825D01*
X0307190Y0660893D01*
X0307226Y0660963D01*
X0307258Y0661033D01*
X0307288Y0661107D01*
X0307313Y0661180D01*
X0307336Y0661255D01*
X0307355Y0661331D01*
X0307371Y0661408D01*
X0307383Y0661485D01*
X0307392Y0661563D01*
X0307397Y0661641D01*
X0307399Y0661718D01*
X0306859Y0660460D02*
X0303801Y0656862D01*
X0307399Y0656862D01*
X0311001Y0661899D02*
X0312800Y0663338D01*
X0312800Y0656862D01*
X0311001Y0656862D02*
X0314599Y0656862D01*
D12*
X0194500Y0826000D02*
X0169500Y0826000D01*
X0169500Y0674000D01*
X0194500Y0674000D01*
X0194500Y0695000D01*
X0194500Y0805000D01*
X0194500Y0826000D01*
X0194500Y0805000D02*
X0182000Y0805000D01*
X0182000Y0695000D01*
X0194500Y0695000D01*
D10*
X0260000Y0745000D02*
X0260000Y0775000D01*
X0230000Y0775000D01*
X0230000Y0745000D01*
X0260000Y0745000D01*
D13*
X0229290Y0788275D02*
X0229288Y0788344D01*
X0229283Y0788412D01*
X0229273Y0788480D01*
X0229260Y0788548D01*
X0229244Y0788615D01*
X0229224Y0788681D01*
X0229200Y0788745D01*
X0229173Y0788807D01*
X0229142Y0788870D01*
X0229108Y0788930D01*
X0229071Y0788988D01*
X0229031Y0789044D01*
X0228988Y0789097D01*
X0228941Y0789148D01*
X0228893Y0789197D01*
X0228842Y0789243D01*
X0228789Y0789286D01*
X0228733Y0789326D01*
X0228675Y0789363D01*
X0228615Y0789397D01*
X0228553Y0789428D01*
X0228490Y0789455D01*
X0228426Y0789479D01*
X0228359Y0789499D01*
X0228293Y0789515D01*
X0228224Y0789528D01*
X0228157Y0789538D01*
X0228089Y0789543D01*
X0228020Y0789545D01*
X0229290Y0788275D02*
X0229290Y0782925D01*
X0229288Y0782856D01*
X0229283Y0782788D01*
X0229273Y0782720D01*
X0229260Y0782651D01*
X0229244Y0782585D01*
X0229224Y0782519D01*
X0229200Y0782454D01*
X0229173Y0782392D01*
X0229142Y0782330D01*
X0229108Y0782270D01*
X0229071Y0782212D01*
X0229031Y0782156D01*
X0228988Y0782103D01*
X0228941Y0782052D01*
X0228893Y0782003D01*
X0228842Y0781957D01*
X0228789Y0781914D01*
X0228733Y0781874D01*
X0228675Y0781837D01*
X0228615Y0781803D01*
X0228553Y0781772D01*
X0228490Y0781745D01*
X0228426Y0781721D01*
X0228359Y0781701D01*
X0228293Y0781685D01*
X0228224Y0781671D01*
X0228157Y0781662D01*
X0228089Y0781657D01*
X0228020Y0781655D01*
X0213780Y0781655D01*
X0213710Y0781657D01*
X0213643Y0781662D01*
X0213575Y0781671D01*
X0213507Y0781685D01*
X0213440Y0781701D01*
X0213374Y0781721D01*
X0213310Y0781745D01*
X0213247Y0781772D01*
X0213185Y0781803D01*
X0213125Y0781837D01*
X0213067Y0781874D01*
X0213010Y0781914D01*
X0212958Y0781957D01*
X0212907Y0782003D01*
X0212858Y0782052D01*
X0212811Y0782103D01*
X0212769Y0782156D01*
X0212729Y0782212D01*
X0212691Y0782270D01*
X0212658Y0782330D01*
X0212627Y0782392D01*
X0212599Y0782454D01*
X0212576Y0782519D01*
X0212556Y0782585D01*
X0212539Y0782651D01*
X0212527Y0782720D01*
X0212517Y0782788D01*
X0212512Y0782856D01*
X0212510Y0782925D01*
X0212510Y0788275D01*
X0212512Y0788344D01*
X0212517Y0788412D01*
X0212527Y0788480D01*
X0212539Y0788548D01*
X0212556Y0788615D01*
X0212576Y0788681D01*
X0212599Y0788745D01*
X0212627Y0788807D01*
X0212658Y0788870D01*
X0212691Y0788930D01*
X0212729Y0788988D01*
X0212769Y0789044D01*
X0212811Y0789097D01*
X0212858Y0789148D01*
X0212907Y0789197D01*
X0212958Y0789243D01*
X0213010Y0789286D01*
X0213067Y0789326D01*
X0213125Y0789363D01*
X0213185Y0789397D01*
X0213247Y0789428D01*
X0213310Y0789455D01*
X0213374Y0789479D01*
X0213440Y0789499D01*
X0213507Y0789515D01*
X0213575Y0789528D01*
X0213643Y0789538D01*
X0213710Y0789543D01*
X0213780Y0789545D01*
X0228020Y0789545D01*
X0266820Y0725445D02*
X0266889Y0725442D01*
X0266957Y0725438D01*
X0267025Y0725428D01*
X0267093Y0725415D01*
X0267160Y0725399D01*
X0267226Y0725378D01*
X0267290Y0725355D01*
X0267353Y0725328D01*
X0267415Y0725297D01*
X0267475Y0725263D01*
X0267533Y0725226D01*
X0267589Y0725186D01*
X0267642Y0725143D01*
X0267693Y0725097D01*
X0267742Y0725048D01*
X0267788Y0724997D01*
X0267831Y0724944D01*
X0267871Y0724888D01*
X0267908Y0724830D01*
X0267942Y0724770D01*
X0267973Y0724708D01*
X0268000Y0724645D01*
X0268024Y0724581D01*
X0268044Y0724515D01*
X0268060Y0724448D01*
X0268073Y0724380D01*
X0268083Y0724312D01*
X0268088Y0724244D01*
X0268090Y0724175D01*
X0268090Y0718824D01*
X0268088Y0718756D01*
X0268083Y0718687D01*
X0268073Y0718620D01*
X0268060Y0718552D01*
X0268044Y0718485D01*
X0268024Y0718419D01*
X0268000Y0718355D01*
X0267973Y0718292D01*
X0267942Y0718230D01*
X0267908Y0718170D01*
X0267871Y0718112D01*
X0267831Y0718056D01*
X0267788Y0718002D01*
X0267742Y0717951D01*
X0267693Y0717903D01*
X0267642Y0717857D01*
X0267589Y0717814D01*
X0267533Y0717774D01*
X0267475Y0717737D01*
X0267415Y0717703D01*
X0267353Y0717672D01*
X0267290Y0717645D01*
X0267226Y0717621D01*
X0267160Y0717601D01*
X0267093Y0717585D01*
X0267025Y0717572D01*
X0266957Y0717562D01*
X0266889Y0717557D01*
X0266820Y0717555D01*
X0252580Y0717555D01*
X0252511Y0717557D01*
X0252443Y0717562D01*
X0252375Y0717572D01*
X0252307Y0717585D01*
X0252240Y0717601D01*
X0252173Y0717621D01*
X0252109Y0717645D01*
X0252047Y0717672D01*
X0251985Y0717703D01*
X0251925Y0717737D01*
X0251867Y0717774D01*
X0251811Y0717814D01*
X0251758Y0717857D01*
X0251707Y0717903D01*
X0251658Y0717951D01*
X0251612Y0718002D01*
X0251569Y0718056D01*
X0251529Y0718112D01*
X0251492Y0718170D01*
X0251458Y0718230D01*
X0251426Y0718292D01*
X0251400Y0718355D01*
X0251376Y0718419D01*
X0251356Y0718485D01*
X0251340Y0718552D01*
X0251327Y0718620D01*
X0251317Y0718687D01*
X0251312Y0718756D01*
X0251310Y0718824D01*
X0251310Y0724175D01*
X0251312Y0724244D01*
X0251317Y0724312D01*
X0251327Y0724380D01*
X0251340Y0724448D01*
X0251356Y0724515D01*
X0251376Y0724581D01*
X0251400Y0724645D01*
X0251426Y0724708D01*
X0251458Y0724770D01*
X0251492Y0724830D01*
X0251529Y0724888D01*
X0251569Y0724944D01*
X0251612Y0724997D01*
X0251658Y0725048D01*
X0251707Y0725097D01*
X0251758Y0725143D01*
X0251811Y0725186D01*
X0251867Y0725226D01*
X0251925Y0725263D01*
X0251985Y0725297D01*
X0252047Y0725328D01*
X0252109Y0725355D01*
X0252173Y0725378D01*
X0252240Y0725399D01*
X0252307Y0725415D01*
X0252375Y0725428D01*
X0252443Y0725438D01*
X0252511Y0725442D01*
X0252580Y0725445D01*
X0266820Y0725445D01*
D12*
X0295500Y0674000D02*
X0320500Y0674000D01*
X0320500Y0826000D01*
X0295500Y0826000D01*
X0295500Y0805000D01*
X0295500Y0695000D01*
X0295500Y0674000D01*
X0295500Y0695000D02*
X0308000Y0695000D01*
X0308000Y0805000D01*
X0295500Y0805000D01*
D14*
X0225465Y0772180D02*
X0214733Y0772180D01*
X0212694Y0766060D02*
X0212696Y0765971D01*
X0212702Y0765882D01*
X0212711Y0765793D01*
X0212725Y0765706D01*
X0212742Y0765618D01*
X0212764Y0765532D01*
X0212788Y0765447D01*
X0212817Y0765361D01*
X0212849Y0765279D01*
X0212885Y0765198D01*
X0212924Y0765117D01*
X0212967Y0765040D01*
X0213013Y0764964D01*
X0213063Y0764890D01*
X0213116Y0764817D01*
X0213171Y0764749D01*
X0213230Y0764682D01*
X0213292Y0764618D01*
X0213356Y0764556D01*
X0213423Y0764497D01*
X0213492Y0764442D01*
X0213564Y0764389D01*
X0213638Y0764339D01*
X0213714Y0764293D01*
X0213792Y0764250D01*
X0213872Y0764211D01*
X0213953Y0764175D01*
X0214036Y0764143D01*
X0214121Y0764114D01*
X0214206Y0764090D01*
X0214292Y0764068D01*
X0214380Y0764051D01*
X0214468Y0764037D01*
X0214556Y0764028D01*
X0214645Y0764021D01*
X0214733Y0764020D01*
X0225465Y0764020D02*
X0225555Y0764021D01*
X0225644Y0764028D01*
X0225732Y0764037D01*
X0225820Y0764051D01*
X0225908Y0764068D01*
X0225994Y0764090D01*
X0226079Y0764114D01*
X0226164Y0764143D01*
X0226247Y0764175D01*
X0226328Y0764211D01*
X0226408Y0764250D01*
X0226486Y0764293D01*
X0226561Y0764339D01*
X0226636Y0764389D01*
X0226708Y0764442D01*
X0226777Y0764497D01*
X0226844Y0764556D01*
X0226908Y0764618D01*
X0226970Y0764682D01*
X0227029Y0764749D01*
X0227084Y0764817D01*
X0227137Y0764890D01*
X0227186Y0764964D01*
X0227233Y0765040D01*
X0227276Y0765117D01*
X0227315Y0765198D01*
X0227351Y0765279D01*
X0227383Y0765361D01*
X0227412Y0765447D01*
X0227436Y0765532D01*
X0227458Y0765618D01*
X0227475Y0765706D01*
X0227489Y0765793D01*
X0227498Y0765882D01*
X0227504Y0765971D01*
X0227506Y0766060D01*
X0227506Y0770140D02*
X0227504Y0770228D01*
X0227498Y0770318D01*
X0227489Y0770406D01*
X0227475Y0770494D01*
X0227458Y0770582D01*
X0227436Y0770668D01*
X0227412Y0770753D01*
X0227383Y0770838D01*
X0227351Y0770921D01*
X0227315Y0771002D01*
X0227276Y0771082D01*
X0227233Y0771160D01*
X0227186Y0771236D01*
X0227137Y0771310D01*
X0227084Y0771382D01*
X0227029Y0771451D01*
X0226970Y0771518D01*
X0226908Y0771581D01*
X0226844Y0771644D01*
X0226777Y0771703D01*
X0226708Y0771758D01*
X0226636Y0771811D01*
X0226561Y0771861D01*
X0226486Y0771906D01*
X0226408Y0771949D01*
X0226328Y0771989D01*
X0226247Y0772025D01*
X0226164Y0772057D01*
X0226079Y0772086D01*
X0225994Y0772110D01*
X0225908Y0772132D01*
X0225820Y0772149D01*
X0225732Y0772163D01*
X0225644Y0772172D01*
X0225555Y0772178D01*
X0225465Y0772180D01*
X0214733Y0772180D02*
X0214645Y0772178D01*
X0214556Y0772172D01*
X0214468Y0772163D01*
X0214380Y0772149D01*
X0214292Y0772132D01*
X0214206Y0772110D01*
X0214121Y0772086D01*
X0214036Y0772057D01*
X0213953Y0772025D01*
X0213872Y0771989D01*
X0213792Y0771949D01*
X0213714Y0771906D01*
X0213638Y0771861D01*
X0213564Y0771811D01*
X0213492Y0771758D01*
X0213423Y0771703D01*
X0213356Y0771644D01*
X0213292Y0771581D01*
X0213230Y0771518D01*
X0213171Y0771451D01*
X0213116Y0771382D01*
X0213063Y0771310D01*
X0213013Y0771236D01*
X0212967Y0771160D01*
X0212924Y0771082D01*
X0212885Y0771002D01*
X0212849Y0770921D01*
X0212817Y0770838D01*
X0212788Y0770753D01*
X0212764Y0770668D01*
X0212742Y0770582D01*
X0212725Y0770494D01*
X0212711Y0770406D01*
X0212702Y0770318D01*
X0212696Y0770228D01*
X0212694Y0770140D01*
X0212694Y0766060D01*
X0227506Y0766060D02*
X0227506Y0770140D01*
X0225465Y0764020D02*
X0214733Y0764020D01*
X0214834Y0753580D02*
X0225566Y0753580D01*
X0214834Y0745420D02*
X0214745Y0745421D01*
X0214656Y0745428D01*
X0214568Y0745437D01*
X0214480Y0745451D01*
X0214392Y0745468D01*
X0214305Y0745490D01*
X0214221Y0745514D01*
X0214136Y0745543D01*
X0214053Y0745575D01*
X0213971Y0745611D01*
X0213892Y0745650D01*
X0213814Y0745693D01*
X0213738Y0745739D01*
X0213664Y0745789D01*
X0213592Y0745842D01*
X0213523Y0745896D01*
X0213456Y0745956D01*
X0213391Y0746018D01*
X0213329Y0746082D01*
X0213271Y0746149D01*
X0213216Y0746218D01*
X0213162Y0746290D01*
X0213113Y0746364D01*
X0213067Y0746440D01*
X0213024Y0746518D01*
X0212985Y0746598D01*
X0212948Y0746679D01*
X0212917Y0746762D01*
X0212888Y0746846D01*
X0212864Y0746932D01*
X0212841Y0747018D01*
X0212825Y0747106D01*
X0212811Y0747194D01*
X0212802Y0747282D01*
X0212796Y0747371D01*
X0212794Y0747460D01*
X0225566Y0745420D02*
X0225655Y0745421D01*
X0225744Y0745428D01*
X0225831Y0745437D01*
X0225920Y0745451D01*
X0226008Y0745468D01*
X0226094Y0745490D01*
X0226179Y0745514D01*
X0226264Y0745543D01*
X0226347Y0745575D01*
X0226428Y0745611D01*
X0226508Y0745650D01*
X0226586Y0745693D01*
X0226662Y0745739D01*
X0226736Y0745789D01*
X0226807Y0745842D01*
X0226877Y0745896D01*
X0226944Y0745956D01*
X0227008Y0746018D01*
X0227070Y0746082D01*
X0227129Y0746149D01*
X0227184Y0746218D01*
X0227237Y0746290D01*
X0227287Y0746364D01*
X0227333Y0746440D01*
X0227376Y0746518D01*
X0227415Y0746598D01*
X0227451Y0746679D01*
X0227483Y0746762D01*
X0227512Y0746846D01*
X0227536Y0746932D01*
X0227558Y0747018D01*
X0227575Y0747106D01*
X0227589Y0747194D01*
X0227597Y0747282D01*
X0227604Y0747371D01*
X0227606Y0747460D01*
X0227606Y0751540D02*
X0227604Y0751629D01*
X0227597Y0751718D01*
X0227589Y0751806D01*
X0227575Y0751894D01*
X0227558Y0751982D01*
X0227536Y0752068D01*
X0227512Y0752153D01*
X0227483Y0752238D01*
X0227451Y0752321D01*
X0227415Y0752402D01*
X0227376Y0752482D01*
X0227333Y0752560D01*
X0227287Y0752636D01*
X0227237Y0752710D01*
X0227184Y0752782D01*
X0227129Y0752851D01*
X0227070Y0752918D01*
X0227008Y0752982D01*
X0226944Y0753044D01*
X0226877Y0753103D01*
X0226807Y0753158D01*
X0226736Y0753211D01*
X0226662Y0753261D01*
X0226586Y0753307D01*
X0226508Y0753350D01*
X0226428Y0753389D01*
X0226347Y0753425D01*
X0226264Y0753456D01*
X0226179Y0753486D01*
X0226094Y0753510D01*
X0226008Y0753532D01*
X0225920Y0753549D01*
X0225831Y0753563D01*
X0225744Y0753572D01*
X0225655Y0753578D01*
X0225566Y0753580D01*
X0214834Y0753580D02*
X0214745Y0753578D01*
X0214656Y0753572D01*
X0214568Y0753563D01*
X0214480Y0753549D01*
X0214392Y0753532D01*
X0214305Y0753510D01*
X0214221Y0753486D01*
X0214136Y0753456D01*
X0214053Y0753425D01*
X0213971Y0753389D01*
X0213892Y0753350D01*
X0213814Y0753307D01*
X0213738Y0753261D01*
X0213664Y0753211D01*
X0213592Y0753158D01*
X0213523Y0753103D01*
X0213456Y0753044D01*
X0213391Y0752982D01*
X0213329Y0752918D01*
X0213271Y0752851D01*
X0213216Y0752782D01*
X0213162Y0752710D01*
X0213113Y0752636D01*
X0213067Y0752560D01*
X0213024Y0752482D01*
X0212985Y0752402D01*
X0212948Y0752321D01*
X0212917Y0752238D01*
X0212888Y0752153D01*
X0212864Y0752068D01*
X0212841Y0751982D01*
X0212825Y0751894D01*
X0212811Y0751806D01*
X0212802Y0751718D01*
X0212796Y0751629D01*
X0212794Y0751540D01*
X0212794Y0747460D01*
X0227606Y0747460D02*
X0227606Y0751540D01*
X0225566Y0745420D02*
X0214834Y0745420D01*
X0214834Y0735080D02*
X0225566Y0735080D01*
X0214834Y0726920D02*
X0214745Y0726922D01*
X0214656Y0726928D01*
X0214568Y0726937D01*
X0214480Y0726951D01*
X0214392Y0726968D01*
X0214305Y0726990D01*
X0214221Y0727014D01*
X0214136Y0727043D01*
X0214053Y0727075D01*
X0213971Y0727111D01*
X0213892Y0727150D01*
X0213814Y0727193D01*
X0213738Y0727239D01*
X0213664Y0727289D01*
X0213592Y0727342D01*
X0213523Y0727397D01*
X0213456Y0727456D01*
X0213391Y0727518D01*
X0213329Y0727582D01*
X0213271Y0727649D01*
X0213216Y0727718D01*
X0213162Y0727790D01*
X0213113Y0727864D01*
X0213067Y0727940D01*
X0213024Y0728018D01*
X0212985Y0728098D01*
X0212948Y0728179D01*
X0212917Y0728262D01*
X0212888Y0728347D01*
X0212864Y0728432D01*
X0212841Y0728518D01*
X0212825Y0728606D01*
X0212811Y0728694D01*
X0212802Y0728781D01*
X0212796Y0728871D01*
X0212794Y0728960D01*
X0225566Y0726920D02*
X0225655Y0726922D01*
X0225744Y0726928D01*
X0225831Y0726937D01*
X0225920Y0726951D01*
X0226008Y0726968D01*
X0226094Y0726990D01*
X0226179Y0727014D01*
X0226264Y0727043D01*
X0226347Y0727075D01*
X0226428Y0727111D01*
X0226508Y0727150D01*
X0226586Y0727193D01*
X0226662Y0727239D01*
X0226736Y0727289D01*
X0226807Y0727342D01*
X0226877Y0727397D01*
X0226944Y0727456D01*
X0227008Y0727518D01*
X0227070Y0727582D01*
X0227129Y0727649D01*
X0227184Y0727718D01*
X0227237Y0727790D01*
X0227287Y0727864D01*
X0227333Y0727940D01*
X0227376Y0728018D01*
X0227415Y0728098D01*
X0227451Y0728179D01*
X0227483Y0728262D01*
X0227512Y0728347D01*
X0227536Y0728432D01*
X0227558Y0728518D01*
X0227575Y0728606D01*
X0227589Y0728694D01*
X0227597Y0728781D01*
X0227604Y0728871D01*
X0227606Y0728960D01*
X0227606Y0733040D02*
X0227604Y0733129D01*
X0227597Y0733218D01*
X0227589Y0733306D01*
X0227575Y0733394D01*
X0227558Y0733482D01*
X0227536Y0733567D01*
X0227512Y0733653D01*
X0227483Y0733738D01*
X0227451Y0733820D01*
X0227415Y0733901D01*
X0227376Y0733982D01*
X0227333Y0734060D01*
X0227287Y0734136D01*
X0227237Y0734209D01*
X0227184Y0734282D01*
X0227129Y0734351D01*
X0227070Y0734418D01*
X0227008Y0734482D01*
X0226944Y0734543D01*
X0226877Y0734603D01*
X0226807Y0734658D01*
X0226736Y0734711D01*
X0226662Y0734761D01*
X0226586Y0734807D01*
X0226508Y0734850D01*
X0226428Y0734889D01*
X0226347Y0734925D01*
X0226264Y0734957D01*
X0226179Y0734986D01*
X0226094Y0735010D01*
X0226008Y0735031D01*
X0225920Y0735048D01*
X0225831Y0735063D01*
X0225744Y0735072D01*
X0225655Y0735078D01*
X0225566Y0735080D01*
X0214834Y0735080D02*
X0214745Y0735078D01*
X0214656Y0735072D01*
X0214568Y0735063D01*
X0214480Y0735048D01*
X0214392Y0735031D01*
X0214305Y0735010D01*
X0214221Y0734986D01*
X0214136Y0734957D01*
X0214053Y0734925D01*
X0213971Y0734889D01*
X0213892Y0734850D01*
X0213814Y0734807D01*
X0213738Y0734761D01*
X0213664Y0734711D01*
X0213592Y0734658D01*
X0213523Y0734603D01*
X0213456Y0734543D01*
X0213391Y0734482D01*
X0213329Y0734418D01*
X0213271Y0734351D01*
X0213216Y0734282D01*
X0213162Y0734209D01*
X0213113Y0734136D01*
X0213067Y0734060D01*
X0213024Y0733982D01*
X0212985Y0733901D01*
X0212948Y0733820D01*
X0212917Y0733738D01*
X0212888Y0733653D01*
X0212864Y0733567D01*
X0212841Y0733482D01*
X0212825Y0733394D01*
X0212811Y0733306D01*
X0212802Y0733218D01*
X0212796Y0733129D01*
X0212794Y0733040D01*
X0212794Y0728960D01*
X0227606Y0728960D02*
X0227606Y0733040D01*
X0225566Y0726920D02*
X0214834Y0726920D01*
D12*
X0234000Y0723500D02*
X0248000Y0723500D01*
X0248000Y0719500D01*
X0234000Y0719500D01*
X0234000Y0723500D01*
M02*