G04 EAGLE Gerber RS-274X export*
G75*
%MOMM*%
%FSLAX34Y34*%
%LPD*%
%INSolder stop mask*%
%IPPOS*%
%AMOC8*
5,1,8,0,0,$1,22.5*%
G01*
%ADD10C,2.3032*%
%ADD11R,2.2032X0.8032*%
%ADD12R,3.1032X2.8032*%
%ADD13R,0.6532X1.6532*%
%ADD14C,0.450047*%
%ADD15C,0.330503*%
%ADD16R,0.4032X0.5032*%
D10*
X0150000Y0650000D02*
X0245000Y0830000D03*
X0245000Y0670000D03*
D11*
X0164500Y0795000D03*
X0199500Y0785000D03*
X0164500Y0775000D03*
X0199500Y0765000D03*
X0164500Y0755000D03*
X0199500Y0745000D03*
X0164500Y0735000D03*
X0199500Y0725000D03*
X0164500Y0715000D03*
X0199500Y0705000D03*
D12*
X0182000Y0819000D03*
X0182000Y0681000D03*
D13*
X0254750Y0782000D03*
X0248250Y0782000D03*
X0241750Y0782000D03*
X0235250Y0782000D03*
X0235250Y0738000D03*
X0241750Y0738000D03*
X0248250Y0738000D03*
X0254750Y0738000D03*
D14*
X0217541Y0784334D02*
X0215009Y0784334D01*
X0215009Y0786866D01*
X0217541Y0786866D01*
X0217541Y0784334D01*
X0224259Y0784334D02*
X0226790Y0784334D01*
X0224259Y0784334D02*
X0224259Y0786866D01*
X0226790Y0786866D01*
X0226790Y0784334D01*
X0253809Y0720234D02*
X0256341Y0720234D01*
X0253809Y0720234D02*
X0253809Y0722766D01*
X0256341Y0722766D01*
X0256341Y0720234D01*
X0263059Y0720234D02*
X0265591Y0720234D01*
X0263059Y0720234D02*
X0263059Y0722766D01*
X0265591Y0722766D01*
X0265591Y0720234D01*
D11*
X0325500Y0705000D03*
X0290500Y0715000D03*
X0325500Y0725000D03*
X0290500Y0735000D03*
X0325500Y0745000D03*
X0290500Y0755000D03*
X0325500Y0765000D03*
X0290500Y0775000D03*
X0325500Y0785000D03*
X0290500Y0795000D03*
D12*
X0308000Y0681000D03*
X0308000Y0819000D03*
D15*
X0225278Y0769964D02*
X0221550Y0769964D01*
X0225278Y0769964D02*
X0225278Y0766236D01*
X0221550Y0766236D01*
X0221550Y0769964D01*
X0221550Y0769376D02*
X0225278Y0769376D01*
X0218650Y0769964D02*
X0214922Y0769964D01*
X0218650Y0769964D02*
X0218650Y0766236D01*
X0214922Y0766236D01*
X0214922Y0769964D01*
X0214922Y0769376D02*
X0218650Y0769376D01*
X0221650Y0751364D02*
X0225378Y0751364D01*
X0225378Y0747636D01*
X0221650Y0747636D01*
X0221650Y0751364D01*
X0221650Y0750776D02*
X0225378Y0750776D01*
X0218750Y0751364D02*
X0215022Y0751364D01*
X0218750Y0751364D02*
X0218750Y0747636D01*
X0215022Y0747636D01*
X0215022Y0751364D01*
X0215022Y0750776D02*
X0218750Y0750776D01*
X0221650Y0732864D02*
X0225378Y0732864D01*
X0225378Y0729136D01*
X0221650Y0729136D01*
X0221650Y0732864D01*
X0221650Y0732276D02*
X0225378Y0732276D01*
X0218750Y0732864D02*
X0215022Y0732864D01*
X0218750Y0732864D02*
X0218750Y0729136D01*
X0215022Y0729136D01*
X0215022Y0732864D01*
X0215022Y0732276D02*
X0218750Y0732276D01*
D16*
X0235000Y0718500D03*
X0239000Y0718500D03*
X0243000Y0718500D03*
X0247000Y0718500D03*
X0247000Y0724500D03*
X0243000Y0724500D03*
X0239000Y0724500D03*
X0235000Y0724500D03*
M02*