G04 EAGLE Gerber RS-274X export*
G75*
%MOMM*%
%FSLAX34Y34*%
%LPD*%
%INStencil*%
%IPPOS*%
%AMOC8*
5,1,8,0,0,$1,22.5*%
G01*
%ADD10R,2X0.6*%
%ADD11R,2.9X2.6*%
%ADD12R,0.45X1.45*%
%ADD13C,0.25*%
%ADD14R,0.2X0.3*%
D10*
X0390000Y0650000D02*
X0404500Y0795000D03*
X0439500Y0785000D03*
X0404500Y0775000D03*
X0439500Y0765000D03*
X0404500Y0755000D03*
X0439500Y0745000D03*
X0404500Y0735000D03*
X0439500Y0725000D03*
X0404500Y0715000D03*
X0439500Y0705000D03*
D11*
X0422000Y0819000D03*
X0422000Y0681000D03*
D12*
X0494750Y0782000D03*
X0488250Y0782000D03*
X0481750Y0782000D03*
X0475250Y0782000D03*
X0475250Y0738000D03*
X0481750Y0738000D03*
X0488250Y0738000D03*
X0494750Y0738000D03*
D13*
X0457525Y0784350D02*
X0455025Y0784350D01*
X0455025Y0786850D01*
X0457525Y0786850D01*
X0457525Y0784350D01*
X0457525Y0786725D02*
X0455025Y0786725D01*
X0464275Y0784350D02*
X0466775Y0784350D01*
X0464275Y0784350D02*
X0464275Y0786850D01*
X0466775Y0786850D01*
X0466775Y0784350D01*
X0466775Y0786725D02*
X0464275Y0786725D01*
X0493825Y0720250D02*
X0496325Y0720250D01*
X0493825Y0720250D02*
X0493825Y0722750D01*
X0496325Y0722750D01*
X0496325Y0720250D01*
X0496325Y0722625D02*
X0493825Y0722625D01*
X0503075Y0720250D02*
X0505575Y0720250D01*
X0503075Y0720250D02*
X0503075Y0722750D01*
X0505575Y0722750D01*
X0505575Y0720250D01*
X0505575Y0722625D02*
X0503075Y0722625D01*
D10*
X0565500Y0705000D03*
X0530500Y0715000D03*
X0565500Y0725000D03*
X0530500Y0735000D03*
X0565500Y0745000D03*
X0530500Y0755000D03*
X0565500Y0765000D03*
X0530500Y0775000D03*
X0565500Y0785000D03*
X0530500Y0795000D03*
D11*
X0548000Y0681000D03*
X0548000Y0819000D03*
D14*
X0475000Y0718500D03*
X0479000Y0718500D03*
X0483000Y0718500D03*
X0487000Y0718500D03*
X0487000Y0724500D03*
X0483000Y0724500D03*
X0479000Y0724500D03*
X0475000Y0724500D03*
M02*