%MOIN*%
%OFA0B0*%
%FSLAX36Y36*%
%IPPOS*%
%LPD*%
%ADD10C,0*%
D10*
X003740156Y000000000D02*
X003740156Y000000000D01*
X003749647Y000000573D01*
X003759000Y000002287D01*
X003768078Y000005115D01*
X003776748Y000009018D01*
X003784885Y000013937D01*
X003792370Y000019801D01*
X003799094Y000026524D01*
X003804958Y000034009D01*
X003809877Y000042146D01*
X003813779Y000050817D01*
X003816608Y000059895D01*
X003818322Y000069248D01*
X003818896Y000078739D01*
X003818896Y003858266D01*
X003818322Y003867757D01*
X003816608Y003877110D01*
X003813779Y003886188D01*
X003809877Y003894859D01*
X003804958Y003902996D01*
X003799094Y003910481D01*
X003792370Y003917204D01*
X003784885Y003923068D01*
X003776748Y003927987D01*
X003768078Y003931891D01*
X003759000Y003934718D01*
X003749647Y003936432D01*
X003740156Y003937006D01*
X000078739Y003937006D01*
X000069248Y003936432D01*
X000059895Y003934718D01*
X000050817Y003931891D01*
X000042146Y003927987D01*
X000034009Y003923068D01*
X000026524Y003917204D01*
X000019801Y003910481D01*
X000013937Y003902996D01*
X000009018Y003894859D01*
X000005115Y003886188D01*
X000002287Y003877110D01*
X000000573Y003867757D01*
X000000000Y003858266D01*
X000000000Y000078739D01*
X000000573Y000069248D01*
X000002287Y000059895D01*
X000005115Y000050817D01*
X000009018Y000042146D01*
X000013937Y000034009D01*
X000019801Y000026524D01*
X000026524Y000019801D01*
X000034009Y000013937D01*
X000042146Y000009018D01*
X000050817Y000005115D01*
X000059895Y000002287D01*
X000069248Y000000573D01*
X000078739Y000000000D01*
X003740156Y000000000D01*
X002283464Y002204724D02*
X002283464Y002204724D01*
X002282866Y002218448D01*
X002281070Y002232070D01*
X002278098Y002245484D01*
X002273968Y002258586D01*
X002268708Y002271279D01*
X002262365Y002283464D01*
X002254983Y002295051D01*
X002246622Y002305952D01*
X002237338Y002316078D01*
X002227212Y002325362D01*
X002216311Y002333724D01*
X002204724Y002341105D01*
X002192539Y002347448D01*
X002179846Y002352708D01*
X002166744Y002356838D01*
X002153330Y002359811D01*
X002139708Y002361606D01*
X002125984Y002362204D01*
X001988090Y002362204D01*
X001985001Y002362326D01*
X001981931Y002362689D01*
X001978899Y002363292D01*
X001975924Y002364131D01*
X001973024Y002365201D01*
X001970216Y002366495D01*
X001967519Y002368006D01*
X001964949Y002369723D01*
X001962521Y002371637D01*
X001960251Y002373735D01*
X001958153Y002376005D01*
X001956239Y002378433D01*
X001954521Y002381003D01*
X001953011Y002383701D01*
X001951717Y002386508D01*
X001950647Y002389408D01*
X001949808Y002392384D01*
X001949205Y002395415D01*
X001948841Y002398485D01*
X001948720Y002401574D01*
X001948720Y002519685D01*
X001948841Y002522773D01*
X001949205Y002525843D01*
X001949808Y002528875D01*
X001950647Y002531851D01*
X001951717Y002534751D01*
X001953011Y002537558D01*
X001954521Y002540255D01*
X001956239Y002542826D01*
X001958153Y002545253D01*
X001960251Y002547523D01*
X001962521Y002549622D01*
X001964949Y002551536D01*
X001967519Y002553253D01*
X001970216Y002554764D01*
X001973024Y002556058D01*
X001975924Y002557128D01*
X001978899Y002557967D01*
X001981931Y002558570D01*
X001985001Y002558933D01*
X001988090Y002559055D01*
X002125984Y002559055D01*
X002139708Y002559653D01*
X002153330Y002561448D01*
X002166744Y002564421D01*
X002179846Y002568551D01*
X002192539Y002573811D01*
X002204724Y002580153D01*
X002216311Y002587535D01*
X002227212Y002595897D01*
X002237338Y002605181D01*
X002246622Y002615311D01*
X002254983Y002626208D01*
X002262365Y002637795D01*
X002268708Y002649980D01*
X002273968Y002662673D01*
X002278098Y002675775D01*
X002281070Y002689188D01*
X002282866Y002702811D01*
X002283464Y002716535D01*
X002283464Y002887468D01*
X002283585Y002890556D01*
X002283949Y002893626D01*
X002284552Y002896658D01*
X002285391Y002899634D01*
X002286461Y002902534D01*
X002287755Y002905341D01*
X002289266Y002908038D01*
X002290983Y002910609D01*
X002292897Y002913036D01*
X002294995Y002915306D01*
X002297265Y002917405D01*
X002299693Y002919319D01*
X002302263Y002921036D01*
X002304961Y002922547D01*
X002307768Y002923841D01*
X002310668Y002924911D01*
X002313643Y002925750D01*
X002316675Y002926353D01*
X002319745Y002926716D01*
X002322834Y002926838D01*
X002440944Y002926838D01*
X002444033Y002926716D01*
X002447103Y002926353D01*
X002450135Y002925750D01*
X002453110Y002924911D01*
X002456011Y002923841D01*
X002458818Y002922547D01*
X002461515Y002921036D01*
X002464086Y002919319D01*
X002466513Y002917405D01*
X002468783Y002915306D01*
X002470882Y002913036D01*
X002472795Y002910609D01*
X002474513Y002908038D01*
X002476023Y002905341D01*
X002477318Y002902534D01*
X002478388Y002899634D01*
X002479227Y002896658D01*
X002479830Y002893626D01*
X002480193Y002890556D01*
X002480314Y002887468D01*
X002480314Y002716535D01*
X002480913Y002702811D01*
X002482708Y002689188D01*
X002485681Y002675775D01*
X002489811Y002662673D01*
X002495070Y002649980D01*
X002501413Y002637795D01*
X002508795Y002626208D01*
X002517157Y002615311D01*
X002526440Y002605181D01*
X002536570Y002595897D01*
X002547468Y002587535D01*
X002559055Y002580153D01*
X002571240Y002573811D01*
X002583933Y002568551D01*
X002597035Y002564421D01*
X002610448Y002561448D01*
X002624070Y002559653D01*
X002637795Y002559055D01*
X002775689Y002559055D01*
X002778777Y002558933D01*
X002781847Y002558570D01*
X002784879Y002557967D01*
X002787855Y002557128D01*
X002790755Y002556058D01*
X002793562Y002554764D01*
X002796259Y002553253D01*
X002798830Y002551536D01*
X002801257Y002549622D01*
X002803527Y002547523D01*
X002805626Y002545253D01*
X002807540Y002542826D01*
X002809257Y002540255D01*
X002810768Y002537558D01*
X002812062Y002534751D01*
X002813132Y002531851D01*
X002813971Y002528875D01*
X002814574Y002525843D01*
X002814937Y002522773D01*
X002815059Y002519685D01*
X002815059Y002401574D01*
X002814937Y002398485D01*
X002814574Y002395415D01*
X002813971Y002392384D01*
X002813132Y002389408D01*
X002812062Y002386508D01*
X002810768Y002383701D01*
X002809257Y002381003D01*
X002807540Y002378433D01*
X002805626Y002376005D01*
X002803527Y002373735D01*
X002801257Y002371637D01*
X002798830Y002369723D01*
X002796259Y002368006D01*
X002793562Y002366495D01*
X002790755Y002365201D01*
X002787855Y002364131D01*
X002784879Y002363292D01*
X002781847Y002362689D01*
X002778777Y002362326D01*
X002775689Y002362204D01*
X002637795Y002362204D01*
X002624070Y002361606D01*
X002610448Y002359811D01*
X002597035Y002356838D01*
X002583933Y002352708D01*
X002571240Y002347448D01*
X002559055Y002341105D01*
X002547468Y002333724D01*
X002536570Y002325362D01*
X002526440Y002316078D01*
X002517157Y002305952D01*
X002508795Y002295051D01*
X002501413Y002283464D01*
X002495070Y002271279D01*
X002489811Y002258586D01*
X002485681Y002245484D01*
X002482708Y002232070D01*
X002480913Y002218448D01*
X002480314Y002204724D01*
X002480314Y002033791D01*
X002480193Y002030702D01*
X002479830Y002027632D01*
X002479227Y002024601D01*
X002478388Y002021625D01*
X002477318Y002018725D01*
X002476023Y002015918D01*
X002474513Y002013221D01*
X002472795Y002010650D01*
X002470882Y002008223D01*
X002468783Y002005952D01*
X002466513Y002003854D01*
X002464086Y002001940D01*
X002461515Y002000223D01*
X002458818Y001998712D01*
X002456011Y001997418D01*
X002453110Y001996348D01*
X002450135Y001995509D01*
X002447103Y001994906D01*
X002444033Y001994543D01*
X002440944Y001994421D01*
X002322834Y001994421D01*
X002319745Y001994543D01*
X002316675Y001994906D01*
X002313643Y001995509D01*
X002310668Y001996348D01*
X002307768Y001997418D01*
X002304961Y001998712D01*
X002302263Y002000223D01*
X002299693Y002001940D01*
X002297265Y002003854D01*
X002294995Y002005952D01*
X002292897Y002008223D01*
X002290983Y002010650D01*
X002289266Y002013221D01*
X002287755Y002015918D01*
X002286461Y002018725D01*
X002285391Y002021625D01*
X002284552Y002024601D01*
X002283949Y002027632D01*
X002283585Y002030702D01*
X002283464Y002033791D01*
X002283464Y002204724D01*
X001338582Y002204724D02*
X001338582Y002204724D01*
X001337984Y002218448D01*
X001336188Y002232070D01*
X001333216Y002245484D01*
X001329086Y002258586D01*
X001323826Y002271279D01*
X001317483Y002283464D01*
X001310101Y002295051D01*
X001301740Y002305952D01*
X001292456Y002316078D01*
X001282330Y002325362D01*
X001271429Y002333724D01*
X001259842Y002341105D01*
X001247657Y002347448D01*
X001234964Y002352708D01*
X001221862Y002356838D01*
X001208448Y002359811D01*
X001194826Y002361606D01*
X001181102Y002362204D01*
X001043208Y002362204D01*
X001040119Y002362326D01*
X001037049Y002362689D01*
X001034017Y002363292D01*
X001031042Y002364131D01*
X001028142Y002365201D01*
X001025334Y002366495D01*
X001022637Y002368006D01*
X001020067Y002369723D01*
X001017639Y002371637D01*
X001015369Y002373735D01*
X001013271Y002376005D01*
X001011357Y002378433D01*
X001009640Y002381003D01*
X001008129Y002383701D01*
X001006835Y002386508D01*
X001005765Y002389408D01*
X001004926Y002392384D01*
X001004323Y002395415D01*
X001003959Y002398485D01*
X001003838Y002401574D01*
X001003838Y002519685D01*
X001003959Y002522773D01*
X001004323Y002525843D01*
X001004926Y002528875D01*
X001005765Y002531851D01*
X001006835Y002534751D01*
X001008129Y002537558D01*
X001009640Y002540255D01*
X001011357Y002542826D01*
X001013271Y002545253D01*
X001015369Y002547523D01*
X001017639Y002549622D01*
X001020067Y002551536D01*
X001022637Y002553253D01*
X001025334Y002554764D01*
X001028142Y002556058D01*
X001031042Y002557128D01*
X001034017Y002557967D01*
X001037049Y002558570D01*
X001040119Y002558933D01*
X001043208Y002559055D01*
X001181102Y002559055D01*
X001194826Y002559653D01*
X001208448Y002561448D01*
X001221862Y002564421D01*
X001234964Y002568551D01*
X001247657Y002573811D01*
X001259842Y002580153D01*
X001271429Y002587535D01*
X001282330Y002595897D01*
X001292456Y002605181D01*
X001301740Y002615311D01*
X001310101Y002626208D01*
X001317483Y002637795D01*
X001323826Y002649980D01*
X001329086Y002662673D01*
X001333216Y002675775D01*
X001336188Y002689188D01*
X001337984Y002702811D01*
X001338582Y002716535D01*
X001338582Y002887468D01*
X001338704Y002890556D01*
X001339067Y002893626D01*
X001339670Y002896658D01*
X001340509Y002899634D01*
X001341579Y002902534D01*
X001342873Y002905341D01*
X001344384Y002908038D01*
X001346101Y002910609D01*
X001348015Y002913036D01*
X001350113Y002915306D01*
X001352383Y002917405D01*
X001354811Y002919319D01*
X001357381Y002921036D01*
X001360079Y002922547D01*
X001362886Y002923841D01*
X001365786Y002924911D01*
X001368761Y002925750D01*
X001371793Y002926353D01*
X001374863Y002926716D01*
X001377952Y002926838D01*
X001496062Y002926838D01*
X001499151Y002926716D01*
X001502221Y002926353D01*
X001505253Y002925750D01*
X001508229Y002924911D01*
X001511129Y002923841D01*
X001513936Y002922547D01*
X001516633Y002921036D01*
X001519204Y002919319D01*
X001521631Y002917405D01*
X001523901Y002915306D01*
X001526000Y002913036D01*
X001527914Y002910609D01*
X001529631Y002908038D01*
X001531141Y002905341D01*
X001532436Y002902534D01*
X001533506Y002899634D01*
X001534345Y002896658D01*
X001534948Y002893626D01*
X001535311Y002890556D01*
X001535433Y002887468D01*
X001535433Y002716535D01*
X001536031Y002702811D01*
X001537826Y002689188D01*
X001540799Y002675775D01*
X001544929Y002662673D01*
X001550188Y002649980D01*
X001556531Y002637795D01*
X001563913Y002626208D01*
X001572275Y002615311D01*
X001581559Y002605181D01*
X001591688Y002595897D01*
X001602586Y002587535D01*
X001614173Y002580153D01*
X001626358Y002573811D01*
X001639051Y002568551D01*
X001652153Y002564421D01*
X001665566Y002561448D01*
X001679188Y002559653D01*
X001692913Y002559055D01*
X001830807Y002559055D01*
X001833896Y002558933D01*
X001836965Y002558570D01*
X001839997Y002557967D01*
X001842973Y002557128D01*
X001845873Y002556058D01*
X001848680Y002554764D01*
X001851377Y002553253D01*
X001853948Y002551536D01*
X001856375Y002549622D01*
X001858645Y002547523D01*
X001860744Y002545253D01*
X001862658Y002542826D01*
X001864375Y002540255D01*
X001865886Y002537558D01*
X001867180Y002534751D01*
X001868250Y002531851D01*
X001869089Y002528875D01*
X001869692Y002525843D01*
X001870055Y002522773D01*
X001870177Y002519685D01*
X001870177Y002401574D01*
X001870055Y002398485D01*
X001869692Y002395415D01*
X001869089Y002392384D01*
X001868250Y002389408D01*
X001867180Y002386508D01*
X001865886Y002383701D01*
X001864375Y002381003D01*
X001862658Y002378433D01*
X001860744Y002376005D01*
X001858645Y002373735D01*
X001856375Y002371637D01*
X001853948Y002369723D01*
X001851377Y002368006D01*
X001848680Y002366495D01*
X001845873Y002365201D01*
X001842973Y002364131D01*
X001839997Y002363292D01*
X001836965Y002362689D01*
X001833896Y002362326D01*
X001830807Y002362204D01*
X001692913Y002362204D01*
X001679188Y002361606D01*
X001665566Y002359811D01*
X001652153Y002356838D01*
X001639051Y002352708D01*
X001626358Y002347448D01*
X001614173Y002341105D01*
X001602586Y002333724D01*
X001591688Y002325362D01*
X001581559Y002316078D01*
X001572275Y002305952D01*
X001563913Y002295051D01*
X001556531Y002283464D01*
X001550188Y002271279D01*
X001544929Y002258586D01*
X001540799Y002245484D01*
X001537826Y002232070D01*
X001536031Y002218448D01*
X001535433Y002204724D01*
X001535433Y002033791D01*
X001535311Y002030702D01*
X001534948Y002027632D01*
X001534345Y002024601D01*
X001533506Y002021625D01*
X001532436Y002018725D01*
X001531141Y002015918D01*
X001529631Y002013221D01*
X001527914Y002010650D01*
X001526000Y002008223D01*
X001523901Y002005952D01*
X001521631Y002003854D01*
X001519204Y002001940D01*
X001516633Y002000223D01*
X001513936Y001998712D01*
X001511129Y001997418D01*
X001508229Y001996348D01*
X001505253Y001995509D01*
X001502221Y001994906D01*
X001499151Y001994543D01*
X001496062Y001994421D01*
X001377952Y001994421D01*
X001374863Y001994543D01*
X001371793Y001994906D01*
X001368761Y001995509D01*
X001365786Y001996348D01*
X001362886Y001997418D01*
X001360079Y001998712D01*
X001357381Y002000223D01*
X001354811Y002001940D01*
X001352383Y002003854D01*
X001350113Y002005952D01*
X001348015Y002008223D01*
X001346101Y002010650D01*
X001344384Y002013221D01*
X001342873Y002015918D01*
X001341579Y002018725D01*
X001340509Y002021625D01*
X001339670Y002024601D01*
X001339067Y002027632D01*
X001338704Y002030702D01*
X001338582Y002033791D01*
X001338582Y002204724D01*
X002283464Y001220472D02*
X002283464Y001220472D01*
X002282866Y001234196D01*
X002281070Y001247818D01*
X002278098Y001261232D01*
X002273968Y001274334D01*
X002268708Y001287027D01*
X002262365Y001299212D01*
X002254983Y001310799D01*
X002246622Y001321700D01*
X002237338Y001331826D01*
X002227212Y001341110D01*
X002216311Y001349472D01*
X002204724Y001356853D01*
X002192539Y001363196D01*
X002179846Y001368456D01*
X002166744Y001372586D01*
X002153330Y001375559D01*
X002139708Y001377354D01*
X002125984Y001377952D01*
X001988090Y001377952D01*
X001985001Y001378074D01*
X001981931Y001378437D01*
X001978899Y001379040D01*
X001975924Y001379879D01*
X001973024Y001380949D01*
X001970216Y001382243D01*
X001967519Y001383754D01*
X001964949Y001385471D01*
X001962521Y001387385D01*
X001960251Y001389483D01*
X001958153Y001391754D01*
X001956239Y001394181D01*
X001954521Y001396752D01*
X001953011Y001399449D01*
X001951717Y001402256D01*
X001950647Y001405156D01*
X001949808Y001408132D01*
X001949205Y001411163D01*
X001948841Y001414233D01*
X001948720Y001417322D01*
X001948720Y001535433D01*
X001948841Y001538522D01*
X001949205Y001541591D01*
X001949808Y001544623D01*
X001950647Y001547599D01*
X001951717Y001550499D01*
X001953011Y001553306D01*
X001954521Y001556003D01*
X001956239Y001558574D01*
X001958153Y001561001D01*
X001960251Y001563271D01*
X001962521Y001565370D01*
X001964949Y001567284D01*
X001967519Y001569001D01*
X001970216Y001570512D01*
X001973024Y001571806D01*
X001975924Y001572876D01*
X001978899Y001573715D01*
X001981931Y001574318D01*
X001985001Y001574681D01*
X001988090Y001574803D01*
X002125984Y001574803D01*
X002139708Y001575401D01*
X002153330Y001577196D01*
X002166744Y001580169D01*
X002179846Y001584299D01*
X002192539Y001589559D01*
X002204724Y001595901D01*
X002216311Y001603283D01*
X002227212Y001611645D01*
X002237338Y001620929D01*
X002246622Y001631059D01*
X002254983Y001641956D01*
X002262365Y001653543D01*
X002268708Y001665728D01*
X002273968Y001678421D01*
X002278098Y001691523D01*
X002281070Y001704937D01*
X002282866Y001718559D01*
X002283464Y001732283D01*
X002283464Y001903216D01*
X002283585Y001906304D01*
X002283949Y001909374D01*
X002284552Y001912406D01*
X002285391Y001915382D01*
X002286461Y001918282D01*
X002287755Y001921089D01*
X002289266Y001923786D01*
X002290983Y001926357D01*
X002292897Y001928784D01*
X002294995Y001931054D01*
X002297265Y001933153D01*
X002299693Y001935067D01*
X002302263Y001936784D01*
X002304961Y001938295D01*
X002307768Y001939589D01*
X002310668Y001940659D01*
X002313643Y001941498D01*
X002316675Y001942101D01*
X002319745Y001942464D01*
X002322834Y001942586D01*
X002440944Y001942586D01*
X002444033Y001942464D01*
X002447103Y001942101D01*
X002450135Y001941498D01*
X002453110Y001940659D01*
X002456011Y001939589D01*
X002458818Y001938295D01*
X002461515Y001936784D01*
X002464086Y001935067D01*
X002466513Y001933153D01*
X002468783Y001931054D01*
X002470882Y001928784D01*
X002472795Y001926357D01*
X002474513Y001923786D01*
X002476023Y001921089D01*
X002477318Y001918282D01*
X002478388Y001915382D01*
X002479227Y001912406D01*
X002479830Y001909374D01*
X002480193Y001906304D01*
X002480314Y001903216D01*
X002480314Y001732283D01*
X002480913Y001718559D01*
X002482708Y001704937D01*
X002485681Y001691523D01*
X002489811Y001678421D01*
X002495070Y001665728D01*
X002501413Y001653543D01*
X002508795Y001641956D01*
X002517157Y001631059D01*
X002526440Y001620929D01*
X002536570Y001611645D01*
X002547468Y001603283D01*
X002559055Y001595901D01*
X002571240Y001589559D01*
X002583933Y001584299D01*
X002597035Y001580169D01*
X002610448Y001577196D01*
X002624070Y001575401D01*
X002637795Y001574803D01*
X002775689Y001574803D01*
X002778777Y001574681D01*
X002781847Y001574318D01*
X002784879Y001573715D01*
X002787855Y001572876D01*
X002790755Y001571806D01*
X002793562Y001570512D01*
X002796259Y001569001D01*
X002798830Y001567284D01*
X002801257Y001565370D01*
X002803527Y001563271D01*
X002805626Y001561001D01*
X002807540Y001558574D01*
X002809257Y001556003D01*
X002810768Y001553306D01*
X002812062Y001550499D01*
X002813132Y001547599D01*
X002813971Y001544623D01*
X002814574Y001541591D01*
X002814937Y001538522D01*
X002815059Y001535433D01*
X002815059Y001417322D01*
X002814937Y001414233D01*
X002814574Y001411163D01*
X002813971Y001408132D01*
X002813132Y001405156D01*
X002812062Y001402256D01*
X002810768Y001399449D01*
X002809257Y001396752D01*
X002807540Y001394181D01*
X002805626Y001391754D01*
X002803527Y001389483D01*
X002801257Y001387385D01*
X002798830Y001385471D01*
X002796259Y001383754D01*
X002793562Y001382243D01*
X002790755Y001380949D01*
X002787855Y001379879D01*
X002784879Y001379040D01*
X002781847Y001378437D01*
X002778777Y001378074D01*
X002775689Y001377952D01*
X002637795Y001377952D01*
X002624070Y001377354D01*
X002610448Y001375559D01*
X002597035Y001372586D01*
X002583933Y001368456D01*
X002571240Y001363196D01*
X002559055Y001356853D01*
X002547468Y001349472D01*
X002536570Y001341110D01*
X002526440Y001331826D01*
X002517157Y001321700D01*
X002508795Y001310799D01*
X002501413Y001299212D01*
X002495070Y001287027D01*
X002489811Y001274334D01*
X002485681Y001261232D01*
X002482708Y001247818D01*
X002480913Y001234196D01*
X002480314Y001220472D01*
X002480314Y001049539D01*
X002480193Y001046450D01*
X002479830Y001043381D01*
X002479227Y001040349D01*
X002478388Y001037373D01*
X002477318Y001034473D01*
X002476023Y001031666D01*
X002474513Y001028969D01*
X002472795Y001026398D01*
X002470882Y001023971D01*
X002468783Y001021701D01*
X002466513Y001019602D01*
X002464086Y001017688D01*
X002461515Y001015971D01*
X002458818Y001014460D01*
X002456011Y001013166D01*
X002453110Y001012096D01*
X002450135Y001011257D01*
X002447103Y001010654D01*
X002444033Y001010291D01*
X002440944Y001010169D01*
X002322834Y001010169D01*
X002319745Y001010291D01*
X002316675Y001010654D01*
X002313643Y001011257D01*
X002310668Y001012096D01*
X002307768Y001013166D01*
X002304961Y001014460D01*
X002302263Y001015971D01*
X002299693Y001017688D01*
X002297265Y001019602D01*
X002294995Y001021701D01*
X002292897Y001023971D01*
X002290983Y001026398D01*
X002289266Y001028969D01*
X002287755Y001031666D01*
X002286461Y001034473D01*
X002285391Y001037373D01*
X002284552Y001040349D01*
X002283949Y001043381D01*
X002283585Y001046450D01*
X002283464Y001049539D01*
X002283464Y001220472D01*
X001338582Y001220472D02*
X001338582Y001220472D01*
X001337984Y001234196D01*
X001336188Y001247818D01*
X001333216Y001261232D01*
X001329086Y001274334D01*
X001323826Y001287027D01*
X001317483Y001299212D01*
X001310101Y001310799D01*
X001301740Y001321700D01*
X001292456Y001331826D01*
X001282330Y001341110D01*
X001271429Y001349472D01*
X001259842Y001356853D01*
X001247657Y001363196D01*
X001234964Y001368456D01*
X001221862Y001372586D01*
X001208448Y001375559D01*
X001194826Y001377354D01*
X001181102Y001377952D01*
X001043208Y001377952D01*
X001040119Y001378074D01*
X001037049Y001378437D01*
X001034017Y001379040D01*
X001031042Y001379879D01*
X001028142Y001380949D01*
X001025334Y001382243D01*
X001022637Y001383754D01*
X001020067Y001385471D01*
X001017639Y001387385D01*
X001015369Y001389483D01*
X001013271Y001391754D01*
X001011357Y001394181D01*
X001009640Y001396752D01*
X001008129Y001399449D01*
X001006835Y001402256D01*
X001005765Y001405156D01*
X001004926Y001408132D01*
X001004323Y001411163D01*
X001003959Y001414233D01*
X001003838Y001417322D01*
X001003838Y001535433D01*
X001003959Y001538522D01*
X001004323Y001541591D01*
X001004926Y001544623D01*
X001005765Y001547599D01*
X001006835Y001550499D01*
X001008129Y001553306D01*
X001009640Y001556003D01*
X001011357Y001558574D01*
X001013271Y001561001D01*
X001015369Y001563271D01*
X001017639Y001565370D01*
X001020067Y001567284D01*
X001022637Y001569001D01*
X001025334Y001570512D01*
X001028142Y001571806D01*
X001031042Y001572876D01*
X001034017Y001573715D01*
X001037049Y001574318D01*
X001040119Y001574681D01*
X001043208Y001574803D01*
X001181102Y001574803D01*
X001194826Y001575401D01*
X001208448Y001577196D01*
X001221862Y001580169D01*
X001234964Y001584299D01*
X001247657Y001589559D01*
X001259842Y001595901D01*
X001271429Y001603283D01*
X001282330Y001611645D01*
X001292456Y001620929D01*
X001301740Y001631059D01*
X001310101Y001641956D01*
X001317483Y001653543D01*
X001323826Y001665728D01*
X001329086Y001678421D01*
X001333216Y001691523D01*
X001336188Y001704937D01*
X001337984Y001718559D01*
X001338582Y001732283D01*
X001338582Y001903216D01*
X001338704Y001906304D01*
X001339067Y001909374D01*
X001339670Y001912406D01*
X001340509Y001915382D01*
X001341579Y001918282D01*
X001342873Y001921089D01*
X001344384Y001923786D01*
X001346101Y001926357D01*
X001348015Y001928784D01*
X001350113Y001931054D01*
X001352383Y001933153D01*
X001354811Y001935067D01*
X001357381Y001936784D01*
X001360079Y001938295D01*
X001362886Y001939589D01*
X001365786Y001940659D01*
X001368761Y001941498D01*
X001371793Y001942101D01*
X001374863Y001942464D01*
X001377952Y001942586D01*
X001496062Y001942586D01*
X001499151Y001942464D01*
X001502221Y001942101D01*
X001505253Y001941498D01*
X001508229Y001940659D01*
X001511129Y001939589D01*
X001513936Y001938295D01*
X001516633Y001936784D01*
X001519204Y001935067D01*
X001521631Y001933153D01*
X001523901Y001931054D01*
X001526000Y001928784D01*
X001527914Y001926357D01*
X001529631Y001923786D01*
X001531141Y001921089D01*
X001532436Y001918282D01*
X001533506Y001915382D01*
X001534345Y001912406D01*
X001534948Y001909374D01*
X001535311Y001906304D01*
X001535433Y001903216D01*
X001535433Y001732283D01*
X001536031Y001718559D01*
X001537826Y001704937D01*
X001540799Y001691523D01*
X001544929Y001678421D01*
X001550188Y001665728D01*
X001556531Y001653543D01*
X001563913Y001641956D01*
X001572275Y001631059D01*
X001581559Y001620929D01*
X001591688Y001611645D01*
X001602586Y001603283D01*
X001614173Y001595901D01*
X001626358Y001589559D01*
X001639051Y001584299D01*
X001652153Y001580169D01*
X001665566Y001577196D01*
X001679188Y001575401D01*
X001692913Y001574803D01*
X001830807Y001574803D01*
X001833896Y001574681D01*
X001836965Y001574318D01*
X001839997Y001573715D01*
X001842973Y001572876D01*
X001845873Y001571806D01*
X001848680Y001570512D01*
X001851377Y001569001D01*
X001853948Y001567284D01*
X001856375Y001565370D01*
X001858645Y001563271D01*
X001860744Y001561001D01*
X001862658Y001558574D01*
X001864375Y001556003D01*
X001865886Y001553306D01*
X001867180Y001550499D01*
X001868250Y001547599D01*
X001869089Y001544623D01*
X001869692Y001541591D01*
X001870055Y001538522D01*
X001870177Y001535433D01*
X001870177Y001417322D01*
X001870055Y001414233D01*
X001869692Y001411163D01*
X001869089Y001408132D01*
X001868250Y001405156D01*
X001867180Y001402256D01*
X001865886Y001399449D01*
X001864375Y001396752D01*
X001862658Y001394181D01*
X001860744Y001391754D01*
X001858645Y001389483D01*
X001856375Y001387385D01*
X001853948Y001385471D01*
X001851377Y001383754D01*
X001848680Y001382243D01*
X001845873Y001380949D01*
X001842973Y001379879D01*
X001839997Y001379040D01*
X001836965Y001378437D01*
X001833896Y001378074D01*
X001830807Y001377952D01*
X001692913Y001377952D01*
X001679188Y001377354D01*
X001665566Y001375559D01*
X001652153Y001372586D01*
X001639051Y001368456D01*
X001626358Y001363196D01*
X001614173Y001356853D01*
X001602586Y001349472D01*
X001591688Y001341110D01*
X001581559Y001331826D01*
X001572275Y001321700D01*
X001563913Y001310799D01*
X001556531Y001299212D01*
X001550188Y001287027D01*
X001544929Y001274334D01*
X001540799Y001261232D01*
X001537826Y001247818D01*
X001536031Y001234196D01*
X001535433Y001220472D01*
X001535433Y001049539D01*
X001535311Y001046450D01*
X001534948Y001043381D01*
X001534345Y001040349D01*
X001533506Y001037373D01*
X001532436Y001034473D01*
X001531141Y001031666D01*
X001529631Y001028969D01*
X001527914Y001026398D01*
X001526000Y001023971D01*
X001523901Y001021701D01*
X001521631Y001019602D01*
X001519204Y001017688D01*
X001516633Y001015971D01*
X001513936Y001014460D01*
X001511129Y001013166D01*
X001508229Y001012096D01*
X001505253Y001011257D01*
X001502221Y001010654D01*
X001499151Y001010291D01*
X001496062Y001010169D01*
X001377952Y001010169D01*
X001374863Y001010291D01*
X001371793Y001010654D01*
X001368761Y001011257D01*
X001365786Y001012096D01*
X001362886Y001013166D01*
X001360079Y001014460D01*
X001357381Y001015971D01*
X001354811Y001017688D01*
X001352383Y001019602D01*
X001350113Y001021701D01*
X001348015Y001023971D01*
X001346101Y001026398D01*
X001344384Y001028969D01*
X001342873Y001031666D01*
X001341579Y001034473D01*
X001340509Y001037373D01*
X001339670Y001040349D01*
X001339067Y001043381D01*
X001338704Y001046450D01*
X001338582Y001049539D01*
X001338582Y001220472D01*
X003425195Y002887466D02*
X003425195Y002887466D01*
X003425195Y002033793D01*
X003425074Y002030704D01*
X003424710Y002027634D01*
X003424107Y002024602D01*
X003423268Y002021627D01*
X003422198Y002018727D01*
X003420904Y002015920D01*
X003419394Y002013223D01*
X003417676Y002010652D01*
X003415762Y002008225D01*
X003413664Y002005955D01*
X003411394Y002003856D01*
X003408967Y002001942D01*
X003406396Y002000225D01*
X003403699Y001998714D01*
X003400892Y001997420D01*
X003397992Y001996350D01*
X003395016Y001995511D01*
X003391984Y001994908D01*
X003388915Y001994544D01*
X003385826Y001994423D01*
X003267717Y001994421D01*
X003264628Y001994543D01*
X003261558Y001994906D01*
X003258526Y001995509D01*
X003255550Y001996348D01*
X003252650Y001997418D01*
X003249843Y001998712D01*
X003247146Y002000223D01*
X003244575Y002001940D01*
X003242147Y002003854D01*
X003239877Y002005952D01*
X003237779Y002008222D01*
X003235865Y002010650D01*
X003234148Y002013220D01*
X003232637Y002015918D01*
X003231343Y002018725D01*
X003230273Y002021625D01*
X003229434Y002024600D01*
X003228831Y002027632D01*
X003228467Y002030702D01*
X003228346Y002033791D01*
X003228346Y002204724D01*
X003227748Y002218448D01*
X003225952Y002232070D01*
X003222980Y002245484D01*
X003218850Y002258586D01*
X003213590Y002271279D01*
X003207247Y002283464D01*
X003199865Y002295051D01*
X003191503Y002305952D01*
X003182220Y002316078D01*
X003172094Y002325362D01*
X003161192Y002333724D01*
X003149606Y002341105D01*
X003137421Y002347448D01*
X003124727Y002352708D01*
X003111625Y002356838D01*
X003098212Y002359811D01*
X003084590Y002361606D01*
X003070866Y002362204D01*
X002932972Y002362204D01*
X002929883Y002362326D01*
X002926813Y002362689D01*
X002923781Y002363292D01*
X002920806Y002364131D01*
X002917906Y002365201D01*
X002915098Y002366495D01*
X002912401Y002368006D01*
X002909831Y002369723D01*
X002907403Y002371637D01*
X002905133Y002373735D01*
X002903035Y002376005D01*
X002901121Y002378433D01*
X002899403Y002381003D01*
X002897893Y002383701D01*
X002896599Y002386508D01*
X002895529Y002389408D01*
X002894690Y002392384D01*
X002894087Y002395415D01*
X002893723Y002398485D01*
X002893602Y002401574D01*
X002893602Y002519685D01*
X002893723Y002522773D01*
X002894087Y002525843D01*
X002894690Y002528875D01*
X002895529Y002531851D01*
X002896599Y002534751D01*
X002897893Y002537558D01*
X002899403Y002540255D01*
X002901121Y002542826D01*
X002903035Y002545253D01*
X002905133Y002547523D01*
X002907403Y002549622D01*
X002909831Y002551536D01*
X002912401Y002553253D01*
X002915098Y002554764D01*
X002917906Y002556058D01*
X002920806Y002557128D01*
X002923781Y002557967D01*
X002926813Y002558570D01*
X002929883Y002558933D01*
X002932972Y002559055D01*
X003070866Y002559055D01*
X003084590Y002559653D01*
X003098212Y002561448D01*
X003111625Y002564421D01*
X003124727Y002568551D01*
X003137421Y002573811D01*
X003149606Y002580153D01*
X003161192Y002587535D01*
X003172094Y002595897D01*
X003182220Y002605181D01*
X003191503Y002615311D01*
X003199865Y002626208D01*
X003207247Y002637795D01*
X003213590Y002649980D01*
X003218850Y002662673D01*
X003222980Y002675775D01*
X003225952Y002689188D01*
X003227748Y002702811D01*
X003228346Y002716535D01*
X003228346Y002887468D01*
X003228467Y002890556D01*
X003228831Y002893626D01*
X003229434Y002896658D01*
X003230273Y002899634D01*
X003231343Y002902534D01*
X003232637Y002905341D01*
X003234148Y002908039D01*
X003235865Y002910609D01*
X003237779Y002913037D01*
X003239877Y002915307D01*
X003242147Y002917405D01*
X003244575Y002919319D01*
X003247146Y002921036D01*
X003249843Y002922547D01*
X003252650Y002923841D01*
X003255550Y002924911D01*
X003258526Y002925750D01*
X003261558Y002926353D01*
X003264628Y002926716D01*
X003267717Y002926838D01*
X003385826Y002926836D01*
X003388915Y002926714D01*
X003391984Y002926351D01*
X003395016Y002925748D01*
X003397992Y002924909D01*
X003400892Y002923839D01*
X003403699Y002922545D01*
X003406396Y002921034D01*
X003408967Y002919317D01*
X003411394Y002917403D01*
X003413664Y002915304D01*
X003415762Y002913034D01*
X003417676Y002910607D01*
X003419394Y002908036D01*
X003420904Y002905339D01*
X003422198Y002902532D01*
X003423268Y002899632D01*
X003424107Y002896656D01*
X003424710Y002893624D01*
X003425074Y002890555D01*
X003425195Y002887466D01*
X000393699Y002033790D02*
X000393699Y002033790D01*
X000393699Y002887469D01*
X000393820Y002890558D01*
X000394184Y002893628D01*
X000394787Y002896660D01*
X000395626Y002899635D01*
X000396696Y002902536D01*
X000397990Y002905343D01*
X000399501Y002908040D01*
X000401218Y002910611D01*
X000403132Y002913038D01*
X000405231Y002915308D01*
X000407501Y002917407D01*
X000409928Y002919321D01*
X000412499Y002921038D01*
X000415196Y002922548D01*
X000418003Y002923843D01*
X000420904Y002924913D01*
X000423879Y002925752D01*
X000426911Y002926355D01*
X000429981Y002926718D01*
X000433070Y002926839D01*
X000551181Y002926838D01*
X000554270Y002926716D01*
X000557340Y002926353D01*
X000560372Y002925750D01*
X000563347Y002924911D01*
X000566247Y002923841D01*
X000569055Y002922546D01*
X000571752Y002921036D01*
X000574322Y002919318D01*
X000576750Y002917405D01*
X000579020Y002915306D01*
X000581118Y002913036D01*
X000583032Y002910608D01*
X000584749Y002908038D01*
X000586260Y002905341D01*
X000587554Y002902534D01*
X000588624Y002899633D01*
X000589463Y002896658D01*
X000590066Y002893626D01*
X000590429Y002890556D01*
X000590551Y002887468D01*
X000590551Y002716535D01*
X000591149Y002702811D01*
X000592944Y002689188D01*
X000595917Y002675775D01*
X000600047Y002662673D01*
X000605307Y002649980D01*
X000611649Y002637795D01*
X000619031Y002626208D01*
X000627393Y002615311D01*
X000636677Y002605181D01*
X000646807Y002595897D01*
X000657704Y002587535D01*
X000669291Y002580153D01*
X000681476Y002573811D01*
X000694169Y002568551D01*
X000707271Y002564421D01*
X000720685Y002561448D01*
X000734307Y002559653D01*
X000748031Y002559055D01*
X000885925Y002559055D01*
X000889014Y002558933D01*
X000892084Y002558570D01*
X000895116Y002557967D01*
X000898091Y002557128D01*
X000900991Y002556058D01*
X000903798Y002554764D01*
X000906496Y002553253D01*
X000909066Y002551536D01*
X000911494Y002549622D01*
X000913764Y002547523D01*
X000915862Y002545253D01*
X000917776Y002542826D01*
X000919493Y002540255D01*
X000921004Y002537558D01*
X000922298Y002534751D01*
X000923368Y002531851D01*
X000924207Y002528875D01*
X000924810Y002525843D01*
X000925173Y002522773D01*
X000925295Y002519685D01*
X000925295Y002401574D01*
X000925173Y002398485D01*
X000924810Y002395415D01*
X000924207Y002392384D01*
X000923368Y002389408D01*
X000922298Y002386508D01*
X000921004Y002383701D01*
X000919493Y002381003D01*
X000917776Y002378433D01*
X000915862Y002376005D01*
X000913764Y002373735D01*
X000911494Y002371637D01*
X000909066Y002369723D01*
X000906496Y002368006D01*
X000903798Y002366495D01*
X000900991Y002365201D01*
X000898091Y002364131D01*
X000895116Y002363292D01*
X000892084Y002362689D01*
X000889014Y002362326D01*
X000885925Y002362204D01*
X000748031Y002362204D01*
X000734307Y002361606D01*
X000720685Y002359811D01*
X000707271Y002356838D01*
X000694169Y002352708D01*
X000681476Y002347448D01*
X000669291Y002341105D01*
X000657704Y002333724D01*
X000646807Y002325362D01*
X000636677Y002316078D01*
X000627393Y002305952D01*
X000619031Y002295051D01*
X000611649Y002283464D01*
X000605307Y002271279D01*
X000600047Y002258586D01*
X000595917Y002245484D01*
X000592944Y002232070D01*
X000591149Y002218448D01*
X000590551Y002204724D01*
X000590551Y002033791D01*
X000590429Y002030702D01*
X000590066Y002027633D01*
X000589463Y002024601D01*
X000588624Y002021625D01*
X000587554Y002018725D01*
X000586260Y002015918D01*
X000584749Y002013221D01*
X000583032Y002010650D01*
X000581118Y002008223D01*
X000579020Y002005953D01*
X000576750Y002003854D01*
X000574322Y002001940D01*
X000571752Y002000223D01*
X000569055Y001998713D01*
X000566247Y001997418D01*
X000563347Y001996348D01*
X000560372Y001995509D01*
X000557340Y001994906D01*
X000554270Y001994543D01*
X000551181Y001994421D01*
X000433070Y001994419D01*
X000429981Y001994541D01*
X000426911Y001994904D01*
X000423879Y001995507D01*
X000420904Y001996346D01*
X000418003Y001997416D01*
X000415196Y001998710D01*
X000412499Y002000221D01*
X000409928Y002001938D01*
X000407501Y002003852D01*
X000405231Y002005951D01*
X000403132Y002008221D01*
X000401218Y002010648D01*
X000399501Y002013219D01*
X000397990Y002015916D01*
X000396696Y002018723D01*
X000395626Y002021623D01*
X000394787Y002024599D01*
X000394184Y002027631D01*
X000393820Y002030701D01*
X000393699Y002033790D01*
X000393699Y001049538D02*
X000393699Y001049538D01*
X000393699Y001903217D01*
X000393820Y001906306D01*
X000394184Y001909376D01*
X000394787Y001912408D01*
X000395626Y001915383D01*
X000396696Y001918284D01*
X000397990Y001921091D01*
X000399501Y001923788D01*
X000401218Y001926359D01*
X000403132Y001928786D01*
X000405231Y001931056D01*
X000407501Y001933155D01*
X000409928Y001935069D01*
X000412499Y001936786D01*
X000415196Y001938296D01*
X000418003Y001939591D01*
X000420904Y001940661D01*
X000423879Y001941500D01*
X000426911Y001942103D01*
X000429981Y001942466D01*
X000433070Y001942587D01*
X000551181Y001942586D01*
X000554270Y001942464D01*
X000557340Y001942101D01*
X000560372Y001941498D01*
X000563347Y001940659D01*
X000566247Y001939589D01*
X000569055Y001938294D01*
X000571752Y001936784D01*
X000574322Y001935066D01*
X000576750Y001933153D01*
X000579020Y001931054D01*
X000581118Y001928784D01*
X000583032Y001926357D01*
X000584749Y001923786D01*
X000586260Y001921089D01*
X000587554Y001918282D01*
X000588624Y001915381D01*
X000589463Y001912406D01*
X000590066Y001909374D01*
X000590429Y001906304D01*
X000590551Y001903216D01*
X000590551Y001732283D01*
X000591149Y001718559D01*
X000592944Y001704937D01*
X000595917Y001691523D01*
X000600047Y001678421D01*
X000605307Y001665728D01*
X000611649Y001653543D01*
X000619031Y001641956D01*
X000627393Y001631059D01*
X000636677Y001620929D01*
X000646807Y001611645D01*
X000657704Y001603283D01*
X000669291Y001595901D01*
X000681476Y001589559D01*
X000694169Y001584299D01*
X000707271Y001580169D01*
X000720685Y001577196D01*
X000734307Y001575401D01*
X000748031Y001574803D01*
X000885925Y001574803D01*
X000889014Y001574681D01*
X000892084Y001574318D01*
X000895116Y001573715D01*
X000898091Y001572876D01*
X000900991Y001571806D01*
X000903798Y001570512D01*
X000906496Y001569001D01*
X000909066Y001567284D01*
X000911494Y001565370D01*
X000913764Y001563271D01*
X000915862Y001561001D01*
X000917776Y001558574D01*
X000919493Y001556003D01*
X000921004Y001553306D01*
X000922298Y001550499D01*
X000923368Y001547599D01*
X000924207Y001544623D01*
X000924810Y001541591D01*
X000925173Y001538522D01*
X000925295Y001535433D01*
X000925295Y001417322D01*
X000925173Y001414233D01*
X000924810Y001411163D01*
X000924207Y001408132D01*
X000923368Y001405156D01*
X000922298Y001402256D01*
X000921004Y001399449D01*
X000919493Y001396752D01*
X000917776Y001394181D01*
X000915862Y001391754D01*
X000913764Y001389483D01*
X000911494Y001387385D01*
X000909066Y001385471D01*
X000906496Y001383754D01*
X000903798Y001382243D01*
X000900991Y001380949D01*
X000898091Y001379879D01*
X000895116Y001379040D01*
X000892084Y001378437D01*
X000889014Y001378074D01*
X000885925Y001377952D01*
X000748031Y001377952D01*
X000734307Y001377354D01*
X000720685Y001375559D01*
X000707271Y001372586D01*
X000694169Y001368456D01*
X000681476Y001363196D01*
X000669291Y001356853D01*
X000657704Y001349472D01*
X000646807Y001341110D01*
X000636677Y001331826D01*
X000627393Y001321700D01*
X000619031Y001310799D01*
X000611649Y001299212D01*
X000605307Y001287027D01*
X000600047Y001274334D01*
X000595917Y001261232D01*
X000592944Y001247818D01*
X000591149Y001234196D01*
X000590551Y001220472D01*
X000590551Y001049539D01*
X000590429Y001046450D01*
X000590066Y001043381D01*
X000589463Y001040349D01*
X000588624Y001037373D01*
X000587554Y001034473D01*
X000586260Y001031666D01*
X000584749Y001028969D01*
X000583032Y001026398D01*
X000581118Y001023971D01*
X000579020Y001021701D01*
X000576750Y001019602D01*
X000574322Y001017689D01*
X000571752Y001015971D01*
X000569055Y001014461D01*
X000566247Y001013166D01*
X000563347Y001012096D01*
X000560372Y001011257D01*
X000557340Y001010654D01*
X000554270Y001010291D01*
X000551181Y001010169D01*
X000433070Y001010168D01*
X000429981Y001010289D01*
X000426911Y001010652D01*
X000423879Y001011255D01*
X000420904Y001012094D01*
X000418003Y001013164D01*
X000415196Y001014458D01*
X000412499Y001015969D01*
X000409928Y001017686D01*
X000407501Y001019600D01*
X000405231Y001021699D01*
X000403132Y001023969D01*
X000401218Y001026396D01*
X000399501Y001028967D01*
X000397990Y001031664D01*
X000396696Y001034471D01*
X000395626Y001037371D01*
X000394787Y001040347D01*
X000394184Y001043379D01*
X000393820Y001046449D01*
X000393699Y001049538D01*
X001988090Y003543306D02*
X001988090Y003543306D01*
X002775688Y003543306D01*
X002778777Y003543185D01*
X002781847Y003542822D01*
X002784879Y003542218D01*
X002787854Y003541379D01*
X002790754Y003540309D01*
X002793562Y003539015D01*
X002796259Y003537505D01*
X002798829Y003535787D01*
X002801257Y003533873D01*
X002803527Y003531775D01*
X002805625Y003529505D01*
X002807539Y003527077D01*
X002809257Y003524507D01*
X002810767Y003521810D01*
X002812061Y003519003D01*
X002813131Y003516102D01*
X002813970Y003513127D01*
X002814574Y003510095D01*
X002814937Y003507025D01*
X002815058Y003503936D01*
X002815059Y003385826D01*
X002814937Y003382737D01*
X002814574Y003379668D01*
X002813971Y003376636D01*
X002813132Y003373660D01*
X002812062Y003370760D01*
X002810768Y003367953D01*
X002809257Y003365256D01*
X002807540Y003362685D01*
X002805626Y003360258D01*
X002803527Y003357987D01*
X002801257Y003355889D01*
X002798830Y003353975D01*
X002796259Y003352258D01*
X002793562Y003350747D01*
X002790755Y003349453D01*
X002787855Y003348383D01*
X002784879Y003347544D01*
X002781847Y003346941D01*
X002778777Y003346578D01*
X002775689Y003346456D01*
X002637795Y003346456D01*
X002624070Y003345858D01*
X002610448Y003344062D01*
X002597035Y003341090D01*
X002583933Y003336960D01*
X002571240Y003331700D01*
X002559055Y003325357D01*
X002547468Y003317975D01*
X002536570Y003309614D01*
X002526440Y003300330D01*
X002517157Y003290204D01*
X002508795Y003279303D01*
X002501413Y003267716D01*
X002495070Y003255531D01*
X002489811Y003242838D01*
X002485681Y003229736D01*
X002482708Y003216322D01*
X002480913Y003202700D01*
X002480314Y003188976D01*
X002480314Y003018043D01*
X002480193Y003014954D01*
X002479830Y003011884D01*
X002479227Y003008853D01*
X002478388Y003005877D01*
X002477318Y003002977D01*
X002476023Y003000170D01*
X002474513Y002997472D01*
X002472795Y002994902D01*
X002470882Y002992474D01*
X002468783Y002990204D01*
X002466513Y002988106D01*
X002464086Y002986192D01*
X002461515Y002984475D01*
X002458818Y002982964D01*
X002456011Y002981670D01*
X002453110Y002980600D01*
X002450135Y002979761D01*
X002447103Y002979158D01*
X002444033Y002978795D01*
X002440944Y002978673D01*
X002322834Y002978673D01*
X002319745Y002978795D01*
X002316675Y002979158D01*
X002313643Y002979761D01*
X002310668Y002980600D01*
X002307768Y002981670D01*
X002304961Y002982964D01*
X002302263Y002984475D01*
X002299693Y002986192D01*
X002297265Y002988106D01*
X002294995Y002990204D01*
X002292897Y002992474D01*
X002290983Y002994902D01*
X002289266Y002997472D01*
X002287755Y003000170D01*
X002286461Y003002977D01*
X002285391Y003005877D01*
X002284552Y003008853D01*
X002283949Y003011884D01*
X002283585Y003014954D01*
X002283464Y003018043D01*
X002283464Y003188976D01*
X002282866Y003202700D01*
X002281070Y003216322D01*
X002278098Y003229736D01*
X002273968Y003242838D01*
X002268708Y003255531D01*
X002262365Y003267716D01*
X002254983Y003279303D01*
X002246622Y003290204D01*
X002237338Y003300330D01*
X002227212Y003309614D01*
X002216311Y003317975D01*
X002204724Y003325357D01*
X002192539Y003331700D01*
X002179846Y003336960D01*
X002166744Y003341090D01*
X002153330Y003344062D01*
X002139708Y003345858D01*
X002125984Y003346456D01*
X001988090Y003346456D01*
X001985001Y003346578D01*
X001981931Y003346941D01*
X001978899Y003347544D01*
X001975924Y003348383D01*
X001973024Y003349453D01*
X001970216Y003350747D01*
X001967519Y003352258D01*
X001964949Y003353975D01*
X001962521Y003355889D01*
X001960251Y003357987D01*
X001958153Y003360258D01*
X001956239Y003362685D01*
X001954521Y003365256D01*
X001953011Y003367953D01*
X001951717Y003370760D01*
X001950647Y003373660D01*
X001949808Y003376636D01*
X001949205Y003379668D01*
X001948841Y003382737D01*
X001948720Y003385826D01*
X001948720Y003503936D01*
X001948842Y003507025D01*
X001949205Y003510095D01*
X001949808Y003513127D01*
X001950647Y003516102D01*
X001951717Y003519003D01*
X001953011Y003521810D01*
X001954522Y003524507D01*
X001956239Y003527077D01*
X001958153Y003529505D01*
X001960252Y003531775D01*
X001962522Y003533873D01*
X001964949Y003535787D01*
X001967520Y003537505D01*
X001970217Y003539015D01*
X001973024Y003540309D01*
X001975924Y003541379D01*
X001978900Y003542218D01*
X001981932Y003542822D01*
X001985001Y003543185D01*
X001988090Y003543306D01*
X001043208Y003543306D02*
X001043208Y003543306D01*
X001830806Y003543306D01*
X001833895Y003543185D01*
X001836965Y003542822D01*
X001839997Y003542218D01*
X001842972Y003541379D01*
X001845873Y003540309D01*
X001848680Y003539015D01*
X001851377Y003537505D01*
X001853947Y003535787D01*
X001856375Y003533873D01*
X001858645Y003531775D01*
X001860743Y003529505D01*
X001862657Y003527077D01*
X001864375Y003524507D01*
X001865885Y003521810D01*
X001867179Y003519003D01*
X001868249Y003516102D01*
X001869089Y003513127D01*
X001869692Y003510095D01*
X001870055Y003507025D01*
X001870176Y003503936D01*
X001870177Y003385826D01*
X001870055Y003382737D01*
X001869692Y003379668D01*
X001869089Y003376636D01*
X001868250Y003373660D01*
X001867180Y003370760D01*
X001865886Y003367953D01*
X001864375Y003365256D01*
X001862658Y003362685D01*
X001860744Y003360258D01*
X001858646Y003357987D01*
X001856376Y003355889D01*
X001853948Y003353975D01*
X001851377Y003352258D01*
X001848680Y003350747D01*
X001845873Y003349453D01*
X001842973Y003348383D01*
X001839997Y003347544D01*
X001836965Y003346941D01*
X001833896Y003346578D01*
X001830807Y003346456D01*
X001692913Y003346456D01*
X001679188Y003345858D01*
X001665566Y003344062D01*
X001652153Y003341090D01*
X001639051Y003336960D01*
X001626358Y003331700D01*
X001614173Y003325357D01*
X001602586Y003317975D01*
X001591688Y003309614D01*
X001581559Y003300330D01*
X001572275Y003290204D01*
X001563913Y003279303D01*
X001556531Y003267716D01*
X001550188Y003255531D01*
X001544929Y003242838D01*
X001540799Y003229736D01*
X001537826Y003216322D01*
X001536031Y003202700D01*
X001535433Y003188976D01*
X001535433Y003018043D01*
X001535311Y003014954D01*
X001534948Y003011884D01*
X001534345Y003008853D01*
X001533506Y003005877D01*
X001532436Y003002977D01*
X001531141Y003000170D01*
X001529631Y002997472D01*
X001527914Y002994902D01*
X001526000Y002992474D01*
X001523901Y002990204D01*
X001521631Y002988106D01*
X001519204Y002986192D01*
X001516633Y002984475D01*
X001513936Y002982964D01*
X001511129Y002981670D01*
X001508229Y002980600D01*
X001505253Y002979761D01*
X001502221Y002979158D01*
X001499151Y002978795D01*
X001496062Y002978673D01*
X001377952Y002978673D01*
X001374863Y002978795D01*
X001371793Y002979158D01*
X001368761Y002979761D01*
X001365786Y002980600D01*
X001362886Y002981670D01*
X001360079Y002982964D01*
X001357381Y002984475D01*
X001354811Y002986192D01*
X001352383Y002988106D01*
X001350113Y002990204D01*
X001348015Y002992474D01*
X001346101Y002994902D01*
X001344384Y002997472D01*
X001342873Y003000170D01*
X001341579Y003002977D01*
X001340509Y003005877D01*
X001339670Y003008853D01*
X001339067Y003011884D01*
X001338704Y003014954D01*
X001338582Y003018043D01*
X001338582Y003188976D01*
X001337984Y003202700D01*
X001336188Y003216322D01*
X001333216Y003229736D01*
X001329086Y003242838D01*
X001323826Y003255531D01*
X001317483Y003267716D01*
X001310101Y003279303D01*
X001301740Y003290204D01*
X001292456Y003300330D01*
X001282330Y003309614D01*
X001271429Y003317975D01*
X001259842Y003325357D01*
X001247657Y003331700D01*
X001234964Y003336960D01*
X001221862Y003341090D01*
X001208448Y003344062D01*
X001194826Y003345858D01*
X001181102Y003346456D01*
X001043208Y003346456D01*
X001040119Y003346578D01*
X001037049Y003346941D01*
X001034017Y003347544D01*
X001031042Y003348383D01*
X001028142Y003349453D01*
X001025334Y003350747D01*
X001022637Y003352258D01*
X001020067Y003353975D01*
X001017639Y003355889D01*
X001015369Y003357987D01*
X001013271Y003360258D01*
X001011357Y003362685D01*
X001009640Y003365256D01*
X001008129Y003367953D01*
X001006835Y003370760D01*
X001005765Y003373660D01*
X001004926Y003376636D01*
X001004323Y003379668D01*
X001003959Y003382737D01*
X001003838Y003385826D01*
X001003838Y003503936D01*
X001003960Y003507025D01*
X001004323Y003510095D01*
X001004926Y003513127D01*
X001005765Y003516102D01*
X001006835Y003519003D01*
X001008130Y003521810D01*
X001009640Y003524507D01*
X001011357Y003527077D01*
X001013271Y003529505D01*
X001015370Y003531775D01*
X001017640Y003533873D01*
X001020067Y003535787D01*
X001022638Y003537505D01*
X001025335Y003539015D01*
X001028142Y003540309D01*
X001031042Y003541379D01*
X001034018Y003542218D01*
X001037050Y003542822D01*
X001040120Y003543185D01*
X001043208Y003543306D01*
X001830808Y000393699D02*
X001830808Y000393699D01*
X001043207Y000393699D01*
X001040118Y000393820D01*
X001037048Y000394184D01*
X001034016Y000394787D01*
X001031041Y000395626D01*
X001028140Y000396696D01*
X001025333Y000397990D01*
X001022636Y000399501D01*
X001020065Y000401218D01*
X001017638Y000403132D01*
X001015368Y000405231D01*
X001013269Y000407501D01*
X001011355Y000409928D01*
X001009638Y000412499D01*
X001008127Y000415196D01*
X001006833Y000418003D01*
X001005763Y000420904D01*
X001004924Y000423879D01*
X001004321Y000426911D01*
X001003958Y000429981D01*
X001003837Y000433070D01*
X001003838Y000551181D01*
X001003959Y000554270D01*
X001004323Y000557340D01*
X001004926Y000560372D01*
X001005765Y000563347D01*
X001006835Y000566247D01*
X001008129Y000569055D01*
X001009640Y000571752D01*
X001011357Y000574322D01*
X001013271Y000576750D01*
X001015369Y000579020D01*
X001017639Y000581118D01*
X001020067Y000583032D01*
X001022637Y000584749D01*
X001025335Y000586260D01*
X001028142Y000587554D01*
X001031042Y000588624D01*
X001034017Y000589463D01*
X001037049Y000590066D01*
X001040119Y000590429D01*
X001043208Y000590551D01*
X001181102Y000590551D01*
X001194826Y000591149D01*
X001208448Y000592944D01*
X001221862Y000595917D01*
X001234964Y000600047D01*
X001247657Y000605307D01*
X001259842Y000611649D01*
X001271429Y000619031D01*
X001282330Y000627393D01*
X001292456Y000636677D01*
X001301740Y000646807D01*
X001310101Y000657704D01*
X001317483Y000669291D01*
X001323826Y000681476D01*
X001329086Y000694169D01*
X001333216Y000707271D01*
X001336188Y000720685D01*
X001337984Y000734307D01*
X001338582Y000748031D01*
X001338582Y000918964D01*
X001338704Y000922053D01*
X001339067Y000925122D01*
X001339670Y000928154D01*
X001340509Y000931130D01*
X001341579Y000934030D01*
X001342873Y000936837D01*
X001344384Y000939534D01*
X001346101Y000942105D01*
X001348015Y000944532D01*
X001350113Y000946802D01*
X001352383Y000948901D01*
X001354811Y000950815D01*
X001357381Y000952532D01*
X001360079Y000954043D01*
X001362886Y000955337D01*
X001365786Y000956407D01*
X001368761Y000957246D01*
X001371793Y000957849D01*
X001374863Y000958212D01*
X001377952Y000958334D01*
X001496062Y000958334D01*
X001499151Y000958212D01*
X001502221Y000957849D01*
X001505253Y000957246D01*
X001508229Y000956407D01*
X001511129Y000955337D01*
X001513936Y000954043D01*
X001516633Y000952532D01*
X001519204Y000950815D01*
X001521631Y000948901D01*
X001523901Y000946802D01*
X001526000Y000944532D01*
X001527914Y000942105D01*
X001529631Y000939534D01*
X001531141Y000936837D01*
X001532436Y000934030D01*
X001533506Y000931130D01*
X001534345Y000928154D01*
X001534948Y000925122D01*
X001535311Y000922053D01*
X001535433Y000918964D01*
X001535433Y000748031D01*
X001536031Y000734307D01*
X001537826Y000720685D01*
X001540799Y000707271D01*
X001544929Y000694169D01*
X001550188Y000681476D01*
X001556531Y000669291D01*
X001563913Y000657704D01*
X001572275Y000646807D01*
X001581559Y000636677D01*
X001591688Y000627393D01*
X001602586Y000619031D01*
X001614173Y000611649D01*
X001626358Y000605307D01*
X001639051Y000600047D01*
X001652153Y000595917D01*
X001665566Y000592944D01*
X001679188Y000591149D01*
X001692913Y000590551D01*
X001830807Y000590551D01*
X001833896Y000590429D01*
X001836965Y000590066D01*
X001839997Y000589463D01*
X001842973Y000588624D01*
X001845873Y000587554D01*
X001848680Y000586260D01*
X001851377Y000584749D01*
X001853948Y000583032D01*
X001856375Y000581118D01*
X001858645Y000579020D01*
X001860744Y000576750D01*
X001862658Y000574322D01*
X001864375Y000571752D01*
X001865885Y000569055D01*
X001867180Y000566247D01*
X001868250Y000563347D01*
X001869089Y000560372D01*
X001869692Y000557340D01*
X001870055Y000554270D01*
X001870177Y000551181D01*
X001870178Y000433070D01*
X001870057Y000429981D01*
X001869694Y000426911D01*
X001869090Y000423879D01*
X001868251Y000420904D01*
X001867181Y000418003D01*
X001865887Y000415196D01*
X001864377Y000412499D01*
X001862659Y000409928D01*
X001860746Y000407501D01*
X001858647Y000405231D01*
X001856377Y000403132D01*
X001853949Y000401218D01*
X001851379Y000399501D01*
X001848682Y000397990D01*
X001845874Y000396696D01*
X001842974Y000395626D01*
X001839999Y000394787D01*
X001836967Y000394184D01*
X001833897Y000393820D01*
X001830808Y000393699D01*
X003425195Y000433069D02*
X003425195Y000433069D01*
X003424208Y000424309D01*
X003421296Y000415987D01*
X003416606Y000408523D01*
X003410372Y000402289D01*
X003402907Y000397598D01*
X003394586Y000394686D01*
X003385825Y000393699D01*
X002932970Y000393699D01*
X002929881Y000393820D01*
X002926812Y000394184D01*
X002923780Y000394787D01*
X002920804Y000395626D01*
X002917904Y000396696D01*
X002915097Y000397990D01*
X002912399Y000399501D01*
X002909829Y000401218D01*
X002907401Y000403132D01*
X002905131Y000405231D01*
X002903033Y000407501D01*
X002901119Y000409928D01*
X002899402Y000412499D01*
X002897891Y000415196D01*
X002896597Y000418003D01*
X002895527Y000420904D01*
X002894688Y000423879D01*
X002894085Y000426911D01*
X002893722Y000429981D01*
X002893600Y000433070D01*
X002893602Y000551181D01*
X002893723Y000554270D01*
X002894087Y000557340D01*
X002894690Y000560372D01*
X002895529Y000563347D01*
X002896599Y000566247D01*
X002897893Y000569055D01*
X002899404Y000571752D01*
X002901121Y000574322D01*
X002903035Y000576750D01*
X002905133Y000579020D01*
X002907403Y000581118D01*
X002909831Y000583032D01*
X002912401Y000584749D01*
X002915098Y000586260D01*
X002917906Y000587554D01*
X002920806Y000588624D01*
X002923781Y000589463D01*
X002926813Y000590066D01*
X002929883Y000590429D01*
X002932972Y000590551D01*
X003070866Y000590551D01*
X003084590Y000591149D01*
X003098212Y000592944D01*
X003111625Y000595917D01*
X003124727Y000600047D01*
X003137421Y000605307D01*
X003149606Y000611649D01*
X003161192Y000619031D01*
X003172094Y000627393D01*
X003182220Y000636677D01*
X003191503Y000646807D01*
X003199865Y000657704D01*
X003207247Y000669291D01*
X003213590Y000681476D01*
X003218850Y000694169D01*
X003222980Y000707271D01*
X003225952Y000720685D01*
X003227748Y000734307D01*
X003228346Y000748031D01*
X003228346Y000918964D01*
X003228467Y000922053D01*
X003228831Y000925122D01*
X003229434Y000928154D01*
X003230273Y000931130D01*
X003231343Y000934030D01*
X003232637Y000936837D01*
X003234148Y000939535D01*
X003235865Y000942105D01*
X003237779Y000944533D01*
X003239877Y000946803D01*
X003242147Y000948901D01*
X003244575Y000950815D01*
X003247146Y000952532D01*
X003249843Y000954043D01*
X003252650Y000955337D01*
X003255550Y000956407D01*
X003258526Y000957246D01*
X003261558Y000957849D01*
X003264628Y000958212D01*
X003267717Y000958334D01*
X003385826Y000958332D01*
X003388915Y000958210D01*
X003391984Y000957847D01*
X003395016Y000957244D01*
X003397992Y000956405D01*
X003400892Y000955335D01*
X003403699Y000954041D01*
X003406396Y000952530D01*
X003408967Y000950813D01*
X003411394Y000948899D01*
X003413664Y000946800D01*
X003415762Y000944530D01*
X003417676Y000942103D01*
X003419394Y000939532D01*
X003420904Y000936835D01*
X003422198Y000934028D01*
X003423268Y000931128D01*
X003424107Y000928152D01*
X003424710Y000925121D01*
X003425074Y000922051D01*
X003425195Y000918962D01*
X003425195Y000433069D01*
X003385825Y003543306D02*
X003385825Y003543306D01*
X003394586Y003542318D01*
X003402907Y003539407D01*
X003410372Y003534716D01*
X003416606Y003528482D01*
X003421296Y003521019D01*
X003424208Y003512696D01*
X003425195Y003503936D01*
X003425195Y003018045D01*
X003425074Y003014956D01*
X003424710Y003011886D01*
X003424107Y003008854D01*
X003423268Y003005879D01*
X003422198Y003002979D01*
X003420904Y003000172D01*
X003419394Y002997474D01*
X003417676Y002994904D01*
X003415762Y002992476D01*
X003413664Y002990206D01*
X003411394Y002988108D01*
X003408967Y002986194D01*
X003406396Y002984477D01*
X003403699Y002982966D01*
X003400892Y002981672D01*
X003397992Y002980602D01*
X003395016Y002979763D01*
X003391984Y002979160D01*
X003388915Y002978796D01*
X003385826Y002978675D01*
X003267717Y002978673D01*
X003264628Y002978795D01*
X003261558Y002979158D01*
X003258526Y002979761D01*
X003255550Y002980600D01*
X003252650Y002981670D01*
X003249843Y002982964D01*
X003247146Y002984475D01*
X003244575Y002986192D01*
X003242147Y002988106D01*
X003239877Y002990204D01*
X003237779Y002992474D01*
X003235865Y002994902D01*
X003234148Y002997472D01*
X003232637Y003000169D01*
X003231343Y003002977D01*
X003230273Y003005877D01*
X003229434Y003008852D01*
X003228831Y003011884D01*
X003228467Y003014954D01*
X003228346Y003018043D01*
X003228346Y003188976D01*
X003227748Y003202700D01*
X003225952Y003216322D01*
X003222980Y003229736D01*
X003218850Y003242838D01*
X003213590Y003255531D01*
X003207247Y003267716D01*
X003199865Y003279303D01*
X003191503Y003290204D01*
X003182220Y003300330D01*
X003172094Y003309614D01*
X003161192Y003317975D01*
X003149606Y003325357D01*
X003137421Y003331700D01*
X003124727Y003336960D01*
X003111625Y003341090D01*
X003098212Y003344062D01*
X003084590Y003345858D01*
X003070866Y003346456D01*
X002932972Y003346456D01*
X002929883Y003346578D01*
X002926813Y003346941D01*
X002923781Y003347544D01*
X002920806Y003348383D01*
X002917906Y003349453D01*
X002915098Y003350747D01*
X002912401Y003352258D01*
X002909831Y003353975D01*
X002907403Y003355889D01*
X002905133Y003357987D01*
X002903035Y003360258D01*
X002901121Y003362685D01*
X002899403Y003365256D01*
X002897893Y003367953D01*
X002896599Y003370760D01*
X002895529Y003373660D01*
X002894690Y003376636D01*
X002894086Y003379668D01*
X002893723Y003382737D01*
X002893602Y003385826D01*
X002893602Y003503936D01*
X002893724Y003507025D01*
X002894087Y003510095D01*
X002894690Y003513127D01*
X002895529Y003516102D01*
X002896599Y003519003D01*
X002897893Y003521810D01*
X002899404Y003524507D01*
X002901121Y003527077D01*
X002903035Y003529505D01*
X002905133Y003531775D01*
X002907403Y003533873D01*
X002909831Y003535787D01*
X002912401Y003537505D01*
X002915099Y003539015D01*
X002917906Y003540309D01*
X002920806Y003541379D01*
X002923782Y003542218D01*
X002926813Y003542822D01*
X002929883Y003543185D01*
X002932972Y003543306D01*
X003385825Y003543306D01*
X000393699Y003503936D02*
X000393699Y003503936D01*
X000394686Y003512696D01*
X000397598Y003521019D01*
X000402289Y003528482D01*
X000408523Y003534716D01*
X000415987Y003539407D01*
X000424309Y003542318D01*
X000433069Y003543306D01*
X000885924Y003543306D01*
X000889013Y003543185D01*
X000892083Y003542822D01*
X000895115Y003542218D01*
X000898090Y003541379D01*
X000900991Y003540309D01*
X000903798Y003539015D01*
X000906495Y003537505D01*
X000909065Y003535787D01*
X000911493Y003533873D01*
X000913763Y003531775D01*
X000915862Y003529505D01*
X000917775Y003527077D01*
X000919493Y003524507D01*
X000921003Y003521810D01*
X000922298Y003519003D01*
X000923368Y003516102D01*
X000924207Y003513127D01*
X000924810Y003510095D01*
X000925173Y003507025D01*
X000925294Y003503936D01*
X000925295Y003385826D01*
X000925173Y003382737D01*
X000924810Y003379668D01*
X000924207Y003376636D01*
X000923368Y003373660D01*
X000922298Y003370760D01*
X000921004Y003367953D01*
X000919493Y003365256D01*
X000917776Y003362685D01*
X000915862Y003360258D01*
X000913764Y003357987D01*
X000911494Y003355889D01*
X000909066Y003353975D01*
X000906496Y003352258D01*
X000903798Y003350747D01*
X000900991Y003349453D01*
X000898091Y003348383D01*
X000895116Y003347544D01*
X000892084Y003346941D01*
X000889014Y003346578D01*
X000885925Y003346456D01*
X000748031Y003346456D01*
X000734307Y003345858D01*
X000720685Y003344062D01*
X000707271Y003341090D01*
X000694169Y003336960D01*
X000681476Y003331700D01*
X000669291Y003325357D01*
X000657704Y003317975D01*
X000646807Y003309614D01*
X000636677Y003300330D01*
X000627393Y003290204D01*
X000619031Y003279303D01*
X000611649Y003267716D01*
X000605307Y003255531D01*
X000600047Y003242838D01*
X000595917Y003229736D01*
X000592944Y003216322D01*
X000591149Y003202700D01*
X000590551Y003188976D01*
X000590551Y003018043D01*
X000590429Y003014954D01*
X000590066Y003011885D01*
X000589463Y003008853D01*
X000588624Y003005877D01*
X000587554Y003002977D01*
X000586260Y003000170D01*
X000584749Y002997473D01*
X000583032Y002994902D01*
X000581118Y002992475D01*
X000579020Y002990205D01*
X000576750Y002988106D01*
X000574322Y002986192D01*
X000571752Y002984475D01*
X000569055Y002982964D01*
X000566247Y002981670D01*
X000563347Y002980600D01*
X000560372Y002979761D01*
X000557340Y002979158D01*
X000554270Y002978795D01*
X000551181Y002978673D01*
X000433070Y002978671D01*
X000429981Y002978793D01*
X000426911Y002979156D01*
X000423879Y002979759D01*
X000420904Y002980598D01*
X000418003Y002981668D01*
X000415196Y002982962D01*
X000412499Y002984473D01*
X000409928Y002986190D01*
X000407501Y002988104D01*
X000405231Y002990202D01*
X000403132Y002992473D01*
X000401218Y002994900D01*
X000399501Y002997471D01*
X000397990Y003000168D01*
X000396696Y003002975D01*
X000395626Y003005875D01*
X000394787Y003008851D01*
X000394184Y003011883D01*
X000393820Y003014953D01*
X000393699Y003018042D01*
X000393699Y003503936D01*
X000433069Y000393699D02*
X000433069Y000393699D01*
X000424309Y000394686D01*
X000415987Y000397598D01*
X000408523Y000402289D01*
X000402289Y000408523D01*
X000397598Y000415987D01*
X000394686Y000424309D01*
X000393699Y000433069D01*
X000393699Y000918965D01*
X000393820Y000922054D01*
X000394184Y000925124D01*
X000394787Y000928156D01*
X000395626Y000931131D01*
X000396696Y000934032D01*
X000397990Y000936839D01*
X000399501Y000939536D01*
X000401218Y000942107D01*
X000403132Y000944534D01*
X000405231Y000946804D01*
X000407501Y000948903D01*
X000409928Y000950817D01*
X000412499Y000952534D01*
X000415196Y000954045D01*
X000418003Y000955339D01*
X000420904Y000956409D01*
X000423879Y000957248D01*
X000426911Y000957851D01*
X000429981Y000958214D01*
X000433070Y000958335D01*
X000551181Y000958334D01*
X000554270Y000958212D01*
X000557340Y000957849D01*
X000560372Y000957246D01*
X000563347Y000956407D01*
X000566247Y000955337D01*
X000569055Y000954042D01*
X000571752Y000952532D01*
X000574322Y000950814D01*
X000576750Y000948901D01*
X000579020Y000946802D01*
X000581118Y000944532D01*
X000583032Y000942105D01*
X000584749Y000939534D01*
X000586260Y000936837D01*
X000587554Y000934030D01*
X000588624Y000931129D01*
X000589463Y000928154D01*
X000590066Y000925122D01*
X000590429Y000922052D01*
X000590551Y000918964D01*
X000590551Y000748031D01*
X000591149Y000734307D01*
X000592944Y000720685D01*
X000595917Y000707271D01*
X000600047Y000694169D01*
X000605307Y000681476D01*
X000611649Y000669291D01*
X000619031Y000657704D01*
X000627393Y000646807D01*
X000636677Y000636677D01*
X000646807Y000627393D01*
X000657704Y000619031D01*
X000669291Y000611649D01*
X000681476Y000605307D01*
X000694169Y000600047D01*
X000707271Y000595917D01*
X000720685Y000592944D01*
X000734307Y000591149D01*
X000748031Y000590551D01*
X000885925Y000590551D01*
X000889014Y000590429D01*
X000892084Y000590066D01*
X000895115Y000589463D01*
X000898091Y000588624D01*
X000900991Y000587554D01*
X000903798Y000586260D01*
X000906495Y000584749D01*
X000909066Y000583032D01*
X000911493Y000581118D01*
X000913763Y000579020D01*
X000915862Y000576750D01*
X000917776Y000574322D01*
X000919493Y000571752D01*
X000921004Y000569055D01*
X000922298Y000566247D01*
X000923368Y000563347D01*
X000924207Y000560372D01*
X000924810Y000557340D01*
X000925173Y000554270D01*
X000925295Y000551181D01*
X000925296Y000433070D01*
X000925175Y000429981D01*
X000924812Y000426911D01*
X000924209Y000423879D01*
X000923370Y000420904D01*
X000922300Y000418003D01*
X000921005Y000415196D01*
X000919495Y000412499D01*
X000917777Y000409928D01*
X000915864Y000407501D01*
X000913765Y000405231D01*
X000911495Y000403132D01*
X000909068Y000401218D01*
X000906497Y000399501D01*
X000903800Y000397990D01*
X000900993Y000396696D01*
X000898092Y000395626D01*
X000895117Y000394787D01*
X000892085Y000394184D01*
X000889015Y000393820D01*
X000885926Y000393699D01*
X000433069Y000393699D01*
X003425195Y001049541D02*
X003425195Y001049541D01*
X003425074Y001046452D01*
X003424710Y001043382D01*
X003424107Y001040350D01*
X003423268Y001037375D01*
X003422198Y001034475D01*
X003420904Y001031668D01*
X003419394Y001028971D01*
X003417676Y001026400D01*
X003415762Y001023973D01*
X003413664Y001021703D01*
X003411394Y001019604D01*
X003408967Y001017690D01*
X003406396Y001015973D01*
X003403699Y001014462D01*
X003400892Y001013168D01*
X003397992Y001012098D01*
X003395016Y001011259D01*
X003391984Y001010656D01*
X003388915Y001010293D01*
X003385826Y001010171D01*
X003267717Y001010169D01*
X003264628Y001010291D01*
X003261558Y001010654D01*
X003258526Y001011257D01*
X003255550Y001012096D01*
X003252650Y001013166D01*
X003249843Y001014460D01*
X003247146Y001015971D01*
X003244575Y001017688D01*
X003242147Y001019602D01*
X003239877Y001021700D01*
X003237779Y001023970D01*
X003235865Y001026398D01*
X003234148Y001028968D01*
X003232637Y001031666D01*
X003231343Y001034473D01*
X003230273Y001037373D01*
X003229434Y001040349D01*
X003228831Y001043380D01*
X003228467Y001046450D01*
X003228346Y001049539D01*
X003228346Y001220472D01*
X003227748Y001234196D01*
X003225952Y001247818D01*
X003222980Y001261232D01*
X003218850Y001274334D01*
X003213590Y001287027D01*
X003207247Y001299212D01*
X003199865Y001310799D01*
X003191503Y001321700D01*
X003182220Y001331826D01*
X003172094Y001341110D01*
X003161192Y001349472D01*
X003149606Y001356853D01*
X003137421Y001363196D01*
X003124727Y001368456D01*
X003111625Y001372586D01*
X003098212Y001375559D01*
X003084590Y001377354D01*
X003070866Y001377952D01*
X002932972Y001377952D01*
X002929883Y001378074D01*
X002926813Y001378437D01*
X002923781Y001379040D01*
X002920806Y001379879D01*
X002917906Y001380949D01*
X002915098Y001382243D01*
X002912401Y001383754D01*
X002909831Y001385471D01*
X002907403Y001387385D01*
X002905133Y001389483D01*
X002903035Y001391754D01*
X002901121Y001394181D01*
X002899403Y001396752D01*
X002897893Y001399449D01*
X002896599Y001402256D01*
X002895529Y001405156D01*
X002894690Y001408132D01*
X002894087Y001411163D01*
X002893723Y001414233D01*
X002893602Y001417322D01*
X002893602Y001535433D01*
X002893723Y001538522D01*
X002894087Y001541591D01*
X002894690Y001544623D01*
X002895529Y001547599D01*
X002896599Y001550499D01*
X002897893Y001553306D01*
X002899403Y001556003D01*
X002901121Y001558574D01*
X002903035Y001561001D01*
X002905133Y001563271D01*
X002907403Y001565370D01*
X002909831Y001567284D01*
X002912401Y001569001D01*
X002915098Y001570512D01*
X002917906Y001571806D01*
X002920806Y001572876D01*
X002923781Y001573715D01*
X002926813Y001574318D01*
X002929883Y001574681D01*
X002932972Y001574803D01*
X003070866Y001574803D01*
X003084590Y001575401D01*
X003098212Y001577196D01*
X003111625Y001580169D01*
X003124727Y001584299D01*
X003137421Y001589559D01*
X003149606Y001595901D01*
X003161192Y001603283D01*
X003172094Y001611645D01*
X003182220Y001620929D01*
X003191503Y001631059D01*
X003199865Y001641956D01*
X003207247Y001653543D01*
X003213590Y001665728D01*
X003218850Y001678421D01*
X003222980Y001691523D01*
X003225952Y001704937D01*
X003227748Y001718559D01*
X003228346Y001732283D01*
X003228346Y001903216D01*
X003228467Y001906305D01*
X003228831Y001909374D01*
X003229434Y001912406D01*
X003230273Y001915382D01*
X003231343Y001918282D01*
X003232637Y001921089D01*
X003234148Y001923787D01*
X003235865Y001926357D01*
X003237779Y001928785D01*
X003239877Y001931055D01*
X003242147Y001933153D01*
X003244575Y001935067D01*
X003247146Y001936784D01*
X003249843Y001938295D01*
X003252650Y001939589D01*
X003255550Y001940659D01*
X003258526Y001941498D01*
X003261558Y001942101D01*
X003264628Y001942464D01*
X003267717Y001942586D01*
X003385826Y001942584D01*
X003388915Y001942462D01*
X003391984Y001942099D01*
X003395016Y001941496D01*
X003397992Y001940657D01*
X003400892Y001939587D01*
X003403699Y001938293D01*
X003406396Y001936782D01*
X003408967Y001935065D01*
X003411394Y001933151D01*
X003413664Y001931052D01*
X003415762Y001928782D01*
X003417676Y001926355D01*
X003419394Y001923784D01*
X003420904Y001921087D01*
X003422198Y001918280D01*
X003423268Y001915380D01*
X003424107Y001912404D01*
X003424710Y001909373D01*
X003425074Y001906303D01*
X003425195Y001903214D01*
X003425195Y001049541D01*
X001988089Y000393699D02*
X001988089Y000393699D01*
X001985000Y000393820D01*
X001981930Y000394184D01*
X001978898Y000394787D01*
X001975922Y000395626D01*
X001973022Y000396696D01*
X001970215Y000397990D01*
X001967518Y000399501D01*
X001964947Y000401218D01*
X001962520Y000403132D01*
X001960250Y000405231D01*
X001958151Y000407501D01*
X001956237Y000409928D01*
X001954520Y000412499D01*
X001953009Y000415196D01*
X001951715Y000418003D01*
X001950645Y000420904D01*
X001949806Y000423879D01*
X001949203Y000426911D01*
X001948840Y000429981D01*
X001948718Y000433070D01*
X001948720Y000551181D01*
X001948841Y000554270D01*
X001949205Y000557340D01*
X001949808Y000560372D01*
X001950647Y000563347D01*
X001951717Y000566247D01*
X001953011Y000569055D01*
X001954522Y000571752D01*
X001956239Y000574322D01*
X001958153Y000576750D01*
X001960251Y000579020D01*
X001962521Y000581118D01*
X001964949Y000583032D01*
X001967519Y000584749D01*
X001970216Y000586260D01*
X001973024Y000587554D01*
X001975924Y000588624D01*
X001978899Y000589463D01*
X001981931Y000590066D01*
X001985001Y000590429D01*
X001988090Y000590551D01*
X002125984Y000590551D01*
X002139708Y000591149D01*
X002153330Y000592944D01*
X002166744Y000595917D01*
X002179846Y000600047D01*
X002192539Y000605307D01*
X002204724Y000611649D01*
X002216311Y000619031D01*
X002227212Y000627393D01*
X002237338Y000636677D01*
X002246622Y000646807D01*
X002254983Y000657704D01*
X002262365Y000669291D01*
X002268708Y000681476D01*
X002273968Y000694169D01*
X002278098Y000707271D01*
X002281070Y000720685D01*
X002282866Y000734307D01*
X002283464Y000748031D01*
X002283464Y000918964D01*
X002283585Y000922053D01*
X002283949Y000925122D01*
X002284552Y000928154D01*
X002285391Y000931130D01*
X002286461Y000934030D01*
X002287755Y000936837D01*
X002289266Y000939534D01*
X002290983Y000942105D01*
X002292897Y000944532D01*
X002294995Y000946802D01*
X002297265Y000948901D01*
X002299693Y000950815D01*
X002302263Y000952532D01*
X002304961Y000954043D01*
X002307768Y000955337D01*
X002310668Y000956407D01*
X002313643Y000957246D01*
X002316675Y000957849D01*
X002319745Y000958212D01*
X002322834Y000958334D01*
X002440944Y000958334D01*
X002444033Y000958212D01*
X002447103Y000957849D01*
X002450135Y000957246D01*
X002453110Y000956407D01*
X002456011Y000955337D01*
X002458818Y000954043D01*
X002461515Y000952532D01*
X002464086Y000950815D01*
X002466513Y000948901D01*
X002468783Y000946802D01*
X002470882Y000944532D01*
X002472795Y000942105D01*
X002474513Y000939534D01*
X002476023Y000936837D01*
X002477318Y000934030D01*
X002478388Y000931130D01*
X002479227Y000928154D01*
X002479830Y000925122D01*
X002480193Y000922053D01*
X002480314Y000918964D01*
X002480314Y000748031D01*
X002480913Y000734307D01*
X002482708Y000720685D01*
X002485681Y000707271D01*
X002489811Y000694169D01*
X002495070Y000681476D01*
X002501413Y000669291D01*
X002508795Y000657704D01*
X002517157Y000646807D01*
X002526440Y000636677D01*
X002536570Y000627393D01*
X002547468Y000619031D01*
X002559055Y000611649D01*
X002571240Y000605307D01*
X002583933Y000600047D01*
X002597035Y000595917D01*
X002610448Y000592944D01*
X002624070Y000591149D01*
X002637795Y000590551D01*
X002775689Y000590551D01*
X002778777Y000590429D01*
X002781847Y000590066D01*
X002784879Y000589463D01*
X002787854Y000588624D01*
X002790755Y000587554D01*
X002793562Y000586260D01*
X002796259Y000584749D01*
X002798830Y000583032D01*
X002801257Y000581118D01*
X002803527Y000579020D01*
X002805626Y000576750D01*
X002807539Y000574322D01*
X002809257Y000571752D01*
X002810767Y000569055D01*
X002812062Y000566247D01*
X002813132Y000563347D01*
X002813971Y000560372D01*
X002814574Y000557340D01*
X002814937Y000554270D01*
X002815059Y000551181D01*
X002815060Y000433070D01*
X002814939Y000429981D01*
X002814575Y000426911D01*
X002813972Y000423879D01*
X002813133Y000420904D01*
X002812063Y000418003D01*
X002810769Y000415196D01*
X002809259Y000412499D01*
X002807541Y000409928D01*
X002805627Y000407501D01*
X002803529Y000405231D01*
X002801259Y000403132D01*
X002798831Y000401218D01*
X002796261Y000399501D01*
X002793564Y000397990D01*
X002790756Y000396696D01*
X002787856Y000395626D01*
X002784881Y000394787D01*
X002781849Y000394184D01*
X002778779Y000393820D01*
X002775690Y000393699D01*
X001988089Y000393699D01*
M02*