%MOIN*%
%OFA0B0*%
%FSLAX36Y36*%
%IPPOS*%
%LPD*%
%AMOC80*
5,1,8,0,0,$1,22.5*%
%AMOC81*
5,1,8,0,0,$1,22.5*%
%AMOC80*
5,1,8,0,0,$1,22.5*%
%AMOC81*
5,1,8,0,0,$1,22.5*%
%AMOC80*
5,1,8,0,0,$1,22.5*%
%AMOC81*
5,1,8,0,0,$1,22.5*%
%AMOC80*
5,1,8,0,0,$1,22.5*%
%AMOC81*
5,1,8,0,0,$1,22.5*%
%AMOC80*
5,1,8,0,0,$1,22.5*%
%ADD10C,0.11811023622047245*%
%ADD21C,0.090677165354330708*%
%ADD22R,0.033X0.058*%
%ADD23C,0.090677165354330708*%
%ADD24R,0.033X0.058*%
%ADD25C,0.090677165354330708*%
%ADD26R,0.033X0.058*%
%ADD27C,0.090677165354330708*%
%ADD28R,0.033X0.058*%
%ADD29C,0.090677165354330708*%
%ADD30R,0.033X0.058*%
%ADD31C,0.090677165354330708*%
%ADD32R,0.033X0.058*%
%ADD33C,0.090677165354330708*%
%ADD34R,0.033X0.058*%
%ADD35C,0.090677165354330708*%
%ADD36R,0.033X0.058*%
%ADD37C,0.090677165354330708*%
%ADD38R,0.033X0.058*%
D10*
X000000000Y000000000D02*
X000196850Y000196850D03*
X003622047Y000196850D03*
X003622047Y003740157D03*
G04 next file*
G04 EAGLE Gerber RS-274X export*
G75*
G01*
G36*
X001003956Y000866137D02*
X001003956Y000866137D01*
X001003956Y000866141D01*
X001003956Y000944874D01*
X001043322Y000984236D01*
X001043322Y000984248D01*
X001043326Y000984251D01*
X001043326Y001062992D01*
X001043318Y001063000D01*
X001043322Y001063007D01*
X001003956Y001102370D01*
X001003956Y001181102D01*
X001003940Y001181122D01*
X001003937Y001181122D01*
X000925196Y001181122D01*
X000925173Y001181106D01*
X000925173Y001181102D01*
X000925173Y001102370D01*
X000885811Y001063007D01*
X000885811Y001063000D01*
X000885811Y001062996D01*
X000885807Y001062992D01*
X000885807Y000984251D01*
X000885814Y000984244D01*
X000885811Y000984236D01*
X000925173Y000944874D01*
X000925173Y000866141D01*
X000925192Y000866122D01*
X000925196Y000866122D01*
X001003937Y000866122D01*
X001003956Y000866137D01*
G37*
D21*
X000964566Y001299212D03*
X000964566Y000669291D03*
D22*
X000696598Y001161417D03*
X000728598Y001161417D03*
X000696598Y001082677D03*
X000728598Y001082677D03*
X000696598Y001003937D03*
X000728598Y001003937D03*
X000696598Y000925196D03*
X000728598Y000925196D03*
X000696598Y000846456D03*
X000728598Y000846456D03*
G04 next file*
G04 EAGLE Gerber RS-274X export*
G75*
G01*
G36*
X001948838Y000866137D02*
X001948838Y000866137D01*
X001948838Y000866141D01*
X001948838Y000944874D01*
X001988204Y000984236D01*
X001988204Y000984248D01*
X001988208Y000984251D01*
X001988208Y001062992D01*
X001988196Y001063000D01*
X001988204Y001063007D01*
X001948838Y001102370D01*
X001948838Y001181102D01*
X001948822Y001181122D01*
X001948818Y001181122D01*
X001870078Y001181122D01*
X001870059Y001181106D01*
X001870059Y001181102D01*
X001870059Y001102370D01*
X001830692Y001063007D01*
X001830692Y001063000D01*
X001830692Y001062996D01*
X001830688Y001062992D01*
X001830688Y000984251D01*
X001830696Y000984244D01*
X001830692Y000984236D01*
X001870059Y000944874D01*
X001870059Y000866141D01*
X001870070Y000866122D01*
X001870078Y000866122D01*
X001948818Y000866122D01*
X001948838Y000866137D01*
G37*
D23*
X001909448Y001299212D03*
X001909448Y000669291D03*
D24*
X001641480Y001161417D03*
X001673480Y001161417D03*
X001641480Y001082677D03*
X001673480Y001082677D03*
X001641480Y001003937D03*
X001673480Y001003937D03*
X001641480Y000925196D03*
X001673480Y000925196D03*
X001641480Y000846456D03*
X001673480Y000846456D03*
G04 next file*
G04 EAGLE Gerber RS-274X export*
G75*
G01*
G36*
X002893720Y000866137D02*
X002893720Y000866137D01*
X002893720Y000866141D01*
X002893720Y000944874D01*
X002933086Y000984236D01*
X002933086Y000984248D01*
X002933090Y000984251D01*
X002933090Y001062992D01*
X002933082Y001063000D01*
X002933086Y001063007D01*
X002893720Y001102370D01*
X002893720Y001181102D01*
X002893704Y001181122D01*
X002893700Y001181122D01*
X002814960Y001181122D01*
X002814940Y001181106D01*
X002814940Y001181102D01*
X002814940Y001102370D01*
X002775574Y001063007D01*
X002775574Y001063000D01*
X002775574Y001062996D01*
X002775570Y001062992D01*
X002775570Y000984251D01*
X002775578Y000984244D01*
X002775574Y000984236D01*
X002814940Y000944874D01*
X002814940Y000866141D01*
X002814956Y000866122D01*
X002814960Y000866122D01*
X002893700Y000866122D01*
X002893720Y000866137D01*
G37*
D25*
X002854330Y001299212D03*
X002854330Y000669291D03*
D26*
X002586362Y001161417D03*
X002618362Y001161417D03*
X002586362Y001082677D03*
X002618362Y001082677D03*
X002586362Y001003937D03*
X002618362Y001003937D03*
X002586362Y000925196D03*
X002618362Y000925196D03*
X002586362Y000846456D03*
X002618362Y000846456D03*
G04 next file*
G04 EAGLE Gerber RS-274X export*
G75*
G01*
G36*
X001003956Y001850385D02*
X001003956Y001850385D01*
X001003956Y001850393D01*
X001003956Y001929125D01*
X001043322Y001968488D01*
X001043322Y001968496D01*
X001043326Y001968503D01*
X001043326Y002047244D01*
X001043318Y002047251D01*
X001043322Y002047259D01*
X001003956Y002086622D01*
X001003956Y002165354D01*
X001003940Y002165374D01*
X001003937Y002165374D01*
X000925196Y002165374D01*
X000925173Y002165358D01*
X000925173Y002165354D01*
X000925173Y002086622D01*
X000885811Y002047259D01*
X000885811Y002047251D01*
X000885811Y002047248D01*
X000885807Y002047244D01*
X000885807Y001968503D01*
X000885814Y001968496D01*
X000885811Y001968488D01*
X000925173Y001929125D01*
X000925173Y001850393D01*
X000925192Y001850374D01*
X000925196Y001850374D01*
X001003937Y001850374D01*
X001003956Y001850385D01*
G37*
D27*
X000964566Y002283464D03*
X000964566Y001653543D03*
D28*
X000696598Y002145669D03*
X000728598Y002145669D03*
X000696598Y002066929D03*
X000728598Y002066929D03*
X000696598Y001988188D03*
X000728598Y001988188D03*
X000696598Y001909448D03*
X000728598Y001909448D03*
X000696598Y001830708D03*
X000728598Y001830708D03*
G04 next file*
G04 EAGLE Gerber RS-274X export*
G75*
G01*
G36*
X001948838Y001850385D02*
X001948838Y001850385D01*
X001948838Y001850393D01*
X001948838Y001929125D01*
X001988204Y001968488D01*
X001988204Y001968496D01*
X001988208Y001968503D01*
X001988208Y002047244D01*
X001988196Y002047251D01*
X001988204Y002047259D01*
X001948838Y002086622D01*
X001948838Y002165354D01*
X001948822Y002165374D01*
X001948818Y002165374D01*
X001870078Y002165374D01*
X001870059Y002165358D01*
X001870059Y002165354D01*
X001870059Y002086622D01*
X001830692Y002047259D01*
X001830692Y002047251D01*
X001830692Y002047248D01*
X001830688Y002047244D01*
X001830688Y001968503D01*
X001830696Y001968496D01*
X001830692Y001968488D01*
X001870059Y001929125D01*
X001870059Y001850393D01*
X001870070Y001850374D01*
X001870078Y001850374D01*
X001948818Y001850374D01*
X001948838Y001850385D01*
G37*
D29*
X001909448Y002283464D03*
X001909448Y001653543D03*
D30*
X001641480Y002145669D03*
X001673480Y002145669D03*
X001641480Y002066929D03*
X001673480Y002066929D03*
X001641480Y001988188D03*
X001673480Y001988188D03*
X001641480Y001909448D03*
X001673480Y001909448D03*
X001641480Y001830708D03*
X001673480Y001830708D03*
G04 next file*
G04 EAGLE Gerber RS-274X export*
G75*
G01*
G36*
X002893720Y001850385D02*
X002893720Y001850385D01*
X002893720Y001850393D01*
X002893720Y001929125D01*
X002933086Y001968488D01*
X002933086Y001968496D01*
X002933090Y001968503D01*
X002933090Y002047244D01*
X002933082Y002047251D01*
X002933086Y002047259D01*
X002893720Y002086622D01*
X002893720Y002165354D01*
X002893704Y002165374D01*
X002893700Y002165374D01*
X002814960Y002165374D01*
X002814940Y002165358D01*
X002814940Y002165354D01*
X002814940Y002086622D01*
X002775574Y002047259D01*
X002775574Y002047251D01*
X002775574Y002047248D01*
X002775570Y002047244D01*
X002775570Y001968503D01*
X002775578Y001968496D01*
X002775574Y001968488D01*
X002814940Y001929125D01*
X002814940Y001850393D01*
X002814956Y001850374D01*
X002814960Y001850374D01*
X002893700Y001850374D01*
X002893720Y001850385D01*
G37*
D31*
X002854330Y002283464D03*
X002854330Y001653543D03*
D32*
X002586362Y002145669D03*
X002618362Y002145669D03*
X002586362Y002066929D03*
X002618362Y002066929D03*
X002586362Y001988188D03*
X002618362Y001988188D03*
X002586362Y001909448D03*
X002618362Y001909448D03*
X002586362Y001830708D03*
X002618362Y001830708D03*
G04 next file*
G04 EAGLE Gerber RS-274X export*
G75*
G01*
G36*
X001003956Y002834641D02*
X001003956Y002834641D01*
X001003956Y002834645D01*
X001003956Y002913374D01*
X001043322Y002952740D01*
X001043322Y002952751D01*
X001043326Y002952755D01*
X001043326Y003031496D01*
X001043318Y003031503D01*
X001043322Y003031511D01*
X001003956Y003070874D01*
X001003956Y003149606D01*
X001003940Y003149625D01*
X001003937Y003149625D01*
X000925196Y003149625D01*
X000925173Y003149610D01*
X000925173Y003149606D01*
X000925173Y003070874D01*
X000885811Y003031511D01*
X000885811Y003031503D01*
X000885811Y003031500D01*
X000885807Y003031496D01*
X000885807Y002952755D01*
X000885814Y002952744D01*
X000885811Y002952740D01*
X000925173Y002913374D01*
X000925173Y002834645D01*
X000925192Y002834625D01*
X000925196Y002834625D01*
X001003937Y002834625D01*
X001003956Y002834641D01*
G37*
D33*
X000964566Y003267716D03*
X000964566Y002637795D03*
D34*
X000696598Y003129921D03*
X000728598Y003129921D03*
X000696598Y003051181D03*
X000728598Y003051181D03*
X000696598Y002972440D03*
X000728598Y002972440D03*
X000696598Y002893700D03*
X000728598Y002893700D03*
X000696598Y002814960D03*
X000728598Y002814960D03*
G04 next file*
G04 EAGLE Gerber RS-274X export*
G75*
G01*
G36*
X001948838Y002834641D02*
X001948838Y002834641D01*
X001948838Y002834645D01*
X001948838Y002913374D01*
X001988204Y002952740D01*
X001988204Y002952751D01*
X001988208Y002952755D01*
X001988208Y003031496D01*
X001988196Y003031503D01*
X001988204Y003031511D01*
X001948838Y003070874D01*
X001948838Y003149606D01*
X001948822Y003149625D01*
X001948818Y003149625D01*
X001870078Y003149625D01*
X001870059Y003149610D01*
X001870059Y003149606D01*
X001870059Y003070874D01*
X001830692Y003031511D01*
X001830692Y003031503D01*
X001830692Y003031500D01*
X001830688Y003031496D01*
X001830688Y002952755D01*
X001830696Y002952744D01*
X001830692Y002952740D01*
X001870059Y002913374D01*
X001870059Y002834645D01*
X001870070Y002834625D01*
X001870078Y002834625D01*
X001948818Y002834625D01*
X001948838Y002834641D01*
G37*
D35*
X001909448Y003267716D03*
X001909448Y002637795D03*
D36*
X001641480Y003129921D03*
X001673480Y003129921D03*
X001641480Y003051181D03*
X001673480Y003051181D03*
X001641480Y002972440D03*
X001673480Y002972440D03*
X001641480Y002893700D03*
X001673480Y002893700D03*
X001641480Y002814960D03*
X001673480Y002814960D03*
G04 next file*
G04 EAGLE Gerber RS-274X export*
G75*
G01*
G36*
X002893720Y002834641D02*
X002893720Y002834641D01*
X002893720Y002834645D01*
X002893720Y002913374D01*
X002933086Y002952740D01*
X002933086Y002952751D01*
X002933090Y002952755D01*
X002933090Y003031496D01*
X002933082Y003031503D01*
X002933086Y003031511D01*
X002893720Y003070874D01*
X002893720Y003149606D01*
X002893704Y003149625D01*
X002893700Y003149625D01*
X002814960Y003149625D01*
X002814940Y003149610D01*
X002814940Y003149606D01*
X002814940Y003070874D01*
X002775574Y003031511D01*
X002775574Y003031503D01*
X002775574Y003031500D01*
X002775570Y003031496D01*
X002775570Y002952755D01*
X002775578Y002952744D01*
X002775574Y002952740D01*
X002814940Y002913374D01*
X002814940Y002834645D01*
X002814956Y002834625D01*
X002814960Y002834625D01*
X002893700Y002834625D01*
X002893720Y002834641D01*
G37*
D37*
X002854330Y003267716D03*
X002854330Y002637795D03*
D38*
X002586362Y003129921D03*
X002618362Y003129921D03*
X002586362Y003051181D03*
X002618362Y003051181D03*
X002586362Y002972440D03*
X002618362Y002972440D03*
X002586362Y002893700D03*
X002618362Y002893700D03*
X002586362Y002814960D03*
X002618362Y002814960D03*
M02*