%
M48
METRIC,000.000
T01C0.50
%
T01
X022474Y010249
X023474Y010249
X024474Y010249
X025474Y010249
X026474Y010249
X022304Y014750
X023304Y014750
X024304Y014750
X025304Y014750
X026304Y014750
X046474Y010249
X047474Y010249
X048474Y010249
X049474Y010249
X050474Y010249
X046304Y014750
X047304Y014750
X048304Y014750
X049304Y014750
X050304Y014750
X070474Y010249
X071474Y010249
X072474Y010249
X073474Y010249
X074474Y010249
X070304Y014750
X071304Y014750
X072304Y014750
X073304Y014750
X074304Y014750
X026347Y035250
X025347Y035250
X024347Y035250
X023347Y035250
X022347Y035250
X022304Y039750
X023304Y039750
X024304Y039750
X025304Y039750
X026304Y039750
X050347Y035250
X049347Y035250
X048347Y035250
X047347Y035250
X046347Y035250
X046304Y039750
X047304Y039750
X048304Y039750
X049304Y039750
X050304Y039750
X074347Y035250
X073347Y035250
X072347Y035250
X071347Y035250
X070347Y035250
X070304Y039750
X071304Y039750
X072304Y039750
X073304Y039750
X074304Y039750
X026347Y060250
X025347Y060250
X024347Y060250
X023347Y060250
X022347Y060250
X022304Y064750
X023304Y064750
X024304Y064750
X025304Y064750
X026304Y064750
X050347Y060250
X049347Y060250
X048347Y060250
X047347Y060250
X046347Y060250
X046304Y064750
X047304Y064750
X048304Y064750
X049304Y064750
X050304Y064750
X074347Y060250
X073347Y060250
X072347Y060250
X071347Y060250
X070347Y060250
X070304Y064750
X071304Y064750
X072304Y064750
X073304Y064750
X074304Y064750
X026178Y089749
X025178Y089749
X024178Y089749
X023178Y089749
X026347Y085250
X025347Y085250
X024347Y085250
X023347Y085250
X022347Y085250
X050178Y089749
X049178Y089749
X048178Y089749
X047178Y089749
X050347Y085250
X049347Y085250
X048347Y085250
X047347Y085250
X046347Y085250
X074178Y089749
X073178Y089749
X072178Y089749
X071178Y089749
X074347Y085250
X073347Y085250
X072347Y085250
X071347Y085250
X070347Y085250
X010249Y026352
X010249Y025352
X010249Y024352
X010249Y023352
X014750Y026021
X014750Y025021
X014750Y024021
X014750Y023021
X034250Y023326
X034250Y024326
X034250Y025326
X034250Y026326
X038750Y026021
X038750Y025021
X038750Y024021
X038750Y023021
X058250Y023326
X058250Y024326
X058250Y025326
X058250Y026326
X062750Y026021
X062750Y025021
X062750Y024021
X062750Y023021
X086749Y023994
X086749Y024994
X086749Y025994
X082250Y023326
X082250Y024326
X082250Y025326
X082250Y026326
X010249Y051352
X010249Y050352
X010249Y049352
X010249Y048352
X014750Y051021
X014750Y050021
X014750Y049021
X014750Y048021
X010249Y076352
X010249Y075352
X010249Y074352
X010249Y073352
X014750Y076021
X014750Y075021
X014750Y074021
X014750Y073021
X034250Y073326
X034250Y074326
X034250Y075326
X034250Y076326
X038750Y076021
X038750Y075021
X038750Y074021
X038750Y073021
X058250Y073326
X058250Y074326
X058250Y075326
X058250Y076326
X062750Y076021
X062750Y075021
X062750Y074021
X062750Y073021
X086749Y073994
X086749Y074994
X086749Y075994
X082250Y073326
X082250Y074326
X082250Y075326
X082250Y076326
X034250Y048326
X034250Y049326
X034250Y050326
X034250Y051326
X038750Y051021
X038750Y050021
X038750Y049021
X038750Y048021
X058250Y048326
X058250Y049326
X058250Y050326
X058250Y051326
X062750Y051021
X062750Y050021
X062750Y049021
X062750Y048021
X086749Y048994
X086749Y049994
X086749Y050994
X082250Y048326
X082250Y049326
X082250Y050326
X082250Y051326
M30