%MOIN*%
%OFA0B0*%
%FSLAX34Y34*%
%IPPOS*%
%LPD*%
%AMOC8*
5,1,8,0,0,$1,22.5*%
%AMOC80*
5,1,8,0,0,$1,22.5*%
%AMOC81*
5,1,8,0,0,$1,22.5*%
%AMOC80*
5,1,8,0,0,$1,22.5*%
%AMOC81*
5,1,8,0,0,$1,22.5*%
%AMOC80*
5,1,8,0,0,$1,22.5*%
%AMOC81*
5,1,8,0,0,$1,22.5*%
%AMOC80*
5,1,8,0,0,$1,22.5*%
%AMOC81*
5,1,8,0,0,$1,22.5*%
%ADD10R,0.07874015748031496X0.023622047244094488*%
%ADD11R,0.1141732283464567X0.10236220472440946*%
%ADD12R,0.017716535433070866X0.057086614173228349*%
%ADD13C,0.00984251968503937*%
%ADD14R,0.0078740157480314977X0.011811023622047244*%
%ADD25R,0.07874015748031496X0.023622047244094488*%
%ADD26R,0.1141732283464567X0.10236220472440946*%
%ADD27R,0.017716535433070866X0.057086614173228349*%
%ADD28C,0.00984251968503937*%
%ADD29R,0.0078740157480314977X0.011811023622047244*%
%ADD30R,0.07874015748031496X0.023622047244094488*%
%ADD31R,0.1141732283464567X0.10236220472440946*%
%ADD32R,0.017716535433070866X0.057086614173228349*%
%ADD33C,0.00984251968503937*%
%ADD34R,0.0078740157480314977X0.011811023622047244*%
%ADD35R,0.07874015748031496X0.023622047244094488*%
%ADD36R,0.1141732283464567X0.10236220472440946*%
%ADD37R,0.017716535433070866X0.057086614173228349*%
%ADD38C,0.00984251968503937*%
%ADD39R,0.0078740157480314977X0.011811023622047244*%
%ADD40R,0.07874015748031496X0.023622047244094488*%
%ADD41R,0.1141732283464567X0.10236220472440946*%
%ADD42R,0.017716535433070866X0.057086614173228349*%
%ADD43C,0.00984251968503937*%
%ADD44R,0.0078740157480314977X0.011811023622047244*%
%ADD45R,0.07874015748031496X0.023622047244094488*%
%ADD46R,0.1141732283464567X0.10236220472440946*%
%ADD47R,0.017716535433070866X0.057086614173228349*%
%ADD48C,0.00984251968503937*%
%ADD49R,0.0078740157480314977X0.011811023622047244*%
%ADD50R,0.07874015748031496X0.023622047244094488*%
%ADD51R,0.1141732283464567X0.10236220472440946*%
%ADD52R,0.017716535433070866X0.057086614173228349*%
%ADD53C,0.00984251968503937*%
%ADD54R,0.0078740157480314977X0.011811023622047244*%
%ADD55R,0.07874015748031496X0.023622047244094488*%
%ADD56R,0.1141732283464567X0.10236220472440946*%
%ADD57R,0.017716535433070866X0.057086614173228349*%
%ADD58C,0.00984251968503937*%
%ADD59R,0.0078740157480314977X0.011811023622047244*%
%ADD60R,0.07874015748031496X0.023622047244094488*%
%ADD61R,0.1141732283464567X0.10236220472440946*%
%ADD62R,0.017716535433070866X0.057086614173228349*%
%ADD63C,0.00984251968503937*%
%ADD64R,0.0078740157480314977X0.011811023622047244*%
G75*
G01*
D10*
X0005905Y0005905D02*
X0006476Y0011614D03*
X0007854Y0011220D03*
X0006476Y0010826D03*
X0007854Y0010433D03*
X0006476Y0010039D03*
X0007854Y0009645D03*
X0006476Y0009251D03*
X0007854Y0008858D03*
X0006476Y0008464D03*
X0007854Y0008070D03*
D11*
X0007165Y0012559D03*
X0007165Y0007125D03*
D12*
X0010029Y0011102D03*
X0009773Y0011102D03*
X0009517Y0011102D03*
X0009261Y0011102D03*
X0009261Y0009370D03*
X0009517Y0009370D03*
X0009773Y0009370D03*
X0010029Y0009370D03*
D13*
X0008563Y0011194D02*
X0008465Y0011194D01*
X0008465Y0011293D01*
X0008563Y0011293D01*
X0008563Y0011194D01*
X0008563Y0011288D02*
X0008465Y0011288D01*
X0008829Y0011194D02*
X0008928Y0011194D01*
X0008829Y0011194D02*
X0008829Y0011293D01*
X0008928Y0011293D01*
X0008928Y0011194D01*
X0008928Y0011288D02*
X0008829Y0011288D01*
X0009993Y0008671D02*
X0010091Y0008671D01*
X0009993Y0008671D02*
X0009993Y0008769D01*
X0010091Y0008769D01*
X0010091Y0008671D01*
X0010091Y0008764D02*
X0009993Y0008764D01*
X0010357Y0008671D02*
X0010455Y0008671D01*
X0010357Y0008671D02*
X0010357Y0008769D01*
X0010455Y0008769D01*
X0010455Y0008671D01*
X0010455Y0008764D02*
X0010357Y0008764D01*
D10*
X0012814Y0008070D03*
X0011437Y0008464D03*
X0012814Y0008858D03*
X0011437Y0009251D03*
X0012814Y0009645D03*
X0011437Y0010039D03*
X0012814Y0010433D03*
X0011437Y0010826D03*
X0012814Y0011220D03*
X0011437Y0011614D03*
D11*
X0012125Y0007125D03*
X0012125Y0012559D03*
D14*
X0009251Y0008602D03*
X0009409Y0008602D03*
X0009566Y0008602D03*
X0009724Y0008602D03*
X0009724Y0008838D03*
X0009566Y0008838D03*
X0009409Y0008838D03*
X0009251Y0008838D03*
G04 next file*
G04 EAGLE Gerber RS-274X export*
G75*
G01*
D25*
X0015354Y0005905D02*
X0015925Y0011614D03*
X0017303Y0011220D03*
X0015925Y0010826D03*
X0017303Y0010433D03*
X0015925Y0010039D03*
X0017303Y0009645D03*
X0015925Y0009251D03*
X0017303Y0008858D03*
X0015925Y0008464D03*
X0017303Y0008070D03*
D26*
X0016614Y0012559D03*
X0016614Y0007125D03*
D27*
X0019478Y0011102D03*
X0019222Y0011102D03*
X0018966Y0011102D03*
X0018710Y0011102D03*
X0018710Y0009370D03*
X0018966Y0009370D03*
X0019222Y0009370D03*
X0019478Y0009370D03*
D28*
X0018012Y0011194D02*
X0017914Y0011194D01*
X0017914Y0011293D01*
X0018012Y0011293D01*
X0018012Y0011194D01*
X0018012Y0011288D02*
X0017914Y0011288D01*
X0018278Y0011194D02*
X0018376Y0011194D01*
X0018278Y0011194D02*
X0018278Y0011293D01*
X0018376Y0011293D01*
X0018376Y0011194D01*
X0018376Y0011288D02*
X0018278Y0011288D01*
X0019441Y0008671D02*
X0019540Y0008671D01*
X0019441Y0008671D02*
X0019441Y0008769D01*
X0019540Y0008769D01*
X0019540Y0008671D01*
X0019540Y0008764D02*
X0019441Y0008764D01*
X0019806Y0008671D02*
X0019904Y0008671D01*
X0019806Y0008671D02*
X0019806Y0008769D01*
X0019904Y0008769D01*
X0019904Y0008671D01*
X0019904Y0008764D02*
X0019806Y0008764D01*
D25*
X0022263Y0008070D03*
X0020885Y0008464D03*
X0022263Y0008858D03*
X0020885Y0009251D03*
X0022263Y0009645D03*
X0020885Y0010039D03*
X0022263Y0010433D03*
X0020885Y0010826D03*
X0022263Y0011220D03*
X0020885Y0011614D03*
D26*
X0021574Y0007125D03*
X0021574Y0012559D03*
D29*
X0018700Y0008602D03*
X0018858Y0008602D03*
X0019015Y0008602D03*
X0019173Y0008602D03*
X0019173Y0008838D03*
X0019015Y0008838D03*
X0018858Y0008838D03*
X0018700Y0008838D03*
G04 next file*
G04 EAGLE Gerber RS-274X export*
G75*
G01*
D30*
X0024803Y0005905D02*
X0025374Y0011614D03*
X0026751Y0011220D03*
X0025374Y0010826D03*
X0026751Y0010433D03*
X0025374Y0010039D03*
X0026751Y0009645D03*
X0025374Y0009251D03*
X0026751Y0008858D03*
X0025374Y0008464D03*
X0026751Y0008070D03*
D31*
X0026062Y0012559D03*
X0026062Y0007125D03*
D32*
X0028927Y0011102D03*
X0028671Y0011102D03*
X0028415Y0011102D03*
X0028159Y0011102D03*
X0028159Y0009370D03*
X0028415Y0009370D03*
X0028671Y0009370D03*
X0028927Y0009370D03*
D33*
X0027461Y0011194D02*
X0027363Y0011194D01*
X0027363Y0011293D01*
X0027461Y0011293D01*
X0027461Y0011194D01*
X0027461Y0011288D02*
X0027363Y0011288D01*
X0027727Y0011194D02*
X0027825Y0011194D01*
X0027727Y0011194D02*
X0027727Y0011293D01*
X0027825Y0011293D01*
X0027825Y0011194D01*
X0027825Y0011288D02*
X0027727Y0011288D01*
X0028890Y0008671D02*
X0028989Y0008671D01*
X0028890Y0008671D02*
X0028890Y0008769D01*
X0028989Y0008769D01*
X0028989Y0008671D01*
X0028989Y0008764D02*
X0028890Y0008764D01*
X0029254Y0008671D02*
X0029353Y0008671D01*
X0029254Y0008671D02*
X0029254Y0008769D01*
X0029353Y0008769D01*
X0029353Y0008671D01*
X0029353Y0008764D02*
X0029254Y0008764D01*
D30*
X0031712Y0008070D03*
X0030334Y0008464D03*
X0031712Y0008858D03*
X0030334Y0009251D03*
X0031712Y0009645D03*
X0030334Y0010039D03*
X0031712Y0010433D03*
X0030334Y0010826D03*
X0031712Y0011220D03*
X0030334Y0011614D03*
D31*
X0031023Y0007125D03*
X0031023Y0012559D03*
D34*
X0028149Y0008602D03*
X0028307Y0008602D03*
X0028464Y0008602D03*
X0028622Y0008602D03*
X0028622Y0008838D03*
X0028464Y0008838D03*
X0028307Y0008838D03*
X0028149Y0008838D03*
G04 next file*
G04 EAGLE Gerber RS-274X export*
G75*
G01*
D35*
X0005905Y0015748D02*
X0006476Y0021456D03*
X0007854Y0021062D03*
X0006476Y0020669D03*
X0007854Y0020275D03*
X0006476Y0019881D03*
X0007854Y0019488D03*
X0006476Y0019094D03*
X0007854Y0018700D03*
X0006476Y0018307D03*
X0007854Y0017913D03*
D36*
X0007165Y0022401D03*
X0007165Y0016968D03*
D37*
X0010029Y0020944D03*
X0009773Y0020944D03*
X0009517Y0020944D03*
X0009261Y0020944D03*
X0009261Y0019212D03*
X0009517Y0019212D03*
X0009773Y0019212D03*
X0010029Y0019212D03*
D38*
X0008563Y0021037D02*
X0008465Y0021037D01*
X0008465Y0021135D01*
X0008563Y0021135D01*
X0008563Y0021037D01*
X0008563Y0021130D02*
X0008465Y0021130D01*
X0008829Y0021037D02*
X0008928Y0021037D01*
X0008829Y0021037D02*
X0008829Y0021135D01*
X0008928Y0021135D01*
X0008928Y0021037D01*
X0008928Y0021130D02*
X0008829Y0021130D01*
X0009993Y0018513D02*
X0010091Y0018513D01*
X0009993Y0018513D02*
X0009993Y0018612D01*
X0010091Y0018612D01*
X0010091Y0018513D01*
X0010091Y0018607D02*
X0009993Y0018607D01*
X0010357Y0018513D02*
X0010455Y0018513D01*
X0010357Y0018513D02*
X0010357Y0018612D01*
X0010455Y0018612D01*
X0010455Y0018513D01*
X0010455Y0018607D02*
X0010357Y0018607D01*
D35*
X0012814Y0017913D03*
X0011437Y0018307D03*
X0012814Y0018700D03*
X0011437Y0019094D03*
X0012814Y0019488D03*
X0011437Y0019881D03*
X0012814Y0020275D03*
X0011437Y0020669D03*
X0012814Y0021062D03*
X0011437Y0021456D03*
D36*
X0012125Y0016968D03*
X0012125Y0022401D03*
D39*
X0009251Y0018444D03*
X0009409Y0018444D03*
X0009566Y0018444D03*
X0009724Y0018444D03*
X0009724Y0018681D03*
X0009566Y0018681D03*
X0009409Y0018681D03*
X0009251Y0018681D03*
G04 next file*
G04 EAGLE Gerber RS-274X export*
G75*
G01*
D40*
X0015354Y0015748D02*
X0015925Y0021456D03*
X0017303Y0021062D03*
X0015925Y0020669D03*
X0017303Y0020275D03*
X0015925Y0019881D03*
X0017303Y0019488D03*
X0015925Y0019094D03*
X0017303Y0018700D03*
X0015925Y0018307D03*
X0017303Y0017913D03*
D41*
X0016614Y0022401D03*
X0016614Y0016968D03*
D42*
X0019478Y0020944D03*
X0019222Y0020944D03*
X0018966Y0020944D03*
X0018710Y0020944D03*
X0018710Y0019212D03*
X0018966Y0019212D03*
X0019222Y0019212D03*
X0019478Y0019212D03*
D43*
X0018012Y0021037D02*
X0017914Y0021037D01*
X0017914Y0021135D01*
X0018012Y0021135D01*
X0018012Y0021037D01*
X0018012Y0021130D02*
X0017914Y0021130D01*
X0018278Y0021037D02*
X0018376Y0021037D01*
X0018278Y0021037D02*
X0018278Y0021135D01*
X0018376Y0021135D01*
X0018376Y0021037D01*
X0018376Y0021130D02*
X0018278Y0021130D01*
X0019441Y0018513D02*
X0019540Y0018513D01*
X0019441Y0018513D02*
X0019441Y0018612D01*
X0019540Y0018612D01*
X0019540Y0018513D01*
X0019540Y0018607D02*
X0019441Y0018607D01*
X0019806Y0018513D02*
X0019904Y0018513D01*
X0019806Y0018513D02*
X0019806Y0018612D01*
X0019904Y0018612D01*
X0019904Y0018513D01*
X0019904Y0018607D02*
X0019806Y0018607D01*
D40*
X0022263Y0017913D03*
X0020885Y0018307D03*
X0022263Y0018700D03*
X0020885Y0019094D03*
X0022263Y0019488D03*
X0020885Y0019881D03*
X0022263Y0020275D03*
X0020885Y0020669D03*
X0022263Y0021062D03*
X0020885Y0021456D03*
D41*
X0021574Y0016968D03*
X0021574Y0022401D03*
D44*
X0018700Y0018444D03*
X0018858Y0018444D03*
X0019015Y0018444D03*
X0019173Y0018444D03*
X0019173Y0018681D03*
X0019015Y0018681D03*
X0018858Y0018681D03*
X0018700Y0018681D03*
G04 next file*
G04 EAGLE Gerber RS-274X export*
G75*
G01*
D45*
X0024803Y0015748D02*
X0025374Y0021456D03*
X0026751Y0021062D03*
X0025374Y0020669D03*
X0026751Y0020275D03*
X0025374Y0019881D03*
X0026751Y0019488D03*
X0025374Y0019094D03*
X0026751Y0018700D03*
X0025374Y0018307D03*
X0026751Y0017913D03*
D46*
X0026062Y0022401D03*
X0026062Y0016968D03*
D47*
X0028927Y0020944D03*
X0028671Y0020944D03*
X0028415Y0020944D03*
X0028159Y0020944D03*
X0028159Y0019212D03*
X0028415Y0019212D03*
X0028671Y0019212D03*
X0028927Y0019212D03*
D48*
X0027461Y0021037D02*
X0027363Y0021037D01*
X0027363Y0021135D01*
X0027461Y0021135D01*
X0027461Y0021037D01*
X0027461Y0021130D02*
X0027363Y0021130D01*
X0027727Y0021037D02*
X0027825Y0021037D01*
X0027727Y0021037D02*
X0027727Y0021135D01*
X0027825Y0021135D01*
X0027825Y0021037D01*
X0027825Y0021130D02*
X0027727Y0021130D01*
X0028890Y0018513D02*
X0028989Y0018513D01*
X0028890Y0018513D02*
X0028890Y0018612D01*
X0028989Y0018612D01*
X0028989Y0018513D01*
X0028989Y0018607D02*
X0028890Y0018607D01*
X0029254Y0018513D02*
X0029353Y0018513D01*
X0029254Y0018513D02*
X0029254Y0018612D01*
X0029353Y0018612D01*
X0029353Y0018513D01*
X0029353Y0018607D02*
X0029254Y0018607D01*
D45*
X0031712Y0017913D03*
X0030334Y0018307D03*
X0031712Y0018700D03*
X0030334Y0019094D03*
X0031712Y0019488D03*
X0030334Y0019881D03*
X0031712Y0020275D03*
X0030334Y0020669D03*
X0031712Y0021062D03*
X0030334Y0021456D03*
D46*
X0031023Y0016968D03*
X0031023Y0022401D03*
D49*
X0028149Y0018444D03*
X0028307Y0018444D03*
X0028464Y0018444D03*
X0028622Y0018444D03*
X0028622Y0018681D03*
X0028464Y0018681D03*
X0028307Y0018681D03*
X0028149Y0018681D03*
G04 next file*
G04 EAGLE Gerber RS-274X export*
G75*
G01*
D50*
X0005905Y0025590D02*
X0006476Y0031299D03*
X0007854Y0030905D03*
X0006476Y0030511D03*
X0007854Y0030118D03*
X0006476Y0029724D03*
X0007854Y0029330D03*
X0006476Y0028937D03*
X0007854Y0028543D03*
X0006476Y0028149D03*
X0007854Y0027755D03*
D51*
X0007165Y0032244D03*
X0007165Y0026811D03*
D52*
X0010029Y0030787D03*
X0009773Y0030787D03*
X0009517Y0030787D03*
X0009261Y0030787D03*
X0009261Y0029055D03*
X0009517Y0029055D03*
X0009773Y0029055D03*
X0010029Y0029055D03*
D53*
X0008563Y0030879D02*
X0008465Y0030879D01*
X0008465Y0030978D01*
X0008563Y0030978D01*
X0008563Y0030879D01*
X0008563Y0030973D02*
X0008465Y0030973D01*
X0008829Y0030879D02*
X0008928Y0030879D01*
X0008829Y0030879D02*
X0008829Y0030978D01*
X0008928Y0030978D01*
X0008928Y0030879D01*
X0008928Y0030973D02*
X0008829Y0030973D01*
X0009993Y0028356D02*
X0010091Y0028356D01*
X0009993Y0028356D02*
X0009993Y0028454D01*
X0010091Y0028454D01*
X0010091Y0028356D01*
X0010091Y0028449D02*
X0009993Y0028449D01*
X0010357Y0028356D02*
X0010455Y0028356D01*
X0010357Y0028356D02*
X0010357Y0028454D01*
X0010455Y0028454D01*
X0010455Y0028356D01*
X0010455Y0028449D02*
X0010357Y0028449D01*
D50*
X0012814Y0027755D03*
X0011437Y0028149D03*
X0012814Y0028543D03*
X0011437Y0028937D03*
X0012814Y0029330D03*
X0011437Y0029724D03*
X0012814Y0030118D03*
X0011437Y0030511D03*
X0012814Y0030905D03*
X0011437Y0031299D03*
D51*
X0012125Y0026811D03*
X0012125Y0032244D03*
D54*
X0009251Y0028287D03*
X0009409Y0028287D03*
X0009566Y0028287D03*
X0009724Y0028287D03*
X0009724Y0028523D03*
X0009566Y0028523D03*
X0009409Y0028523D03*
X0009251Y0028523D03*
G04 next file*
G04 EAGLE Gerber RS-274X export*
G75*
G01*
D55*
X0015354Y0025590D02*
X0015925Y0031299D03*
X0017303Y0030905D03*
X0015925Y0030511D03*
X0017303Y0030118D03*
X0015925Y0029724D03*
X0017303Y0029330D03*
X0015925Y0028937D03*
X0017303Y0028543D03*
X0015925Y0028149D03*
X0017303Y0027755D03*
D56*
X0016614Y0032244D03*
X0016614Y0026811D03*
D57*
X0019478Y0030787D03*
X0019222Y0030787D03*
X0018966Y0030787D03*
X0018710Y0030787D03*
X0018710Y0029055D03*
X0018966Y0029055D03*
X0019222Y0029055D03*
X0019478Y0029055D03*
D58*
X0018012Y0030879D02*
X0017914Y0030879D01*
X0017914Y0030978D01*
X0018012Y0030978D01*
X0018012Y0030879D01*
X0018012Y0030973D02*
X0017914Y0030973D01*
X0018278Y0030879D02*
X0018376Y0030879D01*
X0018278Y0030879D02*
X0018278Y0030978D01*
X0018376Y0030978D01*
X0018376Y0030879D01*
X0018376Y0030973D02*
X0018278Y0030973D01*
X0019441Y0028356D02*
X0019540Y0028356D01*
X0019441Y0028356D02*
X0019441Y0028454D01*
X0019540Y0028454D01*
X0019540Y0028356D01*
X0019540Y0028449D02*
X0019441Y0028449D01*
X0019806Y0028356D02*
X0019904Y0028356D01*
X0019806Y0028356D02*
X0019806Y0028454D01*
X0019904Y0028454D01*
X0019904Y0028356D01*
X0019904Y0028449D02*
X0019806Y0028449D01*
D55*
X0022263Y0027755D03*
X0020885Y0028149D03*
X0022263Y0028543D03*
X0020885Y0028937D03*
X0022263Y0029330D03*
X0020885Y0029724D03*
X0022263Y0030118D03*
X0020885Y0030511D03*
X0022263Y0030905D03*
X0020885Y0031299D03*
D56*
X0021574Y0026811D03*
X0021574Y0032244D03*
D59*
X0018700Y0028287D03*
X0018858Y0028287D03*
X0019015Y0028287D03*
X0019173Y0028287D03*
X0019173Y0028523D03*
X0019015Y0028523D03*
X0018858Y0028523D03*
X0018700Y0028523D03*
G04 next file*
G04 EAGLE Gerber RS-274X export*
G75*
G01*
D60*
X0024803Y0025590D02*
X0025374Y0031299D03*
X0026751Y0030905D03*
X0025374Y0030511D03*
X0026751Y0030118D03*
X0025374Y0029724D03*
X0026751Y0029330D03*
X0025374Y0028937D03*
X0026751Y0028543D03*
X0025374Y0028149D03*
X0026751Y0027755D03*
D61*
X0026062Y0032244D03*
X0026062Y0026811D03*
D62*
X0028927Y0030787D03*
X0028671Y0030787D03*
X0028415Y0030787D03*
X0028159Y0030787D03*
X0028159Y0029055D03*
X0028415Y0029055D03*
X0028671Y0029055D03*
X0028927Y0029055D03*
D63*
X0027461Y0030879D02*
X0027363Y0030879D01*
X0027363Y0030978D01*
X0027461Y0030978D01*
X0027461Y0030879D01*
X0027461Y0030973D02*
X0027363Y0030973D01*
X0027727Y0030879D02*
X0027825Y0030879D01*
X0027727Y0030879D02*
X0027727Y0030978D01*
X0027825Y0030978D01*
X0027825Y0030879D01*
X0027825Y0030973D02*
X0027727Y0030973D01*
X0028890Y0028356D02*
X0028989Y0028356D01*
X0028890Y0028356D02*
X0028890Y0028454D01*
X0028989Y0028454D01*
X0028989Y0028356D01*
X0028989Y0028449D02*
X0028890Y0028449D01*
X0029254Y0028356D02*
X0029353Y0028356D01*
X0029254Y0028356D02*
X0029254Y0028454D01*
X0029353Y0028454D01*
X0029353Y0028356D01*
X0029353Y0028449D02*
X0029254Y0028449D01*
D60*
X0031712Y0027755D03*
X0030334Y0028149D03*
X0031712Y0028543D03*
X0030334Y0028937D03*
X0031712Y0029330D03*
X0030334Y0029724D03*
X0031712Y0030118D03*
X0030334Y0030511D03*
X0031712Y0030905D03*
X0030334Y0031299D03*
D61*
X0031023Y0026811D03*
X0031023Y0032244D03*
D64*
X0028149Y0028287D03*
X0028307Y0028287D03*
X0028464Y0028287D03*
X0028622Y0028287D03*
X0028622Y0028523D03*
X0028464Y0028523D03*
X0028307Y0028523D03*
X0028149Y0028523D03*
M02*