G04 EAGLE Gerber RS-274X export*
G75*
%MOMM*%
%FSLAX34Y34*%
%LPD*%
%INStencil*%
%IPPOS*%
%AMOC8*
5,1,8,0,0,1.08239X$1,22.5*%
G01*
%ADD10R,2.000000X0.600000*%
%ADD11R,2.900000X2.600000*%
%ADD12R,0.450000X1.450000*%
%ADD13C,0.250000*%
%ADD14R,0.200000X0.300000*%


D10*
X14500Y145000D03*
X49500Y135000D03*
X14500Y125000D03*
X49500Y115000D03*
X14500Y105000D03*
X49500Y95000D03*
X14500Y85000D03*
X49500Y75000D03*
X14500Y65000D03*
X49500Y55000D03*
D11*
X32000Y169000D03*
X32000Y31000D03*
D12*
X104750Y132000D03*
X98250Y132000D03*
X91750Y132000D03*
X85250Y132000D03*
X85250Y88000D03*
X91750Y88000D03*
X98250Y88000D03*
X104750Y88000D03*
D13*
X67525Y134350D02*
X65025Y134350D01*
X65025Y136850D01*
X67525Y136850D01*
X67525Y134350D01*
X67525Y136725D02*
X65025Y136725D01*
X74275Y134350D02*
X76775Y134350D01*
X74275Y134350D02*
X74275Y136850D01*
X76775Y136850D01*
X76775Y134350D01*
X76775Y136725D02*
X74275Y136725D01*
X103825Y70250D02*
X106325Y70250D01*
X103825Y70250D02*
X103825Y72750D01*
X106325Y72750D01*
X106325Y70250D01*
X106325Y72625D02*
X103825Y72625D01*
X113075Y70250D02*
X115575Y70250D01*
X113075Y70250D02*
X113075Y72750D01*
X115575Y72750D01*
X115575Y70250D01*
X115575Y72625D02*
X113075Y72625D01*
D10*
X175500Y55000D03*
X140500Y65000D03*
X175500Y75000D03*
X140500Y85000D03*
X175500Y95000D03*
X140500Y105000D03*
X175500Y115000D03*
X140500Y125000D03*
X175500Y135000D03*
X140500Y145000D03*
D11*
X158000Y31000D03*
X158000Y169000D03*
D14*
X85000Y68500D03*
X89000Y68500D03*
X93000Y68500D03*
X97000Y68500D03*
X97000Y74500D03*
X93000Y74500D03*
X89000Y74500D03*
X85000Y74500D03*
M02*
