G04 EAGLE Gerber RS-274X export*
G75*
%MOMM*%
%FSLAX34Y34*%
%LPD*%
%INSilk Screen*%
%IPPOS*%
%AMOC8*
5,1,8,0,0,1.08239X$1,22.5*%
G01*
%ADD10C,0.127000*%


D10*
X14169Y144900D02*
X14167Y145048D01*
X14161Y145196D01*
X14151Y145343D01*
X14137Y145491D01*
X14120Y145638D01*
X14098Y145784D01*
X14073Y145930D01*
X14043Y146075D01*
X14010Y146219D01*
X13973Y146362D01*
X13932Y146504D01*
X13887Y146646D01*
X13839Y146785D01*
X13787Y146924D01*
X13731Y147061D01*
X13671Y147196D01*
X13608Y147330D01*
X13608Y147331D02*
X13583Y147398D01*
X13555Y147463D01*
X13523Y147527D01*
X13488Y147590D01*
X13450Y147650D01*
X13409Y147708D01*
X13365Y147765D01*
X13318Y147818D01*
X13268Y147870D01*
X13216Y147918D01*
X13161Y147964D01*
X13104Y148007D01*
X13045Y148047D01*
X12983Y148084D01*
X12920Y148118D01*
X12856Y148148D01*
X12790Y148175D01*
X12722Y148199D01*
X12653Y148219D01*
X12584Y148236D01*
X12514Y148248D01*
X12443Y148258D01*
X12371Y148263D01*
X12300Y148265D01*
X12229Y148263D01*
X12157Y148258D01*
X12086Y148248D01*
X12016Y148236D01*
X11947Y148219D01*
X11878Y148199D01*
X11810Y148175D01*
X11744Y148148D01*
X11680Y148118D01*
X11617Y148084D01*
X11555Y148047D01*
X11496Y148007D01*
X11439Y147964D01*
X11384Y147918D01*
X11332Y147870D01*
X11282Y147818D01*
X11235Y147765D01*
X11191Y147708D01*
X11150Y147650D01*
X11112Y147590D01*
X11077Y147527D01*
X11045Y147463D01*
X11017Y147398D01*
X10992Y147331D01*
X10991Y147330D02*
X10928Y147196D01*
X10868Y147061D01*
X10812Y146924D01*
X10760Y146785D01*
X10712Y146646D01*
X10667Y146505D01*
X10626Y146362D01*
X10589Y146219D01*
X10556Y146075D01*
X10526Y145930D01*
X10501Y145784D01*
X10479Y145638D01*
X10462Y145491D01*
X10448Y145343D01*
X10438Y145196D01*
X10432Y145048D01*
X10430Y144900D01*
X14169Y144900D02*
X14167Y144752D01*
X14161Y144604D01*
X14151Y144457D01*
X14137Y144309D01*
X14120Y144162D01*
X14098Y144016D01*
X14073Y143870D01*
X14043Y143725D01*
X14010Y143581D01*
X13973Y143438D01*
X13932Y143296D01*
X13887Y143155D01*
X13839Y143015D01*
X13787Y142876D01*
X13731Y142739D01*
X13671Y142604D01*
X13608Y142470D01*
X13608Y142469D02*
X13583Y142402D01*
X13555Y142337D01*
X13523Y142273D01*
X13488Y142210D01*
X13450Y142150D01*
X13409Y142092D01*
X13365Y142035D01*
X13318Y141982D01*
X13268Y141930D01*
X13216Y141882D01*
X13161Y141836D01*
X13104Y141793D01*
X13045Y141753D01*
X12983Y141716D01*
X12920Y141682D01*
X12856Y141652D01*
X12790Y141625D01*
X12722Y141601D01*
X12653Y141581D01*
X12584Y141564D01*
X12514Y141552D01*
X12443Y141542D01*
X12371Y141537D01*
X12300Y141535D01*
X10992Y142470D02*
X10929Y142604D01*
X10869Y142739D01*
X10813Y142876D01*
X10761Y143015D01*
X10713Y143154D01*
X10668Y143295D01*
X10627Y143438D01*
X10590Y143581D01*
X10557Y143725D01*
X10527Y143870D01*
X10502Y144016D01*
X10480Y144162D01*
X10463Y144309D01*
X10449Y144457D01*
X10439Y144604D01*
X10433Y144752D01*
X10431Y144900D01*
X10992Y142469D02*
X11017Y142402D01*
X11045Y142337D01*
X11077Y142273D01*
X11112Y142210D01*
X11150Y142150D01*
X11191Y142092D01*
X11235Y142035D01*
X11282Y141982D01*
X11332Y141930D01*
X11384Y141882D01*
X11439Y141836D01*
X11496Y141793D01*
X11555Y141753D01*
X11617Y141716D01*
X11680Y141682D01*
X11744Y141652D01*
X11810Y141625D01*
X11878Y141601D01*
X11947Y141581D01*
X12016Y141564D01*
X12086Y141552D01*
X12157Y141542D01*
X12229Y141537D01*
X12300Y141535D01*
X13796Y143031D02*
X10804Y146769D01*
X12400Y128265D02*
X14269Y126769D01*
X12400Y128265D02*
X12400Y121535D01*
X14269Y121535D02*
X10531Y121535D01*
X12413Y108366D02*
X12333Y108364D01*
X12253Y108358D01*
X12173Y108349D01*
X12094Y108336D01*
X12016Y108319D01*
X11939Y108298D01*
X11863Y108273D01*
X11787Y108245D01*
X11714Y108214D01*
X11642Y108179D01*
X11572Y108141D01*
X11503Y108099D01*
X11437Y108054D01*
X11373Y108006D01*
X11311Y107955D01*
X11252Y107901D01*
X11195Y107844D01*
X11141Y107785D01*
X11090Y107723D01*
X11042Y107659D01*
X10997Y107593D01*
X10955Y107525D01*
X10917Y107454D01*
X10882Y107382D01*
X10851Y107309D01*
X10823Y107233D01*
X10798Y107157D01*
X10777Y107080D01*
X10760Y107002D01*
X10747Y106923D01*
X10738Y106843D01*
X10732Y106763D01*
X10730Y106683D01*
X12413Y108365D02*
X12504Y108363D01*
X12594Y108357D01*
X12684Y108348D01*
X12774Y108335D01*
X12863Y108318D01*
X12951Y108297D01*
X13038Y108273D01*
X13125Y108245D01*
X13209Y108213D01*
X13293Y108178D01*
X13375Y108139D01*
X13455Y108097D01*
X13534Y108052D01*
X13610Y108003D01*
X13685Y107951D01*
X13757Y107897D01*
X13827Y107839D01*
X13894Y107778D01*
X13959Y107715D01*
X14021Y107649D01*
X14080Y107580D01*
X14136Y107509D01*
X14189Y107436D01*
X14239Y107360D01*
X14286Y107282D01*
X14330Y107203D01*
X14370Y107122D01*
X14407Y107039D01*
X14440Y106955D01*
X14470Y106869D01*
X11292Y105374D02*
X11234Y105432D01*
X11179Y105492D01*
X11127Y105554D01*
X11078Y105619D01*
X11031Y105685D01*
X10988Y105754D01*
X10948Y105825D01*
X10911Y105897D01*
X10877Y105971D01*
X10847Y106047D01*
X10820Y106123D01*
X10796Y106201D01*
X10777Y106280D01*
X10760Y106360D01*
X10747Y106440D01*
X10738Y106521D01*
X10733Y106602D01*
X10731Y106683D01*
X11291Y105374D02*
X14469Y101635D01*
X10731Y101635D01*
X12500Y81635D02*
X14369Y81635D01*
X12500Y81635D02*
X12415Y81637D01*
X12330Y81643D01*
X12246Y81652D01*
X12161Y81666D01*
X12078Y81683D01*
X11996Y81704D01*
X11914Y81729D01*
X11834Y81758D01*
X11755Y81790D01*
X11678Y81825D01*
X11603Y81865D01*
X11529Y81907D01*
X11457Y81953D01*
X11388Y82002D01*
X11320Y82054D01*
X11256Y82109D01*
X11194Y82167D01*
X11134Y82228D01*
X11077Y82292D01*
X11024Y82358D01*
X10973Y82426D01*
X10926Y82497D01*
X10881Y82570D01*
X10841Y82644D01*
X10803Y82721D01*
X10769Y82799D01*
X10739Y82878D01*
X10712Y82959D01*
X10689Y83041D01*
X10670Y83124D01*
X10655Y83207D01*
X10643Y83292D01*
X10635Y83376D01*
X10631Y83461D01*
X10631Y83547D01*
X10635Y83632D01*
X10643Y83716D01*
X10655Y83801D01*
X10670Y83884D01*
X10689Y83967D01*
X10712Y84049D01*
X10739Y84130D01*
X10769Y84209D01*
X10803Y84287D01*
X10841Y84364D01*
X10881Y84439D01*
X10926Y84511D01*
X10973Y84582D01*
X11024Y84650D01*
X11077Y84716D01*
X11134Y84780D01*
X11194Y84841D01*
X11256Y84899D01*
X11320Y84954D01*
X11388Y85006D01*
X11457Y85055D01*
X11529Y85101D01*
X11603Y85143D01*
X11678Y85183D01*
X11755Y85218D01*
X11834Y85250D01*
X11914Y85279D01*
X11996Y85304D01*
X12078Y85325D01*
X12161Y85342D01*
X12246Y85356D01*
X12330Y85365D01*
X12415Y85371D01*
X12500Y85373D01*
X12126Y88365D02*
X14369Y88365D01*
X12126Y88365D02*
X12050Y88363D01*
X11975Y88357D01*
X11899Y88348D01*
X11825Y88334D01*
X11751Y88317D01*
X11678Y88296D01*
X11606Y88272D01*
X11536Y88244D01*
X11467Y88212D01*
X11400Y88177D01*
X11335Y88139D01*
X11271Y88097D01*
X11210Y88052D01*
X11152Y88004D01*
X11095Y87953D01*
X11042Y87900D01*
X10991Y87843D01*
X10943Y87785D01*
X10898Y87724D01*
X10856Y87660D01*
X10818Y87595D01*
X10783Y87528D01*
X10751Y87459D01*
X10723Y87389D01*
X10699Y87317D01*
X10678Y87244D01*
X10661Y87170D01*
X10647Y87096D01*
X10638Y87020D01*
X10632Y86945D01*
X10630Y86869D01*
X10632Y86793D01*
X10638Y86718D01*
X10647Y86642D01*
X10661Y86568D01*
X10678Y86494D01*
X10699Y86421D01*
X10723Y86349D01*
X10751Y86279D01*
X10783Y86210D01*
X10818Y86143D01*
X10856Y86078D01*
X10898Y86014D01*
X10943Y85953D01*
X10991Y85895D01*
X11042Y85838D01*
X11095Y85785D01*
X11152Y85734D01*
X11210Y85686D01*
X11271Y85641D01*
X11335Y85599D01*
X11400Y85561D01*
X11467Y85526D01*
X11536Y85494D01*
X11606Y85466D01*
X11678Y85442D01*
X11751Y85421D01*
X11825Y85404D01*
X11899Y85390D01*
X11975Y85381D01*
X12050Y85375D01*
X12126Y85373D01*
X12126Y85374D02*
X13622Y85374D01*
X12874Y68365D02*
X14369Y63131D01*
X10631Y63131D01*
X11752Y64626D02*
X11752Y61635D01*
M02*
