G04 EAGLE Gerber RS-274X export*
G75*
%MOMM*%
%FSLAX34Y34*%
%LPD*%
%INSolder side*%
%IPPOS*%
%AMOC8*
5,1,8,0,0,1.08239X$1,22.5*%
G01*
%ADD10R,0.635000X1.270000*%
%ADD11C,0.756400*%
%ADD12C,0.130000*%
%ADD13C,0.150000*%
%ADD14C,0.300000*%

G36*
X88248Y4007D02*
X88248Y4007D01*
X88300Y4004D01*
X88419Y4027D01*
X88540Y4041D01*
X88589Y4058D01*
X88640Y4068D01*
X88751Y4117D01*
X88865Y4158D01*
X88909Y4187D01*
X88956Y4208D01*
X89053Y4281D01*
X89154Y4347D01*
X89191Y4385D01*
X89232Y4416D01*
X89309Y4509D01*
X89393Y4597D01*
X89420Y4642D01*
X89453Y4682D01*
X89507Y4791D01*
X89568Y4895D01*
X89584Y4945D01*
X89607Y4992D01*
X89634Y5110D01*
X89670Y5226D01*
X89674Y5278D01*
X89686Y5329D01*
X89686Y5450D01*
X89694Y5571D01*
X89685Y5622D01*
X89685Y5674D01*
X89657Y5792D01*
X89638Y5912D01*
X89618Y5960D01*
X89606Y6011D01*
X89552Y6119D01*
X89505Y6231D01*
X89475Y6273D01*
X89451Y6320D01*
X89374Y6413D01*
X89303Y6511D01*
X89263Y6546D01*
X89230Y6586D01*
X89133Y6659D01*
X89042Y6738D01*
X88995Y6762D01*
X88954Y6794D01*
X88770Y6885D01*
X86786Y7707D01*
X82707Y11786D01*
X80499Y17116D01*
X80499Y22884D01*
X82707Y28214D01*
X86786Y32293D01*
X92116Y34501D01*
X97884Y34501D01*
X103214Y32293D01*
X107293Y28214D01*
X109501Y22884D01*
X109501Y17116D01*
X107293Y11786D01*
X103214Y7707D01*
X101230Y6885D01*
X101184Y6860D01*
X101135Y6842D01*
X101034Y6776D01*
X100928Y6717D01*
X100889Y6682D01*
X100846Y6653D01*
X100762Y6565D01*
X100673Y6484D01*
X100643Y6441D01*
X100607Y6403D01*
X100546Y6298D01*
X100477Y6199D01*
X100458Y6150D01*
X100432Y6105D01*
X100396Y5989D01*
X100353Y5876D01*
X100345Y5824D01*
X100330Y5774D01*
X100322Y5653D01*
X100305Y5534D01*
X100310Y5482D01*
X100306Y5429D01*
X100326Y5310D01*
X100337Y5189D01*
X100354Y5140D01*
X100362Y5088D01*
X100409Y4976D01*
X100447Y4862D01*
X100475Y4817D01*
X100495Y4769D01*
X100566Y4671D01*
X100629Y4568D01*
X100666Y4531D01*
X100697Y4489D01*
X100789Y4409D01*
X100874Y4324D01*
X100919Y4296D01*
X100958Y4262D01*
X101066Y4205D01*
X101168Y4142D01*
X101218Y4126D01*
X101264Y4101D01*
X101382Y4071D01*
X101496Y4033D01*
X101548Y4028D01*
X101599Y4015D01*
X101804Y4001D01*
X145000Y4001D01*
X145035Y4005D01*
X145071Y4002D01*
X145207Y4025D01*
X145343Y4041D01*
X145377Y4053D01*
X145412Y4058D01*
X145539Y4111D01*
X145669Y4158D01*
X145698Y4177D01*
X145731Y4191D01*
X145843Y4272D01*
X145958Y4347D01*
X145983Y4373D01*
X146011Y4393D01*
X146102Y4497D01*
X146197Y4597D01*
X146215Y4628D01*
X146238Y4654D01*
X146302Y4777D01*
X146372Y4895D01*
X146382Y4929D01*
X146399Y4961D01*
X146433Y5094D01*
X146474Y5226D01*
X146476Y5261D01*
X146485Y5295D01*
X146499Y5500D01*
X146499Y15000D01*
X146495Y15035D01*
X146498Y15071D01*
X146475Y15207D01*
X146459Y15343D01*
X146447Y15377D01*
X146442Y15412D01*
X146389Y15539D01*
X146342Y15669D01*
X146323Y15698D01*
X146309Y15731D01*
X146228Y15843D01*
X146153Y15958D01*
X146127Y15983D01*
X146107Y16011D01*
X146003Y16102D01*
X145903Y16197D01*
X145872Y16215D01*
X145846Y16238D01*
X145723Y16302D01*
X145605Y16372D01*
X145571Y16382D01*
X145539Y16399D01*
X145406Y16433D01*
X145274Y16474D01*
X145239Y16476D01*
X145205Y16485D01*
X145000Y16499D01*
X133298Y16499D01*
X133160Y16483D01*
X133021Y16473D01*
X132988Y16463D01*
X132955Y16459D01*
X132824Y16412D01*
X132690Y16371D01*
X132661Y16353D01*
X132630Y16342D01*
X132513Y16266D01*
X132393Y16195D01*
X132359Y16165D01*
X132340Y16153D01*
X132317Y16129D01*
X132286Y16102D01*
X130150Y15217D01*
X127850Y15217D01*
X125724Y16098D01*
X124098Y17724D01*
X123217Y19850D01*
X123217Y22150D01*
X123347Y22464D01*
X123371Y22548D01*
X123405Y22629D01*
X123418Y22714D01*
X123442Y22797D01*
X123446Y22884D01*
X123460Y22971D01*
X123454Y23056D01*
X123458Y23142D01*
X123442Y23228D01*
X123435Y23315D01*
X123410Y23397D01*
X123394Y23482D01*
X123359Y23562D01*
X123333Y23646D01*
X123289Y23720D01*
X123254Y23798D01*
X123202Y23868D01*
X123157Y23943D01*
X123063Y24052D01*
X123046Y24074D01*
X123036Y24082D01*
X123022Y24098D01*
X106499Y40621D01*
X106499Y89379D01*
X116060Y98940D01*
X116135Y99035D01*
X116150Y99050D01*
X116154Y99058D01*
X116238Y99154D01*
X116254Y99184D01*
X116275Y99211D01*
X116334Y99337D01*
X116399Y99461D01*
X116407Y99493D01*
X116422Y99524D01*
X116450Y99660D01*
X116485Y99795D01*
X116488Y99840D01*
X116493Y99862D01*
X116492Y99896D01*
X116499Y100000D01*
X116499Y120000D01*
X116483Y120138D01*
X116473Y120278D01*
X116463Y120310D01*
X116459Y120343D01*
X116412Y120474D01*
X116371Y120608D01*
X116353Y120637D01*
X116342Y120669D01*
X116266Y120785D01*
X116195Y120905D01*
X116165Y120940D01*
X116153Y120958D01*
X116129Y120982D01*
X116060Y121060D01*
X106499Y130621D01*
X106499Y159379D01*
X130621Y183501D01*
X145000Y183501D01*
X145035Y183505D01*
X145071Y183502D01*
X145207Y183525D01*
X145343Y183541D01*
X145377Y183553D01*
X145412Y183558D01*
X145539Y183611D01*
X145669Y183658D01*
X145698Y183678D01*
X145731Y183691D01*
X145843Y183772D01*
X145958Y183847D01*
X145983Y183873D01*
X146011Y183893D01*
X146102Y183998D01*
X146197Y184097D01*
X146215Y184128D01*
X146238Y184154D01*
X146302Y184277D01*
X146372Y184395D01*
X146382Y184429D01*
X146399Y184461D01*
X146433Y184594D01*
X146474Y184726D01*
X146476Y184761D01*
X146485Y184795D01*
X146499Y185000D01*
X146499Y194500D01*
X146495Y194535D01*
X146498Y194571D01*
X146475Y194707D01*
X146459Y194843D01*
X146447Y194877D01*
X146442Y194912D01*
X146389Y195039D01*
X146342Y195169D01*
X146323Y195198D01*
X146309Y195231D01*
X146228Y195343D01*
X146153Y195458D01*
X146127Y195483D01*
X146107Y195511D01*
X146003Y195602D01*
X145903Y195697D01*
X145872Y195715D01*
X145846Y195738D01*
X145723Y195802D01*
X145605Y195872D01*
X145571Y195882D01*
X145539Y195899D01*
X145406Y195933D01*
X145274Y195974D01*
X145239Y195976D01*
X145205Y195985D01*
X145000Y195999D01*
X101804Y195999D01*
X101752Y195993D01*
X101700Y195996D01*
X101581Y195973D01*
X101460Y195959D01*
X101411Y195942D01*
X101360Y195932D01*
X101249Y195883D01*
X101135Y195842D01*
X101091Y195813D01*
X101044Y195792D01*
X100947Y195719D01*
X100846Y195653D01*
X100809Y195615D01*
X100768Y195584D01*
X100690Y195490D01*
X100607Y195403D01*
X100581Y195358D01*
X100547Y195318D01*
X100493Y195209D01*
X100432Y195105D01*
X100417Y195055D01*
X100393Y195008D01*
X100366Y194890D01*
X100330Y194774D01*
X100326Y194722D01*
X100314Y194671D01*
X100315Y194550D01*
X100306Y194429D01*
X100315Y194378D01*
X100315Y194326D01*
X100343Y194208D01*
X100362Y194088D01*
X100382Y194040D01*
X100394Y193989D01*
X100449Y193881D01*
X100495Y193769D01*
X100525Y193727D01*
X100549Y193680D01*
X100626Y193587D01*
X100697Y193489D01*
X100737Y193454D01*
X100770Y193414D01*
X100867Y193341D01*
X100958Y193262D01*
X101005Y193238D01*
X101046Y193206D01*
X101230Y193115D01*
X103214Y192293D01*
X107293Y188214D01*
X109501Y182884D01*
X109501Y177116D01*
X107293Y171786D01*
X103214Y167707D01*
X97884Y165499D01*
X92116Y165499D01*
X86786Y167707D01*
X82707Y171786D01*
X80499Y177116D01*
X80499Y182884D01*
X82707Y188214D01*
X86786Y192293D01*
X88770Y193115D01*
X88816Y193140D01*
X88865Y193158D01*
X88966Y193224D01*
X89072Y193283D01*
X89111Y193318D01*
X89154Y193347D01*
X89238Y193434D01*
X89327Y193516D01*
X89357Y193559D01*
X89393Y193597D01*
X89454Y193701D01*
X89523Y193801D01*
X89542Y193850D01*
X89568Y193895D01*
X89604Y194011D01*
X89647Y194124D01*
X89655Y194176D01*
X89670Y194226D01*
X89678Y194346D01*
X89695Y194466D01*
X89690Y194518D01*
X89694Y194571D01*
X89674Y194690D01*
X89663Y194811D01*
X89646Y194860D01*
X89638Y194912D01*
X89591Y195024D01*
X89553Y195138D01*
X89525Y195183D01*
X89505Y195231D01*
X89434Y195329D01*
X89370Y195432D01*
X89333Y195469D01*
X89303Y195511D01*
X89212Y195591D01*
X89126Y195676D01*
X89081Y195704D01*
X89042Y195738D01*
X88935Y195794D01*
X88832Y195858D01*
X88782Y195875D01*
X88736Y195899D01*
X88618Y195929D01*
X88504Y195967D01*
X88452Y195972D01*
X88401Y195985D01*
X88196Y195999D01*
X45000Y195999D01*
X44965Y195995D01*
X44929Y195998D01*
X44793Y195975D01*
X44657Y195959D01*
X44623Y195947D01*
X44588Y195942D01*
X44461Y195889D01*
X44331Y195842D01*
X44302Y195823D01*
X44269Y195809D01*
X44157Y195728D01*
X44042Y195653D01*
X44017Y195627D01*
X43989Y195607D01*
X43898Y195503D01*
X43803Y195403D01*
X43785Y195372D01*
X43762Y195346D01*
X43698Y195223D01*
X43628Y195105D01*
X43618Y195071D01*
X43601Y195039D01*
X43567Y194906D01*
X43526Y194774D01*
X43524Y194739D01*
X43515Y194705D01*
X43501Y194500D01*
X43501Y185000D01*
X43505Y184965D01*
X43502Y184929D01*
X43525Y184793D01*
X43541Y184657D01*
X43553Y184623D01*
X43558Y184588D01*
X43611Y184461D01*
X43658Y184331D01*
X43678Y184302D01*
X43691Y184269D01*
X43772Y184157D01*
X43847Y184042D01*
X43873Y184017D01*
X43893Y183989D01*
X43998Y183898D01*
X44097Y183803D01*
X44128Y183785D01*
X44154Y183762D01*
X44277Y183698D01*
X44395Y183628D01*
X44429Y183618D01*
X44461Y183601D01*
X44594Y183567D01*
X44726Y183526D01*
X44761Y183524D01*
X44795Y183515D01*
X45000Y183501D01*
X59379Y183501D01*
X83501Y159379D01*
X83501Y130621D01*
X73940Y121060D01*
X73854Y120951D01*
X73762Y120846D01*
X73746Y120816D01*
X73725Y120789D01*
X73666Y120663D01*
X73601Y120539D01*
X73593Y120507D01*
X73578Y120476D01*
X73550Y120340D01*
X73515Y120205D01*
X73512Y120160D01*
X73507Y120138D01*
X73508Y120104D01*
X73501Y120000D01*
X73501Y100000D01*
X73517Y99862D01*
X73527Y99722D01*
X73537Y99690D01*
X73541Y99657D01*
X73588Y99526D01*
X73629Y99392D01*
X73647Y99363D01*
X73658Y99331D01*
X73734Y99215D01*
X73805Y99095D01*
X73835Y99060D01*
X73847Y99042D01*
X73871Y99019D01*
X73940Y98940D01*
X83501Y89379D01*
X83501Y40630D01*
X66887Y24355D01*
X66827Y24281D01*
X66760Y24214D01*
X66718Y24147D01*
X66669Y24086D01*
X66628Y24001D01*
X66578Y23919D01*
X66553Y23845D01*
X66519Y23775D01*
X66499Y23682D01*
X66468Y23592D01*
X66461Y23514D01*
X66444Y23437D01*
X66446Y23342D01*
X66437Y23247D01*
X66448Y23170D01*
X66449Y23092D01*
X66472Y22999D01*
X66485Y22905D01*
X66525Y22787D01*
X66533Y22756D01*
X66540Y22741D01*
X66551Y22710D01*
X66783Y22150D01*
X66783Y19850D01*
X65902Y17724D01*
X64276Y16098D01*
X62150Y15217D01*
X59850Y15217D01*
X57704Y16106D01*
X57653Y16147D01*
X57547Y16238D01*
X57517Y16254D01*
X57491Y16275D01*
X57365Y16334D01*
X57241Y16399D01*
X57208Y16407D01*
X57178Y16422D01*
X57042Y16450D01*
X56906Y16485D01*
X56862Y16488D01*
X56840Y16493D01*
X56806Y16492D01*
X56702Y16499D01*
X45000Y16499D01*
X44965Y16495D01*
X44929Y16498D01*
X44793Y16475D01*
X44657Y16459D01*
X44623Y16447D01*
X44588Y16442D01*
X44461Y16389D01*
X44331Y16342D01*
X44302Y16323D01*
X44269Y16309D01*
X44157Y16228D01*
X44042Y16153D01*
X44017Y16127D01*
X43989Y16107D01*
X43898Y16003D01*
X43803Y15903D01*
X43785Y15872D01*
X43762Y15846D01*
X43698Y15723D01*
X43628Y15605D01*
X43618Y15571D01*
X43601Y15539D01*
X43567Y15406D01*
X43526Y15274D01*
X43524Y15239D01*
X43515Y15205D01*
X43501Y15000D01*
X43501Y5500D01*
X43505Y5465D01*
X43502Y5429D01*
X43525Y5293D01*
X43541Y5157D01*
X43553Y5123D01*
X43558Y5088D01*
X43611Y4961D01*
X43658Y4831D01*
X43678Y4802D01*
X43691Y4769D01*
X43772Y4657D01*
X43847Y4542D01*
X43873Y4517D01*
X43893Y4489D01*
X43998Y4398D01*
X44097Y4303D01*
X44128Y4285D01*
X44154Y4262D01*
X44277Y4198D01*
X44395Y4128D01*
X44429Y4118D01*
X44461Y4101D01*
X44594Y4067D01*
X44726Y4026D01*
X44761Y4024D01*
X44795Y4015D01*
X45000Y4001D01*
X88196Y4001D01*
X88248Y4007D01*
G37*
D10*
X26936Y145000D03*
X35064Y145000D03*
X26936Y125000D03*
X35064Y125000D03*
X26936Y105000D03*
X35064Y105000D03*
X26936Y85000D03*
X35064Y85000D03*
X26936Y65000D03*
X35064Y65000D03*
D11*
X95000Y110000D03*
X106000Y102000D03*
X85000Y120000D03*
D12*
X18480Y11955D02*
X26472Y7341D01*
X18480Y11955D02*
X11955Y18480D01*
X7341Y26472D01*
X4952Y35386D01*
X4650Y40000D01*
X4650Y160000D01*
X4952Y164614D01*
X7341Y173528D01*
X11955Y181520D01*
X18480Y188045D01*
X26472Y192659D01*
X35386Y195048D01*
X40000Y195350D01*
X150000Y195350D01*
X154614Y195048D01*
X163528Y192659D01*
X171520Y188045D01*
X178045Y181520D01*
X182659Y173528D01*
X185048Y164614D01*
X185350Y160000D01*
X185350Y40000D01*
X185048Y35386D01*
X182659Y26472D01*
X178045Y18480D01*
X171520Y11955D01*
X163528Y7341D01*
X154614Y4952D01*
X150000Y4650D01*
X40000Y4650D01*
X35386Y4952D01*
X26472Y7341D01*
X171432Y133721D02*
X171432Y136279D01*
X170453Y138643D01*
X168643Y140453D01*
X166279Y141432D01*
X163721Y141432D01*
X161357Y140453D01*
X159547Y138643D01*
X158568Y136279D01*
X158568Y133721D01*
X158828Y133093D01*
X148216Y123675D01*
X148124Y123675D01*
X147398Y122949D01*
X146631Y122268D01*
X146625Y122176D01*
X146560Y122111D01*
X146560Y121084D01*
X146499Y120060D01*
X146560Y119991D01*
X146560Y58336D01*
X139594Y51370D01*
X131756Y51370D01*
X131353Y52343D01*
X129543Y54153D01*
X127179Y55132D01*
X124621Y55132D01*
X122257Y54153D01*
X120447Y52343D01*
X119468Y49979D01*
X119468Y47421D01*
X120447Y45057D01*
X122257Y43247D01*
X124621Y42268D01*
X127179Y42268D01*
X129543Y43247D01*
X131270Y44974D01*
X130568Y43279D01*
X130568Y41312D01*
X130279Y41432D01*
X127721Y41432D01*
X125357Y40453D01*
X123547Y38643D01*
X122568Y36279D01*
X122568Y33721D01*
X123547Y31357D01*
X125357Y29547D01*
X127721Y28568D01*
X130279Y28568D01*
X130568Y28688D01*
X130568Y27312D01*
X130279Y27432D01*
X127721Y27432D01*
X125357Y26453D01*
X123547Y24643D01*
X122568Y22279D01*
X122568Y19721D01*
X123547Y17357D01*
X125357Y15547D01*
X127721Y14568D01*
X130279Y14568D01*
X132643Y15547D01*
X134453Y17357D01*
X134856Y18330D01*
X142106Y18330D01*
X166106Y42330D01*
X167670Y43894D01*
X167670Y49144D01*
X168643Y49547D01*
X170453Y51357D01*
X171432Y53721D01*
X171432Y56279D01*
X170453Y58643D01*
X168643Y60453D01*
X166279Y61432D01*
X163721Y61432D01*
X161357Y60453D01*
X160670Y59766D01*
X160670Y69894D01*
X160840Y70064D01*
X161357Y69547D01*
X163721Y68568D01*
X166279Y68568D01*
X168643Y69547D01*
X170453Y71357D01*
X171432Y73721D01*
X171432Y76279D01*
X170453Y78643D01*
X168643Y80453D01*
X166279Y81432D01*
X163721Y81432D01*
X161357Y80453D01*
X159547Y78643D01*
X158568Y76279D01*
X158568Y75344D01*
X157670Y74446D01*
X157670Y85416D01*
X162205Y89196D01*
X163721Y88568D01*
X166279Y88568D01*
X168643Y89547D01*
X170453Y91357D01*
X171432Y93721D01*
X171432Y96279D01*
X170453Y98643D01*
X168643Y100453D01*
X166279Y101432D01*
X163721Y101432D01*
X161357Y100453D01*
X159547Y98643D01*
X158568Y96279D01*
X158568Y93721D01*
X158754Y93271D01*
X154900Y90059D01*
X154900Y102738D01*
X162316Y109150D01*
X163721Y108568D01*
X166279Y108568D01*
X168643Y109547D01*
X170453Y111357D01*
X171432Y113721D01*
X171432Y116279D01*
X170453Y118643D01*
X168643Y120453D01*
X166279Y121432D01*
X163721Y121432D01*
X161357Y120453D01*
X159547Y118643D01*
X158568Y116279D01*
X158568Y113721D01*
X158797Y113167D01*
X151900Y107203D01*
X151900Y119805D01*
X162394Y129118D01*
X163721Y128568D01*
X166279Y128568D01*
X168643Y129547D01*
X170453Y131357D01*
X171432Y133721D01*
X54432Y126279D02*
X54432Y123721D01*
X54432Y126279D02*
X53453Y128643D01*
X51643Y130453D01*
X49279Y131432D01*
X46721Y131432D01*
X44357Y130453D01*
X42547Y128643D01*
X42144Y127670D01*
X40889Y127670D01*
X40889Y132448D01*
X39337Y134000D01*
X37734Y134000D01*
X37734Y136000D01*
X39337Y136000D01*
X40889Y137552D01*
X40889Y152448D01*
X39337Y154000D01*
X22663Y154000D01*
X21111Y152448D01*
X21111Y149314D01*
X20547Y148750D01*
X19568Y146386D01*
X19568Y143828D01*
X20547Y141464D01*
X21111Y140900D01*
X21111Y139951D01*
X9644Y128484D01*
X8080Y126920D01*
X8080Y54452D01*
X9644Y52888D01*
X9644Y52888D01*
X42638Y19894D01*
X42638Y19894D01*
X44202Y18330D01*
X55144Y18330D01*
X55547Y17357D01*
X57357Y15547D01*
X59721Y14568D01*
X62279Y14568D01*
X64643Y15547D01*
X66453Y17357D01*
X67432Y19721D01*
X67432Y22279D01*
X66453Y24643D01*
X64643Y26453D01*
X62279Y27432D01*
X59721Y27432D01*
X59432Y27312D01*
X59432Y28688D01*
X59721Y28568D01*
X62279Y28568D01*
X64643Y29547D01*
X66453Y31357D01*
X67432Y33721D01*
X67432Y36279D01*
X66453Y38643D01*
X64643Y40453D01*
X62279Y41432D01*
X59721Y41432D01*
X59432Y41312D01*
X59432Y43279D01*
X58453Y45643D01*
X56643Y47453D01*
X54279Y48432D01*
X51721Y48432D01*
X49357Y47453D01*
X47547Y45643D01*
X47144Y44670D01*
X37166Y44670D01*
X25836Y56000D01*
X39337Y56000D01*
X40889Y57552D01*
X40889Y72448D01*
X39337Y74000D01*
X37734Y74000D01*
X37734Y76000D01*
X39337Y76000D01*
X40889Y77552D01*
X40889Y92448D01*
X39337Y94000D01*
X37734Y94000D01*
X37734Y96000D01*
X39337Y96000D01*
X40889Y97552D01*
X40889Y112448D01*
X39337Y114000D01*
X37734Y114000D01*
X37734Y116000D01*
X39337Y116000D01*
X40889Y117552D01*
X40889Y122330D01*
X42144Y122330D01*
X42547Y121357D01*
X44357Y119547D01*
X46721Y118568D01*
X49279Y118568D01*
X51643Y119547D01*
X53453Y121357D01*
X54432Y123721D01*
X110150Y176986D02*
X110150Y183014D01*
X107844Y188582D01*
X103582Y192844D01*
X98014Y195150D01*
X91986Y195150D01*
X86418Y192844D01*
X82156Y188582D01*
X79850Y183014D01*
X79850Y176986D01*
X82156Y171418D01*
X86418Y167156D01*
X91986Y164850D01*
X98014Y164850D01*
X103582Y167156D01*
X107844Y171418D01*
X110150Y176986D01*
X110150Y23014D02*
X110150Y16986D01*
X110150Y23014D02*
X107844Y28582D01*
X103582Y32844D01*
X98014Y35150D01*
X91986Y35150D01*
X86418Y32844D01*
X82156Y28582D01*
X79850Y23014D01*
X79850Y16986D01*
X82156Y11418D01*
X86418Y7156D01*
X91986Y4850D01*
X98014Y4850D01*
X103582Y7156D01*
X107844Y11418D01*
X110150Y16986D01*
X86796Y7000D02*
X27744Y7000D01*
X103204Y7000D02*
X162256Y7000D01*
X83075Y10500D02*
X21000Y10500D01*
X106925Y10500D02*
X169000Y10500D01*
X81087Y14000D02*
X16435Y14000D01*
X108913Y14000D02*
X173565Y14000D01*
X55488Y17500D02*
X12935Y17500D01*
X66512Y17500D02*
X79850Y17500D01*
X110150Y17500D02*
X123488Y17500D01*
X134512Y17500D02*
X177065Y17500D01*
X41532Y21000D02*
X10500Y21000D01*
X67432Y21000D02*
X79850Y21000D01*
X110150Y21000D02*
X122568Y21000D01*
X144776Y21000D02*
X179500Y21000D01*
X38032Y24500D02*
X8479Y24500D01*
X66512Y24500D02*
X80466Y24500D01*
X109534Y24500D02*
X123488Y24500D01*
X148276Y24500D02*
X181521Y24500D01*
X34532Y28000D02*
X6931Y28000D01*
X59432Y28000D02*
X81915Y28000D01*
X108085Y28000D02*
X130568Y28000D01*
X151776Y28000D02*
X183069Y28000D01*
X31032Y31500D02*
X5994Y31500D01*
X66512Y31500D02*
X85075Y31500D01*
X104925Y31500D02*
X123488Y31500D01*
X155276Y31500D02*
X184006Y31500D01*
X27532Y35000D02*
X5056Y35000D01*
X67432Y35000D02*
X91624Y35000D01*
X98376Y35000D02*
X122568Y35000D01*
X158776Y35000D02*
X184944Y35000D01*
X24032Y38500D02*
X4748Y38500D01*
X66512Y38500D02*
X123488Y38500D01*
X162276Y38500D02*
X185252Y38500D01*
X20532Y42000D02*
X4650Y42000D01*
X59432Y42000D02*
X130568Y42000D01*
X165776Y42000D02*
X185350Y42000D01*
X17032Y45500D02*
X4650Y45500D01*
X36336Y45500D02*
X47488Y45500D01*
X58512Y45500D02*
X120264Y45500D01*
X167670Y45500D02*
X185350Y45500D01*
X13532Y49000D02*
X4650Y49000D01*
X32836Y49000D02*
X119468Y49000D01*
X167670Y49000D02*
X185350Y49000D01*
X10032Y52500D02*
X4650Y52500D01*
X29336Y52500D02*
X120604Y52500D01*
X131196Y52500D02*
X140724Y52500D01*
X170926Y52500D02*
X185350Y52500D01*
X8080Y56000D02*
X4650Y56000D01*
X39337Y56000D02*
X144224Y56000D01*
X171432Y56000D02*
X185350Y56000D01*
X8080Y59500D02*
X4650Y59500D01*
X40889Y59500D02*
X146560Y59500D01*
X169596Y59500D02*
X185350Y59500D01*
X8080Y63000D02*
X4650Y63000D01*
X40889Y63000D02*
X146560Y63000D01*
X160670Y63000D02*
X185350Y63000D01*
X8080Y66500D02*
X4650Y66500D01*
X40889Y66500D02*
X146560Y66500D01*
X160670Y66500D02*
X185350Y66500D01*
X8080Y70000D02*
X4650Y70000D01*
X40889Y70000D02*
X146560Y70000D01*
X160776Y70000D02*
X160904Y70000D01*
X169096Y70000D02*
X185350Y70000D01*
X8080Y73500D02*
X4650Y73500D01*
X39837Y73500D02*
X146560Y73500D01*
X171341Y73500D02*
X185350Y73500D01*
X8080Y77000D02*
X4650Y77000D01*
X40337Y77000D02*
X146560Y77000D01*
X157670Y77000D02*
X158867Y77000D01*
X171134Y77000D02*
X185350Y77000D01*
X8080Y80500D02*
X4650Y80500D01*
X40889Y80500D02*
X146560Y80500D01*
X157670Y80500D02*
X161471Y80500D01*
X168529Y80500D02*
X185350Y80500D01*
X8080Y84000D02*
X4650Y84000D01*
X40889Y84000D02*
X146560Y84000D01*
X157670Y84000D02*
X185350Y84000D01*
X8080Y87500D02*
X4650Y87500D01*
X40889Y87500D02*
X146560Y87500D01*
X160171Y87500D02*
X185350Y87500D01*
X8080Y91000D02*
X4650Y91000D01*
X40889Y91000D02*
X146560Y91000D01*
X154900Y91000D02*
X156029Y91000D01*
X170096Y91000D02*
X185350Y91000D01*
X8080Y94500D02*
X4650Y94500D01*
X37734Y94500D02*
X146560Y94500D01*
X154900Y94500D02*
X158568Y94500D01*
X171432Y94500D02*
X185350Y94500D01*
X8080Y98000D02*
X4650Y98000D01*
X40889Y98000D02*
X146560Y98000D01*
X154900Y98000D02*
X159281Y98000D01*
X170719Y98000D02*
X185350Y98000D01*
X8080Y101500D02*
X4650Y101500D01*
X40889Y101500D02*
X146560Y101500D01*
X154900Y101500D02*
X185350Y101500D01*
X8080Y105000D02*
X4650Y105000D01*
X40889Y105000D02*
X146560Y105000D01*
X157516Y105000D02*
X185350Y105000D01*
X8080Y108500D02*
X4650Y108500D01*
X40889Y108500D02*
X146560Y108500D01*
X151900Y108500D02*
X153400Y108500D01*
X161564Y108500D02*
X185350Y108500D01*
X8080Y112000D02*
X4650Y112000D01*
X40889Y112000D02*
X146560Y112000D01*
X151900Y112000D02*
X157448Y112000D01*
X170719Y112000D02*
X185350Y112000D01*
X8080Y115500D02*
X4650Y115500D01*
X37734Y115500D02*
X146560Y115500D01*
X151900Y115500D02*
X158568Y115500D01*
X171432Y115500D02*
X185350Y115500D01*
X8080Y119000D02*
X4650Y119000D01*
X40889Y119000D02*
X45678Y119000D01*
X50322Y119000D02*
X146560Y119000D01*
X151900Y119000D02*
X159904Y119000D01*
X170096Y119000D02*
X185350Y119000D01*
X8080Y122500D02*
X4650Y122500D01*
X53926Y122500D02*
X146892Y122500D01*
X154937Y122500D02*
X185350Y122500D01*
X8080Y126000D02*
X4650Y126000D01*
X54432Y126000D02*
X150836Y126000D01*
X158881Y126000D02*
X185350Y126000D01*
X10660Y129500D02*
X4650Y129500D01*
X40889Y129500D02*
X43404Y129500D01*
X52596Y129500D02*
X154780Y129500D01*
X168529Y129500D02*
X185350Y129500D01*
X14160Y133000D02*
X4650Y133000D01*
X40337Y133000D02*
X158724Y133000D01*
X171133Y133000D02*
X185350Y133000D01*
X17660Y136500D02*
X4650Y136500D01*
X39837Y136500D02*
X158659Y136500D01*
X171341Y136500D02*
X185350Y136500D01*
X21111Y140000D02*
X4650Y140000D01*
X40889Y140000D02*
X160904Y140000D01*
X169096Y140000D02*
X185350Y140000D01*
X19704Y143500D02*
X4650Y143500D01*
X40889Y143500D02*
X185350Y143500D01*
X19822Y147000D02*
X4650Y147000D01*
X40889Y147000D02*
X185350Y147000D01*
X21111Y150500D02*
X4650Y150500D01*
X40889Y150500D02*
X185350Y150500D01*
X185350Y154000D02*
X4650Y154000D01*
X4650Y157500D02*
X185350Y157500D01*
X185284Y161000D02*
X4716Y161000D01*
X4945Y164500D02*
X185055Y164500D01*
X85575Y168000D02*
X5860Y168000D01*
X104425Y168000D02*
X184140Y168000D01*
X82123Y171500D02*
X6797Y171500D01*
X107877Y171500D02*
X183202Y171500D01*
X80673Y175000D02*
X8191Y175000D01*
X109327Y175000D02*
X181809Y175000D01*
X79850Y178500D02*
X10212Y178500D01*
X110150Y178500D02*
X179788Y178500D01*
X79850Y182000D02*
X12435Y182000D01*
X110150Y182000D02*
X177565Y182000D01*
X80880Y185500D02*
X15935Y185500D01*
X109120Y185500D02*
X174065Y185500D01*
X82575Y189000D02*
X20134Y189000D01*
X107425Y189000D02*
X169866Y189000D01*
X86075Y192500D02*
X26197Y192500D01*
X103925Y192500D02*
X163803Y192500D01*
X7000Y172256D02*
X7000Y27744D01*
X10500Y21000D02*
X10500Y52032D01*
X10500Y129340D02*
X10500Y179000D01*
X14000Y48532D02*
X14000Y16435D01*
X14000Y132840D02*
X14000Y183565D01*
X17500Y45032D02*
X17500Y12935D01*
X17500Y136340D02*
X17500Y187065D01*
X21000Y41532D02*
X21000Y10500D01*
X21000Y139840D02*
X21000Y141011D01*
X21000Y149203D02*
X21000Y189500D01*
X24500Y38032D02*
X24500Y8479D01*
X24500Y154000D02*
X24500Y191521D01*
X28000Y34532D02*
X28000Y6931D01*
X28000Y53836D02*
X28000Y56000D01*
X28000Y154000D02*
X28000Y193069D01*
X31500Y31032D02*
X31500Y5994D01*
X31500Y50336D02*
X31500Y56000D01*
X31500Y154000D02*
X31500Y194006D01*
X35000Y27532D02*
X35000Y5056D01*
X35000Y46836D02*
X35000Y56000D01*
X35000Y154000D02*
X35000Y194944D01*
X38500Y24032D02*
X38500Y4748D01*
X38500Y44670D02*
X38500Y56000D01*
X38500Y74000D02*
X38500Y76000D01*
X38500Y94000D02*
X38500Y96000D01*
X38500Y114000D02*
X38500Y116000D01*
X38500Y134000D02*
X38500Y136000D01*
X38500Y154000D02*
X38500Y195252D01*
X42000Y20532D02*
X42000Y4650D01*
X42000Y44670D02*
X42000Y122330D01*
X42000Y127670D02*
X42000Y195350D01*
X45500Y18330D02*
X45500Y4650D01*
X45500Y44670D02*
X45500Y119074D01*
X45500Y130926D02*
X45500Y195350D01*
X49000Y18330D02*
X49000Y4650D01*
X49000Y47096D02*
X49000Y118568D01*
X49000Y131432D02*
X49000Y195350D01*
X52500Y18330D02*
X52500Y4650D01*
X52500Y48432D02*
X52500Y120404D01*
X52500Y129596D02*
X52500Y195350D01*
X56000Y16904D02*
X56000Y4650D01*
X56000Y47719D02*
X56000Y195350D01*
X59500Y14659D02*
X59500Y4650D01*
X59500Y27341D02*
X59500Y28659D01*
X59500Y41341D02*
X59500Y195350D01*
X63000Y14866D02*
X63000Y4650D01*
X63000Y27133D02*
X63000Y28866D01*
X63000Y41133D02*
X63000Y195350D01*
X66500Y17471D02*
X66500Y4650D01*
X66500Y24529D02*
X66500Y31471D01*
X66500Y38529D02*
X66500Y195350D01*
X70000Y195350D02*
X70000Y4650D01*
X73500Y4650D02*
X73500Y195350D01*
X77000Y195350D02*
X77000Y4650D01*
X80500Y4650D02*
X80500Y15417D01*
X80500Y24583D02*
X80500Y175417D01*
X80500Y184583D02*
X80500Y195350D01*
X84000Y9575D02*
X84000Y4650D01*
X84000Y30425D02*
X84000Y169575D01*
X84000Y190425D02*
X84000Y195350D01*
X87500Y6708D02*
X87500Y4650D01*
X87500Y33292D02*
X87500Y166708D01*
X87500Y193292D02*
X87500Y195350D01*
X91000Y5259D02*
X91000Y4650D01*
X91000Y34741D02*
X91000Y165259D01*
X91000Y194741D02*
X91000Y195350D01*
X94500Y4850D02*
X94500Y4650D01*
X94500Y35150D02*
X94500Y164850D01*
X94500Y195150D02*
X94500Y195350D01*
X98000Y4850D02*
X98000Y4650D01*
X98000Y35150D02*
X98000Y164850D01*
X98000Y195150D02*
X98000Y195350D01*
X101500Y6294D02*
X101500Y4650D01*
X101500Y33706D02*
X101500Y166294D01*
X101500Y193706D02*
X101500Y195350D01*
X105000Y8575D02*
X105000Y4650D01*
X105000Y31425D02*
X105000Y168575D01*
X105000Y191425D02*
X105000Y195350D01*
X108500Y13003D02*
X108500Y4650D01*
X108500Y26997D02*
X108500Y173003D01*
X108500Y186997D02*
X108500Y195350D01*
X112000Y195350D02*
X112000Y4650D01*
X115500Y4650D02*
X115500Y195350D01*
X119000Y195350D02*
X119000Y4650D01*
X122500Y4650D02*
X122500Y43146D01*
X122500Y54254D02*
X122500Y195350D01*
X126000Y15281D02*
X126000Y4650D01*
X126000Y26719D02*
X126000Y29281D01*
X126000Y40719D02*
X126000Y42268D01*
X126000Y55132D02*
X126000Y195350D01*
X129500Y14568D02*
X129500Y4650D01*
X129500Y27432D02*
X129500Y28568D01*
X129500Y41432D02*
X129500Y43229D01*
X129500Y54171D02*
X129500Y195350D01*
X133000Y15904D02*
X133000Y4650D01*
X133000Y51370D02*
X133000Y195350D01*
X136500Y18330D02*
X136500Y4650D01*
X136500Y51370D02*
X136500Y195350D01*
X140000Y18330D02*
X140000Y4650D01*
X140000Y51776D02*
X140000Y195350D01*
X143500Y19724D02*
X143500Y4650D01*
X143500Y55276D02*
X143500Y195350D01*
X147000Y23224D02*
X147000Y4650D01*
X147000Y122596D02*
X147000Y195350D01*
X150500Y26724D02*
X150500Y4683D01*
X150500Y125702D02*
X150500Y195317D01*
X154000Y30224D02*
X154000Y4912D01*
X154000Y109019D02*
X154000Y121668D01*
X154000Y128808D02*
X154000Y195088D01*
X157500Y33724D02*
X157500Y5726D01*
X157500Y92226D02*
X157500Y104986D01*
X157500Y112045D02*
X157500Y124774D01*
X157500Y131914D02*
X157500Y194274D01*
X161000Y37224D02*
X161000Y6664D01*
X161000Y60096D02*
X161000Y69904D01*
X161000Y80096D02*
X161000Y88191D01*
X161000Y100096D02*
X161000Y108012D01*
X161000Y120096D02*
X161000Y127880D01*
X161000Y140096D02*
X161000Y193336D01*
X164500Y40724D02*
X164500Y7902D01*
X164500Y61432D02*
X164500Y68568D01*
X164500Y81432D02*
X164500Y88568D01*
X164500Y101432D02*
X164500Y108568D01*
X164500Y121432D02*
X164500Y128568D01*
X164500Y141432D02*
X164500Y192098D01*
X168000Y49281D02*
X168000Y9923D01*
X168000Y60719D02*
X168000Y69281D01*
X168000Y80719D02*
X168000Y89281D01*
X168000Y100719D02*
X168000Y109281D01*
X168000Y120719D02*
X168000Y129281D01*
X168000Y140719D02*
X168000Y190077D01*
X171500Y188056D02*
X171500Y11944D01*
X175000Y15435D02*
X175000Y184565D01*
X178500Y180732D02*
X178500Y19268D01*
X182000Y25331D02*
X182000Y174670D01*
D11*
X12500Y25000D03*
X12500Y33500D03*
X12500Y42000D03*
X177500Y33500D03*
X177500Y42000D03*
X177500Y25000D03*
X177500Y170000D03*
X177500Y160000D03*
X155000Y190000D03*
X12500Y160000D03*
X31500Y190000D03*
X12500Y170000D03*
X76500Y72500D03*
X53700Y145900D03*
X112900Y80800D03*
X48500Y64500D03*
X57500Y64500D03*
X140500Y135500D03*
X66000Y56000D03*
X124000Y145000D03*
X132000Y135500D03*
D13*
X35064Y145000D02*
X35064Y125000D01*
X35064Y105000D01*
X35064Y85000D01*
X35064Y65000D01*
D11*
X48000Y125000D03*
D13*
X35064Y125000D01*
D11*
X25893Y125000D03*
D14*
X26936Y125000D01*
D13*
X26936Y121936D01*
X13520Y108520D01*
X13520Y56705D01*
X158000Y71000D02*
X162000Y75000D01*
X165000Y75000D01*
D11*
X165000Y75000D03*
X53000Y28000D03*
X137000Y28000D03*
D13*
X42225Y28000D02*
X13520Y56705D01*
X42225Y28000D02*
X53000Y28000D01*
X141000Y28000D02*
X158000Y45000D01*
X141000Y28000D02*
X137000Y28000D01*
X158000Y45000D02*
X158000Y71000D01*
D11*
X26000Y105107D03*
D14*
X26107Y105000D02*
X26936Y105000D01*
X26107Y105000D02*
X26000Y105107D01*
D13*
X26936Y105000D02*
X26936Y101646D01*
X16290Y91000D01*
X16290Y57853D02*
X39143Y35000D01*
X16290Y57853D02*
X16290Y91000D01*
X155000Y86667D02*
X165000Y95000D01*
D11*
X165000Y95000D03*
X61000Y35000D03*
X129000Y35000D03*
D13*
X61000Y35000D02*
X39143Y35000D01*
X129000Y35000D02*
X141238Y35000D01*
X155000Y48762D01*
X155000Y86667D01*
D11*
X26000Y85107D03*
D14*
X26107Y85000D02*
X26936Y85000D01*
X26107Y85000D02*
X26000Y85107D01*
D13*
X26936Y85000D02*
X26936Y81876D01*
X19060Y74000D01*
X19060Y59000D01*
D11*
X165000Y115000D03*
D13*
X152230Y103959D02*
X152230Y53230D01*
X152230Y103959D02*
X165000Y115000D01*
D11*
X53000Y42000D03*
X137000Y42000D03*
D13*
X53000Y42000D02*
X36060Y42000D01*
X19060Y59000D01*
X137000Y42000D02*
X141000Y42000D01*
X152230Y53230D01*
D11*
X26000Y65107D03*
D14*
X26107Y65000D02*
X26936Y65000D01*
X26107Y65000D02*
X26000Y65107D01*
D13*
X149230Y57230D02*
X149230Y121005D01*
D11*
X165000Y135000D03*
D13*
X149230Y121005D01*
D11*
X125900Y48700D03*
D13*
X140700Y48700D01*
X149230Y57230D01*
D11*
X26000Y145107D03*
D14*
X26084Y145023D02*
X26936Y145000D01*
X26084Y145023D02*
X26000Y145107D01*
D13*
X26936Y145000D02*
X26936Y142000D01*
X10750Y125814D01*
X10750Y55558D01*
D11*
X165000Y55000D03*
X61000Y21000D03*
X129000Y21000D03*
D13*
X45308Y21000D02*
X10750Y55558D01*
X45308Y21000D02*
X61000Y21000D01*
X129000Y21000D02*
X141000Y21000D01*
X165000Y45000D01*
X165000Y55000D01*
M02*
