G04 EAGLE Gerber RS-274X export*
G75*
%MOMM*%
%FSLAX34Y34*%
%LPD*%
%INComponent side*%
%IPPOS*%
%AMOC8*
5,1,8,0,0,1.08239X$1,22.5*%
G01*
%ADD10R,2.000000X0.600000*%
%ADD11R,2.900000X2.600000*%
%ADD12R,0.450000X1.450000*%
%ADD13C,0.250000*%
%ADD14C,0.125000*%
%ADD15R,0.200000X0.300000*%
%ADD16C,0.150000*%
%ADD17C,0.130000*%
%ADD18C,0.756400*%
%ADD19C,0.300000*%

G36*
X109139Y96713D02*
X109139Y96713D01*
X109208Y96715D01*
X109309Y96741D01*
X109412Y96758D01*
X109476Y96785D01*
X109542Y96802D01*
X109635Y96851D01*
X109731Y96891D01*
X109787Y96931D01*
X109848Y96964D01*
X109927Y97032D01*
X110011Y97093D01*
X110057Y97145D01*
X110109Y97191D01*
X110170Y97275D01*
X110238Y97354D01*
X110270Y97415D01*
X110311Y97472D01*
X110350Y97568D01*
X110399Y97660D01*
X110416Y97727D01*
X110443Y97791D01*
X110459Y97894D01*
X110485Y97995D01*
X110492Y98099D01*
X110498Y98132D01*
X110496Y98155D01*
X110499Y98200D01*
X110499Y107915D01*
X110483Y108053D01*
X110473Y108192D01*
X110463Y108225D01*
X110459Y108258D01*
X110412Y108389D01*
X110371Y108523D01*
X110353Y108552D01*
X110342Y108584D01*
X110266Y108700D01*
X110195Y108820D01*
X110165Y108854D01*
X110153Y108873D01*
X110129Y108896D01*
X110060Y108975D01*
X96725Y122310D01*
X96616Y122397D01*
X96510Y122488D01*
X96480Y122504D01*
X96454Y122525D01*
X96328Y122584D01*
X96204Y122649D01*
X96172Y122657D01*
X96141Y122672D01*
X96005Y122700D01*
X95870Y122735D01*
X95824Y122738D01*
X95803Y122743D01*
X95769Y122742D01*
X95665Y122749D01*
X89518Y122749D01*
X89402Y122736D01*
X89286Y122731D01*
X89231Y122716D01*
X89174Y122709D01*
X89065Y122670D01*
X88952Y122639D01*
X88879Y122603D01*
X88849Y122592D01*
X88825Y122576D01*
X88768Y122548D01*
X88481Y122382D01*
X87835Y122209D01*
X86749Y122209D01*
X86749Y125000D01*
X86745Y125035D01*
X86748Y125071D01*
X86725Y125207D01*
X86710Y125343D01*
X86697Y125377D01*
X86692Y125412D01*
X86639Y125539D01*
X86592Y125669D01*
X86573Y125698D01*
X86559Y125731D01*
X86479Y125843D01*
X86403Y125958D01*
X86378Y125983D01*
X86357Y126011D01*
X86253Y126102D01*
X86153Y126197D01*
X86123Y126215D01*
X86096Y126238D01*
X85973Y126302D01*
X85855Y126372D01*
X85821Y126382D01*
X85790Y126399D01*
X85656Y126433D01*
X85525Y126474D01*
X85489Y126476D01*
X85455Y126485D01*
X85250Y126499D01*
X85215Y126495D01*
X85180Y126498D01*
X85179Y126498D01*
X85043Y126475D01*
X84906Y126459D01*
X84873Y126447D01*
X84838Y126442D01*
X84711Y126389D01*
X84581Y126342D01*
X84551Y126323D01*
X84519Y126309D01*
X84407Y126228D01*
X84292Y126153D01*
X84267Y126127D01*
X84238Y126107D01*
X84148Y126003D01*
X84053Y125903D01*
X84035Y125872D01*
X84012Y125846D01*
X83948Y125723D01*
X83878Y125605D01*
X83868Y125571D01*
X83851Y125539D01*
X83817Y125406D01*
X83776Y125274D01*
X83773Y125239D01*
X83765Y125205D01*
X83751Y125000D01*
X83751Y122209D01*
X82665Y122209D01*
X82019Y122382D01*
X81750Y122538D01*
X81675Y122570D01*
X81605Y122612D01*
X81517Y122639D01*
X81432Y122675D01*
X81352Y122690D01*
X81274Y122714D01*
X81183Y122720D01*
X81092Y122736D01*
X81011Y122732D01*
X80929Y122737D01*
X80839Y122722D01*
X80747Y122717D01*
X80668Y122694D01*
X80588Y122681D01*
X80503Y122646D01*
X80415Y122620D01*
X80344Y122580D01*
X80269Y122549D01*
X80194Y122495D01*
X80114Y122449D01*
X80055Y122394D01*
X79989Y122346D01*
X79928Y122277D01*
X79861Y122214D01*
X79815Y122147D01*
X79762Y122085D01*
X79719Y122004D01*
X79668Y121927D01*
X79639Y121851D01*
X79601Y121779D01*
X79578Y121690D01*
X79546Y121604D01*
X79535Y121523D01*
X79515Y121444D01*
X79504Y121282D01*
X79501Y121261D01*
X79502Y121253D01*
X79501Y121240D01*
X79501Y115492D01*
X79517Y115354D01*
X79527Y115214D01*
X79537Y115182D01*
X79541Y115149D01*
X79588Y115018D01*
X79629Y114884D01*
X79647Y114855D01*
X79658Y114823D01*
X79734Y114707D01*
X79805Y114587D01*
X79835Y114552D01*
X79847Y114534D01*
X79871Y114511D01*
X79940Y114432D01*
X80821Y113551D01*
X80821Y104720D01*
X80825Y104685D01*
X80822Y104649D01*
X80845Y104513D01*
X80861Y104377D01*
X80873Y104343D01*
X80878Y104308D01*
X80931Y104181D01*
X80978Y104051D01*
X80997Y104022D01*
X81011Y103989D01*
X81092Y103877D01*
X81167Y103762D01*
X81193Y103737D01*
X81213Y103709D01*
X81317Y103618D01*
X81417Y103523D01*
X81448Y103505D01*
X81474Y103482D01*
X81597Y103418D01*
X81715Y103348D01*
X81749Y103338D01*
X81781Y103321D01*
X81914Y103287D01*
X82046Y103246D01*
X82081Y103244D01*
X82115Y103235D01*
X82320Y103221D01*
X93137Y103221D01*
X98668Y97690D01*
X98777Y97603D01*
X98882Y97512D01*
X98912Y97496D01*
X98939Y97475D01*
X99065Y97416D01*
X99189Y97351D01*
X99221Y97343D01*
X99252Y97328D01*
X99388Y97300D01*
X99523Y97265D01*
X99568Y97262D01*
X99590Y97257D01*
X99624Y97258D01*
X99728Y97251D01*
X107829Y97251D01*
X107940Y97140D01*
X108022Y97075D01*
X108097Y97003D01*
X108157Y96968D01*
X108211Y96925D01*
X108305Y96881D01*
X108395Y96828D01*
X108461Y96807D01*
X108524Y96778D01*
X108626Y96757D01*
X108726Y96726D01*
X108795Y96721D01*
X108862Y96707D01*
X108966Y96709D01*
X109071Y96702D01*
X109139Y96713D01*
G37*
D10*
X14500Y145000D03*
X49500Y135000D03*
X14500Y125000D03*
X49500Y115000D03*
X14500Y105000D03*
X49500Y95000D03*
X14500Y85000D03*
X49500Y75000D03*
X14500Y65000D03*
X49500Y55000D03*
D11*
X32000Y169000D03*
X32000Y31000D03*
D12*
X104750Y132000D03*
X98250Y132000D03*
X91750Y132000D03*
X85250Y132000D03*
X85250Y88000D03*
X91750Y88000D03*
X98250Y88000D03*
X104750Y88000D03*
D13*
X67525Y134350D02*
X65025Y134350D01*
X65025Y136850D01*
X67525Y136850D01*
X67525Y134350D01*
X67525Y136725D02*
X65025Y136725D01*
X74275Y134350D02*
X76775Y134350D01*
X74275Y134350D02*
X74275Y136850D01*
X76775Y136850D01*
X76775Y134350D01*
X76775Y136725D02*
X74275Y136725D01*
X103825Y70250D02*
X106325Y70250D01*
X103825Y70250D02*
X103825Y72750D01*
X106325Y72750D01*
X106325Y70250D01*
X106325Y72625D02*
X103825Y72625D01*
X113075Y70250D02*
X115575Y70250D01*
X113075Y70250D02*
X113075Y72750D01*
X115575Y72750D01*
X115575Y70250D01*
X115575Y72625D02*
X113075Y72625D01*
D10*
X175500Y55000D03*
X140500Y65000D03*
X175500Y75000D03*
X140500Y85000D03*
X175500Y95000D03*
X140500Y105000D03*
X175500Y115000D03*
X140500Y125000D03*
X175500Y135000D03*
X140500Y145000D03*
D11*
X158000Y31000D03*
X158000Y169000D03*
D14*
X75289Y119975D02*
X71539Y119975D01*
X75289Y119975D02*
X75289Y116225D01*
X71539Y116225D01*
X71539Y119975D01*
X71539Y117412D02*
X75289Y117412D01*
X75289Y118599D02*
X71539Y118599D01*
X71539Y119786D02*
X75289Y119786D01*
X68661Y119975D02*
X64911Y119975D01*
X68661Y119975D02*
X68661Y116225D01*
X64911Y116225D01*
X64911Y119975D01*
X64911Y117412D02*
X68661Y117412D01*
X68661Y118599D02*
X64911Y118599D01*
X64911Y119786D02*
X68661Y119786D01*
X71639Y101375D02*
X75389Y101375D01*
X75389Y97625D01*
X71639Y97625D01*
X71639Y101375D01*
X71639Y98812D02*
X75389Y98812D01*
X75389Y99999D02*
X71639Y99999D01*
X71639Y101186D02*
X75389Y101186D01*
X68761Y101375D02*
X65011Y101375D01*
X68761Y101375D02*
X68761Y97625D01*
X65011Y97625D01*
X65011Y101375D01*
X65011Y98812D02*
X68761Y98812D01*
X68761Y99999D02*
X65011Y99999D01*
X65011Y101186D02*
X68761Y101186D01*
X71639Y82875D02*
X75389Y82875D01*
X75389Y79125D01*
X71639Y79125D01*
X71639Y82875D01*
X71639Y80312D02*
X75389Y80312D01*
X75389Y81499D02*
X71639Y81499D01*
X71639Y82686D02*
X75389Y82686D01*
X68761Y82875D02*
X65011Y82875D01*
X68761Y82875D02*
X68761Y79125D01*
X65011Y79125D01*
X65011Y82875D01*
X65011Y80312D02*
X68761Y80312D01*
X68761Y81499D02*
X65011Y81499D01*
X65011Y82686D02*
X68761Y82686D01*
D15*
X85000Y68500D03*
X89000Y68500D03*
X93000Y68500D03*
X97000Y68500D03*
X97000Y74500D03*
X93000Y74500D03*
X89000Y74500D03*
X85000Y74500D03*
D16*
X73514Y81000D02*
X78814Y86300D01*
X83550Y86300D02*
X85250Y88000D01*
X83550Y86300D02*
X78814Y86300D01*
X86750Y83100D02*
X86750Y79611D01*
X86750Y83100D02*
X83550Y86300D01*
X89000Y77361D02*
X89000Y74500D01*
X89000Y77361D02*
X86750Y79611D01*
X91850Y88100D02*
X91850Y95489D01*
X91850Y88100D02*
X91750Y88000D01*
X91850Y95489D02*
X89239Y98100D01*
X78100Y98100D01*
X76700Y99500D01*
X73514Y99500D01*
X92750Y74750D02*
X93000Y74500D01*
X91750Y78528D02*
X91750Y88000D01*
X92750Y77528D02*
X92750Y74750D01*
X92750Y77528D02*
X91750Y78528D01*
X98250Y88000D02*
X98250Y95250D01*
X92300Y101200D02*
X80800Y101200D01*
X78800Y103200D01*
X78800Y112714D02*
X73414Y118100D01*
X92300Y101200D02*
X98250Y95250D01*
X78800Y103200D02*
X78800Y112714D01*
X96800Y74700D02*
X97000Y74500D01*
X96800Y74700D02*
X96800Y83350D01*
X98250Y84800D02*
X98250Y88000D01*
X98250Y84800D02*
X96800Y83350D01*
D17*
X116830Y80613D02*
X116830Y77987D01*
X127850Y66967D01*
X127850Y64487D01*
X125717Y66620D01*
X118168Y66620D01*
X118301Y66697D01*
X119128Y67524D01*
X119712Y68536D01*
X120015Y69665D01*
X120015Y70900D01*
X114925Y70900D01*
X114925Y72100D01*
X120015Y72100D01*
X120015Y73335D01*
X119712Y74464D01*
X119128Y75476D01*
X118301Y76303D01*
X117289Y76887D01*
X116160Y77190D01*
X114925Y77190D01*
X114925Y72100D01*
X113725Y72100D01*
X113725Y77190D01*
X112490Y77190D01*
X111361Y76887D01*
X110349Y76303D01*
X109522Y75476D01*
X109373Y75218D01*
X108170Y76420D01*
X108170Y78172D01*
X109650Y79652D01*
X109650Y96348D01*
X108098Y97900D01*
X99376Y97900D01*
X93406Y103870D01*
X81906Y103870D01*
X81470Y104306D01*
X81470Y113820D01*
X79906Y115384D01*
X78564Y116726D01*
X78564Y121332D01*
X76646Y123250D01*
X70206Y123250D01*
X70206Y123844D01*
X75693Y130450D01*
X78390Y130450D01*
X80415Y132475D01*
X84775Y132475D01*
X84775Y131525D01*
X79810Y131525D01*
X79810Y124330D01*
X80027Y123519D01*
X80447Y122791D01*
X81041Y122197D01*
X81769Y121777D01*
X82580Y121560D01*
X84775Y121560D01*
X84775Y131525D01*
X85725Y131525D01*
X85725Y121560D01*
X87920Y121560D01*
X88731Y121777D01*
X89290Y122100D01*
X96017Y122100D01*
X116830Y101287D01*
X116830Y80613D01*
X85000Y68500D02*
X85000Y68500D01*
X89000Y68500D01*
X89000Y68500D01*
X88810Y68500D01*
X85000Y68500D01*
X89000Y68500D02*
X89000Y68500D01*
X93000Y68500D01*
X93000Y68500D01*
X92810Y68500D01*
X89000Y68500D01*
X70073Y75850D02*
X68630Y74407D01*
X70073Y75850D02*
X70118Y75850D01*
X70200Y75932D01*
X70282Y75850D01*
X76746Y75850D01*
X78664Y77768D01*
X78664Y82374D01*
X79920Y83630D01*
X80350Y83630D01*
X80350Y79652D01*
X81902Y78100D01*
X82352Y78100D01*
X81350Y77098D01*
X81350Y71902D01*
X81391Y71861D01*
X81027Y71231D01*
X80810Y70420D01*
X80810Y68500D01*
X85000Y68500D01*
X85000Y68500D01*
X80810Y68500D01*
X80810Y66620D01*
X76417Y66620D01*
X68630Y74407D01*
X93000Y68500D02*
X93000Y68500D01*
X97000Y68500D01*
X97000Y68500D01*
X93000Y68500D01*
X153150Y123687D02*
X153150Y129098D01*
X151598Y130650D01*
X129402Y130650D01*
X127850Y129098D01*
X127850Y120902D01*
X129402Y119350D01*
X147813Y119350D01*
X153180Y113983D01*
X153180Y62617D01*
X153150Y62587D01*
X153150Y69098D01*
X151598Y70650D01*
X133133Y70650D01*
X123170Y80613D01*
X123170Y103913D01*
X104983Y122100D01*
X105717Y122100D01*
X123530Y104287D01*
X123530Y89487D01*
X127850Y85167D01*
X127850Y80902D01*
X129402Y79350D01*
X151598Y79350D01*
X153150Y80902D01*
X153150Y89098D01*
X151598Y90650D01*
X131333Y90650D01*
X129870Y92113D01*
X129870Y99350D01*
X151598Y99350D01*
X153150Y100902D01*
X153150Y109098D01*
X151598Y110650D01*
X129402Y110650D01*
X127850Y109098D01*
X127850Y108933D01*
X109650Y127133D01*
X109650Y140348D01*
X108170Y141828D01*
X108170Y148313D01*
X106313Y150170D01*
X99013Y157470D01*
X49690Y157470D01*
X49690Y168350D01*
X32650Y168350D01*
X32650Y169650D01*
X49690Y169650D01*
X49690Y182420D01*
X49473Y183231D01*
X49053Y183959D01*
X48459Y184553D01*
X47731Y184973D01*
X46920Y185190D01*
X32650Y185190D01*
X32650Y169650D01*
X31350Y169650D01*
X31350Y185190D01*
X17080Y185190D01*
X16269Y184973D01*
X15541Y184553D01*
X14947Y183959D01*
X14527Y183231D01*
X14310Y182420D01*
X14310Y169650D01*
X31350Y169650D01*
X31350Y168350D01*
X14310Y168350D01*
X14310Y155580D01*
X14527Y154769D01*
X14947Y154041D01*
X15541Y153447D01*
X16269Y153027D01*
X17080Y152810D01*
X31350Y152810D01*
X31350Y168350D01*
X32650Y168350D01*
X32650Y152810D01*
X43627Y152810D01*
X29969Y139152D01*
X29969Y130020D01*
X29536Y130453D01*
X27172Y131432D01*
X24614Y131432D01*
X22726Y130650D01*
X4650Y130650D01*
X4650Y139350D01*
X23091Y139350D01*
X24721Y138675D01*
X27279Y138675D01*
X29643Y139654D01*
X31453Y141464D01*
X32432Y143828D01*
X32432Y146386D01*
X31453Y148750D01*
X29643Y150560D01*
X27279Y151539D01*
X24721Y151539D01*
X22574Y150650D01*
X4650Y150650D01*
X4650Y160000D01*
X4952Y164614D01*
X7341Y173528D01*
X7341Y173528D01*
X11955Y181520D01*
X18480Y188045D01*
X26472Y192659D01*
X35386Y195048D01*
X40000Y195350D01*
X81861Y195350D01*
X78294Y192138D01*
X78294Y192138D01*
X74801Y184293D01*
X74801Y175707D01*
X78294Y167862D01*
X78294Y167862D01*
X78294Y167862D01*
X84675Y162117D01*
X84675Y162117D01*
X92841Y159463D01*
X92842Y159463D01*
X101381Y160361D01*
X108818Y164654D01*
X108818Y164654D01*
X113865Y171601D01*
X115650Y180000D01*
X115650Y180000D01*
X113865Y188399D01*
X113865Y188399D01*
X108818Y195346D01*
X108818Y195346D01*
X108818Y195346D01*
X108810Y195350D01*
X150000Y195350D01*
X154614Y195048D01*
X163528Y192659D01*
X171520Y188045D01*
X178045Y181520D01*
X182659Y173528D01*
X185048Y164614D01*
X185350Y160000D01*
X185350Y140650D01*
X168167Y140650D01*
X166279Y141432D01*
X163721Y141432D01*
X161357Y140453D01*
X159547Y138643D01*
X158568Y136279D01*
X158568Y133721D01*
X159547Y131357D01*
X161357Y129547D01*
X163721Y128568D01*
X166279Y128568D01*
X168167Y129350D01*
X185350Y129350D01*
X185350Y120650D01*
X168167Y120650D01*
X166279Y121432D01*
X163721Y121432D01*
X161357Y120453D01*
X159547Y118643D01*
X159151Y117686D01*
X153150Y123687D01*
X139850Y138810D02*
X139850Y144350D01*
X141150Y144350D01*
X141150Y138810D01*
X150920Y138810D01*
X151731Y139027D01*
X152459Y139447D01*
X153053Y140041D01*
X153473Y140769D01*
X153690Y141580D01*
X153690Y144350D01*
X141150Y144350D01*
X141150Y145650D01*
X153690Y145650D01*
X153690Y148420D01*
X153473Y149231D01*
X153053Y149959D01*
X152459Y150553D01*
X151731Y150973D01*
X150920Y151190D01*
X141150Y151190D01*
X141150Y145650D01*
X139850Y145650D01*
X139850Y151190D01*
X130080Y151190D01*
X129269Y150973D01*
X128541Y150553D01*
X127947Y149959D01*
X127527Y149231D01*
X127310Y148420D01*
X127310Y145650D01*
X139850Y145650D01*
X139850Y144350D01*
X127310Y144350D01*
X127310Y141580D01*
X127527Y140769D01*
X127947Y140041D01*
X128541Y139447D01*
X129269Y139027D01*
X130080Y138810D01*
X139850Y138810D01*
X158650Y168350D02*
X175690Y168350D01*
X158650Y168350D02*
X158650Y169650D01*
X175690Y169650D01*
X175690Y182420D01*
X175473Y183231D01*
X175053Y183959D01*
X174459Y184553D01*
X173731Y184973D01*
X172920Y185190D01*
X158650Y185190D01*
X158650Y169650D01*
X157350Y169650D01*
X157350Y185190D01*
X143080Y185190D01*
X142269Y184973D01*
X141541Y184553D01*
X140947Y183959D01*
X140527Y183231D01*
X140310Y182420D01*
X140310Y169650D01*
X157350Y169650D01*
X157350Y168350D01*
X140310Y168350D01*
X140310Y155580D01*
X140527Y154769D01*
X140947Y154041D01*
X141541Y153447D01*
X142269Y153027D01*
X143080Y152810D01*
X157350Y152810D01*
X157350Y168350D01*
X158650Y168350D01*
X158650Y152810D01*
X172920Y152810D01*
X173731Y153027D01*
X174459Y153447D01*
X175053Y154041D01*
X175473Y154769D01*
X175690Y155580D01*
X175690Y168350D01*
X50150Y61190D02*
X50150Y55650D01*
X48850Y55650D01*
X48850Y61190D01*
X39080Y61190D01*
X38269Y60973D01*
X37541Y60553D01*
X36947Y59959D01*
X36527Y59231D01*
X36310Y58420D01*
X36310Y55650D01*
X48850Y55650D01*
X48850Y54350D01*
X36310Y54350D01*
X36310Y53466D01*
X29883Y59893D01*
X31453Y61464D01*
X32432Y63828D01*
X32432Y66386D01*
X31453Y68750D01*
X29643Y70560D01*
X27279Y71539D01*
X24721Y71539D01*
X22574Y70650D01*
X4650Y70650D01*
X4650Y79350D01*
X23091Y79350D01*
X24721Y78675D01*
X27279Y78675D01*
X29643Y79654D01*
X31453Y81464D01*
X32432Y83828D01*
X32432Y86386D01*
X31453Y88750D01*
X29643Y90560D01*
X27279Y91539D01*
X24721Y91539D01*
X22574Y90650D01*
X4650Y90650D01*
X4650Y99350D01*
X23091Y99350D01*
X24721Y98675D01*
X27279Y98675D01*
X29643Y99654D01*
X31453Y101464D01*
X32432Y103828D01*
X32432Y106386D01*
X31453Y108750D01*
X29643Y110560D01*
X27279Y111539D01*
X24721Y111539D01*
X22574Y110650D01*
X4650Y110650D01*
X4650Y119350D01*
X22726Y119350D01*
X24614Y118568D01*
X27172Y118568D01*
X29536Y119547D01*
X31346Y121357D01*
X31625Y122031D01*
X31826Y121830D01*
X36850Y116806D01*
X36850Y110902D01*
X38402Y109350D01*
X60598Y109350D01*
X62150Y110902D01*
X62150Y114355D01*
X63366Y113138D01*
X63366Y104362D01*
X61736Y102732D01*
X61736Y99512D01*
X60598Y100650D01*
X38402Y100650D01*
X36850Y99098D01*
X36850Y90902D01*
X38402Y89350D01*
X60598Y89350D01*
X62150Y90902D01*
X62150Y95855D01*
X63466Y94538D01*
X63466Y85962D01*
X61736Y84232D01*
X61736Y79512D01*
X60598Y80650D01*
X38402Y80650D01*
X36850Y79098D01*
X36850Y70902D01*
X38402Y69350D01*
X60598Y69350D01*
X61828Y70580D01*
X62783Y70580D01*
X73583Y59780D01*
X122883Y59780D01*
X125880Y56783D01*
X125880Y56783D01*
X127780Y54883D01*
X127179Y55132D01*
X124621Y55132D01*
X122257Y54153D01*
X120690Y52586D01*
X114606Y58670D01*
X74894Y58670D01*
X73330Y57106D01*
X67894Y51670D01*
X62690Y51670D01*
X62690Y54350D01*
X50150Y54350D01*
X50150Y55650D01*
X62690Y55650D01*
X62690Y58420D01*
X62473Y59231D01*
X62053Y59959D01*
X61459Y60553D01*
X60731Y60973D01*
X59920Y61190D01*
X50150Y61190D01*
X32650Y47190D02*
X32650Y31650D01*
X31350Y31650D01*
X31350Y47190D01*
X17080Y47190D01*
X16269Y46973D01*
X15541Y46553D01*
X14947Y45959D01*
X14527Y45231D01*
X14310Y44420D01*
X14310Y31650D01*
X31350Y31650D01*
X31350Y30350D01*
X14310Y30350D01*
X14310Y17580D01*
X14527Y16769D01*
X14947Y16041D01*
X15541Y15447D01*
X16269Y15027D01*
X17080Y14810D01*
X31350Y14810D01*
X31350Y30350D01*
X32650Y30350D01*
X32650Y14810D01*
X46920Y14810D01*
X47731Y15027D01*
X48459Y15447D01*
X49053Y16041D01*
X49473Y16769D01*
X49690Y17580D01*
X49690Y22409D01*
X51721Y21568D01*
X54279Y21568D01*
X54568Y21688D01*
X54568Y19721D01*
X55547Y17357D01*
X57357Y15547D01*
X59721Y14568D01*
X62279Y14568D01*
X64643Y15547D01*
X66453Y17357D01*
X67432Y19721D01*
X67432Y22279D01*
X67029Y23253D01*
X85106Y41330D01*
X104394Y41330D01*
X122825Y22899D01*
X122568Y22279D01*
X122568Y19721D01*
X123547Y17357D01*
X125357Y15547D01*
X127721Y14568D01*
X130279Y14568D01*
X132643Y15547D01*
X134453Y17357D01*
X135432Y19721D01*
X135432Y21688D01*
X135721Y21568D01*
X138279Y21568D01*
X140310Y22409D01*
X140310Y17580D01*
X140527Y16769D01*
X140947Y16041D01*
X141541Y15447D01*
X142269Y15027D01*
X143080Y14810D01*
X157350Y14810D01*
X157350Y30350D01*
X158650Y30350D01*
X158650Y14810D01*
X172920Y14810D01*
X173731Y15027D01*
X174459Y15447D01*
X175053Y16041D01*
X175473Y16769D01*
X175690Y17580D01*
X175690Y30350D01*
X158650Y30350D01*
X158650Y31650D01*
X175690Y31650D01*
X175690Y44420D01*
X175473Y45231D01*
X175053Y45959D01*
X174459Y46553D01*
X173731Y46973D01*
X172920Y47190D01*
X158650Y47190D01*
X158650Y31650D01*
X157350Y31650D01*
X157350Y47190D01*
X143080Y47190D01*
X142269Y46973D01*
X141543Y46553D01*
X140643Y47453D01*
X138279Y48432D01*
X135721Y48432D01*
X133357Y47453D01*
X131630Y45726D01*
X132332Y47421D01*
X132332Y49979D01*
X131353Y52343D01*
X129543Y54153D01*
X128029Y54780D01*
X155017Y54780D01*
X158017Y57780D01*
X160020Y59783D01*
X160020Y70884D01*
X161357Y69547D01*
X163721Y68568D01*
X166279Y68568D01*
X168167Y69350D01*
X185350Y69350D01*
X185350Y60650D01*
X168167Y60650D01*
X166279Y61432D01*
X163721Y61432D01*
X161357Y60453D01*
X159547Y58643D01*
X158568Y56279D01*
X158568Y53721D01*
X159547Y51357D01*
X161357Y49547D01*
X163721Y48568D01*
X166279Y48568D01*
X168167Y49350D01*
X185350Y49350D01*
X185350Y40000D01*
X185048Y35386D01*
X182659Y26472D01*
X178045Y18480D01*
X171520Y11955D01*
X163528Y7341D01*
X154614Y4952D01*
X150000Y4650D01*
X108810Y4650D01*
X108818Y4654D01*
X108818Y4654D01*
X108818Y4654D01*
X113865Y11601D01*
X113865Y11601D01*
X115650Y20000D01*
X113865Y28399D01*
X113865Y28399D01*
X108818Y35346D01*
X108818Y35346D01*
X108818Y35346D01*
X101381Y39639D01*
X101381Y39639D01*
X92842Y40537D01*
X92841Y40537D01*
X84675Y37883D01*
X84675Y37883D01*
X78294Y32138D01*
X78294Y32138D01*
X74801Y24293D01*
X74801Y15707D01*
X78294Y7862D01*
X78294Y7862D01*
X81861Y4650D01*
X40000Y4650D01*
X35386Y4952D01*
X26472Y7341D01*
X18480Y11955D01*
X11955Y18480D01*
X7341Y26472D01*
X4952Y35386D01*
X4650Y40000D01*
X4650Y59350D01*
X22874Y59350D01*
X34330Y47894D01*
X35034Y47190D01*
X32650Y47190D01*
X65987Y150470D02*
X68613Y150470D01*
X65987Y150470D02*
X56167Y140650D01*
X40433Y140650D01*
X50913Y151130D01*
X96387Y151130D01*
X101830Y145687D01*
X101830Y141900D01*
X101420Y141900D01*
X101420Y145063D01*
X96013Y150470D01*
X93387Y150470D01*
X68613Y150470D01*
X80362Y6000D02*
X31476Y6000D01*
X109795Y6000D02*
X158524Y6000D01*
X77787Y9000D02*
X23598Y9000D01*
X111975Y9000D02*
X166402Y9000D01*
X76452Y12000D02*
X18435Y12000D01*
X113950Y12000D02*
X171565Y12000D01*
X16371Y15000D02*
X15435Y15000D01*
X31350Y15000D02*
X32650Y15000D01*
X47629Y15000D02*
X58678Y15000D01*
X63322Y15000D02*
X75116Y15000D01*
X114587Y15000D02*
X126678Y15000D01*
X131322Y15000D02*
X142371Y15000D01*
X157350Y15000D02*
X158650Y15000D01*
X173629Y15000D02*
X174565Y15000D01*
X14310Y18000D02*
X12435Y18000D01*
X31350Y18000D02*
X32650Y18000D01*
X49690Y18000D02*
X55281Y18000D01*
X66719Y18000D02*
X74801Y18000D01*
X115225Y18000D02*
X123281Y18000D01*
X134719Y18000D02*
X140310Y18000D01*
X157350Y18000D02*
X158650Y18000D01*
X175690Y18000D02*
X177565Y18000D01*
X14310Y21000D02*
X10500Y21000D01*
X31350Y21000D02*
X32650Y21000D01*
X49690Y21000D02*
X54568Y21000D01*
X67432Y21000D02*
X74801Y21000D01*
X115437Y21000D02*
X122568Y21000D01*
X135432Y21000D02*
X140310Y21000D01*
X157350Y21000D02*
X158650Y21000D01*
X175690Y21000D02*
X179500Y21000D01*
X14310Y24000D02*
X8768Y24000D01*
X31350Y24000D02*
X32650Y24000D01*
X67776Y24000D02*
X74801Y24000D01*
X114800Y24000D02*
X121724Y24000D01*
X157350Y24000D02*
X158650Y24000D01*
X175690Y24000D02*
X181232Y24000D01*
X14310Y27000D02*
X7199Y27000D01*
X31350Y27000D02*
X32650Y27000D01*
X70776Y27000D02*
X76006Y27000D01*
X114162Y27000D02*
X118724Y27000D01*
X157350Y27000D02*
X158650Y27000D01*
X175690Y27000D02*
X182801Y27000D01*
X14310Y30000D02*
X6396Y30000D01*
X31350Y30000D02*
X32650Y30000D01*
X73776Y30000D02*
X77342Y30000D01*
X112702Y30000D02*
X115724Y30000D01*
X157350Y30000D02*
X158650Y30000D01*
X175690Y30000D02*
X183604Y30000D01*
X14310Y33000D02*
X5592Y33000D01*
X31350Y33000D02*
X32650Y33000D01*
X76776Y33000D02*
X79251Y33000D01*
X110522Y33000D02*
X112724Y33000D01*
X157350Y33000D02*
X158650Y33000D01*
X175690Y33000D02*
X184408Y33000D01*
X14310Y36000D02*
X4912Y36000D01*
X31350Y36000D02*
X32650Y36000D01*
X79776Y36000D02*
X82583Y36000D01*
X107685Y36000D02*
X109724Y36000D01*
X157350Y36000D02*
X158650Y36000D01*
X175690Y36000D02*
X185088Y36000D01*
X14310Y39000D02*
X4716Y39000D01*
X31350Y39000D02*
X32650Y39000D01*
X82776Y39000D02*
X88112Y39000D01*
X102488Y39000D02*
X106724Y39000D01*
X157350Y39000D02*
X158650Y39000D01*
X175690Y39000D02*
X185284Y39000D01*
X14310Y42000D02*
X4650Y42000D01*
X31350Y42000D02*
X32650Y42000D01*
X157350Y42000D02*
X158650Y42000D01*
X175690Y42000D02*
X185350Y42000D01*
X14465Y45000D02*
X4650Y45000D01*
X31350Y45000D02*
X32650Y45000D01*
X157350Y45000D02*
X158650Y45000D01*
X175535Y45000D02*
X185350Y45000D01*
X34224Y48000D02*
X4650Y48000D01*
X132332Y48000D02*
X134678Y48000D01*
X139322Y48000D02*
X185350Y48000D01*
X31224Y51000D02*
X4650Y51000D01*
X131909Y51000D02*
X159904Y51000D01*
X28224Y54000D02*
X4650Y54000D01*
X35776Y54000D02*
X36310Y54000D01*
X62690Y54000D02*
X70224Y54000D01*
X119276Y54000D02*
X122104Y54000D01*
X129696Y54000D02*
X158568Y54000D01*
X25224Y57000D02*
X4650Y57000D01*
X32776Y57000D02*
X36310Y57000D01*
X48850Y57000D02*
X50150Y57000D01*
X62690Y57000D02*
X73224Y57000D01*
X116276Y57000D02*
X125663Y57000D01*
X157237Y57000D02*
X158867Y57000D01*
X36989Y60000D02*
X29989Y60000D01*
X48850Y60000D02*
X50150Y60000D01*
X62011Y60000D02*
X73363Y60000D01*
X160020Y60000D02*
X160904Y60000D01*
X70363Y63000D02*
X32089Y63000D01*
X153150Y63000D02*
X153180Y63000D01*
X160020Y63000D02*
X185350Y63000D01*
X67363Y66000D02*
X32432Y66000D01*
X126337Y66000D02*
X127850Y66000D01*
X153150Y66000D02*
X153180Y66000D01*
X160020Y66000D02*
X185350Y66000D01*
X64363Y69000D02*
X31203Y69000D01*
X74037Y69000D02*
X80810Y69000D01*
X119837Y69000D02*
X125817Y69000D01*
X153150Y69000D02*
X153180Y69000D01*
X160020Y69000D02*
X162678Y69000D01*
X167322Y69000D02*
X185350Y69000D01*
X36850Y72000D02*
X4650Y72000D01*
X71037Y72000D02*
X81350Y72000D01*
X114925Y72000D02*
X122817Y72000D01*
X131783Y72000D02*
X153180Y72000D01*
X36850Y75000D02*
X4650Y75000D01*
X69223Y75000D02*
X81350Y75000D01*
X113725Y75000D02*
X114925Y75000D01*
X119403Y75000D02*
X119817Y75000D01*
X128783Y75000D02*
X153180Y75000D01*
X36850Y78000D02*
X4650Y78000D01*
X78664Y78000D02*
X82252Y78000D01*
X108170Y78000D02*
X116830Y78000D01*
X125783Y78000D02*
X153180Y78000D01*
X61736Y81000D02*
X30989Y81000D01*
X78664Y81000D02*
X80350Y81000D01*
X109650Y81000D02*
X116830Y81000D01*
X123170Y81000D02*
X127850Y81000D01*
X153150Y81000D02*
X153180Y81000D01*
X61736Y84000D02*
X32432Y84000D01*
X109650Y84000D02*
X116830Y84000D01*
X123170Y84000D02*
X127850Y84000D01*
X153150Y84000D02*
X153180Y84000D01*
X63466Y87000D02*
X32178Y87000D01*
X109650Y87000D02*
X116830Y87000D01*
X123170Y87000D02*
X126017Y87000D01*
X153150Y87000D02*
X153180Y87000D01*
X37752Y90000D02*
X30203Y90000D01*
X61248Y90000D02*
X63466Y90000D01*
X109650Y90000D02*
X116830Y90000D01*
X123170Y90000D02*
X123530Y90000D01*
X152248Y90000D02*
X153180Y90000D01*
X36850Y93000D02*
X4650Y93000D01*
X62150Y93000D02*
X63466Y93000D01*
X109650Y93000D02*
X116830Y93000D01*
X123170Y93000D02*
X123530Y93000D01*
X129870Y93000D02*
X153180Y93000D01*
X36850Y96000D02*
X4650Y96000D01*
X109650Y96000D02*
X116830Y96000D01*
X123170Y96000D02*
X123530Y96000D01*
X129870Y96000D02*
X153180Y96000D01*
X23936Y99000D02*
X4650Y99000D01*
X28064Y99000D02*
X36850Y99000D01*
X98276Y99000D02*
X116830Y99000D01*
X123170Y99000D02*
X123530Y99000D01*
X129870Y99000D02*
X153180Y99000D01*
X61736Y102000D02*
X31675Y102000D01*
X95276Y102000D02*
X116117Y102000D01*
X123170Y102000D02*
X123530Y102000D01*
X153150Y102000D02*
X153180Y102000D01*
X63366Y105000D02*
X32432Y105000D01*
X81470Y105000D02*
X113117Y105000D01*
X122083Y105000D02*
X122817Y105000D01*
X153150Y105000D02*
X153180Y105000D01*
X63366Y108000D02*
X31764Y108000D01*
X81470Y108000D02*
X110117Y108000D01*
X119083Y108000D02*
X119817Y108000D01*
X153150Y108000D02*
X153180Y108000D01*
X23419Y111000D02*
X4650Y111000D01*
X28581Y111000D02*
X36850Y111000D01*
X62150Y111000D02*
X63366Y111000D01*
X81470Y111000D02*
X107117Y111000D01*
X116083Y111000D02*
X116817Y111000D01*
X125783Y111000D02*
X153180Y111000D01*
X36850Y114000D02*
X4650Y114000D01*
X62150Y114000D02*
X62504Y114000D01*
X81290Y114000D02*
X104117Y114000D01*
X113083Y114000D02*
X113817Y114000D01*
X122783Y114000D02*
X153163Y114000D01*
X36656Y117000D02*
X4650Y117000D01*
X78564Y117000D02*
X101117Y117000D01*
X110083Y117000D02*
X110817Y117000D01*
X119783Y117000D02*
X150163Y117000D01*
X33656Y120000D02*
X29989Y120000D01*
X78564Y120000D02*
X98117Y120000D01*
X107083Y120000D02*
X107817Y120000D01*
X116783Y120000D02*
X128752Y120000D01*
X156837Y120000D02*
X160904Y120000D01*
X80327Y123000D02*
X76896Y123000D01*
X84775Y123000D02*
X85725Y123000D01*
X113783Y123000D02*
X127850Y123000D01*
X153837Y123000D02*
X185350Y123000D01*
X79810Y126000D02*
X71997Y126000D01*
X84775Y126000D02*
X85725Y126000D01*
X110783Y126000D02*
X127850Y126000D01*
X153150Y126000D02*
X185350Y126000D01*
X79810Y129000D02*
X74489Y129000D01*
X84775Y129000D02*
X85725Y129000D01*
X109650Y129000D02*
X127850Y129000D01*
X153150Y129000D02*
X162678Y129000D01*
X167322Y129000D02*
X185350Y129000D01*
X29969Y132000D02*
X4650Y132000D01*
X79940Y132000D02*
X84775Y132000D01*
X109650Y132000D02*
X159281Y132000D01*
X29969Y135000D02*
X4650Y135000D01*
X109650Y135000D02*
X158568Y135000D01*
X29969Y138000D02*
X4650Y138000D01*
X109650Y138000D02*
X159281Y138000D01*
X31817Y141000D02*
X30989Y141000D01*
X40783Y141000D02*
X56517Y141000D01*
X108998Y141000D02*
X127465Y141000D01*
X139850Y141000D02*
X141150Y141000D01*
X153535Y141000D02*
X162678Y141000D01*
X167322Y141000D02*
X185350Y141000D01*
X34817Y144000D02*
X32432Y144000D01*
X43783Y144000D02*
X59517Y144000D01*
X101420Y144000D02*
X101830Y144000D01*
X108170Y144000D02*
X127310Y144000D01*
X139850Y144000D02*
X141150Y144000D01*
X153690Y144000D02*
X185350Y144000D01*
X37817Y147000D02*
X32178Y147000D01*
X46783Y147000D02*
X62517Y147000D01*
X99483Y147000D02*
X100517Y147000D01*
X108170Y147000D02*
X127310Y147000D01*
X139850Y147000D02*
X141150Y147000D01*
X153690Y147000D02*
X185350Y147000D01*
X40817Y150000D02*
X30203Y150000D01*
X49783Y150000D02*
X65517Y150000D01*
X96483Y150000D02*
X97517Y150000D01*
X106483Y150000D02*
X127989Y150000D01*
X139850Y150000D02*
X141150Y150000D01*
X153011Y150000D02*
X185350Y150000D01*
X16371Y153000D02*
X4650Y153000D01*
X31350Y153000D02*
X32650Y153000D01*
X103483Y153000D02*
X142371Y153000D01*
X157350Y153000D02*
X158650Y153000D01*
X173629Y153000D02*
X185350Y153000D01*
X14310Y156000D02*
X4650Y156000D01*
X31350Y156000D02*
X32650Y156000D01*
X100483Y156000D02*
X140310Y156000D01*
X157350Y156000D02*
X158650Y156000D01*
X175690Y156000D02*
X185350Y156000D01*
X14310Y159000D02*
X4650Y159000D01*
X31350Y159000D02*
X32650Y159000D01*
X49690Y159000D02*
X140310Y159000D01*
X157350Y159000D02*
X158650Y159000D01*
X175690Y159000D02*
X185350Y159000D01*
X14310Y162000D02*
X4781Y162000D01*
X31350Y162000D02*
X32650Y162000D01*
X49690Y162000D02*
X85034Y162000D01*
X104221Y162000D02*
X140310Y162000D01*
X157350Y162000D02*
X158650Y162000D01*
X175690Y162000D02*
X185219Y162000D01*
X14310Y165000D02*
X5056Y165000D01*
X31350Y165000D02*
X32650Y165000D01*
X49690Y165000D02*
X81473Y165000D01*
X109069Y165000D02*
X140310Y165000D01*
X157350Y165000D02*
X158650Y165000D01*
X175690Y165000D02*
X184944Y165000D01*
X14310Y168000D02*
X5860Y168000D01*
X31350Y168000D02*
X32650Y168000D01*
X49690Y168000D02*
X78232Y168000D01*
X111248Y168000D02*
X140310Y168000D01*
X157350Y168000D02*
X158650Y168000D01*
X175690Y168000D02*
X184140Y168000D01*
X14310Y171000D02*
X6663Y171000D01*
X31350Y171000D02*
X32650Y171000D01*
X49690Y171000D02*
X76897Y171000D01*
X113428Y171000D02*
X140310Y171000D01*
X157350Y171000D02*
X158650Y171000D01*
X175690Y171000D02*
X183336Y171000D01*
X14310Y174000D02*
X7613Y174000D01*
X31350Y174000D02*
X32650Y174000D01*
X49690Y174000D02*
X75561Y174000D01*
X114375Y174000D02*
X140310Y174000D01*
X157350Y174000D02*
X158650Y174000D01*
X175690Y174000D02*
X182387Y174000D01*
X14310Y177000D02*
X9345Y177000D01*
X31350Y177000D02*
X32650Y177000D01*
X49690Y177000D02*
X74801Y177000D01*
X115012Y177000D02*
X140310Y177000D01*
X157350Y177000D02*
X158650Y177000D01*
X175690Y177000D02*
X180654Y177000D01*
X14310Y180000D02*
X11078Y180000D01*
X31350Y180000D02*
X32650Y180000D01*
X49690Y180000D02*
X74801Y180000D01*
X115650Y180000D02*
X140310Y180000D01*
X157350Y180000D02*
X158650Y180000D01*
X175690Y180000D02*
X178922Y180000D01*
X14465Y183000D02*
X13435Y183000D01*
X31350Y183000D02*
X32650Y183000D01*
X49535Y183000D02*
X74801Y183000D01*
X115012Y183000D02*
X140465Y183000D01*
X157350Y183000D02*
X158650Y183000D01*
X175535Y183000D02*
X176565Y183000D01*
X75561Y186000D02*
X16435Y186000D01*
X114375Y186000D02*
X173565Y186000D01*
X76897Y189000D02*
X20134Y189000D01*
X113428Y189000D02*
X169866Y189000D01*
X78232Y192000D02*
X25330Y192000D01*
X111248Y192000D02*
X164669Y192000D01*
X81473Y195000D02*
X35208Y195000D01*
X109069Y195000D02*
X154792Y195000D01*
X6000Y59350D02*
X6000Y31476D01*
X6000Y70650D02*
X6000Y79350D01*
X6000Y90650D02*
X6000Y99350D01*
X6000Y110650D02*
X6000Y119350D01*
X6000Y130650D02*
X6000Y139350D01*
X6000Y150650D02*
X6000Y168524D01*
X9000Y59350D02*
X9000Y23598D01*
X9000Y70650D02*
X9000Y79350D01*
X9000Y90650D02*
X9000Y99350D01*
X9000Y110650D02*
X9000Y119350D01*
X9000Y130650D02*
X9000Y139350D01*
X9000Y150650D02*
X9000Y176402D01*
X12000Y59350D02*
X12000Y18435D01*
X12000Y70650D02*
X12000Y79350D01*
X12000Y90650D02*
X12000Y99350D01*
X12000Y110650D02*
X12000Y119350D01*
X12000Y130650D02*
X12000Y139350D01*
X12000Y150650D02*
X12000Y181565D01*
X15000Y15989D02*
X15000Y15435D01*
X15000Y30350D02*
X15000Y31650D01*
X15000Y46011D02*
X15000Y59350D01*
X15000Y70650D02*
X15000Y79350D01*
X15000Y90650D02*
X15000Y99350D01*
X15000Y110650D02*
X15000Y119350D01*
X15000Y130650D02*
X15000Y139350D01*
X15000Y150650D02*
X15000Y153989D01*
X15000Y168350D02*
X15000Y169650D01*
X15000Y184011D02*
X15000Y184565D01*
X18000Y14810D02*
X18000Y12435D01*
X18000Y30350D02*
X18000Y31650D01*
X18000Y47190D02*
X18000Y59350D01*
X18000Y70650D02*
X18000Y79350D01*
X18000Y90650D02*
X18000Y99350D01*
X18000Y110650D02*
X18000Y119350D01*
X18000Y130650D02*
X18000Y139350D01*
X18000Y150650D02*
X18000Y152810D01*
X18000Y168350D02*
X18000Y169650D01*
X18000Y185190D02*
X18000Y187565D01*
X21000Y14810D02*
X21000Y10500D01*
X21000Y30350D02*
X21000Y31650D01*
X21000Y47190D02*
X21000Y59350D01*
X21000Y70650D02*
X21000Y79350D01*
X21000Y90650D02*
X21000Y99350D01*
X21000Y110650D02*
X21000Y119350D01*
X21000Y130650D02*
X21000Y139350D01*
X21000Y150650D02*
X21000Y152810D01*
X21000Y168350D02*
X21000Y169650D01*
X21000Y185190D02*
X21000Y189500D01*
X24000Y14810D02*
X24000Y8768D01*
X24000Y30350D02*
X24000Y31650D01*
X24000Y47190D02*
X24000Y58224D01*
X24000Y71241D02*
X24000Y78974D01*
X24000Y91241D02*
X24000Y98974D01*
X24000Y111241D02*
X24000Y118822D01*
X24000Y131178D02*
X24000Y138974D01*
X24000Y151241D02*
X24000Y152810D01*
X24000Y168350D02*
X24000Y169650D01*
X24000Y185190D02*
X24000Y191232D01*
X27000Y14810D02*
X27000Y7199D01*
X27000Y30350D02*
X27000Y31650D01*
X27000Y47190D02*
X27000Y55224D01*
X27000Y71539D02*
X27000Y78675D01*
X27000Y91539D02*
X27000Y98675D01*
X27000Y111539D02*
X27000Y118568D01*
X27000Y131432D02*
X27000Y138675D01*
X27000Y151539D02*
X27000Y152810D01*
X27000Y168350D02*
X27000Y169650D01*
X27000Y185190D02*
X27000Y192801D01*
X30000Y14810D02*
X30000Y6396D01*
X30000Y30350D02*
X30000Y31650D01*
X30000Y47190D02*
X30000Y52224D01*
X30000Y59776D02*
X30000Y60011D01*
X30000Y70203D02*
X30000Y80011D01*
X30000Y90203D02*
X30000Y100011D01*
X30000Y110203D02*
X30000Y120011D01*
X30000Y139183D02*
X30000Y140011D01*
X30000Y150203D02*
X30000Y152810D01*
X30000Y168350D02*
X30000Y169650D01*
X30000Y185190D02*
X30000Y193604D01*
X33000Y14810D02*
X33000Y5592D01*
X33000Y47190D02*
X33000Y49224D01*
X33000Y56776D02*
X33000Y120656D01*
X33000Y142183D02*
X33000Y152810D01*
X33000Y168350D02*
X33000Y169650D01*
X33000Y185190D02*
X33000Y194408D01*
X36000Y14810D02*
X36000Y4912D01*
X36000Y53776D02*
X36000Y117656D01*
X36000Y145183D02*
X36000Y152810D01*
X36000Y168350D02*
X36000Y169650D01*
X36000Y185190D02*
X36000Y195088D01*
X39000Y14810D02*
X39000Y4716D01*
X39000Y54350D02*
X39000Y55650D01*
X39000Y61169D02*
X39000Y69350D01*
X39000Y80650D02*
X39000Y89350D01*
X39000Y100650D02*
X39000Y109350D01*
X39000Y148183D02*
X39000Y152810D01*
X39000Y168350D02*
X39000Y169650D01*
X39000Y185190D02*
X39000Y195284D01*
X42000Y14810D02*
X42000Y4650D01*
X42000Y54350D02*
X42000Y55650D01*
X42000Y61190D02*
X42000Y69350D01*
X42000Y80650D02*
X42000Y89350D01*
X42000Y100650D02*
X42000Y109350D01*
X42000Y140650D02*
X42000Y142217D01*
X42000Y151183D02*
X42000Y152810D01*
X42000Y168350D02*
X42000Y169650D01*
X42000Y185190D02*
X42000Y195350D01*
X45000Y14810D02*
X45000Y4650D01*
X45000Y54350D02*
X45000Y55650D01*
X45000Y61190D02*
X45000Y69350D01*
X45000Y80650D02*
X45000Y89350D01*
X45000Y100650D02*
X45000Y109350D01*
X45000Y140650D02*
X45000Y145217D01*
X45000Y168350D02*
X45000Y169650D01*
X45000Y185190D02*
X45000Y195350D01*
X48000Y15183D02*
X48000Y4650D01*
X48000Y54350D02*
X48000Y55650D01*
X48000Y61190D02*
X48000Y69350D01*
X48000Y80650D02*
X48000Y89350D01*
X48000Y100650D02*
X48000Y109350D01*
X48000Y140650D02*
X48000Y148217D01*
X48000Y168350D02*
X48000Y169650D01*
X48000Y184817D02*
X48000Y195350D01*
X51000Y21867D02*
X51000Y4650D01*
X51000Y54350D02*
X51000Y55650D01*
X51000Y61190D02*
X51000Y69350D01*
X51000Y80650D02*
X51000Y89350D01*
X51000Y100650D02*
X51000Y109350D01*
X51000Y140650D02*
X51000Y151130D01*
X51000Y157470D02*
X51000Y195350D01*
X54000Y21568D02*
X54000Y4650D01*
X54000Y54350D02*
X54000Y55650D01*
X54000Y61190D02*
X54000Y69350D01*
X54000Y80650D02*
X54000Y89350D01*
X54000Y100650D02*
X54000Y109350D01*
X54000Y140650D02*
X54000Y151130D01*
X54000Y157470D02*
X54000Y195350D01*
X57000Y15904D02*
X57000Y4650D01*
X57000Y54350D02*
X57000Y55650D01*
X57000Y61190D02*
X57000Y69350D01*
X57000Y80650D02*
X57000Y89350D01*
X57000Y100650D02*
X57000Y109350D01*
X57000Y141483D02*
X57000Y151130D01*
X57000Y157470D02*
X57000Y195350D01*
X60000Y14568D02*
X60000Y4650D01*
X60000Y54350D02*
X60000Y55650D01*
X60000Y61169D02*
X60000Y69350D01*
X60000Y80650D02*
X60000Y89350D01*
X60000Y100650D02*
X60000Y109350D01*
X60000Y144483D02*
X60000Y151130D01*
X60000Y157470D02*
X60000Y195350D01*
X63000Y14866D02*
X63000Y4650D01*
X63000Y51670D02*
X63000Y70363D01*
X63000Y85496D02*
X63000Y95004D01*
X63000Y103996D02*
X63000Y113504D01*
X63000Y147483D02*
X63000Y151130D01*
X63000Y157470D02*
X63000Y195350D01*
X66000Y16904D02*
X66000Y4650D01*
X66000Y51670D02*
X66000Y67363D01*
X66000Y150470D02*
X66000Y151130D01*
X66000Y157470D02*
X66000Y195350D01*
X69000Y25224D02*
X69000Y4650D01*
X69000Y52776D02*
X69000Y64363D01*
X69000Y74037D02*
X69000Y74777D01*
X69000Y150470D02*
X69000Y151130D01*
X69000Y157470D02*
X69000Y195350D01*
X72000Y28224D02*
X72000Y4650D01*
X72000Y55776D02*
X72000Y61363D01*
X72000Y71037D02*
X72000Y75850D01*
X72000Y123250D02*
X72000Y126004D01*
X72000Y150470D02*
X72000Y151130D01*
X72000Y157470D02*
X72000Y195350D01*
X75000Y15260D02*
X75000Y4650D01*
X75000Y24740D02*
X75000Y31224D01*
X75000Y58670D02*
X75000Y59780D01*
X75000Y68037D02*
X75000Y75850D01*
X75000Y123250D02*
X75000Y129616D01*
X75000Y150470D02*
X75000Y151130D01*
X75000Y157470D02*
X75000Y175260D01*
X75000Y184740D02*
X75000Y195350D01*
X78000Y8522D02*
X78000Y4650D01*
X78000Y31478D02*
X78000Y34224D01*
X78000Y58670D02*
X78000Y59780D01*
X78000Y66620D02*
X78000Y77104D01*
X78000Y121896D02*
X78000Y130450D01*
X78000Y150470D02*
X78000Y151130D01*
X78000Y157470D02*
X78000Y168522D01*
X78000Y191478D02*
X78000Y195350D01*
X81000Y5426D02*
X81000Y4650D01*
X81000Y34574D02*
X81000Y37224D01*
X81000Y58670D02*
X81000Y59780D01*
X81000Y68500D02*
X81000Y68500D01*
X81000Y71129D02*
X81000Y79002D01*
X81000Y114290D02*
X81000Y122239D01*
X81000Y131525D02*
X81000Y132475D01*
X81000Y150470D02*
X81000Y151130D01*
X81000Y157470D02*
X81000Y165426D01*
X81000Y194574D02*
X81000Y195350D01*
X84000Y40224D02*
X84000Y37276D01*
X84000Y58670D02*
X84000Y59780D01*
X84000Y68500D02*
X84000Y68500D01*
X84000Y103870D02*
X84000Y121560D01*
X84000Y131525D02*
X84000Y132475D01*
X84000Y150470D02*
X84000Y151130D01*
X84000Y157470D02*
X84000Y162724D01*
X87000Y41330D02*
X87000Y38639D01*
X87000Y58670D02*
X87000Y59780D01*
X87000Y68500D02*
X87000Y68500D01*
X87000Y103870D02*
X87000Y121560D01*
X87000Y150470D02*
X87000Y151130D01*
X87000Y157470D02*
X87000Y161361D01*
X90000Y41330D02*
X90000Y39614D01*
X90000Y58670D02*
X90000Y59780D01*
X90000Y68500D02*
X90000Y68500D01*
X90000Y103870D02*
X90000Y122100D01*
X90000Y150470D02*
X90000Y151130D01*
X90000Y157470D02*
X90000Y160386D01*
X93000Y41330D02*
X93000Y40520D01*
X93000Y58670D02*
X93000Y59780D01*
X93000Y103870D02*
X93000Y122100D01*
X93000Y150470D02*
X93000Y151130D01*
X93000Y157470D02*
X93000Y159480D01*
X96000Y41330D02*
X96000Y40205D01*
X96000Y58670D02*
X96000Y59780D01*
X96000Y68500D02*
X96000Y68500D01*
X96000Y101276D02*
X96000Y122100D01*
X96000Y150470D02*
X96000Y151130D01*
X96000Y157470D02*
X96000Y159795D01*
X99000Y41330D02*
X99000Y39890D01*
X99000Y58670D02*
X99000Y59780D01*
X99000Y98276D02*
X99000Y119117D01*
X99000Y147483D02*
X99000Y148517D01*
X99000Y157470D02*
X99000Y160110D01*
X102000Y41330D02*
X102000Y39282D01*
X102000Y58670D02*
X102000Y59780D01*
X102000Y97900D02*
X102000Y116117D01*
X102000Y154483D02*
X102000Y160718D01*
X105000Y40724D02*
X105000Y37550D01*
X105000Y58670D02*
X105000Y59780D01*
X105000Y97900D02*
X105000Y113117D01*
X105000Y122083D02*
X105000Y122100D01*
X105000Y151483D02*
X105000Y162450D01*
X108000Y37724D02*
X108000Y35818D01*
X108000Y58670D02*
X108000Y59780D01*
X108000Y97900D02*
X108000Y110117D01*
X108000Y119083D02*
X108000Y119817D01*
X108000Y148483D02*
X108000Y164182D01*
X111000Y7658D02*
X111000Y4650D01*
X111000Y32342D02*
X111000Y34724D01*
X111000Y58670D02*
X111000Y59780D01*
X111000Y76679D02*
X111000Y107117D01*
X111000Y116083D02*
X111000Y116817D01*
X111000Y125783D02*
X111000Y167658D01*
X111000Y192342D02*
X111000Y195350D01*
X114000Y12237D02*
X114000Y4650D01*
X114000Y27762D02*
X114000Y31724D01*
X114000Y58670D02*
X114000Y59780D01*
X114000Y72100D02*
X114000Y104117D01*
X114000Y113083D02*
X114000Y113817D01*
X114000Y122783D02*
X114000Y172238D01*
X114000Y187762D02*
X114000Y195350D01*
X117000Y28724D02*
X117000Y4650D01*
X117000Y56276D02*
X117000Y59780D01*
X117000Y70900D02*
X117000Y72100D01*
X117000Y76965D02*
X117000Y77817D01*
X117000Y110083D02*
X117000Y110817D01*
X117000Y119783D02*
X117000Y195350D01*
X120000Y25724D02*
X120000Y4650D01*
X120000Y53276D02*
X120000Y59780D01*
X120000Y66620D02*
X120000Y69610D01*
X120000Y70900D02*
X120000Y72100D01*
X120000Y73390D02*
X120000Y74817D01*
X120000Y107083D02*
X120000Y107817D01*
X120000Y116783D02*
X120000Y195350D01*
X123000Y18678D02*
X123000Y4650D01*
X123000Y54461D02*
X123000Y59663D01*
X123000Y66620D02*
X123000Y71817D01*
X123000Y104083D02*
X123000Y104817D01*
X123000Y113783D02*
X123000Y195350D01*
X126000Y15281D02*
X126000Y4650D01*
X126000Y55132D02*
X126000Y56663D01*
X126000Y66337D02*
X126000Y68817D01*
X126000Y77783D02*
X126000Y87017D01*
X126000Y110783D02*
X126000Y195350D01*
X129000Y14568D02*
X129000Y4650D01*
X129000Y54378D02*
X129000Y54780D01*
X129000Y74783D02*
X129000Y79752D01*
X129000Y110248D02*
X129000Y119752D01*
X129000Y130248D02*
X129000Y139183D01*
X129000Y144350D02*
X129000Y145650D01*
X129000Y150817D02*
X129000Y195350D01*
X132000Y15281D02*
X132000Y4650D01*
X132000Y46096D02*
X132000Y46619D01*
X132000Y50781D02*
X132000Y54780D01*
X132000Y71783D02*
X132000Y79350D01*
X132000Y90650D02*
X132000Y99350D01*
X132000Y110650D02*
X132000Y119350D01*
X132000Y130650D02*
X132000Y138810D01*
X132000Y144350D02*
X132000Y145650D01*
X132000Y151190D02*
X132000Y195350D01*
X135000Y18678D02*
X135000Y4650D01*
X135000Y48134D02*
X135000Y54780D01*
X135000Y70650D02*
X135000Y79350D01*
X135000Y90650D02*
X135000Y99350D01*
X135000Y110650D02*
X135000Y119350D01*
X135000Y130650D02*
X135000Y138810D01*
X135000Y144350D02*
X135000Y145650D01*
X135000Y151190D02*
X135000Y195350D01*
X138000Y21568D02*
X138000Y4650D01*
X138000Y48432D02*
X138000Y54780D01*
X138000Y70650D02*
X138000Y79350D01*
X138000Y90650D02*
X138000Y99350D01*
X138000Y110650D02*
X138000Y119350D01*
X138000Y130650D02*
X138000Y138810D01*
X138000Y144350D02*
X138000Y145650D01*
X138000Y151190D02*
X138000Y195350D01*
X141000Y15989D02*
X141000Y4650D01*
X141000Y47096D02*
X141000Y54780D01*
X141000Y70650D02*
X141000Y79350D01*
X141000Y90650D02*
X141000Y99350D01*
X141000Y110650D02*
X141000Y119350D01*
X141000Y130650D02*
X141000Y144350D01*
X141000Y145650D02*
X141000Y153989D01*
X141000Y168350D02*
X141000Y169650D01*
X141000Y184011D02*
X141000Y195350D01*
X144000Y14810D02*
X144000Y4650D01*
X144000Y47190D02*
X144000Y54780D01*
X144000Y70650D02*
X144000Y79350D01*
X144000Y90650D02*
X144000Y99350D01*
X144000Y110650D02*
X144000Y119350D01*
X144000Y130650D02*
X144000Y138810D01*
X144000Y144350D02*
X144000Y145650D01*
X144000Y151190D02*
X144000Y152810D01*
X144000Y168350D02*
X144000Y169650D01*
X144000Y185190D02*
X144000Y195350D01*
X147000Y14810D02*
X147000Y4650D01*
X147000Y47190D02*
X147000Y54780D01*
X147000Y70650D02*
X147000Y79350D01*
X147000Y90650D02*
X147000Y99350D01*
X147000Y110650D02*
X147000Y119350D01*
X147000Y130650D02*
X147000Y138810D01*
X147000Y144350D02*
X147000Y145650D01*
X147000Y151190D02*
X147000Y152810D01*
X147000Y168350D02*
X147000Y169650D01*
X147000Y185190D02*
X147000Y195350D01*
X150000Y14810D02*
X150000Y4650D01*
X150000Y47190D02*
X150000Y54780D01*
X150000Y70650D02*
X150000Y79350D01*
X150000Y90650D02*
X150000Y99350D01*
X150000Y110650D02*
X150000Y117163D01*
X150000Y130650D02*
X150000Y138810D01*
X150000Y144350D02*
X150000Y145650D01*
X150000Y151190D02*
X150000Y152810D01*
X150000Y168350D02*
X150000Y169650D01*
X150000Y185190D02*
X150000Y195350D01*
X153000Y14810D02*
X153000Y4847D01*
X153000Y47190D02*
X153000Y54780D01*
X153000Y69248D02*
X153000Y80752D01*
X153000Y89248D02*
X153000Y100752D01*
X153000Y109248D02*
X153000Y114163D01*
X153000Y129248D02*
X153000Y139989D01*
X153000Y144350D02*
X153000Y145650D01*
X153000Y150011D02*
X153000Y152810D01*
X153000Y168350D02*
X153000Y169650D01*
X153000Y185190D02*
X153000Y195153D01*
X156000Y14810D02*
X156000Y5324D01*
X156000Y47190D02*
X156000Y55763D01*
X156000Y120837D02*
X156000Y152810D01*
X156000Y168350D02*
X156000Y169650D01*
X156000Y185190D02*
X156000Y194676D01*
X159000Y14810D02*
X159000Y6128D01*
X159000Y30350D02*
X159000Y31650D01*
X159000Y47190D02*
X159000Y52678D01*
X159000Y57322D02*
X159000Y58763D01*
X159000Y117837D02*
X159000Y132678D01*
X159000Y137322D02*
X159000Y152810D01*
X159000Y168350D02*
X159000Y169650D01*
X159000Y185190D02*
X159000Y193872D01*
X162000Y14810D02*
X162000Y6931D01*
X162000Y30350D02*
X162000Y31650D01*
X162000Y47190D02*
X162000Y49281D01*
X162000Y60719D02*
X162000Y69281D01*
X162000Y120719D02*
X162000Y129281D01*
X162000Y140719D02*
X162000Y152810D01*
X162000Y168350D02*
X162000Y169650D01*
X162000Y185190D02*
X162000Y193069D01*
X165000Y14810D02*
X165000Y8191D01*
X165000Y30350D02*
X165000Y31650D01*
X165000Y47190D02*
X165000Y48568D01*
X165000Y61432D02*
X165000Y68568D01*
X165000Y121432D02*
X165000Y128568D01*
X165000Y141432D02*
X165000Y152810D01*
X165000Y168350D02*
X165000Y169650D01*
X165000Y185190D02*
X165000Y191809D01*
X168000Y14810D02*
X168000Y9923D01*
X168000Y30350D02*
X168000Y31650D01*
X168000Y47190D02*
X168000Y49281D01*
X168000Y60719D02*
X168000Y69281D01*
X168000Y120719D02*
X168000Y129281D01*
X168000Y140719D02*
X168000Y152810D01*
X168000Y168350D02*
X168000Y169650D01*
X168000Y185190D02*
X168000Y190077D01*
X171000Y14810D02*
X171000Y11655D01*
X171000Y30350D02*
X171000Y31650D01*
X171000Y47190D02*
X171000Y49350D01*
X171000Y60650D02*
X171000Y69350D01*
X171000Y120650D02*
X171000Y129350D01*
X171000Y140650D02*
X171000Y152810D01*
X171000Y168350D02*
X171000Y169650D01*
X171000Y185190D02*
X171000Y188345D01*
X174000Y15183D02*
X174000Y14435D01*
X174000Y30350D02*
X174000Y31650D01*
X174000Y46817D02*
X174000Y49350D01*
X174000Y60650D02*
X174000Y69350D01*
X174000Y120650D02*
X174000Y129350D01*
X174000Y140650D02*
X174000Y153183D01*
X174000Y168350D02*
X174000Y169650D01*
X174000Y184817D02*
X174000Y185565D01*
X177000Y49350D02*
X177000Y17435D01*
X177000Y60650D02*
X177000Y69350D01*
X177000Y120650D02*
X177000Y129350D01*
X177000Y140650D02*
X177000Y182565D01*
X180000Y49350D02*
X180000Y21866D01*
X180000Y60650D02*
X180000Y69350D01*
X180000Y120650D02*
X180000Y129350D01*
X180000Y140650D02*
X180000Y178134D01*
X183000Y49350D02*
X183000Y27744D01*
X183000Y60650D02*
X183000Y69350D01*
X183000Y120650D02*
X183000Y129350D01*
X183000Y140650D02*
X183000Y172256D01*
D18*
X95000Y110000D03*
X106000Y102000D03*
X85000Y120000D03*
X12500Y25000D03*
X12500Y33500D03*
X12500Y42000D03*
X177500Y33500D03*
X177500Y42000D03*
X177500Y25000D03*
X177500Y170000D03*
X177500Y160000D03*
X155000Y190000D03*
X12500Y160000D03*
X31500Y190000D03*
X12500Y170000D03*
X76500Y72500D03*
X53700Y145900D03*
X112900Y80800D03*
X48500Y64500D03*
X57500Y64500D03*
X140500Y135500D03*
X66000Y56000D03*
X124000Y145000D03*
X132000Y135500D03*
D19*
X75525Y135600D02*
X66786Y125079D01*
X66786Y118100D01*
X66786Y99600D01*
X66886Y99500D01*
X66886Y81000D01*
X66986Y80900D01*
X66986Y77600D01*
X64386Y75000D01*
X49500Y75000D01*
X50500Y74000D02*
X64200Y74000D01*
X50500Y74000D02*
X49500Y75000D01*
X64200Y74000D02*
X75000Y63200D01*
X104775Y71200D02*
X105075Y71500D01*
X104750Y71825D02*
X104750Y88000D01*
X104750Y71825D02*
X105075Y71500D01*
X129300Y58200D02*
X153600Y58200D01*
X156600Y61200D01*
X156600Y115400D01*
X146700Y125300D01*
X140800Y125300D01*
X140500Y125000D01*
X105000Y63200D02*
X75000Y63200D01*
X105000Y63200D02*
X124300Y63200D01*
X129300Y58200D01*
X105075Y63275D02*
X105075Y71500D01*
X105075Y63275D02*
X105000Y63200D01*
D13*
X49500Y115000D02*
X43139Y115000D01*
X33139Y125000D01*
X33139Y137839D01*
X49600Y154300D01*
X97700Y154300D01*
X105000Y147000D01*
X105000Y132250D01*
X104750Y132000D01*
X104750Y127550D01*
X126700Y105600D02*
X126700Y90800D01*
X132500Y85000D02*
X140500Y85000D01*
X132500Y85000D02*
X126700Y90800D01*
X126700Y105600D02*
X104750Y127550D01*
X94700Y147300D02*
X67300Y147300D01*
X55000Y135000D02*
X49500Y135000D01*
X55000Y135000D02*
X67300Y147300D01*
X98250Y143750D02*
X98250Y132000D01*
X98250Y143750D02*
X94700Y147300D01*
X98250Y132000D02*
X98250Y124350D01*
X120000Y102600D02*
X120000Y79300D01*
X134300Y65000D01*
X140500Y65000D01*
X120000Y102600D02*
X98250Y124350D01*
D16*
X91750Y132000D02*
X91750Y140980D01*
X89000Y143730D01*
X56775Y125000D02*
X48000Y125000D01*
D18*
X48000Y125000D03*
D16*
X66275Y135600D02*
X74405Y143730D01*
X89000Y143730D01*
X66275Y134500D02*
X56775Y125000D01*
X66275Y134500D02*
X66275Y135600D01*
D19*
X25893Y125000D02*
X14500Y125000D01*
D18*
X25893Y125000D03*
X165000Y75000D03*
D16*
X175500Y75000D01*
D18*
X53000Y28000D03*
X137000Y28000D03*
D16*
X53032Y27968D02*
X53000Y28000D01*
X53032Y27968D02*
X63206Y27968D01*
X82238Y47000D01*
X107500Y47000D01*
X126500Y28000D02*
X137000Y28000D01*
X126500Y28000D02*
X107500Y47000D01*
D19*
X26000Y105107D02*
X14509Y105009D01*
X14500Y105000D01*
D18*
X26000Y105107D03*
X165000Y95000D03*
D16*
X175500Y95000D01*
D18*
X61000Y35000D03*
X129000Y35000D03*
D16*
X65320Y35000D02*
X61000Y35000D01*
X65320Y35000D02*
X80320Y50000D01*
X109548Y50000D01*
X124548Y35000D02*
X129000Y35000D01*
X124548Y35000D02*
X109548Y50000D01*
D19*
X26000Y85107D02*
X14509Y85009D01*
X14500Y85000D01*
D18*
X26000Y85107D03*
X165000Y115000D03*
D16*
X175500Y115000D01*
D18*
X53000Y42000D03*
X137000Y42000D03*
D16*
X67000Y42000D02*
X53000Y42000D01*
X67000Y42000D02*
X78000Y53000D01*
X111500Y53000D01*
X122500Y42000D02*
X137000Y42000D01*
X122500Y42000D02*
X111500Y53000D01*
D19*
X14509Y65009D02*
X14500Y65000D01*
X14509Y65009D02*
X26000Y65107D01*
D18*
X26000Y65107D03*
X165000Y135000D03*
D16*
X175500Y135000D01*
X21000Y65000D02*
X14500Y65000D01*
D18*
X125900Y48700D03*
D16*
X37000Y49000D02*
X21000Y65000D01*
X37000Y49000D02*
X69000Y49000D01*
X76000Y56000D01*
X113500Y56000D01*
X120800Y48700D02*
X125900Y48700D01*
X120800Y48700D02*
X113500Y56000D01*
D19*
X26000Y145107D02*
X14500Y145000D01*
D18*
X26000Y145107D03*
X165000Y55000D03*
D16*
X175500Y55000D01*
D18*
X61000Y21000D03*
X129000Y21000D03*
D16*
X84000Y44000D02*
X61000Y21000D01*
X84000Y44000D02*
X105500Y44000D01*
X128500Y21000D02*
X129000Y21000D01*
X128500Y21000D02*
X105500Y44000D01*
M02*
