G04 EAGLE Gerber RS-274X export*
G75*
%MOMM*%
%FSLAX34Y34*%
%LPD*%
%INSolder stop mask*%
%IPPOS*%
%AMOC8*
5,1,8,0,0,1.08239X$1,22.5*%
G01*
%ADD10C,2.303200*%
%ADD11R,2.203200X0.803200*%
%ADD12R,3.103200X2.803200*%
%ADD13R,0.653200X1.653200*%
%ADD14C,0.450047*%
%ADD15C,0.330503*%
%ADD16R,0.403200X0.503200*%


D10*
X95000Y180000D03*
X95000Y20000D03*
D11*
X14500Y145000D03*
X49500Y135000D03*
X14500Y125000D03*
X49500Y115000D03*
X14500Y105000D03*
X49500Y95000D03*
X14500Y85000D03*
X49500Y75000D03*
X14500Y65000D03*
X49500Y55000D03*
D12*
X32000Y169000D03*
X32000Y31000D03*
D13*
X104750Y132000D03*
X98250Y132000D03*
X91750Y132000D03*
X85250Y132000D03*
X85250Y88000D03*
X91750Y88000D03*
X98250Y88000D03*
X104750Y88000D03*
D14*
X67541Y134334D02*
X65009Y134334D01*
X65009Y136866D01*
X67541Y136866D01*
X67541Y134334D01*
X74259Y134334D02*
X76791Y134334D01*
X74259Y134334D02*
X74259Y136866D01*
X76791Y136866D01*
X76791Y134334D01*
X103809Y70234D02*
X106341Y70234D01*
X103809Y70234D02*
X103809Y72766D01*
X106341Y72766D01*
X106341Y70234D01*
X113059Y70234D02*
X115591Y70234D01*
X113059Y70234D02*
X113059Y72766D01*
X115591Y72766D01*
X115591Y70234D01*
D11*
X175500Y55000D03*
X140500Y65000D03*
X175500Y75000D03*
X140500Y85000D03*
X175500Y95000D03*
X140500Y105000D03*
X175500Y115000D03*
X140500Y125000D03*
X175500Y135000D03*
X140500Y145000D03*
D12*
X158000Y31000D03*
X158000Y169000D03*
D15*
X75278Y119964D02*
X71550Y119964D01*
X75278Y119964D02*
X75278Y116236D01*
X71550Y116236D01*
X71550Y119964D01*
X71550Y119376D02*
X75278Y119376D01*
X68650Y119964D02*
X64922Y119964D01*
X68650Y119964D02*
X68650Y116236D01*
X64922Y116236D01*
X64922Y119964D01*
X64922Y119376D02*
X68650Y119376D01*
X71650Y101364D02*
X75378Y101364D01*
X75378Y97636D01*
X71650Y97636D01*
X71650Y101364D01*
X71650Y100776D02*
X75378Y100776D01*
X68750Y101364D02*
X65022Y101364D01*
X68750Y101364D02*
X68750Y97636D01*
X65022Y97636D01*
X65022Y101364D01*
X65022Y100776D02*
X68750Y100776D01*
X71650Y82864D02*
X75378Y82864D01*
X75378Y79136D01*
X71650Y79136D01*
X71650Y82864D01*
X71650Y82276D02*
X75378Y82276D01*
X68750Y82864D02*
X65022Y82864D01*
X68750Y82864D02*
X68750Y79136D01*
X65022Y79136D01*
X65022Y82864D01*
X65022Y82276D02*
X68750Y82276D01*
D16*
X85000Y68500D03*
X89000Y68500D03*
X93000Y68500D03*
X97000Y68500D03*
X97000Y74500D03*
X93000Y74500D03*
X89000Y74500D03*
X85000Y74500D03*
M02*
