%MOIN*%
%OFA0B0*%
%FSLAX34Y34*%
%IPPOS*%
%LPD*%
%AMOC8*
5,1,8,0,0,$1,22.5*%
%AMOC80*
5,1,8,0,0,$1,22.5*%
%AMOC81*
5,1,8,0,0,$1,112.5*%
%AMOC80*
5,1,8,0,0,$1,-67.5*%
%AMOC81*
5,1,8,0,0,$1,112.5*%
%AMOC80*
5,1,8,0,0,$1,-67.5*%
%ADD10C,0.047370078740157487*%
%ADD21C,0.047370078740157487*%
%ADD22C,0.090677165354330708*%
%ADD23C,0.017718385826771654*%
%ADD24R,0.090677165354330708X0.090677165354330708*%
%ADD25R,0.047370078740157487X0.051307086614173228*%
%ADD26R,0.047370078740157487X0.063118110236220479*%
%ADD27R,0.0611496062992126X0.023748031496062992*%
%ADD28R,0.050519685039370078X0.049338582677165357*%
%ADD29R,0.043433070866141732X0.055244094488188983*%
%ADD30R,0.053000000000000005X0.048000000000000008*%
%ADD31R,0.12204724409448819X0.062992125984251982*%
%ADD32R,0.059181102362204731X0.019811023622047244*%
%ADD33R,0.1064251968503937X0.086740157480314953*%
%ADD34C,0.090677165354330708*%
%ADD35C,0.017718385826771654*%
%ADD36R,0.090677165354330708X0.090677165354330708*%
%ADD37R,0.047370078740157487X0.051307086614173228*%
%ADD38R,0.047370078740157487X0.063118110236220479*%
%ADD39R,0.0611496062992126X0.023748031496062992*%
%ADD40R,0.050519685039370078X0.049338582677165357*%
%ADD41R,0.043433070866141732X0.055244094488188983*%
%ADD42R,0.053000000000000005X0.048000000000000008*%
%ADD43R,0.12204724409448819X0.062992125984251982*%
%ADD44R,0.059181102362204731X0.019811023622047244*%
%ADD45R,0.1064251968503937X0.086740157480314953*%
%ADD46C,0.090677165354330708*%
%ADD47C,0.017718385826771654*%
%ADD48R,0.090677165354330708X0.090677165354330708*%
%ADD49R,0.047370078740157487X0.051307086614173228*%
%ADD50R,0.047370078740157487X0.063118110236220479*%
%ADD51R,0.0611496062992126X0.023748031496062992*%
%ADD52R,0.050519685039370078X0.049338582677165357*%
%ADD53R,0.043433070866141732X0.055244094488188983*%
%ADD54R,0.053000000000000005X0.048000000000000008*%
%ADD55R,0.12204724409448819X0.062992125984251982*%
%ADD56R,0.059181102362204731X0.019811023622047244*%
%ADD57R,0.1064251968503937X0.086740157480314953*%
%ADD58C,0.090677165354330708*%
%ADD59C,0.017718385826771654*%
%ADD60R,0.090677165354330708X0.090677165354330708*%
%ADD61R,0.047370078740157487X0.051307086614173228*%
%ADD62R,0.047370078740157487X0.063118110236220479*%
%ADD63R,0.0611496062992126X0.023748031496062992*%
%ADD64R,0.050519685039370078X0.049338582677165357*%
%ADD65R,0.043433070866141732X0.055244094488188983*%
%ADD66R,0.053000000000000005X0.048000000000000008*%
%ADD67R,0.12204724409448819X0.062992125984251982*%
%ADD68R,0.059181102362204731X0.019811023622047244*%
%ADD69R,0.1064251968503937X0.086740157480314953*%
G75*
G01*
G36*
X0019769Y0005607D02*
X0019769Y0005607D01*
X0019770Y0005607D01*
X0019774Y0005608D01*
X0019854Y0005629D01*
X0019855Y0005629D01*
X0019859Y0005631D01*
X0019933Y0005666D01*
X0019934Y0005666D01*
X0019938Y0005668D01*
X0020005Y0005715D01*
X0020006Y0005716D01*
X0020009Y0005719D01*
X0020068Y0005777D01*
X0020068Y0005778D01*
X0020071Y0005781D01*
X0020118Y0005848D01*
X0020119Y0005850D01*
X0020121Y0005853D01*
X0020156Y0005928D01*
X0020156Y0005929D01*
X0020157Y0005933D01*
X0020179Y0006012D01*
X0020179Y0006013D01*
X0020180Y0006017D01*
X0020187Y0006099D01*
X0020187Y0006100D01*
X0020187Y0006104D01*
X0020180Y0006187D01*
X0020179Y0006188D01*
X0020179Y0006192D01*
X0020157Y0006271D01*
X0020157Y0006272D01*
X0020156Y0006276D01*
X0020121Y0006351D01*
X0020120Y0006352D01*
X0020118Y0006355D01*
X0020071Y0006423D01*
X0020070Y0006424D01*
X0020068Y0006427D01*
X0020009Y0006485D01*
X0020008Y0006486D01*
X0020005Y0006488D01*
X0019938Y0006536D01*
X0019937Y0006536D01*
X0019933Y0006538D01*
X0019859Y0006573D01*
X0019858Y0006573D01*
X0019854Y0006575D01*
X0019774Y0006596D01*
X0019773Y0006596D01*
X0019769Y0006597D01*
X0019687Y0006604D01*
X0019686Y0006604D01*
X0019682Y0006604D01*
X0019600Y0006597D01*
X0019599Y0006597D01*
X0019595Y0006596D01*
X0019515Y0006575D01*
X0019514Y0006574D01*
X0019510Y0006573D01*
X0019436Y0006538D01*
X0019435Y0006537D01*
X0019431Y0006536D01*
X0019364Y0006488D01*
X0019363Y0006487D01*
X0019360Y0006485D01*
X0019301Y0006427D01*
X0019301Y0006426D01*
X0019298Y0006423D01*
X0019251Y0006355D01*
X0019250Y0006354D01*
X0019248Y0006351D01*
X0019213Y0006276D01*
X0019213Y0006275D01*
X0019212Y0006271D01*
X0019190Y0006192D01*
X0019190Y0006190D01*
X0019189Y0006187D01*
X0019182Y0006104D01*
X0019182Y0006103D01*
X0019182Y0006099D01*
X0019189Y0006017D01*
X0019190Y0006016D01*
X0019190Y0006012D01*
X0019212Y0005933D01*
X0019212Y0005931D01*
X0019213Y0005928D01*
X0019248Y0005853D01*
X0019249Y0005852D01*
X0019251Y0005848D01*
X0019298Y0005781D01*
X0019299Y0005780D01*
X0019301Y0005777D01*
X0019360Y0005719D01*
X0019361Y0005718D01*
X0019364Y0005715D01*
X0019431Y0005668D01*
X0019432Y0005668D01*
X0019436Y0005666D01*
X0019510Y0005631D01*
X0019511Y0005630D01*
X0019515Y0005629D01*
X0019595Y0005608D01*
X0019596Y0005608D01*
X0019600Y0005607D01*
X0019682Y0005600D01*
X0019683Y0005600D01*
X0019687Y0005600D01*
X0019769Y0005607D01*
G37*
G36*
X0038470Y0005607D02*
X0038470Y0005607D01*
X0038471Y0005607D01*
X0038475Y0005608D01*
X0038555Y0005629D01*
X0038556Y0005629D01*
X0038560Y0005631D01*
X0038634Y0005666D01*
X0038635Y0005666D01*
X0038639Y0005668D01*
X0038706Y0005715D01*
X0038707Y0005716D01*
X0038710Y0005719D01*
X0038768Y0005777D01*
X0038769Y0005778D01*
X0038772Y0005781D01*
X0038819Y0005848D01*
X0038820Y0005850D01*
X0038822Y0005853D01*
X0038856Y0005928D01*
X0038857Y0005929D01*
X0038858Y0005933D01*
X0038880Y0006012D01*
X0038880Y0006013D01*
X0038880Y0006017D01*
X0038888Y0006099D01*
X0038888Y0006100D01*
X0038888Y0006104D01*
X0038880Y0006187D01*
X0038880Y0006188D01*
X0038880Y0006192D01*
X0038858Y0006271D01*
X0038858Y0006272D01*
X0038856Y0006276D01*
X0038822Y0006351D01*
X0038821Y0006352D01*
X0038819Y0006355D01*
X0038772Y0006423D01*
X0038771Y0006424D01*
X0038768Y0006427D01*
X0038710Y0006485D01*
X0038709Y0006486D01*
X0038706Y0006488D01*
X0038639Y0006536D01*
X0038638Y0006536D01*
X0038634Y0006538D01*
X0038560Y0006573D01*
X0038558Y0006573D01*
X0038555Y0006575D01*
X0038475Y0006596D01*
X0038474Y0006596D01*
X0038470Y0006597D01*
X0038388Y0006604D01*
X0038387Y0006604D01*
X0038383Y0006604D01*
X0038301Y0006597D01*
X0038300Y0006597D01*
X0038296Y0006596D01*
X0038216Y0006575D01*
X0038215Y0006574D01*
X0038211Y0006573D01*
X0038136Y0006538D01*
X0038135Y0006537D01*
X0038132Y0006536D01*
X0038064Y0006488D01*
X0038064Y0006487D01*
X0038060Y0006485D01*
X0038002Y0006427D01*
X0038002Y0006426D01*
X0037999Y0006423D01*
X0037952Y0006355D01*
X0037951Y0006354D01*
X0037949Y0006351D01*
X0037914Y0006276D01*
X0037914Y0006275D01*
X0037912Y0006271D01*
X0037891Y0006192D01*
X0037891Y0006190D01*
X0037890Y0006187D01*
X0037883Y0006104D01*
X0037883Y0006103D01*
X0037883Y0006099D01*
X0037890Y0006017D01*
X0037891Y0006016D01*
X0037891Y0006012D01*
X0037912Y0005933D01*
X0037913Y0005931D01*
X0037914Y0005928D01*
X0037949Y0005853D01*
X0037950Y0005852D01*
X0037952Y0005848D01*
X0037999Y0005781D01*
X0038000Y0005780D01*
X0038002Y0005777D01*
X0038060Y0005719D01*
X0038061Y0005718D01*
X0038064Y0005715D01*
X0038132Y0005668D01*
X0038133Y0005668D01*
X0038136Y0005666D01*
X0038211Y0005631D01*
X0038212Y0005630D01*
X0038216Y0005629D01*
X0038296Y0005608D01*
X0038297Y0005608D01*
X0038301Y0005607D01*
X0038383Y0005600D01*
X0038384Y0005600D01*
X0038388Y0005600D01*
X0038470Y0005607D01*
G37*
G36*
X0001068Y0005607D02*
X0001068Y0005607D01*
X0001070Y0005607D01*
X0001074Y0005608D01*
X0001153Y0005629D01*
X0001154Y0005629D01*
X0001158Y0005631D01*
X0001233Y0005666D01*
X0001234Y0005666D01*
X0001237Y0005668D01*
X0001305Y0005715D01*
X0001305Y0005716D01*
X0001309Y0005719D01*
X0001367Y0005777D01*
X0001368Y0005778D01*
X0001370Y0005781D01*
X0001417Y0005848D01*
X0001418Y0005850D01*
X0001420Y0005853D01*
X0001455Y0005928D01*
X0001455Y0005929D01*
X0001457Y0005933D01*
X0001478Y0006012D01*
X0001478Y0006013D01*
X0001479Y0006017D01*
X0001486Y0006099D01*
X0001486Y0006100D01*
X0001486Y0006104D01*
X0001479Y0006187D01*
X0001479Y0006188D01*
X0001478Y0006192D01*
X0001457Y0006271D01*
X0001456Y0006272D01*
X0001455Y0006276D01*
X0001420Y0006351D01*
X0001419Y0006352D01*
X0001417Y0006355D01*
X0001370Y0006423D01*
X0001369Y0006424D01*
X0001367Y0006427D01*
X0001309Y0006485D01*
X0001308Y0006486D01*
X0001305Y0006488D01*
X0001237Y0006536D01*
X0001236Y0006536D01*
X0001233Y0006538D01*
X0001158Y0006573D01*
X0001157Y0006573D01*
X0001153Y0006575D01*
X0001074Y0006596D01*
X0001072Y0006596D01*
X0001068Y0006597D01*
X0000986Y0006604D01*
X0000985Y0006604D01*
X0000981Y0006604D01*
X0000899Y0006597D01*
X0000898Y0006597D01*
X0000894Y0006596D01*
X0000814Y0006575D01*
X0000813Y0006574D01*
X0000810Y0006573D01*
X0000735Y0006538D01*
X0000734Y0006537D01*
X0000730Y0006536D01*
X0000663Y0006488D01*
X0000662Y0006487D01*
X0000659Y0006485D01*
X0000601Y0006427D01*
X0000600Y0006426D01*
X0000597Y0006423D01*
X0000550Y0006355D01*
X0000550Y0006354D01*
X0000547Y0006351D01*
X0000513Y0006276D01*
X0000512Y0006275D01*
X0000511Y0006271D01*
X0000490Y0006192D01*
X0000489Y0006190D01*
X0000489Y0006187D01*
X0000481Y0006104D01*
X0000482Y0006103D01*
X0000481Y0006099D01*
X0000489Y0006017D01*
X0000489Y0006016D01*
X0000490Y0006012D01*
X0000511Y0005933D01*
X0000511Y0005931D01*
X0000513Y0005928D01*
X0000547Y0005853D01*
X0000548Y0005852D01*
X0000550Y0005848D01*
X0000597Y0005781D01*
X0000598Y0005780D01*
X0000601Y0005777D01*
X0000659Y0005719D01*
X0000660Y0005718D01*
X0000663Y0005715D01*
X0000730Y0005668D01*
X0000731Y0005668D01*
X0000735Y0005666D01*
X0000810Y0005631D01*
X0000811Y0005630D01*
X0000814Y0005629D01*
X0000894Y0005608D01*
X0000895Y0005608D01*
X0000899Y0005607D01*
X0000981Y0005600D01*
X0000982Y0005600D01*
X0000986Y0005600D01*
X0001068Y0005607D01*
G37*
D10*
X0000984Y0006102D03*
X0019685Y0006102D03*
X0038385Y0006102D03*
G04 next file*
G04 EAGLE Gerber RS-274X export*
G75*
G01*
G36*
X0019769Y0037890D02*
X0019769Y0037890D01*
X0019770Y0037891D01*
X0019774Y0037891D01*
X0019854Y0037912D01*
X0019855Y0037913D01*
X0019859Y0037914D01*
X0019933Y0037949D01*
X0019934Y0037950D01*
X0019938Y0037952D01*
X0020005Y0037999D01*
X0020006Y0038000D01*
X0020009Y0038002D01*
X0020068Y0038060D01*
X0020068Y0038061D01*
X0020071Y0038064D01*
X0020118Y0038132D01*
X0020119Y0038133D01*
X0020121Y0038136D01*
X0020156Y0038211D01*
X0020156Y0038212D01*
X0020157Y0038216D01*
X0020179Y0038296D01*
X0020179Y0038297D01*
X0020180Y0038301D01*
X0020187Y0038383D01*
X0020187Y0038384D01*
X0020187Y0038388D01*
X0020180Y0038470D01*
X0020179Y0038471D01*
X0020179Y0038475D01*
X0020157Y0038555D01*
X0020157Y0038556D01*
X0020156Y0038560D01*
X0020121Y0038634D01*
X0020120Y0038635D01*
X0020118Y0038639D01*
X0020071Y0038706D01*
X0020070Y0038707D01*
X0020068Y0038710D01*
X0020009Y0038768D01*
X0020008Y0038769D01*
X0020005Y0038772D01*
X0019938Y0038819D01*
X0019937Y0038820D01*
X0019933Y0038822D01*
X0019859Y0038856D01*
X0019858Y0038857D01*
X0019854Y0038858D01*
X0019774Y0038880D01*
X0019773Y0038880D01*
X0019769Y0038880D01*
X0019687Y0038888D01*
X0019686Y0038888D01*
X0019682Y0038888D01*
X0019600Y0038880D01*
X0019599Y0038880D01*
X0019595Y0038880D01*
X0019515Y0038858D01*
X0019514Y0038858D01*
X0019510Y0038856D01*
X0019436Y0038822D01*
X0019435Y0038821D01*
X0019431Y0038819D01*
X0019364Y0038772D01*
X0019363Y0038771D01*
X0019360Y0038768D01*
X0019301Y0038710D01*
X0019301Y0038709D01*
X0019298Y0038706D01*
X0019251Y0038639D01*
X0019250Y0038638D01*
X0019248Y0038634D01*
X0019213Y0038560D01*
X0019213Y0038558D01*
X0019212Y0038555D01*
X0019190Y0038475D01*
X0019190Y0038474D01*
X0019189Y0038470D01*
X0019182Y0038388D01*
X0019182Y0038387D01*
X0019182Y0038383D01*
X0019189Y0038301D01*
X0019190Y0038300D01*
X0019190Y0038296D01*
X0019212Y0038216D01*
X0019212Y0038215D01*
X0019213Y0038211D01*
X0019248Y0038136D01*
X0019249Y0038135D01*
X0019251Y0038132D01*
X0019298Y0038064D01*
X0019299Y0038064D01*
X0019301Y0038060D01*
X0019360Y0038002D01*
X0019361Y0038002D01*
X0019364Y0037999D01*
X0019431Y0037952D01*
X0019432Y0037951D01*
X0019436Y0037949D01*
X0019510Y0037914D01*
X0019511Y0037914D01*
X0019515Y0037912D01*
X0019595Y0037891D01*
X0019596Y0037891D01*
X0019600Y0037890D01*
X0019682Y0037883D01*
X0019683Y0037883D01*
X0019687Y0037883D01*
X0019769Y0037890D01*
G37*
G36*
X0038470Y0037890D02*
X0038470Y0037890D01*
X0038471Y0037891D01*
X0038475Y0037891D01*
X0038555Y0037912D01*
X0038556Y0037913D01*
X0038560Y0037914D01*
X0038634Y0037949D01*
X0038635Y0037950D01*
X0038639Y0037952D01*
X0038706Y0037999D01*
X0038707Y0038000D01*
X0038710Y0038002D01*
X0038768Y0038060D01*
X0038769Y0038061D01*
X0038772Y0038064D01*
X0038819Y0038132D01*
X0038820Y0038133D01*
X0038822Y0038136D01*
X0038856Y0038211D01*
X0038857Y0038212D01*
X0038858Y0038216D01*
X0038880Y0038296D01*
X0038880Y0038297D01*
X0038880Y0038301D01*
X0038888Y0038383D01*
X0038888Y0038384D01*
X0038888Y0038388D01*
X0038880Y0038470D01*
X0038880Y0038471D01*
X0038880Y0038475D01*
X0038858Y0038555D01*
X0038858Y0038556D01*
X0038856Y0038560D01*
X0038822Y0038634D01*
X0038821Y0038635D01*
X0038819Y0038639D01*
X0038772Y0038706D01*
X0038771Y0038707D01*
X0038768Y0038710D01*
X0038710Y0038768D01*
X0038709Y0038769D01*
X0038706Y0038772D01*
X0038639Y0038819D01*
X0038638Y0038820D01*
X0038634Y0038822D01*
X0038560Y0038856D01*
X0038558Y0038857D01*
X0038555Y0038858D01*
X0038475Y0038880D01*
X0038474Y0038880D01*
X0038470Y0038880D01*
X0038388Y0038888D01*
X0038387Y0038888D01*
X0038383Y0038888D01*
X0038301Y0038880D01*
X0038300Y0038880D01*
X0038296Y0038880D01*
X0038216Y0038858D01*
X0038215Y0038858D01*
X0038211Y0038856D01*
X0038136Y0038822D01*
X0038135Y0038821D01*
X0038132Y0038819D01*
X0038064Y0038772D01*
X0038064Y0038771D01*
X0038060Y0038768D01*
X0038002Y0038710D01*
X0038002Y0038709D01*
X0037999Y0038706D01*
X0037952Y0038639D01*
X0037951Y0038638D01*
X0037949Y0038634D01*
X0037914Y0038560D01*
X0037914Y0038558D01*
X0037912Y0038555D01*
X0037891Y0038475D01*
X0037891Y0038474D01*
X0037890Y0038470D01*
X0037883Y0038388D01*
X0037883Y0038387D01*
X0037883Y0038383D01*
X0037890Y0038301D01*
X0037891Y0038300D01*
X0037891Y0038296D01*
X0037912Y0038216D01*
X0037913Y0038215D01*
X0037914Y0038211D01*
X0037949Y0038136D01*
X0037950Y0038135D01*
X0037952Y0038132D01*
X0037999Y0038064D01*
X0038000Y0038064D01*
X0038002Y0038060D01*
X0038060Y0038002D01*
X0038061Y0038002D01*
X0038064Y0037999D01*
X0038132Y0037952D01*
X0038133Y0037951D01*
X0038136Y0037949D01*
X0038211Y0037914D01*
X0038212Y0037914D01*
X0038216Y0037912D01*
X0038296Y0037891D01*
X0038297Y0037891D01*
X0038301Y0037890D01*
X0038383Y0037883D01*
X0038384Y0037883D01*
X0038388Y0037883D01*
X0038470Y0037890D01*
G37*
G36*
X0001068Y0037890D02*
X0001068Y0037890D01*
X0001070Y0037891D01*
X0001074Y0037891D01*
X0001153Y0037912D01*
X0001154Y0037913D01*
X0001158Y0037914D01*
X0001233Y0037949D01*
X0001234Y0037950D01*
X0001237Y0037952D01*
X0001305Y0037999D01*
X0001305Y0038000D01*
X0001309Y0038002D01*
X0001367Y0038060D01*
X0001368Y0038061D01*
X0001370Y0038064D01*
X0001417Y0038132D01*
X0001418Y0038133D01*
X0001420Y0038136D01*
X0001455Y0038211D01*
X0001455Y0038212D01*
X0001457Y0038216D01*
X0001478Y0038296D01*
X0001478Y0038297D01*
X0001479Y0038301D01*
X0001486Y0038383D01*
X0001486Y0038384D01*
X0001486Y0038388D01*
X0001479Y0038470D01*
X0001479Y0038471D01*
X0001478Y0038475D01*
X0001457Y0038555D01*
X0001456Y0038556D01*
X0001455Y0038560D01*
X0001420Y0038634D01*
X0001419Y0038635D01*
X0001417Y0038639D01*
X0001370Y0038706D01*
X0001369Y0038707D01*
X0001367Y0038710D01*
X0001309Y0038768D01*
X0001308Y0038769D01*
X0001305Y0038772D01*
X0001237Y0038819D01*
X0001236Y0038820D01*
X0001233Y0038822D01*
X0001158Y0038856D01*
X0001157Y0038857D01*
X0001153Y0038858D01*
X0001074Y0038880D01*
X0001072Y0038880D01*
X0001068Y0038880D01*
X0000986Y0038888D01*
X0000985Y0038888D01*
X0000981Y0038888D01*
X0000899Y0038880D01*
X0000898Y0038880D01*
X0000894Y0038880D01*
X0000814Y0038858D01*
X0000813Y0038858D01*
X0000810Y0038856D01*
X0000735Y0038822D01*
X0000734Y0038821D01*
X0000730Y0038819D01*
X0000663Y0038772D01*
X0000662Y0038771D01*
X0000659Y0038768D01*
X0000601Y0038710D01*
X0000600Y0038709D01*
X0000597Y0038706D01*
X0000550Y0038639D01*
X0000550Y0038638D01*
X0000547Y0038634D01*
X0000513Y0038560D01*
X0000512Y0038558D01*
X0000511Y0038555D01*
X0000490Y0038475D01*
X0000489Y0038474D01*
X0000489Y0038470D01*
X0000481Y0038388D01*
X0000482Y0038387D01*
X0000481Y0038383D01*
X0000489Y0038301D01*
X0000489Y0038300D01*
X0000490Y0038296D01*
X0000511Y0038216D01*
X0000511Y0038215D01*
X0000513Y0038211D01*
X0000547Y0038136D01*
X0000548Y0038135D01*
X0000550Y0038132D01*
X0000597Y0038064D01*
X0000598Y0038064D01*
X0000601Y0038060D01*
X0000659Y0038002D01*
X0000660Y0038002D01*
X0000663Y0037999D01*
X0000730Y0037952D01*
X0000731Y0037951D01*
X0000735Y0037949D01*
X0000810Y0037914D01*
X0000811Y0037914D01*
X0000814Y0037912D01*
X0000894Y0037891D01*
X0000895Y0037891D01*
X0000899Y0037890D01*
X0000981Y0037883D01*
X0000982Y0037883D01*
X0000986Y0037883D01*
X0001068Y0037890D01*
G37*
D21*
X0000984Y0038385D03*
X0019685Y0038385D03*
X0038385Y0038385D03*
G04 next file*
G04 EAGLE Gerber RS-274X export*
G75*
G01*
G36*
X0005344Y0033859D02*
X0005344Y0033859D01*
X0005344Y0033859D01*
X0005344Y0033863D01*
X0005343Y0033867D01*
X0005342Y0033868D01*
X0005342Y0033869D01*
X0005340Y0033872D01*
X0005338Y0033876D01*
X0005338Y0033876D01*
X0005337Y0033877D01*
X0005334Y0033880D01*
X0005331Y0033883D01*
X0005331Y0033883D01*
X0005330Y0033883D01*
X0005326Y0033885D01*
X0005322Y0033887D01*
X0005322Y0033887D01*
X0005321Y0033887D01*
X0005314Y0033888D01*
X0004133Y0033888D01*
X0004133Y0033888D01*
X0004132Y0033888D01*
X0004128Y0033887D01*
X0004124Y0033886D01*
X0004123Y0033886D01*
X0004122Y0033886D01*
X0004119Y0033884D01*
X0004115Y0033882D01*
X0004115Y0033881D01*
X0004114Y0033881D01*
X0004111Y0033878D01*
X0004109Y0033875D01*
X0004108Y0033874D01*
X0004108Y0033873D01*
X0004106Y0033870D01*
X0004104Y0033866D01*
X0004104Y0033865D01*
X0004104Y0033864D01*
X0004103Y0033858D01*
X0004103Y0031850D01*
X0004103Y0031849D01*
X0004103Y0031848D01*
X0004104Y0031844D01*
X0004105Y0031840D01*
X0004105Y0031840D01*
X0004105Y0031839D01*
X0004108Y0031835D01*
X0004110Y0031832D01*
X0004110Y0031831D01*
X0004110Y0031831D01*
X0004114Y0031828D01*
X0004117Y0031825D01*
X0004117Y0031825D01*
X0004118Y0031824D01*
X0004122Y0031823D01*
X0004125Y0031821D01*
X0004126Y0031821D01*
X0004127Y0031821D01*
X0004133Y0031820D01*
X0005314Y0031820D01*
X0005315Y0031820D01*
X0005316Y0031820D01*
X0005320Y0031821D01*
X0005324Y0031822D01*
X0005325Y0031822D01*
X0005325Y0031822D01*
X0005329Y0031824D01*
X0005333Y0031826D01*
X0005333Y0031827D01*
X0005334Y0031827D01*
X0005336Y0031830D01*
X0005339Y0031833D01*
X0005340Y0031834D01*
X0005340Y0031834D01*
X0005342Y0031838D01*
X0005343Y0031842D01*
X0005343Y0031843D01*
X0005344Y0031843D01*
X0005344Y0031850D01*
X0005344Y0033858D01*
X0005344Y0033859D01*
G37*
G36*
X0020699Y0032717D02*
X0020699Y0032717D01*
X0020699Y0032718D01*
X0020698Y0032722D01*
X0020697Y0032726D01*
X0020697Y0032726D01*
X0020697Y0032727D01*
X0020695Y0032731D01*
X0020693Y0032734D01*
X0020692Y0032735D01*
X0020692Y0032735D01*
X0020689Y0032738D01*
X0020686Y0032741D01*
X0020685Y0032741D01*
X0020684Y0032742D01*
X0020681Y0032743D01*
X0020677Y0032745D01*
X0020676Y0032745D01*
X0020675Y0032745D01*
X0020669Y0032746D01*
X0019488Y0032746D01*
X0019487Y0032746D01*
X0019486Y0032746D01*
X0019482Y0032745D01*
X0019478Y0032744D01*
X0019477Y0032744D01*
X0019477Y0032744D01*
X0019473Y0032742D01*
X0019470Y0032740D01*
X0019469Y0032739D01*
X0019468Y0032739D01*
X0019466Y0032736D01*
X0019463Y0032733D01*
X0019463Y0032732D01*
X0019462Y0032732D01*
X0019461Y0032728D01*
X0019459Y0032724D01*
X0019459Y0032723D01*
X0019458Y0032723D01*
X0019458Y0032716D01*
X0019458Y0030708D01*
X0019458Y0030707D01*
X0019458Y0030707D01*
X0019459Y0030703D01*
X0019459Y0030699D01*
X0019460Y0030698D01*
X0019460Y0030697D01*
X0019462Y0030694D01*
X0019464Y0030690D01*
X0019464Y0030690D01*
X0019465Y0030689D01*
X0019468Y0030686D01*
X0019471Y0030683D01*
X0019472Y0030683D01*
X0019472Y0030683D01*
X0019476Y0030681D01*
X0019480Y0030679D01*
X0019480Y0030679D01*
X0019481Y0030679D01*
X0019488Y0030678D01*
X0020669Y0030678D01*
X0020670Y0030678D01*
X0020670Y0030678D01*
X0020674Y0030679D01*
X0020678Y0030680D01*
X0020679Y0030680D01*
X0020680Y0030680D01*
X0020683Y0030682D01*
X0020687Y0030684D01*
X0020687Y0030685D01*
X0020688Y0030685D01*
X0020691Y0030688D01*
X0020694Y0030691D01*
X0020694Y0030692D01*
X0020694Y0030693D01*
X0020696Y0030696D01*
X0020698Y0030700D01*
X0020698Y0030701D01*
X0020698Y0030702D01*
X0020699Y0030708D01*
X0020699Y0032716D01*
X0020699Y0032717D01*
G37*
G36*
X0034074Y0035590D02*
X0034074Y0035590D01*
X0034074Y0035591D01*
X0034073Y0035594D01*
X0034073Y0035598D01*
X0034073Y0035598D01*
X0034072Y0035598D01*
X0034070Y0035601D01*
X0034068Y0035604D01*
X0034068Y0035604D01*
X0034068Y0035605D01*
X0034065Y0035606D01*
X0034062Y0035608D01*
X0034061Y0035608D01*
X0034061Y0035609D01*
X0034055Y0035610D01*
X0031771Y0035610D01*
X0031771Y0035610D01*
X0031770Y0035610D01*
X0031767Y0035609D01*
X0031763Y0035608D01*
X0031763Y0035608D01*
X0031763Y0035608D01*
X0031760Y0035606D01*
X0031757Y0035604D01*
X0031757Y0035603D01*
X0031757Y0035603D01*
X0031755Y0035600D01*
X0031753Y0035597D01*
X0031753Y0035597D01*
X0031753Y0035597D01*
X0031752Y0035590D01*
X0031752Y0034763D01*
X0031752Y0034763D01*
X0031752Y0034763D01*
X0031752Y0034759D01*
X0031753Y0034756D01*
X0031753Y0034755D01*
X0031753Y0034755D01*
X0031755Y0034752D01*
X0031757Y0034749D01*
X0031758Y0034749D01*
X0031758Y0034749D01*
X0031761Y0034747D01*
X0031764Y0034745D01*
X0031764Y0034745D01*
X0031765Y0034745D01*
X0031771Y0034744D01*
X0034055Y0034744D01*
X0034055Y0034744D01*
X0034055Y0034744D01*
X0034059Y0034744D01*
X0034062Y0034745D01*
X0034063Y0034745D01*
X0034063Y0034745D01*
X0034066Y0034748D01*
X0034069Y0034750D01*
X0034069Y0034750D01*
X0034069Y0034750D01*
X0034071Y0034753D01*
X0034073Y0034756D01*
X0034073Y0034757D01*
X0034073Y0034757D01*
X0034074Y0034763D01*
X0034074Y0035590D01*
X0034074Y0035590D01*
G37*
G36*
X0030370Y0032992D02*
X0030370Y0032992D01*
X0030370Y0033169D01*
X0030370Y0033169D01*
X0030370Y0033169D01*
X0030369Y0033173D01*
X0030368Y0033176D01*
X0030368Y0033177D01*
X0030368Y0033177D01*
X0030366Y0033180D01*
X0030364Y0033183D01*
X0030363Y0033183D01*
X0030363Y0033183D01*
X0030360Y0033185D01*
X0030357Y0033187D01*
X0030357Y0033187D01*
X0030356Y0033187D01*
X0030350Y0033188D01*
X0030232Y0033188D01*
X0030232Y0033188D01*
X0030232Y0033188D01*
X0030231Y0033188D01*
X0030231Y0033188D01*
X0030228Y0033188D01*
X0030224Y0033187D01*
X0030224Y0033187D01*
X0030224Y0033187D01*
X0030221Y0033185D01*
X0030218Y0033182D01*
X0030217Y0033182D01*
X0030217Y0033182D01*
X0030215Y0033179D01*
X0030213Y0033176D01*
X0030213Y0033176D01*
X0030213Y0033175D01*
X0030212Y0033169D01*
X0030212Y0032992D01*
X0030212Y0032974D01*
X0030212Y0032972D01*
X0030213Y0032969D01*
X0030217Y0032951D01*
X0030218Y0032949D01*
X0030219Y0032946D01*
X0030228Y0032930D01*
X0030229Y0032929D01*
X0030231Y0032926D01*
X0030244Y0032913D01*
X0030245Y0032912D01*
X0030248Y0032910D01*
X0030263Y0032901D01*
X0030265Y0032900D01*
X0030268Y0032899D01*
X0030286Y0032894D01*
X0030288Y0032894D01*
X0030290Y0032893D01*
X0030291Y0032893D01*
X0030292Y0032893D01*
X0030292Y0032893D01*
X0030293Y0032893D01*
X0030294Y0032894D01*
X0030296Y0032894D01*
X0030314Y0032899D01*
X0030315Y0032900D01*
X0030318Y0032901D01*
X0030334Y0032910D01*
X0030335Y0032911D01*
X0030338Y0032913D01*
X0030351Y0032926D01*
X0030352Y0032928D01*
X0030354Y0032930D01*
X0030363Y0032946D01*
X0030363Y0032948D01*
X0030365Y0032951D01*
X0030369Y0032969D01*
X0030369Y0032970D01*
X0030370Y0032974D01*
X0030370Y0032992D01*
G37*
G36*
X0030566Y0032992D02*
X0030566Y0032992D01*
X0030566Y0033169D01*
X0030566Y0033169D01*
X0030566Y0033169D01*
X0030566Y0033173D01*
X0030565Y0033176D01*
X0030565Y0033177D01*
X0030565Y0033177D01*
X0030562Y0033180D01*
X0030560Y0033183D01*
X0030560Y0033183D01*
X0030560Y0033183D01*
X0030557Y0033185D01*
X0030554Y0033187D01*
X0030553Y0033187D01*
X0030553Y0033187D01*
X0030547Y0033188D01*
X0030429Y0033188D01*
X0030428Y0033188D01*
X0030428Y0033188D01*
X0030428Y0033188D01*
X0030428Y0033188D01*
X0030425Y0033188D01*
X0030421Y0033187D01*
X0030421Y0033187D01*
X0030420Y0033187D01*
X0030417Y0033185D01*
X0030414Y0033182D01*
X0030414Y0033182D01*
X0030414Y0033182D01*
X0030412Y0033179D01*
X0030410Y0033176D01*
X0030410Y0033176D01*
X0030410Y0033175D01*
X0030409Y0033169D01*
X0030409Y0032992D01*
X0030409Y0032974D01*
X0030409Y0032972D01*
X0030409Y0032969D01*
X0030414Y0032951D01*
X0030415Y0032949D01*
X0030416Y0032946D01*
X0030425Y0032930D01*
X0030426Y0032929D01*
X0030428Y0032926D01*
X0030441Y0032913D01*
X0030442Y0032912D01*
X0030445Y0032910D01*
X0030460Y0032901D01*
X0030462Y0032900D01*
X0030465Y0032899D01*
X0030482Y0032894D01*
X0030484Y0032894D01*
X0030486Y0032893D01*
X0030488Y0032893D01*
X0030489Y0032893D01*
X0030489Y0032893D01*
X0030490Y0032893D01*
X0030491Y0032894D01*
X0030493Y0032894D01*
X0030510Y0032899D01*
X0030512Y0032900D01*
X0030515Y0032901D01*
X0030531Y0032910D01*
X0030532Y0032911D01*
X0030535Y0032913D01*
X0030548Y0032926D01*
X0030549Y0032928D01*
X0030551Y0032930D01*
X0030560Y0032946D01*
X0030560Y0032948D01*
X0030561Y0032951D01*
X0030566Y0032969D01*
X0030566Y0032970D01*
X0030567Y0032974D01*
X0030566Y0032992D01*
G37*
G36*
X0030763Y0032992D02*
X0030763Y0032992D01*
X0030763Y0033169D01*
X0030763Y0033169D01*
X0030763Y0033169D01*
X0030762Y0033173D01*
X0030762Y0033176D01*
X0030762Y0033177D01*
X0030761Y0033177D01*
X0030759Y0033180D01*
X0030757Y0033183D01*
X0030757Y0033183D01*
X0030757Y0033183D01*
X0030754Y0033185D01*
X0030751Y0033187D01*
X0030750Y0033187D01*
X0030750Y0033187D01*
X0030744Y0033188D01*
X0030625Y0033188D01*
X0030625Y0033188D01*
X0030625Y0033188D01*
X0030625Y0033188D01*
X0030625Y0033188D01*
X0030621Y0033188D01*
X0030618Y0033187D01*
X0030618Y0033187D01*
X0030617Y0033187D01*
X0030614Y0033185D01*
X0030611Y0033182D01*
X0030611Y0033182D01*
X0030611Y0033182D01*
X0030609Y0033179D01*
X0030607Y0033176D01*
X0030607Y0033176D01*
X0030607Y0033175D01*
X0030606Y0033169D01*
X0030606Y0032992D01*
X0030606Y0032974D01*
X0030606Y0032972D01*
X0030606Y0032969D01*
X0030611Y0032951D01*
X0030612Y0032949D01*
X0030613Y0032946D01*
X0030622Y0032930D01*
X0030623Y0032929D01*
X0030625Y0032926D01*
X0030637Y0032913D01*
X0030639Y0032912D01*
X0030641Y0032910D01*
X0030657Y0032901D01*
X0030659Y0032900D01*
X0030662Y0032899D01*
X0030679Y0032894D01*
X0030681Y0032894D01*
X0030683Y0032893D01*
X0030685Y0032893D01*
X0030685Y0032893D01*
X0030686Y0032893D01*
X0030687Y0032893D01*
X0030688Y0032894D01*
X0030690Y0032894D01*
X0030707Y0032899D01*
X0030709Y0032900D01*
X0030712Y0032901D01*
X0030728Y0032910D01*
X0030729Y0032911D01*
X0030732Y0032913D01*
X0030744Y0032926D01*
X0030745Y0032928D01*
X0030747Y0032930D01*
X0030756Y0032946D01*
X0030757Y0032948D01*
X0030758Y0032951D01*
X0030763Y0032969D01*
X0030763Y0032970D01*
X0030763Y0032974D01*
X0030763Y0032992D01*
G37*
G36*
X0030960Y0032992D02*
X0030960Y0032992D01*
X0030960Y0033169D01*
X0030960Y0033169D01*
X0030960Y0033169D01*
X0030959Y0033173D01*
X0030959Y0033176D01*
X0030958Y0033177D01*
X0030958Y0033177D01*
X0030956Y0033180D01*
X0030954Y0033183D01*
X0030954Y0033183D01*
X0030954Y0033183D01*
X0030951Y0033185D01*
X0030948Y0033187D01*
X0030947Y0033187D01*
X0030947Y0033187D01*
X0030940Y0033188D01*
X0030822Y0033188D01*
X0030822Y0033188D01*
X0030822Y0033188D01*
X0030822Y0033188D01*
X0030822Y0033188D01*
X0030818Y0033188D01*
X0030815Y0033187D01*
X0030814Y0033187D01*
X0030814Y0033187D01*
X0030811Y0033185D01*
X0030808Y0033182D01*
X0030808Y0033182D01*
X0030808Y0033182D01*
X0030806Y0033179D01*
X0030804Y0033176D01*
X0030804Y0033176D01*
X0030804Y0033175D01*
X0030803Y0033169D01*
X0030803Y0032992D01*
X0030802Y0032974D01*
X0030803Y0032972D01*
X0030803Y0032969D01*
X0030808Y0032951D01*
X0030808Y0032949D01*
X0030810Y0032946D01*
X0030818Y0032930D01*
X0030820Y0032929D01*
X0030822Y0032926D01*
X0030834Y0032913D01*
X0030836Y0032912D01*
X0030838Y0032910D01*
X0030854Y0032901D01*
X0030856Y0032900D01*
X0030859Y0032899D01*
X0030876Y0032894D01*
X0030878Y0032894D01*
X0030880Y0032893D01*
X0030882Y0032893D01*
X0030882Y0032893D01*
X0030883Y0032893D01*
X0030884Y0032893D01*
X0030885Y0032894D01*
X0030887Y0032894D01*
X0030904Y0032899D01*
X0030906Y0032900D01*
X0030909Y0032901D01*
X0030925Y0032910D01*
X0030926Y0032911D01*
X0030929Y0032913D01*
X0030941Y0032926D01*
X0030942Y0032928D01*
X0030944Y0032930D01*
X0030953Y0032946D01*
X0030954Y0032948D01*
X0030955Y0032951D01*
X0030960Y0032969D01*
X0030960Y0032970D01*
X0030960Y0032974D01*
X0030960Y0032992D01*
G37*
G36*
X0031157Y0032992D02*
X0031157Y0032992D01*
X0031157Y0033169D01*
X0031157Y0033169D01*
X0031157Y0033169D01*
X0031156Y0033173D01*
X0031155Y0033176D01*
X0031155Y0033177D01*
X0031155Y0033177D01*
X0031153Y0033180D01*
X0031151Y0033183D01*
X0031151Y0033183D01*
X0031150Y0033183D01*
X0031147Y0033185D01*
X0031144Y0033187D01*
X0031144Y0033187D01*
X0031144Y0033187D01*
X0031137Y0033188D01*
X0031019Y0033188D01*
X0031019Y0033188D01*
X0031019Y0033188D01*
X0031019Y0033188D01*
X0031018Y0033188D01*
X0031015Y0033188D01*
X0031012Y0033187D01*
X0031011Y0033187D01*
X0031011Y0033187D01*
X0031008Y0033185D01*
X0031005Y0033182D01*
X0031005Y0033182D01*
X0031005Y0033182D01*
X0031003Y0033179D01*
X0031001Y0033176D01*
X0031001Y0033176D01*
X0031001Y0033175D01*
X0031000Y0033169D01*
X0031000Y0032992D01*
X0030999Y0032974D01*
X0031000Y0032972D01*
X0031000Y0032969D01*
X0031004Y0032951D01*
X0031005Y0032949D01*
X0031006Y0032946D01*
X0031015Y0032930D01*
X0031016Y0032929D01*
X0031018Y0032926D01*
X0031031Y0032913D01*
X0031033Y0032912D01*
X0031035Y0032910D01*
X0031051Y0032901D01*
X0031052Y0032900D01*
X0031055Y0032899D01*
X0031073Y0032894D01*
X0031075Y0032894D01*
X0031077Y0032893D01*
X0031079Y0032893D01*
X0031079Y0032893D01*
X0031080Y0032893D01*
X0031081Y0032893D01*
X0031082Y0032894D01*
X0031084Y0032894D01*
X0031101Y0032899D01*
X0031103Y0032900D01*
X0031106Y0032901D01*
X0031121Y0032910D01*
X0031123Y0032911D01*
X0031125Y0032913D01*
X0031138Y0032926D01*
X0031139Y0032928D01*
X0031141Y0032930D01*
X0031150Y0032946D01*
X0031151Y0032948D01*
X0031152Y0032951D01*
X0031157Y0032969D01*
X0031157Y0032970D01*
X0031157Y0032974D01*
X0031157Y0032992D01*
G37*
G36*
X0030369Y0031594D02*
X0030369Y0031594D01*
X0030369Y0031597D01*
X0030365Y0031615D01*
X0030364Y0031617D01*
X0030363Y0031620D01*
X0030354Y0031636D01*
X0030353Y0031637D01*
X0030351Y0031640D01*
X0030338Y0031653D01*
X0030337Y0031654D01*
X0030334Y0031656D01*
X0030318Y0031665D01*
X0030317Y0031666D01*
X0030314Y0031667D01*
X0030296Y0031672D01*
X0030294Y0031672D01*
X0030292Y0031673D01*
X0030291Y0031673D01*
X0030290Y0031673D01*
X0030290Y0031672D01*
X0030288Y0031673D01*
X0030287Y0031672D01*
X0030286Y0031672D01*
X0030268Y0031667D01*
X0030266Y0031666D01*
X0030263Y0031665D01*
X0030248Y0031656D01*
X0030246Y0031655D01*
X0030244Y0031653D01*
X0030231Y0031640D01*
X0030230Y0031638D01*
X0030228Y0031636D01*
X0030219Y0031620D01*
X0030218Y0031618D01*
X0030217Y0031615D01*
X0030213Y0031597D01*
X0030212Y0031596D01*
X0030212Y0031592D01*
X0030212Y0031574D01*
X0030212Y0031397D01*
X0030212Y0031397D01*
X0030212Y0031396D01*
X0030213Y0031393D01*
X0030214Y0031389D01*
X0030214Y0031389D01*
X0030214Y0031389D01*
X0030216Y0031386D01*
X0030218Y0031383D01*
X0030218Y0031383D01*
X0030219Y0031383D01*
X0030222Y0031381D01*
X0030225Y0031379D01*
X0030225Y0031379D01*
X0030225Y0031379D01*
X0030232Y0031377D01*
X0030350Y0031377D01*
X0030350Y0031378D01*
X0030351Y0031377D01*
X0030354Y0031378D01*
X0030358Y0031379D01*
X0030358Y0031379D01*
X0030358Y0031379D01*
X0030361Y0031381D01*
X0030364Y0031383D01*
X0030364Y0031384D01*
X0030364Y0031384D01*
X0030366Y0031387D01*
X0030368Y0031390D01*
X0030368Y0031390D01*
X0030368Y0031391D01*
X0030370Y0031397D01*
X0030370Y0031574D01*
X0030370Y0031592D01*
X0030369Y0031594D01*
G37*
G36*
X0030566Y0031594D02*
X0030566Y0031594D01*
X0030566Y0031597D01*
X0030561Y0031615D01*
X0030561Y0031617D01*
X0030560Y0031620D01*
X0030551Y0031636D01*
X0030550Y0031637D01*
X0030548Y0031640D01*
X0030535Y0031653D01*
X0030533Y0031654D01*
X0030531Y0031656D01*
X0030515Y0031665D01*
X0030514Y0031666D01*
X0030510Y0031667D01*
X0030493Y0031672D01*
X0030491Y0031672D01*
X0030489Y0031673D01*
X0030488Y0031673D01*
X0030487Y0031673D01*
X0030487Y0031672D01*
X0030485Y0031673D01*
X0030484Y0031672D01*
X0030482Y0031672D01*
X0030465Y0031667D01*
X0030463Y0031666D01*
X0030460Y0031665D01*
X0030445Y0031656D01*
X0030443Y0031655D01*
X0030441Y0031653D01*
X0030428Y0031640D01*
X0030427Y0031638D01*
X0030425Y0031636D01*
X0030416Y0031620D01*
X0030415Y0031618D01*
X0030414Y0031615D01*
X0030409Y0031597D01*
X0030409Y0031596D01*
X0030409Y0031592D01*
X0030409Y0031574D01*
X0030409Y0031397D01*
X0030409Y0031397D01*
X0030409Y0031396D01*
X0030410Y0031393D01*
X0030411Y0031389D01*
X0030411Y0031389D01*
X0030411Y0031389D01*
X0030413Y0031386D01*
X0030415Y0031383D01*
X0030415Y0031383D01*
X0030415Y0031383D01*
X0030418Y0031381D01*
X0030422Y0031379D01*
X0030422Y0031379D01*
X0030422Y0031379D01*
X0030429Y0031377D01*
X0030547Y0031377D01*
X0030547Y0031378D01*
X0030547Y0031377D01*
X0030551Y0031378D01*
X0030554Y0031379D01*
X0030555Y0031379D01*
X0030555Y0031379D01*
X0030558Y0031381D01*
X0030561Y0031383D01*
X0030561Y0031384D01*
X0030561Y0031384D01*
X0030563Y0031387D01*
X0030565Y0031390D01*
X0030565Y0031390D01*
X0030565Y0031391D01*
X0030566Y0031397D01*
X0030566Y0031574D01*
X0030567Y0031592D01*
X0030566Y0031594D01*
G37*
G36*
X0030763Y0031594D02*
X0030763Y0031594D01*
X0030763Y0031597D01*
X0030758Y0031615D01*
X0030758Y0031617D01*
X0030756Y0031620D01*
X0030747Y0031636D01*
X0030746Y0031637D01*
X0030744Y0031640D01*
X0030732Y0031653D01*
X0030730Y0031654D01*
X0030728Y0031656D01*
X0030712Y0031665D01*
X0030710Y0031666D01*
X0030707Y0031667D01*
X0030690Y0031672D01*
X0030688Y0031672D01*
X0030686Y0031673D01*
X0030685Y0031673D01*
X0030684Y0031673D01*
X0030683Y0031672D01*
X0030682Y0031673D01*
X0030681Y0031672D01*
X0030679Y0031672D01*
X0030662Y0031667D01*
X0030660Y0031666D01*
X0030657Y0031665D01*
X0030641Y0031656D01*
X0030640Y0031655D01*
X0030637Y0031653D01*
X0030625Y0031640D01*
X0030624Y0031638D01*
X0030622Y0031636D01*
X0030613Y0031620D01*
X0030612Y0031618D01*
X0030611Y0031615D01*
X0030606Y0031597D01*
X0030606Y0031596D01*
X0030606Y0031592D01*
X0030606Y0031574D01*
X0030606Y0031397D01*
X0030606Y0031397D01*
X0030606Y0031396D01*
X0030607Y0031393D01*
X0030607Y0031389D01*
X0030608Y0031389D01*
X0030608Y0031389D01*
X0030610Y0031386D01*
X0030612Y0031383D01*
X0030612Y0031383D01*
X0030612Y0031383D01*
X0030615Y0031381D01*
X0030618Y0031379D01*
X0030619Y0031379D01*
X0030619Y0031379D01*
X0030625Y0031377D01*
X0030744Y0031377D01*
X0030744Y0031378D01*
X0030744Y0031377D01*
X0030748Y0031378D01*
X0030751Y0031379D01*
X0030752Y0031379D01*
X0030752Y0031379D01*
X0030755Y0031381D01*
X0030758Y0031383D01*
X0030758Y0031384D01*
X0030758Y0031384D01*
X0030760Y0031387D01*
X0030762Y0031390D01*
X0030762Y0031390D01*
X0030762Y0031391D01*
X0030763Y0031397D01*
X0030763Y0031574D01*
X0030763Y0031592D01*
X0030763Y0031594D01*
G37*
G36*
X0030960Y0031594D02*
X0030960Y0031594D01*
X0030960Y0031597D01*
X0030955Y0031615D01*
X0030954Y0031617D01*
X0030953Y0031620D01*
X0030944Y0031636D01*
X0030943Y0031637D01*
X0030941Y0031640D01*
X0030929Y0031653D01*
X0030927Y0031654D01*
X0030925Y0031656D01*
X0030909Y0031665D01*
X0030907Y0031666D01*
X0030904Y0031667D01*
X0030887Y0031672D01*
X0030885Y0031672D01*
X0030883Y0031673D01*
X0030881Y0031673D01*
X0030881Y0031673D01*
X0030880Y0031672D01*
X0030879Y0031673D01*
X0030878Y0031672D01*
X0030876Y0031672D01*
X0030859Y0031667D01*
X0030857Y0031666D01*
X0030854Y0031665D01*
X0030838Y0031656D01*
X0030837Y0031655D01*
X0030834Y0031653D01*
X0030822Y0031640D01*
X0030821Y0031638D01*
X0030818Y0031636D01*
X0030810Y0031620D01*
X0030809Y0031618D01*
X0030808Y0031615D01*
X0030803Y0031597D01*
X0030803Y0031596D01*
X0030802Y0031592D01*
X0030803Y0031574D01*
X0030803Y0031397D01*
X0030803Y0031397D01*
X0030803Y0031396D01*
X0030804Y0031393D01*
X0030804Y0031389D01*
X0030804Y0031389D01*
X0030804Y0031389D01*
X0030807Y0031386D01*
X0030809Y0031383D01*
X0030809Y0031383D01*
X0030809Y0031383D01*
X0030812Y0031381D01*
X0030815Y0031379D01*
X0030816Y0031379D01*
X0030816Y0031379D01*
X0030822Y0031377D01*
X0030940Y0031377D01*
X0030941Y0031378D01*
X0030941Y0031377D01*
X0030945Y0031378D01*
X0030948Y0031379D01*
X0030948Y0031379D01*
X0030949Y0031379D01*
X0030952Y0031381D01*
X0030955Y0031383D01*
X0030955Y0031384D01*
X0030955Y0031384D01*
X0030957Y0031387D01*
X0030959Y0031390D01*
X0030959Y0031390D01*
X0030959Y0031391D01*
X0030960Y0031397D01*
X0030960Y0031574D01*
X0030960Y0031592D01*
X0030960Y0031594D01*
G37*
G36*
X0031157Y0031594D02*
X0031157Y0031594D01*
X0031157Y0031597D01*
X0031152Y0031615D01*
X0031151Y0031617D01*
X0031150Y0031620D01*
X0031141Y0031636D01*
X0031140Y0031637D01*
X0031138Y0031640D01*
X0031125Y0031653D01*
X0031124Y0031654D01*
X0031121Y0031656D01*
X0031106Y0031665D01*
X0031104Y0031666D01*
X0031101Y0031667D01*
X0031084Y0031672D01*
X0031081Y0031672D01*
X0031079Y0031673D01*
X0031078Y0031673D01*
X0031078Y0031673D01*
X0031077Y0031672D01*
X0031076Y0031673D01*
X0031075Y0031672D01*
X0031073Y0031672D01*
X0031055Y0031667D01*
X0031054Y0031666D01*
X0031051Y0031665D01*
X0031035Y0031656D01*
X0031034Y0031655D01*
X0031031Y0031653D01*
X0031018Y0031640D01*
X0031017Y0031638D01*
X0031015Y0031636D01*
X0031006Y0031620D01*
X0031006Y0031618D01*
X0031004Y0031615D01*
X0031000Y0031597D01*
X0031000Y0031596D01*
X0030999Y0031592D01*
X0031000Y0031574D01*
X0031000Y0031397D01*
X0031000Y0031397D01*
X0031000Y0031396D01*
X0031000Y0031393D01*
X0031001Y0031389D01*
X0031001Y0031389D01*
X0031001Y0031389D01*
X0031003Y0031386D01*
X0031006Y0031383D01*
X0031006Y0031383D01*
X0031006Y0031383D01*
X0031009Y0031381D01*
X0031012Y0031379D01*
X0031012Y0031379D01*
X0031013Y0031379D01*
X0031019Y0031377D01*
X0031137Y0031377D01*
X0031138Y0031378D01*
X0031138Y0031377D01*
X0031141Y0031378D01*
X0031145Y0031379D01*
X0031145Y0031379D01*
X0031146Y0031379D01*
X0031148Y0031381D01*
X0031151Y0031383D01*
X0031152Y0031384D01*
X0031152Y0031384D01*
X0031154Y0031387D01*
X0031156Y0031390D01*
X0031156Y0031390D01*
X0031156Y0031391D01*
X0031157Y0031397D01*
X0031157Y0031574D01*
X0031157Y0031592D01*
X0031157Y0031594D01*
G37*
G36*
X0030074Y0032284D02*
X0030074Y0032284D01*
X0030074Y0032285D01*
X0030074Y0032287D01*
X0030074Y0032288D01*
X0030069Y0032306D01*
X0030068Y0032307D01*
X0030067Y0032310D01*
X0030057Y0032326D01*
X0030056Y0032327D01*
X0030054Y0032330D01*
X0030041Y0032343D01*
X0030040Y0032344D01*
X0030037Y0032346D01*
X0030021Y0032355D01*
X0030020Y0032355D01*
X0030017Y0032357D01*
X0029999Y0032361D01*
X0029997Y0032361D01*
X0029994Y0032362D01*
X0029976Y0032362D01*
X0029799Y0032362D01*
X0029799Y0032362D01*
X0029798Y0032362D01*
X0029798Y0032362D01*
X0029798Y0032362D01*
X0029795Y0032361D01*
X0029791Y0032360D01*
X0029791Y0032360D01*
X0029790Y0032360D01*
X0029788Y0032358D01*
X0029785Y0032356D01*
X0029784Y0032355D01*
X0029784Y0032355D01*
X0029782Y0032352D01*
X0029780Y0032349D01*
X0029780Y0032349D01*
X0029780Y0032348D01*
X0029779Y0032342D01*
X0029779Y0032224D01*
X0029779Y0032224D01*
X0029779Y0032223D01*
X0029780Y0032220D01*
X0029781Y0032216D01*
X0029781Y0032216D01*
X0029781Y0032216D01*
X0029783Y0032213D01*
X0029785Y0032210D01*
X0029785Y0032210D01*
X0029785Y0032209D01*
X0029789Y0032207D01*
X0029792Y0032206D01*
X0029792Y0032206D01*
X0029792Y0032205D01*
X0029799Y0032204D01*
X0029976Y0032204D01*
X0029994Y0032204D01*
X0029996Y0032204D01*
X0029999Y0032205D01*
X0030017Y0032209D01*
X0030018Y0032210D01*
X0030021Y0032211D01*
X0030037Y0032220D01*
X0030038Y0032221D01*
X0030041Y0032223D01*
X0030054Y0032236D01*
X0030055Y0032237D01*
X0030057Y0032240D01*
X0030067Y0032255D01*
X0030067Y0032257D01*
X0030069Y0032260D01*
X0030074Y0032278D01*
X0030074Y0032280D01*
X0030074Y0032282D01*
X0030074Y0032284D01*
G37*
G36*
X0030074Y0031890D02*
X0030074Y0031890D01*
X0030074Y0031892D01*
X0030074Y0031893D01*
X0030074Y0031895D01*
X0030069Y0031912D01*
X0030068Y0031914D01*
X0030067Y0031917D01*
X0030057Y0031932D01*
X0030056Y0031934D01*
X0030054Y0031936D01*
X0030041Y0031949D01*
X0030040Y0031950D01*
X0030037Y0031952D01*
X0030021Y0031961D01*
X0030020Y0031962D01*
X0030017Y0031963D01*
X0029999Y0031968D01*
X0029997Y0031968D01*
X0029994Y0031968D01*
X0029976Y0031968D01*
X0029799Y0031968D01*
X0029799Y0031968D01*
X0029798Y0031968D01*
X0029798Y0031968D01*
X0029798Y0031968D01*
X0029795Y0031967D01*
X0029791Y0031966D01*
X0029791Y0031966D01*
X0029790Y0031966D01*
X0029788Y0031964D01*
X0029785Y0031962D01*
X0029784Y0031962D01*
X0029784Y0031962D01*
X0029782Y0031958D01*
X0029780Y0031955D01*
X0029780Y0031955D01*
X0029780Y0031955D01*
X0029779Y0031948D01*
X0029779Y0031830D01*
X0029779Y0031830D01*
X0029779Y0031830D01*
X0029780Y0031826D01*
X0029781Y0031823D01*
X0029781Y0031822D01*
X0029781Y0031822D01*
X0029783Y0031819D01*
X0029785Y0031816D01*
X0029785Y0031816D01*
X0029785Y0031816D01*
X0029789Y0031814D01*
X0029792Y0031812D01*
X0029792Y0031812D01*
X0029792Y0031812D01*
X0029799Y0031811D01*
X0029976Y0031811D01*
X0029994Y0031810D01*
X0029996Y0031811D01*
X0029999Y0031811D01*
X0030017Y0031815D01*
X0030018Y0031816D01*
X0030021Y0031817D01*
X0030037Y0031826D01*
X0030038Y0031827D01*
X0030041Y0031829D01*
X0030054Y0031842D01*
X0030055Y0031844D01*
X0030057Y0031846D01*
X0030067Y0031862D01*
X0030067Y0031863D01*
X0030069Y0031866D01*
X0030074Y0031884D01*
X0030074Y0031886D01*
X0030074Y0031888D01*
X0030074Y0031890D01*
G37*
G36*
X0030074Y0032087D02*
X0030074Y0032087D01*
X0030074Y0032089D01*
X0030074Y0032090D01*
X0030074Y0032091D01*
X0030069Y0032109D01*
X0030068Y0032110D01*
X0030067Y0032114D01*
X0030057Y0032129D01*
X0030056Y0032131D01*
X0030054Y0032133D01*
X0030041Y0032146D01*
X0030040Y0032147D01*
X0030037Y0032149D01*
X0030021Y0032158D01*
X0030020Y0032159D01*
X0030017Y0032160D01*
X0029999Y0032164D01*
X0029997Y0032165D01*
X0029994Y0032165D01*
X0029976Y0032165D01*
X0029799Y0032165D01*
X0029799Y0032165D01*
X0029798Y0032165D01*
X0029798Y0032165D01*
X0029798Y0032165D01*
X0029795Y0032164D01*
X0029791Y0032163D01*
X0029791Y0032163D01*
X0029790Y0032163D01*
X0029788Y0032161D01*
X0029785Y0032159D01*
X0029784Y0032159D01*
X0029784Y0032158D01*
X0029782Y0032155D01*
X0029780Y0032152D01*
X0029780Y0032152D01*
X0029780Y0032152D01*
X0029779Y0032145D01*
X0029779Y0032027D01*
X0029779Y0032027D01*
X0029779Y0032026D01*
X0029780Y0032023D01*
X0029781Y0032019D01*
X0029781Y0032019D01*
X0029781Y0032019D01*
X0029783Y0032016D01*
X0029785Y0032013D01*
X0029785Y0032013D01*
X0029785Y0032012D01*
X0029789Y0032011D01*
X0029792Y0032009D01*
X0029792Y0032009D01*
X0029792Y0032008D01*
X0029799Y0032007D01*
X0029976Y0032007D01*
X0029994Y0032007D01*
X0029996Y0032008D01*
X0029999Y0032008D01*
X0030017Y0032012D01*
X0030018Y0032013D01*
X0030021Y0032014D01*
X0030037Y0032023D01*
X0030038Y0032024D01*
X0030041Y0032026D01*
X0030054Y0032039D01*
X0030055Y0032040D01*
X0030057Y0032043D01*
X0030067Y0032059D01*
X0030067Y0032060D01*
X0030069Y0032063D01*
X0030074Y0032081D01*
X0030074Y0032083D01*
X0030074Y0032085D01*
X0030074Y0032087D01*
G37*
G36*
X0030074Y0032481D02*
X0030074Y0032481D01*
X0030074Y0032482D01*
X0030074Y0032483D01*
X0030074Y0032485D01*
X0030069Y0032503D01*
X0030068Y0032504D01*
X0030067Y0032507D01*
X0030057Y0032523D01*
X0030056Y0032524D01*
X0030054Y0032527D01*
X0030041Y0032540D01*
X0030040Y0032541D01*
X0030037Y0032543D01*
X0030021Y0032552D01*
X0030020Y0032552D01*
X0030017Y0032554D01*
X0029999Y0032558D01*
X0029997Y0032558D01*
X0029994Y0032559D01*
X0029976Y0032559D01*
X0029799Y0032559D01*
X0029799Y0032558D01*
X0029798Y0032559D01*
X0029798Y0032558D01*
X0029798Y0032559D01*
X0029795Y0032558D01*
X0029791Y0032557D01*
X0029791Y0032557D01*
X0029790Y0032557D01*
X0029788Y0032555D01*
X0029785Y0032553D01*
X0029784Y0032552D01*
X0029784Y0032552D01*
X0029782Y0032549D01*
X0029780Y0032546D01*
X0029780Y0032546D01*
X0029780Y0032545D01*
X0029779Y0032539D01*
X0029779Y0032421D01*
X0029779Y0032420D01*
X0029779Y0032420D01*
X0029780Y0032417D01*
X0029781Y0032413D01*
X0029781Y0032413D01*
X0029781Y0032412D01*
X0029783Y0032410D01*
X0029785Y0032407D01*
X0029785Y0032406D01*
X0029785Y0032406D01*
X0029789Y0032404D01*
X0029792Y0032402D01*
X0029792Y0032402D01*
X0029792Y0032402D01*
X0029799Y0032401D01*
X0029976Y0032401D01*
X0029994Y0032401D01*
X0029996Y0032401D01*
X0029999Y0032402D01*
X0030017Y0032406D01*
X0030018Y0032407D01*
X0030021Y0032408D01*
X0030037Y0032417D01*
X0030038Y0032418D01*
X0030041Y0032420D01*
X0030054Y0032433D01*
X0030055Y0032434D01*
X0030057Y0032437D01*
X0030067Y0032452D01*
X0030067Y0032454D01*
X0030069Y0032457D01*
X0030074Y0032475D01*
X0030074Y0032477D01*
X0030074Y0032479D01*
X0030074Y0032481D01*
G37*
G36*
X0030074Y0032678D02*
X0030074Y0032678D01*
X0030074Y0032679D01*
X0030074Y0032680D01*
X0030074Y0032682D01*
X0030069Y0032699D01*
X0030068Y0032701D01*
X0030067Y0032704D01*
X0030057Y0032720D01*
X0030056Y0032721D01*
X0030054Y0032724D01*
X0030041Y0032737D01*
X0030040Y0032738D01*
X0030037Y0032740D01*
X0030021Y0032749D01*
X0030020Y0032749D01*
X0030017Y0032750D01*
X0029999Y0032755D01*
X0029997Y0032755D01*
X0029994Y0032756D01*
X0029976Y0032755D01*
X0029799Y0032755D01*
X0029799Y0032755D01*
X0029798Y0032755D01*
X0029798Y0032755D01*
X0029798Y0032755D01*
X0029795Y0032755D01*
X0029791Y0032754D01*
X0029791Y0032754D01*
X0029790Y0032754D01*
X0029788Y0032751D01*
X0029785Y0032749D01*
X0029784Y0032749D01*
X0029784Y0032749D01*
X0029782Y0032746D01*
X0029780Y0032743D01*
X0029780Y0032742D01*
X0029780Y0032742D01*
X0029779Y0032736D01*
X0029779Y0032618D01*
X0029779Y0032617D01*
X0029779Y0032617D01*
X0029780Y0032613D01*
X0029781Y0032610D01*
X0029781Y0032610D01*
X0029781Y0032609D01*
X0029783Y0032606D01*
X0029785Y0032603D01*
X0029785Y0032603D01*
X0029785Y0032603D01*
X0029789Y0032601D01*
X0029792Y0032599D01*
X0029792Y0032599D01*
X0029792Y0032599D01*
X0029799Y0032598D01*
X0029976Y0032598D01*
X0029994Y0032598D01*
X0029996Y0032598D01*
X0029999Y0032598D01*
X0030017Y0032603D01*
X0030018Y0032604D01*
X0030021Y0032605D01*
X0030037Y0032614D01*
X0030038Y0032615D01*
X0030041Y0032617D01*
X0030054Y0032630D01*
X0030055Y0032631D01*
X0030057Y0032634D01*
X0030067Y0032649D01*
X0030067Y0032651D01*
X0030069Y0032654D01*
X0030074Y0032671D01*
X0030074Y0032673D01*
X0030074Y0032675D01*
X0030074Y0032678D01*
G37*
G36*
X0031590Y0032342D02*
X0031590Y0032342D01*
X0031590Y0032343D01*
X0031589Y0032346D01*
X0031588Y0032350D01*
X0031588Y0032350D01*
X0031588Y0032350D01*
X0031586Y0032353D01*
X0031584Y0032356D01*
X0031584Y0032356D01*
X0031584Y0032357D01*
X0031580Y0032358D01*
X0031577Y0032360D01*
X0031577Y0032360D01*
X0031577Y0032361D01*
X0031570Y0032362D01*
X0031393Y0032362D01*
X0031375Y0032362D01*
X0031374Y0032362D01*
X0031373Y0032362D01*
X0031373Y0032362D01*
X0031373Y0032362D01*
X0031370Y0032361D01*
X0031353Y0032357D01*
X0031351Y0032356D01*
X0031348Y0032355D01*
X0031332Y0032346D01*
X0031331Y0032345D01*
X0031328Y0032343D01*
X0031315Y0032330D01*
X0031314Y0032329D01*
X0031312Y0032326D01*
X0031302Y0032310D01*
X0031302Y0032309D01*
X0031300Y0032306D01*
X0031296Y0032288D01*
X0031295Y0032286D01*
X0031295Y0032284D01*
X0031295Y0032282D01*
X0031295Y0032280D01*
X0031295Y0032279D01*
X0031296Y0032278D01*
X0031300Y0032260D01*
X0031301Y0032259D01*
X0031302Y0032255D01*
X0031312Y0032240D01*
X0031313Y0032239D01*
X0031315Y0032236D01*
X0031328Y0032223D01*
X0031329Y0032222D01*
X0031332Y0032220D01*
X0031348Y0032211D01*
X0031349Y0032211D01*
X0031353Y0032209D01*
X0031370Y0032205D01*
X0031372Y0032205D01*
X0031375Y0032204D01*
X0031393Y0032204D01*
X0031570Y0032204D01*
X0031571Y0032204D01*
X0031571Y0032204D01*
X0031575Y0032205D01*
X0031578Y0032206D01*
X0031578Y0032206D01*
X0031579Y0032206D01*
X0031582Y0032208D01*
X0031585Y0032210D01*
X0031585Y0032211D01*
X0031585Y0032211D01*
X0031587Y0032214D01*
X0031589Y0032217D01*
X0031589Y0032217D01*
X0031589Y0032217D01*
X0031590Y0032224D01*
X0031590Y0032342D01*
X0031590Y0032342D01*
G37*
G36*
X0031590Y0031949D02*
X0031590Y0031949D01*
X0031590Y0031949D01*
X0031589Y0031952D01*
X0031588Y0031956D01*
X0031588Y0031956D01*
X0031588Y0031957D01*
X0031586Y0031959D01*
X0031584Y0031962D01*
X0031584Y0031963D01*
X0031584Y0031963D01*
X0031580Y0031965D01*
X0031577Y0031967D01*
X0031577Y0031967D01*
X0031577Y0031967D01*
X0031570Y0031968D01*
X0031393Y0031968D01*
X0031375Y0031968D01*
X0031374Y0031968D01*
X0031373Y0031968D01*
X0031373Y0031968D01*
X0031373Y0031968D01*
X0031370Y0031968D01*
X0031353Y0031963D01*
X0031351Y0031962D01*
X0031348Y0031961D01*
X0031332Y0031952D01*
X0031331Y0031951D01*
X0031328Y0031949D01*
X0031315Y0031936D01*
X0031314Y0031935D01*
X0031312Y0031932D01*
X0031302Y0031917D01*
X0031302Y0031915D01*
X0031300Y0031912D01*
X0031296Y0031895D01*
X0031295Y0031892D01*
X0031295Y0031890D01*
X0031295Y0031888D01*
X0031295Y0031887D01*
X0031295Y0031886D01*
X0031296Y0031884D01*
X0031300Y0031866D01*
X0031301Y0031865D01*
X0031302Y0031862D01*
X0031312Y0031846D01*
X0031313Y0031845D01*
X0031315Y0031842D01*
X0031328Y0031829D01*
X0031329Y0031828D01*
X0031332Y0031826D01*
X0031348Y0031817D01*
X0031349Y0031817D01*
X0031353Y0031815D01*
X0031370Y0031811D01*
X0031372Y0031811D01*
X0031375Y0031810D01*
X0031393Y0031811D01*
X0031570Y0031811D01*
X0031571Y0031811D01*
X0031571Y0031811D01*
X0031575Y0031811D01*
X0031578Y0031812D01*
X0031578Y0031812D01*
X0031579Y0031812D01*
X0031582Y0031815D01*
X0031585Y0031817D01*
X0031585Y0031817D01*
X0031585Y0031817D01*
X0031587Y0031820D01*
X0031589Y0031823D01*
X0031589Y0031823D01*
X0031589Y0031824D01*
X0031590Y0031830D01*
X0031590Y0031948D01*
X0031590Y0031949D01*
G37*
G36*
X0031590Y0032736D02*
X0031590Y0032736D01*
X0031590Y0032736D01*
X0031589Y0032740D01*
X0031588Y0032743D01*
X0031588Y0032744D01*
X0031588Y0032744D01*
X0031586Y0032747D01*
X0031584Y0032750D01*
X0031584Y0032750D01*
X0031584Y0032750D01*
X0031580Y0032752D01*
X0031577Y0032754D01*
X0031577Y0032754D01*
X0031577Y0032754D01*
X0031570Y0032755D01*
X0031393Y0032755D01*
X0031375Y0032756D01*
X0031374Y0032755D01*
X0031373Y0032755D01*
X0031373Y0032755D01*
X0031373Y0032755D01*
X0031370Y0032755D01*
X0031353Y0032750D01*
X0031351Y0032750D01*
X0031348Y0032749D01*
X0031332Y0032740D01*
X0031331Y0032738D01*
X0031328Y0032737D01*
X0031315Y0032724D01*
X0031314Y0032722D01*
X0031312Y0032720D01*
X0031302Y0032704D01*
X0031302Y0032702D01*
X0031300Y0032699D01*
X0031296Y0032682D01*
X0031295Y0032680D01*
X0031295Y0032678D01*
X0031295Y0032676D01*
X0031295Y0032674D01*
X0031295Y0032673D01*
X0031296Y0032671D01*
X0031300Y0032654D01*
X0031301Y0032652D01*
X0031302Y0032649D01*
X0031312Y0032634D01*
X0031313Y0032632D01*
X0031315Y0032630D01*
X0031328Y0032617D01*
X0031329Y0032616D01*
X0031332Y0032614D01*
X0031348Y0032605D01*
X0031349Y0032604D01*
X0031353Y0032603D01*
X0031370Y0032598D01*
X0031372Y0032598D01*
X0031375Y0032598D01*
X0031393Y0032598D01*
X0031570Y0032598D01*
X0031571Y0032598D01*
X0031571Y0032598D01*
X0031575Y0032599D01*
X0031578Y0032600D01*
X0031578Y0032600D01*
X0031579Y0032600D01*
X0031582Y0032602D01*
X0031585Y0032604D01*
X0031585Y0032604D01*
X0031585Y0032604D01*
X0031587Y0032607D01*
X0031589Y0032610D01*
X0031589Y0032611D01*
X0031589Y0032611D01*
X0031590Y0032618D01*
X0031590Y0032736D01*
X0031590Y0032736D01*
G37*
G36*
X0031590Y0032145D02*
X0031590Y0032145D01*
X0031590Y0032146D01*
X0031589Y0032149D01*
X0031588Y0032153D01*
X0031588Y0032153D01*
X0031588Y0032153D01*
X0031586Y0032156D01*
X0031584Y0032159D01*
X0031584Y0032159D01*
X0031584Y0032160D01*
X0031580Y0032162D01*
X0031577Y0032164D01*
X0031577Y0032164D01*
X0031577Y0032164D01*
X0031570Y0032165D01*
X0031393Y0032165D01*
X0031375Y0032165D01*
X0031374Y0032165D01*
X0031373Y0032165D01*
X0031373Y0032165D01*
X0031373Y0032165D01*
X0031370Y0032164D01*
X0031353Y0032160D01*
X0031351Y0032159D01*
X0031348Y0032158D01*
X0031332Y0032149D01*
X0031331Y0032148D01*
X0031328Y0032146D01*
X0031315Y0032133D01*
X0031314Y0032132D01*
X0031312Y0032129D01*
X0031302Y0032114D01*
X0031302Y0032112D01*
X0031300Y0032109D01*
X0031296Y0032091D01*
X0031295Y0032089D01*
X0031295Y0032087D01*
X0031295Y0032085D01*
X0031295Y0032084D01*
X0031295Y0032082D01*
X0031296Y0032081D01*
X0031300Y0032063D01*
X0031301Y0032062D01*
X0031302Y0032059D01*
X0031312Y0032043D01*
X0031313Y0032042D01*
X0031315Y0032039D01*
X0031328Y0032026D01*
X0031329Y0032025D01*
X0031332Y0032023D01*
X0031348Y0032014D01*
X0031349Y0032014D01*
X0031353Y0032012D01*
X0031370Y0032008D01*
X0031372Y0032008D01*
X0031375Y0032007D01*
X0031393Y0032007D01*
X0031570Y0032007D01*
X0031571Y0032007D01*
X0031571Y0032007D01*
X0031575Y0032008D01*
X0031578Y0032009D01*
X0031578Y0032009D01*
X0031579Y0032009D01*
X0031582Y0032011D01*
X0031585Y0032013D01*
X0031585Y0032014D01*
X0031585Y0032014D01*
X0031587Y0032017D01*
X0031589Y0032020D01*
X0031589Y0032020D01*
X0031589Y0032021D01*
X0031590Y0032027D01*
X0031590Y0032145D01*
X0031590Y0032145D01*
G37*
G36*
X0031590Y0032539D02*
X0031590Y0032539D01*
X0031590Y0032540D01*
X0031589Y0032543D01*
X0031588Y0032547D01*
X0031588Y0032547D01*
X0031588Y0032547D01*
X0031586Y0032550D01*
X0031584Y0032553D01*
X0031584Y0032553D01*
X0031584Y0032553D01*
X0031580Y0032555D01*
X0031577Y0032557D01*
X0031577Y0032557D01*
X0031577Y0032557D01*
X0031570Y0032559D01*
X0031393Y0032559D01*
X0031375Y0032559D01*
X0031374Y0032558D01*
X0031373Y0032558D01*
X0031373Y0032558D01*
X0031373Y0032558D01*
X0031370Y0032558D01*
X0031353Y0032554D01*
X0031351Y0032553D01*
X0031348Y0032552D01*
X0031332Y0032543D01*
X0031331Y0032542D01*
X0031328Y0032540D01*
X0031315Y0032527D01*
X0031314Y0032526D01*
X0031312Y0032523D01*
X0031302Y0032507D01*
X0031302Y0032506D01*
X0031300Y0032503D01*
X0031296Y0032485D01*
X0031295Y0032483D01*
X0031295Y0032481D01*
X0031295Y0032479D01*
X0031295Y0032477D01*
X0031295Y0032476D01*
X0031296Y0032475D01*
X0031300Y0032457D01*
X0031301Y0032455D01*
X0031302Y0032452D01*
X0031312Y0032437D01*
X0031313Y0032435D01*
X0031315Y0032433D01*
X0031328Y0032420D01*
X0031329Y0032419D01*
X0031332Y0032417D01*
X0031348Y0032408D01*
X0031349Y0032407D01*
X0031353Y0032406D01*
X0031370Y0032402D01*
X0031372Y0032401D01*
X0031375Y0032401D01*
X0031393Y0032401D01*
X0031570Y0032401D01*
X0031571Y0032401D01*
X0031571Y0032401D01*
X0031575Y0032402D01*
X0031578Y0032403D01*
X0031578Y0032403D01*
X0031579Y0032403D01*
X0031582Y0032405D01*
X0031585Y0032407D01*
X0031585Y0032407D01*
X0031585Y0032408D01*
X0031587Y0032411D01*
X0031589Y0032414D01*
X0031589Y0032414D01*
X0031589Y0032414D01*
X0031590Y0032421D01*
X0031590Y0032539D01*
X0031590Y0032539D01*
G37*
D22*
X0030708Y0029724D03*
X0030708Y0034842D03*
D23*
X0031857Y0033484D02*
X0031857Y0033385D01*
X0031857Y0033484D02*
X0031957Y0033484D01*
X0031957Y0033385D01*
X0031857Y0033385D01*
X0031857Y0033120D02*
X0031857Y0033021D01*
X0031857Y0033120D02*
X0031957Y0033120D01*
X0031957Y0033021D01*
X0031857Y0033021D01*
D24*
X0030685Y0032283D03*
D25*
X0027625Y0031499D03*
X0026956Y0031499D03*
D26*
X0028091Y0029486D03*
X0027717Y0030352D03*
X0028465Y0030352D03*
D23*
X0028515Y0031077D02*
X0028515Y0031177D01*
X0028515Y0031077D02*
X0028415Y0031077D01*
X0028415Y0031177D01*
X0028515Y0031177D01*
X0028515Y0031441D02*
X0028515Y0031541D01*
X0028515Y0031441D02*
X0028415Y0031441D01*
X0028415Y0031541D01*
X0028515Y0031541D01*
D26*
X0026398Y0030352D03*
X0026772Y0029486D03*
X0026024Y0029486D03*
D23*
X0029234Y0029687D02*
X0029234Y0029787D01*
X0029234Y0029687D02*
X0029135Y0029687D01*
X0029135Y0029787D01*
X0029234Y0029787D01*
X0029234Y0030051D02*
X0029234Y0030151D01*
X0029234Y0030051D02*
X0029135Y0030051D01*
X0029135Y0030151D01*
X0029234Y0030151D01*
D27*
X0026913Y0033142D03*
X0026913Y0032886D03*
X0026913Y0032630D03*
X0026913Y0032374D03*
X0028606Y0032374D03*
X0028606Y0032630D03*
X0028606Y0032886D03*
X0028606Y0033142D03*
D26*
X0026237Y0035208D03*
X0026611Y0034342D03*
X0025863Y0034342D03*
D28*
X0025762Y0033033D03*
X0025762Y0032344D03*
D29*
X0028188Y0034234D03*
X0027814Y0035179D03*
X0028562Y0035179D03*
D23*
X0027267Y0034537D02*
X0027267Y0034438D01*
X0027168Y0034438D01*
X0027168Y0034537D01*
X0027267Y0034537D01*
X0027267Y0034802D02*
X0027267Y0034902D01*
X0027267Y0034802D02*
X0027168Y0034802D01*
X0027168Y0034902D01*
X0027267Y0034902D01*
X0029227Y0034531D02*
X0029227Y0034432D01*
X0029127Y0034432D01*
X0029127Y0034531D01*
X0029227Y0034531D01*
X0029227Y0034796D02*
X0029227Y0034896D01*
X0029227Y0034796D02*
X0029127Y0034796D01*
X0029127Y0034896D01*
X0029227Y0034896D01*
D30*
X0033385Y0030819D03*
X0032585Y0030469D03*
X0032585Y0031169D03*
X0033385Y0033269D03*
X0032585Y0032919D03*
X0032585Y0033619D03*
D31*
X0020078Y0031496D03*
X0004724Y0033070D03*
D23*
X0032703Y0029769D02*
X0032802Y0029769D01*
X0032703Y0029769D02*
X0032703Y0029869D01*
X0032802Y0029869D01*
X0032802Y0029769D01*
X0033067Y0029769D02*
X0033166Y0029769D01*
X0033067Y0029769D02*
X0033067Y0029869D01*
X0033166Y0029869D01*
X0033166Y0029769D01*
X0032802Y0032219D02*
X0032703Y0032219D01*
X0032703Y0032319D01*
X0032802Y0032319D01*
X0032802Y0032219D01*
X0033067Y0032219D02*
X0033166Y0032219D01*
X0033067Y0032219D02*
X0033067Y0032319D01*
X0033166Y0032319D01*
X0033166Y0032219D01*
X0033166Y0031869D02*
X0033067Y0031869D01*
X0033166Y0031869D02*
X0033166Y0031769D01*
X0033067Y0031769D01*
X0033067Y0031869D01*
X0032802Y0031869D02*
X0032703Y0031869D01*
X0032802Y0031869D02*
X0032802Y0031769D01*
X0032703Y0031769D01*
X0032703Y0031869D01*
X0033117Y0034319D02*
X0033216Y0034319D01*
X0033216Y0034219D01*
X0033117Y0034219D01*
X0033117Y0034319D01*
X0032852Y0034319D02*
X0032753Y0034319D01*
X0032852Y0034319D02*
X0032852Y0034219D01*
X0032753Y0034219D01*
X0032753Y0034319D01*
X0029155Y0033650D02*
X0029155Y0033550D01*
X0029155Y0033650D02*
X0029254Y0033650D01*
X0029254Y0033550D01*
X0029155Y0033550D01*
X0029155Y0033286D02*
X0029155Y0033186D01*
X0029155Y0033286D02*
X0029254Y0033286D01*
X0029254Y0033186D01*
X0029155Y0033186D01*
D31*
X0024409Y0033070D03*
X0024409Y0031496D03*
D32*
X0034704Y0030511D03*
X0034704Y0030905D03*
X0034704Y0031299D03*
X0034704Y0031692D03*
X0034704Y0032086D03*
X0034704Y0032480D03*
X0034704Y0032874D03*
X0034704Y0033267D03*
X0034704Y0033661D03*
X0034704Y0034055D03*
D33*
X0035728Y0034901D03*
X0035728Y0029665D03*
D23*
X0029608Y0034423D02*
X0029608Y0034523D01*
X0029608Y0034423D02*
X0029509Y0034423D01*
X0029509Y0034523D01*
X0029608Y0034523D01*
X0029608Y0034787D02*
X0029608Y0034887D01*
X0029608Y0034787D02*
X0029509Y0034787D01*
X0029509Y0034887D01*
X0029608Y0034887D01*
G04 next file*
G04 EAGLE Gerber RS-274X export*
G75*
G01*
G36*
X0034812Y0024014D02*
X0034812Y0024014D01*
X0034812Y0024014D01*
X0034813Y0024010D01*
X0034814Y0024006D01*
X0034814Y0024005D01*
X0034814Y0024004D01*
X0034816Y0024001D01*
X0034818Y0023997D01*
X0034819Y0023997D01*
X0034819Y0023996D01*
X0034822Y0023993D01*
X0034825Y0023990D01*
X0034826Y0023990D01*
X0034826Y0023990D01*
X0034830Y0023988D01*
X0034834Y0023986D01*
X0034835Y0023986D01*
X0034835Y0023986D01*
X0034842Y0023985D01*
X0036023Y0023985D01*
X0036024Y0023985D01*
X0036025Y0023985D01*
X0036029Y0023986D01*
X0036033Y0023987D01*
X0036033Y0023987D01*
X0036034Y0023987D01*
X0036038Y0023989D01*
X0036041Y0023991D01*
X0036042Y0023992D01*
X0036042Y0023992D01*
X0036045Y0023995D01*
X0036048Y0023998D01*
X0036048Y0023999D01*
X0036049Y0024000D01*
X0036050Y0024003D01*
X0036052Y0024007D01*
X0036052Y0024008D01*
X0036052Y0024009D01*
X0036053Y0024015D01*
X0036053Y0026023D01*
X0036053Y0026024D01*
X0036053Y0026025D01*
X0036052Y0026029D01*
X0036052Y0026033D01*
X0036051Y0026033D01*
X0036051Y0026034D01*
X0036049Y0026038D01*
X0036047Y0026041D01*
X0036046Y0026042D01*
X0036046Y0026042D01*
X0036043Y0026045D01*
X0036040Y0026048D01*
X0036039Y0026048D01*
X0036039Y0026049D01*
X0036035Y0026050D01*
X0036031Y0026052D01*
X0036030Y0026052D01*
X0036030Y0026052D01*
X0036023Y0026053D01*
X0034842Y0026053D01*
X0034841Y0026053D01*
X0034840Y0026053D01*
X0034836Y0026052D01*
X0034832Y0026052D01*
X0034832Y0026051D01*
X0034831Y0026051D01*
X0034827Y0026049D01*
X0034824Y0026047D01*
X0034823Y0026046D01*
X0034823Y0026046D01*
X0034820Y0026043D01*
X0034817Y0026040D01*
X0034817Y0026039D01*
X0034816Y0026039D01*
X0034815Y0026035D01*
X0034813Y0026031D01*
X0034813Y0026030D01*
X0034813Y0026030D01*
X0034812Y0026023D01*
X0034812Y0024015D01*
X0034812Y0024014D01*
G37*
G36*
X0019458Y0025156D02*
X0019458Y0025156D01*
X0019458Y0025155D01*
X0019459Y0025151D01*
X0019459Y0025147D01*
X0019460Y0025147D01*
X0019460Y0025146D01*
X0019462Y0025142D01*
X0019464Y0025139D01*
X0019464Y0025138D01*
X0019465Y0025138D01*
X0019468Y0025135D01*
X0019471Y0025132D01*
X0019472Y0025132D01*
X0019472Y0025131D01*
X0019476Y0025130D01*
X0019480Y0025128D01*
X0019480Y0025128D01*
X0019481Y0025128D01*
X0019488Y0025127D01*
X0020669Y0025127D01*
X0020670Y0025127D01*
X0020670Y0025127D01*
X0020674Y0025128D01*
X0020678Y0025129D01*
X0020679Y0025129D01*
X0020680Y0025129D01*
X0020683Y0025131D01*
X0020687Y0025133D01*
X0020687Y0025134D01*
X0020688Y0025134D01*
X0020691Y0025137D01*
X0020694Y0025140D01*
X0020694Y0025141D01*
X0020694Y0025141D01*
X0020696Y0025145D01*
X0020698Y0025149D01*
X0020698Y0025150D01*
X0020698Y0025150D01*
X0020699Y0025157D01*
X0020699Y0027165D01*
X0020699Y0027166D01*
X0020699Y0027166D01*
X0020698Y0027170D01*
X0020697Y0027174D01*
X0020697Y0027175D01*
X0020697Y0027176D01*
X0020695Y0027179D01*
X0020693Y0027183D01*
X0020692Y0027184D01*
X0020692Y0027184D01*
X0020689Y0027187D01*
X0020686Y0027190D01*
X0020685Y0027190D01*
X0020684Y0027190D01*
X0020681Y0027192D01*
X0020677Y0027194D01*
X0020676Y0027194D01*
X0020675Y0027194D01*
X0020669Y0027195D01*
X0019488Y0027195D01*
X0019487Y0027195D01*
X0019486Y0027195D01*
X0019482Y0027194D01*
X0019478Y0027193D01*
X0019477Y0027193D01*
X0019477Y0027193D01*
X0019473Y0027191D01*
X0019470Y0027189D01*
X0019469Y0027188D01*
X0019468Y0027188D01*
X0019466Y0027185D01*
X0019463Y0027182D01*
X0019463Y0027181D01*
X0019462Y0027180D01*
X0019461Y0027177D01*
X0019459Y0027173D01*
X0019459Y0027172D01*
X0019458Y0027171D01*
X0019458Y0027165D01*
X0019458Y0025157D01*
X0019458Y0025156D01*
G37*
G36*
X0006082Y0022283D02*
X0006082Y0022283D01*
X0006082Y0022282D01*
X0006083Y0022279D01*
X0006084Y0022275D01*
X0006084Y0022275D01*
X0006084Y0022275D01*
X0006086Y0022272D01*
X0006088Y0022269D01*
X0006088Y0022269D01*
X0006089Y0022268D01*
X0006092Y0022267D01*
X0006095Y0022265D01*
X0006095Y0022265D01*
X0006095Y0022264D01*
X0006102Y0022263D01*
X0008385Y0022263D01*
X0008386Y0022263D01*
X0008386Y0022263D01*
X0008389Y0022264D01*
X0008393Y0022265D01*
X0008393Y0022265D01*
X0008394Y0022265D01*
X0008396Y0022267D01*
X0008399Y0022269D01*
X0008400Y0022270D01*
X0008400Y0022270D01*
X0008402Y0022273D01*
X0008404Y0022276D01*
X0008404Y0022276D01*
X0008404Y0022277D01*
X0008405Y0022283D01*
X0008405Y0023110D01*
X0008405Y0023110D01*
X0008405Y0023110D01*
X0008404Y0023114D01*
X0008403Y0023117D01*
X0008403Y0023118D01*
X0008403Y0023118D01*
X0008401Y0023121D01*
X0008399Y0023124D01*
X0008399Y0023124D01*
X0008399Y0023124D01*
X0008395Y0023126D01*
X0008392Y0023128D01*
X0008392Y0023128D01*
X0008392Y0023128D01*
X0008385Y0023129D01*
X0006102Y0023129D01*
X0006102Y0023129D01*
X0006101Y0023129D01*
X0006098Y0023129D01*
X0006094Y0023128D01*
X0006094Y0023128D01*
X0006094Y0023128D01*
X0006091Y0023125D01*
X0006088Y0023123D01*
X0006088Y0023123D01*
X0006087Y0023123D01*
X0006085Y0023120D01*
X0006084Y0023117D01*
X0006083Y0023116D01*
X0006083Y0023116D01*
X0006082Y0023110D01*
X0006082Y0022283D01*
X0006082Y0022283D01*
G37*
G36*
X0009787Y0024881D02*
X0009787Y0024881D01*
X0009787Y0024704D01*
X0009787Y0024704D01*
X0009787Y0024704D01*
X0009788Y0024700D01*
X0009788Y0024697D01*
X0009789Y0024696D01*
X0009789Y0024696D01*
X0009791Y0024693D01*
X0009793Y0024690D01*
X0009793Y0024690D01*
X0009793Y0024690D01*
X0009796Y0024688D01*
X0009800Y0024686D01*
X0009800Y0024686D01*
X0009800Y0024686D01*
X0009807Y0024685D01*
X0009925Y0024685D01*
X0009925Y0024685D01*
X0009925Y0024685D01*
X0009925Y0024685D01*
X0009925Y0024685D01*
X0009929Y0024685D01*
X0009932Y0024686D01*
X0009933Y0024686D01*
X0009933Y0024686D01*
X0009936Y0024689D01*
X0009939Y0024691D01*
X0009939Y0024691D01*
X0009939Y0024691D01*
X0009941Y0024694D01*
X0009943Y0024697D01*
X0009943Y0024697D01*
X0009943Y0024698D01*
X0009944Y0024704D01*
X0009944Y0024881D01*
X0009945Y0024899D01*
X0009944Y0024901D01*
X0009944Y0024904D01*
X0009939Y0024922D01*
X0009939Y0024924D01*
X0009938Y0024927D01*
X0009929Y0024943D01*
X0009927Y0024944D01*
X0009926Y0024947D01*
X0009913Y0024960D01*
X0009911Y0024961D01*
X0009909Y0024963D01*
X0009893Y0024972D01*
X0009891Y0024973D01*
X0009888Y0024974D01*
X0009871Y0024979D01*
X0009869Y0024979D01*
X0009867Y0024980D01*
X0009865Y0024980D01*
X0009865Y0024980D01*
X0009864Y0024980D01*
X0009863Y0024980D01*
X0009862Y0024979D01*
X0009860Y0024979D01*
X0009843Y0024974D01*
X0009841Y0024973D01*
X0009838Y0024972D01*
X0009822Y0024963D01*
X0009821Y0024962D01*
X0009818Y0024960D01*
X0009806Y0024947D01*
X0009805Y0024945D01*
X0009803Y0024943D01*
X0009794Y0024927D01*
X0009793Y0024925D01*
X0009792Y0024922D01*
X0009787Y0024904D01*
X0009787Y0024903D01*
X0009787Y0024899D01*
X0009787Y0024881D01*
G37*
G36*
X0009590Y0024881D02*
X0009590Y0024881D01*
X0009590Y0024704D01*
X0009590Y0024704D01*
X0009590Y0024704D01*
X0009591Y0024700D01*
X0009592Y0024697D01*
X0009592Y0024696D01*
X0009592Y0024696D01*
X0009594Y0024693D01*
X0009596Y0024690D01*
X0009596Y0024690D01*
X0009597Y0024690D01*
X0009600Y0024688D01*
X0009603Y0024686D01*
X0009603Y0024686D01*
X0009603Y0024686D01*
X0009610Y0024685D01*
X0009728Y0024685D01*
X0009728Y0024685D01*
X0009728Y0024685D01*
X0009728Y0024685D01*
X0009729Y0024685D01*
X0009732Y0024685D01*
X0009736Y0024686D01*
X0009736Y0024686D01*
X0009736Y0024686D01*
X0009739Y0024689D01*
X0009742Y0024691D01*
X0009742Y0024691D01*
X0009742Y0024691D01*
X0009744Y0024694D01*
X0009746Y0024697D01*
X0009746Y0024697D01*
X0009746Y0024698D01*
X0009747Y0024704D01*
X0009747Y0024881D01*
X0009748Y0024899D01*
X0009747Y0024901D01*
X0009747Y0024904D01*
X0009743Y0024922D01*
X0009742Y0024924D01*
X0009741Y0024927D01*
X0009732Y0024943D01*
X0009731Y0024944D01*
X0009729Y0024947D01*
X0009716Y0024960D01*
X0009715Y0024961D01*
X0009712Y0024963D01*
X0009696Y0024972D01*
X0009695Y0024973D01*
X0009692Y0024974D01*
X0009674Y0024979D01*
X0009672Y0024979D01*
X0009670Y0024980D01*
X0009668Y0024980D01*
X0009668Y0024980D01*
X0009667Y0024980D01*
X0009666Y0024980D01*
X0009665Y0024979D01*
X0009663Y0024979D01*
X0009646Y0024974D01*
X0009644Y0024973D01*
X0009641Y0024972D01*
X0009626Y0024963D01*
X0009624Y0024962D01*
X0009622Y0024960D01*
X0009609Y0024947D01*
X0009608Y0024945D01*
X0009606Y0024943D01*
X0009597Y0024927D01*
X0009596Y0024925D01*
X0009595Y0024922D01*
X0009590Y0024904D01*
X0009590Y0024903D01*
X0009590Y0024899D01*
X0009590Y0024881D01*
G37*
G36*
X0009393Y0024881D02*
X0009393Y0024881D01*
X0009393Y0024704D01*
X0009393Y0024704D01*
X0009393Y0024704D01*
X0009394Y0024700D01*
X0009395Y0024697D01*
X0009395Y0024696D01*
X0009395Y0024696D01*
X0009397Y0024693D01*
X0009399Y0024690D01*
X0009399Y0024690D01*
X0009400Y0024690D01*
X0009403Y0024688D01*
X0009406Y0024686D01*
X0009406Y0024686D01*
X0009406Y0024686D01*
X0009413Y0024685D01*
X0009531Y0024685D01*
X0009531Y0024685D01*
X0009531Y0024685D01*
X0009531Y0024685D01*
X0009532Y0024685D01*
X0009535Y0024685D01*
X0009539Y0024686D01*
X0009539Y0024686D01*
X0009539Y0024686D01*
X0009542Y0024689D01*
X0009545Y0024691D01*
X0009545Y0024691D01*
X0009546Y0024691D01*
X0009547Y0024694D01*
X0009549Y0024697D01*
X0009549Y0024697D01*
X0009550Y0024698D01*
X0009551Y0024704D01*
X0009551Y0024881D01*
X0009551Y0024899D01*
X0009551Y0024901D01*
X0009550Y0024904D01*
X0009546Y0024922D01*
X0009545Y0024924D01*
X0009544Y0024927D01*
X0009535Y0024943D01*
X0009534Y0024944D01*
X0009532Y0024947D01*
X0009519Y0024960D01*
X0009518Y0024961D01*
X0009515Y0024963D01*
X0009499Y0024972D01*
X0009498Y0024973D01*
X0009495Y0024974D01*
X0009477Y0024979D01*
X0009475Y0024979D01*
X0009473Y0024980D01*
X0009472Y0024980D01*
X0009471Y0024980D01*
X0009470Y0024980D01*
X0009469Y0024980D01*
X0009468Y0024979D01*
X0009467Y0024979D01*
X0009449Y0024974D01*
X0009448Y0024973D01*
X0009444Y0024972D01*
X0009429Y0024963D01*
X0009427Y0024962D01*
X0009425Y0024960D01*
X0009412Y0024947D01*
X0009411Y0024945D01*
X0009409Y0024943D01*
X0009400Y0024927D01*
X0009400Y0024925D01*
X0009398Y0024922D01*
X0009394Y0024904D01*
X0009394Y0024903D01*
X0009393Y0024899D01*
X0009393Y0024881D01*
G37*
G36*
X0009196Y0024881D02*
X0009196Y0024881D01*
X0009196Y0024704D01*
X0009196Y0024704D01*
X0009196Y0024704D01*
X0009197Y0024700D01*
X0009198Y0024697D01*
X0009198Y0024696D01*
X0009198Y0024696D01*
X0009200Y0024693D01*
X0009202Y0024690D01*
X0009203Y0024690D01*
X0009203Y0024690D01*
X0009206Y0024688D01*
X0009209Y0024686D01*
X0009209Y0024686D01*
X0009210Y0024686D01*
X0009216Y0024685D01*
X0009334Y0024685D01*
X0009334Y0024685D01*
X0009334Y0024685D01*
X0009335Y0024685D01*
X0009335Y0024685D01*
X0009338Y0024685D01*
X0009342Y0024686D01*
X0009342Y0024686D01*
X0009342Y0024686D01*
X0009345Y0024689D01*
X0009348Y0024691D01*
X0009348Y0024691D01*
X0009349Y0024691D01*
X0009351Y0024694D01*
X0009352Y0024697D01*
X0009353Y0024697D01*
X0009353Y0024698D01*
X0009354Y0024704D01*
X0009354Y0024881D01*
X0009354Y0024899D01*
X0009354Y0024901D01*
X0009353Y0024904D01*
X0009349Y0024922D01*
X0009348Y0024924D01*
X0009347Y0024927D01*
X0009338Y0024943D01*
X0009337Y0024944D01*
X0009335Y0024947D01*
X0009322Y0024960D01*
X0009321Y0024961D01*
X0009318Y0024963D01*
X0009303Y0024972D01*
X0009301Y0024973D01*
X0009298Y0024974D01*
X0009280Y0024979D01*
X0009278Y0024979D01*
X0009276Y0024980D01*
X0009275Y0024980D01*
X0009274Y0024980D01*
X0009274Y0024980D01*
X0009273Y0024980D01*
X0009271Y0024979D01*
X0009270Y0024979D01*
X0009252Y0024974D01*
X0009251Y0024973D01*
X0009248Y0024972D01*
X0009232Y0024963D01*
X0009231Y0024962D01*
X0009228Y0024960D01*
X0009215Y0024947D01*
X0009214Y0024945D01*
X0009212Y0024943D01*
X0009203Y0024927D01*
X0009203Y0024925D01*
X0009201Y0024922D01*
X0009197Y0024904D01*
X0009197Y0024903D01*
X0009196Y0024899D01*
X0009196Y0024881D01*
G37*
G36*
X0009000Y0024881D02*
X0009000Y0024881D01*
X0009000Y0024704D01*
X0009000Y0024704D01*
X0009000Y0024704D01*
X0009000Y0024700D01*
X0009001Y0024697D01*
X0009001Y0024696D01*
X0009001Y0024696D01*
X0009003Y0024693D01*
X0009006Y0024690D01*
X0009006Y0024690D01*
X0009006Y0024690D01*
X0009009Y0024688D01*
X0009012Y0024686D01*
X0009012Y0024686D01*
X0009013Y0024686D01*
X0009019Y0024685D01*
X0009137Y0024685D01*
X0009137Y0024685D01*
X0009138Y0024685D01*
X0009138Y0024685D01*
X0009138Y0024685D01*
X0009141Y0024685D01*
X0009145Y0024686D01*
X0009145Y0024686D01*
X0009146Y0024686D01*
X0009148Y0024689D01*
X0009151Y0024691D01*
X0009152Y0024691D01*
X0009152Y0024691D01*
X0009154Y0024694D01*
X0009156Y0024697D01*
X0009156Y0024697D01*
X0009156Y0024698D01*
X0009157Y0024704D01*
X0009157Y0024881D01*
X0009157Y0024899D01*
X0009157Y0024901D01*
X0009157Y0024904D01*
X0009152Y0024922D01*
X0009151Y0024924D01*
X0009150Y0024927D01*
X0009141Y0024943D01*
X0009140Y0024944D01*
X0009138Y0024947D01*
X0009125Y0024960D01*
X0009124Y0024961D01*
X0009121Y0024963D01*
X0009106Y0024972D01*
X0009104Y0024973D01*
X0009101Y0024974D01*
X0009084Y0024979D01*
X0009081Y0024979D01*
X0009079Y0024980D01*
X0009078Y0024980D01*
X0009077Y0024980D01*
X0009077Y0024980D01*
X0009076Y0024980D01*
X0009075Y0024979D01*
X0009073Y0024979D01*
X0009055Y0024974D01*
X0009054Y0024973D01*
X0009051Y0024972D01*
X0009035Y0024963D01*
X0009034Y0024962D01*
X0009031Y0024960D01*
X0009018Y0024947D01*
X0009017Y0024945D01*
X0009015Y0024943D01*
X0009006Y0024927D01*
X0009006Y0024925D01*
X0009004Y0024922D01*
X0009000Y0024904D01*
X0009000Y0024903D01*
X0008999Y0024899D01*
X0009000Y0024881D01*
G37*
G36*
X0009787Y0026279D02*
X0009787Y0026279D01*
X0009787Y0026276D01*
X0009792Y0026258D01*
X0009793Y0026256D01*
X0009794Y0026253D01*
X0009803Y0026237D01*
X0009804Y0026236D01*
X0009806Y0026233D01*
X0009818Y0026220D01*
X0009820Y0026219D01*
X0009822Y0026217D01*
X0009838Y0026208D01*
X0009840Y0026207D01*
X0009843Y0026206D01*
X0009860Y0026201D01*
X0009862Y0026201D01*
X0009864Y0026200D01*
X0009866Y0026200D01*
X0009866Y0026200D01*
X0009867Y0026201D01*
X0009868Y0026200D01*
X0009869Y0026201D01*
X0009871Y0026201D01*
X0009888Y0026206D01*
X0009890Y0026207D01*
X0009893Y0026208D01*
X0009909Y0026217D01*
X0009910Y0026218D01*
X0009913Y0026220D01*
X0009926Y0026233D01*
X0009927Y0026235D01*
X0009929Y0026237D01*
X0009938Y0026253D01*
X0009938Y0026255D01*
X0009939Y0026258D01*
X0009944Y0026276D01*
X0009944Y0026277D01*
X0009945Y0026281D01*
X0009944Y0026299D01*
X0009944Y0026476D01*
X0009944Y0026476D01*
X0009944Y0026477D01*
X0009944Y0026480D01*
X0009943Y0026484D01*
X0009943Y0026484D01*
X0009942Y0026484D01*
X0009940Y0026487D01*
X0009938Y0026490D01*
X0009938Y0026490D01*
X0009938Y0026490D01*
X0009935Y0026492D01*
X0009932Y0026494D01*
X0009931Y0026494D01*
X0009931Y0026494D01*
X0009925Y0026496D01*
X0009807Y0026496D01*
X0009806Y0026495D01*
X0009806Y0026496D01*
X0009802Y0026495D01*
X0009799Y0026494D01*
X0009799Y0026494D01*
X0009798Y0026494D01*
X0009795Y0026492D01*
X0009792Y0026490D01*
X0009792Y0026489D01*
X0009792Y0026489D01*
X0009790Y0026486D01*
X0009788Y0026483D01*
X0009788Y0026483D01*
X0009788Y0026482D01*
X0009787Y0026476D01*
X0009787Y0026299D01*
X0009787Y0026281D01*
X0009787Y0026279D01*
G37*
G36*
X0009590Y0026279D02*
X0009590Y0026279D01*
X0009590Y0026276D01*
X0009595Y0026258D01*
X0009596Y0026256D01*
X0009597Y0026253D01*
X0009606Y0026237D01*
X0009607Y0026236D01*
X0009609Y0026233D01*
X0009622Y0026220D01*
X0009623Y0026219D01*
X0009626Y0026217D01*
X0009641Y0026208D01*
X0009643Y0026207D01*
X0009646Y0026206D01*
X0009663Y0026201D01*
X0009666Y0026201D01*
X0009668Y0026200D01*
X0009669Y0026200D01*
X0009669Y0026200D01*
X0009670Y0026201D01*
X0009671Y0026200D01*
X0009672Y0026201D01*
X0009674Y0026201D01*
X0009692Y0026206D01*
X0009693Y0026207D01*
X0009696Y0026208D01*
X0009712Y0026217D01*
X0009713Y0026218D01*
X0009716Y0026220D01*
X0009729Y0026233D01*
X0009730Y0026235D01*
X0009732Y0026237D01*
X0009741Y0026253D01*
X0009741Y0026255D01*
X0009743Y0026258D01*
X0009747Y0026276D01*
X0009747Y0026277D01*
X0009748Y0026281D01*
X0009747Y0026299D01*
X0009747Y0026476D01*
X0009747Y0026476D01*
X0009747Y0026477D01*
X0009747Y0026480D01*
X0009746Y0026484D01*
X0009746Y0026484D01*
X0009746Y0026484D01*
X0009744Y0026487D01*
X0009742Y0026490D01*
X0009741Y0026490D01*
X0009741Y0026490D01*
X0009738Y0026492D01*
X0009735Y0026494D01*
X0009735Y0026494D01*
X0009734Y0026494D01*
X0009728Y0026496D01*
X0009610Y0026496D01*
X0009609Y0026495D01*
X0009609Y0026496D01*
X0009606Y0026495D01*
X0009602Y0026494D01*
X0009602Y0026494D01*
X0009601Y0026494D01*
X0009599Y0026492D01*
X0009596Y0026490D01*
X0009595Y0026489D01*
X0009595Y0026489D01*
X0009593Y0026486D01*
X0009591Y0026483D01*
X0009591Y0026483D01*
X0009591Y0026482D01*
X0009590Y0026476D01*
X0009590Y0026299D01*
X0009590Y0026281D01*
X0009590Y0026279D01*
G37*
G36*
X0009393Y0026279D02*
X0009393Y0026279D01*
X0009394Y0026276D01*
X0009398Y0026258D01*
X0009399Y0026256D01*
X0009400Y0026253D01*
X0009409Y0026237D01*
X0009410Y0026236D01*
X0009412Y0026233D01*
X0009425Y0026220D01*
X0009426Y0026219D01*
X0009429Y0026217D01*
X0009444Y0026208D01*
X0009446Y0026207D01*
X0009449Y0026206D01*
X0009467Y0026201D01*
X0009469Y0026201D01*
X0009471Y0026200D01*
X0009472Y0026200D01*
X0009472Y0026200D01*
X0009473Y0026201D01*
X0009474Y0026200D01*
X0009476Y0026201D01*
X0009477Y0026201D01*
X0009495Y0026206D01*
X0009496Y0026207D01*
X0009499Y0026208D01*
X0009515Y0026217D01*
X0009516Y0026218D01*
X0009519Y0026220D01*
X0009532Y0026233D01*
X0009533Y0026235D01*
X0009535Y0026237D01*
X0009544Y0026253D01*
X0009544Y0026255D01*
X0009546Y0026258D01*
X0009550Y0026276D01*
X0009550Y0026277D01*
X0009551Y0026281D01*
X0009551Y0026299D01*
X0009551Y0026476D01*
X0009551Y0026476D01*
X0009551Y0026477D01*
X0009550Y0026480D01*
X0009549Y0026484D01*
X0009549Y0026484D01*
X0009549Y0026484D01*
X0009547Y0026487D01*
X0009545Y0026490D01*
X0009544Y0026490D01*
X0009544Y0026490D01*
X0009541Y0026492D01*
X0009538Y0026494D01*
X0009538Y0026494D01*
X0009537Y0026494D01*
X0009531Y0026496D01*
X0009413Y0026496D01*
X0009413Y0026495D01*
X0009412Y0026496D01*
X0009409Y0026495D01*
X0009405Y0026494D01*
X0009405Y0026494D01*
X0009405Y0026494D01*
X0009402Y0026492D01*
X0009399Y0026490D01*
X0009399Y0026489D01*
X0009398Y0026489D01*
X0009396Y0026486D01*
X0009395Y0026483D01*
X0009395Y0026483D01*
X0009394Y0026482D01*
X0009393Y0026476D01*
X0009393Y0026299D01*
X0009393Y0026281D01*
X0009393Y0026279D01*
G37*
G36*
X0009196Y0026279D02*
X0009196Y0026279D01*
X0009197Y0026276D01*
X0009201Y0026258D01*
X0009202Y0026256D01*
X0009203Y0026253D01*
X0009212Y0026237D01*
X0009213Y0026236D01*
X0009215Y0026233D01*
X0009228Y0026220D01*
X0009229Y0026219D01*
X0009232Y0026217D01*
X0009248Y0026208D01*
X0009249Y0026207D01*
X0009252Y0026206D01*
X0009270Y0026201D01*
X0009272Y0026201D01*
X0009274Y0026200D01*
X0009275Y0026200D01*
X0009275Y0026200D01*
X0009276Y0026201D01*
X0009278Y0026200D01*
X0009279Y0026201D01*
X0009280Y0026201D01*
X0009298Y0026206D01*
X0009299Y0026207D01*
X0009303Y0026208D01*
X0009318Y0026217D01*
X0009320Y0026218D01*
X0009322Y0026220D01*
X0009335Y0026233D01*
X0009336Y0026235D01*
X0009338Y0026237D01*
X0009347Y0026253D01*
X0009347Y0026255D01*
X0009349Y0026258D01*
X0009353Y0026276D01*
X0009353Y0026277D01*
X0009354Y0026281D01*
X0009354Y0026299D01*
X0009354Y0026476D01*
X0009354Y0026476D01*
X0009354Y0026477D01*
X0009353Y0026480D01*
X0009352Y0026484D01*
X0009352Y0026484D01*
X0009352Y0026484D01*
X0009350Y0026487D01*
X0009348Y0026490D01*
X0009348Y0026490D01*
X0009347Y0026490D01*
X0009344Y0026492D01*
X0009341Y0026494D01*
X0009341Y0026494D01*
X0009341Y0026494D01*
X0009334Y0026496D01*
X0009216Y0026496D01*
X0009216Y0026495D01*
X0009215Y0026496D01*
X0009212Y0026495D01*
X0009208Y0026494D01*
X0009208Y0026494D01*
X0009208Y0026494D01*
X0009205Y0026492D01*
X0009202Y0026490D01*
X0009202Y0026489D01*
X0009201Y0026489D01*
X0009200Y0026486D01*
X0009198Y0026483D01*
X0009198Y0026483D01*
X0009197Y0026482D01*
X0009196Y0026476D01*
X0009196Y0026299D01*
X0009196Y0026281D01*
X0009196Y0026279D01*
G37*
G36*
X0009000Y0026279D02*
X0009000Y0026279D01*
X0009000Y0026276D01*
X0009004Y0026258D01*
X0009005Y0026256D01*
X0009006Y0026253D01*
X0009015Y0026237D01*
X0009016Y0026236D01*
X0009018Y0026233D01*
X0009031Y0026220D01*
X0009033Y0026219D01*
X0009035Y0026217D01*
X0009051Y0026208D01*
X0009052Y0026207D01*
X0009055Y0026206D01*
X0009073Y0026201D01*
X0009075Y0026201D01*
X0009077Y0026200D01*
X0009078Y0026200D01*
X0009079Y0026200D01*
X0009079Y0026201D01*
X0009081Y0026200D01*
X0009082Y0026201D01*
X0009084Y0026201D01*
X0009101Y0026206D01*
X0009103Y0026207D01*
X0009106Y0026208D01*
X0009121Y0026217D01*
X0009123Y0026218D01*
X0009125Y0026220D01*
X0009138Y0026233D01*
X0009139Y0026235D01*
X0009141Y0026237D01*
X0009150Y0026253D01*
X0009151Y0026255D01*
X0009152Y0026258D01*
X0009157Y0026276D01*
X0009157Y0026277D01*
X0009157Y0026281D01*
X0009157Y0026299D01*
X0009157Y0026476D01*
X0009157Y0026476D01*
X0009157Y0026477D01*
X0009156Y0026480D01*
X0009155Y0026484D01*
X0009155Y0026484D01*
X0009155Y0026484D01*
X0009153Y0026487D01*
X0009151Y0026490D01*
X0009151Y0026490D01*
X0009150Y0026490D01*
X0009147Y0026492D01*
X0009144Y0026494D01*
X0009144Y0026494D01*
X0009144Y0026494D01*
X0009137Y0026496D01*
X0009019Y0026496D01*
X0009019Y0026495D01*
X0009019Y0026496D01*
X0009015Y0026495D01*
X0009012Y0026494D01*
X0009011Y0026494D01*
X0009011Y0026494D01*
X0009008Y0026492D01*
X0009005Y0026490D01*
X0009005Y0026489D01*
X0009005Y0026489D01*
X0009003Y0026486D01*
X0009001Y0026483D01*
X0009001Y0026483D01*
X0009001Y0026482D01*
X0009000Y0026476D01*
X0009000Y0026299D01*
X0008999Y0026281D01*
X0009000Y0026279D01*
G37*
G36*
X0010082Y0025589D02*
X0010082Y0025589D01*
X0010082Y0025588D01*
X0010083Y0025586D01*
X0010083Y0025585D01*
X0010088Y0025567D01*
X0010089Y0025566D01*
X0010090Y0025563D01*
X0010099Y0025547D01*
X0010100Y0025546D01*
X0010102Y0025543D01*
X0010115Y0025530D01*
X0010117Y0025529D01*
X0010119Y0025527D01*
X0010135Y0025518D01*
X0010137Y0025518D01*
X0010140Y0025516D01*
X0010158Y0025512D01*
X0010159Y0025512D01*
X0010163Y0025511D01*
X0010181Y0025511D01*
X0010358Y0025511D01*
X0010358Y0025511D01*
X0010358Y0025511D01*
X0010358Y0025511D01*
X0010358Y0025511D01*
X0010362Y0025512D01*
X0010365Y0025513D01*
X0010366Y0025513D01*
X0010366Y0025513D01*
X0010369Y0025515D01*
X0010372Y0025517D01*
X0010372Y0025518D01*
X0010372Y0025518D01*
X0010374Y0025521D01*
X0010376Y0025524D01*
X0010376Y0025524D01*
X0010376Y0025525D01*
X0010377Y0025531D01*
X0010377Y0025649D01*
X0010377Y0025649D01*
X0010377Y0025650D01*
X0010377Y0025653D01*
X0010376Y0025657D01*
X0010376Y0025657D01*
X0010376Y0025657D01*
X0010373Y0025660D01*
X0010371Y0025663D01*
X0010371Y0025663D01*
X0010371Y0025664D01*
X0010368Y0025666D01*
X0010365Y0025667D01*
X0010365Y0025667D01*
X0010364Y0025668D01*
X0010358Y0025669D01*
X0010181Y0025669D01*
X0010163Y0025669D01*
X0010161Y0025669D01*
X0010158Y0025668D01*
X0010140Y0025664D01*
X0010138Y0025663D01*
X0010135Y0025662D01*
X0010119Y0025653D01*
X0010118Y0025652D01*
X0010115Y0025650D01*
X0010102Y0025637D01*
X0010101Y0025636D01*
X0010099Y0025633D01*
X0010090Y0025618D01*
X0010089Y0025616D01*
X0010088Y0025613D01*
X0010083Y0025595D01*
X0010083Y0025593D01*
X0010082Y0025591D01*
X0010082Y0025589D01*
G37*
G36*
X0010082Y0025983D02*
X0010082Y0025983D01*
X0010082Y0025981D01*
X0010083Y0025980D01*
X0010083Y0025978D01*
X0010088Y0025961D01*
X0010089Y0025959D01*
X0010090Y0025956D01*
X0010099Y0025941D01*
X0010100Y0025939D01*
X0010102Y0025937D01*
X0010115Y0025924D01*
X0010117Y0025923D01*
X0010119Y0025921D01*
X0010135Y0025912D01*
X0010137Y0025911D01*
X0010140Y0025910D01*
X0010158Y0025905D01*
X0010159Y0025905D01*
X0010163Y0025905D01*
X0010181Y0025905D01*
X0010358Y0025905D01*
X0010358Y0025905D01*
X0010358Y0025905D01*
X0010358Y0025905D01*
X0010358Y0025905D01*
X0010362Y0025906D01*
X0010365Y0025907D01*
X0010366Y0025907D01*
X0010366Y0025907D01*
X0010369Y0025909D01*
X0010372Y0025911D01*
X0010372Y0025911D01*
X0010372Y0025912D01*
X0010374Y0025915D01*
X0010376Y0025918D01*
X0010376Y0025918D01*
X0010376Y0025918D01*
X0010377Y0025925D01*
X0010377Y0026043D01*
X0010377Y0026043D01*
X0010377Y0026043D01*
X0010377Y0026047D01*
X0010376Y0026050D01*
X0010376Y0026051D01*
X0010376Y0026051D01*
X0010373Y0026054D01*
X0010371Y0026057D01*
X0010371Y0026057D01*
X0010371Y0026057D01*
X0010368Y0026059D01*
X0010365Y0026061D01*
X0010365Y0026061D01*
X0010364Y0026061D01*
X0010358Y0026062D01*
X0010181Y0026062D01*
X0010163Y0026063D01*
X0010161Y0026062D01*
X0010158Y0026062D01*
X0010140Y0026058D01*
X0010138Y0026057D01*
X0010135Y0026056D01*
X0010119Y0026047D01*
X0010118Y0026046D01*
X0010115Y0026044D01*
X0010102Y0026031D01*
X0010101Y0026029D01*
X0010099Y0026027D01*
X0010090Y0026011D01*
X0010089Y0026010D01*
X0010088Y0026007D01*
X0010083Y0025989D01*
X0010083Y0025987D01*
X0010082Y0025985D01*
X0010082Y0025983D01*
G37*
G36*
X0010082Y0025786D02*
X0010082Y0025786D01*
X0010082Y0025784D01*
X0010083Y0025783D01*
X0010083Y0025782D01*
X0010088Y0025764D01*
X0010089Y0025763D01*
X0010090Y0025759D01*
X0010099Y0025744D01*
X0010100Y0025742D01*
X0010102Y0025740D01*
X0010115Y0025727D01*
X0010117Y0025726D01*
X0010119Y0025724D01*
X0010135Y0025715D01*
X0010137Y0025715D01*
X0010140Y0025713D01*
X0010158Y0025709D01*
X0010159Y0025709D01*
X0010163Y0025708D01*
X0010181Y0025708D01*
X0010358Y0025708D01*
X0010358Y0025708D01*
X0010358Y0025708D01*
X0010358Y0025708D01*
X0010358Y0025708D01*
X0010362Y0025709D01*
X0010365Y0025710D01*
X0010366Y0025710D01*
X0010366Y0025710D01*
X0010369Y0025712D01*
X0010372Y0025714D01*
X0010372Y0025714D01*
X0010372Y0025715D01*
X0010374Y0025718D01*
X0010376Y0025721D01*
X0010376Y0025721D01*
X0010376Y0025721D01*
X0010377Y0025728D01*
X0010377Y0025846D01*
X0010377Y0025846D01*
X0010377Y0025847D01*
X0010377Y0025850D01*
X0010376Y0025854D01*
X0010376Y0025854D01*
X0010376Y0025854D01*
X0010373Y0025857D01*
X0010371Y0025860D01*
X0010371Y0025860D01*
X0010371Y0025861D01*
X0010368Y0025862D01*
X0010365Y0025864D01*
X0010365Y0025864D01*
X0010364Y0025865D01*
X0010358Y0025866D01*
X0010181Y0025866D01*
X0010163Y0025866D01*
X0010161Y0025865D01*
X0010158Y0025865D01*
X0010140Y0025861D01*
X0010138Y0025860D01*
X0010135Y0025859D01*
X0010119Y0025850D01*
X0010118Y0025849D01*
X0010115Y0025847D01*
X0010102Y0025834D01*
X0010101Y0025833D01*
X0010099Y0025830D01*
X0010090Y0025814D01*
X0010089Y0025813D01*
X0010088Y0025810D01*
X0010083Y0025792D01*
X0010083Y0025790D01*
X0010082Y0025788D01*
X0010082Y0025786D01*
G37*
G36*
X0010082Y0025392D02*
X0010082Y0025392D01*
X0010082Y0025391D01*
X0010083Y0025390D01*
X0010083Y0025388D01*
X0010088Y0025370D01*
X0010089Y0025369D01*
X0010090Y0025366D01*
X0010099Y0025350D01*
X0010100Y0025349D01*
X0010102Y0025346D01*
X0010115Y0025333D01*
X0010117Y0025332D01*
X0010119Y0025330D01*
X0010135Y0025321D01*
X0010137Y0025321D01*
X0010140Y0025319D01*
X0010158Y0025315D01*
X0010159Y0025315D01*
X0010163Y0025314D01*
X0010181Y0025315D01*
X0010358Y0025315D01*
X0010358Y0025315D01*
X0010358Y0025315D01*
X0010358Y0025315D01*
X0010358Y0025315D01*
X0010362Y0025315D01*
X0010365Y0025316D01*
X0010366Y0025316D01*
X0010366Y0025316D01*
X0010369Y0025318D01*
X0010372Y0025320D01*
X0010372Y0025321D01*
X0010372Y0025321D01*
X0010374Y0025324D01*
X0010376Y0025327D01*
X0010376Y0025327D01*
X0010376Y0025328D01*
X0010377Y0025334D01*
X0010377Y0025452D01*
X0010377Y0025453D01*
X0010377Y0025453D01*
X0010377Y0025456D01*
X0010376Y0025460D01*
X0010376Y0025460D01*
X0010376Y0025461D01*
X0010373Y0025463D01*
X0010371Y0025466D01*
X0010371Y0025467D01*
X0010371Y0025467D01*
X0010368Y0025469D01*
X0010365Y0025471D01*
X0010365Y0025471D01*
X0010364Y0025471D01*
X0010358Y0025472D01*
X0010181Y0025472D01*
X0010163Y0025472D01*
X0010161Y0025472D01*
X0010158Y0025472D01*
X0010140Y0025467D01*
X0010138Y0025466D01*
X0010135Y0025465D01*
X0010119Y0025456D01*
X0010118Y0025455D01*
X0010115Y0025453D01*
X0010102Y0025440D01*
X0010101Y0025439D01*
X0010099Y0025436D01*
X0010090Y0025421D01*
X0010089Y0025419D01*
X0010088Y0025416D01*
X0010083Y0025399D01*
X0010083Y0025396D01*
X0010082Y0025394D01*
X0010082Y0025392D01*
G37*
G36*
X0010082Y0025195D02*
X0010082Y0025195D01*
X0010082Y0025194D01*
X0010083Y0025193D01*
X0010083Y0025191D01*
X0010088Y0025174D01*
X0010089Y0025172D01*
X0010090Y0025169D01*
X0010099Y0025153D01*
X0010100Y0025152D01*
X0010102Y0025149D01*
X0010115Y0025136D01*
X0010117Y0025135D01*
X0010119Y0025133D01*
X0010135Y0025124D01*
X0010137Y0025124D01*
X0010140Y0025123D01*
X0010158Y0025118D01*
X0010159Y0025118D01*
X0010163Y0025117D01*
X0010181Y0025118D01*
X0010358Y0025118D01*
X0010358Y0025118D01*
X0010358Y0025118D01*
X0010358Y0025118D01*
X0010358Y0025118D01*
X0010362Y0025118D01*
X0010365Y0025119D01*
X0010366Y0025119D01*
X0010366Y0025119D01*
X0010369Y0025122D01*
X0010372Y0025124D01*
X0010372Y0025124D01*
X0010372Y0025124D01*
X0010374Y0025127D01*
X0010376Y0025130D01*
X0010376Y0025131D01*
X0010376Y0025131D01*
X0010377Y0025137D01*
X0010377Y0025255D01*
X0010377Y0025256D01*
X0010377Y0025256D01*
X0010377Y0025260D01*
X0010376Y0025263D01*
X0010376Y0025263D01*
X0010376Y0025264D01*
X0010373Y0025267D01*
X0010371Y0025270D01*
X0010371Y0025270D01*
X0010371Y0025270D01*
X0010368Y0025272D01*
X0010365Y0025274D01*
X0010365Y0025274D01*
X0010364Y0025274D01*
X0010358Y0025275D01*
X0010181Y0025275D01*
X0010163Y0025275D01*
X0010161Y0025275D01*
X0010158Y0025275D01*
X0010140Y0025270D01*
X0010138Y0025269D01*
X0010135Y0025268D01*
X0010119Y0025259D01*
X0010118Y0025258D01*
X0010115Y0025256D01*
X0010102Y0025244D01*
X0010101Y0025242D01*
X0010099Y0025240D01*
X0010090Y0025224D01*
X0010089Y0025222D01*
X0010088Y0025219D01*
X0010083Y0025202D01*
X0010083Y0025200D01*
X0010082Y0025198D01*
X0010082Y0025195D01*
G37*
G36*
X0008566Y0025531D02*
X0008566Y0025531D01*
X0008566Y0025530D01*
X0008567Y0025527D01*
X0008568Y0025523D01*
X0008568Y0025523D01*
X0008568Y0025523D01*
X0008570Y0025520D01*
X0008572Y0025517D01*
X0008573Y0025517D01*
X0008573Y0025516D01*
X0008576Y0025515D01*
X0008579Y0025513D01*
X0008579Y0025513D01*
X0008580Y0025512D01*
X0008586Y0025511D01*
X0008763Y0025511D01*
X0008781Y0025511D01*
X0008783Y0025511D01*
X0008783Y0025512D01*
X0008783Y0025511D01*
X0008784Y0025512D01*
X0008786Y0025512D01*
X0008804Y0025516D01*
X0008806Y0025517D01*
X0008809Y0025518D01*
X0008825Y0025527D01*
X0008826Y0025528D01*
X0008829Y0025530D01*
X0008842Y0025543D01*
X0008843Y0025544D01*
X0008845Y0025547D01*
X0008854Y0025563D01*
X0008855Y0025564D01*
X0008856Y0025567D01*
X0008861Y0025585D01*
X0008861Y0025587D01*
X0008862Y0025589D01*
X0008861Y0025591D01*
X0008862Y0025593D01*
X0008861Y0025594D01*
X0008861Y0025595D01*
X0008856Y0025613D01*
X0008855Y0025614D01*
X0008854Y0025618D01*
X0008845Y0025633D01*
X0008844Y0025635D01*
X0008842Y0025637D01*
X0008829Y0025650D01*
X0008827Y0025651D01*
X0008825Y0025653D01*
X0008809Y0025662D01*
X0008807Y0025662D01*
X0008804Y0025664D01*
X0008786Y0025668D01*
X0008785Y0025668D01*
X0008781Y0025669D01*
X0008763Y0025669D01*
X0008586Y0025669D01*
X0008586Y0025669D01*
X0008585Y0025669D01*
X0008582Y0025668D01*
X0008578Y0025667D01*
X0008578Y0025667D01*
X0008578Y0025667D01*
X0008575Y0025665D01*
X0008572Y0025663D01*
X0008572Y0025662D01*
X0008572Y0025662D01*
X0008570Y0025659D01*
X0008568Y0025656D01*
X0008568Y0025656D01*
X0008568Y0025656D01*
X0008566Y0025649D01*
X0008566Y0025531D01*
X0008566Y0025531D01*
G37*
G36*
X0008566Y0025924D02*
X0008566Y0025924D01*
X0008566Y0025924D01*
X0008567Y0025921D01*
X0008568Y0025917D01*
X0008568Y0025917D01*
X0008568Y0025916D01*
X0008570Y0025914D01*
X0008572Y0025911D01*
X0008573Y0025910D01*
X0008573Y0025910D01*
X0008576Y0025908D01*
X0008579Y0025906D01*
X0008579Y0025906D01*
X0008580Y0025906D01*
X0008586Y0025905D01*
X0008763Y0025905D01*
X0008781Y0025905D01*
X0008783Y0025905D01*
X0008783Y0025905D01*
X0008783Y0025905D01*
X0008784Y0025905D01*
X0008786Y0025905D01*
X0008804Y0025910D01*
X0008806Y0025911D01*
X0008809Y0025912D01*
X0008825Y0025921D01*
X0008826Y0025922D01*
X0008829Y0025924D01*
X0008842Y0025937D01*
X0008843Y0025938D01*
X0008845Y0025941D01*
X0008854Y0025956D01*
X0008855Y0025958D01*
X0008856Y0025961D01*
X0008861Y0025978D01*
X0008861Y0025981D01*
X0008862Y0025983D01*
X0008861Y0025985D01*
X0008862Y0025986D01*
X0008861Y0025987D01*
X0008861Y0025989D01*
X0008856Y0026007D01*
X0008855Y0026008D01*
X0008854Y0026011D01*
X0008845Y0026027D01*
X0008844Y0026028D01*
X0008842Y0026031D01*
X0008829Y0026044D01*
X0008827Y0026045D01*
X0008825Y0026047D01*
X0008809Y0026056D01*
X0008807Y0026056D01*
X0008804Y0026058D01*
X0008786Y0026062D01*
X0008785Y0026062D01*
X0008781Y0026063D01*
X0008763Y0026062D01*
X0008586Y0026062D01*
X0008586Y0026062D01*
X0008585Y0026062D01*
X0008582Y0026062D01*
X0008578Y0026061D01*
X0008578Y0026061D01*
X0008578Y0026061D01*
X0008575Y0026059D01*
X0008572Y0026056D01*
X0008572Y0026056D01*
X0008572Y0026056D01*
X0008570Y0026053D01*
X0008568Y0026050D01*
X0008568Y0026050D01*
X0008568Y0026049D01*
X0008566Y0026043D01*
X0008566Y0025925D01*
X0008566Y0025924D01*
G37*
G36*
X0008566Y0025137D02*
X0008566Y0025137D01*
X0008566Y0025137D01*
X0008567Y0025133D01*
X0008568Y0025130D01*
X0008568Y0025129D01*
X0008568Y0025129D01*
X0008570Y0025126D01*
X0008572Y0025123D01*
X0008573Y0025123D01*
X0008573Y0025123D01*
X0008576Y0025121D01*
X0008579Y0025119D01*
X0008579Y0025119D01*
X0008580Y0025119D01*
X0008586Y0025118D01*
X0008763Y0025118D01*
X0008781Y0025117D01*
X0008783Y0025118D01*
X0008783Y0025118D01*
X0008783Y0025118D01*
X0008784Y0025118D01*
X0008786Y0025118D01*
X0008804Y0025123D01*
X0008806Y0025123D01*
X0008809Y0025124D01*
X0008825Y0025133D01*
X0008826Y0025135D01*
X0008829Y0025136D01*
X0008842Y0025149D01*
X0008843Y0025151D01*
X0008845Y0025153D01*
X0008854Y0025169D01*
X0008855Y0025171D01*
X0008856Y0025174D01*
X0008861Y0025191D01*
X0008861Y0025193D01*
X0008862Y0025195D01*
X0008861Y0025197D01*
X0008862Y0025199D01*
X0008861Y0025200D01*
X0008861Y0025202D01*
X0008856Y0025219D01*
X0008855Y0025221D01*
X0008854Y0025224D01*
X0008845Y0025240D01*
X0008844Y0025241D01*
X0008842Y0025244D01*
X0008829Y0025256D01*
X0008827Y0025257D01*
X0008825Y0025259D01*
X0008809Y0025268D01*
X0008807Y0025269D01*
X0008804Y0025270D01*
X0008786Y0025275D01*
X0008785Y0025275D01*
X0008781Y0025275D01*
X0008763Y0025275D01*
X0008586Y0025275D01*
X0008586Y0025275D01*
X0008585Y0025275D01*
X0008582Y0025274D01*
X0008578Y0025274D01*
X0008578Y0025273D01*
X0008578Y0025273D01*
X0008575Y0025271D01*
X0008572Y0025269D01*
X0008572Y0025269D01*
X0008572Y0025269D01*
X0008570Y0025266D01*
X0008568Y0025262D01*
X0008568Y0025262D01*
X0008568Y0025262D01*
X0008566Y0025255D01*
X0008566Y0025137D01*
X0008566Y0025137D01*
G37*
G36*
X0008566Y0025728D02*
X0008566Y0025728D01*
X0008566Y0025727D01*
X0008567Y0025724D01*
X0008568Y0025720D01*
X0008568Y0025720D01*
X0008568Y0025720D01*
X0008570Y0025717D01*
X0008572Y0025714D01*
X0008573Y0025714D01*
X0008573Y0025713D01*
X0008576Y0025711D01*
X0008579Y0025710D01*
X0008579Y0025709D01*
X0008580Y0025709D01*
X0008586Y0025708D01*
X0008763Y0025708D01*
X0008781Y0025708D01*
X0008783Y0025708D01*
X0008783Y0025708D01*
X0008783Y0025708D01*
X0008784Y0025708D01*
X0008786Y0025709D01*
X0008804Y0025713D01*
X0008806Y0025714D01*
X0008809Y0025715D01*
X0008825Y0025724D01*
X0008826Y0025725D01*
X0008829Y0025727D01*
X0008842Y0025740D01*
X0008843Y0025741D01*
X0008845Y0025744D01*
X0008854Y0025759D01*
X0008855Y0025761D01*
X0008856Y0025764D01*
X0008861Y0025782D01*
X0008861Y0025784D01*
X0008862Y0025786D01*
X0008861Y0025788D01*
X0008862Y0025789D01*
X0008861Y0025791D01*
X0008861Y0025792D01*
X0008856Y0025810D01*
X0008855Y0025811D01*
X0008854Y0025814D01*
X0008845Y0025830D01*
X0008844Y0025831D01*
X0008842Y0025834D01*
X0008829Y0025847D01*
X0008827Y0025848D01*
X0008825Y0025850D01*
X0008809Y0025859D01*
X0008807Y0025859D01*
X0008804Y0025861D01*
X0008786Y0025865D01*
X0008785Y0025865D01*
X0008781Y0025866D01*
X0008763Y0025866D01*
X0008586Y0025866D01*
X0008586Y0025866D01*
X0008585Y0025866D01*
X0008582Y0025865D01*
X0008578Y0025864D01*
X0008578Y0025864D01*
X0008578Y0025864D01*
X0008575Y0025862D01*
X0008572Y0025860D01*
X0008572Y0025859D01*
X0008572Y0025859D01*
X0008570Y0025856D01*
X0008568Y0025853D01*
X0008568Y0025853D01*
X0008568Y0025852D01*
X0008566Y0025846D01*
X0008566Y0025728D01*
X0008566Y0025728D01*
G37*
G36*
X0008566Y0025334D02*
X0008566Y0025334D01*
X0008566Y0025333D01*
X0008567Y0025330D01*
X0008568Y0025326D01*
X0008568Y0025326D01*
X0008568Y0025326D01*
X0008570Y0025323D01*
X0008572Y0025320D01*
X0008573Y0025320D01*
X0008573Y0025320D01*
X0008576Y0025318D01*
X0008579Y0025316D01*
X0008579Y0025316D01*
X0008580Y0025316D01*
X0008586Y0025315D01*
X0008763Y0025315D01*
X0008781Y0025314D01*
X0008783Y0025315D01*
X0008783Y0025315D01*
X0008783Y0025315D01*
X0008784Y0025315D01*
X0008786Y0025315D01*
X0008804Y0025319D01*
X0008806Y0025320D01*
X0008809Y0025321D01*
X0008825Y0025330D01*
X0008826Y0025331D01*
X0008829Y0025333D01*
X0008842Y0025346D01*
X0008843Y0025347D01*
X0008845Y0025350D01*
X0008854Y0025366D01*
X0008855Y0025367D01*
X0008856Y0025370D01*
X0008861Y0025388D01*
X0008861Y0025390D01*
X0008862Y0025392D01*
X0008861Y0025394D01*
X0008862Y0025396D01*
X0008861Y0025397D01*
X0008861Y0025399D01*
X0008856Y0025416D01*
X0008855Y0025418D01*
X0008854Y0025421D01*
X0008845Y0025436D01*
X0008844Y0025438D01*
X0008842Y0025440D01*
X0008829Y0025453D01*
X0008827Y0025454D01*
X0008825Y0025456D01*
X0008809Y0025465D01*
X0008807Y0025466D01*
X0008804Y0025467D01*
X0008786Y0025472D01*
X0008785Y0025472D01*
X0008781Y0025472D01*
X0008763Y0025472D01*
X0008586Y0025472D01*
X0008586Y0025472D01*
X0008585Y0025472D01*
X0008582Y0025471D01*
X0008578Y0025470D01*
X0008578Y0025470D01*
X0008578Y0025470D01*
X0008575Y0025468D01*
X0008572Y0025466D01*
X0008572Y0025466D01*
X0008572Y0025465D01*
X0008570Y0025462D01*
X0008568Y0025459D01*
X0008568Y0025459D01*
X0008568Y0025459D01*
X0008566Y0025452D01*
X0008566Y0025334D01*
X0008566Y0025334D01*
G37*
D34*
X0009448Y0028149D03*
X0009448Y0023031D03*
D35*
X0008299Y0024389D02*
X0008299Y0024488D01*
X0008299Y0024389D02*
X0008200Y0024389D01*
X0008200Y0024488D01*
X0008299Y0024488D01*
X0008299Y0024753D02*
X0008299Y0024852D01*
X0008299Y0024753D02*
X0008200Y0024753D01*
X0008200Y0024852D01*
X0008299Y0024852D01*
D36*
X0009472Y0025590D03*
D37*
X0012531Y0026374D03*
X0013200Y0026374D03*
D38*
X0012066Y0028387D03*
X0012440Y0027521D03*
X0011692Y0027521D03*
D35*
X0011642Y0026796D02*
X0011642Y0026696D01*
X0011642Y0026796D02*
X0011741Y0026796D01*
X0011741Y0026696D01*
X0011642Y0026696D01*
X0011642Y0026432D02*
X0011642Y0026332D01*
X0011642Y0026432D02*
X0011741Y0026432D01*
X0011741Y0026332D01*
X0011642Y0026332D01*
D38*
X0013758Y0027521D03*
X0013384Y0028387D03*
X0014132Y0028387D03*
D35*
X0010922Y0028186D02*
X0010922Y0028086D01*
X0010922Y0028186D02*
X0011022Y0028186D01*
X0011022Y0028086D01*
X0010922Y0028086D01*
X0010922Y0027822D02*
X0010922Y0027722D01*
X0010922Y0027822D02*
X0011022Y0027822D01*
X0011022Y0027722D01*
X0010922Y0027722D01*
D39*
X0013243Y0024731D03*
X0013243Y0024987D03*
X0013243Y0025243D03*
X0013243Y0025499D03*
X0011550Y0025499D03*
X0011550Y0025243D03*
X0011550Y0024987D03*
X0011550Y0024731D03*
D38*
X0013919Y0022665D03*
X0013545Y0023531D03*
X0014293Y0023531D03*
D40*
X0014394Y0024840D03*
X0014394Y0025529D03*
D41*
X0011968Y0023639D03*
X0012342Y0022694D03*
X0011594Y0022694D03*
D35*
X0012889Y0023336D02*
X0012889Y0023435D01*
X0012989Y0023435D01*
X0012989Y0023336D01*
X0012889Y0023336D01*
X0012889Y0023071D02*
X0012889Y0022971D01*
X0012889Y0023071D02*
X0012989Y0023071D01*
X0012989Y0022971D01*
X0012889Y0022971D01*
X0010930Y0023342D02*
X0010930Y0023441D01*
X0011029Y0023441D01*
X0011029Y0023342D01*
X0010930Y0023342D01*
X0010930Y0023077D02*
X0010930Y0022977D01*
X0010930Y0023077D02*
X0011029Y0023077D01*
X0011029Y0022977D01*
X0010930Y0022977D01*
D42*
X0006772Y0027054D03*
X0007572Y0027404D03*
X0007572Y0026704D03*
X0006772Y0024604D03*
X0007572Y0024954D03*
X0007572Y0024254D03*
D43*
X0020078Y0026377D03*
X0035433Y0024803D03*
D35*
X0007454Y0028104D02*
X0007354Y0028104D01*
X0007454Y0028104D02*
X0007454Y0028004D01*
X0007354Y0028004D01*
X0007354Y0028104D01*
X0007090Y0028104D02*
X0006990Y0028104D01*
X0007090Y0028104D02*
X0007090Y0028004D01*
X0006990Y0028004D01*
X0006990Y0028104D01*
X0007354Y0025654D02*
X0007454Y0025654D01*
X0007454Y0025554D01*
X0007354Y0025554D01*
X0007354Y0025654D01*
X0007090Y0025654D02*
X0006990Y0025654D01*
X0007090Y0025654D02*
X0007090Y0025554D01*
X0006990Y0025554D01*
X0006990Y0025654D01*
X0006990Y0026004D02*
X0007090Y0026004D01*
X0006990Y0026004D02*
X0006990Y0026104D01*
X0007090Y0026104D01*
X0007090Y0026004D01*
X0007354Y0026004D02*
X0007454Y0026004D01*
X0007354Y0026004D02*
X0007354Y0026104D01*
X0007454Y0026104D01*
X0007454Y0026004D01*
X0007040Y0023554D02*
X0006940Y0023554D01*
X0006940Y0023654D01*
X0007040Y0023654D01*
X0007040Y0023554D01*
X0007304Y0023554D02*
X0007404Y0023554D01*
X0007304Y0023554D02*
X0007304Y0023654D01*
X0007404Y0023654D01*
X0007404Y0023554D01*
X0011002Y0024223D02*
X0011002Y0024323D01*
X0011002Y0024223D02*
X0010902Y0024223D01*
X0010902Y0024323D01*
X0011002Y0024323D01*
X0011002Y0024587D02*
X0011002Y0024687D01*
X0011002Y0024587D02*
X0010902Y0024587D01*
X0010902Y0024687D01*
X0011002Y0024687D01*
D43*
X0015748Y0024803D03*
X0015748Y0026377D03*
D44*
X0005452Y0027362D03*
X0005452Y0026968D03*
X0005452Y0026574D03*
X0005452Y0026181D03*
X0005452Y0025787D03*
X0005452Y0025393D03*
X0005452Y0025000D03*
X0005452Y0024606D03*
X0005452Y0024212D03*
X0005452Y0023818D03*
D45*
X0004429Y0022972D03*
X0004429Y0028208D03*
D35*
X0010548Y0023450D02*
X0010548Y0023350D01*
X0010548Y0023450D02*
X0010648Y0023450D01*
X0010648Y0023350D01*
X0010548Y0023350D01*
X0010548Y0023086D02*
X0010548Y0022986D01*
X0010548Y0023086D02*
X0010648Y0023086D01*
X0010648Y0022986D01*
X0010548Y0022986D01*
G04 next file*
G04 EAGLE Gerber RS-274X export*
G75*
G01*
G36*
X0005344Y0020473D02*
X0005344Y0020473D01*
X0005344Y0020473D01*
X0005344Y0020477D01*
X0005343Y0020482D01*
X0005342Y0020482D01*
X0005342Y0020483D01*
X0005340Y0020486D01*
X0005338Y0020490D01*
X0005338Y0020491D01*
X0005337Y0020491D01*
X0005334Y0020494D01*
X0005331Y0020497D01*
X0005331Y0020497D01*
X0005330Y0020498D01*
X0005326Y0020499D01*
X0005322Y0020501D01*
X0005322Y0020501D01*
X0005321Y0020501D01*
X0005314Y0020502D01*
X0004133Y0020502D01*
X0004133Y0020502D01*
X0004132Y0020502D01*
X0004128Y0020501D01*
X0004124Y0020500D01*
X0004123Y0020500D01*
X0004122Y0020500D01*
X0004119Y0020498D01*
X0004115Y0020496D01*
X0004115Y0020495D01*
X0004114Y0020495D01*
X0004111Y0020492D01*
X0004109Y0020489D01*
X0004108Y0020488D01*
X0004108Y0020487D01*
X0004106Y0020484D01*
X0004104Y0020480D01*
X0004104Y0020479D01*
X0004104Y0020479D01*
X0004103Y0020472D01*
X0004103Y0018464D01*
X0004103Y0018463D01*
X0004103Y0018463D01*
X0004104Y0018459D01*
X0004105Y0018455D01*
X0004105Y0018454D01*
X0004105Y0018453D01*
X0004108Y0018450D01*
X0004110Y0018446D01*
X0004110Y0018445D01*
X0004110Y0018445D01*
X0004114Y0018442D01*
X0004117Y0018439D01*
X0004117Y0018439D01*
X0004118Y0018438D01*
X0004122Y0018437D01*
X0004125Y0018435D01*
X0004126Y0018435D01*
X0004127Y0018435D01*
X0004133Y0018434D01*
X0005314Y0018434D01*
X0005315Y0018434D01*
X0005316Y0018434D01*
X0005320Y0018435D01*
X0005324Y0018436D01*
X0005325Y0018436D01*
X0005325Y0018436D01*
X0005329Y0018438D01*
X0005333Y0018440D01*
X0005333Y0018441D01*
X0005334Y0018441D01*
X0005336Y0018444D01*
X0005339Y0018447D01*
X0005340Y0018448D01*
X0005340Y0018449D01*
X0005342Y0018452D01*
X0005343Y0018456D01*
X0005343Y0018457D01*
X0005344Y0018457D01*
X0005344Y0018464D01*
X0005344Y0020472D01*
X0005344Y0020473D01*
G37*
G36*
X0020699Y0019331D02*
X0020699Y0019331D01*
X0020699Y0019332D01*
X0020698Y0019336D01*
X0020697Y0019340D01*
X0020697Y0019340D01*
X0020697Y0019341D01*
X0020695Y0019345D01*
X0020693Y0019348D01*
X0020692Y0019349D01*
X0020692Y0019350D01*
X0020689Y0019352D01*
X0020686Y0019355D01*
X0020685Y0019355D01*
X0020684Y0019356D01*
X0020681Y0019357D01*
X0020677Y0019359D01*
X0020676Y0019359D01*
X0020675Y0019359D01*
X0020669Y0019360D01*
X0019488Y0019360D01*
X0019487Y0019360D01*
X0019486Y0019360D01*
X0019482Y0019359D01*
X0019478Y0019359D01*
X0019477Y0019358D01*
X0019477Y0019358D01*
X0019473Y0019356D01*
X0019470Y0019354D01*
X0019469Y0019354D01*
X0019468Y0019353D01*
X0019466Y0019350D01*
X0019463Y0019347D01*
X0019463Y0019346D01*
X0019462Y0019346D01*
X0019461Y0019342D01*
X0019459Y0019338D01*
X0019459Y0019337D01*
X0019458Y0019337D01*
X0019458Y0019330D01*
X0019458Y0017322D01*
X0019458Y0017322D01*
X0019458Y0017321D01*
X0019459Y0017317D01*
X0019459Y0017313D01*
X0019460Y0017312D01*
X0019460Y0017311D01*
X0019462Y0017308D01*
X0019464Y0017304D01*
X0019464Y0017304D01*
X0019465Y0017303D01*
X0019468Y0017300D01*
X0019471Y0017298D01*
X0019472Y0017297D01*
X0019472Y0017297D01*
X0019476Y0017295D01*
X0019480Y0017293D01*
X0019480Y0017293D01*
X0019481Y0017293D01*
X0019488Y0017292D01*
X0020669Y0017292D01*
X0020670Y0017292D01*
X0020670Y0017292D01*
X0020674Y0017293D01*
X0020678Y0017294D01*
X0020679Y0017294D01*
X0020680Y0017294D01*
X0020683Y0017297D01*
X0020687Y0017298D01*
X0020687Y0017299D01*
X0020688Y0017299D01*
X0020691Y0017303D01*
X0020694Y0017305D01*
X0020694Y0017306D01*
X0020694Y0017307D01*
X0020696Y0017311D01*
X0020698Y0017314D01*
X0020698Y0017315D01*
X0020698Y0017316D01*
X0020699Y0017322D01*
X0020699Y0019330D01*
X0020699Y0019331D01*
G37*
G36*
X0034074Y0022205D02*
X0034074Y0022205D01*
X0034074Y0022205D01*
X0034073Y0022208D01*
X0034073Y0022212D01*
X0034073Y0022212D01*
X0034072Y0022212D01*
X0034070Y0022215D01*
X0034068Y0022218D01*
X0034068Y0022219D01*
X0034068Y0022219D01*
X0034065Y0022221D01*
X0034062Y0022223D01*
X0034061Y0022223D01*
X0034061Y0022223D01*
X0034055Y0022224D01*
X0031771Y0022224D01*
X0031771Y0022224D01*
X0031770Y0022224D01*
X0031767Y0022223D01*
X0031763Y0022222D01*
X0031763Y0022222D01*
X0031763Y0022222D01*
X0031760Y0022220D01*
X0031757Y0022218D01*
X0031757Y0022218D01*
X0031757Y0022217D01*
X0031755Y0022214D01*
X0031753Y0022211D01*
X0031753Y0022211D01*
X0031753Y0022211D01*
X0031752Y0022204D01*
X0031752Y0021377D01*
X0031752Y0021377D01*
X0031752Y0021377D01*
X0031752Y0021373D01*
X0031753Y0021370D01*
X0031753Y0021370D01*
X0031753Y0021369D01*
X0031755Y0021366D01*
X0031757Y0021363D01*
X0031758Y0021363D01*
X0031758Y0021363D01*
X0031761Y0021361D01*
X0031764Y0021359D01*
X0031764Y0021359D01*
X0031765Y0021359D01*
X0031771Y0021358D01*
X0034055Y0021358D01*
X0034055Y0021358D01*
X0034055Y0021358D01*
X0034059Y0021359D01*
X0034062Y0021359D01*
X0034063Y0021360D01*
X0034063Y0021360D01*
X0034066Y0021362D01*
X0034069Y0021364D01*
X0034069Y0021364D01*
X0034069Y0021364D01*
X0034071Y0021367D01*
X0034073Y0021370D01*
X0034073Y0021371D01*
X0034073Y0021371D01*
X0034074Y0021377D01*
X0034074Y0022204D01*
X0034074Y0022205D01*
G37*
G36*
X0030370Y0019606D02*
X0030370Y0019606D01*
X0030370Y0019783D01*
X0030370Y0019783D01*
X0030370Y0019784D01*
X0030369Y0019787D01*
X0030368Y0019791D01*
X0030368Y0019791D01*
X0030368Y0019791D01*
X0030366Y0019794D01*
X0030364Y0019797D01*
X0030363Y0019797D01*
X0030363Y0019798D01*
X0030360Y0019799D01*
X0030357Y0019801D01*
X0030357Y0019801D01*
X0030356Y0019802D01*
X0030350Y0019803D01*
X0030232Y0019803D01*
X0030232Y0019803D01*
X0030232Y0019803D01*
X0030231Y0019803D01*
X0030231Y0019803D01*
X0030228Y0019802D01*
X0030224Y0019801D01*
X0030224Y0019801D01*
X0030224Y0019801D01*
X0030221Y0019799D01*
X0030218Y0019797D01*
X0030217Y0019796D01*
X0030217Y0019796D01*
X0030215Y0019793D01*
X0030213Y0019790D01*
X0030213Y0019790D01*
X0030213Y0019789D01*
X0030212Y0019783D01*
X0030212Y0019606D01*
X0030212Y0019588D01*
X0030212Y0019586D01*
X0030213Y0019583D01*
X0030217Y0019565D01*
X0030218Y0019564D01*
X0030219Y0019560D01*
X0030228Y0019545D01*
X0030229Y0019543D01*
X0030231Y0019540D01*
X0030244Y0019527D01*
X0030245Y0019526D01*
X0030248Y0019524D01*
X0030263Y0019515D01*
X0030265Y0019514D01*
X0030268Y0019513D01*
X0030286Y0019508D01*
X0030288Y0019508D01*
X0030290Y0019507D01*
X0030291Y0019508D01*
X0030292Y0019507D01*
X0030292Y0019508D01*
X0030293Y0019508D01*
X0030294Y0019508D01*
X0030296Y0019508D01*
X0030314Y0019513D01*
X0030315Y0019514D01*
X0030318Y0019515D01*
X0030334Y0019524D01*
X0030335Y0019525D01*
X0030338Y0019527D01*
X0030351Y0019540D01*
X0030352Y0019542D01*
X0030354Y0019545D01*
X0030363Y0019560D01*
X0030363Y0019562D01*
X0030365Y0019565D01*
X0030369Y0019583D01*
X0030369Y0019585D01*
X0030370Y0019588D01*
X0030370Y0019606D01*
G37*
G36*
X0030566Y0019606D02*
X0030566Y0019606D01*
X0030566Y0019783D01*
X0030566Y0019783D01*
X0030566Y0019784D01*
X0030566Y0019787D01*
X0030565Y0019791D01*
X0030565Y0019791D01*
X0030565Y0019791D01*
X0030562Y0019794D01*
X0030560Y0019797D01*
X0030560Y0019797D01*
X0030560Y0019798D01*
X0030557Y0019799D01*
X0030554Y0019801D01*
X0030553Y0019801D01*
X0030553Y0019802D01*
X0030547Y0019803D01*
X0030429Y0019803D01*
X0030428Y0019803D01*
X0030428Y0019803D01*
X0030428Y0019803D01*
X0030428Y0019803D01*
X0030425Y0019802D01*
X0030421Y0019801D01*
X0030421Y0019801D01*
X0030420Y0019801D01*
X0030417Y0019799D01*
X0030414Y0019797D01*
X0030414Y0019796D01*
X0030414Y0019796D01*
X0030412Y0019793D01*
X0030410Y0019790D01*
X0030410Y0019790D01*
X0030410Y0019789D01*
X0030409Y0019783D01*
X0030409Y0019606D01*
X0030409Y0019588D01*
X0030409Y0019586D01*
X0030409Y0019583D01*
X0030414Y0019565D01*
X0030415Y0019564D01*
X0030416Y0019560D01*
X0030425Y0019545D01*
X0030426Y0019543D01*
X0030428Y0019540D01*
X0030441Y0019527D01*
X0030442Y0019526D01*
X0030445Y0019524D01*
X0030460Y0019515D01*
X0030462Y0019514D01*
X0030465Y0019513D01*
X0030482Y0019508D01*
X0030484Y0019508D01*
X0030486Y0019507D01*
X0030488Y0019508D01*
X0030489Y0019507D01*
X0030489Y0019508D01*
X0030490Y0019508D01*
X0030491Y0019508D01*
X0030493Y0019508D01*
X0030510Y0019513D01*
X0030512Y0019514D01*
X0030515Y0019515D01*
X0030531Y0019524D01*
X0030532Y0019525D01*
X0030535Y0019527D01*
X0030548Y0019540D01*
X0030549Y0019542D01*
X0030551Y0019545D01*
X0030560Y0019560D01*
X0030560Y0019562D01*
X0030561Y0019565D01*
X0030566Y0019583D01*
X0030566Y0019585D01*
X0030567Y0019588D01*
X0030566Y0019606D01*
G37*
G36*
X0030763Y0019606D02*
X0030763Y0019606D01*
X0030763Y0019783D01*
X0030763Y0019783D01*
X0030763Y0019784D01*
X0030762Y0019787D01*
X0030762Y0019791D01*
X0030762Y0019791D01*
X0030761Y0019791D01*
X0030759Y0019794D01*
X0030757Y0019797D01*
X0030757Y0019797D01*
X0030757Y0019798D01*
X0030754Y0019799D01*
X0030751Y0019801D01*
X0030750Y0019801D01*
X0030750Y0019802D01*
X0030744Y0019803D01*
X0030625Y0019803D01*
X0030625Y0019803D01*
X0030625Y0019803D01*
X0030625Y0019803D01*
X0030625Y0019803D01*
X0030621Y0019802D01*
X0030618Y0019801D01*
X0030618Y0019801D01*
X0030617Y0019801D01*
X0030614Y0019799D01*
X0030611Y0019797D01*
X0030611Y0019796D01*
X0030611Y0019796D01*
X0030609Y0019793D01*
X0030607Y0019790D01*
X0030607Y0019790D01*
X0030607Y0019789D01*
X0030606Y0019783D01*
X0030606Y0019606D01*
X0030606Y0019588D01*
X0030606Y0019586D01*
X0030606Y0019583D01*
X0030611Y0019565D01*
X0030612Y0019564D01*
X0030613Y0019560D01*
X0030622Y0019545D01*
X0030623Y0019543D01*
X0030625Y0019540D01*
X0030637Y0019527D01*
X0030639Y0019526D01*
X0030641Y0019524D01*
X0030657Y0019515D01*
X0030659Y0019514D01*
X0030662Y0019513D01*
X0030679Y0019508D01*
X0030681Y0019508D01*
X0030683Y0019507D01*
X0030685Y0019508D01*
X0030685Y0019507D01*
X0030686Y0019508D01*
X0030687Y0019508D01*
X0030688Y0019508D01*
X0030690Y0019508D01*
X0030707Y0019513D01*
X0030709Y0019514D01*
X0030712Y0019515D01*
X0030728Y0019524D01*
X0030729Y0019525D01*
X0030732Y0019527D01*
X0030744Y0019540D01*
X0030745Y0019542D01*
X0030747Y0019545D01*
X0030756Y0019560D01*
X0030757Y0019562D01*
X0030758Y0019565D01*
X0030763Y0019583D01*
X0030763Y0019585D01*
X0030763Y0019588D01*
X0030763Y0019606D01*
G37*
G36*
X0030960Y0019606D02*
X0030960Y0019606D01*
X0030960Y0019783D01*
X0030960Y0019783D01*
X0030960Y0019784D01*
X0030959Y0019787D01*
X0030959Y0019791D01*
X0030958Y0019791D01*
X0030958Y0019791D01*
X0030956Y0019794D01*
X0030954Y0019797D01*
X0030954Y0019797D01*
X0030954Y0019798D01*
X0030951Y0019799D01*
X0030948Y0019801D01*
X0030947Y0019801D01*
X0030947Y0019802D01*
X0030940Y0019803D01*
X0030822Y0019803D01*
X0030822Y0019803D01*
X0030822Y0019803D01*
X0030822Y0019803D01*
X0030822Y0019803D01*
X0030818Y0019802D01*
X0030815Y0019801D01*
X0030814Y0019801D01*
X0030814Y0019801D01*
X0030811Y0019799D01*
X0030808Y0019797D01*
X0030808Y0019796D01*
X0030808Y0019796D01*
X0030806Y0019793D01*
X0030804Y0019790D01*
X0030804Y0019790D01*
X0030804Y0019789D01*
X0030803Y0019783D01*
X0030803Y0019606D01*
X0030802Y0019588D01*
X0030803Y0019586D01*
X0030803Y0019583D01*
X0030808Y0019565D01*
X0030808Y0019564D01*
X0030810Y0019560D01*
X0030818Y0019545D01*
X0030820Y0019543D01*
X0030822Y0019540D01*
X0030834Y0019527D01*
X0030836Y0019526D01*
X0030838Y0019524D01*
X0030854Y0019515D01*
X0030856Y0019514D01*
X0030859Y0019513D01*
X0030876Y0019508D01*
X0030878Y0019508D01*
X0030880Y0019507D01*
X0030882Y0019508D01*
X0030882Y0019507D01*
X0030883Y0019508D01*
X0030884Y0019508D01*
X0030885Y0019508D01*
X0030887Y0019508D01*
X0030904Y0019513D01*
X0030906Y0019514D01*
X0030909Y0019515D01*
X0030925Y0019524D01*
X0030926Y0019525D01*
X0030929Y0019527D01*
X0030941Y0019540D01*
X0030942Y0019542D01*
X0030944Y0019545D01*
X0030953Y0019560D01*
X0030954Y0019562D01*
X0030955Y0019565D01*
X0030960Y0019583D01*
X0030960Y0019585D01*
X0030960Y0019588D01*
X0030960Y0019606D01*
G37*
G36*
X0031157Y0019606D02*
X0031157Y0019606D01*
X0031157Y0019783D01*
X0031157Y0019783D01*
X0031157Y0019784D01*
X0031156Y0019787D01*
X0031155Y0019791D01*
X0031155Y0019791D01*
X0031155Y0019791D01*
X0031153Y0019794D01*
X0031151Y0019797D01*
X0031151Y0019797D01*
X0031150Y0019798D01*
X0031147Y0019799D01*
X0031144Y0019801D01*
X0031144Y0019801D01*
X0031144Y0019802D01*
X0031137Y0019803D01*
X0031019Y0019803D01*
X0031019Y0019803D01*
X0031019Y0019803D01*
X0031019Y0019803D01*
X0031018Y0019803D01*
X0031015Y0019802D01*
X0031012Y0019801D01*
X0031011Y0019801D01*
X0031011Y0019801D01*
X0031008Y0019799D01*
X0031005Y0019797D01*
X0031005Y0019796D01*
X0031005Y0019796D01*
X0031003Y0019793D01*
X0031001Y0019790D01*
X0031001Y0019790D01*
X0031001Y0019789D01*
X0031000Y0019783D01*
X0031000Y0019606D01*
X0030999Y0019588D01*
X0031000Y0019586D01*
X0031000Y0019583D01*
X0031004Y0019565D01*
X0031005Y0019564D01*
X0031006Y0019560D01*
X0031015Y0019545D01*
X0031016Y0019543D01*
X0031018Y0019540D01*
X0031031Y0019527D01*
X0031033Y0019526D01*
X0031035Y0019524D01*
X0031051Y0019515D01*
X0031052Y0019514D01*
X0031055Y0019513D01*
X0031073Y0019508D01*
X0031075Y0019508D01*
X0031077Y0019507D01*
X0031079Y0019508D01*
X0031079Y0019507D01*
X0031080Y0019508D01*
X0031081Y0019508D01*
X0031082Y0019508D01*
X0031084Y0019508D01*
X0031101Y0019513D01*
X0031103Y0019514D01*
X0031106Y0019515D01*
X0031121Y0019524D01*
X0031123Y0019525D01*
X0031125Y0019527D01*
X0031138Y0019540D01*
X0031139Y0019542D01*
X0031141Y0019545D01*
X0031150Y0019560D01*
X0031151Y0019562D01*
X0031152Y0019565D01*
X0031157Y0019583D01*
X0031157Y0019585D01*
X0031157Y0019588D01*
X0031157Y0019606D01*
G37*
G36*
X0030369Y0018208D02*
X0030369Y0018208D01*
X0030369Y0018212D01*
X0030365Y0018229D01*
X0030364Y0018231D01*
X0030363Y0018234D01*
X0030354Y0018250D01*
X0030353Y0018251D01*
X0030351Y0018254D01*
X0030338Y0018267D01*
X0030337Y0018268D01*
X0030334Y0018270D01*
X0030318Y0018279D01*
X0030317Y0018280D01*
X0030314Y0018281D01*
X0030296Y0018286D01*
X0030294Y0018286D01*
X0030292Y0018287D01*
X0030291Y0018287D01*
X0030290Y0018287D01*
X0030290Y0018287D01*
X0030288Y0018287D01*
X0030287Y0018286D01*
X0030286Y0018286D01*
X0030268Y0018281D01*
X0030266Y0018280D01*
X0030263Y0018279D01*
X0030248Y0018270D01*
X0030246Y0018269D01*
X0030244Y0018267D01*
X0030231Y0018254D01*
X0030230Y0018252D01*
X0030228Y0018250D01*
X0030219Y0018234D01*
X0030218Y0018232D01*
X0030217Y0018229D01*
X0030213Y0018212D01*
X0030212Y0018210D01*
X0030212Y0018206D01*
X0030212Y0018188D01*
X0030212Y0018011D01*
X0030212Y0018011D01*
X0030212Y0018011D01*
X0030213Y0018007D01*
X0030214Y0018004D01*
X0030214Y0018003D01*
X0030214Y0018003D01*
X0030216Y0018000D01*
X0030218Y0017997D01*
X0030218Y0017997D01*
X0030219Y0017997D01*
X0030222Y0017995D01*
X0030225Y0017993D01*
X0030225Y0017993D01*
X0030225Y0017993D01*
X0030232Y0017992D01*
X0030350Y0017992D01*
X0030350Y0017992D01*
X0030351Y0017992D01*
X0030354Y0017992D01*
X0030358Y0017993D01*
X0030358Y0017993D01*
X0030358Y0017993D01*
X0030361Y0017996D01*
X0030364Y0017998D01*
X0030364Y0017998D01*
X0030364Y0017998D01*
X0030366Y0018001D01*
X0030368Y0018004D01*
X0030368Y0018005D01*
X0030368Y0018005D01*
X0030370Y0018011D01*
X0030370Y0018188D01*
X0030370Y0018206D01*
X0030369Y0018208D01*
G37*
G36*
X0030566Y0018208D02*
X0030566Y0018208D01*
X0030566Y0018212D01*
X0030561Y0018229D01*
X0030561Y0018231D01*
X0030560Y0018234D01*
X0030551Y0018250D01*
X0030550Y0018251D01*
X0030548Y0018254D01*
X0030535Y0018267D01*
X0030533Y0018268D01*
X0030531Y0018270D01*
X0030515Y0018279D01*
X0030514Y0018280D01*
X0030510Y0018281D01*
X0030493Y0018286D01*
X0030491Y0018286D01*
X0030489Y0018287D01*
X0030488Y0018287D01*
X0030487Y0018287D01*
X0030487Y0018287D01*
X0030485Y0018287D01*
X0030484Y0018286D01*
X0030482Y0018286D01*
X0030465Y0018281D01*
X0030463Y0018280D01*
X0030460Y0018279D01*
X0030445Y0018270D01*
X0030443Y0018269D01*
X0030441Y0018267D01*
X0030428Y0018254D01*
X0030427Y0018252D01*
X0030425Y0018250D01*
X0030416Y0018234D01*
X0030415Y0018232D01*
X0030414Y0018229D01*
X0030409Y0018212D01*
X0030409Y0018210D01*
X0030409Y0018206D01*
X0030409Y0018188D01*
X0030409Y0018011D01*
X0030409Y0018011D01*
X0030409Y0018011D01*
X0030410Y0018007D01*
X0030411Y0018004D01*
X0030411Y0018003D01*
X0030411Y0018003D01*
X0030413Y0018000D01*
X0030415Y0017997D01*
X0030415Y0017997D01*
X0030415Y0017997D01*
X0030418Y0017995D01*
X0030422Y0017993D01*
X0030422Y0017993D01*
X0030422Y0017993D01*
X0030429Y0017992D01*
X0030547Y0017992D01*
X0030547Y0017992D01*
X0030547Y0017992D01*
X0030551Y0017992D01*
X0030554Y0017993D01*
X0030555Y0017993D01*
X0030555Y0017993D01*
X0030558Y0017996D01*
X0030561Y0017998D01*
X0030561Y0017998D01*
X0030561Y0017998D01*
X0030563Y0018001D01*
X0030565Y0018004D01*
X0030565Y0018005D01*
X0030565Y0018005D01*
X0030566Y0018011D01*
X0030566Y0018188D01*
X0030567Y0018206D01*
X0030566Y0018208D01*
G37*
G36*
X0030763Y0018208D02*
X0030763Y0018208D01*
X0030763Y0018212D01*
X0030758Y0018229D01*
X0030758Y0018231D01*
X0030756Y0018234D01*
X0030747Y0018250D01*
X0030746Y0018251D01*
X0030744Y0018254D01*
X0030732Y0018267D01*
X0030730Y0018268D01*
X0030728Y0018270D01*
X0030712Y0018279D01*
X0030710Y0018280D01*
X0030707Y0018281D01*
X0030690Y0018286D01*
X0030688Y0018286D01*
X0030686Y0018287D01*
X0030685Y0018287D01*
X0030684Y0018287D01*
X0030683Y0018287D01*
X0030682Y0018287D01*
X0030681Y0018286D01*
X0030679Y0018286D01*
X0030662Y0018281D01*
X0030660Y0018280D01*
X0030657Y0018279D01*
X0030641Y0018270D01*
X0030640Y0018269D01*
X0030637Y0018267D01*
X0030625Y0018254D01*
X0030624Y0018252D01*
X0030622Y0018250D01*
X0030613Y0018234D01*
X0030612Y0018232D01*
X0030611Y0018229D01*
X0030606Y0018212D01*
X0030606Y0018210D01*
X0030606Y0018206D01*
X0030606Y0018188D01*
X0030606Y0018011D01*
X0030606Y0018011D01*
X0030606Y0018011D01*
X0030607Y0018007D01*
X0030607Y0018004D01*
X0030608Y0018003D01*
X0030608Y0018003D01*
X0030610Y0018000D01*
X0030612Y0017997D01*
X0030612Y0017997D01*
X0030612Y0017997D01*
X0030615Y0017995D01*
X0030618Y0017993D01*
X0030619Y0017993D01*
X0030619Y0017993D01*
X0030625Y0017992D01*
X0030744Y0017992D01*
X0030744Y0017992D01*
X0030744Y0017992D01*
X0030748Y0017992D01*
X0030751Y0017993D01*
X0030752Y0017993D01*
X0030752Y0017993D01*
X0030755Y0017996D01*
X0030758Y0017998D01*
X0030758Y0017998D01*
X0030758Y0017998D01*
X0030760Y0018001D01*
X0030762Y0018004D01*
X0030762Y0018005D01*
X0030762Y0018005D01*
X0030763Y0018011D01*
X0030763Y0018188D01*
X0030763Y0018206D01*
X0030763Y0018208D01*
G37*
G36*
X0030960Y0018208D02*
X0030960Y0018208D01*
X0030960Y0018212D01*
X0030955Y0018229D01*
X0030954Y0018231D01*
X0030953Y0018234D01*
X0030944Y0018250D01*
X0030943Y0018251D01*
X0030941Y0018254D01*
X0030929Y0018267D01*
X0030927Y0018268D01*
X0030925Y0018270D01*
X0030909Y0018279D01*
X0030907Y0018280D01*
X0030904Y0018281D01*
X0030887Y0018286D01*
X0030885Y0018286D01*
X0030883Y0018287D01*
X0030881Y0018287D01*
X0030881Y0018287D01*
X0030880Y0018287D01*
X0030879Y0018287D01*
X0030878Y0018286D01*
X0030876Y0018286D01*
X0030859Y0018281D01*
X0030857Y0018280D01*
X0030854Y0018279D01*
X0030838Y0018270D01*
X0030837Y0018269D01*
X0030834Y0018267D01*
X0030822Y0018254D01*
X0030821Y0018252D01*
X0030818Y0018250D01*
X0030810Y0018234D01*
X0030809Y0018232D01*
X0030808Y0018229D01*
X0030803Y0018212D01*
X0030803Y0018210D01*
X0030802Y0018206D01*
X0030803Y0018188D01*
X0030803Y0018011D01*
X0030803Y0018011D01*
X0030803Y0018011D01*
X0030804Y0018007D01*
X0030804Y0018004D01*
X0030804Y0018003D01*
X0030804Y0018003D01*
X0030807Y0018000D01*
X0030809Y0017997D01*
X0030809Y0017997D01*
X0030809Y0017997D01*
X0030812Y0017995D01*
X0030815Y0017993D01*
X0030816Y0017993D01*
X0030816Y0017993D01*
X0030822Y0017992D01*
X0030940Y0017992D01*
X0030941Y0017992D01*
X0030941Y0017992D01*
X0030945Y0017992D01*
X0030948Y0017993D01*
X0030948Y0017993D01*
X0030949Y0017993D01*
X0030952Y0017996D01*
X0030955Y0017998D01*
X0030955Y0017998D01*
X0030955Y0017998D01*
X0030957Y0018001D01*
X0030959Y0018004D01*
X0030959Y0018005D01*
X0030959Y0018005D01*
X0030960Y0018011D01*
X0030960Y0018188D01*
X0030960Y0018206D01*
X0030960Y0018208D01*
G37*
G36*
X0031157Y0018208D02*
X0031157Y0018208D01*
X0031157Y0018212D01*
X0031152Y0018229D01*
X0031151Y0018231D01*
X0031150Y0018234D01*
X0031141Y0018250D01*
X0031140Y0018251D01*
X0031138Y0018254D01*
X0031125Y0018267D01*
X0031124Y0018268D01*
X0031121Y0018270D01*
X0031106Y0018279D01*
X0031104Y0018280D01*
X0031101Y0018281D01*
X0031084Y0018286D01*
X0031081Y0018286D01*
X0031079Y0018287D01*
X0031078Y0018287D01*
X0031078Y0018287D01*
X0031077Y0018287D01*
X0031076Y0018287D01*
X0031075Y0018286D01*
X0031073Y0018286D01*
X0031055Y0018281D01*
X0031054Y0018280D01*
X0031051Y0018279D01*
X0031035Y0018270D01*
X0031034Y0018269D01*
X0031031Y0018267D01*
X0031018Y0018254D01*
X0031017Y0018252D01*
X0031015Y0018250D01*
X0031006Y0018234D01*
X0031006Y0018232D01*
X0031004Y0018229D01*
X0031000Y0018212D01*
X0031000Y0018210D01*
X0030999Y0018206D01*
X0031000Y0018188D01*
X0031000Y0018011D01*
X0031000Y0018011D01*
X0031000Y0018011D01*
X0031000Y0018007D01*
X0031001Y0018004D01*
X0031001Y0018003D01*
X0031001Y0018003D01*
X0031003Y0018000D01*
X0031006Y0017997D01*
X0031006Y0017997D01*
X0031006Y0017997D01*
X0031009Y0017995D01*
X0031012Y0017993D01*
X0031012Y0017993D01*
X0031013Y0017993D01*
X0031019Y0017992D01*
X0031137Y0017992D01*
X0031138Y0017992D01*
X0031138Y0017992D01*
X0031141Y0017992D01*
X0031145Y0017993D01*
X0031145Y0017993D01*
X0031146Y0017993D01*
X0031148Y0017996D01*
X0031151Y0017998D01*
X0031152Y0017998D01*
X0031152Y0017998D01*
X0031154Y0018001D01*
X0031156Y0018004D01*
X0031156Y0018005D01*
X0031156Y0018005D01*
X0031157Y0018011D01*
X0031157Y0018188D01*
X0031157Y0018206D01*
X0031157Y0018208D01*
G37*
G36*
X0030074Y0018898D02*
X0030074Y0018898D01*
X0030074Y0018900D01*
X0030074Y0018901D01*
X0030074Y0018902D01*
X0030069Y0018920D01*
X0030068Y0018922D01*
X0030067Y0018925D01*
X0030057Y0018940D01*
X0030056Y0018942D01*
X0030054Y0018944D01*
X0030041Y0018957D01*
X0030040Y0018958D01*
X0030037Y0018960D01*
X0030021Y0018969D01*
X0030020Y0018970D01*
X0030017Y0018971D01*
X0029999Y0018975D01*
X0029997Y0018976D01*
X0029994Y0018976D01*
X0029976Y0018976D01*
X0029799Y0018976D01*
X0029799Y0018976D01*
X0029798Y0018976D01*
X0029798Y0018976D01*
X0029798Y0018976D01*
X0029795Y0018975D01*
X0029791Y0018974D01*
X0029791Y0018974D01*
X0029790Y0018974D01*
X0029788Y0018972D01*
X0029785Y0018970D01*
X0029784Y0018970D01*
X0029784Y0018969D01*
X0029782Y0018966D01*
X0029780Y0018963D01*
X0029780Y0018963D01*
X0029780Y0018963D01*
X0029779Y0018956D01*
X0029779Y0018838D01*
X0029779Y0018838D01*
X0029779Y0018837D01*
X0029780Y0018834D01*
X0029781Y0018830D01*
X0029781Y0018830D01*
X0029781Y0018830D01*
X0029783Y0018827D01*
X0029785Y0018824D01*
X0029785Y0018824D01*
X0029785Y0018824D01*
X0029789Y0018822D01*
X0029792Y0018820D01*
X0029792Y0018820D01*
X0029792Y0018820D01*
X0029799Y0018818D01*
X0029976Y0018818D01*
X0029994Y0018818D01*
X0029996Y0018819D01*
X0029999Y0018819D01*
X0030017Y0018823D01*
X0030018Y0018824D01*
X0030021Y0018825D01*
X0030037Y0018834D01*
X0030038Y0018835D01*
X0030041Y0018837D01*
X0030054Y0018850D01*
X0030055Y0018851D01*
X0030057Y0018854D01*
X0030067Y0018870D01*
X0030067Y0018871D01*
X0030069Y0018874D01*
X0030074Y0018892D01*
X0030074Y0018894D01*
X0030074Y0018896D01*
X0030074Y0018898D01*
G37*
G36*
X0030074Y0018504D02*
X0030074Y0018504D01*
X0030074Y0018506D01*
X0030074Y0018507D01*
X0030074Y0018509D01*
X0030069Y0018526D01*
X0030068Y0018528D01*
X0030067Y0018531D01*
X0030057Y0018547D01*
X0030056Y0018548D01*
X0030054Y0018551D01*
X0030041Y0018563D01*
X0030040Y0018564D01*
X0030037Y0018566D01*
X0030021Y0018575D01*
X0030020Y0018576D01*
X0030017Y0018577D01*
X0029999Y0018582D01*
X0029997Y0018582D01*
X0029994Y0018582D01*
X0029976Y0018582D01*
X0029799Y0018582D01*
X0029799Y0018582D01*
X0029798Y0018582D01*
X0029798Y0018582D01*
X0029798Y0018582D01*
X0029795Y0018581D01*
X0029791Y0018581D01*
X0029791Y0018580D01*
X0029790Y0018580D01*
X0029788Y0018578D01*
X0029785Y0018576D01*
X0029784Y0018576D01*
X0029784Y0018576D01*
X0029782Y0018573D01*
X0029780Y0018570D01*
X0029780Y0018569D01*
X0029780Y0018569D01*
X0029779Y0018562D01*
X0029779Y0018444D01*
X0029779Y0018444D01*
X0029779Y0018444D01*
X0029780Y0018440D01*
X0029781Y0018437D01*
X0029781Y0018436D01*
X0029781Y0018436D01*
X0029783Y0018433D01*
X0029785Y0018430D01*
X0029785Y0018430D01*
X0029785Y0018430D01*
X0029789Y0018428D01*
X0029792Y0018426D01*
X0029792Y0018426D01*
X0029792Y0018426D01*
X0029799Y0018425D01*
X0029976Y0018425D01*
X0029994Y0018425D01*
X0029996Y0018425D01*
X0029999Y0018425D01*
X0030017Y0018430D01*
X0030018Y0018430D01*
X0030021Y0018432D01*
X0030037Y0018440D01*
X0030038Y0018442D01*
X0030041Y0018444D01*
X0030054Y0018456D01*
X0030055Y0018458D01*
X0030057Y0018460D01*
X0030067Y0018476D01*
X0030067Y0018478D01*
X0030069Y0018481D01*
X0030074Y0018498D01*
X0030074Y0018500D01*
X0030074Y0018502D01*
X0030074Y0018504D01*
G37*
G36*
X0030074Y0018701D02*
X0030074Y0018701D01*
X0030074Y0018703D01*
X0030074Y0018704D01*
X0030074Y0018706D01*
X0030069Y0018723D01*
X0030068Y0018725D01*
X0030067Y0018728D01*
X0030057Y0018743D01*
X0030056Y0018745D01*
X0030054Y0018747D01*
X0030041Y0018760D01*
X0030040Y0018761D01*
X0030037Y0018763D01*
X0030021Y0018772D01*
X0030020Y0018773D01*
X0030017Y0018774D01*
X0029999Y0018779D01*
X0029997Y0018779D01*
X0029994Y0018779D01*
X0029976Y0018779D01*
X0029799Y0018779D01*
X0029799Y0018779D01*
X0029798Y0018779D01*
X0029798Y0018779D01*
X0029798Y0018779D01*
X0029795Y0018778D01*
X0029791Y0018777D01*
X0029791Y0018777D01*
X0029790Y0018777D01*
X0029788Y0018775D01*
X0029785Y0018773D01*
X0029784Y0018773D01*
X0029784Y0018773D01*
X0029782Y0018769D01*
X0029780Y0018766D01*
X0029780Y0018766D01*
X0029780Y0018766D01*
X0029779Y0018759D01*
X0029779Y0018641D01*
X0029779Y0018641D01*
X0029779Y0018641D01*
X0029780Y0018637D01*
X0029781Y0018634D01*
X0029781Y0018633D01*
X0029781Y0018633D01*
X0029783Y0018630D01*
X0029785Y0018627D01*
X0029785Y0018627D01*
X0029785Y0018627D01*
X0029789Y0018625D01*
X0029792Y0018623D01*
X0029792Y0018623D01*
X0029792Y0018623D01*
X0029799Y0018622D01*
X0029976Y0018622D01*
X0029994Y0018621D01*
X0029996Y0018622D01*
X0029999Y0018622D01*
X0030017Y0018627D01*
X0030018Y0018627D01*
X0030021Y0018628D01*
X0030037Y0018637D01*
X0030038Y0018638D01*
X0030041Y0018640D01*
X0030054Y0018653D01*
X0030055Y0018655D01*
X0030057Y0018657D01*
X0030067Y0018673D01*
X0030067Y0018674D01*
X0030069Y0018677D01*
X0030074Y0018695D01*
X0030074Y0018697D01*
X0030074Y0018699D01*
X0030074Y0018701D01*
G37*
G36*
X0030074Y0019095D02*
X0030074Y0019095D01*
X0030074Y0019097D01*
X0030074Y0019098D01*
X0030074Y0019099D01*
X0030069Y0019117D01*
X0030068Y0019118D01*
X0030067Y0019122D01*
X0030057Y0019137D01*
X0030056Y0019138D01*
X0030054Y0019141D01*
X0030041Y0019154D01*
X0030040Y0019155D01*
X0030037Y0019157D01*
X0030021Y0019166D01*
X0030020Y0019166D01*
X0030017Y0019168D01*
X0029999Y0019172D01*
X0029997Y0019172D01*
X0029994Y0019173D01*
X0029976Y0019173D01*
X0029799Y0019173D01*
X0029799Y0019173D01*
X0029798Y0019173D01*
X0029798Y0019173D01*
X0029798Y0019173D01*
X0029795Y0019172D01*
X0029791Y0019171D01*
X0029791Y0019171D01*
X0029790Y0019171D01*
X0029788Y0019169D01*
X0029785Y0019167D01*
X0029784Y0019166D01*
X0029784Y0019166D01*
X0029782Y0019163D01*
X0029780Y0019160D01*
X0029780Y0019160D01*
X0029780Y0019160D01*
X0029779Y0019153D01*
X0029779Y0019035D01*
X0029779Y0019035D01*
X0029779Y0019034D01*
X0029780Y0019031D01*
X0029781Y0019027D01*
X0029781Y0019027D01*
X0029781Y0019027D01*
X0029783Y0019024D01*
X0029785Y0019021D01*
X0029785Y0019021D01*
X0029785Y0019020D01*
X0029789Y0019019D01*
X0029792Y0019017D01*
X0029792Y0019017D01*
X0029792Y0019016D01*
X0029799Y0019015D01*
X0029976Y0019015D01*
X0029994Y0019015D01*
X0029996Y0019015D01*
X0029999Y0019016D01*
X0030017Y0019020D01*
X0030018Y0019021D01*
X0030021Y0019022D01*
X0030037Y0019031D01*
X0030038Y0019032D01*
X0030041Y0019034D01*
X0030054Y0019047D01*
X0030055Y0019048D01*
X0030057Y0019051D01*
X0030067Y0019066D01*
X0030067Y0019068D01*
X0030069Y0019071D01*
X0030074Y0019089D01*
X0030074Y0019091D01*
X0030074Y0019093D01*
X0030074Y0019095D01*
G37*
G36*
X0030074Y0019292D02*
X0030074Y0019292D01*
X0030074Y0019293D01*
X0030074Y0019295D01*
X0030074Y0019296D01*
X0030069Y0019314D01*
X0030068Y0019315D01*
X0030067Y0019318D01*
X0030057Y0019334D01*
X0030056Y0019335D01*
X0030054Y0019338D01*
X0030041Y0019351D01*
X0030040Y0019352D01*
X0030037Y0019354D01*
X0030021Y0019363D01*
X0030020Y0019363D01*
X0030017Y0019365D01*
X0029999Y0019369D01*
X0029997Y0019369D01*
X0029994Y0019370D01*
X0029976Y0019370D01*
X0029799Y0019370D01*
X0029799Y0019370D01*
X0029798Y0019370D01*
X0029798Y0019370D01*
X0029798Y0019370D01*
X0029795Y0019369D01*
X0029791Y0019368D01*
X0029791Y0019368D01*
X0029790Y0019368D01*
X0029788Y0019366D01*
X0029785Y0019364D01*
X0029784Y0019363D01*
X0029784Y0019363D01*
X0029782Y0019360D01*
X0029780Y0019357D01*
X0029780Y0019357D01*
X0029780Y0019356D01*
X0029779Y0019350D01*
X0029779Y0019232D01*
X0029779Y0019231D01*
X0029779Y0019231D01*
X0029780Y0019228D01*
X0029781Y0019224D01*
X0029781Y0019224D01*
X0029781Y0019224D01*
X0029783Y0019221D01*
X0029785Y0019218D01*
X0029785Y0019217D01*
X0029785Y0019217D01*
X0029789Y0019215D01*
X0029792Y0019213D01*
X0029792Y0019213D01*
X0029792Y0019213D01*
X0029799Y0019212D01*
X0029976Y0019212D01*
X0029994Y0019212D01*
X0029996Y0019212D01*
X0029999Y0019213D01*
X0030017Y0019217D01*
X0030018Y0019218D01*
X0030021Y0019219D01*
X0030037Y0019228D01*
X0030038Y0019229D01*
X0030041Y0019231D01*
X0030054Y0019244D01*
X0030055Y0019245D01*
X0030057Y0019248D01*
X0030067Y0019263D01*
X0030067Y0019265D01*
X0030069Y0019268D01*
X0030074Y0019286D01*
X0030074Y0019288D01*
X0030074Y0019290D01*
X0030074Y0019292D01*
G37*
G36*
X0031590Y0018957D02*
X0031590Y0018957D01*
X0031590Y0018957D01*
X0031589Y0018960D01*
X0031588Y0018964D01*
X0031588Y0018964D01*
X0031588Y0018964D01*
X0031586Y0018967D01*
X0031584Y0018970D01*
X0031584Y0018970D01*
X0031584Y0018971D01*
X0031580Y0018973D01*
X0031577Y0018975D01*
X0031577Y0018975D01*
X0031577Y0018975D01*
X0031570Y0018976D01*
X0031393Y0018976D01*
X0031375Y0018976D01*
X0031374Y0018976D01*
X0031373Y0018976D01*
X0031373Y0018976D01*
X0031373Y0018976D01*
X0031370Y0018975D01*
X0031353Y0018971D01*
X0031351Y0018970D01*
X0031348Y0018969D01*
X0031332Y0018960D01*
X0031331Y0018959D01*
X0031328Y0018957D01*
X0031315Y0018944D01*
X0031314Y0018943D01*
X0031312Y0018940D01*
X0031302Y0018925D01*
X0031302Y0018923D01*
X0031300Y0018920D01*
X0031296Y0018902D01*
X0031295Y0018900D01*
X0031295Y0018898D01*
X0031295Y0018896D01*
X0031295Y0018895D01*
X0031295Y0018893D01*
X0031296Y0018892D01*
X0031300Y0018874D01*
X0031301Y0018873D01*
X0031302Y0018870D01*
X0031312Y0018854D01*
X0031313Y0018853D01*
X0031315Y0018850D01*
X0031328Y0018837D01*
X0031329Y0018836D01*
X0031332Y0018834D01*
X0031348Y0018825D01*
X0031349Y0018825D01*
X0031353Y0018823D01*
X0031370Y0018819D01*
X0031372Y0018819D01*
X0031375Y0018818D01*
X0031393Y0018818D01*
X0031570Y0018818D01*
X0031571Y0018818D01*
X0031571Y0018818D01*
X0031575Y0018819D01*
X0031578Y0018820D01*
X0031578Y0018820D01*
X0031579Y0018820D01*
X0031582Y0018822D01*
X0031585Y0018824D01*
X0031585Y0018825D01*
X0031585Y0018825D01*
X0031587Y0018828D01*
X0031589Y0018831D01*
X0031589Y0018831D01*
X0031589Y0018832D01*
X0031590Y0018838D01*
X0031590Y0018956D01*
X0031590Y0018957D01*
G37*
G36*
X0031590Y0018563D02*
X0031590Y0018563D01*
X0031590Y0018563D01*
X0031589Y0018567D01*
X0031588Y0018570D01*
X0031588Y0018570D01*
X0031588Y0018571D01*
X0031586Y0018574D01*
X0031584Y0018577D01*
X0031584Y0018577D01*
X0031584Y0018577D01*
X0031580Y0018579D01*
X0031577Y0018581D01*
X0031577Y0018581D01*
X0031577Y0018581D01*
X0031570Y0018582D01*
X0031393Y0018582D01*
X0031375Y0018582D01*
X0031374Y0018582D01*
X0031373Y0018582D01*
X0031373Y0018582D01*
X0031373Y0018582D01*
X0031370Y0018582D01*
X0031353Y0018577D01*
X0031351Y0018576D01*
X0031348Y0018575D01*
X0031332Y0018566D01*
X0031331Y0018565D01*
X0031328Y0018563D01*
X0031315Y0018551D01*
X0031314Y0018549D01*
X0031312Y0018547D01*
X0031302Y0018531D01*
X0031302Y0018529D01*
X0031300Y0018526D01*
X0031296Y0018509D01*
X0031295Y0018507D01*
X0031295Y0018505D01*
X0031295Y0018502D01*
X0031295Y0018501D01*
X0031295Y0018500D01*
X0031296Y0018498D01*
X0031300Y0018481D01*
X0031301Y0018479D01*
X0031302Y0018476D01*
X0031312Y0018460D01*
X0031313Y0018459D01*
X0031315Y0018456D01*
X0031328Y0018444D01*
X0031329Y0018443D01*
X0031332Y0018440D01*
X0031348Y0018432D01*
X0031349Y0018431D01*
X0031353Y0018430D01*
X0031370Y0018425D01*
X0031372Y0018425D01*
X0031375Y0018425D01*
X0031393Y0018425D01*
X0031570Y0018425D01*
X0031571Y0018425D01*
X0031571Y0018425D01*
X0031575Y0018426D01*
X0031578Y0018426D01*
X0031578Y0018426D01*
X0031579Y0018427D01*
X0031582Y0018429D01*
X0031585Y0018431D01*
X0031585Y0018431D01*
X0031585Y0018431D01*
X0031587Y0018434D01*
X0031589Y0018437D01*
X0031589Y0018438D01*
X0031589Y0018438D01*
X0031590Y0018444D01*
X0031590Y0018562D01*
X0031590Y0018563D01*
G37*
G36*
X0031590Y0019350D02*
X0031590Y0019350D01*
X0031590Y0019351D01*
X0031589Y0019354D01*
X0031588Y0019358D01*
X0031588Y0019358D01*
X0031588Y0019358D01*
X0031586Y0019361D01*
X0031584Y0019364D01*
X0031584Y0019364D01*
X0031584Y0019364D01*
X0031580Y0019366D01*
X0031577Y0019368D01*
X0031577Y0019368D01*
X0031577Y0019368D01*
X0031570Y0019370D01*
X0031393Y0019370D01*
X0031375Y0019370D01*
X0031374Y0019369D01*
X0031373Y0019369D01*
X0031373Y0019369D01*
X0031373Y0019369D01*
X0031370Y0019369D01*
X0031353Y0019365D01*
X0031351Y0019364D01*
X0031348Y0019363D01*
X0031332Y0019354D01*
X0031331Y0019353D01*
X0031328Y0019351D01*
X0031315Y0019338D01*
X0031314Y0019337D01*
X0031312Y0019334D01*
X0031302Y0019318D01*
X0031302Y0019317D01*
X0031300Y0019314D01*
X0031296Y0019296D01*
X0031295Y0019294D01*
X0031295Y0019292D01*
X0031295Y0019290D01*
X0031295Y0019288D01*
X0031295Y0019287D01*
X0031296Y0019286D01*
X0031300Y0019268D01*
X0031301Y0019266D01*
X0031302Y0019263D01*
X0031312Y0019248D01*
X0031313Y0019246D01*
X0031315Y0019244D01*
X0031328Y0019231D01*
X0031329Y0019230D01*
X0031332Y0019228D01*
X0031348Y0019219D01*
X0031349Y0019218D01*
X0031353Y0019217D01*
X0031370Y0019213D01*
X0031372Y0019212D01*
X0031375Y0019212D01*
X0031393Y0019212D01*
X0031570Y0019212D01*
X0031571Y0019212D01*
X0031571Y0019212D01*
X0031575Y0019213D01*
X0031578Y0019214D01*
X0031578Y0019214D01*
X0031579Y0019214D01*
X0031582Y0019216D01*
X0031585Y0019218D01*
X0031585Y0019218D01*
X0031585Y0019219D01*
X0031587Y0019222D01*
X0031589Y0019225D01*
X0031589Y0019225D01*
X0031589Y0019225D01*
X0031590Y0019232D01*
X0031590Y0019350D01*
X0031590Y0019350D01*
G37*
G36*
X0031590Y0018760D02*
X0031590Y0018760D01*
X0031590Y0018760D01*
X0031589Y0018763D01*
X0031588Y0018767D01*
X0031588Y0018767D01*
X0031588Y0018768D01*
X0031586Y0018770D01*
X0031584Y0018773D01*
X0031584Y0018774D01*
X0031584Y0018774D01*
X0031580Y0018776D01*
X0031577Y0018778D01*
X0031577Y0018778D01*
X0031577Y0018778D01*
X0031570Y0018779D01*
X0031393Y0018779D01*
X0031375Y0018779D01*
X0031374Y0018779D01*
X0031373Y0018779D01*
X0031373Y0018779D01*
X0031373Y0018779D01*
X0031370Y0018779D01*
X0031353Y0018774D01*
X0031351Y0018773D01*
X0031348Y0018772D01*
X0031332Y0018763D01*
X0031331Y0018762D01*
X0031328Y0018760D01*
X0031315Y0018747D01*
X0031314Y0018746D01*
X0031312Y0018743D01*
X0031302Y0018728D01*
X0031302Y0018726D01*
X0031300Y0018723D01*
X0031296Y0018706D01*
X0031295Y0018704D01*
X0031295Y0018702D01*
X0031295Y0018699D01*
X0031295Y0018698D01*
X0031295Y0018697D01*
X0031296Y0018695D01*
X0031300Y0018677D01*
X0031301Y0018676D01*
X0031302Y0018673D01*
X0031312Y0018657D01*
X0031313Y0018656D01*
X0031315Y0018653D01*
X0031328Y0018640D01*
X0031329Y0018639D01*
X0031332Y0018637D01*
X0031348Y0018628D01*
X0031349Y0018628D01*
X0031353Y0018627D01*
X0031370Y0018622D01*
X0031372Y0018622D01*
X0031375Y0018621D01*
X0031393Y0018622D01*
X0031570Y0018622D01*
X0031571Y0018622D01*
X0031571Y0018622D01*
X0031575Y0018622D01*
X0031578Y0018623D01*
X0031578Y0018623D01*
X0031579Y0018623D01*
X0031582Y0018626D01*
X0031585Y0018628D01*
X0031585Y0018628D01*
X0031585Y0018628D01*
X0031587Y0018631D01*
X0031589Y0018634D01*
X0031589Y0018635D01*
X0031589Y0018635D01*
X0031590Y0018641D01*
X0031590Y0018759D01*
X0031590Y0018760D01*
G37*
G36*
X0031590Y0019153D02*
X0031590Y0019153D01*
X0031590Y0019154D01*
X0031589Y0019157D01*
X0031588Y0019161D01*
X0031588Y0019161D01*
X0031588Y0019161D01*
X0031586Y0019164D01*
X0031584Y0019167D01*
X0031584Y0019167D01*
X0031584Y0019168D01*
X0031580Y0019169D01*
X0031577Y0019171D01*
X0031577Y0019171D01*
X0031577Y0019172D01*
X0031570Y0019173D01*
X0031393Y0019173D01*
X0031375Y0019173D01*
X0031374Y0019173D01*
X0031373Y0019173D01*
X0031373Y0019173D01*
X0031373Y0019173D01*
X0031370Y0019172D01*
X0031353Y0019168D01*
X0031351Y0019167D01*
X0031348Y0019166D01*
X0031332Y0019157D01*
X0031331Y0019156D01*
X0031328Y0019154D01*
X0031315Y0019141D01*
X0031314Y0019140D01*
X0031312Y0019137D01*
X0031302Y0019122D01*
X0031302Y0019120D01*
X0031300Y0019117D01*
X0031296Y0019099D01*
X0031295Y0019097D01*
X0031295Y0019095D01*
X0031295Y0019093D01*
X0031295Y0019091D01*
X0031295Y0019090D01*
X0031296Y0019089D01*
X0031300Y0019071D01*
X0031301Y0019070D01*
X0031302Y0019066D01*
X0031312Y0019051D01*
X0031313Y0019050D01*
X0031315Y0019047D01*
X0031328Y0019034D01*
X0031329Y0019033D01*
X0031332Y0019031D01*
X0031348Y0019022D01*
X0031349Y0019022D01*
X0031353Y0019020D01*
X0031370Y0019016D01*
X0031372Y0019016D01*
X0031375Y0019015D01*
X0031393Y0019015D01*
X0031570Y0019015D01*
X0031571Y0019015D01*
X0031571Y0019015D01*
X0031575Y0019016D01*
X0031578Y0019017D01*
X0031578Y0019017D01*
X0031579Y0019017D01*
X0031582Y0019019D01*
X0031585Y0019021D01*
X0031585Y0019022D01*
X0031585Y0019022D01*
X0031587Y0019025D01*
X0031589Y0019028D01*
X0031589Y0019028D01*
X0031589Y0019028D01*
X0031590Y0019035D01*
X0031590Y0019153D01*
X0031590Y0019153D01*
G37*
D46*
X0030708Y0016338D03*
X0030708Y0021456D03*
D47*
X0031857Y0020099D02*
X0031857Y0019999D01*
X0031857Y0020099D02*
X0031957Y0020099D01*
X0031957Y0019999D01*
X0031857Y0019999D01*
X0031857Y0019734D02*
X0031857Y0019635D01*
X0031857Y0019734D02*
X0031957Y0019734D01*
X0031957Y0019635D01*
X0031857Y0019635D01*
D48*
X0030685Y0018897D03*
D49*
X0027625Y0018113D03*
X0026956Y0018113D03*
D50*
X0028091Y0016100D03*
X0027717Y0016966D03*
X0028465Y0016966D03*
D47*
X0028515Y0017691D02*
X0028515Y0017791D01*
X0028515Y0017691D02*
X0028415Y0017691D01*
X0028415Y0017791D01*
X0028515Y0017791D01*
X0028515Y0018056D02*
X0028515Y0018155D01*
X0028515Y0018056D02*
X0028415Y0018056D01*
X0028415Y0018155D01*
X0028515Y0018155D01*
D50*
X0026398Y0016966D03*
X0026772Y0016100D03*
X0026024Y0016100D03*
D47*
X0029234Y0016301D02*
X0029234Y0016401D01*
X0029234Y0016301D02*
X0029135Y0016301D01*
X0029135Y0016401D01*
X0029234Y0016401D01*
X0029234Y0016666D02*
X0029234Y0016765D01*
X0029234Y0016666D02*
X0029135Y0016666D01*
X0029135Y0016765D01*
X0029234Y0016765D01*
D51*
X0026913Y0019756D03*
X0026913Y0019500D03*
X0026913Y0019244D03*
X0026913Y0018988D03*
X0028606Y0018988D03*
X0028606Y0019244D03*
X0028606Y0019500D03*
X0028606Y0019756D03*
D50*
X0026237Y0021822D03*
X0026611Y0020956D03*
X0025863Y0020956D03*
D52*
X0025762Y0019647D03*
X0025762Y0018958D03*
D53*
X0028188Y0020848D03*
X0027814Y0021793D03*
X0028562Y0021793D03*
D47*
X0027267Y0021152D02*
X0027267Y0021052D01*
X0027168Y0021052D01*
X0027168Y0021152D01*
X0027267Y0021152D01*
X0027267Y0021416D02*
X0027267Y0021516D01*
X0027267Y0021416D02*
X0027168Y0021416D01*
X0027168Y0021516D01*
X0027267Y0021516D01*
X0029227Y0021146D02*
X0029227Y0021046D01*
X0029127Y0021046D01*
X0029127Y0021146D01*
X0029227Y0021146D01*
X0029227Y0021410D02*
X0029227Y0021510D01*
X0029227Y0021410D02*
X0029127Y0021410D01*
X0029127Y0021510D01*
X0029227Y0021510D01*
D54*
X0033385Y0017433D03*
X0032585Y0017083D03*
X0032585Y0017783D03*
X0033385Y0019883D03*
X0032585Y0019533D03*
X0032585Y0020233D03*
D55*
X0020078Y0018110D03*
X0004724Y0019685D03*
D47*
X0032703Y0016384D02*
X0032802Y0016384D01*
X0032703Y0016384D02*
X0032703Y0016483D01*
X0032802Y0016483D01*
X0032802Y0016384D01*
X0033067Y0016384D02*
X0033166Y0016384D01*
X0033067Y0016384D02*
X0033067Y0016483D01*
X0033166Y0016483D01*
X0033166Y0016384D01*
X0032802Y0018834D02*
X0032703Y0018834D01*
X0032703Y0018933D01*
X0032802Y0018933D01*
X0032802Y0018834D01*
X0033067Y0018834D02*
X0033166Y0018834D01*
X0033067Y0018834D02*
X0033067Y0018933D01*
X0033166Y0018933D01*
X0033166Y0018834D01*
X0033166Y0018483D02*
X0033067Y0018483D01*
X0033166Y0018483D02*
X0033166Y0018384D01*
X0033067Y0018384D01*
X0033067Y0018483D01*
X0032802Y0018483D02*
X0032703Y0018483D01*
X0032802Y0018483D02*
X0032802Y0018384D01*
X0032703Y0018384D01*
X0032703Y0018483D01*
X0033117Y0020933D02*
X0033216Y0020933D01*
X0033216Y0020834D01*
X0033117Y0020834D01*
X0033117Y0020933D01*
X0032852Y0020933D02*
X0032753Y0020933D01*
X0032852Y0020933D02*
X0032852Y0020834D01*
X0032753Y0020834D01*
X0032753Y0020933D01*
X0029155Y0020264D02*
X0029155Y0020164D01*
X0029155Y0020264D02*
X0029254Y0020264D01*
X0029254Y0020164D01*
X0029155Y0020164D01*
X0029155Y0019900D02*
X0029155Y0019800D01*
X0029155Y0019900D02*
X0029254Y0019900D01*
X0029254Y0019800D01*
X0029155Y0019800D01*
D55*
X0024409Y0019685D03*
X0024409Y0018110D03*
D56*
X0034704Y0017125D03*
X0034704Y0017519D03*
X0034704Y0017913D03*
X0034704Y0018307D03*
X0034704Y0018700D03*
X0034704Y0019094D03*
X0034704Y0019488D03*
X0034704Y0019881D03*
X0034704Y0020275D03*
X0034704Y0020669D03*
D57*
X0035728Y0021515D03*
X0035728Y0016279D03*
D47*
X0029608Y0021037D02*
X0029608Y0021137D01*
X0029608Y0021037D02*
X0029509Y0021037D01*
X0029509Y0021137D01*
X0029608Y0021137D01*
X0029608Y0021401D02*
X0029608Y0021501D01*
X0029608Y0021401D02*
X0029509Y0021401D01*
X0029509Y0021501D01*
X0029608Y0021501D01*
G04 next file*
G04 EAGLE Gerber RS-274X export*
G75*
G01*
G36*
X0035206Y0010629D02*
X0035206Y0010629D01*
X0035206Y0010628D01*
X0035207Y0010624D01*
X0035207Y0010620D01*
X0035208Y0010619D01*
X0035208Y0010618D01*
X0035210Y0010615D01*
X0035212Y0010611D01*
X0035212Y0010611D01*
X0035213Y0010610D01*
X0035216Y0010607D01*
X0035219Y0010605D01*
X0035220Y0010604D01*
X0035220Y0010604D01*
X0035224Y0010602D01*
X0035228Y0010601D01*
X0035228Y0010600D01*
X0035229Y0010600D01*
X0035236Y0010599D01*
X0036417Y0010599D01*
X0036418Y0010600D01*
X0036418Y0010600D01*
X0036422Y0010600D01*
X0036426Y0010601D01*
X0036427Y0010601D01*
X0036428Y0010602D01*
X0036431Y0010604D01*
X0036435Y0010606D01*
X0036435Y0010606D01*
X0036436Y0010607D01*
X0036439Y0010610D01*
X0036442Y0010613D01*
X0036442Y0010613D01*
X0036442Y0010614D01*
X0036444Y0010618D01*
X0036446Y0010621D01*
X0036446Y0010622D01*
X0036446Y0010623D01*
X0036447Y0010629D01*
X0036447Y0012637D01*
X0036447Y0012638D01*
X0036447Y0012639D01*
X0036446Y0012643D01*
X0036445Y0012647D01*
X0036445Y0012648D01*
X0036445Y0012648D01*
X0036443Y0012652D01*
X0036441Y0012655D01*
X0036440Y0012656D01*
X0036440Y0012657D01*
X0036437Y0012659D01*
X0036434Y0012662D01*
X0036433Y0012662D01*
X0036432Y0012663D01*
X0036429Y0012664D01*
X0036425Y0012666D01*
X0036424Y0012666D01*
X0036423Y0012667D01*
X0036417Y0012667D01*
X0035236Y0012667D01*
X0035235Y0012667D01*
X0035234Y0012667D01*
X0035230Y0012666D01*
X0035226Y0012666D01*
X0035225Y0012665D01*
X0035225Y0012665D01*
X0035221Y0012663D01*
X0035218Y0012661D01*
X0035217Y0012661D01*
X0035216Y0012660D01*
X0035214Y0012657D01*
X0035211Y0012654D01*
X0035211Y0012653D01*
X0035210Y0012653D01*
X0035209Y0012649D01*
X0035207Y0012645D01*
X0035207Y0012645D01*
X0035206Y0012644D01*
X0035206Y0012637D01*
X0035206Y0010629D01*
X0035206Y0010629D01*
G37*
G36*
X0019852Y0011770D02*
X0019852Y0011770D01*
X0019851Y0011770D01*
X0019852Y0011766D01*
X0019853Y0011762D01*
X0019853Y0011761D01*
X0019854Y0011760D01*
X0019856Y0011757D01*
X0019858Y0011753D01*
X0019858Y0011752D01*
X0019858Y0011752D01*
X0019862Y0011749D01*
X0019865Y0011746D01*
X0019865Y0011746D01*
X0019866Y0011746D01*
X0019870Y0011744D01*
X0019873Y0011742D01*
X0019874Y0011742D01*
X0019875Y0011742D01*
X0019881Y0011741D01*
X0021062Y0011741D01*
X0021063Y0011741D01*
X0021064Y0011741D01*
X0021068Y0011742D01*
X0021072Y0011743D01*
X0021073Y0011743D01*
X0021074Y0011743D01*
X0021077Y0011745D01*
X0021081Y0011747D01*
X0021081Y0011748D01*
X0021082Y0011748D01*
X0021084Y0011751D01*
X0021087Y0011754D01*
X0021088Y0011755D01*
X0021088Y0011756D01*
X0021090Y0011759D01*
X0021091Y0011763D01*
X0021091Y0011764D01*
X0021092Y0011765D01*
X0021092Y0011771D01*
X0021092Y0013779D01*
X0021092Y0013780D01*
X0021092Y0013781D01*
X0021092Y0013785D01*
X0021091Y0013789D01*
X0021091Y0013789D01*
X0021090Y0013790D01*
X0021088Y0013794D01*
X0021086Y0013797D01*
X0021086Y0013798D01*
X0021085Y0013798D01*
X0021082Y0013801D01*
X0021079Y0013804D01*
X0021079Y0013804D01*
X0021078Y0013805D01*
X0021074Y0013806D01*
X0021071Y0013808D01*
X0021070Y0013808D01*
X0021069Y0013808D01*
X0021062Y0013809D01*
X0019881Y0013809D01*
X0019881Y0013809D01*
X0019880Y0013809D01*
X0019876Y0013808D01*
X0019872Y0013807D01*
X0019871Y0013807D01*
X0019870Y0013807D01*
X0019867Y0013805D01*
X0019863Y0013803D01*
X0019863Y0013802D01*
X0019862Y0013802D01*
X0019859Y0013799D01*
X0019857Y0013796D01*
X0019856Y0013795D01*
X0019856Y0013795D01*
X0019854Y0013791D01*
X0019852Y0013787D01*
X0019852Y0013786D01*
X0019852Y0013786D01*
X0019851Y0013779D01*
X0019851Y0011771D01*
X0019852Y0011770D01*
G37*
G36*
X0006476Y0008897D02*
X0006476Y0008897D01*
X0006476Y0008896D01*
X0006477Y0008893D01*
X0006477Y0008889D01*
X0006478Y0008889D01*
X0006478Y0008889D01*
X0006480Y0008886D01*
X0006482Y0008883D01*
X0006482Y0008883D01*
X0006482Y0008883D01*
X0006485Y0008881D01*
X0006488Y0008879D01*
X0006489Y0008879D01*
X0006489Y0008879D01*
X0006496Y0008877D01*
X0008779Y0008877D01*
X0008779Y0008878D01*
X0008780Y0008877D01*
X0008783Y0008878D01*
X0008787Y0008879D01*
X0008787Y0008879D01*
X0008787Y0008879D01*
X0008790Y0008881D01*
X0008793Y0008883D01*
X0008793Y0008884D01*
X0008794Y0008884D01*
X0008795Y0008887D01*
X0008797Y0008890D01*
X0008797Y0008890D01*
X0008798Y0008891D01*
X0008799Y0008897D01*
X0008799Y0009724D01*
X0008799Y0009724D01*
X0008799Y0009725D01*
X0008798Y0009728D01*
X0008797Y0009732D01*
X0008797Y0009732D01*
X0008797Y0009732D01*
X0008795Y0009735D01*
X0008793Y0009738D01*
X0008792Y0009738D01*
X0008792Y0009738D01*
X0008789Y0009740D01*
X0008786Y0009742D01*
X0008786Y0009742D01*
X0008785Y0009742D01*
X0008779Y0009744D01*
X0006496Y0009744D01*
X0006495Y0009744D01*
X0006495Y0009744D01*
X0006491Y0009743D01*
X0006488Y0009742D01*
X0006488Y0009742D01*
X0006487Y0009742D01*
X0006484Y0009740D01*
X0006481Y0009738D01*
X0006481Y0009737D01*
X0006481Y0009737D01*
X0006479Y0009734D01*
X0006477Y0009731D01*
X0006477Y0009731D01*
X0006477Y0009730D01*
X0006476Y0009724D01*
X0006476Y0008897D01*
X0006476Y0008897D01*
G37*
G36*
X0010181Y0011495D02*
X0010181Y0011495D01*
X0010181Y0011318D01*
X0010181Y0011318D01*
X0010181Y0011318D01*
X0010181Y0011314D01*
X0010182Y0011311D01*
X0010182Y0011310D01*
X0010182Y0011310D01*
X0010185Y0011307D01*
X0010187Y0011304D01*
X0010187Y0011304D01*
X0010187Y0011304D01*
X0010190Y0011302D01*
X0010193Y0011300D01*
X0010194Y0011300D01*
X0010194Y0011300D01*
X0010200Y0011299D01*
X0010318Y0011299D01*
X0010319Y0011299D01*
X0010319Y0011299D01*
X0010319Y0011299D01*
X0010319Y0011299D01*
X0010323Y0011300D01*
X0010326Y0011300D01*
X0010326Y0011300D01*
X0010327Y0011301D01*
X0010330Y0011303D01*
X0010333Y0011305D01*
X0010333Y0011305D01*
X0010333Y0011305D01*
X0010335Y0011308D01*
X0010337Y0011311D01*
X0010337Y0011312D01*
X0010337Y0011312D01*
X0010338Y0011318D01*
X0010338Y0011495D01*
X0010338Y0011514D01*
X0010338Y0011515D01*
X0010338Y0011519D01*
X0010333Y0011536D01*
X0010332Y0011538D01*
X0010331Y0011541D01*
X0010322Y0011557D01*
X0010321Y0011558D01*
X0010319Y0011561D01*
X0010307Y0011574D01*
X0010305Y0011575D01*
X0010302Y0011577D01*
X0010287Y0011586D01*
X0010285Y0011587D01*
X0010282Y0011588D01*
X0010265Y0011593D01*
X0010263Y0011593D01*
X0010261Y0011594D01*
X0010259Y0011594D01*
X0010258Y0011594D01*
X0010258Y0011594D01*
X0010257Y0011594D01*
X0010256Y0011593D01*
X0010254Y0011593D01*
X0010237Y0011588D01*
X0010235Y0011588D01*
X0010232Y0011586D01*
X0010216Y0011577D01*
X0010215Y0011576D01*
X0010212Y0011574D01*
X0010199Y0011561D01*
X0010199Y0011559D01*
X0010196Y0011557D01*
X0010187Y0011541D01*
X0010187Y0011539D01*
X0010186Y0011536D01*
X0010181Y0011519D01*
X0010181Y0011517D01*
X0010180Y0011514D01*
X0010181Y0011495D01*
G37*
G36*
X0009984Y0011495D02*
X0009984Y0011495D01*
X0009984Y0011318D01*
X0009984Y0011318D01*
X0009984Y0011318D01*
X0009985Y0011314D01*
X0009985Y0011311D01*
X0009986Y0011310D01*
X0009986Y0011310D01*
X0009988Y0011307D01*
X0009990Y0011304D01*
X0009990Y0011304D01*
X0009990Y0011304D01*
X0009993Y0011302D01*
X0009996Y0011300D01*
X0009997Y0011300D01*
X0009997Y0011300D01*
X0010003Y0011299D01*
X0010122Y0011299D01*
X0010122Y0011299D01*
X0010122Y0011299D01*
X0010122Y0011299D01*
X0010122Y0011299D01*
X0010126Y0011300D01*
X0010129Y0011300D01*
X0010130Y0011300D01*
X0010130Y0011301D01*
X0010133Y0011303D01*
X0010136Y0011305D01*
X0010136Y0011305D01*
X0010136Y0011305D01*
X0010138Y0011308D01*
X0010140Y0011311D01*
X0010140Y0011312D01*
X0010140Y0011312D01*
X0010141Y0011318D01*
X0010141Y0011495D01*
X0010141Y0011514D01*
X0010141Y0011515D01*
X0010141Y0011519D01*
X0010136Y0011536D01*
X0010136Y0011538D01*
X0010134Y0011541D01*
X0010125Y0011557D01*
X0010124Y0011558D01*
X0010122Y0011561D01*
X0010110Y0011574D01*
X0010108Y0011575D01*
X0010106Y0011577D01*
X0010090Y0011586D01*
X0010088Y0011587D01*
X0010085Y0011588D01*
X0010068Y0011593D01*
X0010066Y0011593D01*
X0010064Y0011594D01*
X0010062Y0011594D01*
X0010062Y0011594D01*
X0010061Y0011594D01*
X0010060Y0011594D01*
X0010059Y0011593D01*
X0010057Y0011593D01*
X0010040Y0011588D01*
X0010038Y0011588D01*
X0010035Y0011586D01*
X0010019Y0011577D01*
X0010018Y0011576D01*
X0010015Y0011574D01*
X0010003Y0011561D01*
X0010002Y0011559D01*
X0010000Y0011557D01*
X0009991Y0011541D01*
X0009990Y0011539D01*
X0009989Y0011536D01*
X0009984Y0011519D01*
X0009984Y0011517D01*
X0009984Y0011514D01*
X0009984Y0011495D01*
G37*
G36*
X0009787Y0011495D02*
X0009787Y0011495D01*
X0009787Y0011318D01*
X0009787Y0011318D01*
X0009787Y0011318D01*
X0009788Y0011314D01*
X0009788Y0011311D01*
X0009789Y0011310D01*
X0009789Y0011310D01*
X0009791Y0011307D01*
X0009793Y0011304D01*
X0009793Y0011304D01*
X0009793Y0011304D01*
X0009796Y0011302D01*
X0009800Y0011300D01*
X0009800Y0011300D01*
X0009800Y0011300D01*
X0009807Y0011299D01*
X0009925Y0011299D01*
X0009925Y0011299D01*
X0009925Y0011299D01*
X0009925Y0011299D01*
X0009925Y0011299D01*
X0009929Y0011300D01*
X0009932Y0011300D01*
X0009933Y0011300D01*
X0009933Y0011301D01*
X0009936Y0011303D01*
X0009939Y0011305D01*
X0009939Y0011305D01*
X0009939Y0011305D01*
X0009941Y0011308D01*
X0009943Y0011311D01*
X0009943Y0011312D01*
X0009943Y0011312D01*
X0009944Y0011318D01*
X0009944Y0011495D01*
X0009945Y0011514D01*
X0009944Y0011515D01*
X0009944Y0011519D01*
X0009939Y0011536D01*
X0009939Y0011538D01*
X0009938Y0011541D01*
X0009929Y0011557D01*
X0009927Y0011558D01*
X0009926Y0011561D01*
X0009913Y0011574D01*
X0009911Y0011575D01*
X0009909Y0011577D01*
X0009893Y0011586D01*
X0009891Y0011587D01*
X0009888Y0011588D01*
X0009871Y0011593D01*
X0009869Y0011593D01*
X0009867Y0011594D01*
X0009865Y0011594D01*
X0009865Y0011594D01*
X0009864Y0011594D01*
X0009863Y0011594D01*
X0009862Y0011593D01*
X0009860Y0011593D01*
X0009843Y0011588D01*
X0009841Y0011588D01*
X0009838Y0011586D01*
X0009822Y0011577D01*
X0009821Y0011576D01*
X0009818Y0011574D01*
X0009806Y0011561D01*
X0009805Y0011559D01*
X0009803Y0011557D01*
X0009794Y0011541D01*
X0009793Y0011539D01*
X0009792Y0011536D01*
X0009787Y0011519D01*
X0009787Y0011517D01*
X0009787Y0011514D01*
X0009787Y0011495D01*
G37*
G36*
X0009590Y0011495D02*
X0009590Y0011495D01*
X0009590Y0011318D01*
X0009590Y0011318D01*
X0009590Y0011318D01*
X0009591Y0011314D01*
X0009592Y0011311D01*
X0009592Y0011310D01*
X0009592Y0011310D01*
X0009594Y0011307D01*
X0009596Y0011304D01*
X0009596Y0011304D01*
X0009597Y0011304D01*
X0009600Y0011302D01*
X0009603Y0011300D01*
X0009603Y0011300D01*
X0009603Y0011300D01*
X0009610Y0011299D01*
X0009728Y0011299D01*
X0009728Y0011299D01*
X0009728Y0011299D01*
X0009728Y0011299D01*
X0009729Y0011299D01*
X0009732Y0011300D01*
X0009736Y0011300D01*
X0009736Y0011300D01*
X0009736Y0011301D01*
X0009739Y0011303D01*
X0009742Y0011305D01*
X0009742Y0011305D01*
X0009742Y0011305D01*
X0009744Y0011308D01*
X0009746Y0011311D01*
X0009746Y0011312D01*
X0009746Y0011312D01*
X0009747Y0011318D01*
X0009747Y0011495D01*
X0009748Y0011514D01*
X0009747Y0011515D01*
X0009747Y0011519D01*
X0009743Y0011536D01*
X0009742Y0011538D01*
X0009741Y0011541D01*
X0009732Y0011557D01*
X0009731Y0011558D01*
X0009729Y0011561D01*
X0009716Y0011574D01*
X0009714Y0011575D01*
X0009712Y0011577D01*
X0009696Y0011586D01*
X0009695Y0011587D01*
X0009692Y0011588D01*
X0009674Y0011593D01*
X0009672Y0011593D01*
X0009670Y0011594D01*
X0009668Y0011594D01*
X0009668Y0011594D01*
X0009667Y0011594D01*
X0009666Y0011594D01*
X0009665Y0011593D01*
X0009663Y0011593D01*
X0009646Y0011588D01*
X0009644Y0011588D01*
X0009641Y0011586D01*
X0009626Y0011577D01*
X0009624Y0011576D01*
X0009622Y0011574D01*
X0009609Y0011561D01*
X0009608Y0011559D01*
X0009606Y0011557D01*
X0009597Y0011541D01*
X0009596Y0011539D01*
X0009595Y0011536D01*
X0009590Y0011519D01*
X0009590Y0011517D01*
X0009590Y0011514D01*
X0009590Y0011495D01*
G37*
G36*
X0009393Y0011495D02*
X0009393Y0011495D01*
X0009393Y0011318D01*
X0009393Y0011318D01*
X0009393Y0011318D01*
X0009394Y0011314D01*
X0009395Y0011311D01*
X0009395Y0011310D01*
X0009395Y0011310D01*
X0009397Y0011307D01*
X0009399Y0011304D01*
X0009399Y0011304D01*
X0009400Y0011304D01*
X0009403Y0011302D01*
X0009406Y0011300D01*
X0009406Y0011300D01*
X0009406Y0011300D01*
X0009413Y0011299D01*
X0009531Y0011299D01*
X0009531Y0011299D01*
X0009531Y0011299D01*
X0009531Y0011299D01*
X0009532Y0011299D01*
X0009535Y0011300D01*
X0009539Y0011300D01*
X0009539Y0011300D01*
X0009539Y0011301D01*
X0009542Y0011303D01*
X0009545Y0011305D01*
X0009545Y0011305D01*
X0009546Y0011305D01*
X0009547Y0011308D01*
X0009549Y0011311D01*
X0009549Y0011312D01*
X0009550Y0011312D01*
X0009551Y0011318D01*
X0009551Y0011495D01*
X0009551Y0011514D01*
X0009551Y0011515D01*
X0009550Y0011519D01*
X0009546Y0011536D01*
X0009545Y0011538D01*
X0009544Y0011541D01*
X0009535Y0011557D01*
X0009534Y0011558D01*
X0009532Y0011561D01*
X0009519Y0011574D01*
X0009518Y0011575D01*
X0009515Y0011577D01*
X0009499Y0011586D01*
X0009498Y0011587D01*
X0009495Y0011588D01*
X0009477Y0011593D01*
X0009475Y0011593D01*
X0009473Y0011594D01*
X0009472Y0011594D01*
X0009471Y0011594D01*
X0009470Y0011594D01*
X0009469Y0011594D01*
X0009468Y0011593D01*
X0009467Y0011593D01*
X0009449Y0011588D01*
X0009448Y0011588D01*
X0009444Y0011586D01*
X0009429Y0011577D01*
X0009427Y0011576D01*
X0009425Y0011574D01*
X0009412Y0011561D01*
X0009411Y0011559D01*
X0009409Y0011557D01*
X0009400Y0011541D01*
X0009400Y0011539D01*
X0009398Y0011536D01*
X0009394Y0011519D01*
X0009394Y0011517D01*
X0009393Y0011514D01*
X0009393Y0011495D01*
G37*
G36*
X0010181Y0012893D02*
X0010181Y0012893D01*
X0010181Y0012890D01*
X0010186Y0012872D01*
X0010186Y0012871D01*
X0010187Y0012867D01*
X0010196Y0012852D01*
X0010198Y0012850D01*
X0010199Y0012848D01*
X0010212Y0012835D01*
X0010214Y0012834D01*
X0010216Y0012831D01*
X0010232Y0012822D01*
X0010234Y0012822D01*
X0010237Y0012820D01*
X0010254Y0012815D01*
X0010256Y0012815D01*
X0010258Y0012815D01*
X0010259Y0012815D01*
X0010260Y0012815D01*
X0010260Y0012815D01*
X0010262Y0012815D01*
X0010263Y0012815D01*
X0010265Y0012815D01*
X0010282Y0012820D01*
X0010284Y0012821D01*
X0010287Y0012822D01*
X0010302Y0012831D01*
X0010304Y0012833D01*
X0010307Y0012835D01*
X0010319Y0012848D01*
X0010320Y0012849D01*
X0010322Y0012852D01*
X0010331Y0012867D01*
X0010332Y0012869D01*
X0010333Y0012872D01*
X0010338Y0012890D01*
X0010338Y0012892D01*
X0010338Y0012895D01*
X0010338Y0012913D01*
X0010338Y0013090D01*
X0010338Y0013090D01*
X0010338Y0013091D01*
X0010337Y0013094D01*
X0010337Y0013098D01*
X0010336Y0013098D01*
X0010336Y0013098D01*
X0010334Y0013101D01*
X0010332Y0013104D01*
X0010332Y0013104D01*
X0010332Y0013105D01*
X0010329Y0013106D01*
X0010325Y0013108D01*
X0010325Y0013108D01*
X0010325Y0013109D01*
X0010318Y0013110D01*
X0010200Y0013110D01*
X0010200Y0013110D01*
X0010200Y0013110D01*
X0010196Y0013109D01*
X0010193Y0013108D01*
X0010192Y0013108D01*
X0010192Y0013108D01*
X0010189Y0013106D01*
X0010186Y0013104D01*
X0010186Y0013103D01*
X0010186Y0013103D01*
X0010184Y0013100D01*
X0010182Y0013097D01*
X0010182Y0013097D01*
X0010182Y0013097D01*
X0010181Y0013090D01*
X0010181Y0012913D01*
X0010180Y0012895D01*
X0010181Y0012893D01*
G37*
G36*
X0009984Y0012893D02*
X0009984Y0012893D01*
X0009984Y0012890D01*
X0009989Y0012872D01*
X0009989Y0012871D01*
X0009991Y0012867D01*
X0010000Y0012852D01*
X0010001Y0012850D01*
X0010003Y0012848D01*
X0010015Y0012835D01*
X0010017Y0012834D01*
X0010019Y0012831D01*
X0010035Y0012822D01*
X0010037Y0012822D01*
X0010040Y0012820D01*
X0010057Y0012815D01*
X0010059Y0012815D01*
X0010061Y0012815D01*
X0010062Y0012815D01*
X0010063Y0012815D01*
X0010064Y0012815D01*
X0010065Y0012815D01*
X0010066Y0012815D01*
X0010068Y0012815D01*
X0010085Y0012820D01*
X0010087Y0012821D01*
X0010090Y0012822D01*
X0010106Y0012831D01*
X0010107Y0012833D01*
X0010110Y0012835D01*
X0010122Y0012848D01*
X0010123Y0012849D01*
X0010125Y0012852D01*
X0010134Y0012867D01*
X0010135Y0012869D01*
X0010136Y0012872D01*
X0010141Y0012890D01*
X0010141Y0012892D01*
X0010141Y0012895D01*
X0010141Y0012913D01*
X0010141Y0013090D01*
X0010141Y0013090D01*
X0010141Y0013091D01*
X0010140Y0013094D01*
X0010140Y0013098D01*
X0010139Y0013098D01*
X0010139Y0013098D01*
X0010137Y0013101D01*
X0010135Y0013104D01*
X0010135Y0013104D01*
X0010135Y0013105D01*
X0010132Y0013106D01*
X0010129Y0013108D01*
X0010128Y0013108D01*
X0010128Y0013109D01*
X0010122Y0013110D01*
X0010003Y0013110D01*
X0010003Y0013110D01*
X0010003Y0013110D01*
X0009999Y0013109D01*
X0009996Y0013108D01*
X0009995Y0013108D01*
X0009995Y0013108D01*
X0009992Y0013106D01*
X0009989Y0013104D01*
X0009989Y0013103D01*
X0009989Y0013103D01*
X0009987Y0013100D01*
X0009985Y0013097D01*
X0009985Y0013097D01*
X0009985Y0013097D01*
X0009984Y0013090D01*
X0009984Y0012913D01*
X0009984Y0012895D01*
X0009984Y0012893D01*
G37*
G36*
X0009787Y0012893D02*
X0009787Y0012893D01*
X0009787Y0012890D01*
X0009792Y0012872D01*
X0009793Y0012871D01*
X0009794Y0012867D01*
X0009803Y0012852D01*
X0009804Y0012850D01*
X0009806Y0012848D01*
X0009818Y0012835D01*
X0009820Y0012834D01*
X0009822Y0012831D01*
X0009838Y0012822D01*
X0009840Y0012822D01*
X0009843Y0012820D01*
X0009860Y0012815D01*
X0009862Y0012815D01*
X0009864Y0012815D01*
X0009866Y0012815D01*
X0009866Y0012815D01*
X0009867Y0012815D01*
X0009868Y0012815D01*
X0009869Y0012815D01*
X0009871Y0012815D01*
X0009888Y0012820D01*
X0009890Y0012821D01*
X0009893Y0012822D01*
X0009909Y0012831D01*
X0009910Y0012833D01*
X0009913Y0012835D01*
X0009926Y0012848D01*
X0009927Y0012849D01*
X0009929Y0012852D01*
X0009938Y0012867D01*
X0009938Y0012869D01*
X0009939Y0012872D01*
X0009944Y0012890D01*
X0009944Y0012892D01*
X0009945Y0012895D01*
X0009944Y0012913D01*
X0009944Y0013090D01*
X0009944Y0013090D01*
X0009944Y0013091D01*
X0009944Y0013094D01*
X0009943Y0013098D01*
X0009943Y0013098D01*
X0009942Y0013098D01*
X0009940Y0013101D01*
X0009938Y0013104D01*
X0009938Y0013104D01*
X0009938Y0013105D01*
X0009935Y0013106D01*
X0009932Y0013108D01*
X0009931Y0013108D01*
X0009931Y0013109D01*
X0009925Y0013110D01*
X0009807Y0013110D01*
X0009806Y0013110D01*
X0009806Y0013110D01*
X0009802Y0013109D01*
X0009799Y0013108D01*
X0009799Y0013108D01*
X0009798Y0013108D01*
X0009795Y0013106D01*
X0009792Y0013104D01*
X0009792Y0013103D01*
X0009792Y0013103D01*
X0009790Y0013100D01*
X0009788Y0013097D01*
X0009788Y0013097D01*
X0009788Y0013097D01*
X0009787Y0013090D01*
X0009787Y0012913D01*
X0009787Y0012895D01*
X0009787Y0012893D01*
G37*
G36*
X0009590Y0012893D02*
X0009590Y0012893D01*
X0009590Y0012890D01*
X0009595Y0012872D01*
X0009596Y0012871D01*
X0009597Y0012867D01*
X0009606Y0012852D01*
X0009607Y0012850D01*
X0009609Y0012848D01*
X0009622Y0012835D01*
X0009623Y0012834D01*
X0009626Y0012831D01*
X0009641Y0012822D01*
X0009643Y0012822D01*
X0009646Y0012820D01*
X0009663Y0012815D01*
X0009666Y0012815D01*
X0009668Y0012815D01*
X0009669Y0012815D01*
X0009669Y0012815D01*
X0009670Y0012815D01*
X0009671Y0012815D01*
X0009672Y0012815D01*
X0009674Y0012815D01*
X0009692Y0012820D01*
X0009693Y0012821D01*
X0009696Y0012822D01*
X0009712Y0012831D01*
X0009713Y0012833D01*
X0009716Y0012835D01*
X0009729Y0012848D01*
X0009730Y0012849D01*
X0009732Y0012852D01*
X0009741Y0012867D01*
X0009741Y0012869D01*
X0009743Y0012872D01*
X0009747Y0012890D01*
X0009747Y0012892D01*
X0009748Y0012895D01*
X0009747Y0012913D01*
X0009747Y0013090D01*
X0009747Y0013090D01*
X0009747Y0013091D01*
X0009747Y0013094D01*
X0009746Y0013098D01*
X0009746Y0013098D01*
X0009746Y0013098D01*
X0009744Y0013101D01*
X0009742Y0013104D01*
X0009741Y0013104D01*
X0009741Y0013105D01*
X0009738Y0013106D01*
X0009735Y0013108D01*
X0009735Y0013108D01*
X0009734Y0013109D01*
X0009728Y0013110D01*
X0009610Y0013110D01*
X0009609Y0013110D01*
X0009609Y0013110D01*
X0009606Y0013109D01*
X0009602Y0013108D01*
X0009602Y0013108D01*
X0009601Y0013108D01*
X0009599Y0013106D01*
X0009596Y0013104D01*
X0009595Y0013103D01*
X0009595Y0013103D01*
X0009593Y0013100D01*
X0009591Y0013097D01*
X0009591Y0013097D01*
X0009591Y0013097D01*
X0009590Y0013090D01*
X0009590Y0012913D01*
X0009590Y0012895D01*
X0009590Y0012893D01*
G37*
G36*
X0009393Y0012893D02*
X0009393Y0012893D01*
X0009394Y0012890D01*
X0009398Y0012872D01*
X0009399Y0012871D01*
X0009400Y0012867D01*
X0009409Y0012852D01*
X0009410Y0012850D01*
X0009412Y0012848D01*
X0009425Y0012835D01*
X0009426Y0012834D01*
X0009429Y0012831D01*
X0009444Y0012822D01*
X0009446Y0012822D01*
X0009449Y0012820D01*
X0009467Y0012815D01*
X0009469Y0012815D01*
X0009471Y0012815D01*
X0009472Y0012815D01*
X0009472Y0012815D01*
X0009473Y0012815D01*
X0009474Y0012815D01*
X0009476Y0012815D01*
X0009477Y0012815D01*
X0009495Y0012820D01*
X0009496Y0012821D01*
X0009499Y0012822D01*
X0009515Y0012831D01*
X0009516Y0012833D01*
X0009519Y0012835D01*
X0009532Y0012848D01*
X0009533Y0012849D01*
X0009535Y0012852D01*
X0009544Y0012867D01*
X0009544Y0012869D01*
X0009546Y0012872D01*
X0009550Y0012890D01*
X0009550Y0012892D01*
X0009551Y0012895D01*
X0009551Y0012913D01*
X0009551Y0013090D01*
X0009551Y0013090D01*
X0009551Y0013091D01*
X0009550Y0013094D01*
X0009549Y0013098D01*
X0009549Y0013098D01*
X0009549Y0013098D01*
X0009547Y0013101D01*
X0009545Y0013104D01*
X0009544Y0013104D01*
X0009544Y0013105D01*
X0009541Y0013106D01*
X0009538Y0013108D01*
X0009538Y0013108D01*
X0009537Y0013109D01*
X0009531Y0013110D01*
X0009413Y0013110D01*
X0009413Y0013110D01*
X0009412Y0013110D01*
X0009409Y0013109D01*
X0009405Y0013108D01*
X0009405Y0013108D01*
X0009405Y0013108D01*
X0009402Y0013106D01*
X0009399Y0013104D01*
X0009399Y0013103D01*
X0009398Y0013103D01*
X0009396Y0013100D01*
X0009395Y0013097D01*
X0009395Y0013097D01*
X0009394Y0013097D01*
X0009393Y0013090D01*
X0009393Y0012913D01*
X0009393Y0012895D01*
X0009393Y0012893D01*
G37*
G36*
X0010476Y0012203D02*
X0010476Y0012203D01*
X0010476Y0012202D01*
X0010476Y0012201D01*
X0010477Y0012199D01*
X0010482Y0012181D01*
X0010482Y0012180D01*
X0010484Y0012177D01*
X0010493Y0012161D01*
X0010494Y0012160D01*
X0010496Y0012157D01*
X0010509Y0012144D01*
X0010510Y0012143D01*
X0010513Y0012141D01*
X0010529Y0012132D01*
X0010531Y0012132D01*
X0010534Y0012130D01*
X0010551Y0012126D01*
X0010553Y0012126D01*
X0010556Y0012125D01*
X0010574Y0012126D01*
X0010751Y0012126D01*
X0010752Y0012126D01*
X0010752Y0012126D01*
X0010752Y0012126D01*
X0010752Y0012126D01*
X0010756Y0012126D01*
X0010759Y0012127D01*
X0010759Y0012127D01*
X0010760Y0012127D01*
X0010763Y0012129D01*
X0010766Y0012132D01*
X0010766Y0012132D01*
X0010766Y0012132D01*
X0010768Y0012135D01*
X0010770Y0012138D01*
X0010770Y0012138D01*
X0010770Y0012139D01*
X0010771Y0012145D01*
X0010771Y0012263D01*
X0010771Y0012264D01*
X0010771Y0012264D01*
X0010770Y0012267D01*
X0010770Y0012271D01*
X0010769Y0012271D01*
X0010769Y0012272D01*
X0010767Y0012274D01*
X0010765Y0012277D01*
X0010765Y0012278D01*
X0010765Y0012278D01*
X0010762Y0012280D01*
X0010759Y0012282D01*
X0010758Y0012282D01*
X0010758Y0012282D01*
X0010751Y0012283D01*
X0010574Y0012283D01*
X0010556Y0012283D01*
X0010555Y0012283D01*
X0010551Y0012283D01*
X0010534Y0012278D01*
X0010532Y0012277D01*
X0010529Y0012276D01*
X0010513Y0012267D01*
X0010512Y0012266D01*
X0010509Y0012264D01*
X0010496Y0012251D01*
X0010495Y0012250D01*
X0010493Y0012247D01*
X0010484Y0012232D01*
X0010483Y0012230D01*
X0010482Y0012227D01*
X0010477Y0012210D01*
X0010476Y0012207D01*
X0010476Y0012205D01*
X0010476Y0012203D01*
G37*
G36*
X0010476Y0012597D02*
X0010476Y0012597D01*
X0010476Y0012595D01*
X0010476Y0012594D01*
X0010477Y0012593D01*
X0010482Y0012575D01*
X0010482Y0012574D01*
X0010484Y0012570D01*
X0010493Y0012555D01*
X0010494Y0012553D01*
X0010496Y0012551D01*
X0010509Y0012538D01*
X0010510Y0012537D01*
X0010513Y0012535D01*
X0010529Y0012526D01*
X0010531Y0012526D01*
X0010534Y0012524D01*
X0010551Y0012520D01*
X0010553Y0012520D01*
X0010556Y0012519D01*
X0010574Y0012519D01*
X0010751Y0012519D01*
X0010752Y0012519D01*
X0010752Y0012519D01*
X0010752Y0012519D01*
X0010752Y0012519D01*
X0010756Y0012520D01*
X0010759Y0012521D01*
X0010759Y0012521D01*
X0010760Y0012521D01*
X0010763Y0012523D01*
X0010766Y0012525D01*
X0010766Y0012525D01*
X0010766Y0012526D01*
X0010768Y0012529D01*
X0010770Y0012532D01*
X0010770Y0012532D01*
X0010770Y0012532D01*
X0010771Y0012539D01*
X0010771Y0012657D01*
X0010771Y0012657D01*
X0010771Y0012658D01*
X0010770Y0012661D01*
X0010770Y0012665D01*
X0010769Y0012665D01*
X0010769Y0012665D01*
X0010767Y0012668D01*
X0010765Y0012671D01*
X0010765Y0012671D01*
X0010765Y0012672D01*
X0010762Y0012673D01*
X0010759Y0012675D01*
X0010758Y0012675D01*
X0010758Y0012676D01*
X0010751Y0012677D01*
X0010574Y0012677D01*
X0010556Y0012677D01*
X0010555Y0012677D01*
X0010551Y0012676D01*
X0010534Y0012672D01*
X0010532Y0012671D01*
X0010529Y0012670D01*
X0010513Y0012661D01*
X0010512Y0012660D01*
X0010509Y0012658D01*
X0010496Y0012645D01*
X0010495Y0012644D01*
X0010493Y0012641D01*
X0010484Y0012625D01*
X0010483Y0012624D01*
X0010482Y0012621D01*
X0010477Y0012603D01*
X0010476Y0012601D01*
X0010476Y0012599D01*
X0010476Y0012597D01*
G37*
G36*
X0010476Y0012400D02*
X0010476Y0012400D01*
X0010476Y0012399D01*
X0010476Y0012397D01*
X0010477Y0012396D01*
X0010482Y0012378D01*
X0010482Y0012377D01*
X0010484Y0012374D01*
X0010493Y0012358D01*
X0010494Y0012357D01*
X0010496Y0012354D01*
X0010509Y0012341D01*
X0010510Y0012340D01*
X0010513Y0012338D01*
X0010529Y0012329D01*
X0010531Y0012329D01*
X0010534Y0012327D01*
X0010551Y0012323D01*
X0010553Y0012323D01*
X0010556Y0012322D01*
X0010574Y0012322D01*
X0010751Y0012322D01*
X0010752Y0012322D01*
X0010752Y0012322D01*
X0010752Y0012322D01*
X0010752Y0012322D01*
X0010756Y0012323D01*
X0010759Y0012324D01*
X0010759Y0012324D01*
X0010760Y0012324D01*
X0010763Y0012326D01*
X0010766Y0012328D01*
X0010766Y0012329D01*
X0010766Y0012329D01*
X0010768Y0012332D01*
X0010770Y0012335D01*
X0010770Y0012335D01*
X0010770Y0012336D01*
X0010771Y0012342D01*
X0010771Y0012460D01*
X0010771Y0012460D01*
X0010771Y0012461D01*
X0010770Y0012464D01*
X0010770Y0012468D01*
X0010769Y0012468D01*
X0010769Y0012468D01*
X0010767Y0012471D01*
X0010765Y0012474D01*
X0010765Y0012474D01*
X0010765Y0012475D01*
X0010762Y0012477D01*
X0010759Y0012478D01*
X0010758Y0012479D01*
X0010758Y0012479D01*
X0010751Y0012480D01*
X0010574Y0012480D01*
X0010556Y0012480D01*
X0010555Y0012480D01*
X0010551Y0012479D01*
X0010534Y0012475D01*
X0010532Y0012474D01*
X0010529Y0012473D01*
X0010513Y0012464D01*
X0010512Y0012463D01*
X0010509Y0012461D01*
X0010496Y0012448D01*
X0010495Y0012447D01*
X0010493Y0012444D01*
X0010484Y0012429D01*
X0010483Y0012427D01*
X0010482Y0012424D01*
X0010477Y0012406D01*
X0010476Y0012404D01*
X0010476Y0012402D01*
X0010476Y0012400D01*
G37*
G36*
X0010476Y0012006D02*
X0010476Y0012006D01*
X0010476Y0012005D01*
X0010476Y0012004D01*
X0010477Y0012002D01*
X0010482Y0011985D01*
X0010482Y0011983D01*
X0010484Y0011980D01*
X0010493Y0011964D01*
X0010494Y0011963D01*
X0010496Y0011960D01*
X0010509Y0011947D01*
X0010510Y0011947D01*
X0010513Y0011944D01*
X0010529Y0011935D01*
X0010531Y0011935D01*
X0010534Y0011934D01*
X0010551Y0011929D01*
X0010553Y0011929D01*
X0010556Y0011928D01*
X0010574Y0011929D01*
X0010751Y0011929D01*
X0010752Y0011929D01*
X0010752Y0011929D01*
X0010752Y0011929D01*
X0010752Y0011929D01*
X0010756Y0011930D01*
X0010759Y0011930D01*
X0010759Y0011930D01*
X0010760Y0011930D01*
X0010763Y0011933D01*
X0010766Y0011935D01*
X0010766Y0011935D01*
X0010766Y0011935D01*
X0010768Y0011938D01*
X0010770Y0011941D01*
X0010770Y0011942D01*
X0010770Y0011942D01*
X0010771Y0011948D01*
X0010771Y0012066D01*
X0010771Y0012067D01*
X0010771Y0012067D01*
X0010770Y0012071D01*
X0010770Y0012074D01*
X0010769Y0012074D01*
X0010769Y0012075D01*
X0010767Y0012078D01*
X0010765Y0012081D01*
X0010765Y0012081D01*
X0010765Y0012081D01*
X0010762Y0012083D01*
X0010759Y0012085D01*
X0010758Y0012085D01*
X0010758Y0012085D01*
X0010751Y0012086D01*
X0010574Y0012086D01*
X0010556Y0012086D01*
X0010555Y0012086D01*
X0010551Y0012086D01*
X0010534Y0012081D01*
X0010532Y0012080D01*
X0010529Y0012079D01*
X0010513Y0012070D01*
X0010512Y0012069D01*
X0010509Y0012067D01*
X0010496Y0012055D01*
X0010495Y0012053D01*
X0010493Y0012051D01*
X0010484Y0012035D01*
X0010483Y0012033D01*
X0010482Y0012030D01*
X0010477Y0012013D01*
X0010476Y0012011D01*
X0010476Y0012009D01*
X0010476Y0012006D01*
G37*
G36*
X0010476Y0011810D02*
X0010476Y0011810D01*
X0010476Y0011808D01*
X0010476Y0011807D01*
X0010477Y0011805D01*
X0010482Y0011788D01*
X0010482Y0011786D01*
X0010484Y0011783D01*
X0010493Y0011767D01*
X0010494Y0011766D01*
X0010496Y0011763D01*
X0010509Y0011751D01*
X0010510Y0011750D01*
X0010513Y0011748D01*
X0010529Y0011739D01*
X0010531Y0011738D01*
X0010534Y0011737D01*
X0010551Y0011732D01*
X0010553Y0011732D01*
X0010556Y0011732D01*
X0010574Y0011732D01*
X0010751Y0011732D01*
X0010752Y0011732D01*
X0010752Y0011732D01*
X0010752Y0011732D01*
X0010752Y0011732D01*
X0010756Y0011733D01*
X0010759Y0011733D01*
X0010759Y0011734D01*
X0010760Y0011734D01*
X0010763Y0011736D01*
X0010766Y0011738D01*
X0010766Y0011738D01*
X0010766Y0011738D01*
X0010768Y0011741D01*
X0010770Y0011744D01*
X0010770Y0011745D01*
X0010770Y0011745D01*
X0010771Y0011751D01*
X0010771Y0011870D01*
X0010771Y0011870D01*
X0010771Y0011870D01*
X0010770Y0011874D01*
X0010770Y0011877D01*
X0010769Y0011878D01*
X0010769Y0011878D01*
X0010767Y0011881D01*
X0010765Y0011884D01*
X0010765Y0011884D01*
X0010765Y0011884D01*
X0010762Y0011886D01*
X0010759Y0011888D01*
X0010758Y0011888D01*
X0010758Y0011888D01*
X0010751Y0011889D01*
X0010574Y0011889D01*
X0010556Y0011889D01*
X0010555Y0011889D01*
X0010551Y0011889D01*
X0010534Y0011884D01*
X0010532Y0011884D01*
X0010529Y0011882D01*
X0010513Y0011873D01*
X0010512Y0011872D01*
X0010509Y0011870D01*
X0010496Y0011858D01*
X0010495Y0011856D01*
X0010493Y0011854D01*
X0010484Y0011838D01*
X0010483Y0011836D01*
X0010482Y0011833D01*
X0010477Y0011816D01*
X0010476Y0011814D01*
X0010476Y0011812D01*
X0010476Y0011810D01*
G37*
G36*
X0008960Y0012145D02*
X0008960Y0012145D01*
X0008960Y0012145D01*
X0008961Y0012141D01*
X0008962Y0012137D01*
X0008962Y0012137D01*
X0008962Y0012137D01*
X0008964Y0012134D01*
X0008966Y0012131D01*
X0008966Y0012131D01*
X0008967Y0012131D01*
X0008970Y0012129D01*
X0008973Y0012127D01*
X0008973Y0012127D01*
X0008973Y0012127D01*
X0008980Y0012126D01*
X0009157Y0012126D01*
X0009175Y0012125D01*
X0009177Y0012126D01*
X0009177Y0012126D01*
X0009177Y0012126D01*
X0009177Y0012126D01*
X0009180Y0012126D01*
X0009198Y0012130D01*
X0009199Y0012131D01*
X0009202Y0012132D01*
X0009218Y0012141D01*
X0009220Y0012142D01*
X0009222Y0012144D01*
X0009235Y0012157D01*
X0009236Y0012159D01*
X0009238Y0012161D01*
X0009248Y0012177D01*
X0009248Y0012178D01*
X0009250Y0012181D01*
X0009255Y0012199D01*
X0009255Y0012201D01*
X0009255Y0012203D01*
X0009255Y0012205D01*
X0009255Y0012207D01*
X0009255Y0012208D01*
X0009255Y0012210D01*
X0009250Y0012227D01*
X0009249Y0012229D01*
X0009248Y0012232D01*
X0009238Y0012247D01*
X0009237Y0012249D01*
X0009235Y0012251D01*
X0009222Y0012264D01*
X0009221Y0012265D01*
X0009218Y0012267D01*
X0009202Y0012276D01*
X0009201Y0012277D01*
X0009198Y0012278D01*
X0009180Y0012283D01*
X0009178Y0012283D01*
X0009175Y0012283D01*
X0009157Y0012283D01*
X0008980Y0012283D01*
X0008980Y0012283D01*
X0008979Y0012283D01*
X0008976Y0012282D01*
X0008972Y0012281D01*
X0008972Y0012281D01*
X0008972Y0012281D01*
X0008969Y0012279D01*
X0008966Y0012277D01*
X0008965Y0012277D01*
X0008965Y0012276D01*
X0008963Y0012273D01*
X0008961Y0012270D01*
X0008961Y0012270D01*
X0008961Y0012270D01*
X0008960Y0012263D01*
X0008960Y0012145D01*
X0008960Y0012145D01*
G37*
G36*
X0008960Y0012539D02*
X0008960Y0012539D01*
X0008960Y0012538D01*
X0008961Y0012535D01*
X0008962Y0012531D01*
X0008962Y0012531D01*
X0008962Y0012531D01*
X0008964Y0012528D01*
X0008966Y0012525D01*
X0008966Y0012525D01*
X0008967Y0012524D01*
X0008970Y0012522D01*
X0008973Y0012521D01*
X0008973Y0012520D01*
X0008973Y0012520D01*
X0008980Y0012519D01*
X0009157Y0012519D01*
X0009175Y0012519D01*
X0009177Y0012519D01*
X0009177Y0012519D01*
X0009177Y0012519D01*
X0009177Y0012519D01*
X0009180Y0012520D01*
X0009198Y0012524D01*
X0009199Y0012525D01*
X0009202Y0012526D01*
X0009218Y0012535D01*
X0009220Y0012536D01*
X0009222Y0012538D01*
X0009235Y0012551D01*
X0009236Y0012552D01*
X0009238Y0012555D01*
X0009248Y0012570D01*
X0009248Y0012572D01*
X0009250Y0012575D01*
X0009255Y0012593D01*
X0009255Y0012595D01*
X0009255Y0012597D01*
X0009255Y0012599D01*
X0009255Y0012600D01*
X0009255Y0012602D01*
X0009255Y0012603D01*
X0009250Y0012621D01*
X0009249Y0012622D01*
X0009248Y0012625D01*
X0009238Y0012641D01*
X0009237Y0012642D01*
X0009235Y0012645D01*
X0009222Y0012658D01*
X0009221Y0012659D01*
X0009218Y0012661D01*
X0009202Y0012670D01*
X0009201Y0012670D01*
X0009198Y0012672D01*
X0009180Y0012676D01*
X0009178Y0012676D01*
X0009175Y0012677D01*
X0009157Y0012677D01*
X0008980Y0012677D01*
X0008980Y0012677D01*
X0008979Y0012677D01*
X0008976Y0012676D01*
X0008972Y0012675D01*
X0008972Y0012675D01*
X0008972Y0012675D01*
X0008969Y0012673D01*
X0008966Y0012671D01*
X0008965Y0012670D01*
X0008965Y0012670D01*
X0008963Y0012667D01*
X0008961Y0012664D01*
X0008961Y0012664D01*
X0008961Y0012663D01*
X0008960Y0012657D01*
X0008960Y0012539D01*
X0008960Y0012539D01*
G37*
G36*
X0008960Y0011751D02*
X0008960Y0011751D01*
X0008960Y0011751D01*
X0008961Y0011747D01*
X0008962Y0011744D01*
X0008962Y0011744D01*
X0008962Y0011743D01*
X0008964Y0011740D01*
X0008966Y0011737D01*
X0008966Y0011737D01*
X0008967Y0011737D01*
X0008970Y0011735D01*
X0008973Y0011733D01*
X0008973Y0011733D01*
X0008973Y0011733D01*
X0008980Y0011732D01*
X0009157Y0011732D01*
X0009175Y0011732D01*
X0009177Y0011732D01*
X0009177Y0011732D01*
X0009177Y0011732D01*
X0009177Y0011732D01*
X0009180Y0011732D01*
X0009198Y0011737D01*
X0009199Y0011737D01*
X0009202Y0011739D01*
X0009218Y0011748D01*
X0009220Y0011749D01*
X0009222Y0011751D01*
X0009235Y0011763D01*
X0009236Y0011765D01*
X0009238Y0011767D01*
X0009248Y0011783D01*
X0009248Y0011785D01*
X0009250Y0011788D01*
X0009255Y0011805D01*
X0009255Y0011807D01*
X0009255Y0011809D01*
X0009255Y0011812D01*
X0009255Y0011813D01*
X0009255Y0011814D01*
X0009255Y0011816D01*
X0009250Y0011833D01*
X0009249Y0011835D01*
X0009248Y0011838D01*
X0009238Y0011854D01*
X0009237Y0011855D01*
X0009235Y0011858D01*
X0009222Y0011870D01*
X0009221Y0011871D01*
X0009218Y0011873D01*
X0009202Y0011882D01*
X0009201Y0011883D01*
X0009198Y0011884D01*
X0009180Y0011889D01*
X0009178Y0011889D01*
X0009175Y0011889D01*
X0009157Y0011889D01*
X0008980Y0011889D01*
X0008980Y0011889D01*
X0008979Y0011889D01*
X0008976Y0011888D01*
X0008972Y0011888D01*
X0008972Y0011887D01*
X0008972Y0011887D01*
X0008969Y0011885D01*
X0008966Y0011883D01*
X0008965Y0011883D01*
X0008965Y0011883D01*
X0008963Y0011880D01*
X0008961Y0011877D01*
X0008961Y0011876D01*
X0008961Y0011876D01*
X0008960Y0011870D01*
X0008960Y0011751D01*
X0008960Y0011751D01*
G37*
G36*
X0008960Y0012342D02*
X0008960Y0012342D01*
X0008960Y0012341D01*
X0008961Y0012338D01*
X0008962Y0012334D01*
X0008962Y0012334D01*
X0008962Y0012334D01*
X0008964Y0012331D01*
X0008966Y0012328D01*
X0008966Y0012328D01*
X0008967Y0012327D01*
X0008970Y0012326D01*
X0008973Y0012324D01*
X0008973Y0012324D01*
X0008973Y0012323D01*
X0008980Y0012322D01*
X0009157Y0012322D01*
X0009175Y0012322D01*
X0009177Y0012322D01*
X0009177Y0012323D01*
X0009177Y0012322D01*
X0009177Y0012323D01*
X0009180Y0012323D01*
X0009198Y0012327D01*
X0009199Y0012328D01*
X0009202Y0012329D01*
X0009218Y0012338D01*
X0009220Y0012339D01*
X0009222Y0012341D01*
X0009235Y0012354D01*
X0009236Y0012355D01*
X0009238Y0012358D01*
X0009248Y0012374D01*
X0009248Y0012375D01*
X0009250Y0012378D01*
X0009255Y0012396D01*
X0009255Y0012398D01*
X0009255Y0012400D01*
X0009255Y0012402D01*
X0009255Y0012404D01*
X0009255Y0012405D01*
X0009255Y0012406D01*
X0009250Y0012424D01*
X0009249Y0012425D01*
X0009248Y0012429D01*
X0009238Y0012444D01*
X0009237Y0012446D01*
X0009235Y0012448D01*
X0009222Y0012461D01*
X0009221Y0012462D01*
X0009218Y0012464D01*
X0009202Y0012473D01*
X0009201Y0012473D01*
X0009198Y0012475D01*
X0009180Y0012479D01*
X0009178Y0012479D01*
X0009175Y0012480D01*
X0009157Y0012480D01*
X0008980Y0012480D01*
X0008980Y0012480D01*
X0008979Y0012480D01*
X0008976Y0012479D01*
X0008972Y0012478D01*
X0008972Y0012478D01*
X0008972Y0012478D01*
X0008969Y0012476D01*
X0008966Y0012474D01*
X0008965Y0012474D01*
X0008965Y0012473D01*
X0008963Y0012470D01*
X0008961Y0012467D01*
X0008961Y0012467D01*
X0008961Y0012467D01*
X0008960Y0012460D01*
X0008960Y0012342D01*
X0008960Y0012342D01*
G37*
G36*
X0008960Y0011948D02*
X0008960Y0011948D01*
X0008960Y0011948D01*
X0008961Y0011944D01*
X0008962Y0011941D01*
X0008962Y0011940D01*
X0008962Y0011940D01*
X0008964Y0011937D01*
X0008966Y0011934D01*
X0008966Y0011934D01*
X0008967Y0011934D01*
X0008970Y0011932D01*
X0008973Y0011930D01*
X0008973Y0011930D01*
X0008973Y0011930D01*
X0008980Y0011929D01*
X0009157Y0011929D01*
X0009175Y0011928D01*
X0009177Y0011929D01*
X0009177Y0011929D01*
X0009177Y0011929D01*
X0009177Y0011929D01*
X0009180Y0011929D01*
X0009198Y0011934D01*
X0009199Y0011934D01*
X0009202Y0011935D01*
X0009218Y0011944D01*
X0009220Y0011946D01*
X0009222Y0011947D01*
X0009235Y0011960D01*
X0009236Y0011962D01*
X0009238Y0011964D01*
X0009248Y0011980D01*
X0009248Y0011982D01*
X0009250Y0011985D01*
X0009255Y0012002D01*
X0009255Y0012004D01*
X0009255Y0012006D01*
X0009255Y0012008D01*
X0009255Y0012010D01*
X0009255Y0012011D01*
X0009255Y0012013D01*
X0009250Y0012030D01*
X0009249Y0012032D01*
X0009248Y0012035D01*
X0009238Y0012051D01*
X0009237Y0012052D01*
X0009235Y0012055D01*
X0009222Y0012067D01*
X0009221Y0012068D01*
X0009218Y0012070D01*
X0009202Y0012079D01*
X0009201Y0012080D01*
X0009198Y0012081D01*
X0009180Y0012086D01*
X0009178Y0012086D01*
X0009175Y0012086D01*
X0009157Y0012086D01*
X0008980Y0012086D01*
X0008980Y0012086D01*
X0008979Y0012086D01*
X0008976Y0012085D01*
X0008972Y0012085D01*
X0008972Y0012084D01*
X0008972Y0012084D01*
X0008969Y0012082D01*
X0008966Y0012080D01*
X0008965Y0012080D01*
X0008965Y0012080D01*
X0008963Y0012077D01*
X0008961Y0012074D01*
X0008961Y0012073D01*
X0008961Y0012073D01*
X0008960Y0012066D01*
X0008960Y0011948D01*
X0008960Y0011948D01*
G37*
D58*
X0009842Y0014763D03*
X0009842Y0009645D03*
D59*
X0008693Y0011003D02*
X0008693Y0011102D01*
X0008693Y0011003D02*
X0008593Y0011003D01*
X0008593Y0011102D01*
X0008693Y0011102D01*
X0008693Y0011367D02*
X0008693Y0011467D01*
X0008693Y0011367D02*
X0008593Y0011367D01*
X0008593Y0011467D01*
X0008693Y0011467D01*
D60*
X0009866Y0012204D03*
D61*
X0012925Y0012988D03*
X0013594Y0012988D03*
D62*
X0012459Y0015001D03*
X0012833Y0014135D03*
X0012085Y0014135D03*
D59*
X0012035Y0013410D02*
X0012035Y0013310D01*
X0012035Y0013410D02*
X0012135Y0013410D01*
X0012135Y0013310D01*
X0012035Y0013310D01*
X0012035Y0013046D02*
X0012035Y0012946D01*
X0012035Y0013046D02*
X0012135Y0013046D01*
X0012135Y0012946D01*
X0012035Y0012946D01*
D62*
X0014152Y0014135D03*
X0013778Y0015001D03*
X0014526Y0015001D03*
D59*
X0011316Y0014800D02*
X0011316Y0014700D01*
X0011316Y0014800D02*
X0011415Y0014800D01*
X0011415Y0014700D01*
X0011316Y0014700D01*
X0011316Y0014436D02*
X0011316Y0014336D01*
X0011316Y0014436D02*
X0011415Y0014436D01*
X0011415Y0014336D01*
X0011316Y0014336D01*
D63*
X0013637Y0011346D03*
X0013637Y0011601D03*
X0013637Y0011857D03*
X0013637Y0012113D03*
X0011944Y0012113D03*
X0011944Y0011857D03*
X0011944Y0011601D03*
X0011944Y0011346D03*
D62*
X0014313Y0009279D03*
X0013939Y0010145D03*
X0014687Y0010145D03*
D64*
X0014788Y0011454D03*
X0014788Y0012143D03*
D65*
X0012362Y0010253D03*
X0012736Y0009308D03*
X0011988Y0009308D03*
D59*
X0013283Y0009950D02*
X0013283Y0010049D01*
X0013383Y0010049D01*
X0013383Y0009950D01*
X0013283Y0009950D01*
X0013283Y0009685D02*
X0013283Y0009586D01*
X0013283Y0009685D02*
X0013383Y0009685D01*
X0013383Y0009586D01*
X0013283Y0009586D01*
X0011323Y0009956D02*
X0011323Y0010055D01*
X0011423Y0010055D01*
X0011423Y0009956D01*
X0011323Y0009956D01*
X0011323Y0009691D02*
X0011323Y0009592D01*
X0011323Y0009691D02*
X0011423Y0009691D01*
X0011423Y0009592D01*
X0011323Y0009592D01*
D66*
X0007166Y0013668D03*
X0007966Y0014018D03*
X0007966Y0013318D03*
X0007166Y0011218D03*
X0007966Y0011568D03*
X0007966Y0010868D03*
D67*
X0020472Y0012992D03*
X0035826Y0011417D03*
D59*
X0007848Y0014718D02*
X0007748Y0014718D01*
X0007848Y0014718D02*
X0007848Y0014618D01*
X0007748Y0014618D01*
X0007748Y0014718D01*
X0007483Y0014718D02*
X0007384Y0014718D01*
X0007483Y0014718D02*
X0007483Y0014618D01*
X0007384Y0014618D01*
X0007384Y0014718D01*
X0007748Y0012268D02*
X0007848Y0012268D01*
X0007848Y0012168D01*
X0007748Y0012168D01*
X0007748Y0012268D01*
X0007483Y0012268D02*
X0007384Y0012268D01*
X0007483Y0012268D02*
X0007483Y0012168D01*
X0007384Y0012168D01*
X0007384Y0012268D01*
X0007384Y0012618D02*
X0007483Y0012618D01*
X0007384Y0012618D02*
X0007384Y0012718D01*
X0007483Y0012718D01*
X0007483Y0012618D01*
X0007748Y0012618D02*
X0007848Y0012618D01*
X0007748Y0012618D02*
X0007748Y0012718D01*
X0007848Y0012718D01*
X0007848Y0012618D01*
X0007433Y0010168D02*
X0007334Y0010168D01*
X0007334Y0010268D01*
X0007433Y0010268D01*
X0007433Y0010168D01*
X0007698Y0010168D02*
X0007798Y0010168D01*
X0007698Y0010168D02*
X0007698Y0010268D01*
X0007798Y0010268D01*
X0007798Y0010168D01*
X0011395Y0010837D02*
X0011395Y0010937D01*
X0011395Y0010837D02*
X0011296Y0010837D01*
X0011296Y0010937D01*
X0011395Y0010937D01*
X0011395Y0011201D02*
X0011395Y0011301D01*
X0011395Y0011201D02*
X0011296Y0011201D01*
X0011296Y0011301D01*
X0011395Y0011301D01*
D67*
X0016141Y0011417D03*
X0016141Y0012992D03*
D68*
X0005846Y0013976D03*
X0005846Y0013582D03*
X0005846Y0013188D03*
X0005846Y0012795D03*
X0005846Y0012401D03*
X0005846Y0012007D03*
X0005846Y0011614D03*
X0005846Y0011220D03*
X0005846Y0010826D03*
X0005846Y0010433D03*
D69*
X0004822Y0009586D03*
X0004822Y0014822D03*
D59*
X0010942Y0010064D02*
X0010942Y0009965D01*
X0010942Y0010064D02*
X0011042Y0010064D01*
X0011042Y0009965D01*
X0010942Y0009965D01*
X0010942Y0009700D02*
X0010942Y0009600D01*
X0010942Y0009700D02*
X0011042Y0009700D01*
X0011042Y0009600D01*
X0010942Y0009600D01*
M02*