%MOIN*%
%OFA0B0*%
%FSLAX34Y34*%
%IPPOS*%
%LPD*%
%AMOC8*
5,1,8,0,0,$1,112.5*%
%AMOC80*
5,1,8,0,0,$1,-67.5*%
%AMOC81*
5,1,8,0,0,$1,112.5*%
%AMOC80*
5,1,8,0,0,$1,-67.5*%
%ADD10C,0.006000000000000001*%
%ADD11C,0.029779527559055118*%
%ADD12C,0.0078740157480314977*%
%ADD23C,0.006000000000000001*%
%ADD24C,0.029779527559055118*%
%ADD25C,0.0078740157480314977*%
%ADD26C,0.006000000000000001*%
%ADD27C,0.029779527559055118*%
%ADD28C,0.0078740157480314977*%
%ADD29C,0.006000000000000001*%
%ADD30C,0.029779527559055118*%
%ADD31C,0.0078740157480314977*%
G75*
G01*
G36*
X0036928Y0035435D02*
X0036928Y0035435D01*
X0036928Y0035436D01*
X0036923Y0035490D01*
X0036920Y0035501D01*
X0036920Y0035501D01*
X0036920Y0035501D01*
X0036879Y0035601D01*
X0036878Y0035602D01*
X0036878Y0035604D01*
X0036876Y0035606D01*
X0036874Y0035610D01*
X0036872Y0035612D01*
X0036871Y0035614D01*
X0036795Y0035690D01*
X0036793Y0035691D01*
X0036792Y0035692D01*
X0036789Y0035694D01*
X0036786Y0035696D01*
X0036784Y0035697D01*
X0036782Y0035698D01*
X0036682Y0035739D01*
X0036672Y0035742D01*
X0036672Y0035742D01*
X0036671Y0035742D01*
X0036618Y0035747D01*
X0036615Y0035747D01*
X0036614Y0035747D01*
X0025245Y0035747D01*
X0025242Y0035747D01*
X0025238Y0035747D01*
X0025236Y0035746D01*
X0025234Y0035746D01*
X0025231Y0035744D01*
X0025227Y0035743D01*
X0025226Y0035742D01*
X0025224Y0035741D01*
X0025221Y0035739D01*
X0025219Y0035738D01*
X0025219Y0035737D01*
X0025217Y0035736D01*
X0025169Y0035688D01*
X0025167Y0035685D01*
X0025164Y0035682D01*
X0025164Y0035680D01*
X0025162Y0035679D01*
X0025161Y0035675D01*
X0025160Y0035672D01*
X0025159Y0035670D01*
X0025159Y0035668D01*
X0025158Y0035663D01*
X0025158Y0035660D01*
X0025158Y0028906D01*
X0025158Y0028902D01*
X0025158Y0028899D01*
X0025159Y0028897D01*
X0025159Y0028895D01*
X0025161Y0028892D01*
X0025162Y0028888D01*
X0025163Y0028887D01*
X0025164Y0028885D01*
X0025167Y0028881D01*
X0025169Y0028878D01*
X0025217Y0028830D01*
X0025218Y0028829D01*
X0025218Y0028829D01*
X0025220Y0028828D01*
X0025220Y0028828D01*
X0025223Y0028825D01*
X0025225Y0028824D01*
X0025226Y0028823D01*
X0025230Y0028822D01*
X0025233Y0028820D01*
X0025235Y0028820D01*
X0025237Y0028819D01*
X0025242Y0028819D01*
X0025245Y0028818D01*
X0036614Y0028818D01*
X0036616Y0028819D01*
X0036618Y0028819D01*
X0036671Y0028824D01*
X0036682Y0028827D01*
X0036682Y0028827D01*
X0036682Y0028827D01*
X0036782Y0028868D01*
X0036783Y0028869D01*
X0036785Y0028869D01*
X0036787Y0028871D01*
X0036791Y0028874D01*
X0036793Y0028875D01*
X0036795Y0028876D01*
X0036871Y0028952D01*
X0036872Y0028954D01*
X0036873Y0028955D01*
X0036875Y0028958D01*
X0036877Y0028961D01*
X0036878Y0028963D01*
X0036879Y0028965D01*
X0036920Y0029065D01*
X0036923Y0029075D01*
X0036923Y0029076D01*
X0036923Y0029076D01*
X0036928Y0029130D01*
X0036928Y0029132D01*
X0036929Y0029133D01*
X0036929Y0035433D01*
X0036928Y0035435D01*
G37*
%LPC*%
G36*
X0034035Y0034806D02*
X0034035Y0034806D01*
X0034012Y0034783D01*
X0033527Y0034783D01*
X0033523Y0034782D01*
X0033519Y0034782D01*
X0033517Y0034782D01*
X0033515Y0034781D01*
X0033512Y0034780D01*
X0033508Y0034779D01*
X0033507Y0034778D01*
X0033505Y0034777D01*
X0033502Y0034773D01*
X0033499Y0034771D01*
X0033475Y0034748D01*
X0032862Y0034748D01*
X0032839Y0034771D01*
X0032836Y0034774D01*
X0032833Y0034776D01*
X0032831Y0034777D01*
X0032830Y0034778D01*
X0032826Y0034779D01*
X0032823Y0034781D01*
X0032821Y0034781D01*
X0032820Y0034782D01*
X0032815Y0034782D01*
X0032811Y0034783D01*
X0031775Y0034783D01*
X0031751Y0034806D01*
X0031751Y0035547D01*
X0031775Y0035570D01*
X0032811Y0035570D01*
X0032815Y0035571D01*
X0032819Y0035571D01*
X0032820Y0035572D01*
X0032822Y0035572D01*
X0032826Y0035574D01*
X0032829Y0035575D01*
X0032830Y0035576D01*
X0032832Y0035577D01*
X0032836Y0035580D01*
X0032839Y0035582D01*
X0032862Y0035605D01*
X0033475Y0035605D01*
X0033499Y0035582D01*
X0033502Y0035580D01*
X0033505Y0035577D01*
X0033506Y0035576D01*
X0033508Y0035575D01*
X0033511Y0035574D01*
X0033515Y0035572D01*
X0033516Y0035572D01*
X0033518Y0035571D01*
X0033523Y0035571D01*
X0033527Y0035570D01*
X0034012Y0035570D01*
X0034035Y0035547D01*
X0034035Y0034806D01*
G37*
%LPD*%
%LPC*%
G36*
X0031200Y0034744D02*
X0031200Y0034744D01*
X0031125Y0034563D01*
X0030987Y0034425D01*
X0030806Y0034350D01*
X0030610Y0034350D01*
X0030429Y0034425D01*
X0030291Y0034563D01*
X0030216Y0034744D01*
X0030216Y0034940D01*
X0030291Y0035121D01*
X0030429Y0035259D01*
X0030610Y0035334D01*
X0030806Y0035334D01*
X0030987Y0035259D01*
X0031125Y0035121D01*
X0031200Y0034940D01*
X0031200Y0034744D01*
G37*
%LPD*%
%LPC*%
G36*
X0031200Y0029626D02*
X0031200Y0029626D01*
X0031125Y0029445D01*
X0030987Y0029307D01*
X0030806Y0029232D01*
X0030610Y0029232D01*
X0030429Y0029307D01*
X0030291Y0029445D01*
X0030216Y0029626D01*
X0030216Y0029822D01*
X0030291Y0030003D01*
X0030429Y0030141D01*
X0030610Y0030216D01*
X0030806Y0030216D01*
X0030987Y0030141D01*
X0031125Y0030003D01*
X0031200Y0029822D01*
X0031200Y0029626D01*
G37*
%LPD*%
%LPC*%
G36*
X0034251Y0031213D02*
X0034251Y0031213D01*
X0034144Y0031106D01*
X0034126Y0031106D01*
X0034125Y0031106D01*
X0034124Y0031106D01*
X0034120Y0031105D01*
X0034115Y0031104D01*
X0034114Y0031104D01*
X0034113Y0031103D01*
X0034109Y0031101D01*
X0034105Y0031100D01*
X0034104Y0031099D01*
X0034103Y0031098D01*
X0034100Y0031095D01*
X0034097Y0031092D01*
X0034096Y0031091D01*
X0034095Y0031090D01*
X0034093Y0031087D01*
X0034091Y0031083D01*
X0034090Y0031082D01*
X0034090Y0031081D01*
X0034089Y0031077D01*
X0034088Y0031072D01*
X0034087Y0031071D01*
X0034087Y0031070D01*
X0034087Y0031066D01*
X0034087Y0031061D01*
X0034088Y0031060D01*
X0034088Y0031059D01*
X0034089Y0031055D01*
X0034090Y0031051D01*
X0034091Y0031050D01*
X0034091Y0031048D01*
X0034094Y0031045D01*
X0034096Y0031041D01*
X0034098Y0031040D01*
X0034099Y0031039D01*
X0034141Y0030996D01*
X0034141Y0030843D01*
X0034034Y0030736D01*
X0033881Y0030736D01*
X0033773Y0030843D01*
X0033773Y0030996D01*
X0033881Y0031104D01*
X0033898Y0031104D01*
X0033900Y0031104D01*
X0033901Y0031104D01*
X0033905Y0031105D01*
X0033909Y0031105D01*
X0033911Y0031106D01*
X0033912Y0031106D01*
X0033916Y0031108D01*
X0033919Y0031110D01*
X0033920Y0031111D01*
X0033922Y0031111D01*
X0033925Y0031114D01*
X0033928Y0031117D01*
X0033929Y0031118D01*
X0033930Y0031119D01*
X0033932Y0031123D01*
X0033934Y0031126D01*
X0033934Y0031127D01*
X0033935Y0031129D01*
X0033936Y0031133D01*
X0033937Y0031137D01*
X0033937Y0031138D01*
X0033938Y0031139D01*
X0033937Y0031144D01*
X0033937Y0031148D01*
X0033937Y0031149D01*
X0033937Y0031150D01*
X0033936Y0031155D01*
X0033934Y0031159D01*
X0033934Y0031160D01*
X0033933Y0031161D01*
X0033931Y0031164D01*
X0033929Y0031168D01*
X0033927Y0031169D01*
X0033926Y0031171D01*
X0033883Y0031213D01*
X0033883Y0031326D01*
X0033883Y0031329D01*
X0033883Y0031331D01*
X0033882Y0031334D01*
X0033882Y0031337D01*
X0033881Y0031340D01*
X0033880Y0031342D01*
X0033879Y0031345D01*
X0033877Y0031347D01*
X0033876Y0031349D01*
X0033874Y0031352D01*
X0033872Y0031354D01*
X0033870Y0031356D01*
X0033868Y0031357D01*
X0033866Y0031359D01*
X0033863Y0031360D01*
X0033861Y0031362D01*
X0033858Y0031363D01*
X0033856Y0031364D01*
X0033853Y0031364D01*
X0033850Y0031365D01*
X0033847Y0031365D01*
X0033844Y0031366D01*
X0033711Y0031366D01*
X0033603Y0031473D01*
X0033603Y0031626D01*
X0033711Y0031734D01*
X0033864Y0031734D01*
X0033971Y0031626D01*
X0033971Y0031513D01*
X0033972Y0031510D01*
X0033972Y0031508D01*
X0033972Y0031505D01*
X0033973Y0031502D01*
X0033974Y0031500D01*
X0033975Y0031497D01*
X0033976Y0031495D01*
X0033977Y0031492D01*
X0033979Y0031490D01*
X0033980Y0031488D01*
X0033983Y0031486D01*
X0033985Y0031483D01*
X0033987Y0031482D01*
X0033989Y0031480D01*
X0033991Y0031479D01*
X0033994Y0031477D01*
X0033996Y0031477D01*
X0033999Y0031475D01*
X0034001Y0031475D01*
X0034005Y0031474D01*
X0034008Y0031474D01*
X0034011Y0031474D01*
X0034144Y0031474D01*
X0034251Y0031366D01*
X0034251Y0031213D01*
G37*
%LPD*%
%LPC*%
G36*
X0035421Y0032713D02*
X0035421Y0032713D01*
X0035313Y0032606D01*
X0035310Y0032605D01*
X0035305Y0032604D01*
X0035304Y0032604D01*
X0035303Y0032603D01*
X0035299Y0032601D01*
X0035295Y0032600D01*
X0035294Y0032599D01*
X0035293Y0032598D01*
X0035290Y0032595D01*
X0035287Y0032592D01*
X0035286Y0032591D01*
X0035285Y0032590D01*
X0035283Y0032587D01*
X0035281Y0032583D01*
X0035280Y0032582D01*
X0035280Y0032581D01*
X0035279Y0032577D01*
X0035278Y0032572D01*
X0035277Y0032571D01*
X0035277Y0032570D01*
X0035277Y0032566D01*
X0035277Y0032561D01*
X0035278Y0032560D01*
X0035278Y0032559D01*
X0035279Y0032555D01*
X0035280Y0032551D01*
X0035281Y0032550D01*
X0035281Y0032548D01*
X0035284Y0032545D01*
X0035286Y0032541D01*
X0035288Y0032540D01*
X0035289Y0032539D01*
X0035401Y0032426D01*
X0035401Y0032273D01*
X0035294Y0032166D01*
X0035141Y0032166D01*
X0035033Y0032273D01*
X0035033Y0032426D01*
X0035141Y0032534D01*
X0035145Y0032535D01*
X0035149Y0032535D01*
X0035151Y0032536D01*
X0035152Y0032536D01*
X0035156Y0032538D01*
X0035159Y0032540D01*
X0035160Y0032541D01*
X0035162Y0032541D01*
X0035165Y0032544D01*
X0035168Y0032547D01*
X0035169Y0032548D01*
X0035170Y0032549D01*
X0035172Y0032553D01*
X0035174Y0032556D01*
X0035174Y0032557D01*
X0035175Y0032559D01*
X0035176Y0032563D01*
X0035177Y0032567D01*
X0035177Y0032568D01*
X0035178Y0032569D01*
X0035177Y0032574D01*
X0035177Y0032578D01*
X0035177Y0032579D01*
X0035177Y0032580D01*
X0035176Y0032585D01*
X0035174Y0032589D01*
X0035174Y0032590D01*
X0035173Y0032591D01*
X0035171Y0032594D01*
X0035169Y0032598D01*
X0035167Y0032599D01*
X0035166Y0032601D01*
X0035053Y0032713D01*
X0035053Y0032866D01*
X0035161Y0032974D01*
X0035314Y0032974D01*
X0035421Y0032866D01*
X0035421Y0032713D01*
G37*
%LPD*%
%LPC*%
G36*
X0035571Y0030833D02*
X0035571Y0030833D01*
X0035464Y0030726D01*
X0035311Y0030726D01*
X0035203Y0030833D01*
X0035203Y0030986D01*
X0035276Y0031059D01*
X0035277Y0031060D01*
X0035278Y0031060D01*
X0035280Y0031064D01*
X0035283Y0031067D01*
X0035283Y0031069D01*
X0035284Y0031070D01*
X0035285Y0031074D01*
X0035287Y0031078D01*
X0035287Y0031079D01*
X0035287Y0031080D01*
X0035287Y0031085D01*
X0035288Y0031089D01*
X0035287Y0031090D01*
X0035287Y0031091D01*
X0035286Y0031096D01*
X0035285Y0031100D01*
X0035285Y0031101D01*
X0035284Y0031102D01*
X0035282Y0031106D01*
X0035280Y0031110D01*
X0035279Y0031110D01*
X0035279Y0031112D01*
X0035275Y0031114D01*
X0035272Y0031118D01*
X0035271Y0031118D01*
X0035270Y0031119D01*
X0035266Y0031121D01*
X0035263Y0031123D01*
X0035262Y0031123D01*
X0035260Y0031124D01*
X0035257Y0031124D01*
X0035252Y0031126D01*
X0035250Y0031125D01*
X0035248Y0031126D01*
X0035211Y0031126D01*
X0035103Y0031233D01*
X0035103Y0031386D01*
X0035211Y0031494D01*
X0035364Y0031494D01*
X0035471Y0031386D01*
X0035471Y0031233D01*
X0035399Y0031161D01*
X0035398Y0031160D01*
X0035397Y0031159D01*
X0035394Y0031155D01*
X0035392Y0031152D01*
X0035391Y0031151D01*
X0035391Y0031150D01*
X0035390Y0031145D01*
X0035388Y0031141D01*
X0035388Y0031140D01*
X0035388Y0031139D01*
X0035387Y0031135D01*
X0035387Y0031130D01*
X0035387Y0031129D01*
X0035387Y0031128D01*
X0035389Y0031124D01*
X0035389Y0031120D01*
X0035390Y0031118D01*
X0035390Y0031117D01*
X0035393Y0031114D01*
X0035395Y0031110D01*
X0035395Y0031109D01*
X0035396Y0031108D01*
X0035399Y0031105D01*
X0035402Y0031102D01*
X0035403Y0031101D01*
X0035404Y0031100D01*
X0035408Y0031098D01*
X0035412Y0031096D01*
X0035413Y0031096D01*
X0035414Y0031095D01*
X0035418Y0031095D01*
X0035423Y0031094D01*
X0035425Y0031094D01*
X0035426Y0031094D01*
X0035464Y0031094D01*
X0035571Y0030986D01*
X0035571Y0030833D01*
G37*
%LPD*%
%LPC*%
G36*
X0029491Y0032833D02*
X0029491Y0032833D01*
X0029384Y0032726D01*
X0029231Y0032726D01*
X0029123Y0032833D01*
X0029123Y0032986D01*
X0029231Y0033094D01*
X0029384Y0033094D01*
X0029491Y0032986D01*
X0029491Y0032833D01*
G37*
%LPD*%
%LPC*%
G36*
X0029551Y0030373D02*
X0029551Y0030373D01*
X0029444Y0030266D01*
X0029291Y0030266D01*
X0029183Y0030373D01*
X0029183Y0030526D01*
X0029291Y0030634D01*
X0029444Y0030634D01*
X0029551Y0030526D01*
X0029551Y0030373D01*
G37*
%LPD*%
%LPC*%
G36*
X0029821Y0033183D02*
X0029821Y0033183D01*
X0029714Y0033076D01*
X0029561Y0033076D01*
X0029453Y0033183D01*
X0029453Y0033336D01*
X0029561Y0033444D01*
X0029714Y0033444D01*
X0029821Y0033336D01*
X0029821Y0033183D01*
G37*
%LPD*%
%LPC*%
G36*
X0031681Y0033173D02*
X0031681Y0033173D01*
X0031574Y0033066D01*
X0031421Y0033066D01*
X0031313Y0033173D01*
X0031313Y0033326D01*
X0031421Y0033434D01*
X0031574Y0033434D01*
X0031681Y0033326D01*
X0031681Y0033173D01*
G37*
%LPD*%
%LPC*%
G36*
X0032021Y0032073D02*
X0032021Y0032073D01*
X0031914Y0031966D01*
X0031761Y0031966D01*
X0031653Y0032073D01*
X0031653Y0032226D01*
X0031761Y0032334D01*
X0031914Y0032334D01*
X0032021Y0032226D01*
X0032021Y0032073D01*
G37*
%LPD*%
%LPC*%
G36*
X0032682Y0033998D02*
X0032682Y0033998D01*
X0032574Y0033890D01*
X0032422Y0033890D01*
X0032314Y0033998D01*
X0032314Y0034150D01*
X0032422Y0034258D01*
X0032574Y0034258D01*
X0032682Y0034150D01*
X0032682Y0033998D01*
G37*
%LPD*%
%LPC*%
G36*
X0032701Y0031473D02*
X0032701Y0031473D01*
X0032594Y0031366D01*
X0032441Y0031366D01*
X0032333Y0031473D01*
X0032333Y0031626D01*
X0032441Y0031734D01*
X0032594Y0031734D01*
X0032701Y0031626D01*
X0032701Y0031473D01*
G37*
%LPD*%
%LPC*%
G36*
X0033621Y0029733D02*
X0033621Y0029733D01*
X0033514Y0029626D01*
X0033361Y0029626D01*
X0033253Y0029733D01*
X0033253Y0029886D01*
X0033361Y0029994D01*
X0033514Y0029994D01*
X0033621Y0029886D01*
X0033621Y0029733D01*
G37*
%LPD*%
%LPC*%
G36*
X0033651Y0032193D02*
X0033651Y0032193D01*
X0033544Y0032086D01*
X0033391Y0032086D01*
X0033283Y0032193D01*
X0033283Y0032346D01*
X0033391Y0032454D01*
X0033544Y0032454D01*
X0033651Y0032346D01*
X0033651Y0032193D01*
G37*
%LPD*%
%LPC*%
G36*
X0033941Y0033523D02*
X0033941Y0033523D01*
X0033834Y0033416D01*
X0033681Y0033416D01*
X0033573Y0033523D01*
X0033573Y0033676D01*
X0033681Y0033784D01*
X0033834Y0033784D01*
X0033941Y0033676D01*
X0033941Y0033523D01*
G37*
%LPD*%
%LPC*%
G36*
X0034111Y0033073D02*
X0034111Y0033073D01*
X0034004Y0032966D01*
X0033851Y0032966D01*
X0033743Y0033073D01*
X0033743Y0033226D01*
X0033851Y0033334D01*
X0034004Y0033334D01*
X0034111Y0033226D01*
X0034111Y0033073D01*
G37*
%LPD*%
%LPC*%
G36*
X0034371Y0031794D02*
X0034371Y0031794D01*
X0034264Y0031686D01*
X0034111Y0031686D01*
X0034003Y0031794D01*
X0034003Y0031946D01*
X0034111Y0032054D01*
X0034264Y0032054D01*
X0034371Y0031946D01*
X0034371Y0031794D01*
G37*
%LPD*%
%LPC*%
G36*
X0034391Y0032533D02*
X0034391Y0032533D01*
X0034284Y0032426D01*
X0034131Y0032426D01*
X0034023Y0032533D01*
X0034023Y0032686D01*
X0034131Y0032794D01*
X0034284Y0032794D01*
X0034391Y0032686D01*
X0034391Y0032533D01*
G37*
%LPD*%
%LPC*%
G36*
X0035451Y0033223D02*
X0035451Y0033223D01*
X0035344Y0033116D01*
X0035191Y0033116D01*
X0035083Y0033223D01*
X0035083Y0033376D01*
X0035191Y0033484D01*
X0035344Y0033484D01*
X0035451Y0033376D01*
X0035451Y0033223D01*
G37*
%LPD*%
%LPC*%
G36*
X0035461Y0033983D02*
X0035461Y0033983D01*
X0035354Y0033876D01*
X0035201Y0033876D01*
X0035093Y0033983D01*
X0035093Y0034136D01*
X0035201Y0034244D01*
X0035354Y0034244D01*
X0035461Y0034136D01*
X0035461Y0033983D01*
G37*
%LPD*%
D10*
X0033076Y0035093D02*
X0033076Y0035090D01*
X0033076Y0035086D01*
X0033077Y0035083D01*
X0033077Y0035079D01*
X0033078Y0035076D01*
X0033079Y0035072D01*
X0033080Y0035069D01*
X0033081Y0035065D01*
X0033082Y0035062D01*
X0033084Y0035059D01*
X0033085Y0035056D01*
X0033087Y0035053D01*
X0033089Y0035050D01*
X0033090Y0035047D01*
X0033092Y0035044D01*
X0033095Y0035041D01*
X0033097Y0035038D01*
X0033099Y0035036D01*
X0033102Y0035033D01*
X0033104Y0035031D01*
X0033107Y0035028D01*
X0033110Y0035026D01*
X0033113Y0035024D01*
X0033116Y0035022D01*
X0033119Y0035020D01*
X0033122Y0035019D01*
X0033125Y0035017D01*
X0033128Y0035016D01*
X0033132Y0035015D01*
X0033135Y0035013D01*
X0033139Y0035012D01*
X0033142Y0035012D01*
X0033145Y0035011D01*
X0033149Y0035010D01*
X0033152Y0035010D01*
X0033156Y0035010D01*
X0033160Y0035010D01*
X0033164Y0035010D01*
X0033168Y0035010D01*
X0033172Y0035011D01*
X0033176Y0035011D01*
X0033180Y0035012D01*
X0033184Y0035013D01*
X0033188Y0035014D01*
X0033192Y0035015D01*
X0033196Y0035016D01*
X0033199Y0035017D01*
X0033203Y0035019D01*
X0033207Y0035021D01*
X0033210Y0035023D01*
X0033214Y0035025D01*
X0033218Y0035027D01*
X0033221Y0035029D01*
X0033224Y0035032D01*
X0033227Y0035034D01*
X0033231Y0035037D01*
X0033234Y0035039D01*
X0033236Y0035042D01*
X0033239Y0035045D01*
X0033242Y0035048D01*
X0033244Y0035052D01*
X0033247Y0035055D01*
X0033249Y0035058D01*
X0033251Y0035062D01*
X0033253Y0035065D01*
X0033255Y0035069D01*
X0033257Y0035073D01*
X0033259Y0035076D01*
X0033260Y0035080D01*
X0033262Y0035084D01*
X0033104Y0035158D02*
X0033101Y0035156D01*
X0033099Y0035153D01*
X0033097Y0035150D01*
X0033094Y0035147D01*
X0033092Y0035144D01*
X0033090Y0035141D01*
X0033088Y0035138D01*
X0033086Y0035135D01*
X0033085Y0035132D01*
X0033083Y0035129D01*
X0033082Y0035125D01*
X0033081Y0035122D01*
X0033080Y0035118D01*
X0033079Y0035115D01*
X0033078Y0035111D01*
X0033077Y0035108D01*
X0033077Y0035104D01*
X0033076Y0035100D01*
X0033076Y0035097D01*
X0033076Y0035093D01*
X0033104Y0035158D02*
X0033261Y0035344D01*
X0033076Y0035344D01*
D11*
X0029197Y0034040D03*
X0028777Y0033620D03*
X0027741Y0034532D03*
X0026691Y0035512D03*
X0027151Y0035512D03*
X0028544Y0034649D03*
X0026660Y0034886D03*
X0027615Y0031945D03*
X0026664Y0031942D03*
X0029324Y0031832D03*
X0029114Y0032332D03*
X0028074Y0031212D03*
X0029934Y0031492D03*
X0031384Y0031502D03*
X0030694Y0032312D03*
X0031982Y0034059D03*
X0031472Y0034039D03*
X0033062Y0031263D03*
X0033082Y0032743D03*
X0033052Y0033873D03*
X0034689Y0030025D03*
X0034069Y0030505D03*
X0026967Y0030317D03*
X0027617Y0031027D03*
X0026687Y0031047D03*
X0027505Y0032385D03*
X0027454Y0029456D03*
X0025348Y0031832D03*
X0025338Y0032972D03*
X0027488Y0033232D03*
X0028108Y0032922D03*
X0026638Y0033562D03*
X0036705Y0035547D03*
X0036351Y0035577D03*
X0036745Y0035183D03*
X0036701Y0029034D03*
X0036378Y0028974D03*
X0036771Y0029368D03*
X0025345Y0028970D03*
X0025345Y0029364D03*
X0025739Y0028970D03*
X0025346Y0035577D03*
X0025740Y0035577D03*
X0025346Y0035183D03*
X0025353Y0031164D03*
X0026093Y0031164D03*
X0026093Y0031834D03*
X0030674Y0030972D03*
X0031520Y0035511D03*
X0029890Y0035451D03*
X0031660Y0029031D03*
X0029960Y0029021D03*
X0034721Y0034514D03*
X0034041Y0034044D03*
X0029546Y0035278D03*
X0029951Y0032986D03*
X0032078Y0031761D03*
X0004724Y0033070D03*
X0024409Y0033070D03*
X0034067Y0031290D03*
X0035287Y0031310D03*
X0033467Y0032270D03*
X0032517Y0031550D03*
X0032498Y0034074D03*
X0029307Y0032910D03*
X0029367Y0030450D03*
X0033927Y0033150D03*
X0035267Y0033300D03*
X0031497Y0033250D03*
X0033437Y0029810D03*
X0033787Y0031550D03*
X0033957Y0030920D03*
X0031837Y0032150D03*
X0033757Y0033600D03*
X0035387Y0030910D03*
X0024409Y0031496D03*
X0020078Y0031496D03*
X0034187Y0031870D03*
X0029637Y0033260D03*
X0034207Y0032610D03*
X0035217Y0032350D03*
X0035237Y0032790D03*
X0035277Y0034060D03*
D12*
X0033444Y0035531D02*
X0032893Y0035531D01*
X0032893Y0034822D01*
X0033444Y0034822D01*
X0033444Y0035531D01*
G04 next file*
G04 EAGLE Gerber RS-274X export*
G75*
G01*
G36*
X0003228Y0022438D02*
X0003228Y0022438D01*
X0003228Y0022437D01*
X0003233Y0022383D01*
X0003236Y0022372D01*
X0003236Y0022372D01*
X0003236Y0022372D01*
X0003277Y0022272D01*
X0003278Y0022271D01*
X0003279Y0022269D01*
X0003281Y0022267D01*
X0003283Y0022263D01*
X0003285Y0022261D01*
X0003286Y0022260D01*
X0003362Y0022183D01*
X0003363Y0022182D01*
X0003364Y0022181D01*
X0003367Y0022180D01*
X0003371Y0022177D01*
X0003373Y0022176D01*
X0003375Y0022175D01*
X0003474Y0022134D01*
X0003485Y0022131D01*
X0003485Y0022131D01*
X0003485Y0022131D01*
X0003539Y0022126D01*
X0003541Y0022126D01*
X0003543Y0022126D01*
X0014911Y0022126D01*
X0014915Y0022126D01*
X0014919Y0022126D01*
X0014920Y0022127D01*
X0014922Y0022127D01*
X0014926Y0022129D01*
X0014929Y0022130D01*
X0014931Y0022131D01*
X0014932Y0022132D01*
X0014936Y0022134D01*
X0014937Y0022135D01*
X0014938Y0022136D01*
X0014939Y0022137D01*
X0014987Y0022185D01*
X0014990Y0022188D01*
X0014992Y0022191D01*
X0014993Y0022193D01*
X0014994Y0022194D01*
X0014995Y0022198D01*
X0014997Y0022201D01*
X0014997Y0022203D01*
X0014998Y0022205D01*
X0014998Y0022210D01*
X0014999Y0022213D01*
X0014999Y0028967D01*
X0014998Y0028971D01*
X0014998Y0028975D01*
X0014998Y0028976D01*
X0014997Y0028978D01*
X0014996Y0028981D01*
X0014994Y0028985D01*
X0014993Y0028986D01*
X0014993Y0028988D01*
X0014989Y0028992D01*
X0014987Y0028995D01*
X0014939Y0029043D01*
X0014938Y0029044D01*
X0014938Y0029044D01*
X0014937Y0029045D01*
X0014936Y0029045D01*
X0014933Y0029048D01*
X0014932Y0029049D01*
X0014930Y0029050D01*
X0014927Y0029051D01*
X0014923Y0029053D01*
X0014922Y0029053D01*
X0014920Y0029054D01*
X0014915Y0029054D01*
X0014911Y0029055D01*
X0003543Y0029055D01*
X0003541Y0029054D01*
X0003539Y0029054D01*
X0003485Y0029049D01*
X0003474Y0029046D01*
X0003474Y0029046D01*
X0003474Y0029046D01*
X0003375Y0029005D01*
X0003373Y0029004D01*
X0003372Y0029004D01*
X0003369Y0029002D01*
X0003365Y0029000D01*
X0003363Y0028998D01*
X0003362Y0028997D01*
X0003286Y0028921D01*
X0003285Y0028919D01*
X0003284Y0028918D01*
X0003282Y0028915D01*
X0003279Y0028912D01*
X0003278Y0028910D01*
X0003277Y0028908D01*
X0003236Y0028808D01*
X0003233Y0028798D01*
X0003233Y0028797D01*
X0003233Y0028797D01*
X0003228Y0028744D01*
X0003228Y0028741D01*
X0003228Y0028740D01*
X0003228Y0022440D01*
X0003228Y0022438D01*
G37*
%LPC*%
G36*
X0006122Y0023067D02*
X0006122Y0023067D01*
X0006145Y0023090D01*
X0006630Y0023090D01*
X0006634Y0023091D01*
X0006637Y0023091D01*
X0006639Y0023091D01*
X0006641Y0023092D01*
X0006644Y0023093D01*
X0006648Y0023094D01*
X0006649Y0023095D01*
X0006651Y0023096D01*
X0006655Y0023100D01*
X0006658Y0023102D01*
X0006681Y0023125D01*
X0007294Y0023125D01*
X0007318Y0023102D01*
X0007321Y0023099D01*
X0007323Y0023097D01*
X0007325Y0023096D01*
X0007326Y0023095D01*
X0007330Y0023094D01*
X0007333Y0023092D01*
X0007335Y0023092D01*
X0007337Y0023091D01*
X0007342Y0023091D01*
X0007345Y0023090D01*
X0008382Y0023090D01*
X0008405Y0023067D01*
X0008405Y0022326D01*
X0008382Y0022303D01*
X0007345Y0022303D01*
X0007342Y0022302D01*
X0007338Y0022302D01*
X0007336Y0022301D01*
X0007334Y0022301D01*
X0007331Y0022300D01*
X0007327Y0022298D01*
X0007326Y0022297D01*
X0007324Y0022296D01*
X0007320Y0022293D01*
X0007318Y0022291D01*
X0007294Y0022268D01*
X0006681Y0022268D01*
X0006658Y0022291D01*
X0006655Y0022293D01*
X0006652Y0022296D01*
X0006650Y0022297D01*
X0006649Y0022298D01*
X0006645Y0022299D01*
X0006642Y0022301D01*
X0006640Y0022301D01*
X0006639Y0022302D01*
X0006634Y0022302D01*
X0006630Y0022303D01*
X0006145Y0022303D01*
X0006122Y0022326D01*
X0006122Y0023067D01*
G37*
%LPD*%
%LPC*%
G36*
X0008956Y0023129D02*
X0008956Y0023129D01*
X0009031Y0023310D01*
X0009170Y0023448D01*
X0009350Y0023523D01*
X0009546Y0023523D01*
X0009727Y0023448D01*
X0009866Y0023310D01*
X0009940Y0023129D01*
X0009940Y0022933D01*
X0009866Y0022752D01*
X0009727Y0022614D01*
X0009546Y0022539D01*
X0009350Y0022539D01*
X0009170Y0022614D01*
X0009031Y0022752D01*
X0008956Y0022933D01*
X0008956Y0023129D01*
G37*
%LPD*%
%LPC*%
G36*
X0008956Y0028247D02*
X0008956Y0028247D01*
X0009031Y0028428D01*
X0009170Y0028566D01*
X0009350Y0028641D01*
X0009546Y0028641D01*
X0009727Y0028566D01*
X0009866Y0028428D01*
X0009940Y0028247D01*
X0009940Y0028051D01*
X0009866Y0027870D01*
X0009727Y0027732D01*
X0009546Y0027657D01*
X0009350Y0027657D01*
X0009170Y0027732D01*
X0009031Y0027870D01*
X0008956Y0028051D01*
X0008956Y0028247D01*
G37*
%LPD*%
%LPC*%
G36*
X0005905Y0026660D02*
X0005905Y0026660D01*
X0006013Y0026767D01*
X0006030Y0026767D01*
X0006031Y0026767D01*
X0006033Y0026767D01*
X0006037Y0026768D01*
X0006041Y0026769D01*
X0006042Y0026769D01*
X0006043Y0026770D01*
X0006047Y0026772D01*
X0006051Y0026773D01*
X0006052Y0026774D01*
X0006053Y0026775D01*
X0006056Y0026778D01*
X0006060Y0026781D01*
X0006060Y0026782D01*
X0006061Y0026783D01*
X0006063Y0026786D01*
X0006066Y0026790D01*
X0006066Y0026791D01*
X0006067Y0026792D01*
X0006068Y0026796D01*
X0006069Y0026801D01*
X0006069Y0026802D01*
X0006069Y0026803D01*
X0006069Y0026807D01*
X0006069Y0026812D01*
X0006069Y0026813D01*
X0006069Y0026814D01*
X0006067Y0026818D01*
X0006066Y0026822D01*
X0006065Y0026823D01*
X0006065Y0026825D01*
X0006063Y0026828D01*
X0006060Y0026832D01*
X0006059Y0026833D01*
X0006058Y0026834D01*
X0006015Y0026877D01*
X0006015Y0027030D01*
X0006123Y0027137D01*
X0006275Y0027137D01*
X0006383Y0027030D01*
X0006383Y0026877D01*
X0006275Y0026769D01*
X0006258Y0026769D01*
X0006257Y0026769D01*
X0006256Y0026769D01*
X0006251Y0026768D01*
X0006247Y0026768D01*
X0006246Y0026767D01*
X0006245Y0026767D01*
X0006241Y0026765D01*
X0006237Y0026763D01*
X0006236Y0026762D01*
X0006235Y0026762D01*
X0006232Y0026759D01*
X0006229Y0026756D01*
X0006228Y0026755D01*
X0006227Y0026754D01*
X0006225Y0026750D01*
X0006222Y0026747D01*
X0006222Y0026746D01*
X0006222Y0026744D01*
X0006221Y0026740D01*
X0006219Y0026736D01*
X0006219Y0026735D01*
X0006219Y0026734D01*
X0006219Y0026729D01*
X0006219Y0026725D01*
X0006219Y0026724D01*
X0006220Y0026723D01*
X0006221Y0026719D01*
X0006222Y0026714D01*
X0006223Y0026713D01*
X0006223Y0026712D01*
X0006225Y0026709D01*
X0006228Y0026705D01*
X0006229Y0026704D01*
X0006230Y0026702D01*
X0006273Y0026660D01*
X0006273Y0026547D01*
X0006273Y0026544D01*
X0006273Y0026542D01*
X0006274Y0026539D01*
X0006275Y0026536D01*
X0006276Y0026533D01*
X0006276Y0026531D01*
X0006278Y0026528D01*
X0006279Y0026526D01*
X0006281Y0026524D01*
X0006282Y0026521D01*
X0006284Y0026519D01*
X0006286Y0026517D01*
X0006289Y0026516D01*
X0006290Y0026514D01*
X0006293Y0026513D01*
X0006296Y0026511D01*
X0006298Y0026510D01*
X0006300Y0026509D01*
X0006303Y0026509D01*
X0006306Y0026508D01*
X0006310Y0026508D01*
X0006312Y0026507D01*
X0006445Y0026507D01*
X0006553Y0026400D01*
X0006553Y0026247D01*
X0006445Y0026139D01*
X0006293Y0026139D01*
X0006185Y0026247D01*
X0006185Y0026360D01*
X0006185Y0026363D01*
X0006185Y0026365D01*
X0006184Y0026368D01*
X0006184Y0026371D01*
X0006183Y0026373D01*
X0006182Y0026376D01*
X0006180Y0026378D01*
X0006179Y0026381D01*
X0006177Y0026383D01*
X0006176Y0026385D01*
X0006174Y0026387D01*
X0006172Y0026390D01*
X0006170Y0026391D01*
X0006168Y0026393D01*
X0006165Y0026394D01*
X0006163Y0026396D01*
X0006160Y0026396D01*
X0006158Y0026398D01*
X0006155Y0026398D01*
X0006152Y0026399D01*
X0006149Y0026399D01*
X0006146Y0026399D01*
X0006013Y0026399D01*
X0005905Y0026507D01*
X0005905Y0026660D01*
G37*
%LPD*%
%LPC*%
G36*
X0004735Y0025160D02*
X0004735Y0025160D01*
X0004843Y0025267D01*
X0004847Y0025268D01*
X0004851Y0025269D01*
X0004852Y0025269D01*
X0004853Y0025270D01*
X0004857Y0025272D01*
X0004861Y0025273D01*
X0004862Y0025274D01*
X0004863Y0025275D01*
X0004866Y0025278D01*
X0004870Y0025281D01*
X0004870Y0025282D01*
X0004871Y0025283D01*
X0004873Y0025286D01*
X0004876Y0025290D01*
X0004876Y0025291D01*
X0004877Y0025292D01*
X0004878Y0025296D01*
X0004879Y0025301D01*
X0004879Y0025302D01*
X0004879Y0025303D01*
X0004879Y0025307D01*
X0004879Y0025312D01*
X0004879Y0025313D01*
X0004879Y0025314D01*
X0004877Y0025318D01*
X0004876Y0025322D01*
X0004875Y0025323D01*
X0004875Y0025325D01*
X0004873Y0025328D01*
X0004870Y0025332D01*
X0004869Y0025333D01*
X0004868Y0025334D01*
X0004755Y0025447D01*
X0004755Y0025600D01*
X0004863Y0025707D01*
X0005015Y0025707D01*
X0005123Y0025600D01*
X0005123Y0025447D01*
X0005015Y0025339D01*
X0005011Y0025338D01*
X0005007Y0025338D01*
X0005006Y0025337D01*
X0005005Y0025337D01*
X0005001Y0025335D01*
X0004997Y0025333D01*
X0004996Y0025332D01*
X0004995Y0025332D01*
X0004992Y0025329D01*
X0004989Y0025326D01*
X0004988Y0025325D01*
X0004987Y0025324D01*
X0004985Y0025320D01*
X0004982Y0025317D01*
X0004982Y0025316D01*
X0004982Y0025314D01*
X0004981Y0025310D01*
X0004979Y0025306D01*
X0004979Y0025305D01*
X0004979Y0025304D01*
X0004979Y0025299D01*
X0004979Y0025295D01*
X0004979Y0025294D01*
X0004980Y0025293D01*
X0004981Y0025289D01*
X0004982Y0025284D01*
X0004983Y0025283D01*
X0004983Y0025282D01*
X0004985Y0025279D01*
X0004988Y0025275D01*
X0004989Y0025274D01*
X0004990Y0025272D01*
X0005103Y0025160D01*
X0005103Y0025007D01*
X0004995Y0024899D01*
X0004843Y0024899D01*
X0004735Y0025007D01*
X0004735Y0025160D01*
G37*
%LPD*%
%LPC*%
G36*
X0004585Y0027040D02*
X0004585Y0027040D01*
X0004693Y0027147D01*
X0004845Y0027147D01*
X0004953Y0027040D01*
X0004953Y0026887D01*
X0004880Y0026814D01*
X0004880Y0026813D01*
X0004879Y0026813D01*
X0004876Y0026809D01*
X0004874Y0026806D01*
X0004873Y0026804D01*
X0004872Y0026803D01*
X0004871Y0026799D01*
X0004870Y0026795D01*
X0004870Y0026794D01*
X0004869Y0026793D01*
X0004869Y0026788D01*
X0004869Y0026784D01*
X0004869Y0026783D01*
X0004869Y0026782D01*
X0004870Y0026777D01*
X0004871Y0026773D01*
X0004872Y0026772D01*
X0004872Y0026771D01*
X0004874Y0026767D01*
X0004876Y0026763D01*
X0004877Y0026763D01*
X0004878Y0026761D01*
X0004881Y0026759D01*
X0004884Y0026755D01*
X0004885Y0026755D01*
X0004886Y0026754D01*
X0004890Y0026752D01*
X0004894Y0026750D01*
X0004895Y0026750D01*
X0004896Y0026749D01*
X0004900Y0026749D01*
X0004905Y0026747D01*
X0004906Y0026748D01*
X0004908Y0026747D01*
X0004945Y0026747D01*
X0005053Y0026640D01*
X0005053Y0026487D01*
X0004945Y0026379D01*
X0004793Y0026379D01*
X0004685Y0026487D01*
X0004685Y0026640D01*
X0004758Y0026712D01*
X0004759Y0026713D01*
X0004760Y0026714D01*
X0004762Y0026718D01*
X0004765Y0026721D01*
X0004765Y0026722D01*
X0004766Y0026723D01*
X0004767Y0026728D01*
X0004768Y0026732D01*
X0004769Y0026733D01*
X0004769Y0026734D01*
X0004769Y0026738D01*
X0004769Y0026743D01*
X0004769Y0026744D01*
X0004769Y0026745D01*
X0004768Y0026749D01*
X0004767Y0026753D01*
X0004767Y0026755D01*
X0004766Y0026756D01*
X0004764Y0026760D01*
X0004762Y0026763D01*
X0004761Y0026764D01*
X0004760Y0026765D01*
X0004757Y0026768D01*
X0004754Y0026771D01*
X0004753Y0026772D01*
X0004752Y0026773D01*
X0004748Y0026775D01*
X0004744Y0026777D01*
X0004743Y0026777D01*
X0004742Y0026778D01*
X0004739Y0026778D01*
X0004734Y0026779D01*
X0004732Y0026779D01*
X0004730Y0026779D01*
X0004693Y0026779D01*
X0004585Y0026887D01*
X0004585Y0027040D01*
G37*
%LPD*%
%LPC*%
G36*
X0010665Y0025040D02*
X0010665Y0025040D01*
X0010773Y0025147D01*
X0010925Y0025147D01*
X0011033Y0025040D01*
X0011033Y0024887D01*
X0010925Y0024779D01*
X0010773Y0024779D01*
X0010665Y0024887D01*
X0010665Y0025040D01*
G37*
%LPD*%
%LPC*%
G36*
X0010605Y0027500D02*
X0010605Y0027500D01*
X0010713Y0027607D01*
X0010865Y0027607D01*
X0010973Y0027500D01*
X0010973Y0027347D01*
X0010865Y0027239D01*
X0010713Y0027239D01*
X0010605Y0027347D01*
X0010605Y0027500D01*
G37*
%LPD*%
%LPC*%
G36*
X0010335Y0024690D02*
X0010335Y0024690D01*
X0010443Y0024797D01*
X0010595Y0024797D01*
X0010703Y0024690D01*
X0010703Y0024537D01*
X0010595Y0024429D01*
X0010443Y0024429D01*
X0010335Y0024537D01*
X0010335Y0024690D01*
G37*
%LPD*%
%LPC*%
G36*
X0008475Y0024700D02*
X0008475Y0024700D01*
X0008583Y0024807D01*
X0008735Y0024807D01*
X0008843Y0024700D01*
X0008843Y0024547D01*
X0008735Y0024439D01*
X0008583Y0024439D01*
X0008475Y0024547D01*
X0008475Y0024700D01*
G37*
%LPD*%
%LPC*%
G36*
X0008135Y0025800D02*
X0008135Y0025800D01*
X0008243Y0025907D01*
X0008395Y0025907D01*
X0008503Y0025800D01*
X0008503Y0025647D01*
X0008395Y0025539D01*
X0008243Y0025539D01*
X0008135Y0025647D01*
X0008135Y0025800D01*
G37*
%LPD*%
%LPC*%
G36*
X0007474Y0023875D02*
X0007474Y0023875D01*
X0007582Y0023983D01*
X0007735Y0023983D01*
X0007842Y0023875D01*
X0007842Y0023723D01*
X0007735Y0023615D01*
X0007582Y0023615D01*
X0007474Y0023723D01*
X0007474Y0023875D01*
G37*
%LPD*%
%LPC*%
G36*
X0007455Y0026400D02*
X0007455Y0026400D01*
X0007563Y0026507D01*
X0007715Y0026507D01*
X0007823Y0026400D01*
X0007823Y0026247D01*
X0007715Y0026139D01*
X0007563Y0026139D01*
X0007455Y0026247D01*
X0007455Y0026400D01*
G37*
%LPD*%
%LPC*%
G36*
X0006535Y0028140D02*
X0006535Y0028140D01*
X0006643Y0028247D01*
X0006795Y0028247D01*
X0006903Y0028140D01*
X0006903Y0027987D01*
X0006795Y0027879D01*
X0006643Y0027879D01*
X0006535Y0027987D01*
X0006535Y0028140D01*
G37*
%LPD*%
%LPC*%
G36*
X0006505Y0025680D02*
X0006505Y0025680D01*
X0006613Y0025787D01*
X0006765Y0025787D01*
X0006873Y0025680D01*
X0006873Y0025527D01*
X0006765Y0025419D01*
X0006613Y0025419D01*
X0006505Y0025527D01*
X0006505Y0025680D01*
G37*
%LPD*%
%LPC*%
G36*
X0006215Y0024350D02*
X0006215Y0024350D01*
X0006323Y0024457D01*
X0006475Y0024457D01*
X0006583Y0024350D01*
X0006583Y0024197D01*
X0006475Y0024089D01*
X0006323Y0024089D01*
X0006215Y0024197D01*
X0006215Y0024350D01*
G37*
%LPD*%
%LPC*%
G36*
X0006045Y0024800D02*
X0006045Y0024800D01*
X0006153Y0024907D01*
X0006305Y0024907D01*
X0006413Y0024800D01*
X0006413Y0024647D01*
X0006305Y0024539D01*
X0006153Y0024539D01*
X0006045Y0024647D01*
X0006045Y0024800D01*
G37*
%LPD*%
%LPC*%
G36*
X0005785Y0026079D02*
X0005785Y0026079D01*
X0005893Y0026187D01*
X0006045Y0026187D01*
X0006153Y0026079D01*
X0006153Y0025927D01*
X0006045Y0025819D01*
X0005893Y0025819D01*
X0005785Y0025927D01*
X0005785Y0026079D01*
G37*
%LPD*%
%LPC*%
G36*
X0005765Y0025340D02*
X0005765Y0025340D01*
X0005873Y0025447D01*
X0006025Y0025447D01*
X0006133Y0025340D01*
X0006133Y0025187D01*
X0006025Y0025079D01*
X0005873Y0025079D01*
X0005765Y0025187D01*
X0005765Y0025340D01*
G37*
%LPD*%
%LPC*%
G36*
X0004705Y0024650D02*
X0004705Y0024650D01*
X0004813Y0024757D01*
X0004965Y0024757D01*
X0005073Y0024650D01*
X0005073Y0024497D01*
X0004965Y0024389D01*
X0004813Y0024389D01*
X0004705Y0024497D01*
X0004705Y0024650D01*
G37*
%LPD*%
%LPC*%
G36*
X0004695Y0023890D02*
X0004695Y0023890D01*
X0004803Y0023997D01*
X0004955Y0023997D01*
X0005063Y0023890D01*
X0005063Y0023737D01*
X0004955Y0023629D01*
X0004803Y0023629D01*
X0004695Y0023737D01*
X0004695Y0023890D01*
G37*
%LPD*%
D23*
X0007080Y0022780D02*
X0007080Y0022783D01*
X0007080Y0022787D01*
X0007080Y0022790D01*
X0007079Y0022794D01*
X0007078Y0022797D01*
X0007078Y0022801D01*
X0007077Y0022804D01*
X0007076Y0022808D01*
X0007074Y0022811D01*
X0007073Y0022814D01*
X0007071Y0022817D01*
X0007070Y0022820D01*
X0007068Y0022824D01*
X0007066Y0022827D01*
X0007064Y0022829D01*
X0007062Y0022832D01*
X0007060Y0022835D01*
X0007057Y0022837D01*
X0007055Y0022840D01*
X0007052Y0022842D01*
X0007049Y0022845D01*
X0007047Y0022847D01*
X0007044Y0022849D01*
X0007041Y0022851D01*
X0007038Y0022853D01*
X0007035Y0022854D01*
X0007031Y0022856D01*
X0007028Y0022857D01*
X0007025Y0022858D01*
X0007021Y0022860D01*
X0007018Y0022861D01*
X0007015Y0022861D01*
X0007011Y0022862D01*
X0007008Y0022863D01*
X0007004Y0022863D01*
X0007000Y0022863D01*
X0006997Y0022863D01*
X0006993Y0022863D01*
X0006989Y0022863D01*
X0006985Y0022862D01*
X0006981Y0022862D01*
X0006977Y0022861D01*
X0006973Y0022860D01*
X0006969Y0022859D01*
X0006965Y0022858D01*
X0006961Y0022857D01*
X0006957Y0022856D01*
X0006953Y0022854D01*
X0006950Y0022852D01*
X0006946Y0022850D01*
X0006942Y0022848D01*
X0006939Y0022846D01*
X0006936Y0022844D01*
X0006932Y0022841D01*
X0006929Y0022839D01*
X0006926Y0022836D01*
X0006923Y0022834D01*
X0006920Y0022831D01*
X0006917Y0022828D01*
X0006915Y0022825D01*
X0006912Y0022821D01*
X0006910Y0022818D01*
X0006907Y0022815D01*
X0006905Y0022811D01*
X0006903Y0022808D01*
X0006901Y0022804D01*
X0006899Y0022800D01*
X0006898Y0022797D01*
X0006896Y0022793D01*
X0006895Y0022789D01*
X0007053Y0022715D02*
X0007055Y0022717D01*
X0007058Y0022720D01*
X0007060Y0022723D01*
X0007062Y0022726D01*
X0007064Y0022729D01*
X0007066Y0022732D01*
X0007068Y0022735D01*
X0007070Y0022738D01*
X0007072Y0022741D01*
X0007073Y0022744D01*
X0007075Y0022748D01*
X0007076Y0022751D01*
X0007077Y0022755D01*
X0007078Y0022758D01*
X0007079Y0022762D01*
X0007079Y0022765D01*
X0007080Y0022769D01*
X0007080Y0022773D01*
X0007080Y0022776D01*
X0007080Y0022780D01*
X0007053Y0022715D02*
X0006895Y0022530D01*
X0007080Y0022530D01*
D24*
X0010959Y0023833D03*
X0011379Y0024253D03*
X0012415Y0023341D03*
X0013465Y0022361D03*
X0013005Y0022361D03*
X0011613Y0023224D03*
X0013496Y0022987D03*
X0012541Y0025928D03*
X0013493Y0025931D03*
X0010833Y0026041D03*
X0011043Y0025541D03*
X0012083Y0026661D03*
X0010223Y0026381D03*
X0008773Y0026371D03*
X0009463Y0025561D03*
X0008175Y0023814D03*
X0008685Y0023834D03*
X0007094Y0026610D03*
X0007074Y0025130D03*
X0007104Y0024000D03*
X0005467Y0027848D03*
X0006087Y0027368D03*
X0013190Y0027556D03*
X0012540Y0026846D03*
X0013470Y0026826D03*
X0012651Y0025488D03*
X0012703Y0028417D03*
X0014809Y0026041D03*
X0014819Y0024901D03*
X0012669Y0024641D03*
X0012049Y0024951D03*
X0013519Y0024311D03*
X0003452Y0022326D03*
X0003805Y0022296D03*
X0003412Y0022690D03*
X0003455Y0028839D03*
X0003779Y0028899D03*
X0003385Y0028505D03*
X0014812Y0028903D03*
X0014812Y0028509D03*
X0014418Y0028903D03*
X0014811Y0022296D03*
X0014417Y0022296D03*
X0014811Y0022690D03*
X0014803Y0026709D03*
X0014063Y0026709D03*
X0014063Y0026039D03*
X0009483Y0026901D03*
X0008637Y0022362D03*
X0010267Y0022422D03*
X0008497Y0028842D03*
X0010197Y0028852D03*
X0005435Y0023359D03*
X0006115Y0023829D03*
X0010610Y0022595D03*
X0010206Y0024887D03*
X0008079Y0026112D03*
X0035433Y0024803D03*
X0015748Y0024803D03*
X0006089Y0026583D03*
X0004869Y0026563D03*
X0006689Y0025603D03*
X0007639Y0026323D03*
X0007658Y0023799D03*
X0010849Y0024963D03*
X0010789Y0027423D03*
X0006229Y0024723D03*
X0004889Y0024573D03*
X0008659Y0024623D03*
X0006719Y0028063D03*
X0006369Y0026323D03*
X0006199Y0026953D03*
X0008319Y0025723D03*
X0006399Y0024273D03*
X0004769Y0026963D03*
X0015748Y0026377D03*
X0020078Y0026377D03*
X0005969Y0026003D03*
X0010519Y0024613D03*
X0005949Y0025263D03*
X0004939Y0025523D03*
X0004919Y0025083D03*
X0004879Y0023813D03*
D25*
X0006712Y0022342D02*
X0007263Y0022342D01*
X0007263Y0023051D01*
X0006712Y0023051D01*
X0006712Y0022342D01*
G04 next file*
G04 EAGLE Gerber RS-274X export*
G75*
G01*
G36*
X0036928Y0022049D02*
X0036928Y0022049D01*
X0036928Y0022051D01*
X0036923Y0022104D01*
X0036920Y0022115D01*
X0036920Y0022115D01*
X0036920Y0022116D01*
X0036879Y0022215D01*
X0036878Y0022216D01*
X0036878Y0022218D01*
X0036876Y0022221D01*
X0036874Y0022224D01*
X0036872Y0022226D01*
X0036871Y0022228D01*
X0036795Y0022304D01*
X0036793Y0022305D01*
X0036792Y0022306D01*
X0036789Y0022308D01*
X0036786Y0022310D01*
X0036784Y0022311D01*
X0036782Y0022312D01*
X0036682Y0022353D01*
X0036672Y0022356D01*
X0036672Y0022356D01*
X0036671Y0022356D01*
X0036618Y0022361D01*
X0036615Y0022361D01*
X0036614Y0022362D01*
X0025245Y0022362D01*
X0025242Y0022361D01*
X0025238Y0022361D01*
X0025236Y0022360D01*
X0025234Y0022360D01*
X0025231Y0022359D01*
X0025227Y0022357D01*
X0025226Y0022356D01*
X0025224Y0022356D01*
X0025221Y0022353D01*
X0025219Y0022352D01*
X0025219Y0022351D01*
X0025217Y0022350D01*
X0025169Y0022302D01*
X0025167Y0022299D01*
X0025164Y0022296D01*
X0025164Y0022294D01*
X0025162Y0022293D01*
X0025161Y0022289D01*
X0025160Y0022286D01*
X0025159Y0022284D01*
X0025159Y0022283D01*
X0025158Y0022278D01*
X0025158Y0022274D01*
X0025158Y0015520D01*
X0025158Y0015516D01*
X0025158Y0015513D01*
X0025159Y0015511D01*
X0025159Y0015509D01*
X0025161Y0015506D01*
X0025162Y0015502D01*
X0025163Y0015501D01*
X0025164Y0015499D01*
X0025167Y0015495D01*
X0025169Y0015492D01*
X0025217Y0015444D01*
X0025218Y0015444D01*
X0025218Y0015443D01*
X0025220Y0015442D01*
X0025220Y0015442D01*
X0025223Y0015439D01*
X0025225Y0015439D01*
X0025226Y0015437D01*
X0025230Y0015436D01*
X0025233Y0015434D01*
X0025235Y0015434D01*
X0025237Y0015434D01*
X0025242Y0015433D01*
X0025245Y0015433D01*
X0036614Y0015433D01*
X0036616Y0015433D01*
X0036618Y0015433D01*
X0036671Y0015438D01*
X0036682Y0015441D01*
X0036682Y0015441D01*
X0036682Y0015441D01*
X0036782Y0015482D01*
X0036783Y0015483D01*
X0036785Y0015483D01*
X0036787Y0015485D01*
X0036791Y0015488D01*
X0036793Y0015489D01*
X0036795Y0015491D01*
X0036871Y0015567D01*
X0036872Y0015568D01*
X0036873Y0015569D01*
X0036875Y0015572D01*
X0036877Y0015575D01*
X0036878Y0015578D01*
X0036879Y0015579D01*
X0036920Y0015679D01*
X0036923Y0015689D01*
X0036923Y0015690D01*
X0036923Y0015690D01*
X0036928Y0015744D01*
X0036928Y0015746D01*
X0036929Y0015748D01*
X0036929Y0022047D01*
X0036928Y0022049D01*
G37*
%LPC*%
G36*
X0034035Y0021420D02*
X0034035Y0021420D01*
X0034012Y0021397D01*
X0033527Y0021397D01*
X0033523Y0021397D01*
X0033519Y0021396D01*
X0033517Y0021396D01*
X0033515Y0021396D01*
X0033512Y0021394D01*
X0033508Y0021393D01*
X0033507Y0021392D01*
X0033505Y0021391D01*
X0033502Y0021388D01*
X0033499Y0021386D01*
X0033475Y0021362D01*
X0032862Y0021362D01*
X0032839Y0021386D01*
X0032836Y0021388D01*
X0032833Y0021390D01*
X0032831Y0021391D01*
X0032830Y0021392D01*
X0032826Y0021394D01*
X0032823Y0021395D01*
X0032821Y0021395D01*
X0032820Y0021396D01*
X0032815Y0021397D01*
X0032811Y0021397D01*
X0031775Y0021397D01*
X0031751Y0021420D01*
X0031751Y0022162D01*
X0031775Y0022185D01*
X0032811Y0022185D01*
X0032815Y0022185D01*
X0032819Y0022185D01*
X0032820Y0022186D01*
X0032822Y0022186D01*
X0032826Y0022188D01*
X0032829Y0022189D01*
X0032830Y0022190D01*
X0032832Y0022191D01*
X0032836Y0022194D01*
X0032839Y0022196D01*
X0032862Y0022220D01*
X0033475Y0022220D01*
X0033499Y0022196D01*
X0033502Y0022194D01*
X0033505Y0022191D01*
X0033506Y0022190D01*
X0033508Y0022189D01*
X0033511Y0022188D01*
X0033515Y0022186D01*
X0033516Y0022186D01*
X0033518Y0022186D01*
X0033523Y0022185D01*
X0033527Y0022185D01*
X0034012Y0022185D01*
X0034035Y0022162D01*
X0034035Y0021420D01*
G37*
%LPD*%
%LPC*%
G36*
X0031200Y0021358D02*
X0031200Y0021358D01*
X0031125Y0021177D01*
X0030987Y0021039D01*
X0030806Y0020964D01*
X0030610Y0020964D01*
X0030429Y0021039D01*
X0030291Y0021177D01*
X0030216Y0021358D01*
X0030216Y0021554D01*
X0030291Y0021735D01*
X0030429Y0021873D01*
X0030610Y0021948D01*
X0030806Y0021948D01*
X0030987Y0021873D01*
X0031125Y0021735D01*
X0031200Y0021554D01*
X0031200Y0021358D01*
G37*
%LPD*%
%LPC*%
G36*
X0031200Y0016240D02*
X0031200Y0016240D01*
X0031125Y0016059D01*
X0030987Y0015921D01*
X0030806Y0015846D01*
X0030610Y0015846D01*
X0030429Y0015921D01*
X0030291Y0016059D01*
X0030216Y0016240D01*
X0030216Y0016436D01*
X0030291Y0016617D01*
X0030429Y0016755D01*
X0030610Y0016830D01*
X0030806Y0016830D01*
X0030987Y0016755D01*
X0031125Y0016617D01*
X0031200Y0016436D01*
X0031200Y0016240D01*
G37*
%LPD*%
%LPC*%
G36*
X0034251Y0017828D02*
X0034251Y0017828D01*
X0034144Y0017720D01*
X0034126Y0017720D01*
X0034125Y0017720D01*
X0034124Y0017720D01*
X0034120Y0017719D01*
X0034115Y0017718D01*
X0034114Y0017718D01*
X0034113Y0017718D01*
X0034109Y0017716D01*
X0034105Y0017714D01*
X0034104Y0017713D01*
X0034103Y0017712D01*
X0034100Y0017709D01*
X0034097Y0017707D01*
X0034096Y0017705D01*
X0034095Y0017705D01*
X0034093Y0017701D01*
X0034091Y0017697D01*
X0034090Y0017696D01*
X0034090Y0017695D01*
X0034089Y0017691D01*
X0034088Y0017687D01*
X0034087Y0017685D01*
X0034087Y0017684D01*
X0034087Y0017680D01*
X0034087Y0017676D01*
X0034088Y0017674D01*
X0034088Y0017673D01*
X0034089Y0017669D01*
X0034090Y0017665D01*
X0034091Y0017664D01*
X0034091Y0017663D01*
X0034094Y0017660D01*
X0034096Y0017655D01*
X0034098Y0017654D01*
X0034099Y0017653D01*
X0034141Y0017610D01*
X0034141Y0017458D01*
X0034034Y0017350D01*
X0033881Y0017350D01*
X0033773Y0017458D01*
X0033773Y0017610D01*
X0033881Y0017718D01*
X0033898Y0017718D01*
X0033900Y0017718D01*
X0033901Y0017718D01*
X0033905Y0017719D01*
X0033909Y0017719D01*
X0033911Y0017720D01*
X0033912Y0017720D01*
X0033916Y0017722D01*
X0033919Y0017724D01*
X0033920Y0017725D01*
X0033922Y0017725D01*
X0033925Y0017728D01*
X0033928Y0017731D01*
X0033929Y0017732D01*
X0033930Y0017733D01*
X0033932Y0017737D01*
X0033934Y0017740D01*
X0033934Y0017742D01*
X0033935Y0017743D01*
X0033936Y0017747D01*
X0033937Y0017751D01*
X0033937Y0017752D01*
X0033938Y0017754D01*
X0033937Y0017758D01*
X0033937Y0017762D01*
X0033937Y0017763D01*
X0033937Y0017765D01*
X0033936Y0017769D01*
X0033934Y0017773D01*
X0033934Y0017774D01*
X0033933Y0017775D01*
X0033931Y0017778D01*
X0033929Y0017782D01*
X0033927Y0017784D01*
X0033926Y0017785D01*
X0033883Y0017828D01*
X0033883Y0017941D01*
X0033883Y0017943D01*
X0033883Y0017946D01*
X0033882Y0017949D01*
X0033882Y0017952D01*
X0033881Y0017954D01*
X0033880Y0017956D01*
X0033879Y0017959D01*
X0033877Y0017962D01*
X0033876Y0017964D01*
X0033874Y0017966D01*
X0033872Y0017968D01*
X0033870Y0017970D01*
X0033868Y0017972D01*
X0033866Y0017973D01*
X0033863Y0017975D01*
X0033861Y0017976D01*
X0033858Y0017977D01*
X0033856Y0017978D01*
X0033853Y0017978D01*
X0033850Y0017979D01*
X0033847Y0017979D01*
X0033844Y0017980D01*
X0033711Y0017980D01*
X0033603Y0018088D01*
X0033603Y0018240D01*
X0033711Y0018348D01*
X0033864Y0018348D01*
X0033971Y0018240D01*
X0033971Y0018127D01*
X0033972Y0018125D01*
X0033972Y0018122D01*
X0033972Y0018119D01*
X0033973Y0018116D01*
X0033974Y0018114D01*
X0033975Y0018111D01*
X0033976Y0018109D01*
X0033977Y0018106D01*
X0033979Y0018104D01*
X0033980Y0018102D01*
X0033983Y0018100D01*
X0033985Y0018098D01*
X0033987Y0018096D01*
X0033989Y0018094D01*
X0033991Y0018093D01*
X0033994Y0018091D01*
X0033996Y0018091D01*
X0033999Y0018090D01*
X0034001Y0018089D01*
X0034005Y0018088D01*
X0034008Y0018088D01*
X0034011Y0018088D01*
X0034144Y0018088D01*
X0034251Y0017980D01*
X0034251Y0017828D01*
G37*
%LPD*%
%LPC*%
G36*
X0035421Y0019328D02*
X0035421Y0019328D01*
X0035313Y0019220D01*
X0035310Y0019219D01*
X0035305Y0019218D01*
X0035304Y0019218D01*
X0035303Y0019218D01*
X0035299Y0019216D01*
X0035295Y0019214D01*
X0035294Y0019213D01*
X0035293Y0019212D01*
X0035290Y0019209D01*
X0035287Y0019207D01*
X0035286Y0019205D01*
X0035285Y0019205D01*
X0035283Y0019201D01*
X0035281Y0019197D01*
X0035280Y0019196D01*
X0035280Y0019195D01*
X0035279Y0019191D01*
X0035278Y0019187D01*
X0035277Y0019185D01*
X0035277Y0019184D01*
X0035277Y0019180D01*
X0035277Y0019175D01*
X0035278Y0019174D01*
X0035278Y0019173D01*
X0035279Y0019169D01*
X0035280Y0019165D01*
X0035281Y0019164D01*
X0035281Y0019162D01*
X0035284Y0019160D01*
X0035286Y0019155D01*
X0035288Y0019154D01*
X0035289Y0019153D01*
X0035401Y0019040D01*
X0035401Y0018888D01*
X0035294Y0018780D01*
X0035141Y0018780D01*
X0035033Y0018888D01*
X0035033Y0019040D01*
X0035141Y0019148D01*
X0035145Y0019149D01*
X0035149Y0019149D01*
X0035151Y0019150D01*
X0035152Y0019150D01*
X0035156Y0019152D01*
X0035159Y0019154D01*
X0035160Y0019155D01*
X0035162Y0019155D01*
X0035165Y0019158D01*
X0035168Y0019161D01*
X0035169Y0019162D01*
X0035170Y0019163D01*
X0035172Y0019167D01*
X0035174Y0019170D01*
X0035174Y0019172D01*
X0035175Y0019173D01*
X0035176Y0019177D01*
X0035177Y0019181D01*
X0035177Y0019182D01*
X0035178Y0019184D01*
X0035177Y0019188D01*
X0035177Y0019192D01*
X0035177Y0019193D01*
X0035177Y0019195D01*
X0035176Y0019199D01*
X0035174Y0019203D01*
X0035174Y0019204D01*
X0035173Y0019205D01*
X0035171Y0019208D01*
X0035169Y0019212D01*
X0035167Y0019214D01*
X0035166Y0019215D01*
X0035053Y0019328D01*
X0035053Y0019480D01*
X0035161Y0019588D01*
X0035314Y0019588D01*
X0035421Y0019480D01*
X0035421Y0019328D01*
G37*
%LPD*%
%LPC*%
G36*
X0035571Y0017448D02*
X0035571Y0017448D01*
X0035464Y0017340D01*
X0035311Y0017340D01*
X0035203Y0017448D01*
X0035203Y0017600D01*
X0035276Y0017673D01*
X0035277Y0017674D01*
X0035278Y0017675D01*
X0035280Y0017678D01*
X0035283Y0017682D01*
X0035283Y0017683D01*
X0035284Y0017684D01*
X0035285Y0017688D01*
X0035287Y0017692D01*
X0035287Y0017693D01*
X0035287Y0017695D01*
X0035287Y0017699D01*
X0035288Y0017703D01*
X0035287Y0017704D01*
X0035287Y0017706D01*
X0035286Y0017710D01*
X0035285Y0017714D01*
X0035285Y0017715D01*
X0035284Y0017716D01*
X0035282Y0017720D01*
X0035280Y0017724D01*
X0035279Y0017725D01*
X0035279Y0017726D01*
X0035275Y0017729D01*
X0035272Y0017732D01*
X0035271Y0017732D01*
X0035270Y0017733D01*
X0035266Y0017735D01*
X0035263Y0017737D01*
X0035262Y0017737D01*
X0035260Y0017738D01*
X0035257Y0017739D01*
X0035252Y0017740D01*
X0035250Y0017740D01*
X0035248Y0017740D01*
X0035211Y0017740D01*
X0035103Y0017848D01*
X0035103Y0018000D01*
X0035211Y0018108D01*
X0035364Y0018108D01*
X0035471Y0018000D01*
X0035471Y0017848D01*
X0035399Y0017775D01*
X0035398Y0017774D01*
X0035397Y0017773D01*
X0035394Y0017769D01*
X0035392Y0017766D01*
X0035391Y0017765D01*
X0035391Y0017764D01*
X0035390Y0017760D01*
X0035388Y0017756D01*
X0035388Y0017754D01*
X0035388Y0017753D01*
X0035387Y0017749D01*
X0035387Y0017745D01*
X0035387Y0017743D01*
X0035387Y0017742D01*
X0035389Y0017738D01*
X0035389Y0017734D01*
X0035390Y0017733D01*
X0035390Y0017731D01*
X0035393Y0017728D01*
X0035395Y0017724D01*
X0035395Y0017723D01*
X0035396Y0017722D01*
X0035399Y0017719D01*
X0035402Y0017716D01*
X0035403Y0017715D01*
X0035404Y0017714D01*
X0035408Y0017713D01*
X0035412Y0017710D01*
X0035413Y0017710D01*
X0035414Y0017710D01*
X0035418Y0017709D01*
X0035423Y0017708D01*
X0035425Y0017708D01*
X0035426Y0017708D01*
X0035464Y0017708D01*
X0035571Y0017600D01*
X0035571Y0017448D01*
G37*
%LPD*%
%LPC*%
G36*
X0029491Y0019448D02*
X0029491Y0019448D01*
X0029384Y0019340D01*
X0029231Y0019340D01*
X0029123Y0019448D01*
X0029123Y0019600D01*
X0029231Y0019708D01*
X0029384Y0019708D01*
X0029491Y0019600D01*
X0029491Y0019448D01*
G37*
%LPD*%
%LPC*%
G36*
X0029551Y0016988D02*
X0029551Y0016988D01*
X0029444Y0016880D01*
X0029291Y0016880D01*
X0029183Y0016988D01*
X0029183Y0017140D01*
X0029291Y0017248D01*
X0029444Y0017248D01*
X0029551Y0017140D01*
X0029551Y0016988D01*
G37*
%LPD*%
%LPC*%
G36*
X0029821Y0019798D02*
X0029821Y0019798D01*
X0029714Y0019690D01*
X0029561Y0019690D01*
X0029453Y0019798D01*
X0029453Y0019950D01*
X0029561Y0020058D01*
X0029714Y0020058D01*
X0029821Y0019950D01*
X0029821Y0019798D01*
G37*
%LPD*%
%LPC*%
G36*
X0031681Y0019788D02*
X0031681Y0019788D01*
X0031574Y0019680D01*
X0031421Y0019680D01*
X0031313Y0019788D01*
X0031313Y0019940D01*
X0031421Y0020048D01*
X0031574Y0020048D01*
X0031681Y0019940D01*
X0031681Y0019788D01*
G37*
%LPD*%
%LPC*%
G36*
X0032021Y0018688D02*
X0032021Y0018688D01*
X0031914Y0018580D01*
X0031761Y0018580D01*
X0031653Y0018688D01*
X0031653Y0018840D01*
X0031761Y0018948D01*
X0031914Y0018948D01*
X0032021Y0018840D01*
X0032021Y0018688D01*
G37*
%LPD*%
%LPC*%
G36*
X0032682Y0020612D02*
X0032682Y0020612D01*
X0032574Y0020504D01*
X0032422Y0020504D01*
X0032314Y0020612D01*
X0032314Y0020764D01*
X0032422Y0020872D01*
X0032574Y0020872D01*
X0032682Y0020764D01*
X0032682Y0020612D01*
G37*
%LPD*%
%LPC*%
G36*
X0032701Y0018088D02*
X0032701Y0018088D01*
X0032594Y0017980D01*
X0032441Y0017980D01*
X0032333Y0018088D01*
X0032333Y0018240D01*
X0032441Y0018348D01*
X0032594Y0018348D01*
X0032701Y0018240D01*
X0032701Y0018088D01*
G37*
%LPD*%
%LPC*%
G36*
X0033621Y0016348D02*
X0033621Y0016348D01*
X0033514Y0016240D01*
X0033361Y0016240D01*
X0033253Y0016348D01*
X0033253Y0016500D01*
X0033361Y0016608D01*
X0033514Y0016608D01*
X0033621Y0016500D01*
X0033621Y0016348D01*
G37*
%LPD*%
%LPC*%
G36*
X0033651Y0018808D02*
X0033651Y0018808D01*
X0033544Y0018700D01*
X0033391Y0018700D01*
X0033283Y0018808D01*
X0033283Y0018960D01*
X0033391Y0019068D01*
X0033544Y0019068D01*
X0033651Y0018960D01*
X0033651Y0018808D01*
G37*
%LPD*%
%LPC*%
G36*
X0033941Y0020138D02*
X0033941Y0020138D01*
X0033834Y0020030D01*
X0033681Y0020030D01*
X0033573Y0020138D01*
X0033573Y0020290D01*
X0033681Y0020398D01*
X0033834Y0020398D01*
X0033941Y0020290D01*
X0033941Y0020138D01*
G37*
%LPD*%
%LPC*%
G36*
X0034111Y0019688D02*
X0034111Y0019688D01*
X0034004Y0019580D01*
X0033851Y0019580D01*
X0033743Y0019688D01*
X0033743Y0019840D01*
X0033851Y0019948D01*
X0034004Y0019948D01*
X0034111Y0019840D01*
X0034111Y0019688D01*
G37*
%LPD*%
%LPC*%
G36*
X0034371Y0018408D02*
X0034371Y0018408D01*
X0034264Y0018300D01*
X0034111Y0018300D01*
X0034003Y0018408D01*
X0034003Y0018560D01*
X0034111Y0018668D01*
X0034264Y0018668D01*
X0034371Y0018560D01*
X0034371Y0018408D01*
G37*
%LPD*%
%LPC*%
G36*
X0034391Y0019148D02*
X0034391Y0019148D01*
X0034284Y0019040D01*
X0034131Y0019040D01*
X0034023Y0019148D01*
X0034023Y0019300D01*
X0034131Y0019408D01*
X0034284Y0019408D01*
X0034391Y0019300D01*
X0034391Y0019148D01*
G37*
%LPD*%
%LPC*%
G36*
X0035451Y0019838D02*
X0035451Y0019838D01*
X0035344Y0019730D01*
X0035191Y0019730D01*
X0035083Y0019838D01*
X0035083Y0019990D01*
X0035191Y0020098D01*
X0035344Y0020098D01*
X0035451Y0019990D01*
X0035451Y0019838D01*
G37*
%LPD*%
%LPC*%
G36*
X0035461Y0020598D02*
X0035461Y0020598D01*
X0035354Y0020490D01*
X0035201Y0020490D01*
X0035093Y0020598D01*
X0035093Y0020750D01*
X0035201Y0020858D01*
X0035354Y0020858D01*
X0035461Y0020750D01*
X0035461Y0020598D01*
G37*
%LPD*%
D26*
X0033076Y0021707D02*
X0033076Y0021704D01*
X0033076Y0021700D01*
X0033077Y0021697D01*
X0033077Y0021693D01*
X0033078Y0021690D01*
X0033079Y0021686D01*
X0033080Y0021683D01*
X0033081Y0021680D01*
X0033082Y0021676D01*
X0033084Y0021673D01*
X0033085Y0021670D01*
X0033087Y0021667D01*
X0033089Y0021664D01*
X0033090Y0021661D01*
X0033092Y0021658D01*
X0033095Y0021655D01*
X0033097Y0021652D01*
X0033099Y0021650D01*
X0033102Y0021647D01*
X0033104Y0021645D01*
X0033107Y0021642D01*
X0033110Y0021640D01*
X0033113Y0021638D01*
X0033116Y0021636D01*
X0033119Y0021635D01*
X0033122Y0021633D01*
X0033125Y0021631D01*
X0033128Y0021630D01*
X0033132Y0021629D01*
X0033135Y0021628D01*
X0033139Y0021627D01*
X0033142Y0021626D01*
X0033145Y0021625D01*
X0033149Y0021625D01*
X0033152Y0021624D01*
X0033156Y0021624D01*
X0033160Y0021624D01*
X0033164Y0021624D01*
X0033168Y0021624D01*
X0033172Y0021625D01*
X0033176Y0021625D01*
X0033180Y0021626D01*
X0033184Y0021627D01*
X0033188Y0021628D01*
X0033192Y0021629D01*
X0033196Y0021630D01*
X0033199Y0021632D01*
X0033203Y0021633D01*
X0033207Y0021635D01*
X0033210Y0021637D01*
X0033214Y0021639D01*
X0033218Y0021641D01*
X0033221Y0021643D01*
X0033224Y0021646D01*
X0033227Y0021648D01*
X0033231Y0021651D01*
X0033234Y0021654D01*
X0033236Y0021657D01*
X0033239Y0021660D01*
X0033242Y0021663D01*
X0033244Y0021666D01*
X0033247Y0021669D01*
X0033249Y0021672D01*
X0033251Y0021676D01*
X0033253Y0021679D01*
X0033255Y0021683D01*
X0033257Y0021687D01*
X0033259Y0021690D01*
X0033260Y0021694D01*
X0033262Y0021698D01*
X0033104Y0021772D02*
X0033101Y0021770D01*
X0033099Y0021767D01*
X0033097Y0021764D01*
X0033094Y0021761D01*
X0033092Y0021759D01*
X0033090Y0021756D01*
X0033088Y0021752D01*
X0033086Y0021749D01*
X0033085Y0021746D01*
X0033083Y0021743D01*
X0033082Y0021739D01*
X0033081Y0021736D01*
X0033080Y0021732D01*
X0033079Y0021729D01*
X0033078Y0021725D01*
X0033077Y0021722D01*
X0033077Y0021718D01*
X0033076Y0021715D01*
X0033076Y0021711D01*
X0033076Y0021707D01*
X0033104Y0021772D02*
X0033261Y0021958D01*
X0033076Y0021958D01*
D27*
X0029197Y0020654D03*
X0028777Y0020234D03*
X0027741Y0021146D03*
X0026691Y0022126D03*
X0027151Y0022126D03*
X0028544Y0021263D03*
X0026660Y0021500D03*
X0027615Y0018559D03*
X0026664Y0018556D03*
X0029324Y0018446D03*
X0029114Y0018946D03*
X0028074Y0017826D03*
X0029934Y0018106D03*
X0031384Y0018116D03*
X0030694Y0018926D03*
X0031982Y0020674D03*
X0031472Y0020654D03*
X0033062Y0017877D03*
X0033082Y0019357D03*
X0033052Y0020487D03*
X0034689Y0016639D03*
X0034069Y0017119D03*
X0026967Y0016931D03*
X0027617Y0017641D03*
X0026687Y0017661D03*
X0027505Y0018999D03*
X0027454Y0016070D03*
X0025348Y0018446D03*
X0025338Y0019586D03*
X0027488Y0019846D03*
X0028108Y0019536D03*
X0026638Y0020176D03*
X0036705Y0022161D03*
X0036351Y0022191D03*
X0036745Y0021797D03*
X0036701Y0015648D03*
X0036378Y0015588D03*
X0036771Y0015982D03*
X0025345Y0015584D03*
X0025345Y0015978D03*
X0025739Y0015584D03*
X0025346Y0022191D03*
X0025740Y0022191D03*
X0025346Y0021797D03*
X0025353Y0017778D03*
X0026093Y0017778D03*
X0026093Y0018448D03*
X0030674Y0017586D03*
X0031520Y0022125D03*
X0029890Y0022065D03*
X0031660Y0015645D03*
X0029960Y0015635D03*
X0034721Y0021128D03*
X0034041Y0020658D03*
X0029546Y0021893D03*
X0029951Y0019600D03*
X0032078Y0018375D03*
X0004724Y0019685D03*
X0024409Y0019685D03*
X0034067Y0017904D03*
X0035287Y0017924D03*
X0033467Y0018884D03*
X0032517Y0018164D03*
X0032498Y0020688D03*
X0029307Y0019524D03*
X0029367Y0017064D03*
X0033927Y0019764D03*
X0035267Y0019914D03*
X0031497Y0019864D03*
X0033437Y0016424D03*
X0033787Y0018164D03*
X0033957Y0017534D03*
X0031837Y0018764D03*
X0033757Y0020214D03*
X0035387Y0017524D03*
X0024409Y0018110D03*
X0020078Y0018110D03*
X0034187Y0018484D03*
X0029637Y0019874D03*
X0034207Y0019224D03*
X0035217Y0018964D03*
X0035237Y0019404D03*
X0035277Y0020674D03*
D28*
X0033444Y0022145D02*
X0032893Y0022145D01*
X0032893Y0021437D01*
X0033444Y0021437D01*
X0033444Y0022145D01*
G04 next file*
G04 EAGLE Gerber RS-274X export*
G75*
G01*
G36*
X0003622Y0009053D02*
X0003622Y0009053D01*
X0003622Y0009051D01*
X0003627Y0008997D01*
X0003630Y0008986D01*
X0003630Y0008986D01*
X0003630Y0008986D01*
X0003671Y0008886D01*
X0003672Y0008885D01*
X0003672Y0008883D01*
X0003674Y0008881D01*
X0003677Y0008877D01*
X0003678Y0008875D01*
X0003680Y0008874D01*
X0003756Y0008798D01*
X0003757Y0008797D01*
X0003758Y0008795D01*
X0003761Y0008794D01*
X0003764Y0008791D01*
X0003767Y0008790D01*
X0003768Y0008789D01*
X0003868Y0008748D01*
X0003878Y0008745D01*
X0003879Y0008745D01*
X0003879Y0008745D01*
X0003933Y0008740D01*
X0003935Y0008740D01*
X0003937Y0008740D01*
X0015305Y0008740D01*
X0015309Y0008740D01*
X0015312Y0008740D01*
X0015314Y0008741D01*
X0015316Y0008741D01*
X0015319Y0008743D01*
X0015323Y0008744D01*
X0015324Y0008745D01*
X0015326Y0008746D01*
X0015329Y0008749D01*
X0015331Y0008750D01*
X0015332Y0008750D01*
X0015333Y0008751D01*
X0015381Y0008800D01*
X0015383Y0008803D01*
X0015386Y0008805D01*
X0015387Y0008807D01*
X0015388Y0008808D01*
X0015389Y0008812D01*
X0015391Y0008815D01*
X0015391Y0008817D01*
X0015392Y0008819D01*
X0015392Y0008824D01*
X0015392Y0008827D01*
X0015392Y0015581D01*
X0015392Y0015585D01*
X0015392Y0015589D01*
X0015391Y0015590D01*
X0015391Y0015592D01*
X0015389Y0015596D01*
X0015388Y0015599D01*
X0015387Y0015600D01*
X0015386Y0015602D01*
X0015383Y0015606D01*
X0015381Y0015609D01*
X0015333Y0015657D01*
X0015332Y0015658D01*
X0015332Y0015658D01*
X0015330Y0015659D01*
X0015330Y0015660D01*
X0015327Y0015662D01*
X0015325Y0015663D01*
X0015324Y0015664D01*
X0015320Y0015665D01*
X0015317Y0015667D01*
X0015315Y0015667D01*
X0015313Y0015668D01*
X0015308Y0015668D01*
X0015305Y0015669D01*
X0003937Y0015669D01*
X0003934Y0015668D01*
X0003933Y0015669D01*
X0003879Y0015663D01*
X0003868Y0015661D01*
X0003868Y0015661D01*
X0003868Y0015660D01*
X0003768Y0015619D01*
X0003767Y0015618D01*
X0003765Y0015618D01*
X0003763Y0015616D01*
X0003759Y0015614D01*
X0003757Y0015612D01*
X0003756Y0015611D01*
X0003680Y0015535D01*
X0003679Y0015533D01*
X0003677Y0015532D01*
X0003676Y0015529D01*
X0003673Y0015526D01*
X0003672Y0015524D01*
X0003671Y0015522D01*
X0003630Y0015423D01*
X0003627Y0015412D01*
X0003627Y0015412D01*
X0003627Y0015411D01*
X0003622Y0015358D01*
X0003622Y0015356D01*
X0003622Y0015354D01*
X0003622Y0009055D01*
X0003622Y0009053D01*
G37*
%LPC*%
G36*
X0006515Y0009681D02*
X0006515Y0009681D01*
X0006538Y0009704D01*
X0007024Y0009704D01*
X0007027Y0009705D01*
X0007031Y0009705D01*
X0007033Y0009706D01*
X0007035Y0009706D01*
X0007038Y0009707D01*
X0007042Y0009709D01*
X0007043Y0009710D01*
X0007045Y0009710D01*
X0007049Y0009714D01*
X0007052Y0009716D01*
X0007075Y0009739D01*
X0007688Y0009739D01*
X0007711Y0009716D01*
X0007714Y0009714D01*
X0007717Y0009711D01*
X0007719Y0009710D01*
X0007720Y0009709D01*
X0007724Y0009708D01*
X0007727Y0009706D01*
X0007729Y0009706D01*
X0007731Y0009705D01*
X0007736Y0009705D01*
X0007739Y0009704D01*
X0008776Y0009704D01*
X0008799Y0009681D01*
X0008799Y0008940D01*
X0008776Y0008917D01*
X0007739Y0008917D01*
X0007735Y0008916D01*
X0007732Y0008916D01*
X0007730Y0008915D01*
X0007728Y0008915D01*
X0007725Y0008914D01*
X0007721Y0008912D01*
X0007720Y0008911D01*
X0007718Y0008911D01*
X0007714Y0008907D01*
X0007711Y0008905D01*
X0007688Y0008882D01*
X0007075Y0008882D01*
X0007052Y0008905D01*
X0007048Y0008908D01*
X0007046Y0008910D01*
X0007044Y0008911D01*
X0007043Y0008912D01*
X0007039Y0008913D01*
X0007036Y0008915D01*
X0007034Y0008915D01*
X0007032Y0008916D01*
X0007027Y0008916D01*
X0007024Y0008917D01*
X0006538Y0008917D01*
X0006515Y0008940D01*
X0006515Y0009681D01*
G37*
%LPD*%
%LPC*%
G36*
X0009350Y0009743D02*
X0009350Y0009743D01*
X0009425Y0009924D01*
X0009563Y0010062D01*
X0009744Y0010137D01*
X0009940Y0010137D01*
X0010121Y0010062D01*
X0010259Y0009924D01*
X0010334Y0009743D01*
X0010334Y0009547D01*
X0010259Y0009366D01*
X0010121Y0009228D01*
X0009940Y0009153D01*
X0009744Y0009153D01*
X0009563Y0009228D01*
X0009425Y0009366D01*
X0009350Y0009547D01*
X0009350Y0009743D01*
G37*
%LPD*%
%LPC*%
G36*
X0009350Y0014861D02*
X0009350Y0014861D01*
X0009425Y0015042D01*
X0009563Y0015181D01*
X0009744Y0015255D01*
X0009940Y0015255D01*
X0010121Y0015181D01*
X0010259Y0015042D01*
X0010334Y0014861D01*
X0010334Y0014665D01*
X0010259Y0014485D01*
X0010121Y0014346D01*
X0009940Y0014271D01*
X0009744Y0014271D01*
X0009563Y0014346D01*
X0009425Y0014485D01*
X0009350Y0014665D01*
X0009350Y0014861D01*
G37*
%LPD*%
%LPC*%
G36*
X0006299Y0013274D02*
X0006299Y0013274D01*
X0006407Y0013381D01*
X0006424Y0013381D01*
X0006425Y0013382D01*
X0006426Y0013382D01*
X0006431Y0013382D01*
X0006435Y0013383D01*
X0006436Y0013384D01*
X0006437Y0013384D01*
X0006441Y0013386D01*
X0006445Y0013388D01*
X0006446Y0013388D01*
X0006447Y0013389D01*
X0006450Y0013392D01*
X0006453Y0013395D01*
X0006454Y0013396D01*
X0006455Y0013397D01*
X0006457Y0013401D01*
X0006459Y0013404D01*
X0006460Y0013405D01*
X0006460Y0013406D01*
X0006461Y0013411D01*
X0006463Y0013415D01*
X0006463Y0013416D01*
X0006463Y0013417D01*
X0006463Y0013422D01*
X0006463Y0013426D01*
X0006462Y0013427D01*
X0006462Y0013428D01*
X0006461Y0013432D01*
X0006460Y0013437D01*
X0006459Y0013438D01*
X0006459Y0013439D01*
X0006457Y0013442D01*
X0006454Y0013446D01*
X0006453Y0013447D01*
X0006452Y0013449D01*
X0006409Y0013491D01*
X0006409Y0013644D01*
X0006517Y0013751D01*
X0006669Y0013751D01*
X0006777Y0013644D01*
X0006777Y0013491D01*
X0006669Y0013384D01*
X0006652Y0013384D01*
X0006651Y0013383D01*
X0006649Y0013384D01*
X0006645Y0013383D01*
X0006641Y0013382D01*
X0006640Y0013382D01*
X0006638Y0013381D01*
X0006635Y0013379D01*
X0006631Y0013377D01*
X0006630Y0013377D01*
X0006629Y0013376D01*
X0006626Y0013373D01*
X0006622Y0013370D01*
X0006622Y0013369D01*
X0006621Y0013368D01*
X0006619Y0013365D01*
X0006616Y0013361D01*
X0006616Y0013360D01*
X0006615Y0013359D01*
X0006614Y0013354D01*
X0006613Y0013350D01*
X0006613Y0013349D01*
X0006613Y0013348D01*
X0006613Y0013344D01*
X0006613Y0013339D01*
X0006613Y0013338D01*
X0006613Y0013337D01*
X0006615Y0013333D01*
X0006616Y0013329D01*
X0006616Y0013327D01*
X0006617Y0013326D01*
X0006619Y0013323D01*
X0006622Y0013319D01*
X0006623Y0013318D01*
X0006624Y0013316D01*
X0006667Y0013274D01*
X0006667Y0013161D01*
X0006667Y0013158D01*
X0006667Y0013156D01*
X0006668Y0013153D01*
X0006668Y0013150D01*
X0006669Y0013147D01*
X0006670Y0013145D01*
X0006672Y0013142D01*
X0006673Y0013140D01*
X0006675Y0013138D01*
X0006676Y0013136D01*
X0006678Y0013134D01*
X0006680Y0013131D01*
X0006682Y0013130D01*
X0006684Y0013128D01*
X0006687Y0013127D01*
X0006689Y0013125D01*
X0006692Y0013124D01*
X0006694Y0013123D01*
X0006697Y0013123D01*
X0006700Y0013122D01*
X0006703Y0013122D01*
X0006706Y0013121D01*
X0006839Y0013121D01*
X0006947Y0013014D01*
X0006947Y0012861D01*
X0006839Y0012754D01*
X0006687Y0012754D01*
X0006579Y0012861D01*
X0006579Y0012974D01*
X0006579Y0012977D01*
X0006579Y0012979D01*
X0006578Y0012982D01*
X0006577Y0012985D01*
X0006576Y0012988D01*
X0006576Y0012990D01*
X0006574Y0012993D01*
X0006573Y0012995D01*
X0006571Y0012997D01*
X0006570Y0012999D01*
X0006567Y0013002D01*
X0006566Y0013004D01*
X0006563Y0013005D01*
X0006562Y0013007D01*
X0006559Y0013008D01*
X0006556Y0013010D01*
X0006554Y0013011D01*
X0006552Y0013012D01*
X0006549Y0013012D01*
X0006546Y0013013D01*
X0006542Y0013013D01*
X0006540Y0013014D01*
X0006407Y0013014D01*
X0006299Y0013121D01*
X0006299Y0013274D01*
G37*
%LPD*%
%LPC*%
G36*
X0005129Y0011774D02*
X0005129Y0011774D01*
X0005237Y0011882D01*
X0005241Y0011882D01*
X0005245Y0011883D01*
X0005246Y0011884D01*
X0005247Y0011884D01*
X0005251Y0011886D01*
X0005255Y0011888D01*
X0005256Y0011888D01*
X0005257Y0011889D01*
X0005260Y0011892D01*
X0005263Y0011895D01*
X0005264Y0011896D01*
X0005265Y0011897D01*
X0005267Y0011901D01*
X0005269Y0011904D01*
X0005270Y0011905D01*
X0005270Y0011906D01*
X0005271Y0011911D01*
X0005273Y0011915D01*
X0005273Y0011916D01*
X0005273Y0011917D01*
X0005273Y0011922D01*
X0005273Y0011926D01*
X0005272Y0011927D01*
X0005272Y0011928D01*
X0005271Y0011932D01*
X0005270Y0011937D01*
X0005269Y0011938D01*
X0005269Y0011939D01*
X0005267Y0011942D01*
X0005264Y0011946D01*
X0005263Y0011947D01*
X0005262Y0011949D01*
X0005149Y0012061D01*
X0005149Y0012214D01*
X0005257Y0012321D01*
X0005409Y0012321D01*
X0005517Y0012214D01*
X0005517Y0012061D01*
X0005409Y0011953D01*
X0005405Y0011953D01*
X0005401Y0011952D01*
X0005400Y0011952D01*
X0005398Y0011951D01*
X0005395Y0011949D01*
X0005391Y0011947D01*
X0005390Y0011947D01*
X0005389Y0011946D01*
X0005386Y0011943D01*
X0005382Y0011940D01*
X0005382Y0011939D01*
X0005381Y0011938D01*
X0005379Y0011935D01*
X0005376Y0011931D01*
X0005376Y0011930D01*
X0005375Y0011929D01*
X0005374Y0011924D01*
X0005373Y0011920D01*
X0005373Y0011919D01*
X0005373Y0011918D01*
X0005373Y0011914D01*
X0005373Y0011909D01*
X0005373Y0011908D01*
X0005373Y0011907D01*
X0005375Y0011903D01*
X0005376Y0011899D01*
X0005376Y0011897D01*
X0005377Y0011896D01*
X0005379Y0011893D01*
X0005382Y0011889D01*
X0005383Y0011888D01*
X0005384Y0011886D01*
X0005497Y0011774D01*
X0005497Y0011621D01*
X0005389Y0011514D01*
X0005237Y0011514D01*
X0005129Y0011621D01*
X0005129Y0011774D01*
G37*
%LPD*%
%LPC*%
G36*
X0004979Y0013654D02*
X0004979Y0013654D01*
X0005087Y0013761D01*
X0005239Y0013761D01*
X0005347Y0013654D01*
X0005347Y0013501D01*
X0005274Y0013429D01*
X0005273Y0013428D01*
X0005272Y0013427D01*
X0005270Y0013423D01*
X0005267Y0013420D01*
X0005267Y0013419D01*
X0005266Y0013417D01*
X0005265Y0013413D01*
X0005263Y0013409D01*
X0005263Y0013408D01*
X0005263Y0013407D01*
X0005263Y0013403D01*
X0005263Y0013398D01*
X0005263Y0013397D01*
X0005263Y0013396D01*
X0005264Y0013392D01*
X0005265Y0013387D01*
X0005265Y0013386D01*
X0005266Y0013385D01*
X0005268Y0013381D01*
X0005270Y0013378D01*
X0005271Y0013377D01*
X0005272Y0013376D01*
X0005275Y0013373D01*
X0005278Y0013370D01*
X0005279Y0013369D01*
X0005280Y0013368D01*
X0005284Y0013366D01*
X0005287Y0013364D01*
X0005289Y0013364D01*
X0005290Y0013363D01*
X0005293Y0013363D01*
X0005298Y0013362D01*
X0005300Y0013362D01*
X0005302Y0013361D01*
X0005339Y0013361D01*
X0005447Y0013254D01*
X0005447Y0013101D01*
X0005339Y0012994D01*
X0005187Y0012994D01*
X0005079Y0013101D01*
X0005079Y0013254D01*
X0005152Y0013326D01*
X0005152Y0013327D01*
X0005153Y0013328D01*
X0005156Y0013332D01*
X0005158Y0013335D01*
X0005159Y0013337D01*
X0005159Y0013338D01*
X0005161Y0013342D01*
X0005162Y0013346D01*
X0005162Y0013347D01*
X0005163Y0013348D01*
X0005163Y0013352D01*
X0005163Y0013357D01*
X0005163Y0013358D01*
X0005163Y0013359D01*
X0005162Y0013363D01*
X0005161Y0013368D01*
X0005160Y0013369D01*
X0005160Y0013370D01*
X0005158Y0013374D01*
X0005156Y0013377D01*
X0005155Y0013378D01*
X0005154Y0013379D01*
X0005151Y0013382D01*
X0005148Y0013385D01*
X0005147Y0013386D01*
X0005146Y0013387D01*
X0005142Y0013389D01*
X0005138Y0013391D01*
X0005137Y0013391D01*
X0005136Y0013392D01*
X0005132Y0013392D01*
X0005127Y0013393D01*
X0005125Y0013393D01*
X0005124Y0013394D01*
X0005087Y0013394D01*
X0004979Y0013501D01*
X0004979Y0013654D01*
G37*
%LPD*%
%LPC*%
G36*
X0011059Y0011654D02*
X0011059Y0011654D01*
X0011167Y0011761D01*
X0011319Y0011761D01*
X0011427Y0011654D01*
X0011427Y0011501D01*
X0011319Y0011394D01*
X0011167Y0011394D01*
X0011059Y0011501D01*
X0011059Y0011654D01*
G37*
%LPD*%
%LPC*%
G36*
X0010999Y0014114D02*
X0010999Y0014114D01*
X0011107Y0014221D01*
X0011259Y0014221D01*
X0011367Y0014114D01*
X0011367Y0013961D01*
X0011259Y0013854D01*
X0011107Y0013854D01*
X0010999Y0013961D01*
X0010999Y0014114D01*
G37*
%LPD*%
%LPC*%
G36*
X0010729Y0011304D02*
X0010729Y0011304D01*
X0010837Y0011411D01*
X0010989Y0011411D01*
X0011097Y0011304D01*
X0011097Y0011151D01*
X0010989Y0011044D01*
X0010837Y0011044D01*
X0010729Y0011151D01*
X0010729Y0011304D01*
G37*
%LPD*%
%LPC*%
G36*
X0008869Y0011314D02*
X0008869Y0011314D01*
X0008977Y0011421D01*
X0009129Y0011421D01*
X0009237Y0011314D01*
X0009237Y0011161D01*
X0009129Y0011054D01*
X0008977Y0011054D01*
X0008869Y0011161D01*
X0008869Y0011314D01*
G37*
%LPD*%
%LPC*%
G36*
X0008529Y0012414D02*
X0008529Y0012414D01*
X0008637Y0012521D01*
X0008789Y0012521D01*
X0008897Y0012414D01*
X0008897Y0012261D01*
X0008789Y0012154D01*
X0008637Y0012154D01*
X0008529Y0012261D01*
X0008529Y0012414D01*
G37*
%LPD*%
%LPC*%
G36*
X0007868Y0010490D02*
X0007868Y0010490D01*
X0007976Y0010597D01*
X0008128Y0010597D01*
X0008236Y0010490D01*
X0008236Y0010337D01*
X0008128Y0010230D01*
X0007976Y0010230D01*
X0007868Y0010337D01*
X0007868Y0010490D01*
G37*
%LPD*%
%LPC*%
G36*
X0007849Y0013014D02*
X0007849Y0013014D01*
X0007957Y0013121D01*
X0008109Y0013121D01*
X0008217Y0013014D01*
X0008217Y0012861D01*
X0008109Y0012754D01*
X0007957Y0012754D01*
X0007849Y0012861D01*
X0007849Y0013014D01*
G37*
%LPD*%
%LPC*%
G36*
X0006929Y0014754D02*
X0006929Y0014754D01*
X0007037Y0014861D01*
X0007189Y0014861D01*
X0007297Y0014754D01*
X0007297Y0014601D01*
X0007189Y0014494D01*
X0007037Y0014494D01*
X0006929Y0014601D01*
X0006929Y0014754D01*
G37*
%LPD*%
%LPC*%
G36*
X0006899Y0012294D02*
X0006899Y0012294D01*
X0007007Y0012401D01*
X0007159Y0012401D01*
X0007267Y0012294D01*
X0007267Y0012141D01*
X0007159Y0012034D01*
X0007007Y0012034D01*
X0006899Y0012141D01*
X0006899Y0012294D01*
G37*
%LPD*%
%LPC*%
G36*
X0006609Y0010964D02*
X0006609Y0010964D01*
X0006717Y0011071D01*
X0006869Y0011071D01*
X0006977Y0010964D01*
X0006977Y0010811D01*
X0006869Y0010704D01*
X0006717Y0010704D01*
X0006609Y0010811D01*
X0006609Y0010964D01*
G37*
%LPD*%
%LPC*%
G36*
X0006439Y0011414D02*
X0006439Y0011414D01*
X0006547Y0011521D01*
X0006699Y0011521D01*
X0006807Y0011414D01*
X0006807Y0011261D01*
X0006699Y0011154D01*
X0006547Y0011154D01*
X0006439Y0011261D01*
X0006439Y0011414D01*
G37*
%LPD*%
%LPC*%
G36*
X0006179Y0012693D02*
X0006179Y0012693D01*
X0006287Y0012801D01*
X0006439Y0012801D01*
X0006547Y0012693D01*
X0006547Y0012541D01*
X0006439Y0012433D01*
X0006287Y0012433D01*
X0006179Y0012541D01*
X0006179Y0012693D01*
G37*
%LPD*%
%LPC*%
G36*
X0006159Y0011954D02*
X0006159Y0011954D01*
X0006267Y0012061D01*
X0006419Y0012061D01*
X0006527Y0011954D01*
X0006527Y0011801D01*
X0006419Y0011694D01*
X0006267Y0011694D01*
X0006159Y0011801D01*
X0006159Y0011954D01*
G37*
%LPD*%
%LPC*%
G36*
X0005099Y0011264D02*
X0005099Y0011264D01*
X0005207Y0011371D01*
X0005359Y0011371D01*
X0005467Y0011264D01*
X0005467Y0011111D01*
X0005359Y0011004D01*
X0005207Y0011004D01*
X0005099Y0011111D01*
X0005099Y0011264D01*
G37*
%LPD*%
%LPC*%
G36*
X0005089Y0010504D02*
X0005089Y0010504D01*
X0005197Y0010611D01*
X0005349Y0010611D01*
X0005457Y0010504D01*
X0005457Y0010351D01*
X0005349Y0010244D01*
X0005197Y0010244D01*
X0005089Y0010351D01*
X0005089Y0010504D01*
G37*
%LPD*%
D29*
X0007474Y0009394D02*
X0007474Y0009397D01*
X0007474Y0009401D01*
X0007473Y0009405D01*
X0007473Y0009408D01*
X0007472Y0009412D01*
X0007471Y0009415D01*
X0007470Y0009418D01*
X0007469Y0009422D01*
X0007468Y0009425D01*
X0007467Y0009428D01*
X0007465Y0009432D01*
X0007463Y0009435D01*
X0007462Y0009438D01*
X0007460Y0009441D01*
X0007458Y0009444D01*
X0007456Y0009446D01*
X0007453Y0009449D01*
X0007451Y0009452D01*
X0007448Y0009454D01*
X0007446Y0009457D01*
X0007443Y0009459D01*
X0007440Y0009461D01*
X0007437Y0009463D01*
X0007434Y0009465D01*
X0007431Y0009467D01*
X0007428Y0009468D01*
X0007425Y0009470D01*
X0007422Y0009471D01*
X0007418Y0009473D01*
X0007415Y0009474D01*
X0007412Y0009475D01*
X0007408Y0009475D01*
X0007405Y0009476D01*
X0007401Y0009477D01*
X0007398Y0009477D01*
X0007394Y0009477D01*
X0007391Y0009477D01*
X0007387Y0009477D01*
X0007382Y0009477D01*
X0007378Y0009477D01*
X0007374Y0009476D01*
X0007370Y0009475D01*
X0007366Y0009475D01*
X0007362Y0009474D01*
X0007358Y0009472D01*
X0007355Y0009471D01*
X0007351Y0009470D01*
X0007347Y0009468D01*
X0007343Y0009466D01*
X0007340Y0009465D01*
X0007336Y0009462D01*
X0007333Y0009460D01*
X0007329Y0009458D01*
X0007326Y0009456D01*
X0007323Y0009453D01*
X0007320Y0009450D01*
X0007317Y0009448D01*
X0007314Y0009445D01*
X0007311Y0009442D01*
X0007308Y0009439D01*
X0007306Y0009436D01*
X0007303Y0009432D01*
X0007301Y0009429D01*
X0007299Y0009425D01*
X0007297Y0009422D01*
X0007295Y0009418D01*
X0007293Y0009415D01*
X0007292Y0009411D01*
X0007290Y0009407D01*
X0007289Y0009403D01*
X0007446Y0009329D02*
X0007449Y0009332D01*
X0007451Y0009334D01*
X0007454Y0009337D01*
X0007456Y0009340D01*
X0007458Y0009343D01*
X0007460Y0009346D01*
X0007462Y0009349D01*
X0007464Y0009352D01*
X0007465Y0009355D01*
X0007467Y0009359D01*
X0007468Y0009362D01*
X0007469Y0009365D01*
X0007470Y0009369D01*
X0007471Y0009372D01*
X0007472Y0009376D01*
X0007473Y0009380D01*
X0007473Y0009383D01*
X0007474Y0009387D01*
X0007474Y0009390D01*
X0007474Y0009394D01*
X0007446Y0009329D02*
X0007289Y0009144D01*
X0007474Y0009144D01*
D30*
X0011353Y0010448D03*
X0011773Y0010868D03*
X0012809Y0009956D03*
X0013859Y0008976D03*
X0013399Y0008976D03*
X0012006Y0009839D03*
X0013890Y0009601D03*
X0012935Y0012542D03*
X0013886Y0012545D03*
X0011226Y0012655D03*
X0011436Y0012155D03*
X0012476Y0013275D03*
X0010616Y0012995D03*
X0009166Y0012985D03*
X0009856Y0012175D03*
X0008568Y0010428D03*
X0009078Y0010448D03*
X0007488Y0013224D03*
X0007468Y0011744D03*
X0007498Y0010614D03*
X0005861Y0014462D03*
X0006481Y0013982D03*
X0013583Y0014170D03*
X0012933Y0013460D03*
X0013863Y0013440D03*
X0013045Y0012102D03*
X0013096Y0015032D03*
X0015203Y0012655D03*
X0015213Y0011515D03*
X0013063Y0011255D03*
X0012443Y0011565D03*
X0013913Y0010925D03*
X0003845Y0008941D03*
X0004199Y0008911D03*
X0003805Y0009304D03*
X0003849Y0015453D03*
X0004173Y0015513D03*
X0003779Y0015120D03*
X0015205Y0015517D03*
X0015205Y0015123D03*
X0014812Y0015517D03*
X0015204Y0008911D03*
X0014811Y0008911D03*
X0015204Y0009304D03*
X0015197Y0013324D03*
X0014457Y0013324D03*
X0014457Y0012654D03*
X0009876Y0013515D03*
X0009030Y0008976D03*
X0010660Y0009036D03*
X0008890Y0015456D03*
X0010590Y0015466D03*
X0005829Y0009973D03*
X0006509Y0010443D03*
X0011004Y0009209D03*
X0010600Y0011501D03*
X0008472Y0012726D03*
X0035826Y0011417D03*
X0016141Y0011417D03*
X0006483Y0013198D03*
X0005263Y0013178D03*
X0007083Y0012218D03*
X0008033Y0012938D03*
X0008052Y0010413D03*
X0011243Y0011578D03*
X0011183Y0014038D03*
X0006623Y0011338D03*
X0005283Y0011188D03*
X0009053Y0011238D03*
X0007113Y0014678D03*
X0006763Y0012938D03*
X0006593Y0013568D03*
X0008713Y0012338D03*
X0006793Y0010888D03*
X0005163Y0013578D03*
X0016141Y0012992D03*
X0020472Y0012992D03*
X0006363Y0012617D03*
X0010913Y0011228D03*
X0006343Y0011878D03*
X0005333Y0012138D03*
X0005313Y0011698D03*
X0005273Y0010428D03*
D31*
X0007106Y0008956D02*
X0007657Y0008956D01*
X0007657Y0009665D01*
X0007106Y0009665D01*
X0007106Y0008956D01*
M02*