%
M48
METRIC,000.000
T01C0.50
%
T01
X086863Y094750
X087863Y094750
X088863Y094750
X089863Y094750
X090863Y094750
X090926Y091250
X089926Y091250
X088926Y091250
X087926Y091250
X086926Y091250
X010944Y077750
X011944Y077750
X012944Y077750
X013944Y077750
X014944Y077750
X015188Y074250
X014188Y074250
X013188Y074250
X012188Y074250
X011188Y074250
X010884Y055750
X011884Y055750
X012884Y055750
X013884Y055750
X014884Y055750
X014987Y052250
X013987Y052250
X012987Y052250
X011987Y052250
X010987Y052250
X086939Y060750
X087939Y060750
X088939Y060750
X089939Y060750
X090939Y060750
X090926Y057250
X089926Y057250
X088926Y057250
X087926Y057250
X086926Y057250
X086884Y072750
X087884Y072750
X088884Y072750
X089884Y072750
X090884Y072750
X091128Y069250
X090128Y069250
X089128Y069250
X088128Y069250
X087128Y069250
X086884Y038750
X087884Y038750
X088884Y038750
X089884Y038750
X090884Y038750
X091128Y035250
X090128Y035250
X089128Y035250
X088128Y035250
X087128Y035250
X010944Y043750
X011944Y043750
X012944Y043750
X013944Y043750
X014944Y043750
X015188Y040250
X014188Y040250
X013188Y040250
X012188Y040250
X011188Y040250
X015068Y018250
X014068Y018250
X013068Y018250
X012068Y018250
X011068Y018250
X010884Y021750
X011884Y021750
X012884Y021750
X013884Y021750
X014884Y021750
X063863Y094750
X064863Y094750
X065863Y094750
X066863Y094750
X067863Y094750
X067926Y091250
X066926Y091250
X065926Y091250
X064926Y091250
X063927Y091239
X063888Y072776
X064884Y072750
X065884Y072750
X066884Y072750
X067884Y072750
X068128Y069250
X067128Y069250
X066128Y069250
X065128Y069250
X064128Y069250
X031944Y077750
X032944Y077750
X033944Y077750
X034944Y077750
X035944Y077750
X036188Y074250
X035188Y074250
X034188Y074250
X033188Y074250
X032188Y074250
X031884Y055750
X032884Y055750
X033884Y055750
X034884Y055750
X035884Y055750
X035987Y052250
X034987Y052250
X033987Y052250
X032987Y052250
X031987Y052250
X063939Y060750
X064939Y060750
X065939Y060750
X066939Y060750
X067939Y060750
X067926Y057250
X066926Y057250
X065926Y057250
X064926Y057250
X063927Y057239
X031944Y043750
X032944Y043750
X033944Y043750
X034944Y043750
X035944Y043750
X036188Y040250
X035188Y040250
X034188Y040250
X033188Y040250
X032188Y040250
X036068Y018250
X035068Y018250
X034068Y018250
X033068Y018250
X032068Y018250
X031884Y021750
X032884Y021750
X033884Y021750
X034884Y021750
X035884Y021750
X063888Y038776
X064884Y038750
X065884Y038750
X066884Y038750
X067884Y038750
X068128Y035250
X067128Y035250
X066128Y035250
X065128Y035250
X064128Y035250
X091068Y018250
X090068Y018250
X089068Y018250
X088068Y018250
X087068Y018250
X086068Y018250
X085068Y018250
X084068Y018250
X083068Y018250
X084939Y026750
X085939Y026750
X086939Y026750
X087939Y026750
X088939Y026750
X089939Y026750
X009863Y094750
X010863Y094750
X011863Y094750
X012863Y094750
X013863Y094750
X014863Y094750
X015863Y094750
X016863Y094750
X017863Y094750
X015987Y086250
X014987Y086250
X013987Y086250
X012987Y086250
X011987Y086250
M30