%MOIN*%
%OFA0B0*%
%FSLAX34Y34*%
%IPPOS*%
%LPD*%
%AMOC8*
5,1,8,0,0,$1,22.5*%
%AMOC80*
5,1,8,0,0,$1,22.5*%
%AMOC81*
5,1,8,0,0,$1,112.5*%
%AMOC80*
5,1,8,0,0,$1,-67.5*%
%AMOC81*
5,1,8,0,0,$1,112.5*%
%AMOC80*
5,1,8,0,0,$1,-67.5*%
%ADD10C,0.090677165354330708*%
%ADD11R,0.059181102362204731X0.019811023622047244*%
%ADD12R,0.1064251968503937X0.086740157480314953*%
%ADD13R,0.12204724409448819X0.062992125984251982*%
%ADD14C,0.090677165354330708*%
%ADD15R,0.059181102362204731X0.019811023622047244*%
%ADD16R,0.1064251968503937X0.086740157480314953*%
%ADD17R,0.12204724409448819X0.062992125984251982*%
%ADD18C,0.090677165354330708*%
%ADD19R,0.059181102362204731X0.019811023622047244*%
%ADD20R,0.1064251968503937X0.086740157480314953*%
%ADD21R,0.12204724409448819X0.062992125984251982*%
%ADD22C,0.090677165354330708*%
%ADD23R,0.059181102362204731X0.019811023622047244*%
%ADD24R,0.1064251968503937X0.086740157480314953*%
%ADD25R,0.12204724409448819X0.062992125984251982*%
G75*
G01*
G04 next file*
G04 EAGLE Gerber RS-274X export*
G75*
G01*
G04 next file*
G04 EAGLE Gerber RS-274X export*
G75*
G01*
G36*
X0005344Y0033859D02*
X0005344Y0033859D01*
X0005344Y0033859D01*
X0005344Y0033863D01*
X0005343Y0033867D01*
X0005342Y0033868D01*
X0005342Y0033869D01*
X0005340Y0033872D01*
X0005338Y0033876D01*
X0005338Y0033876D01*
X0005337Y0033877D01*
X0005334Y0033880D01*
X0005331Y0033883D01*
X0005331Y0033883D01*
X0005330Y0033883D01*
X0005326Y0033885D01*
X0005322Y0033887D01*
X0005322Y0033887D01*
X0005321Y0033887D01*
X0005314Y0033888D01*
X0004133Y0033888D01*
X0004133Y0033888D01*
X0004132Y0033888D01*
X0004128Y0033887D01*
X0004124Y0033886D01*
X0004123Y0033886D01*
X0004122Y0033886D01*
X0004119Y0033884D01*
X0004115Y0033882D01*
X0004115Y0033881D01*
X0004114Y0033881D01*
X0004111Y0033878D01*
X0004109Y0033875D01*
X0004108Y0033874D01*
X0004108Y0033873D01*
X0004106Y0033870D01*
X0004104Y0033866D01*
X0004104Y0033865D01*
X0004104Y0033864D01*
X0004103Y0033858D01*
X0004103Y0031850D01*
X0004103Y0031849D01*
X0004103Y0031848D01*
X0004104Y0031844D01*
X0004105Y0031840D01*
X0004105Y0031840D01*
X0004105Y0031839D01*
X0004108Y0031835D01*
X0004110Y0031832D01*
X0004110Y0031831D01*
X0004110Y0031831D01*
X0004114Y0031828D01*
X0004117Y0031825D01*
X0004117Y0031825D01*
X0004118Y0031824D01*
X0004122Y0031823D01*
X0004125Y0031821D01*
X0004126Y0031821D01*
X0004127Y0031821D01*
X0004133Y0031820D01*
X0005314Y0031820D01*
X0005315Y0031820D01*
X0005316Y0031820D01*
X0005320Y0031821D01*
X0005324Y0031822D01*
X0005325Y0031822D01*
X0005325Y0031822D01*
X0005329Y0031824D01*
X0005333Y0031826D01*
X0005333Y0031827D01*
X0005334Y0031827D01*
X0005336Y0031830D01*
X0005339Y0031833D01*
X0005340Y0031834D01*
X0005340Y0031834D01*
X0005342Y0031838D01*
X0005343Y0031842D01*
X0005343Y0031843D01*
X0005344Y0031843D01*
X0005344Y0031850D01*
X0005344Y0033858D01*
X0005344Y0033859D01*
G37*
G36*
X0020699Y0032717D02*
X0020699Y0032717D01*
X0020699Y0032718D01*
X0020698Y0032722D01*
X0020697Y0032726D01*
X0020697Y0032726D01*
X0020697Y0032727D01*
X0020695Y0032731D01*
X0020693Y0032734D01*
X0020692Y0032735D01*
X0020692Y0032735D01*
X0020689Y0032738D01*
X0020686Y0032741D01*
X0020685Y0032741D01*
X0020684Y0032742D01*
X0020681Y0032743D01*
X0020677Y0032745D01*
X0020676Y0032745D01*
X0020675Y0032745D01*
X0020669Y0032746D01*
X0019488Y0032746D01*
X0019487Y0032746D01*
X0019486Y0032746D01*
X0019482Y0032745D01*
X0019478Y0032744D01*
X0019477Y0032744D01*
X0019477Y0032744D01*
X0019473Y0032742D01*
X0019470Y0032740D01*
X0019469Y0032739D01*
X0019468Y0032739D01*
X0019466Y0032736D01*
X0019463Y0032733D01*
X0019463Y0032732D01*
X0019462Y0032732D01*
X0019461Y0032728D01*
X0019459Y0032724D01*
X0019459Y0032723D01*
X0019458Y0032723D01*
X0019458Y0032716D01*
X0019458Y0030708D01*
X0019458Y0030707D01*
X0019458Y0030707D01*
X0019459Y0030703D01*
X0019459Y0030699D01*
X0019460Y0030698D01*
X0019460Y0030697D01*
X0019462Y0030694D01*
X0019464Y0030690D01*
X0019464Y0030690D01*
X0019465Y0030689D01*
X0019468Y0030686D01*
X0019471Y0030683D01*
X0019472Y0030683D01*
X0019472Y0030683D01*
X0019476Y0030681D01*
X0019480Y0030679D01*
X0019480Y0030679D01*
X0019481Y0030679D01*
X0019488Y0030678D01*
X0020669Y0030678D01*
X0020670Y0030678D01*
X0020670Y0030678D01*
X0020674Y0030679D01*
X0020678Y0030680D01*
X0020679Y0030680D01*
X0020680Y0030680D01*
X0020683Y0030682D01*
X0020687Y0030684D01*
X0020687Y0030685D01*
X0020688Y0030685D01*
X0020691Y0030688D01*
X0020694Y0030691D01*
X0020694Y0030692D01*
X0020694Y0030693D01*
X0020696Y0030696D01*
X0020698Y0030700D01*
X0020698Y0030701D01*
X0020698Y0030702D01*
X0020699Y0030708D01*
X0020699Y0032716D01*
X0020699Y0032717D01*
G37*
G36*
X0034074Y0035590D02*
X0034074Y0035590D01*
X0034074Y0035591D01*
X0034073Y0035594D01*
X0034073Y0035598D01*
X0034073Y0035598D01*
X0034072Y0035598D01*
X0034070Y0035601D01*
X0034068Y0035604D01*
X0034068Y0035604D01*
X0034068Y0035605D01*
X0034065Y0035606D01*
X0034062Y0035608D01*
X0034061Y0035608D01*
X0034061Y0035609D01*
X0034055Y0035610D01*
X0031771Y0035610D01*
X0031771Y0035610D01*
X0031770Y0035610D01*
X0031767Y0035609D01*
X0031763Y0035608D01*
X0031763Y0035608D01*
X0031763Y0035608D01*
X0031760Y0035606D01*
X0031757Y0035604D01*
X0031757Y0035603D01*
X0031757Y0035603D01*
X0031755Y0035600D01*
X0031753Y0035597D01*
X0031753Y0035597D01*
X0031753Y0035597D01*
X0031752Y0035590D01*
X0031752Y0034763D01*
X0031752Y0034763D01*
X0031752Y0034763D01*
X0031752Y0034759D01*
X0031753Y0034756D01*
X0031753Y0034755D01*
X0031753Y0034755D01*
X0031755Y0034752D01*
X0031757Y0034749D01*
X0031758Y0034749D01*
X0031758Y0034749D01*
X0031761Y0034747D01*
X0031764Y0034745D01*
X0031764Y0034745D01*
X0031765Y0034745D01*
X0031771Y0034744D01*
X0034055Y0034744D01*
X0034055Y0034744D01*
X0034055Y0034744D01*
X0034059Y0034744D01*
X0034062Y0034745D01*
X0034063Y0034745D01*
X0034063Y0034745D01*
X0034066Y0034748D01*
X0034069Y0034750D01*
X0034069Y0034750D01*
X0034069Y0034750D01*
X0034071Y0034753D01*
X0034073Y0034756D01*
X0034073Y0034757D01*
X0034073Y0034757D01*
X0034074Y0034763D01*
X0034074Y0035590D01*
X0034074Y0035590D01*
G37*
D10*
X0030708Y0029724D03*
X0030708Y0034842D03*
D11*
X0034704Y0034055D03*
X0034704Y0033661D03*
X0034704Y0033267D03*
X0034704Y0032874D03*
X0034704Y0032480D03*
X0034704Y0032086D03*
X0034704Y0031692D03*
X0034704Y0031299D03*
X0034704Y0030905D03*
X0034704Y0030511D03*
D12*
X0035728Y0029665D03*
X0035728Y0034901D03*
D13*
X0004724Y0033070D03*
X0020078Y0031496D03*
G04 next file*
G04 EAGLE Gerber RS-274X export*
G75*
G01*
G36*
X0034812Y0024014D02*
X0034812Y0024014D01*
X0034812Y0024014D01*
X0034813Y0024010D01*
X0034814Y0024006D01*
X0034814Y0024005D01*
X0034814Y0024004D01*
X0034816Y0024001D01*
X0034818Y0023997D01*
X0034819Y0023997D01*
X0034819Y0023996D01*
X0034822Y0023993D01*
X0034825Y0023990D01*
X0034826Y0023990D01*
X0034826Y0023990D01*
X0034830Y0023988D01*
X0034834Y0023986D01*
X0034835Y0023986D01*
X0034835Y0023986D01*
X0034842Y0023985D01*
X0036023Y0023985D01*
X0036024Y0023985D01*
X0036025Y0023985D01*
X0036029Y0023986D01*
X0036033Y0023987D01*
X0036033Y0023987D01*
X0036034Y0023987D01*
X0036038Y0023989D01*
X0036041Y0023991D01*
X0036042Y0023992D01*
X0036042Y0023992D01*
X0036045Y0023995D01*
X0036048Y0023998D01*
X0036048Y0023999D01*
X0036049Y0024000D01*
X0036050Y0024003D01*
X0036052Y0024007D01*
X0036052Y0024008D01*
X0036052Y0024009D01*
X0036053Y0024015D01*
X0036053Y0026023D01*
X0036053Y0026024D01*
X0036053Y0026025D01*
X0036052Y0026029D01*
X0036052Y0026033D01*
X0036051Y0026033D01*
X0036051Y0026034D01*
X0036049Y0026038D01*
X0036047Y0026041D01*
X0036046Y0026042D01*
X0036046Y0026042D01*
X0036043Y0026045D01*
X0036040Y0026048D01*
X0036039Y0026048D01*
X0036039Y0026049D01*
X0036035Y0026050D01*
X0036031Y0026052D01*
X0036030Y0026052D01*
X0036030Y0026052D01*
X0036023Y0026053D01*
X0034842Y0026053D01*
X0034841Y0026053D01*
X0034840Y0026053D01*
X0034836Y0026052D01*
X0034832Y0026052D01*
X0034832Y0026051D01*
X0034831Y0026051D01*
X0034827Y0026049D01*
X0034824Y0026047D01*
X0034823Y0026046D01*
X0034823Y0026046D01*
X0034820Y0026043D01*
X0034817Y0026040D01*
X0034817Y0026039D01*
X0034816Y0026039D01*
X0034815Y0026035D01*
X0034813Y0026031D01*
X0034813Y0026030D01*
X0034813Y0026030D01*
X0034812Y0026023D01*
X0034812Y0024015D01*
X0034812Y0024014D01*
G37*
G36*
X0019458Y0025156D02*
X0019458Y0025156D01*
X0019458Y0025155D01*
X0019459Y0025151D01*
X0019459Y0025147D01*
X0019460Y0025147D01*
X0019460Y0025146D01*
X0019462Y0025142D01*
X0019464Y0025139D01*
X0019464Y0025138D01*
X0019465Y0025138D01*
X0019468Y0025135D01*
X0019471Y0025132D01*
X0019472Y0025132D01*
X0019472Y0025131D01*
X0019476Y0025130D01*
X0019480Y0025128D01*
X0019480Y0025128D01*
X0019481Y0025128D01*
X0019488Y0025127D01*
X0020669Y0025127D01*
X0020670Y0025127D01*
X0020670Y0025127D01*
X0020674Y0025128D01*
X0020678Y0025129D01*
X0020679Y0025129D01*
X0020680Y0025129D01*
X0020683Y0025131D01*
X0020687Y0025133D01*
X0020687Y0025134D01*
X0020688Y0025134D01*
X0020691Y0025137D01*
X0020694Y0025140D01*
X0020694Y0025141D01*
X0020694Y0025141D01*
X0020696Y0025145D01*
X0020698Y0025149D01*
X0020698Y0025150D01*
X0020698Y0025150D01*
X0020699Y0025157D01*
X0020699Y0027165D01*
X0020699Y0027166D01*
X0020699Y0027166D01*
X0020698Y0027170D01*
X0020697Y0027174D01*
X0020697Y0027175D01*
X0020697Y0027176D01*
X0020695Y0027179D01*
X0020693Y0027183D01*
X0020692Y0027184D01*
X0020692Y0027184D01*
X0020689Y0027187D01*
X0020686Y0027190D01*
X0020685Y0027190D01*
X0020684Y0027190D01*
X0020681Y0027192D01*
X0020677Y0027194D01*
X0020676Y0027194D01*
X0020675Y0027194D01*
X0020669Y0027195D01*
X0019488Y0027195D01*
X0019487Y0027195D01*
X0019486Y0027195D01*
X0019482Y0027194D01*
X0019478Y0027193D01*
X0019477Y0027193D01*
X0019477Y0027193D01*
X0019473Y0027191D01*
X0019470Y0027189D01*
X0019469Y0027188D01*
X0019468Y0027188D01*
X0019466Y0027185D01*
X0019463Y0027182D01*
X0019463Y0027181D01*
X0019462Y0027180D01*
X0019461Y0027177D01*
X0019459Y0027173D01*
X0019459Y0027172D01*
X0019458Y0027171D01*
X0019458Y0027165D01*
X0019458Y0025157D01*
X0019458Y0025156D01*
G37*
G36*
X0006082Y0022283D02*
X0006082Y0022283D01*
X0006082Y0022282D01*
X0006083Y0022279D01*
X0006084Y0022275D01*
X0006084Y0022275D01*
X0006084Y0022275D01*
X0006086Y0022272D01*
X0006088Y0022269D01*
X0006088Y0022269D01*
X0006089Y0022268D01*
X0006092Y0022267D01*
X0006095Y0022265D01*
X0006095Y0022265D01*
X0006095Y0022264D01*
X0006102Y0022263D01*
X0008385Y0022263D01*
X0008386Y0022263D01*
X0008386Y0022263D01*
X0008389Y0022264D01*
X0008393Y0022265D01*
X0008393Y0022265D01*
X0008394Y0022265D01*
X0008396Y0022267D01*
X0008399Y0022269D01*
X0008400Y0022270D01*
X0008400Y0022270D01*
X0008402Y0022273D01*
X0008404Y0022276D01*
X0008404Y0022276D01*
X0008404Y0022277D01*
X0008405Y0022283D01*
X0008405Y0023110D01*
X0008405Y0023110D01*
X0008405Y0023110D01*
X0008404Y0023114D01*
X0008403Y0023117D01*
X0008403Y0023118D01*
X0008403Y0023118D01*
X0008401Y0023121D01*
X0008399Y0023124D01*
X0008399Y0023124D01*
X0008399Y0023124D01*
X0008395Y0023126D01*
X0008392Y0023128D01*
X0008392Y0023128D01*
X0008392Y0023128D01*
X0008385Y0023129D01*
X0006102Y0023129D01*
X0006102Y0023129D01*
X0006101Y0023129D01*
X0006098Y0023129D01*
X0006094Y0023128D01*
X0006094Y0023128D01*
X0006094Y0023128D01*
X0006091Y0023125D01*
X0006088Y0023123D01*
X0006088Y0023123D01*
X0006087Y0023123D01*
X0006085Y0023120D01*
X0006084Y0023117D01*
X0006083Y0023116D01*
X0006083Y0023116D01*
X0006082Y0023110D01*
X0006082Y0022283D01*
X0006082Y0022283D01*
G37*
D14*
X0009448Y0028149D03*
X0009448Y0023031D03*
D15*
X0005452Y0023818D03*
X0005452Y0024212D03*
X0005452Y0024606D03*
X0005452Y0025000D03*
X0005452Y0025393D03*
X0005452Y0025787D03*
X0005452Y0026181D03*
X0005452Y0026574D03*
X0005452Y0026968D03*
X0005452Y0027362D03*
D16*
X0004429Y0028208D03*
X0004429Y0022972D03*
D17*
X0035433Y0024803D03*
X0020078Y0026377D03*
G04 next file*
G04 EAGLE Gerber RS-274X export*
G75*
G01*
G36*
X0005344Y0020473D02*
X0005344Y0020473D01*
X0005344Y0020473D01*
X0005344Y0020477D01*
X0005343Y0020482D01*
X0005342Y0020482D01*
X0005342Y0020483D01*
X0005340Y0020486D01*
X0005338Y0020490D01*
X0005338Y0020491D01*
X0005337Y0020491D01*
X0005334Y0020494D01*
X0005331Y0020497D01*
X0005331Y0020497D01*
X0005330Y0020498D01*
X0005326Y0020499D01*
X0005322Y0020501D01*
X0005322Y0020501D01*
X0005321Y0020501D01*
X0005314Y0020502D01*
X0004133Y0020502D01*
X0004133Y0020502D01*
X0004132Y0020502D01*
X0004128Y0020501D01*
X0004124Y0020500D01*
X0004123Y0020500D01*
X0004122Y0020500D01*
X0004119Y0020498D01*
X0004115Y0020496D01*
X0004115Y0020495D01*
X0004114Y0020495D01*
X0004111Y0020492D01*
X0004109Y0020489D01*
X0004108Y0020488D01*
X0004108Y0020487D01*
X0004106Y0020484D01*
X0004104Y0020480D01*
X0004104Y0020479D01*
X0004104Y0020479D01*
X0004103Y0020472D01*
X0004103Y0018464D01*
X0004103Y0018463D01*
X0004103Y0018463D01*
X0004104Y0018459D01*
X0004105Y0018455D01*
X0004105Y0018454D01*
X0004105Y0018453D01*
X0004108Y0018450D01*
X0004110Y0018446D01*
X0004110Y0018445D01*
X0004110Y0018445D01*
X0004114Y0018442D01*
X0004117Y0018439D01*
X0004117Y0018439D01*
X0004118Y0018438D01*
X0004122Y0018437D01*
X0004125Y0018435D01*
X0004126Y0018435D01*
X0004127Y0018435D01*
X0004133Y0018434D01*
X0005314Y0018434D01*
X0005315Y0018434D01*
X0005316Y0018434D01*
X0005320Y0018435D01*
X0005324Y0018436D01*
X0005325Y0018436D01*
X0005325Y0018436D01*
X0005329Y0018438D01*
X0005333Y0018440D01*
X0005333Y0018441D01*
X0005334Y0018441D01*
X0005336Y0018444D01*
X0005339Y0018447D01*
X0005340Y0018448D01*
X0005340Y0018449D01*
X0005342Y0018452D01*
X0005343Y0018456D01*
X0005343Y0018457D01*
X0005344Y0018457D01*
X0005344Y0018464D01*
X0005344Y0020472D01*
X0005344Y0020473D01*
G37*
G36*
X0020699Y0019331D02*
X0020699Y0019331D01*
X0020699Y0019332D01*
X0020698Y0019336D01*
X0020697Y0019340D01*
X0020697Y0019340D01*
X0020697Y0019341D01*
X0020695Y0019345D01*
X0020693Y0019348D01*
X0020692Y0019349D01*
X0020692Y0019350D01*
X0020689Y0019352D01*
X0020686Y0019355D01*
X0020685Y0019355D01*
X0020684Y0019356D01*
X0020681Y0019357D01*
X0020677Y0019359D01*
X0020676Y0019359D01*
X0020675Y0019359D01*
X0020669Y0019360D01*
X0019488Y0019360D01*
X0019487Y0019360D01*
X0019486Y0019360D01*
X0019482Y0019359D01*
X0019478Y0019359D01*
X0019477Y0019358D01*
X0019477Y0019358D01*
X0019473Y0019356D01*
X0019470Y0019354D01*
X0019469Y0019354D01*
X0019468Y0019353D01*
X0019466Y0019350D01*
X0019463Y0019347D01*
X0019463Y0019346D01*
X0019462Y0019346D01*
X0019461Y0019342D01*
X0019459Y0019338D01*
X0019459Y0019337D01*
X0019458Y0019337D01*
X0019458Y0019330D01*
X0019458Y0017322D01*
X0019458Y0017322D01*
X0019458Y0017321D01*
X0019459Y0017317D01*
X0019459Y0017313D01*
X0019460Y0017312D01*
X0019460Y0017311D01*
X0019462Y0017308D01*
X0019464Y0017304D01*
X0019464Y0017304D01*
X0019465Y0017303D01*
X0019468Y0017300D01*
X0019471Y0017298D01*
X0019472Y0017297D01*
X0019472Y0017297D01*
X0019476Y0017295D01*
X0019480Y0017293D01*
X0019480Y0017293D01*
X0019481Y0017293D01*
X0019488Y0017292D01*
X0020669Y0017292D01*
X0020670Y0017292D01*
X0020670Y0017292D01*
X0020674Y0017293D01*
X0020678Y0017294D01*
X0020679Y0017294D01*
X0020680Y0017294D01*
X0020683Y0017297D01*
X0020687Y0017298D01*
X0020687Y0017299D01*
X0020688Y0017299D01*
X0020691Y0017303D01*
X0020694Y0017305D01*
X0020694Y0017306D01*
X0020694Y0017307D01*
X0020696Y0017311D01*
X0020698Y0017314D01*
X0020698Y0017315D01*
X0020698Y0017316D01*
X0020699Y0017322D01*
X0020699Y0019330D01*
X0020699Y0019331D01*
G37*
G36*
X0034074Y0022205D02*
X0034074Y0022205D01*
X0034074Y0022205D01*
X0034073Y0022208D01*
X0034073Y0022212D01*
X0034073Y0022212D01*
X0034072Y0022212D01*
X0034070Y0022215D01*
X0034068Y0022218D01*
X0034068Y0022219D01*
X0034068Y0022219D01*
X0034065Y0022221D01*
X0034062Y0022223D01*
X0034061Y0022223D01*
X0034061Y0022223D01*
X0034055Y0022224D01*
X0031771Y0022224D01*
X0031771Y0022224D01*
X0031770Y0022224D01*
X0031767Y0022223D01*
X0031763Y0022222D01*
X0031763Y0022222D01*
X0031763Y0022222D01*
X0031760Y0022220D01*
X0031757Y0022218D01*
X0031757Y0022218D01*
X0031757Y0022217D01*
X0031755Y0022214D01*
X0031753Y0022211D01*
X0031753Y0022211D01*
X0031753Y0022211D01*
X0031752Y0022204D01*
X0031752Y0021377D01*
X0031752Y0021377D01*
X0031752Y0021377D01*
X0031752Y0021373D01*
X0031753Y0021370D01*
X0031753Y0021370D01*
X0031753Y0021369D01*
X0031755Y0021366D01*
X0031757Y0021363D01*
X0031758Y0021363D01*
X0031758Y0021363D01*
X0031761Y0021361D01*
X0031764Y0021359D01*
X0031764Y0021359D01*
X0031765Y0021359D01*
X0031771Y0021358D01*
X0034055Y0021358D01*
X0034055Y0021358D01*
X0034055Y0021358D01*
X0034059Y0021359D01*
X0034062Y0021359D01*
X0034063Y0021360D01*
X0034063Y0021360D01*
X0034066Y0021362D01*
X0034069Y0021364D01*
X0034069Y0021364D01*
X0034069Y0021364D01*
X0034071Y0021367D01*
X0034073Y0021370D01*
X0034073Y0021371D01*
X0034073Y0021371D01*
X0034074Y0021377D01*
X0034074Y0022204D01*
X0034074Y0022205D01*
G37*
D18*
X0030708Y0016338D03*
X0030708Y0021456D03*
D19*
X0034704Y0020669D03*
X0034704Y0020275D03*
X0034704Y0019881D03*
X0034704Y0019488D03*
X0034704Y0019094D03*
X0034704Y0018700D03*
X0034704Y0018307D03*
X0034704Y0017913D03*
X0034704Y0017519D03*
X0034704Y0017125D03*
D20*
X0035728Y0016279D03*
X0035728Y0021515D03*
D21*
X0004724Y0019685D03*
X0020078Y0018110D03*
G04 next file*
G04 EAGLE Gerber RS-274X export*
G75*
G01*
G36*
X0035206Y0010629D02*
X0035206Y0010629D01*
X0035206Y0010628D01*
X0035207Y0010624D01*
X0035207Y0010620D01*
X0035208Y0010619D01*
X0035208Y0010618D01*
X0035210Y0010615D01*
X0035212Y0010611D01*
X0035212Y0010611D01*
X0035213Y0010610D01*
X0035216Y0010607D01*
X0035219Y0010605D01*
X0035220Y0010604D01*
X0035220Y0010604D01*
X0035224Y0010602D01*
X0035228Y0010601D01*
X0035228Y0010600D01*
X0035229Y0010600D01*
X0035236Y0010599D01*
X0036417Y0010599D01*
X0036418Y0010600D01*
X0036418Y0010600D01*
X0036422Y0010600D01*
X0036426Y0010601D01*
X0036427Y0010601D01*
X0036428Y0010602D01*
X0036431Y0010604D01*
X0036435Y0010606D01*
X0036435Y0010606D01*
X0036436Y0010607D01*
X0036439Y0010610D01*
X0036442Y0010613D01*
X0036442Y0010613D01*
X0036442Y0010614D01*
X0036444Y0010618D01*
X0036446Y0010621D01*
X0036446Y0010622D01*
X0036446Y0010623D01*
X0036447Y0010629D01*
X0036447Y0012637D01*
X0036447Y0012638D01*
X0036447Y0012639D01*
X0036446Y0012643D01*
X0036445Y0012647D01*
X0036445Y0012648D01*
X0036445Y0012648D01*
X0036443Y0012652D01*
X0036441Y0012655D01*
X0036440Y0012656D01*
X0036440Y0012657D01*
X0036437Y0012659D01*
X0036434Y0012662D01*
X0036433Y0012662D01*
X0036432Y0012663D01*
X0036429Y0012664D01*
X0036425Y0012666D01*
X0036424Y0012666D01*
X0036423Y0012667D01*
X0036417Y0012667D01*
X0035236Y0012667D01*
X0035235Y0012667D01*
X0035234Y0012667D01*
X0035230Y0012666D01*
X0035226Y0012666D01*
X0035225Y0012665D01*
X0035225Y0012665D01*
X0035221Y0012663D01*
X0035218Y0012661D01*
X0035217Y0012661D01*
X0035216Y0012660D01*
X0035214Y0012657D01*
X0035211Y0012654D01*
X0035211Y0012653D01*
X0035210Y0012653D01*
X0035209Y0012649D01*
X0035207Y0012645D01*
X0035207Y0012645D01*
X0035206Y0012644D01*
X0035206Y0012637D01*
X0035206Y0010629D01*
X0035206Y0010629D01*
G37*
G36*
X0019852Y0011770D02*
X0019852Y0011770D01*
X0019851Y0011770D01*
X0019852Y0011766D01*
X0019853Y0011762D01*
X0019853Y0011761D01*
X0019854Y0011760D01*
X0019856Y0011757D01*
X0019858Y0011753D01*
X0019858Y0011752D01*
X0019858Y0011752D01*
X0019862Y0011749D01*
X0019865Y0011746D01*
X0019865Y0011746D01*
X0019866Y0011746D01*
X0019870Y0011744D01*
X0019873Y0011742D01*
X0019874Y0011742D01*
X0019875Y0011742D01*
X0019881Y0011741D01*
X0021062Y0011741D01*
X0021063Y0011741D01*
X0021064Y0011741D01*
X0021068Y0011742D01*
X0021072Y0011743D01*
X0021073Y0011743D01*
X0021074Y0011743D01*
X0021077Y0011745D01*
X0021081Y0011747D01*
X0021081Y0011748D01*
X0021082Y0011748D01*
X0021084Y0011751D01*
X0021087Y0011754D01*
X0021088Y0011755D01*
X0021088Y0011756D01*
X0021090Y0011759D01*
X0021091Y0011763D01*
X0021091Y0011764D01*
X0021092Y0011765D01*
X0021092Y0011771D01*
X0021092Y0013779D01*
X0021092Y0013780D01*
X0021092Y0013781D01*
X0021092Y0013785D01*
X0021091Y0013789D01*
X0021091Y0013789D01*
X0021090Y0013790D01*
X0021088Y0013794D01*
X0021086Y0013797D01*
X0021086Y0013798D01*
X0021085Y0013798D01*
X0021082Y0013801D01*
X0021079Y0013804D01*
X0021079Y0013804D01*
X0021078Y0013805D01*
X0021074Y0013806D01*
X0021071Y0013808D01*
X0021070Y0013808D01*
X0021069Y0013808D01*
X0021062Y0013809D01*
X0019881Y0013809D01*
X0019881Y0013809D01*
X0019880Y0013809D01*
X0019876Y0013808D01*
X0019872Y0013807D01*
X0019871Y0013807D01*
X0019870Y0013807D01*
X0019867Y0013805D01*
X0019863Y0013803D01*
X0019863Y0013802D01*
X0019862Y0013802D01*
X0019859Y0013799D01*
X0019857Y0013796D01*
X0019856Y0013795D01*
X0019856Y0013795D01*
X0019854Y0013791D01*
X0019852Y0013787D01*
X0019852Y0013786D01*
X0019852Y0013786D01*
X0019851Y0013779D01*
X0019851Y0011771D01*
X0019852Y0011770D01*
G37*
G36*
X0006476Y0008897D02*
X0006476Y0008897D01*
X0006476Y0008896D01*
X0006477Y0008893D01*
X0006477Y0008889D01*
X0006478Y0008889D01*
X0006478Y0008889D01*
X0006480Y0008886D01*
X0006482Y0008883D01*
X0006482Y0008883D01*
X0006482Y0008883D01*
X0006485Y0008881D01*
X0006488Y0008879D01*
X0006489Y0008879D01*
X0006489Y0008879D01*
X0006496Y0008877D01*
X0008779Y0008877D01*
X0008779Y0008878D01*
X0008780Y0008877D01*
X0008783Y0008878D01*
X0008787Y0008879D01*
X0008787Y0008879D01*
X0008787Y0008879D01*
X0008790Y0008881D01*
X0008793Y0008883D01*
X0008793Y0008884D01*
X0008794Y0008884D01*
X0008795Y0008887D01*
X0008797Y0008890D01*
X0008797Y0008890D01*
X0008798Y0008891D01*
X0008799Y0008897D01*
X0008799Y0009724D01*
X0008799Y0009724D01*
X0008799Y0009725D01*
X0008798Y0009728D01*
X0008797Y0009732D01*
X0008797Y0009732D01*
X0008797Y0009732D01*
X0008795Y0009735D01*
X0008793Y0009738D01*
X0008792Y0009738D01*
X0008792Y0009738D01*
X0008789Y0009740D01*
X0008786Y0009742D01*
X0008786Y0009742D01*
X0008785Y0009742D01*
X0008779Y0009744D01*
X0006496Y0009744D01*
X0006495Y0009744D01*
X0006495Y0009744D01*
X0006491Y0009743D01*
X0006488Y0009742D01*
X0006488Y0009742D01*
X0006487Y0009742D01*
X0006484Y0009740D01*
X0006481Y0009738D01*
X0006481Y0009737D01*
X0006481Y0009737D01*
X0006479Y0009734D01*
X0006477Y0009731D01*
X0006477Y0009731D01*
X0006477Y0009730D01*
X0006476Y0009724D01*
X0006476Y0008897D01*
X0006476Y0008897D01*
G37*
D22*
X0009842Y0014763D03*
X0009842Y0009645D03*
D23*
X0005846Y0010433D03*
X0005846Y0010826D03*
X0005846Y0011220D03*
X0005846Y0011614D03*
X0005846Y0012007D03*
X0005846Y0012401D03*
X0005846Y0012795D03*
X0005846Y0013188D03*
X0005846Y0013582D03*
X0005846Y0013976D03*
D24*
X0004822Y0014822D03*
X0004822Y0009586D03*
D25*
X0035826Y0011417D03*
X0020472Y0012992D03*
M02*