%MOIN*%
%OFA0B0*%
%FSLAX34Y34*%
%IPPOS*%
%LPD*%
%AMOC8*
5,1,8,0,0,$1,22.5*%
%AMOC80*
5,1,8,0,0,$1,22.5*%
%AMOC81*
5,1,8,0,0,$1,112.5*%
%AMOC80*
5,1,8,0,0,$1,-67.5*%
%AMOC81*
5,1,8,0,0,$1,112.5*%
%AMOC80*
5,1,8,0,0,$1,-67.5*%
%ADD10C,0.006000000000000001*%
%ADD11R,0.051181102362204731X0.011811023622047244*%
%ADD12R,0.0984251968503937X0.07874015748031496*%
%ADD13R,0.11811023622047245X0.059055118110236227*%
%ADD14C,0.020669291338582679*%
%ADD15C,0.011811023622047244*%
%ADD16C,0.00984251968503937*%
%ADD17C,0.005905511811023622*%
%ADD18C,0.0078740157480314977*%
%ADD19C,0.006000000000000001*%
%ADD20R,0.051181102362204731X0.011811023622047244*%
%ADD21R,0.0984251968503937X0.07874015748031496*%
%ADD22R,0.11811023622047245X0.059055118110236227*%
%ADD23C,0.020669291338582679*%
%ADD24C,0.011811023622047244*%
%ADD25C,0.00984251968503937*%
%ADD26C,0.005905511811023622*%
%ADD27C,0.0078740157480314977*%
%ADD28C,0.006000000000000001*%
%ADD29R,0.051181102362204731X0.011811023622047244*%
%ADD30R,0.0984251968503937X0.07874015748031496*%
%ADD31R,0.11811023622047245X0.059055118110236227*%
%ADD32C,0.020669291338582679*%
%ADD33C,0.011811023622047244*%
%ADD34C,0.00984251968503937*%
%ADD35C,0.005905511811023622*%
%ADD36C,0.0078740157480314977*%
%ADD37C,0.006000000000000001*%
%ADD38R,0.051181102362204731X0.011811023622047244*%
%ADD39R,0.0984251968503937X0.07874015748031496*%
%ADD40R,0.11811023622047245X0.059055118110236227*%
%ADD41C,0.020669291338582679*%
%ADD42C,0.011811023622047244*%
%ADD43C,0.00984251968503937*%
%ADD44C,0.005905511811023622*%
%ADD45C,0.0078740157480314977*%
G75*
G01*
G04 next file*
G04 EAGLE Gerber RS-274X export*
G75*
G01*
G04 next file*
G04 EAGLE Gerber RS-274X export*
G75*
G01*
G36*
X0036928Y0035433D02*
X0036928Y0035433D01*
X0036928Y0035435D01*
X0036923Y0035491D01*
X0036923Y0035493D01*
X0036923Y0035494D01*
X0036921Y0035500D01*
X0036878Y0035602D01*
X0036877Y0035605D01*
X0036876Y0035607D01*
X0036874Y0035610D01*
X0036873Y0035611D01*
X0036873Y0035611D01*
X0036872Y0035612D01*
X0036793Y0035691D01*
X0036791Y0035692D01*
X0036789Y0035694D01*
X0036786Y0035696D01*
X0036785Y0035696D01*
X0036785Y0035697D01*
X0036784Y0035697D01*
X0036681Y0035740D01*
X0036679Y0035740D01*
X0036678Y0035741D01*
X0036672Y0035742D01*
X0036617Y0035747D01*
X0036616Y0035747D01*
X0036614Y0035747D01*
X0025241Y0035747D01*
X0025237Y0035747D01*
X0025234Y0035747D01*
X0025233Y0035746D01*
X0025232Y0035746D01*
X0025228Y0035744D01*
X0025225Y0035743D01*
X0025224Y0035742D01*
X0025223Y0035741D01*
X0025223Y0035741D01*
X0025220Y0035739D01*
X0025175Y0035694D01*
X0025173Y0035691D01*
X0025171Y0035688D01*
X0025170Y0035687D01*
X0025170Y0035686D01*
X0025169Y0035683D01*
X0025167Y0035679D01*
X0025167Y0035678D01*
X0025167Y0035677D01*
X0025167Y0035676D01*
X0025167Y0035673D01*
X0025167Y0028893D01*
X0025167Y0028889D01*
X0025168Y0028885D01*
X0025168Y0028884D01*
X0025168Y0028883D01*
X0025170Y0028880D01*
X0025172Y0028876D01*
X0025173Y0028875D01*
X0025173Y0028875D01*
X0025174Y0028874D01*
X0025175Y0028872D01*
X0025220Y0028827D01*
X0025223Y0028825D01*
X0025226Y0028822D01*
X0025227Y0028822D01*
X0025228Y0028821D01*
X0025232Y0028820D01*
X0025235Y0028819D01*
X0025237Y0028819D01*
X0025237Y0028819D01*
X0025238Y0028819D01*
X0025241Y0028818D01*
X0036614Y0028818D01*
X0036615Y0028819D01*
X0036617Y0028819D01*
X0036672Y0028824D01*
X0036674Y0028824D01*
X0036675Y0028824D01*
X0036681Y0028826D01*
X0036784Y0028869D01*
X0036786Y0028870D01*
X0036789Y0028871D01*
X0036791Y0028873D01*
X0036792Y0028874D01*
X0036792Y0028874D01*
X0036793Y0028875D01*
X0036872Y0028954D01*
X0036874Y0028956D01*
X0036876Y0028958D01*
X0036876Y0028958D01*
X0036877Y0028961D01*
X0036877Y0028962D01*
X0036878Y0028962D01*
X0036878Y0028963D01*
X0036921Y0029066D01*
X0036921Y0029068D01*
X0036922Y0029069D01*
X0036923Y0029075D01*
X0036928Y0029130D01*
X0036928Y0029131D01*
X0036929Y0029133D01*
X0036929Y0035433D01*
X0036928Y0035433D01*
G37*
G36*
X0020688Y0032678D02*
X0020688Y0032678D01*
X0020688Y0032679D01*
X0020687Y0032685D01*
X0020687Y0032690D01*
X0020686Y0032692D01*
X0020686Y0032693D01*
X0020684Y0032698D01*
X0020682Y0032703D01*
X0020681Y0032704D01*
X0020681Y0032705D01*
X0020678Y0032710D01*
X0020675Y0032714D01*
X0020674Y0032715D01*
X0020673Y0032716D01*
X0020669Y0032720D01*
X0020665Y0032724D01*
X0020664Y0032725D01*
X0020663Y0032725D01*
X0020658Y0032728D01*
X0020653Y0032731D01*
X0020652Y0032731D01*
X0020651Y0032732D01*
X0020645Y0032733D01*
X0020640Y0032735D01*
X0020639Y0032735D01*
X0020637Y0032735D01*
X0020629Y0032736D01*
X0019527Y0032736D01*
X0019526Y0032736D01*
X0019524Y0032736D01*
X0019519Y0032735D01*
X0019514Y0032734D01*
X0019512Y0032734D01*
X0019511Y0032733D01*
X0019506Y0032731D01*
X0019501Y0032730D01*
X0019500Y0032729D01*
X0019498Y0032728D01*
X0019494Y0032725D01*
X0019489Y0032722D01*
X0019488Y0032721D01*
X0019487Y0032720D01*
X0019484Y0032716D01*
X0019480Y0032712D01*
X0019479Y0032711D01*
X0019478Y0032710D01*
X0019476Y0032705D01*
X0019473Y0032700D01*
X0019473Y0032699D01*
X0019472Y0032698D01*
X0019471Y0032693D01*
X0019469Y0032687D01*
X0019469Y0032686D01*
X0019469Y0032685D01*
X0019468Y0032677D01*
X0019468Y0030846D01*
X0019468Y0030845D01*
X0019468Y0030843D01*
X0019469Y0030838D01*
X0019470Y0030832D01*
X0019470Y0030831D01*
X0019470Y0030830D01*
X0019472Y0030825D01*
X0019474Y0030820D01*
X0019475Y0030818D01*
X0019476Y0030817D01*
X0019479Y0030813D01*
X0019482Y0030808D01*
X0019483Y0030807D01*
X0019483Y0030806D01*
X0019488Y0030803D01*
X0019492Y0030799D01*
X0019493Y0030798D01*
X0019494Y0030797D01*
X0019499Y0030795D01*
X0019503Y0030792D01*
X0019505Y0030792D01*
X0019506Y0030791D01*
X0019511Y0030790D01*
X0019516Y0030788D01*
X0019518Y0030788D01*
X0019519Y0030787D01*
X0019527Y0030787D01*
X0020629Y0030787D01*
X0020631Y0030787D01*
X0020632Y0030787D01*
X0020638Y0030788D01*
X0020643Y0030789D01*
X0020644Y0030789D01*
X0020646Y0030789D01*
X0020651Y0030791D01*
X0020656Y0030793D01*
X0020657Y0030794D01*
X0020658Y0030794D01*
X0020663Y0030798D01*
X0020667Y0030801D01*
X0020668Y0030802D01*
X0020669Y0030802D01*
X0020673Y0030806D01*
X0020677Y0030810D01*
X0020677Y0030812D01*
X0020678Y0030813D01*
X0020681Y0030817D01*
X0020683Y0030822D01*
X0020684Y0030823D01*
X0020685Y0030825D01*
X0020686Y0030830D01*
X0020687Y0030835D01*
X0020688Y0030837D01*
X0020688Y0030838D01*
X0020688Y0030846D01*
X0020688Y0032677D01*
X0020688Y0032678D01*
G37*
G36*
X0005334Y0033721D02*
X0005334Y0033721D01*
X0005334Y0033723D01*
X0005333Y0033728D01*
X0005333Y0033733D01*
X0005332Y0033735D01*
X0005332Y0033736D01*
X0005330Y0033741D01*
X0005328Y0033746D01*
X0005327Y0033747D01*
X0005327Y0033749D01*
X0005323Y0033753D01*
X0005320Y0033758D01*
X0005319Y0033759D01*
X0005319Y0033760D01*
X0005315Y0033763D01*
X0005311Y0033767D01*
X0005309Y0033768D01*
X0005308Y0033769D01*
X0005304Y0033771D01*
X0005299Y0033774D01*
X0005298Y0033774D01*
X0005296Y0033775D01*
X0005291Y0033776D01*
X0005286Y0033778D01*
X0005285Y0033778D01*
X0005283Y0033778D01*
X0005275Y0033779D01*
X0004173Y0033779D01*
X0004171Y0033779D01*
X0004170Y0033779D01*
X0004165Y0033778D01*
X0004159Y0033777D01*
X0004158Y0033777D01*
X0004157Y0033777D01*
X0004151Y0033775D01*
X0004146Y0033773D01*
X0004145Y0033772D01*
X0004144Y0033772D01*
X0004140Y0033768D01*
X0004135Y0033765D01*
X0004134Y0033764D01*
X0004133Y0033764D01*
X0004129Y0033759D01*
X0004126Y0033756D01*
X0004125Y0033754D01*
X0004124Y0033753D01*
X0004121Y0033748D01*
X0004119Y0033744D01*
X0004118Y0033742D01*
X0004118Y0033741D01*
X0004116Y0033736D01*
X0004115Y0033731D01*
X0004115Y0033729D01*
X0004114Y0033728D01*
X0004114Y0033720D01*
X0004114Y0031889D01*
X0004114Y0031888D01*
X0004114Y0031886D01*
X0004115Y0031881D01*
X0004115Y0031876D01*
X0004116Y0031874D01*
X0004116Y0031873D01*
X0004118Y0031868D01*
X0004120Y0031863D01*
X0004121Y0031862D01*
X0004121Y0031860D01*
X0004124Y0031856D01*
X0004127Y0031852D01*
X0004128Y0031851D01*
X0004129Y0031849D01*
X0004133Y0031846D01*
X0004137Y0031842D01*
X0004138Y0031841D01*
X0004139Y0031841D01*
X0004144Y0031838D01*
X0004149Y0031835D01*
X0004150Y0031835D01*
X0004151Y0031834D01*
X0004157Y0031833D01*
X0004162Y0031831D01*
X0004163Y0031831D01*
X0004165Y0031831D01*
X0004173Y0031830D01*
X0005275Y0031830D01*
X0005276Y0031830D01*
X0005278Y0031830D01*
X0005283Y0031831D01*
X0005289Y0031832D01*
X0005290Y0031832D01*
X0005291Y0031832D01*
X0005296Y0031835D01*
X0005301Y0031836D01*
X0005303Y0031837D01*
X0005304Y0031838D01*
X0005308Y0031841D01*
X0005313Y0031844D01*
X0005314Y0031845D01*
X0005315Y0031846D01*
X0005318Y0031850D01*
X0005322Y0031854D01*
X0005323Y0031855D01*
X0005324Y0031856D01*
X0005326Y0031861D01*
X0005329Y0031865D01*
X0005330Y0031867D01*
X0005330Y0031868D01*
X0005332Y0031873D01*
X0005333Y0031878D01*
X0005333Y0031880D01*
X0005334Y0031881D01*
X0005334Y0031889D01*
X0005334Y0033720D01*
X0005334Y0033721D01*
G37*
%LPC*%
G36*
X0034035Y0034806D02*
X0034035Y0034806D01*
X0034012Y0034783D01*
X0032420Y0034783D01*
X0032416Y0034782D01*
X0032412Y0034782D01*
X0032412Y0034782D01*
X0032411Y0034781D01*
X0032407Y0034780D01*
X0032404Y0034778D01*
X0032403Y0034777D01*
X0032402Y0034777D01*
X0032401Y0034776D01*
X0032399Y0034774D01*
X0032373Y0034748D01*
X0031760Y0034748D01*
X0031716Y0034792D01*
X0031716Y0035562D01*
X0031760Y0035605D01*
X0032373Y0035605D01*
X0032399Y0035579D01*
X0032402Y0035577D01*
X0032405Y0035574D01*
X0032406Y0035574D01*
X0032407Y0035573D01*
X0032411Y0035572D01*
X0032414Y0035571D01*
X0032416Y0035571D01*
X0032416Y0035571D01*
X0032417Y0035571D01*
X0032420Y0035570D01*
X0034012Y0035570D01*
X0034035Y0035547D01*
X0034035Y0034806D01*
G37*
%LPD*%
%LPC*%
G36*
X0034995Y0031619D02*
X0034995Y0031619D01*
X0034975Y0031598D01*
X0034434Y0031598D01*
X0034413Y0031619D01*
X0034410Y0031621D01*
X0034409Y0031622D01*
X0034408Y0031623D01*
X0034408Y0031623D01*
X0034407Y0031624D01*
X0034406Y0031624D01*
X0034405Y0031625D01*
X0034401Y0031626D01*
X0034399Y0031627D01*
X0034399Y0031627D01*
X0034398Y0031627D01*
X0034397Y0031627D01*
X0034396Y0031628D01*
X0034395Y0031628D01*
X0034392Y0031628D01*
X0034389Y0031628D01*
X0034385Y0031627D01*
X0034381Y0031627D01*
X0034381Y0031626D01*
X0034380Y0031626D01*
X0034376Y0031625D01*
X0034373Y0031623D01*
X0034372Y0031622D01*
X0034371Y0031622D01*
X0034370Y0031621D01*
X0034368Y0031619D01*
X0034281Y0031532D01*
X0034234Y0031485D01*
X0034139Y0031485D01*
X0034136Y0031485D01*
X0034133Y0031485D01*
X0034131Y0031484D01*
X0034129Y0031484D01*
X0034127Y0031482D01*
X0034124Y0031481D01*
X0034123Y0031480D01*
X0034121Y0031479D01*
X0034119Y0031477D01*
X0034117Y0031475D01*
X0034116Y0031473D01*
X0034114Y0031472D01*
X0034113Y0031469D01*
X0034112Y0031467D01*
X0034111Y0031465D01*
X0034110Y0031463D01*
X0034110Y0031460D01*
X0034109Y0031458D01*
X0034110Y0031456D01*
X0034109Y0031454D01*
X0034110Y0031451D01*
X0034110Y0031448D01*
X0034111Y0031446D01*
X0034112Y0031444D01*
X0034113Y0031442D01*
X0034114Y0031439D01*
X0034116Y0031437D01*
X0034117Y0031436D01*
X0034117Y0031436D01*
X0034118Y0031435D01*
X0034206Y0031347D01*
X0034206Y0031232D01*
X0034125Y0031151D01*
X0034010Y0031151D01*
X0033929Y0031232D01*
X0033929Y0031347D01*
X0034017Y0031435D01*
X0034018Y0031437D01*
X0034020Y0031439D01*
X0034021Y0031441D01*
X0034022Y0031443D01*
X0034023Y0031445D01*
X0034024Y0031448D01*
X0034025Y0031450D01*
X0034025Y0031452D01*
X0034025Y0031455D01*
X0034025Y0031458D01*
X0034025Y0031459D01*
X0034025Y0031461D01*
X0034024Y0031464D01*
X0034023Y0031467D01*
X0034022Y0031469D01*
X0034021Y0031470D01*
X0034020Y0031473D01*
X0034018Y0031475D01*
X0034017Y0031476D01*
X0034015Y0031478D01*
X0034013Y0031479D01*
X0034011Y0031481D01*
X0034009Y0031482D01*
X0034007Y0031483D01*
X0034004Y0031484D01*
X0034002Y0031485D01*
X0033999Y0031485D01*
X0033998Y0031485D01*
X0033997Y0031485D01*
X0033996Y0031485D01*
X0033931Y0031485D01*
X0033927Y0031484D01*
X0033923Y0031484D01*
X0033922Y0031484D01*
X0033921Y0031484D01*
X0033918Y0031482D01*
X0033914Y0031480D01*
X0033913Y0031479D01*
X0033913Y0031479D01*
X0033912Y0031478D01*
X0033910Y0031476D01*
X0033845Y0031411D01*
X0033730Y0031411D01*
X0033649Y0031492D01*
X0033649Y0031607D01*
X0033730Y0031688D01*
X0033845Y0031688D01*
X0033910Y0031623D01*
X0033913Y0031621D01*
X0033916Y0031618D01*
X0033917Y0031618D01*
X0033918Y0031617D01*
X0033921Y0031616D01*
X0033925Y0031615D01*
X0033926Y0031615D01*
X0033927Y0031614D01*
X0033928Y0031615D01*
X0033931Y0031614D01*
X0034168Y0031614D01*
X0034172Y0031615D01*
X0034176Y0031615D01*
X0034177Y0031616D01*
X0034178Y0031616D01*
X0034181Y0031618D01*
X0034185Y0031619D01*
X0034186Y0031620D01*
X0034186Y0031620D01*
X0034187Y0031621D01*
X0034189Y0031623D01*
X0034248Y0031681D01*
X0034250Y0031684D01*
X0034251Y0031686D01*
X0034252Y0031688D01*
X0034253Y0031689D01*
X0034254Y0031692D01*
X0034255Y0031695D01*
X0034256Y0031697D01*
X0034256Y0031698D01*
X0034256Y0031701D01*
X0034256Y0031704D01*
X0034256Y0031706D01*
X0034256Y0031708D01*
X0034255Y0031711D01*
X0034254Y0031714D01*
X0034253Y0031715D01*
X0034253Y0031717D01*
X0034251Y0031719D01*
X0034249Y0031722D01*
X0034248Y0031723D01*
X0034246Y0031724D01*
X0034244Y0031726D01*
X0034242Y0031728D01*
X0034240Y0031728D01*
X0034238Y0031730D01*
X0034235Y0031730D01*
X0034233Y0031731D01*
X0034230Y0031731D01*
X0034229Y0031732D01*
X0034228Y0031732D01*
X0034227Y0031732D01*
X0034130Y0031732D01*
X0034049Y0031813D01*
X0034049Y0031852D01*
X0034048Y0031855D01*
X0034048Y0031859D01*
X0034048Y0031860D01*
X0034047Y0031861D01*
X0034046Y0031865D01*
X0034044Y0031868D01*
X0034043Y0031869D01*
X0034043Y0031870D01*
X0034042Y0031870D01*
X0034040Y0031873D01*
X0034016Y0031897D01*
X0034013Y0031899D01*
X0034010Y0031902D01*
X0034009Y0031902D01*
X0034008Y0031903D01*
X0034005Y0031904D01*
X0034001Y0031905D01*
X0034000Y0031905D01*
X0033999Y0031905D01*
X0033998Y0031905D01*
X0033995Y0031906D01*
X0033134Y0031906D01*
X0033131Y0031905D01*
X0033128Y0031905D01*
X0033126Y0031904D01*
X0033125Y0031904D01*
X0033122Y0031903D01*
X0033119Y0031902D01*
X0033118Y0031900D01*
X0033116Y0031900D01*
X0033114Y0031897D01*
X0033112Y0031896D01*
X0033111Y0031894D01*
X0033109Y0031892D01*
X0033108Y0031890D01*
X0033107Y0031887D01*
X0033106Y0031885D01*
X0033105Y0031884D01*
X0033105Y0031881D01*
X0033105Y0031878D01*
X0033105Y0031876D01*
X0033105Y0031874D01*
X0033105Y0031871D01*
X0033105Y0031868D01*
X0033106Y0031867D01*
X0033107Y0031865D01*
X0033108Y0031862D01*
X0033109Y0031860D01*
X0033111Y0031857D01*
X0033112Y0031857D01*
X0033112Y0031856D01*
X0033113Y0031855D01*
X0033902Y0031067D01*
X0033905Y0031064D01*
X0033908Y0031062D01*
X0033909Y0031062D01*
X0033909Y0031061D01*
X0033913Y0031060D01*
X0033917Y0031059D01*
X0033918Y0031058D01*
X0033919Y0031058D01*
X0033920Y0031058D01*
X0033923Y0031058D01*
X0034015Y0031058D01*
X0034096Y0030977D01*
X0034096Y0030862D01*
X0034015Y0030781D01*
X0033900Y0030781D01*
X0033819Y0030862D01*
X0033819Y0030955D01*
X0033818Y0030958D01*
X0033818Y0030962D01*
X0033818Y0030963D01*
X0033817Y0030964D01*
X0033816Y0030967D01*
X0033814Y0030971D01*
X0033813Y0030972D01*
X0033813Y0030972D01*
X0033812Y0030973D01*
X0033810Y0030975D01*
X0033021Y0031764D01*
X0033018Y0031767D01*
X0033015Y0031769D01*
X0033014Y0031769D01*
X0033014Y0031770D01*
X0033010Y0031771D01*
X0033006Y0031772D01*
X0033005Y0031773D01*
X0033004Y0031773D01*
X0033003Y0031773D01*
X0033001Y0031773D01*
X0032393Y0031773D01*
X0032089Y0032076D01*
X0032086Y0032079D01*
X0032083Y0032081D01*
X0032082Y0032081D01*
X0032081Y0032082D01*
X0032078Y0032083D01*
X0032074Y0032085D01*
X0032073Y0032085D01*
X0032072Y0032085D01*
X0032071Y0032085D01*
X0032068Y0032085D01*
X0031981Y0032085D01*
X0031977Y0032084D01*
X0031973Y0032084D01*
X0031972Y0032084D01*
X0031971Y0032084D01*
X0031968Y0032082D01*
X0031964Y0032080D01*
X0031963Y0032079D01*
X0031963Y0032079D01*
X0031962Y0032078D01*
X0031960Y0032076D01*
X0031895Y0032011D01*
X0031780Y0032011D01*
X0031699Y0032092D01*
X0031699Y0032207D01*
X0031780Y0032288D01*
X0031895Y0032288D01*
X0031960Y0032223D01*
X0031963Y0032221D01*
X0031966Y0032218D01*
X0031967Y0032218D01*
X0031968Y0032217D01*
X0031971Y0032216D01*
X0031975Y0032215D01*
X0031976Y0032215D01*
X0031977Y0032214D01*
X0031978Y0032215D01*
X0031981Y0032214D01*
X0032050Y0032214D01*
X0032053Y0032215D01*
X0032056Y0032215D01*
X0032058Y0032215D01*
X0032060Y0032216D01*
X0032062Y0032217D01*
X0032065Y0032218D01*
X0032067Y0032219D01*
X0032068Y0032220D01*
X0032070Y0032222D01*
X0032072Y0032224D01*
X0032074Y0032226D01*
X0032075Y0032227D01*
X0032076Y0032230D01*
X0032078Y0032232D01*
X0032078Y0032234D01*
X0032079Y0032236D01*
X0032079Y0032239D01*
X0032080Y0032242D01*
X0032080Y0032244D01*
X0032080Y0032246D01*
X0032079Y0032248D01*
X0032079Y0032251D01*
X0032078Y0032253D01*
X0032078Y0032255D01*
X0032076Y0032257D01*
X0032075Y0032260D01*
X0032073Y0032262D01*
X0032072Y0032263D01*
X0032072Y0032264D01*
X0032071Y0032265D01*
X0031359Y0032976D01*
X0031356Y0032979D01*
X0031353Y0032981D01*
X0031352Y0032981D01*
X0031351Y0032982D01*
X0031348Y0032983D01*
X0031344Y0032985D01*
X0031343Y0032985D01*
X0031342Y0032985D01*
X0031341Y0032985D01*
X0031338Y0032985D01*
X0030311Y0032985D01*
X0030109Y0033186D01*
X0030106Y0033189D01*
X0030103Y0033191D01*
X0030102Y0033191D01*
X0030101Y0033192D01*
X0030098Y0033193D01*
X0030094Y0033195D01*
X0030093Y0033195D01*
X0030092Y0033195D01*
X0030091Y0033195D01*
X0030088Y0033195D01*
X0029781Y0033195D01*
X0029777Y0033194D01*
X0029773Y0033194D01*
X0029772Y0033194D01*
X0029771Y0033194D01*
X0029768Y0033192D01*
X0029764Y0033190D01*
X0029763Y0033189D01*
X0029763Y0033189D01*
X0029762Y0033188D01*
X0029760Y0033186D01*
X0029695Y0033121D01*
X0029580Y0033121D01*
X0029499Y0033202D01*
X0029499Y0033317D01*
X0029580Y0033398D01*
X0029695Y0033398D01*
X0029760Y0033333D01*
X0029763Y0033331D01*
X0029766Y0033328D01*
X0029767Y0033328D01*
X0029768Y0033327D01*
X0029771Y0033326D01*
X0029775Y0033325D01*
X0029776Y0033325D01*
X0029777Y0033324D01*
X0029778Y0033325D01*
X0029781Y0033324D01*
X0030154Y0033324D01*
X0030355Y0033123D01*
X0030359Y0033121D01*
X0030362Y0033118D01*
X0030362Y0033118D01*
X0030363Y0033117D01*
X0030367Y0033116D01*
X0030371Y0033115D01*
X0030372Y0033115D01*
X0030372Y0033114D01*
X0030373Y0033115D01*
X0030376Y0033114D01*
X0031366Y0033114D01*
X0031369Y0033115D01*
X0031372Y0033115D01*
X0031373Y0033115D01*
X0031375Y0033116D01*
X0031378Y0033117D01*
X0031381Y0033118D01*
X0031382Y0033119D01*
X0031384Y0033120D01*
X0031386Y0033122D01*
X0031388Y0033124D01*
X0031389Y0033126D01*
X0031390Y0033127D01*
X0031392Y0033130D01*
X0031393Y0033132D01*
X0031394Y0033134D01*
X0031394Y0033136D01*
X0031395Y0033139D01*
X0031395Y0033142D01*
X0031395Y0033144D01*
X0031395Y0033146D01*
X0031395Y0033148D01*
X0031394Y0033151D01*
X0031394Y0033153D01*
X0031393Y0033155D01*
X0031392Y0033157D01*
X0031390Y0033160D01*
X0031389Y0033162D01*
X0031388Y0033163D01*
X0031388Y0033164D01*
X0031387Y0033165D01*
X0031359Y0033192D01*
X0031359Y0033307D01*
X0031440Y0033388D01*
X0031555Y0033388D01*
X0031636Y0033307D01*
X0031636Y0033192D01*
X0031555Y0033111D01*
X0031478Y0033111D01*
X0031475Y0033111D01*
X0031473Y0033111D01*
X0031471Y0033110D01*
X0031469Y0033110D01*
X0031466Y0033108D01*
X0031464Y0033107D01*
X0031462Y0033106D01*
X0031460Y0033105D01*
X0031458Y0033103D01*
X0031456Y0033101D01*
X0031455Y0033100D01*
X0031454Y0033098D01*
X0031453Y0033096D01*
X0031451Y0033093D01*
X0031451Y0033091D01*
X0031450Y0033089D01*
X0031450Y0033087D01*
X0031449Y0033084D01*
X0031449Y0033082D01*
X0031449Y0033080D01*
X0031449Y0033077D01*
X0031450Y0033074D01*
X0031451Y0033072D01*
X0031451Y0033071D01*
X0031453Y0033068D01*
X0031454Y0033065D01*
X0031456Y0033063D01*
X0031456Y0033062D01*
X0031457Y0033062D01*
X0031457Y0033061D01*
X0032475Y0032043D01*
X0032478Y0032041D01*
X0032481Y0032039D01*
X0032482Y0032038D01*
X0032483Y0032038D01*
X0032486Y0032037D01*
X0032490Y0032035D01*
X0032491Y0032035D01*
X0032492Y0032035D01*
X0032493Y0032035D01*
X0032496Y0032035D01*
X0034061Y0032035D01*
X0034088Y0032008D01*
X0034088Y0032007D01*
X0034089Y0032007D01*
X0034092Y0032005D01*
X0034095Y0032002D01*
X0034096Y0032002D01*
X0034097Y0032001D01*
X0034101Y0032001D01*
X0034105Y0031999D01*
X0034106Y0031999D01*
X0034107Y0031999D01*
X0034110Y0032000D01*
X0034114Y0032000D01*
X0034115Y0032000D01*
X0034116Y0032000D01*
X0034120Y0032002D01*
X0034123Y0032003D01*
X0034124Y0032004D01*
X0034125Y0032004D01*
X0034129Y0032008D01*
X0034130Y0032008D01*
X0034245Y0032008D01*
X0034326Y0031927D01*
X0034326Y0031813D01*
X0034320Y0031807D01*
X0034319Y0031805D01*
X0034317Y0031803D01*
X0034316Y0031801D01*
X0034315Y0031800D01*
X0034314Y0031797D01*
X0034313Y0031794D01*
X0034312Y0031792D01*
X0034312Y0031790D01*
X0034312Y0031787D01*
X0034312Y0031785D01*
X0034312Y0031783D01*
X0034312Y0031781D01*
X0034313Y0031778D01*
X0034314Y0031775D01*
X0034315Y0031774D01*
X0034316Y0031772D01*
X0034317Y0031770D01*
X0034319Y0031767D01*
X0034320Y0031766D01*
X0034322Y0031764D01*
X0034324Y0031763D01*
X0034326Y0031761D01*
X0034328Y0031760D01*
X0034330Y0031759D01*
X0034333Y0031759D01*
X0034335Y0031758D01*
X0034338Y0031757D01*
X0034339Y0031757D01*
X0034340Y0031757D01*
X0034341Y0031757D01*
X0034392Y0031757D01*
X0034393Y0031757D01*
X0034394Y0031757D01*
X0034396Y0031758D01*
X0034400Y0031758D01*
X0034401Y0031758D01*
X0034402Y0031759D01*
X0034403Y0031759D01*
X0034403Y0031759D01*
X0034405Y0031760D01*
X0034405Y0031760D01*
X0034408Y0031762D01*
X0034409Y0031763D01*
X0034410Y0031763D01*
X0034411Y0031764D01*
X0034413Y0031766D01*
X0034434Y0031787D01*
X0034975Y0031787D01*
X0034995Y0031766D01*
X0034995Y0031619D01*
G37*
%LPD*%
%LPC*%
G36*
X0035692Y0032363D02*
X0035692Y0032363D01*
X0035351Y0032022D01*
X0035016Y0032022D01*
X0035013Y0032021D01*
X0035009Y0032021D01*
X0035008Y0032020D01*
X0035007Y0032020D01*
X0035004Y0032018D01*
X0035000Y0032017D01*
X0034999Y0032016D01*
X0034998Y0032015D01*
X0034998Y0032015D01*
X0034996Y0032013D01*
X0034975Y0031992D01*
X0034434Y0031992D01*
X0034413Y0032013D01*
X0034413Y0032160D01*
X0034434Y0032180D01*
X0034975Y0032180D01*
X0034996Y0032159D01*
X0034999Y0032157D01*
X0035002Y0032155D01*
X0035003Y0032154D01*
X0035003Y0032154D01*
X0035007Y0032153D01*
X0035011Y0032151D01*
X0035012Y0032151D01*
X0035013Y0032151D01*
X0035013Y0032151D01*
X0035016Y0032151D01*
X0035285Y0032151D01*
X0035289Y0032151D01*
X0035292Y0032152D01*
X0035293Y0032152D01*
X0035294Y0032152D01*
X0035298Y0032154D01*
X0035301Y0032156D01*
X0035302Y0032156D01*
X0035303Y0032157D01*
X0035303Y0032157D01*
X0035306Y0032159D01*
X0035307Y0032161D01*
X0035309Y0032163D01*
X0035311Y0032165D01*
X0035312Y0032167D01*
X0035313Y0032169D01*
X0035314Y0032172D01*
X0035315Y0032174D01*
X0035315Y0032176D01*
X0035316Y0032178D01*
X0035316Y0032181D01*
X0035316Y0032184D01*
X0035315Y0032186D01*
X0035315Y0032188D01*
X0035314Y0032190D01*
X0035314Y0032193D01*
X0035313Y0032195D01*
X0035312Y0032197D01*
X0035310Y0032199D01*
X0035309Y0032201D01*
X0035307Y0032202D01*
X0035306Y0032204D01*
X0035304Y0032205D01*
X0035301Y0032207D01*
X0035299Y0032208D01*
X0035298Y0032209D01*
X0035295Y0032210D01*
X0035292Y0032211D01*
X0035289Y0032211D01*
X0035288Y0032211D01*
X0035288Y0032211D01*
X0035287Y0032211D01*
X0035160Y0032211D01*
X0035079Y0032292D01*
X0035079Y0032407D01*
X0035160Y0032488D01*
X0035275Y0032488D01*
X0035294Y0032469D01*
X0035295Y0032468D01*
X0035295Y0032468D01*
X0035298Y0032466D01*
X0035302Y0032463D01*
X0035302Y0032463D01*
X0035303Y0032463D01*
X0035307Y0032462D01*
X0035311Y0032461D01*
X0035312Y0032461D01*
X0035313Y0032460D01*
X0035316Y0032461D01*
X0035320Y0032461D01*
X0035321Y0032461D01*
X0035322Y0032461D01*
X0035326Y0032463D01*
X0035329Y0032464D01*
X0035330Y0032465D01*
X0035331Y0032465D01*
X0035335Y0032469D01*
X0035444Y0032578D01*
X0035446Y0032581D01*
X0035449Y0032584D01*
X0035449Y0032585D01*
X0035450Y0032586D01*
X0035451Y0032589D01*
X0035452Y0032593D01*
X0035452Y0032594D01*
X0035453Y0032595D01*
X0035453Y0032596D01*
X0035453Y0032599D01*
X0035453Y0033218D01*
X0035452Y0033221D01*
X0035452Y0033224D01*
X0035452Y0033226D01*
X0035451Y0033228D01*
X0035450Y0033230D01*
X0035449Y0033233D01*
X0035448Y0033234D01*
X0035447Y0033236D01*
X0035445Y0033238D01*
X0035443Y0033240D01*
X0035441Y0033241D01*
X0035440Y0033243D01*
X0035437Y0033244D01*
X0035435Y0033245D01*
X0035433Y0033246D01*
X0035431Y0033247D01*
X0035428Y0033247D01*
X0035425Y0033248D01*
X0035423Y0033247D01*
X0035421Y0033248D01*
X0035419Y0033247D01*
X0035416Y0033247D01*
X0035414Y0033246D01*
X0035412Y0033245D01*
X0035410Y0033244D01*
X0035407Y0033243D01*
X0035405Y0033241D01*
X0035404Y0033240D01*
X0035403Y0033240D01*
X0035402Y0033239D01*
X0035325Y0033161D01*
X0035210Y0033161D01*
X0035197Y0033174D01*
X0035194Y0033177D01*
X0035191Y0033179D01*
X0035190Y0033179D01*
X0035189Y0033180D01*
X0035186Y0033181D01*
X0035182Y0033182D01*
X0035181Y0033182D01*
X0035180Y0033183D01*
X0035179Y0033183D01*
X0035176Y0033183D01*
X0034997Y0033183D01*
X0034993Y0033182D01*
X0034989Y0033182D01*
X0034988Y0033182D01*
X0034987Y0033181D01*
X0034984Y0033180D01*
X0034980Y0033178D01*
X0034979Y0033177D01*
X0034979Y0033177D01*
X0034978Y0033176D01*
X0034976Y0033174D01*
X0034975Y0033173D01*
X0034434Y0033173D01*
X0034433Y0033174D01*
X0034430Y0033177D01*
X0034427Y0033179D01*
X0034426Y0033179D01*
X0034425Y0033180D01*
X0034421Y0033181D01*
X0034418Y0033182D01*
X0034416Y0033182D01*
X0034416Y0033183D01*
X0034415Y0033183D01*
X0034412Y0033183D01*
X0034132Y0033183D01*
X0034128Y0033182D01*
X0034124Y0033182D01*
X0034124Y0033182D01*
X0034123Y0033181D01*
X0034119Y0033180D01*
X0034116Y0033178D01*
X0034115Y0033177D01*
X0034114Y0033177D01*
X0034113Y0033176D01*
X0034111Y0033174D01*
X0034074Y0033138D01*
X0034072Y0033134D01*
X0034070Y0033131D01*
X0034069Y0033131D01*
X0034069Y0033130D01*
X0034068Y0033126D01*
X0034066Y0033122D01*
X0034066Y0033121D01*
X0034066Y0033121D01*
X0034066Y0033120D01*
X0034066Y0033117D01*
X0034066Y0033092D01*
X0033985Y0033011D01*
X0033870Y0033011D01*
X0033789Y0033092D01*
X0033789Y0033207D01*
X0033870Y0033288D01*
X0033974Y0033288D01*
X0033978Y0033289D01*
X0033982Y0033289D01*
X0033983Y0033289D01*
X0033984Y0033290D01*
X0033987Y0033291D01*
X0033991Y0033293D01*
X0033992Y0033294D01*
X0033992Y0033294D01*
X0033993Y0033295D01*
X0033995Y0033297D01*
X0034050Y0033351D01*
X0034412Y0033351D01*
X0034416Y0033352D01*
X0034419Y0033352D01*
X0034420Y0033353D01*
X0034421Y0033353D01*
X0034425Y0033355D01*
X0034428Y0033356D01*
X0034429Y0033357D01*
X0034430Y0033358D01*
X0034430Y0033358D01*
X0034433Y0033360D01*
X0034434Y0033361D01*
X0034975Y0033361D01*
X0034976Y0033360D01*
X0034979Y0033358D01*
X0034982Y0033355D01*
X0034983Y0033355D01*
X0034984Y0033355D01*
X0034987Y0033353D01*
X0034991Y0033352D01*
X0034992Y0033352D01*
X0034993Y0033352D01*
X0034994Y0033352D01*
X0034997Y0033351D01*
X0035111Y0033351D01*
X0035115Y0033352D01*
X0035119Y0033352D01*
X0035120Y0033353D01*
X0035121Y0033353D01*
X0035124Y0033355D01*
X0035128Y0033356D01*
X0035129Y0033357D01*
X0035129Y0033358D01*
X0035130Y0033358D01*
X0035132Y0033360D01*
X0035210Y0033438D01*
X0035325Y0033438D01*
X0035402Y0033360D01*
X0035405Y0033359D01*
X0035407Y0033357D01*
X0035409Y0033356D01*
X0035410Y0033355D01*
X0035413Y0033354D01*
X0035416Y0033353D01*
X0035418Y0033352D01*
X0035419Y0033352D01*
X0035422Y0033352D01*
X0035425Y0033352D01*
X0035427Y0033352D01*
X0035429Y0033352D01*
X0035432Y0033353D01*
X0035435Y0033354D01*
X0035436Y0033355D01*
X0035438Y0033356D01*
X0035440Y0033357D01*
X0035443Y0033359D01*
X0035444Y0033360D01*
X0035445Y0033362D01*
X0035447Y0033364D01*
X0035449Y0033366D01*
X0035450Y0033368D01*
X0035451Y0033370D01*
X0035451Y0033373D01*
X0035452Y0033375D01*
X0035453Y0033378D01*
X0035453Y0033379D01*
X0035453Y0033380D01*
X0035453Y0033381D01*
X0035453Y0033461D01*
X0035452Y0033464D01*
X0035452Y0033468D01*
X0035451Y0033469D01*
X0035451Y0033470D01*
X0035449Y0033474D01*
X0035448Y0033477D01*
X0035447Y0033478D01*
X0035447Y0033479D01*
X0035446Y0033479D01*
X0035444Y0033482D01*
X0035338Y0033588D01*
X0035335Y0033590D01*
X0035332Y0033592D01*
X0035331Y0033593D01*
X0035330Y0033593D01*
X0035327Y0033594D01*
X0035323Y0033596D01*
X0035322Y0033596D01*
X0035321Y0033596D01*
X0035320Y0033596D01*
X0035317Y0033596D01*
X0035016Y0033596D01*
X0035013Y0033596D01*
X0035009Y0033595D01*
X0035008Y0033595D01*
X0035007Y0033595D01*
X0035004Y0033593D01*
X0035000Y0033591D01*
X0034999Y0033591D01*
X0034998Y0033590D01*
X0034998Y0033590D01*
X0034996Y0033588D01*
X0034975Y0033567D01*
X0034434Y0033567D01*
X0034413Y0033587D01*
X0034413Y0033735D01*
X0034434Y0033755D01*
X0034975Y0033755D01*
X0034996Y0033734D01*
X0034999Y0033732D01*
X0035002Y0033729D01*
X0035003Y0033729D01*
X0035003Y0033729D01*
X0035007Y0033727D01*
X0035011Y0033726D01*
X0035012Y0033726D01*
X0035013Y0033726D01*
X0035013Y0033726D01*
X0035016Y0033725D01*
X0035379Y0033725D01*
X0035382Y0033726D01*
X0035385Y0033726D01*
X0035387Y0033727D01*
X0035389Y0033727D01*
X0035391Y0033728D01*
X0035394Y0033729D01*
X0035395Y0033731D01*
X0035397Y0033732D01*
X0035399Y0033734D01*
X0035401Y0033736D01*
X0035402Y0033737D01*
X0035404Y0033739D01*
X0035405Y0033741D01*
X0035406Y0033744D01*
X0035407Y0033746D01*
X0035408Y0033747D01*
X0035408Y0033750D01*
X0035408Y0033753D01*
X0035408Y0033755D01*
X0035408Y0033757D01*
X0035408Y0033760D01*
X0035408Y0033763D01*
X0035407Y0033764D01*
X0035406Y0033766D01*
X0035405Y0033769D01*
X0035404Y0033771D01*
X0035402Y0033774D01*
X0035401Y0033774D01*
X0035401Y0033775D01*
X0035400Y0033776D01*
X0035263Y0033913D01*
X0035260Y0033915D01*
X0035257Y0033917D01*
X0035256Y0033918D01*
X0035255Y0033918D01*
X0035252Y0033919D01*
X0035248Y0033921D01*
X0035247Y0033921D01*
X0035246Y0033921D01*
X0035245Y0033921D01*
X0035242Y0033921D01*
X0035220Y0033921D01*
X0035158Y0033983D01*
X0035155Y0033986D01*
X0035152Y0033988D01*
X0035151Y0033988D01*
X0035150Y0033989D01*
X0035147Y0033990D01*
X0035143Y0033991D01*
X0035142Y0033991D01*
X0035141Y0033992D01*
X0035137Y0033992D01*
X0035133Y0033992D01*
X0035132Y0033991D01*
X0035131Y0033991D01*
X0035128Y0033990D01*
X0035124Y0033989D01*
X0035123Y0033988D01*
X0035122Y0033988D01*
X0035119Y0033986D01*
X0035116Y0033983D01*
X0035116Y0033983D01*
X0035115Y0033982D01*
X0035113Y0033979D01*
X0035111Y0033976D01*
X0035110Y0033974D01*
X0035110Y0033974D01*
X0035110Y0033973D01*
X0035109Y0033970D01*
X0035100Y0033938D01*
X0035080Y0033903D01*
X0035052Y0033876D01*
X0035018Y0033856D01*
X0034980Y0033846D01*
X0034734Y0033846D01*
X0034734Y0034055D01*
X0034734Y0034264D01*
X0034980Y0034264D01*
X0035018Y0034253D01*
X0035052Y0034234D01*
X0035080Y0034206D01*
X0035100Y0034172D01*
X0035107Y0034147D01*
X0035108Y0034144D01*
X0035109Y0034140D01*
X0035110Y0034139D01*
X0035110Y0034138D01*
X0035113Y0034136D01*
X0035116Y0034133D01*
X0035116Y0034132D01*
X0035117Y0034131D01*
X0035120Y0034129D01*
X0035124Y0034127D01*
X0035125Y0034127D01*
X0035126Y0034127D01*
X0035129Y0034126D01*
X0035133Y0034125D01*
X0035134Y0034125D01*
X0035135Y0034125D01*
X0035139Y0034126D01*
X0035143Y0034126D01*
X0035143Y0034127D01*
X0035144Y0034127D01*
X0035148Y0034129D01*
X0035151Y0034130D01*
X0035152Y0034131D01*
X0035153Y0034131D01*
X0035154Y0034132D01*
X0035156Y0034134D01*
X0035220Y0034198D01*
X0035335Y0034198D01*
X0035416Y0034117D01*
X0035416Y0034002D01*
X0035407Y0033993D01*
X0035406Y0033993D01*
X0035405Y0033992D01*
X0035403Y0033989D01*
X0035401Y0033986D01*
X0035401Y0033985D01*
X0035400Y0033984D01*
X0035399Y0033980D01*
X0035398Y0033976D01*
X0035398Y0033975D01*
X0035398Y0033974D01*
X0035399Y0033971D01*
X0035399Y0033967D01*
X0035399Y0033966D01*
X0035399Y0033965D01*
X0035401Y0033961D01*
X0035402Y0033958D01*
X0035403Y0033957D01*
X0035403Y0033956D01*
X0035407Y0033952D01*
X0035692Y0033666D01*
X0035692Y0032363D01*
G37*
%LPD*%
%LPC*%
G36*
X0031200Y0034744D02*
X0031200Y0034744D01*
X0031125Y0034563D01*
X0030987Y0034425D01*
X0030806Y0034350D01*
X0030610Y0034350D01*
X0030429Y0034425D01*
X0030291Y0034563D01*
X0030216Y0034744D01*
X0030216Y0034940D01*
X0030291Y0035121D01*
X0030429Y0035259D01*
X0030610Y0035334D01*
X0030806Y0035334D01*
X0030987Y0035259D01*
X0031125Y0035121D01*
X0031200Y0034940D01*
X0031200Y0034744D01*
G37*
%LPD*%
%LPC*%
G36*
X0031200Y0029626D02*
X0031200Y0029626D01*
X0031125Y0029445D01*
X0030987Y0029307D01*
X0030806Y0029232D01*
X0030610Y0029232D01*
X0030429Y0029307D01*
X0030291Y0029445D01*
X0030216Y0029626D01*
X0030216Y0029822D01*
X0030291Y0030003D01*
X0030429Y0030141D01*
X0030610Y0030216D01*
X0030806Y0030216D01*
X0030987Y0030141D01*
X0031125Y0030003D01*
X0031200Y0029822D01*
X0031200Y0029626D01*
G37*
%LPD*%
%LPC*%
G36*
X0035669Y0034960D02*
X0035669Y0034960D01*
X0035086Y0034960D01*
X0035086Y0035315D01*
X0035096Y0035353D01*
X0035116Y0035387D01*
X0035144Y0035415D01*
X0035178Y0035435D01*
X0035216Y0035445D01*
X0035669Y0035445D01*
X0035669Y0034960D01*
G37*
%LPD*%
%LPC*%
G36*
X0035669Y0029724D02*
X0035669Y0029724D01*
X0035086Y0029724D01*
X0035086Y0030078D01*
X0035096Y0030116D01*
X0035116Y0030151D01*
X0035144Y0030179D01*
X0035178Y0030198D01*
X0035216Y0030209D01*
X0035669Y0030209D01*
X0035669Y0029724D01*
G37*
%LPD*%
%LPC*%
G36*
X0035669Y0034357D02*
X0035669Y0034357D01*
X0035216Y0034357D01*
X0035196Y0034363D01*
X0035178Y0034368D01*
X0035144Y0034387D01*
X0035116Y0034415D01*
X0035096Y0034449D01*
X0035086Y0034488D01*
X0035086Y0034842D01*
X0035669Y0034842D01*
X0035669Y0034357D01*
G37*
%LPD*%
%LPC*%
G36*
X0035669Y0029121D02*
X0035669Y0029121D01*
X0035216Y0029121D01*
X0035196Y0029127D01*
X0035178Y0029131D01*
X0035144Y0029151D01*
X0035116Y0029179D01*
X0035096Y0029213D01*
X0035086Y0029251D01*
X0035086Y0029606D01*
X0035669Y0029606D01*
X0035669Y0029121D01*
G37*
%LPD*%
%LPC*%
G36*
X0036370Y0029724D02*
X0036370Y0029724D01*
X0035787Y0029724D01*
X0035787Y0030209D01*
X0036240Y0030209D01*
X0036242Y0030208D01*
X0036278Y0030198D01*
X0036312Y0030179D01*
X0036340Y0030151D01*
X0036360Y0030116D01*
X0036370Y0030078D01*
X0036370Y0029724D01*
G37*
%LPD*%
%LPC*%
G36*
X0036370Y0034960D02*
X0036370Y0034960D01*
X0035787Y0034960D01*
X0035787Y0035445D01*
X0036240Y0035445D01*
X0036242Y0035444D01*
X0036278Y0035435D01*
X0036312Y0035415D01*
X0036340Y0035387D01*
X0036360Y0035353D01*
X0036370Y0035315D01*
X0036370Y0034960D01*
G37*
%LPD*%
%LPC*%
G36*
X0036370Y0034488D02*
X0036370Y0034488D01*
X0036360Y0034449D01*
X0036340Y0034415D01*
X0036312Y0034387D01*
X0036278Y0034368D01*
X0036240Y0034357D01*
X0035787Y0034357D01*
X0035787Y0034842D01*
X0036370Y0034842D01*
X0036370Y0034488D01*
G37*
%LPD*%
%LPC*%
G36*
X0036370Y0029251D02*
X0036370Y0029251D01*
X0036360Y0029213D01*
X0036340Y0029179D01*
X0036312Y0029151D01*
X0036278Y0029131D01*
X0036240Y0029121D01*
X0035787Y0029121D01*
X0035787Y0029606D01*
X0036370Y0029606D01*
X0036370Y0029251D01*
G37*
%LPD*%
%LPC*%
G36*
X0034995Y0032800D02*
X0034995Y0032800D01*
X0034975Y0032779D01*
X0034434Y0032779D01*
X0034413Y0032800D01*
X0034410Y0032803D01*
X0034409Y0032803D01*
X0034408Y0032804D01*
X0034408Y0032804D01*
X0034407Y0032805D01*
X0034406Y0032805D01*
X0034405Y0032806D01*
X0034401Y0032807D01*
X0034399Y0032808D01*
X0034399Y0032808D01*
X0034398Y0032808D01*
X0034397Y0032809D01*
X0034396Y0032809D01*
X0034395Y0032809D01*
X0034392Y0032809D01*
X0034370Y0032809D01*
X0034366Y0032808D01*
X0034363Y0032808D01*
X0034362Y0032808D01*
X0034361Y0032807D01*
X0034357Y0032806D01*
X0034354Y0032804D01*
X0034353Y0032803D01*
X0034352Y0032803D01*
X0034352Y0032802D01*
X0034349Y0032800D01*
X0034302Y0032753D01*
X0034301Y0032752D01*
X0034300Y0032751D01*
X0034298Y0032748D01*
X0034296Y0032745D01*
X0034296Y0032744D01*
X0034295Y0032743D01*
X0034294Y0032739D01*
X0034293Y0032736D01*
X0034293Y0032735D01*
X0034293Y0032734D01*
X0034294Y0032730D01*
X0034294Y0032726D01*
X0034294Y0032725D01*
X0034294Y0032724D01*
X0034296Y0032721D01*
X0034297Y0032717D01*
X0034298Y0032716D01*
X0034298Y0032715D01*
X0034302Y0032711D01*
X0034346Y0032667D01*
X0034346Y0032552D01*
X0034265Y0032471D01*
X0034150Y0032471D01*
X0034069Y0032552D01*
X0034069Y0032667D01*
X0034134Y0032732D01*
X0034136Y0032735D01*
X0034139Y0032738D01*
X0034139Y0032739D01*
X0034140Y0032740D01*
X0034141Y0032744D01*
X0034142Y0032747D01*
X0034142Y0032749D01*
X0034143Y0032749D01*
X0034143Y0032750D01*
X0034143Y0032753D01*
X0034143Y0032776D01*
X0034305Y0032938D01*
X0034392Y0032938D01*
X0034393Y0032938D01*
X0034394Y0032938D01*
X0034396Y0032939D01*
X0034400Y0032939D01*
X0034401Y0032939D01*
X0034402Y0032940D01*
X0034403Y0032940D01*
X0034403Y0032940D01*
X0034405Y0032941D01*
X0034405Y0032941D01*
X0034408Y0032943D01*
X0034409Y0032944D01*
X0034410Y0032944D01*
X0034411Y0032945D01*
X0034413Y0032947D01*
X0034434Y0032968D01*
X0034975Y0032968D01*
X0034995Y0032947D01*
X0034995Y0032800D01*
G37*
%LPD*%
%LPC*%
G36*
X0035526Y0030852D02*
X0035526Y0030852D01*
X0035445Y0030771D01*
X0035330Y0030771D01*
X0035270Y0030832D01*
X0035266Y0030834D01*
X0035263Y0030836D01*
X0035263Y0030837D01*
X0035262Y0030837D01*
X0035258Y0030839D01*
X0035254Y0030840D01*
X0035253Y0030840D01*
X0035253Y0030840D01*
X0035252Y0030840D01*
X0035249Y0030840D01*
X0035016Y0030840D01*
X0035013Y0030840D01*
X0035009Y0030839D01*
X0035008Y0030839D01*
X0035007Y0030839D01*
X0035004Y0030837D01*
X0035000Y0030835D01*
X0034999Y0030835D01*
X0034998Y0030834D01*
X0034998Y0030834D01*
X0034996Y0030832D01*
X0034975Y0030811D01*
X0034434Y0030811D01*
X0034413Y0030831D01*
X0034413Y0030979D01*
X0034434Y0030999D01*
X0034975Y0030999D01*
X0034996Y0030978D01*
X0034999Y0030976D01*
X0035002Y0030974D01*
X0035003Y0030973D01*
X0035003Y0030973D01*
X0035007Y0030971D01*
X0035011Y0030970D01*
X0035012Y0030970D01*
X0035013Y0030970D01*
X0035013Y0030970D01*
X0035016Y0030970D01*
X0035239Y0030970D01*
X0035243Y0030970D01*
X0035247Y0030971D01*
X0035248Y0030971D01*
X0035249Y0030971D01*
X0035252Y0030973D01*
X0035256Y0030975D01*
X0035257Y0030975D01*
X0035257Y0030976D01*
X0035258Y0030976D01*
X0035260Y0030978D01*
X0035330Y0031048D01*
X0035445Y0031048D01*
X0035526Y0030967D01*
X0035526Y0030852D01*
G37*
%LPD*%
%LPC*%
G36*
X0035376Y0032732D02*
X0035376Y0032732D01*
X0035295Y0032651D01*
X0035243Y0032651D01*
X0035239Y0032651D01*
X0035235Y0032650D01*
X0035234Y0032650D01*
X0035233Y0032650D01*
X0035230Y0032648D01*
X0035226Y0032646D01*
X0035225Y0032645D01*
X0035225Y0032645D01*
X0035224Y0032644D01*
X0035222Y0032643D01*
X0035041Y0032462D01*
X0035004Y0032425D01*
X0035002Y0032422D01*
X0034999Y0032419D01*
X0034999Y0032418D01*
X0034998Y0032417D01*
X0034997Y0032413D01*
X0034996Y0032410D01*
X0034996Y0032408D01*
X0034995Y0032408D01*
X0034995Y0032407D01*
X0034995Y0032407D01*
X0034975Y0032386D01*
X0034434Y0032386D01*
X0034413Y0032406D01*
X0034413Y0032553D01*
X0034434Y0032574D01*
X0034958Y0032574D01*
X0034962Y0032575D01*
X0034966Y0032575D01*
X0034967Y0032575D01*
X0034968Y0032575D01*
X0034971Y0032577D01*
X0034974Y0032579D01*
X0034975Y0032580D01*
X0034976Y0032580D01*
X0034977Y0032581D01*
X0034979Y0032582D01*
X0035093Y0032697D01*
X0035094Y0032697D01*
X0035094Y0032698D01*
X0035096Y0032701D01*
X0035099Y0032704D01*
X0035099Y0032705D01*
X0035099Y0032706D01*
X0035100Y0032710D01*
X0035101Y0032714D01*
X0035101Y0032715D01*
X0035102Y0032715D01*
X0035101Y0032719D01*
X0035101Y0032723D01*
X0035101Y0032724D01*
X0035101Y0032725D01*
X0035099Y0032729D01*
X0035099Y0032729D01*
X0035099Y0032847D01*
X0035180Y0032928D01*
X0035295Y0032928D01*
X0035376Y0032847D01*
X0035376Y0032732D01*
G37*
%LPD*%
%LPC*%
G36*
X0034995Y0031225D02*
X0034995Y0031225D01*
X0034975Y0031205D01*
X0034434Y0031205D01*
X0034413Y0031225D01*
X0034413Y0031372D01*
X0034434Y0031393D01*
X0034975Y0031393D01*
X0034995Y0031372D01*
X0034995Y0031225D01*
G37*
%LPD*%
%LPC*%
G36*
X0034995Y0030438D02*
X0034995Y0030438D01*
X0034975Y0030417D01*
X0034434Y0030417D01*
X0034413Y0030438D01*
X0034413Y0030585D01*
X0034434Y0030605D01*
X0034975Y0030605D01*
X0034995Y0030585D01*
X0034995Y0030438D01*
G37*
%LPD*%
%LPC*%
G36*
X0029446Y0032852D02*
X0029446Y0032852D01*
X0029365Y0032771D01*
X0029250Y0032771D01*
X0029169Y0032852D01*
X0029169Y0032967D01*
X0029250Y0033048D01*
X0029365Y0033048D01*
X0029446Y0032967D01*
X0029446Y0032852D01*
G37*
%LPD*%
%LPC*%
G36*
X0033896Y0033542D02*
X0033896Y0033542D01*
X0033815Y0033461D01*
X0033700Y0033461D01*
X0033619Y0033542D01*
X0033619Y0033657D01*
X0033700Y0033738D01*
X0033815Y0033738D01*
X0033896Y0033657D01*
X0033896Y0033542D01*
G37*
%LPD*%
%LPC*%
G36*
X0033606Y0032212D02*
X0033606Y0032212D01*
X0033525Y0032131D01*
X0033410Y0032131D01*
X0033329Y0032212D01*
X0033329Y0032327D01*
X0033410Y0032408D01*
X0033525Y0032408D01*
X0033606Y0032327D01*
X0033606Y0032212D01*
G37*
%LPD*%
%LPC*%
G36*
X0033576Y0029752D02*
X0033576Y0029752D01*
X0033495Y0029671D01*
X0033380Y0029671D01*
X0033299Y0029752D01*
X0033299Y0029867D01*
X0033380Y0029948D01*
X0033495Y0029948D01*
X0033576Y0029867D01*
X0033576Y0029752D01*
G37*
%LPD*%
%LPC*%
G36*
X0035426Y0031252D02*
X0035426Y0031252D01*
X0035345Y0031171D01*
X0035230Y0031171D01*
X0035149Y0031252D01*
X0035149Y0031367D01*
X0035230Y0031448D01*
X0035345Y0031448D01*
X0035426Y0031367D01*
X0035426Y0031252D01*
G37*
%LPD*%
%LPC*%
G36*
X0032656Y0031492D02*
X0032656Y0031492D01*
X0032575Y0031411D01*
X0032460Y0031411D01*
X0032379Y0031492D01*
X0032379Y0031607D01*
X0032460Y0031688D01*
X0032575Y0031688D01*
X0032656Y0031607D01*
X0032656Y0031492D01*
G37*
%LPD*%
%LPC*%
G36*
X0032636Y0034016D02*
X0032636Y0034016D01*
X0032555Y0033935D01*
X0032441Y0033935D01*
X0032360Y0034016D01*
X0032360Y0034131D01*
X0032441Y0034212D01*
X0032555Y0034212D01*
X0032636Y0034131D01*
X0032636Y0034016D01*
G37*
%LPD*%
%LPC*%
G36*
X0029506Y0030392D02*
X0029506Y0030392D01*
X0029425Y0030311D01*
X0029310Y0030311D01*
X0029229Y0030392D01*
X0029229Y0030507D01*
X0029310Y0030588D01*
X0029425Y0030588D01*
X0029506Y0030507D01*
X0029506Y0030392D01*
G37*
%LPD*%
%LPC*%
G36*
X0034675Y0034084D02*
X0034675Y0034084D01*
X0034298Y0034084D01*
X0034298Y0034133D01*
X0034309Y0034172D01*
X0034328Y0034206D01*
X0034356Y0034234D01*
X0034390Y0034253D01*
X0034429Y0034264D01*
X0034675Y0034264D01*
X0034675Y0034084D01*
G37*
%LPD*%
%LPC*%
G36*
X0034675Y0033846D02*
X0034675Y0033846D01*
X0034429Y0033846D01*
X0034399Y0033853D01*
X0034390Y0033856D01*
X0034356Y0033876D01*
X0034328Y0033903D01*
X0034309Y0033938D01*
X0034298Y0033976D01*
X0034298Y0034025D01*
X0034675Y0034025D01*
X0034675Y0033846D01*
G37*
%LPD*%
%LPC*%
G36*
X0035728Y0034901D02*
X0035728Y0034901D01*
X0035728Y0034901D01*
X0035728Y0034901D01*
X0035728Y0034901D01*
X0035728Y0034901D01*
G37*
%LPD*%
%LPC*%
G36*
X0035728Y0029665D02*
X0035728Y0029665D01*
X0035728Y0029665D01*
X0035728Y0029665D01*
X0035728Y0029665D01*
X0035728Y0029665D01*
G37*
%LPD*%
D10*
X0032048Y0035010D02*
X0031974Y0035269D01*
X0032159Y0035269D01*
X0032104Y0035195D02*
X0032104Y0035344D01*
D11*
X0034704Y0034055D03*
X0034704Y0033661D03*
X0034704Y0033267D03*
X0034704Y0032874D03*
X0034704Y0032480D03*
X0034704Y0032086D03*
X0034704Y0031692D03*
X0034704Y0031299D03*
X0034704Y0030905D03*
X0034704Y0030511D03*
D12*
X0035728Y0029665D03*
X0035728Y0034901D03*
D13*
X0004724Y0033070D03*
X0020078Y0031496D03*
D14*
X0029197Y0034040D03*
X0028777Y0033620D03*
X0027741Y0034532D03*
X0026691Y0035512D03*
X0027151Y0035512D03*
X0028544Y0034649D03*
X0026660Y0034886D03*
X0027615Y0031945D03*
X0026664Y0031942D03*
X0029324Y0031832D03*
X0029114Y0032332D03*
X0028074Y0031212D03*
X0029934Y0031492D03*
X0031384Y0031502D03*
X0030694Y0032312D03*
X0031982Y0034059D03*
X0031472Y0034039D03*
X0033062Y0031263D03*
X0033082Y0032743D03*
X0033052Y0033873D03*
X0034689Y0030025D03*
X0034069Y0030505D03*
X0026967Y0030317D03*
X0027617Y0031027D03*
X0026687Y0031047D03*
X0027505Y0032385D03*
X0027454Y0029456D03*
X0025348Y0031832D03*
X0025338Y0032972D03*
X0027488Y0033232D03*
X0028108Y0032922D03*
X0026638Y0033562D03*
X0036705Y0035547D03*
X0036351Y0035577D03*
X0036745Y0035183D03*
X0036701Y0029034D03*
X0036378Y0028974D03*
X0036771Y0029368D03*
X0025345Y0028970D03*
X0025345Y0029364D03*
X0025739Y0028970D03*
X0025346Y0035577D03*
X0025740Y0035577D03*
X0025346Y0035183D03*
X0025353Y0031164D03*
X0026093Y0031164D03*
X0026093Y0031834D03*
X0030674Y0030972D03*
X0031520Y0035511D03*
X0029890Y0035451D03*
X0031660Y0029031D03*
X0029960Y0029021D03*
X0034721Y0034514D03*
X0034041Y0034044D03*
X0029546Y0035278D03*
X0029951Y0032986D03*
X0032078Y0031761D03*
X0004724Y0033070D03*
D15*
X0024409Y0033070D01*
X0025239Y0033070D01*
X0025338Y0032972D01*
D14*
X0024409Y0033070D03*
X0034067Y0031290D03*
X0035287Y0031310D03*
X0033467Y0032270D03*
X0032517Y0031550D03*
X0032498Y0034074D03*
X0029307Y0032910D03*
X0029367Y0030450D03*
D16*
X0034085Y0033267D02*
X0034704Y0033267D01*
X0033967Y0033150D02*
X0033927Y0033150D01*
D14*
X0033927Y0033150D03*
D16*
X0033967Y0033150D02*
X0034085Y0033267D01*
X0034704Y0033267D02*
X0035235Y0033267D01*
X0035267Y0033300D01*
D14*
X0035267Y0033300D03*
X0031497Y0033250D03*
X0033437Y0029810D03*
D17*
X0034350Y0031692D02*
X0034704Y0031692D01*
X0034350Y0031692D02*
X0034207Y0031550D01*
X0033787Y0031550D01*
D14*
X0033787Y0031550D03*
X0033957Y0030920D03*
D17*
X0033040Y0031838D01*
X0032107Y0032150D02*
X0031837Y0032150D01*
D14*
X0031837Y0032150D03*
D17*
X0032420Y0031838D02*
X0033040Y0031838D01*
X0032420Y0031838D02*
X0032107Y0032150D01*
D14*
X0033757Y0033600D03*
X0035387Y0030910D03*
D17*
X0035383Y0030905D01*
X0034704Y0030905D01*
D14*
X0024409Y0031496D03*
D15*
X0020078Y0031496D01*
D14*
X0020078Y0031496D03*
X0034187Y0031870D03*
D17*
X0034034Y0031970D02*
X0032457Y0031970D01*
X0034034Y0031970D02*
X0034134Y0031870D01*
X0034187Y0031870D01*
X0031377Y0033050D02*
X0030337Y0033050D01*
X0030127Y0033260D02*
X0029637Y0033260D01*
X0030127Y0033260D02*
X0030337Y0033050D01*
D14*
X0029637Y0033260D03*
D17*
X0031377Y0033050D02*
X0032457Y0031970D01*
X0034331Y0032874D02*
X0034704Y0032874D01*
X0034331Y0032874D02*
X0034207Y0032750D01*
X0034207Y0032610D01*
D14*
X0034207Y0032610D03*
D17*
X0034704Y0033661D02*
X0035356Y0033661D01*
X0035517Y0033500D02*
X0035517Y0032560D01*
X0035307Y0032350D02*
X0035217Y0032350D01*
X0035307Y0032350D02*
X0035517Y0032560D01*
D14*
X0035217Y0032350D03*
D17*
X0035517Y0033500D02*
X0035356Y0033661D01*
X0034968Y0032480D02*
X0034704Y0032480D01*
X0035237Y0032750D02*
X0035237Y0032790D01*
X0035237Y0032750D02*
X0034968Y0032480D01*
D14*
X0035237Y0032790D03*
D17*
X0035324Y0032086D02*
X0034704Y0032086D01*
X0035627Y0032390D02*
X0035627Y0033640D01*
X0035277Y0033990D02*
X0035277Y0034060D01*
X0035277Y0033990D02*
X0035627Y0033640D01*
D14*
X0035277Y0034060D03*
D17*
X0035627Y0032390D02*
X0035324Y0032086D01*
D18*
X0032342Y0035531D02*
X0031791Y0035531D01*
X0031791Y0034822D01*
X0032342Y0034822D01*
X0032342Y0035531D01*
G04 next file*
G04 EAGLE Gerber RS-274X export*
G75*
G01*
G36*
X0003228Y0022440D02*
X0003228Y0022440D01*
X0003228Y0022438D01*
X0003234Y0022382D01*
X0003234Y0022380D01*
X0003234Y0022379D01*
X0003236Y0022373D01*
X0003278Y0022271D01*
X0003280Y0022268D01*
X0003281Y0022266D01*
X0003283Y0022263D01*
X0003283Y0022262D01*
X0003284Y0022262D01*
X0003285Y0022261D01*
X0003363Y0022182D01*
X0003366Y0022181D01*
X0003368Y0022179D01*
X0003370Y0022177D01*
X0003371Y0022177D01*
X0003372Y0022176D01*
X0003373Y0022176D01*
X0003476Y0022133D01*
X0003477Y0022133D01*
X0003479Y0022132D01*
X0003484Y0022131D01*
X0003540Y0022126D01*
X0003541Y0022126D01*
X0003543Y0022126D01*
X0014915Y0022126D01*
X0014919Y0022126D01*
X0014923Y0022127D01*
X0014924Y0022127D01*
X0014925Y0022127D01*
X0014928Y0022129D01*
X0014932Y0022130D01*
X0014933Y0022131D01*
X0014933Y0022132D01*
X0014934Y0022132D01*
X0014936Y0022134D01*
X0014981Y0022179D01*
X0014983Y0022182D01*
X0014986Y0022185D01*
X0014986Y0022186D01*
X0014987Y0022187D01*
X0014988Y0022190D01*
X0014989Y0022194D01*
X0014989Y0022195D01*
X0014989Y0022196D01*
X0014989Y0022197D01*
X0014990Y0022200D01*
X0014990Y0028980D01*
X0014989Y0028984D01*
X0014989Y0028988D01*
X0014988Y0028989D01*
X0014988Y0028990D01*
X0014986Y0028993D01*
X0014985Y0028997D01*
X0014984Y0028998D01*
X0014984Y0028998D01*
X0014983Y0028999D01*
X0014981Y0029001D01*
X0014936Y0029046D01*
X0014933Y0029048D01*
X0014930Y0029051D01*
X0014929Y0029051D01*
X0014928Y0029052D01*
X0014925Y0029053D01*
X0014921Y0029054D01*
X0014920Y0029054D01*
X0014919Y0029054D01*
X0014918Y0029054D01*
X0014915Y0029055D01*
X0003543Y0029055D01*
X0003542Y0029054D01*
X0003540Y0029054D01*
X0003484Y0029049D01*
X0003483Y0029049D01*
X0003481Y0029049D01*
X0003476Y0029047D01*
X0003373Y0029004D01*
X0003370Y0029003D01*
X0003368Y0029002D01*
X0003366Y0029000D01*
X0003365Y0028999D01*
X0003364Y0028999D01*
X0003363Y0028998D01*
X0003285Y0028919D01*
X0003283Y0028917D01*
X0003281Y0028915D01*
X0003281Y0028915D01*
X0003280Y0028912D01*
X0003279Y0028911D01*
X0003279Y0028911D01*
X0003278Y0028910D01*
X0003236Y0028807D01*
X0003235Y0028805D01*
X0003235Y0028804D01*
X0003234Y0028798D01*
X0003228Y0028743D01*
X0003228Y0028742D01*
X0003228Y0028740D01*
X0003228Y0022440D01*
X0003228Y0022440D01*
G37*
G36*
X0019468Y0025195D02*
X0019468Y0025195D01*
X0019468Y0025194D01*
X0019469Y0025188D01*
X0019470Y0025183D01*
X0019470Y0025182D01*
X0019470Y0025180D01*
X0019472Y0025175D01*
X0019474Y0025170D01*
X0019475Y0025169D01*
X0019476Y0025168D01*
X0019479Y0025163D01*
X0019482Y0025159D01*
X0019483Y0025158D01*
X0019483Y0025157D01*
X0019488Y0025153D01*
X0019492Y0025149D01*
X0019493Y0025149D01*
X0019494Y0025148D01*
X0019499Y0025145D01*
X0019503Y0025142D01*
X0019505Y0025142D01*
X0019506Y0025141D01*
X0019511Y0025140D01*
X0019516Y0025138D01*
X0019518Y0025138D01*
X0019519Y0025138D01*
X0019527Y0025137D01*
X0020629Y0025137D01*
X0020631Y0025137D01*
X0020632Y0025137D01*
X0020638Y0025138D01*
X0020643Y0025139D01*
X0020644Y0025139D01*
X0020646Y0025140D01*
X0020651Y0025142D01*
X0020656Y0025144D01*
X0020657Y0025144D01*
X0020658Y0025145D01*
X0020663Y0025148D01*
X0020667Y0025151D01*
X0020668Y0025152D01*
X0020669Y0025153D01*
X0020673Y0025157D01*
X0020677Y0025161D01*
X0020677Y0025162D01*
X0020678Y0025163D01*
X0020681Y0025168D01*
X0020683Y0025173D01*
X0020684Y0025174D01*
X0020685Y0025175D01*
X0020686Y0025180D01*
X0020687Y0025186D01*
X0020688Y0025187D01*
X0020688Y0025188D01*
X0020688Y0025196D01*
X0020688Y0027027D01*
X0020688Y0027028D01*
X0020688Y0027030D01*
X0020687Y0027035D01*
X0020687Y0027041D01*
X0020686Y0027042D01*
X0020686Y0027043D01*
X0020684Y0027048D01*
X0020682Y0027053D01*
X0020682Y0027055D01*
X0020681Y0027056D01*
X0020678Y0027060D01*
X0020675Y0027065D01*
X0020674Y0027066D01*
X0020673Y0027067D01*
X0020669Y0027070D01*
X0020665Y0027074D01*
X0020664Y0027075D01*
X0020663Y0027076D01*
X0020658Y0027078D01*
X0020653Y0027081D01*
X0020652Y0027081D01*
X0020651Y0027082D01*
X0020645Y0027083D01*
X0020640Y0027085D01*
X0020639Y0027085D01*
X0020637Y0027086D01*
X0020629Y0027086D01*
X0019527Y0027086D01*
X0019526Y0027086D01*
X0019524Y0027086D01*
X0019519Y0027085D01*
X0019514Y0027085D01*
X0019512Y0027084D01*
X0019511Y0027084D01*
X0019506Y0027082D01*
X0019501Y0027080D01*
X0019500Y0027079D01*
X0019498Y0027079D01*
X0019494Y0027075D01*
X0019489Y0027072D01*
X0019488Y0027071D01*
X0019487Y0027071D01*
X0019484Y0027067D01*
X0019480Y0027063D01*
X0019479Y0027061D01*
X0019478Y0027060D01*
X0019476Y0027056D01*
X0019473Y0027051D01*
X0019473Y0027050D01*
X0019472Y0027048D01*
X0019471Y0027043D01*
X0019469Y0027038D01*
X0019469Y0027036D01*
X0019469Y0027035D01*
X0019468Y0027027D01*
X0019468Y0025196D01*
X0019468Y0025195D01*
G37*
G36*
X0034823Y0024152D02*
X0034823Y0024152D01*
X0034822Y0024150D01*
X0034823Y0024145D01*
X0034824Y0024140D01*
X0034824Y0024138D01*
X0034825Y0024137D01*
X0034827Y0024132D01*
X0034829Y0024127D01*
X0034829Y0024126D01*
X0034830Y0024124D01*
X0034833Y0024120D01*
X0034836Y0024115D01*
X0034837Y0024114D01*
X0034838Y0024113D01*
X0034842Y0024110D01*
X0034846Y0024106D01*
X0034847Y0024105D01*
X0034848Y0024104D01*
X0034853Y0024102D01*
X0034858Y0024099D01*
X0034859Y0024099D01*
X0034860Y0024098D01*
X0034865Y0024097D01*
X0034871Y0024095D01*
X0034872Y0024095D01*
X0034873Y0024095D01*
X0034881Y0024094D01*
X0035984Y0024094D01*
X0035985Y0024094D01*
X0035987Y0024094D01*
X0035992Y0024095D01*
X0035997Y0024096D01*
X0035999Y0024096D01*
X0036000Y0024096D01*
X0036005Y0024098D01*
X0036010Y0024100D01*
X0036011Y0024101D01*
X0036013Y0024102D01*
X0036017Y0024105D01*
X0036021Y0024108D01*
X0036022Y0024109D01*
X0036024Y0024109D01*
X0036027Y0024114D01*
X0036031Y0024117D01*
X0036032Y0024119D01*
X0036032Y0024120D01*
X0036035Y0024125D01*
X0036038Y0024129D01*
X0036038Y0024131D01*
X0036039Y0024132D01*
X0036040Y0024137D01*
X0036042Y0024142D01*
X0036042Y0024144D01*
X0036042Y0024145D01*
X0036043Y0024153D01*
X0036043Y0025984D01*
X0036043Y0025985D01*
X0036043Y0025987D01*
X0036042Y0025992D01*
X0036041Y0025997D01*
X0036041Y0025999D01*
X0036041Y0026000D01*
X0036038Y0026005D01*
X0036037Y0026010D01*
X0036036Y0026011D01*
X0036035Y0026013D01*
X0036032Y0026017D01*
X0036029Y0026021D01*
X0036028Y0026022D01*
X0036027Y0026024D01*
X0036023Y0026027D01*
X0036019Y0026031D01*
X0036018Y0026032D01*
X0036017Y0026032D01*
X0036012Y0026035D01*
X0036008Y0026038D01*
X0036006Y0026038D01*
X0036005Y0026039D01*
X0036000Y0026040D01*
X0035995Y0026042D01*
X0035993Y0026042D01*
X0035992Y0026042D01*
X0035984Y0026043D01*
X0034881Y0026043D01*
X0034880Y0026043D01*
X0034879Y0026043D01*
X0034873Y0026042D01*
X0034868Y0026041D01*
X0034867Y0026041D01*
X0034865Y0026041D01*
X0034860Y0026038D01*
X0034855Y0026037D01*
X0034854Y0026036D01*
X0034853Y0026035D01*
X0034848Y0026032D01*
X0034844Y0026029D01*
X0034843Y0026028D01*
X0034842Y0026027D01*
X0034838Y0026023D01*
X0034834Y0026019D01*
X0034834Y0026018D01*
X0034833Y0026017D01*
X0034830Y0026012D01*
X0034827Y0026008D01*
X0034827Y0026006D01*
X0034826Y0026005D01*
X0034825Y0026000D01*
X0034823Y0025995D01*
X0034823Y0025993D01*
X0034823Y0025992D01*
X0034822Y0025984D01*
X0034822Y0024153D01*
X0034823Y0024152D01*
G37*
%LPC*%
G36*
X0006122Y0023067D02*
X0006122Y0023067D01*
X0006145Y0023090D01*
X0007736Y0023090D01*
X0007740Y0023091D01*
X0007744Y0023091D01*
X0007745Y0023091D01*
X0007746Y0023092D01*
X0007749Y0023093D01*
X0007753Y0023095D01*
X0007754Y0023096D01*
X0007754Y0023096D01*
X0007755Y0023097D01*
X0007757Y0023099D01*
X0007784Y0023125D01*
X0008396Y0023125D01*
X0008440Y0023082D01*
X0008440Y0022311D01*
X0008396Y0022268D01*
X0007784Y0022268D01*
X0007757Y0022294D01*
X0007754Y0022296D01*
X0007751Y0022299D01*
X0007750Y0022299D01*
X0007749Y0022300D01*
X0007746Y0022301D01*
X0007742Y0022302D01*
X0007741Y0022302D01*
X0007740Y0022302D01*
X0007739Y0022302D01*
X0007736Y0022303D01*
X0006145Y0022303D01*
X0006122Y0022326D01*
X0006122Y0023067D01*
G37*
%LPD*%
%LPC*%
G36*
X0005161Y0026254D02*
X0005161Y0026254D01*
X0005182Y0026275D01*
X0005723Y0026275D01*
X0005744Y0026254D01*
X0005747Y0026252D01*
X0005748Y0026251D01*
X0005748Y0026250D01*
X0005749Y0026250D01*
X0005750Y0026249D01*
X0005751Y0026249D01*
X0005751Y0026248D01*
X0005755Y0026247D01*
X0005757Y0026246D01*
X0005758Y0026246D01*
X0005759Y0026246D01*
X0005760Y0026246D01*
X0005761Y0026245D01*
X0005762Y0026245D01*
X0005764Y0026245D01*
X0005767Y0026245D01*
X0005771Y0026246D01*
X0005775Y0026246D01*
X0005776Y0026247D01*
X0005777Y0026247D01*
X0005780Y0026249D01*
X0005784Y0026250D01*
X0005785Y0026251D01*
X0005785Y0026251D01*
X0005786Y0026252D01*
X0005788Y0026254D01*
X0005876Y0026341D01*
X0005922Y0026388D01*
X0006018Y0026388D01*
X0006020Y0026388D01*
X0006023Y0026388D01*
X0006025Y0026389D01*
X0006027Y0026389D01*
X0006030Y0026391D01*
X0006032Y0026392D01*
X0006034Y0026393D01*
X0006036Y0026394D01*
X0006038Y0026396D01*
X0006040Y0026398D01*
X0006041Y0026400D01*
X0006042Y0026401D01*
X0006043Y0026404D01*
X0006045Y0026406D01*
X0006045Y0026408D01*
X0006046Y0026410D01*
X0006046Y0026413D01*
X0006047Y0026415D01*
X0006047Y0026417D01*
X0006047Y0026419D01*
X0006046Y0026422D01*
X0006046Y0026425D01*
X0006045Y0026427D01*
X0006045Y0026429D01*
X0006043Y0026431D01*
X0006042Y0026434D01*
X0006040Y0026436D01*
X0006040Y0026437D01*
X0006039Y0026437D01*
X0006039Y0026438D01*
X0005951Y0026526D01*
X0005951Y0026641D01*
X0006032Y0026722D01*
X0006146Y0026722D01*
X0006227Y0026641D01*
X0006227Y0026526D01*
X0006140Y0026438D01*
X0006138Y0026436D01*
X0006136Y0026434D01*
X0006135Y0026432D01*
X0006134Y0026430D01*
X0006133Y0026428D01*
X0006132Y0026425D01*
X0006132Y0026423D01*
X0006131Y0026421D01*
X0006131Y0026418D01*
X0006131Y0026415D01*
X0006132Y0026414D01*
X0006132Y0026412D01*
X0006133Y0026409D01*
X0006133Y0026406D01*
X0006134Y0026405D01*
X0006135Y0026403D01*
X0006137Y0026400D01*
X0006138Y0026398D01*
X0006140Y0026397D01*
X0006141Y0026395D01*
X0006144Y0026394D01*
X0006146Y0026392D01*
X0006148Y0026391D01*
X0006149Y0026390D01*
X0006152Y0026390D01*
X0006155Y0026388D01*
X0006158Y0026388D01*
X0006159Y0026388D01*
X0006159Y0026388D01*
X0006161Y0026388D01*
X0006226Y0026388D01*
X0006230Y0026389D01*
X0006233Y0026389D01*
X0006234Y0026389D01*
X0006235Y0026389D01*
X0006239Y0026391D01*
X0006242Y0026393D01*
X0006243Y0026394D01*
X0006244Y0026394D01*
X0006244Y0026395D01*
X0006247Y0026397D01*
X0006312Y0026462D01*
X0006426Y0026462D01*
X0006507Y0026381D01*
X0006507Y0026266D01*
X0006426Y0026185D01*
X0006312Y0026185D01*
X0006247Y0026250D01*
X0006243Y0026252D01*
X0006241Y0026255D01*
X0006240Y0026255D01*
X0006239Y0026256D01*
X0006235Y0026257D01*
X0006232Y0026258D01*
X0006230Y0026258D01*
X0006230Y0026259D01*
X0006229Y0026259D01*
X0006226Y0026259D01*
X0005988Y0026259D01*
X0005984Y0026258D01*
X0005980Y0026258D01*
X0005980Y0026257D01*
X0005979Y0026257D01*
X0005975Y0026255D01*
X0005972Y0026254D01*
X0005971Y0026253D01*
X0005970Y0026253D01*
X0005969Y0026252D01*
X0005967Y0026250D01*
X0005909Y0026192D01*
X0005907Y0026189D01*
X0005905Y0026187D01*
X0005904Y0026185D01*
X0005903Y0026184D01*
X0005902Y0026181D01*
X0005901Y0026178D01*
X0005901Y0026176D01*
X0005900Y0026175D01*
X0005900Y0026172D01*
X0005900Y0026169D01*
X0005901Y0026167D01*
X0005901Y0026165D01*
X0005902Y0026162D01*
X0005902Y0026160D01*
X0005903Y0026158D01*
X0005904Y0026156D01*
X0005906Y0026154D01*
X0005907Y0026151D01*
X0005909Y0026150D01*
X0005910Y0026149D01*
X0005912Y0026147D01*
X0005915Y0026145D01*
X0005917Y0026145D01*
X0005918Y0026144D01*
X0005921Y0026143D01*
X0005924Y0026142D01*
X0005927Y0026142D01*
X0005928Y0026141D01*
X0005928Y0026141D01*
X0005930Y0026141D01*
X0006026Y0026141D01*
X0006107Y0026060D01*
X0006107Y0026021D01*
X0006108Y0026018D01*
X0006108Y0026014D01*
X0006109Y0026013D01*
X0006109Y0026012D01*
X0006111Y0026008D01*
X0006112Y0026005D01*
X0006113Y0026004D01*
X0006114Y0026003D01*
X0006114Y0026003D01*
X0006116Y0026000D01*
X0006141Y0025976D01*
X0006144Y0025974D01*
X0006147Y0025971D01*
X0006148Y0025971D01*
X0006148Y0025970D01*
X0006152Y0025969D01*
X0006156Y0025968D01*
X0006157Y0025968D01*
X0006158Y0025968D01*
X0006158Y0025968D01*
X0006161Y0025967D01*
X0007023Y0025967D01*
X0007025Y0025968D01*
X0007028Y0025968D01*
X0007030Y0025969D01*
X0007032Y0025969D01*
X0007035Y0025970D01*
X0007037Y0025971D01*
X0007039Y0025973D01*
X0007040Y0025974D01*
X0007042Y0025976D01*
X0007045Y0025977D01*
X0007046Y0025979D01*
X0007047Y0025981D01*
X0007048Y0025983D01*
X0007050Y0025986D01*
X0007050Y0025988D01*
X0007051Y0025989D01*
X0007051Y0025992D01*
X0007052Y0025995D01*
X0007052Y0025997D01*
X0007052Y0025999D01*
X0007051Y0026002D01*
X0007051Y0026005D01*
X0007050Y0026006D01*
X0007050Y0026008D01*
X0007048Y0026011D01*
X0007047Y0026013D01*
X0007045Y0026016D01*
X0007045Y0026016D01*
X0007044Y0026017D01*
X0007043Y0026018D01*
X0006255Y0026806D01*
X0006252Y0026809D01*
X0006249Y0026811D01*
X0006248Y0026811D01*
X0006247Y0026812D01*
X0006243Y0026813D01*
X0006240Y0026814D01*
X0006238Y0026815D01*
X0006238Y0026815D01*
X0006237Y0026815D01*
X0006234Y0026815D01*
X0006142Y0026815D01*
X0006061Y0026896D01*
X0006061Y0027011D01*
X0006142Y0027092D01*
X0006256Y0027092D01*
X0006337Y0027011D01*
X0006337Y0026919D01*
X0006338Y0026915D01*
X0006338Y0026911D01*
X0006339Y0026910D01*
X0006339Y0026909D01*
X0006341Y0026906D01*
X0006342Y0026902D01*
X0006343Y0026901D01*
X0006344Y0026901D01*
X0006344Y0026900D01*
X0006346Y0026898D01*
X0007135Y0026109D01*
X0007138Y0026106D01*
X0007141Y0026104D01*
X0007142Y0026104D01*
X0007143Y0026103D01*
X0007147Y0026102D01*
X0007150Y0026101D01*
X0007151Y0026100D01*
X0007152Y0026100D01*
X0007153Y0026100D01*
X0007156Y0026100D01*
X0007764Y0026100D01*
X0008067Y0025797D01*
X0008070Y0025794D01*
X0008073Y0025792D01*
X0008074Y0025792D01*
X0008075Y0025791D01*
X0008079Y0025790D01*
X0008082Y0025788D01*
X0008084Y0025788D01*
X0008084Y0025788D01*
X0008085Y0025788D01*
X0008088Y0025788D01*
X0008176Y0025788D01*
X0008180Y0025789D01*
X0008183Y0025789D01*
X0008184Y0025789D01*
X0008185Y0025789D01*
X0008189Y0025791D01*
X0008192Y0025793D01*
X0008193Y0025794D01*
X0008194Y0025794D01*
X0008194Y0025795D01*
X0008197Y0025797D01*
X0008262Y0025862D01*
X0008376Y0025862D01*
X0008457Y0025781D01*
X0008457Y0025666D01*
X0008376Y0025585D01*
X0008262Y0025585D01*
X0008197Y0025650D01*
X0008193Y0025652D01*
X0008191Y0025655D01*
X0008190Y0025655D01*
X0008189Y0025656D01*
X0008185Y0025657D01*
X0008182Y0025658D01*
X0008180Y0025658D01*
X0008180Y0025659D01*
X0008179Y0025659D01*
X0008176Y0025659D01*
X0008106Y0025659D01*
X0008103Y0025658D01*
X0008100Y0025658D01*
X0008099Y0025658D01*
X0008097Y0025657D01*
X0008094Y0025656D01*
X0008091Y0025655D01*
X0008090Y0025654D01*
X0008088Y0025653D01*
X0008086Y0025651D01*
X0008084Y0025649D01*
X0008083Y0025647D01*
X0008082Y0025646D01*
X0008080Y0025643D01*
X0008079Y0025641D01*
X0008078Y0025639D01*
X0008078Y0025637D01*
X0008077Y0025634D01*
X0008077Y0025631D01*
X0008077Y0025629D01*
X0008077Y0025627D01*
X0008077Y0025625D01*
X0008078Y0025622D01*
X0008078Y0025620D01*
X0008079Y0025618D01*
X0008080Y0025616D01*
X0008082Y0025613D01*
X0008083Y0025611D01*
X0008084Y0025610D01*
X0008084Y0025609D01*
X0008085Y0025608D01*
X0008797Y0024897D01*
X0008800Y0024894D01*
X0008803Y0024892D01*
X0008804Y0024892D01*
X0008805Y0024891D01*
X0008809Y0024890D01*
X0008812Y0024888D01*
X0008814Y0024888D01*
X0008814Y0024888D01*
X0008815Y0024888D01*
X0008818Y0024888D01*
X0009846Y0024888D01*
X0010047Y0024687D01*
X0010050Y0024684D01*
X0010053Y0024682D01*
X0010054Y0024682D01*
X0010055Y0024681D01*
X0010059Y0024680D01*
X0010062Y0024678D01*
X0010064Y0024678D01*
X0010064Y0024678D01*
X0010065Y0024678D01*
X0010068Y0024678D01*
X0010376Y0024678D01*
X0010380Y0024679D01*
X0010383Y0024679D01*
X0010384Y0024679D01*
X0010385Y0024679D01*
X0010389Y0024681D01*
X0010392Y0024683D01*
X0010393Y0024684D01*
X0010394Y0024684D01*
X0010394Y0024685D01*
X0010397Y0024687D01*
X0010462Y0024752D01*
X0010576Y0024752D01*
X0010657Y0024671D01*
X0010657Y0024556D01*
X0010576Y0024475D01*
X0010462Y0024475D01*
X0010397Y0024540D01*
X0010393Y0024542D01*
X0010391Y0024545D01*
X0010390Y0024545D01*
X0010389Y0024546D01*
X0010385Y0024547D01*
X0010382Y0024548D01*
X0010380Y0024548D01*
X0010380Y0024549D01*
X0010379Y0024549D01*
X0010376Y0024549D01*
X0010002Y0024549D01*
X0009801Y0024750D01*
X0009798Y0024752D01*
X0009795Y0024755D01*
X0009794Y0024755D01*
X0009793Y0024756D01*
X0009790Y0024757D01*
X0009786Y0024758D01*
X0009785Y0024758D01*
X0009784Y0024759D01*
X0009783Y0024759D01*
X0009780Y0024759D01*
X0008791Y0024759D01*
X0008788Y0024758D01*
X0008785Y0024758D01*
X0008783Y0024758D01*
X0008781Y0024757D01*
X0008779Y0024756D01*
X0008776Y0024755D01*
X0008774Y0024754D01*
X0008773Y0024753D01*
X0008771Y0024751D01*
X0008768Y0024749D01*
X0008767Y0024747D01*
X0008766Y0024746D01*
X0008765Y0024743D01*
X0008763Y0024741D01*
X0008763Y0024739D01*
X0008762Y0024737D01*
X0008762Y0024734D01*
X0008761Y0024731D01*
X0008761Y0024729D01*
X0008761Y0024727D01*
X0008762Y0024725D01*
X0008762Y0024722D01*
X0008763Y0024720D01*
X0008763Y0024718D01*
X0008765Y0024716D01*
X0008766Y0024713D01*
X0008768Y0024711D01*
X0008768Y0024710D01*
X0008769Y0024709D01*
X0008770Y0024708D01*
X0008797Y0024681D01*
X0008797Y0024566D01*
X0008716Y0024485D01*
X0008602Y0024485D01*
X0008521Y0024566D01*
X0008521Y0024681D01*
X0008602Y0024762D01*
X0008678Y0024762D01*
X0008681Y0024762D01*
X0008684Y0024762D01*
X0008686Y0024763D01*
X0008688Y0024763D01*
X0008690Y0024765D01*
X0008693Y0024766D01*
X0008694Y0024767D01*
X0008696Y0024768D01*
X0008698Y0024770D01*
X0008700Y0024772D01*
X0008701Y0024773D01*
X0008703Y0024775D01*
X0008704Y0024777D01*
X0008705Y0024780D01*
X0008706Y0024782D01*
X0008707Y0024784D01*
X0008707Y0024786D01*
X0008708Y0024789D01*
X0008707Y0024791D01*
X0008708Y0024793D01*
X0008707Y0024796D01*
X0008707Y0024799D01*
X0008706Y0024801D01*
X0008705Y0024802D01*
X0008704Y0024805D01*
X0008703Y0024808D01*
X0008701Y0024810D01*
X0008700Y0024811D01*
X0008700Y0024811D01*
X0008699Y0024812D01*
X0007681Y0025830D01*
X0007678Y0025832D01*
X0007675Y0025834D01*
X0007674Y0025835D01*
X0007674Y0025835D01*
X0007670Y0025836D01*
X0007666Y0025838D01*
X0007665Y0025838D01*
X0007664Y0025838D01*
X0007664Y0025838D01*
X0007661Y0025838D01*
X0006096Y0025838D01*
X0006069Y0025865D01*
X0006068Y0025866D01*
X0006067Y0025867D01*
X0006064Y0025869D01*
X0006061Y0025871D01*
X0006060Y0025871D01*
X0006059Y0025872D01*
X0006056Y0025872D01*
X0006052Y0025874D01*
X0006051Y0025874D01*
X0006050Y0025874D01*
X0006046Y0025873D01*
X0006042Y0025873D01*
X0006041Y0025873D01*
X0006040Y0025873D01*
X0006037Y0025871D01*
X0006033Y0025870D01*
X0006032Y0025869D01*
X0006032Y0025869D01*
X0006027Y0025865D01*
X0006026Y0025865D01*
X0005912Y0025865D01*
X0005831Y0025946D01*
X0005831Y0026060D01*
X0005836Y0026066D01*
X0005838Y0026068D01*
X0005840Y0026070D01*
X0005841Y0026072D01*
X0005842Y0026074D01*
X0005843Y0026076D01*
X0005844Y0026079D01*
X0005844Y0026081D01*
X0005845Y0026083D01*
X0005845Y0026086D01*
X0005845Y0026088D01*
X0005844Y0026090D01*
X0005844Y0026092D01*
X0005843Y0026095D01*
X0005843Y0026098D01*
X0005842Y0026099D01*
X0005841Y0026101D01*
X0005839Y0026104D01*
X0005838Y0026106D01*
X0005836Y0026107D01*
X0005835Y0026109D01*
X0005832Y0026110D01*
X0005830Y0026112D01*
X0005828Y0026113D01*
X0005827Y0026114D01*
X0005824Y0026114D01*
X0005821Y0026115D01*
X0005818Y0026116D01*
X0005817Y0026116D01*
X0005817Y0026116D01*
X0005815Y0026116D01*
X0005764Y0026116D01*
X0005764Y0026116D01*
X0005763Y0026116D01*
X0005760Y0026115D01*
X0005757Y0026115D01*
X0005756Y0026115D01*
X0005755Y0026115D01*
X0005754Y0026114D01*
X0005753Y0026114D01*
X0005752Y0026113D01*
X0005752Y0026113D01*
X0005748Y0026111D01*
X0005747Y0026110D01*
X0005746Y0026110D01*
X0005746Y0026109D01*
X0005744Y0026107D01*
X0005723Y0026087D01*
X0005182Y0026087D01*
X0005161Y0026107D01*
X0005161Y0026254D01*
G37*
%LPD*%
%LPC*%
G36*
X0004465Y0025510D02*
X0004465Y0025510D01*
X0004806Y0025851D01*
X0005140Y0025851D01*
X0005144Y0025852D01*
X0005148Y0025852D01*
X0005149Y0025853D01*
X0005150Y0025853D01*
X0005153Y0025855D01*
X0005156Y0025856D01*
X0005157Y0025857D01*
X0005158Y0025858D01*
X0005159Y0025858D01*
X0005161Y0025860D01*
X0005182Y0025881D01*
X0005723Y0025881D01*
X0005743Y0025860D01*
X0005743Y0025713D01*
X0005723Y0025693D01*
X0005182Y0025693D01*
X0005161Y0025714D01*
X0005158Y0025716D01*
X0005155Y0025718D01*
X0005154Y0025719D01*
X0005153Y0025719D01*
X0005149Y0025720D01*
X0005146Y0025722D01*
X0005145Y0025722D01*
X0005144Y0025722D01*
X0005143Y0025722D01*
X0005140Y0025722D01*
X0004872Y0025722D01*
X0004868Y0025722D01*
X0004864Y0025721D01*
X0004863Y0025721D01*
X0004862Y0025721D01*
X0004859Y0025719D01*
X0004855Y0025717D01*
X0004854Y0025717D01*
X0004854Y0025716D01*
X0004853Y0025716D01*
X0004851Y0025714D01*
X0004849Y0025712D01*
X0004847Y0025710D01*
X0004845Y0025708D01*
X0004845Y0025706D01*
X0004844Y0025704D01*
X0004843Y0025702D01*
X0004842Y0025699D01*
X0004841Y0025697D01*
X0004841Y0025695D01*
X0004841Y0025692D01*
X0004841Y0025689D01*
X0004841Y0025687D01*
X0004841Y0025685D01*
X0004842Y0025683D01*
X0004843Y0025680D01*
X0004844Y0025678D01*
X0004844Y0025677D01*
X0004846Y0025674D01*
X0004848Y0025672D01*
X0004849Y0025671D01*
X0004851Y0025669D01*
X0004853Y0025668D01*
X0004855Y0025666D01*
X0004857Y0025665D01*
X0004859Y0025664D01*
X0004862Y0025663D01*
X0004864Y0025662D01*
X0004867Y0025662D01*
X0004868Y0025662D01*
X0004869Y0025662D01*
X0004870Y0025662D01*
X0004996Y0025662D01*
X0005077Y0025581D01*
X0005077Y0025466D01*
X0004996Y0025385D01*
X0004882Y0025385D01*
X0004863Y0025404D01*
X0004862Y0025405D01*
X0004861Y0025405D01*
X0004858Y0025407D01*
X0004855Y0025410D01*
X0004854Y0025410D01*
X0004853Y0025410D01*
X0004849Y0025411D01*
X0004846Y0025412D01*
X0004845Y0025412D01*
X0004844Y0025413D01*
X0004840Y0025412D01*
X0004836Y0025412D01*
X0004835Y0025412D01*
X0004834Y0025412D01*
X0004831Y0025410D01*
X0004827Y0025409D01*
X0004826Y0025408D01*
X0004826Y0025408D01*
X0004821Y0025404D01*
X0004712Y0025295D01*
X0004710Y0025292D01*
X0004708Y0025289D01*
X0004707Y0025288D01*
X0004707Y0025287D01*
X0004706Y0025284D01*
X0004704Y0025280D01*
X0004704Y0025279D01*
X0004704Y0025278D01*
X0004704Y0025277D01*
X0004704Y0025274D01*
X0004704Y0024655D01*
X0004704Y0024652D01*
X0004704Y0024649D01*
X0004705Y0024647D01*
X0004705Y0024645D01*
X0004707Y0024643D01*
X0004708Y0024640D01*
X0004709Y0024639D01*
X0004710Y0024637D01*
X0004712Y0024635D01*
X0004714Y0024633D01*
X0004715Y0024632D01*
X0004717Y0024630D01*
X0004719Y0024629D01*
X0004722Y0024628D01*
X0004724Y0024627D01*
X0004726Y0024626D01*
X0004728Y0024626D01*
X0004731Y0024625D01*
X0004733Y0024626D01*
X0004735Y0024625D01*
X0004738Y0024626D01*
X0004741Y0024626D01*
X0004743Y0024627D01*
X0004744Y0024628D01*
X0004747Y0024629D01*
X0004750Y0024630D01*
X0004752Y0024632D01*
X0004753Y0024633D01*
X0004753Y0024633D01*
X0004754Y0024634D01*
X0004832Y0024712D01*
X0004946Y0024712D01*
X0004959Y0024699D01*
X0004963Y0024696D01*
X0004966Y0024694D01*
X0004966Y0024694D01*
X0004967Y0024693D01*
X0004971Y0024692D01*
X0004975Y0024691D01*
X0004976Y0024690D01*
X0004976Y0024690D01*
X0004977Y0024690D01*
X0004980Y0024690D01*
X0005160Y0024690D01*
X0005164Y0024691D01*
X0005167Y0024691D01*
X0005168Y0024691D01*
X0005169Y0024692D01*
X0005173Y0024693D01*
X0005176Y0024695D01*
X0005177Y0024696D01*
X0005178Y0024696D01*
X0005178Y0024697D01*
X0005181Y0024699D01*
X0005182Y0024700D01*
X0005723Y0024700D01*
X0005724Y0024699D01*
X0005727Y0024696D01*
X0005730Y0024694D01*
X0005731Y0024694D01*
X0005732Y0024693D01*
X0005735Y0024692D01*
X0005739Y0024691D01*
X0005740Y0024690D01*
X0005741Y0024690D01*
X0005742Y0024690D01*
X0005745Y0024690D01*
X0006024Y0024690D01*
X0006028Y0024691D01*
X0006032Y0024691D01*
X0006033Y0024691D01*
X0006034Y0024692D01*
X0006037Y0024693D01*
X0006041Y0024695D01*
X0006042Y0024696D01*
X0006042Y0024696D01*
X0006043Y0024697D01*
X0006045Y0024699D01*
X0006082Y0024735D01*
X0006084Y0024739D01*
X0006087Y0024742D01*
X0006087Y0024742D01*
X0006088Y0024743D01*
X0006089Y0024747D01*
X0006090Y0024751D01*
X0006090Y0024752D01*
X0006090Y0024752D01*
X0006090Y0024753D01*
X0006091Y0024756D01*
X0006091Y0024781D01*
X0006172Y0024862D01*
X0006286Y0024862D01*
X0006367Y0024781D01*
X0006367Y0024666D01*
X0006286Y0024585D01*
X0006182Y0024585D01*
X0006178Y0024584D01*
X0006174Y0024584D01*
X0006174Y0024584D01*
X0006173Y0024583D01*
X0006169Y0024582D01*
X0006166Y0024580D01*
X0006165Y0024579D01*
X0006164Y0024579D01*
X0006163Y0024578D01*
X0006161Y0024576D01*
X0006106Y0024522D01*
X0005745Y0024522D01*
X0005741Y0024521D01*
X0005737Y0024521D01*
X0005736Y0024520D01*
X0005735Y0024520D01*
X0005732Y0024518D01*
X0005728Y0024517D01*
X0005727Y0024516D01*
X0005727Y0024515D01*
X0005726Y0024515D01*
X0005724Y0024513D01*
X0005723Y0024512D01*
X0005182Y0024512D01*
X0005181Y0024513D01*
X0005178Y0024515D01*
X0005175Y0024518D01*
X0005174Y0024518D01*
X0005173Y0024519D01*
X0005169Y0024520D01*
X0005166Y0024521D01*
X0005164Y0024521D01*
X0005164Y0024521D01*
X0005163Y0024521D01*
X0005160Y0024522D01*
X0005045Y0024522D01*
X0005041Y0024521D01*
X0005038Y0024521D01*
X0005037Y0024520D01*
X0005036Y0024520D01*
X0005032Y0024518D01*
X0005029Y0024517D01*
X0005028Y0024516D01*
X0005027Y0024515D01*
X0005027Y0024515D01*
X0005024Y0024513D01*
X0004946Y0024435D01*
X0004832Y0024435D01*
X0004754Y0024513D01*
X0004752Y0024514D01*
X0004750Y0024516D01*
X0004748Y0024517D01*
X0004746Y0024518D01*
X0004743Y0024519D01*
X0004741Y0024520D01*
X0004739Y0024521D01*
X0004737Y0024521D01*
X0004734Y0024521D01*
X0004731Y0024521D01*
X0004729Y0024521D01*
X0004727Y0024521D01*
X0004725Y0024520D01*
X0004722Y0024519D01*
X0004720Y0024518D01*
X0004718Y0024517D01*
X0004716Y0024516D01*
X0004714Y0024514D01*
X0004712Y0024513D01*
X0004711Y0024511D01*
X0004709Y0024509D01*
X0004708Y0024507D01*
X0004707Y0024505D01*
X0004706Y0024503D01*
X0004705Y0024500D01*
X0004704Y0024498D01*
X0004704Y0024495D01*
X0004704Y0024494D01*
X0004704Y0024493D01*
X0004704Y0024492D01*
X0004704Y0024412D01*
X0004704Y0024409D01*
X0004705Y0024405D01*
X0004705Y0024404D01*
X0004705Y0024403D01*
X0004707Y0024399D01*
X0004709Y0024396D01*
X0004709Y0024395D01*
X0004710Y0024394D01*
X0004710Y0024394D01*
X0004712Y0024391D01*
X0004818Y0024285D01*
X0004822Y0024283D01*
X0004825Y0024281D01*
X0004825Y0024280D01*
X0004826Y0024280D01*
X0004830Y0024279D01*
X0004834Y0024277D01*
X0004835Y0024277D01*
X0004835Y0024277D01*
X0004836Y0024277D01*
X0004839Y0024277D01*
X0005140Y0024277D01*
X0005144Y0024277D01*
X0005148Y0024278D01*
X0005149Y0024278D01*
X0005150Y0024278D01*
X0005153Y0024280D01*
X0005156Y0024282D01*
X0005157Y0024282D01*
X0005158Y0024283D01*
X0005159Y0024283D01*
X0005161Y0024285D01*
X0005182Y0024306D01*
X0005723Y0024306D01*
X0005743Y0024286D01*
X0005743Y0024139D01*
X0005723Y0024118D01*
X0005182Y0024118D01*
X0005161Y0024139D01*
X0005158Y0024141D01*
X0005155Y0024144D01*
X0005154Y0024144D01*
X0005153Y0024145D01*
X0005149Y0024146D01*
X0005146Y0024147D01*
X0005145Y0024147D01*
X0005144Y0024147D01*
X0005143Y0024147D01*
X0005140Y0024148D01*
X0004777Y0024148D01*
X0004775Y0024147D01*
X0004772Y0024147D01*
X0004770Y0024146D01*
X0004768Y0024146D01*
X0004765Y0024145D01*
X0004763Y0024144D01*
X0004761Y0024142D01*
X0004760Y0024141D01*
X0004757Y0024139D01*
X0004755Y0024137D01*
X0004754Y0024136D01*
X0004753Y0024134D01*
X0004752Y0024132D01*
X0004750Y0024129D01*
X0004750Y0024127D01*
X0004749Y0024126D01*
X0004749Y0024123D01*
X0004748Y0024120D01*
X0004748Y0024118D01*
X0004748Y0024116D01*
X0004749Y0024113D01*
X0004749Y0024110D01*
X0004750Y0024109D01*
X0004750Y0024107D01*
X0004752Y0024104D01*
X0004753Y0024102D01*
X0004755Y0024099D01*
X0004755Y0024099D01*
X0004756Y0024098D01*
X0004757Y0024097D01*
X0004893Y0023960D01*
X0004897Y0023958D01*
X0004899Y0023956D01*
X0004900Y0023955D01*
X0004901Y0023955D01*
X0004905Y0023954D01*
X0004908Y0023952D01*
X0004910Y0023952D01*
X0004910Y0023952D01*
X0004911Y0023952D01*
X0004914Y0023952D01*
X0004936Y0023952D01*
X0004998Y0023890D01*
X0005002Y0023887D01*
X0005005Y0023885D01*
X0005006Y0023885D01*
X0005006Y0023884D01*
X0005010Y0023883D01*
X0005014Y0023882D01*
X0005015Y0023882D01*
X0005015Y0023881D01*
X0005019Y0023881D01*
X0005023Y0023881D01*
X0005024Y0023882D01*
X0005025Y0023882D01*
X0005029Y0023883D01*
X0005032Y0023884D01*
X0005033Y0023885D01*
X0005034Y0023885D01*
X0005037Y0023887D01*
X0005040Y0023890D01*
X0005041Y0023890D01*
X0005042Y0023891D01*
X0005044Y0023894D01*
X0005046Y0023897D01*
X0005046Y0023899D01*
X0005047Y0023899D01*
X0005047Y0023900D01*
X0005048Y0023903D01*
X0005057Y0023935D01*
X0005076Y0023970D01*
X0005104Y0023997D01*
X0005138Y0024017D01*
X0005177Y0024027D01*
X0005423Y0024027D01*
X0005423Y0023818D01*
X0005423Y0023609D01*
X0005177Y0023609D01*
X0005138Y0023620D01*
X0005104Y0023639D01*
X0005076Y0023667D01*
X0005057Y0023701D01*
X0005050Y0023726D01*
X0005048Y0023729D01*
X0005047Y0023733D01*
X0005046Y0023734D01*
X0005046Y0023735D01*
X0005043Y0023737D01*
X0005041Y0023740D01*
X0005040Y0023741D01*
X0005039Y0023742D01*
X0005036Y0023744D01*
X0005033Y0023746D01*
X0005032Y0023746D01*
X0005031Y0023746D01*
X0005027Y0023747D01*
X0005023Y0023748D01*
X0005022Y0023748D01*
X0005022Y0023748D01*
X0005018Y0023747D01*
X0005014Y0023747D01*
X0005013Y0023746D01*
X0005012Y0023746D01*
X0005009Y0023744D01*
X0005005Y0023743D01*
X0005004Y0023742D01*
X0005004Y0023742D01*
X0005003Y0023741D01*
X0005001Y0023739D01*
X0004936Y0023675D01*
X0004822Y0023675D01*
X0004741Y0023756D01*
X0004741Y0023871D01*
X0004750Y0023880D01*
X0004750Y0023880D01*
X0004751Y0023881D01*
X0004753Y0023884D01*
X0004755Y0023887D01*
X0004756Y0023888D01*
X0004756Y0023889D01*
X0004757Y0023893D01*
X0004758Y0023897D01*
X0004758Y0023898D01*
X0004758Y0023899D01*
X0004758Y0023902D01*
X0004758Y0023906D01*
X0004757Y0023907D01*
X0004757Y0023908D01*
X0004756Y0023912D01*
X0004754Y0023915D01*
X0004754Y0023916D01*
X0004753Y0023917D01*
X0004750Y0023921D01*
X0004465Y0024207D01*
X0004465Y0025510D01*
G37*
%LPD*%
%LPC*%
G36*
X0008956Y0023129D02*
X0008956Y0023129D01*
X0009031Y0023310D01*
X0009170Y0023448D01*
X0009350Y0023523D01*
X0009546Y0023523D01*
X0009727Y0023448D01*
X0009866Y0023310D01*
X0009940Y0023129D01*
X0009940Y0022933D01*
X0009866Y0022752D01*
X0009727Y0022614D01*
X0009546Y0022539D01*
X0009350Y0022539D01*
X0009170Y0022614D01*
X0009031Y0022752D01*
X0008956Y0022933D01*
X0008956Y0023129D01*
G37*
%LPD*%
%LPC*%
G36*
X0008956Y0028247D02*
X0008956Y0028247D01*
X0009031Y0028428D01*
X0009170Y0028566D01*
X0009350Y0028641D01*
X0009546Y0028641D01*
X0009727Y0028566D01*
X0009866Y0028428D01*
X0009940Y0028247D01*
X0009940Y0028051D01*
X0009866Y0027870D01*
X0009727Y0027732D01*
X0009546Y0027657D01*
X0009350Y0027657D01*
X0009170Y0027732D01*
X0009031Y0027870D01*
X0008956Y0028051D01*
X0008956Y0028247D01*
G37*
%LPD*%
%LPC*%
G36*
X0004488Y0022913D02*
X0004488Y0022913D01*
X0005071Y0022913D01*
X0005071Y0022558D01*
X0005061Y0022520D01*
X0005041Y0022486D01*
X0005013Y0022458D01*
X0004979Y0022438D01*
X0004941Y0022428D01*
X0004488Y0022428D01*
X0004488Y0022913D01*
G37*
%LPD*%
%LPC*%
G36*
X0004488Y0028149D02*
X0004488Y0028149D01*
X0005071Y0028149D01*
X0005071Y0027795D01*
X0005061Y0027757D01*
X0005041Y0027722D01*
X0005013Y0027694D01*
X0004979Y0027675D01*
X0004941Y0027664D01*
X0004488Y0027664D01*
X0004488Y0028149D01*
G37*
%LPD*%
%LPC*%
G36*
X0004488Y0023516D02*
X0004488Y0023516D01*
X0004941Y0023516D01*
X0004961Y0023510D01*
X0004979Y0023505D01*
X0005013Y0023486D01*
X0005041Y0023458D01*
X0005061Y0023424D01*
X0005071Y0023385D01*
X0005071Y0023031D01*
X0004488Y0023031D01*
X0004488Y0023516D01*
G37*
%LPD*%
%LPC*%
G36*
X0004488Y0028752D02*
X0004488Y0028752D01*
X0004941Y0028752D01*
X0004961Y0028747D01*
X0004979Y0028742D01*
X0005013Y0028722D01*
X0005041Y0028694D01*
X0005061Y0028660D01*
X0005071Y0028622D01*
X0005071Y0028267D01*
X0004488Y0028267D01*
X0004488Y0028752D01*
G37*
%LPD*%
%LPC*%
G36*
X0003786Y0028149D02*
X0003786Y0028149D01*
X0004370Y0028149D01*
X0004370Y0027664D01*
X0003917Y0027664D01*
X0003914Y0027665D01*
X0003879Y0027675D01*
X0003844Y0027694D01*
X0003816Y0027722D01*
X0003797Y0027757D01*
X0003786Y0027795D01*
X0003786Y0028149D01*
G37*
%LPD*%
%LPC*%
G36*
X0003786Y0022913D02*
X0003786Y0022913D01*
X0004370Y0022913D01*
X0004370Y0022428D01*
X0003917Y0022428D01*
X0003914Y0022429D01*
X0003879Y0022438D01*
X0003844Y0022458D01*
X0003816Y0022486D01*
X0003797Y0022520D01*
X0003786Y0022558D01*
X0003786Y0022913D01*
G37*
%LPD*%
%LPC*%
G36*
X0003786Y0023385D02*
X0003786Y0023385D01*
X0003797Y0023424D01*
X0003816Y0023458D01*
X0003844Y0023486D01*
X0003879Y0023505D01*
X0003917Y0023516D01*
X0004370Y0023516D01*
X0004370Y0023031D01*
X0003786Y0023031D01*
X0003786Y0023385D01*
G37*
%LPD*%
%LPC*%
G36*
X0003786Y0028622D02*
X0003786Y0028622D01*
X0003797Y0028660D01*
X0003816Y0028694D01*
X0003844Y0028722D01*
X0003879Y0028742D01*
X0003917Y0028752D01*
X0004370Y0028752D01*
X0004370Y0028267D01*
X0003786Y0028267D01*
X0003786Y0028622D01*
G37*
%LPD*%
%LPC*%
G36*
X0005161Y0025073D02*
X0005161Y0025073D01*
X0005182Y0025094D01*
X0005723Y0025094D01*
X0005744Y0025073D01*
X0005747Y0025070D01*
X0005748Y0025070D01*
X0005748Y0025069D01*
X0005749Y0025069D01*
X0005750Y0025068D01*
X0005751Y0025068D01*
X0005751Y0025067D01*
X0005755Y0025066D01*
X0005757Y0025065D01*
X0005758Y0025065D01*
X0005759Y0025065D01*
X0005760Y0025065D01*
X0005761Y0025064D01*
X0005762Y0025064D01*
X0005764Y0025064D01*
X0005786Y0025064D01*
X0005790Y0025065D01*
X0005794Y0025065D01*
X0005795Y0025065D01*
X0005796Y0025066D01*
X0005799Y0025067D01*
X0005803Y0025069D01*
X0005804Y0025070D01*
X0005804Y0025070D01*
X0005805Y0025071D01*
X0005807Y0025073D01*
X0005855Y0025120D01*
X0005855Y0025121D01*
X0005856Y0025122D01*
X0005858Y0025125D01*
X0005860Y0025128D01*
X0005861Y0025129D01*
X0005861Y0025130D01*
X0005862Y0025134D01*
X0005863Y0025137D01*
X0005863Y0025138D01*
X0005863Y0025139D01*
X0005863Y0025143D01*
X0005863Y0025147D01*
X0005862Y0025148D01*
X0005862Y0025149D01*
X0005861Y0025152D01*
X0005859Y0025156D01*
X0005859Y0025157D01*
X0005858Y0025158D01*
X0005855Y0025162D01*
X0005811Y0025206D01*
X0005811Y0025321D01*
X0005892Y0025402D01*
X0006006Y0025402D01*
X0006087Y0025321D01*
X0006087Y0025206D01*
X0006022Y0025141D01*
X0006020Y0025138D01*
X0006018Y0025135D01*
X0006017Y0025134D01*
X0006017Y0025133D01*
X0006016Y0025129D01*
X0006014Y0025126D01*
X0006014Y0025125D01*
X0006014Y0025124D01*
X0006014Y0025123D01*
X0006014Y0025120D01*
X0006014Y0025097D01*
X0005852Y0024935D01*
X0005764Y0024935D01*
X0005764Y0024935D01*
X0005763Y0024935D01*
X0005760Y0024934D01*
X0005757Y0024934D01*
X0005756Y0024934D01*
X0005755Y0024933D01*
X0005754Y0024933D01*
X0005753Y0024933D01*
X0005752Y0024932D01*
X0005752Y0024932D01*
X0005748Y0024930D01*
X0005747Y0024929D01*
X0005746Y0024929D01*
X0005746Y0024928D01*
X0005744Y0024926D01*
X0005723Y0024905D01*
X0005182Y0024905D01*
X0005161Y0024926D01*
X0005161Y0025073D01*
G37*
%LPD*%
%LPC*%
G36*
X0004631Y0027021D02*
X0004631Y0027021D01*
X0004712Y0027102D01*
X0004826Y0027102D01*
X0004887Y0027041D01*
X0004890Y0027039D01*
X0004893Y0027037D01*
X0004894Y0027036D01*
X0004895Y0027036D01*
X0004898Y0027034D01*
X0004902Y0027033D01*
X0004903Y0027033D01*
X0004904Y0027033D01*
X0004905Y0027033D01*
X0004908Y0027033D01*
X0005140Y0027033D01*
X0005144Y0027033D01*
X0005148Y0027034D01*
X0005149Y0027034D01*
X0005150Y0027034D01*
X0005153Y0027036D01*
X0005156Y0027037D01*
X0005157Y0027038D01*
X0005158Y0027039D01*
X0005159Y0027039D01*
X0005161Y0027041D01*
X0005182Y0027062D01*
X0005723Y0027062D01*
X0005743Y0027042D01*
X0005743Y0026894D01*
X0005723Y0026874D01*
X0005182Y0026874D01*
X0005161Y0026895D01*
X0005158Y0026897D01*
X0005155Y0026899D01*
X0005154Y0026900D01*
X0005153Y0026900D01*
X0005149Y0026902D01*
X0005146Y0026903D01*
X0005145Y0026903D01*
X0005144Y0026903D01*
X0005143Y0026903D01*
X0005140Y0026903D01*
X0004917Y0026903D01*
X0004913Y0026903D01*
X0004909Y0026902D01*
X0004909Y0026902D01*
X0004908Y0026902D01*
X0004904Y0026900D01*
X0004901Y0026898D01*
X0004900Y0026898D01*
X0004899Y0026897D01*
X0004898Y0026897D01*
X0004896Y0026895D01*
X0004826Y0026825D01*
X0004712Y0026825D01*
X0004631Y0026906D01*
X0004631Y0027021D01*
G37*
%LPD*%
%LPC*%
G36*
X0004781Y0025141D02*
X0004781Y0025141D01*
X0004862Y0025222D01*
X0004914Y0025222D01*
X0004918Y0025222D01*
X0004922Y0025223D01*
X0004922Y0025223D01*
X0004923Y0025223D01*
X0004927Y0025225D01*
X0004930Y0025227D01*
X0004931Y0025228D01*
X0004932Y0025228D01*
X0004933Y0025229D01*
X0004935Y0025230D01*
X0005116Y0025411D01*
X0005153Y0025448D01*
X0005155Y0025451D01*
X0005157Y0025454D01*
X0005158Y0025455D01*
X0005158Y0025456D01*
X0005159Y0025460D01*
X0005161Y0025463D01*
X0005161Y0025465D01*
X0005161Y0025465D01*
X0005161Y0025466D01*
X0005161Y0025467D01*
X0005182Y0025487D01*
X0005723Y0025487D01*
X0005743Y0025467D01*
X0005743Y0025320D01*
X0005723Y0025299D01*
X0005198Y0025299D01*
X0005195Y0025298D01*
X0005191Y0025298D01*
X0005190Y0025298D01*
X0005189Y0025298D01*
X0005186Y0025296D01*
X0005182Y0025294D01*
X0005181Y0025293D01*
X0005180Y0025293D01*
X0005180Y0025292D01*
X0005178Y0025290D01*
X0005063Y0025176D01*
X0005063Y0025176D01*
X0005062Y0025175D01*
X0005060Y0025172D01*
X0005058Y0025169D01*
X0005058Y0025168D01*
X0005057Y0025167D01*
X0005056Y0025163D01*
X0005055Y0025159D01*
X0005055Y0025158D01*
X0005055Y0025157D01*
X0005055Y0025154D01*
X0005055Y0025150D01*
X0005056Y0025149D01*
X0005056Y0025148D01*
X0005057Y0025144D01*
X0005057Y0025144D01*
X0005057Y0025026D01*
X0004976Y0024945D01*
X0004862Y0024945D01*
X0004781Y0025026D01*
X0004781Y0025141D01*
G37*
%LPD*%
%LPC*%
G36*
X0005161Y0026648D02*
X0005161Y0026648D01*
X0005182Y0026668D01*
X0005723Y0026668D01*
X0005743Y0026648D01*
X0005743Y0026501D01*
X0005723Y0026480D01*
X0005182Y0026480D01*
X0005161Y0026501D01*
X0005161Y0026648D01*
G37*
%LPD*%
%LPC*%
G36*
X0005161Y0027435D02*
X0005161Y0027435D01*
X0005182Y0027456D01*
X0005723Y0027456D01*
X0005743Y0027435D01*
X0005743Y0027288D01*
X0005723Y0027268D01*
X0005182Y0027268D01*
X0005161Y0027288D01*
X0005161Y0027435D01*
G37*
%LPD*%
%LPC*%
G36*
X0010711Y0025021D02*
X0010711Y0025021D01*
X0010792Y0025102D01*
X0010906Y0025102D01*
X0010987Y0025021D01*
X0010987Y0024906D01*
X0010906Y0024825D01*
X0010792Y0024825D01*
X0010711Y0024906D01*
X0010711Y0025021D01*
G37*
%LPD*%
%LPC*%
G36*
X0006261Y0024331D02*
X0006261Y0024331D01*
X0006342Y0024412D01*
X0006456Y0024412D01*
X0006537Y0024331D01*
X0006537Y0024216D01*
X0006456Y0024135D01*
X0006342Y0024135D01*
X0006261Y0024216D01*
X0006261Y0024331D01*
G37*
%LPD*%
%LPC*%
G36*
X0006551Y0025661D02*
X0006551Y0025661D01*
X0006632Y0025742D01*
X0006746Y0025742D01*
X0006827Y0025661D01*
X0006827Y0025546D01*
X0006746Y0025465D01*
X0006632Y0025465D01*
X0006551Y0025546D01*
X0006551Y0025661D01*
G37*
%LPD*%
%LPC*%
G36*
X0006581Y0028121D02*
X0006581Y0028121D01*
X0006662Y0028202D01*
X0006776Y0028202D01*
X0006857Y0028121D01*
X0006857Y0028006D01*
X0006776Y0027925D01*
X0006662Y0027925D01*
X0006581Y0028006D01*
X0006581Y0028121D01*
G37*
%LPD*%
%LPC*%
G36*
X0004731Y0026621D02*
X0004731Y0026621D01*
X0004812Y0026702D01*
X0004926Y0026702D01*
X0005007Y0026621D01*
X0005007Y0026506D01*
X0004926Y0026425D01*
X0004812Y0026425D01*
X0004731Y0026506D01*
X0004731Y0026621D01*
G37*
%LPD*%
%LPC*%
G36*
X0007501Y0026381D02*
X0007501Y0026381D01*
X0007582Y0026462D01*
X0007696Y0026462D01*
X0007777Y0026381D01*
X0007777Y0026266D01*
X0007696Y0026185D01*
X0007582Y0026185D01*
X0007501Y0026266D01*
X0007501Y0026381D01*
G37*
%LPD*%
%LPC*%
G36*
X0007520Y0023857D02*
X0007520Y0023857D01*
X0007601Y0023938D01*
X0007716Y0023938D01*
X0007797Y0023857D01*
X0007797Y0023742D01*
X0007716Y0023661D01*
X0007601Y0023661D01*
X0007520Y0023742D01*
X0007520Y0023857D01*
G37*
%LPD*%
%LPC*%
G36*
X0010651Y0027481D02*
X0010651Y0027481D01*
X0010732Y0027562D01*
X0010846Y0027562D01*
X0010927Y0027481D01*
X0010927Y0027366D01*
X0010846Y0027285D01*
X0010732Y0027285D01*
X0010651Y0027366D01*
X0010651Y0027481D01*
G37*
%LPD*%
%LPC*%
G36*
X0005482Y0023789D02*
X0005482Y0023789D01*
X0005858Y0023789D01*
X0005858Y0023740D01*
X0005848Y0023701D01*
X0005828Y0023667D01*
X0005800Y0023639D01*
X0005766Y0023620D01*
X0005728Y0023609D01*
X0005482Y0023609D01*
X0005482Y0023789D01*
G37*
%LPD*%
%LPC*%
G36*
X0005482Y0024027D02*
X0005482Y0024027D01*
X0005728Y0024027D01*
X0005757Y0024020D01*
X0005766Y0024017D01*
X0005800Y0023997D01*
X0005828Y0023970D01*
X0005848Y0023935D01*
X0005858Y0023897D01*
X0005858Y0023848D01*
X0005482Y0023848D01*
X0005482Y0024027D01*
G37*
%LPD*%
%LPC*%
G36*
X0004429Y0022972D02*
X0004429Y0022972D01*
X0004429Y0022972D01*
X0004429Y0022972D01*
X0004429Y0022972D01*
X0004429Y0022972D01*
G37*
%LPD*%
%LPC*%
G36*
X0004429Y0028208D02*
X0004429Y0028208D01*
X0004429Y0028208D01*
X0004429Y0028208D01*
X0004429Y0028208D01*
X0004429Y0028208D01*
G37*
%LPD*%
D19*
X0008109Y0022863D02*
X0008183Y0022604D01*
X0007997Y0022604D01*
X0008053Y0022678D02*
X0008053Y0022530D01*
D20*
X0005452Y0023818D03*
X0005452Y0024212D03*
X0005452Y0024606D03*
X0005452Y0025000D03*
X0005452Y0025393D03*
X0005452Y0025787D03*
X0005452Y0026181D03*
X0005452Y0026574D03*
X0005452Y0026968D03*
X0005452Y0027362D03*
D21*
X0004429Y0028208D03*
X0004429Y0022972D03*
D22*
X0035433Y0024803D03*
X0020078Y0026377D03*
D23*
X0010959Y0023833D03*
X0011379Y0024253D03*
X0012415Y0023341D03*
X0013465Y0022361D03*
X0013005Y0022361D03*
X0011613Y0023224D03*
X0013496Y0022987D03*
X0012541Y0025928D03*
X0013493Y0025931D03*
X0010833Y0026041D03*
X0011043Y0025541D03*
X0012083Y0026661D03*
X0010223Y0026381D03*
X0008773Y0026371D03*
X0009463Y0025561D03*
X0008175Y0023814D03*
X0008685Y0023834D03*
X0007094Y0026610D03*
X0007074Y0025130D03*
X0007104Y0024000D03*
X0005467Y0027848D03*
X0006087Y0027368D03*
X0013190Y0027556D03*
X0012540Y0026846D03*
X0013470Y0026826D03*
X0012651Y0025488D03*
X0012703Y0028417D03*
X0014809Y0026041D03*
X0014819Y0024901D03*
X0012669Y0024641D03*
X0012049Y0024951D03*
X0013519Y0024311D03*
X0003452Y0022326D03*
X0003805Y0022296D03*
X0003412Y0022690D03*
X0003455Y0028839D03*
X0003779Y0028899D03*
X0003385Y0028505D03*
X0014812Y0028903D03*
X0014812Y0028509D03*
X0014418Y0028903D03*
X0014811Y0022296D03*
X0014417Y0022296D03*
X0014811Y0022690D03*
X0014803Y0026709D03*
X0014063Y0026709D03*
X0014063Y0026039D03*
X0009483Y0026901D03*
X0008637Y0022362D03*
X0010267Y0022422D03*
X0008497Y0028842D03*
X0010197Y0028852D03*
X0005435Y0023359D03*
X0006115Y0023829D03*
X0010610Y0022595D03*
X0010206Y0024887D03*
X0008079Y0026112D03*
X0035433Y0024803D03*
D24*
X0015748Y0024803D01*
X0014917Y0024803D01*
X0014819Y0024901D01*
D23*
X0015748Y0024803D03*
X0006089Y0026583D03*
X0004869Y0026563D03*
X0006689Y0025603D03*
X0007639Y0026323D03*
X0007658Y0023799D03*
X0010849Y0024963D03*
X0010789Y0027423D03*
D25*
X0006072Y0024606D02*
X0005452Y0024606D01*
X0006189Y0024723D02*
X0006229Y0024723D01*
D23*
X0006229Y0024723D03*
D25*
X0006189Y0024723D02*
X0006072Y0024606D01*
X0005452Y0024606D02*
X0004922Y0024606D01*
X0004889Y0024573D01*
D23*
X0004889Y0024573D03*
X0008659Y0024623D03*
X0006719Y0028063D03*
D26*
X0005806Y0026181D02*
X0005452Y0026181D01*
X0005806Y0026181D02*
X0005949Y0026323D01*
X0006369Y0026323D01*
D23*
X0006369Y0026323D03*
X0006199Y0026953D03*
D26*
X0007117Y0026035D01*
X0008049Y0025723D02*
X0008319Y0025723D01*
D23*
X0008319Y0025723D03*
D26*
X0007737Y0026035D02*
X0007117Y0026035D01*
X0007737Y0026035D02*
X0008049Y0025723D01*
D23*
X0006399Y0024273D03*
X0004769Y0026963D03*
D26*
X0004774Y0026968D01*
X0005452Y0026968D01*
D23*
X0015748Y0026377D03*
D24*
X0020078Y0026377D01*
D23*
X0020078Y0026377D03*
X0005969Y0026003D03*
D26*
X0006122Y0025903D02*
X0007700Y0025903D01*
X0006122Y0025903D02*
X0006022Y0026003D01*
X0005969Y0026003D01*
X0008779Y0024823D02*
X0009819Y0024823D01*
X0010029Y0024613D02*
X0010519Y0024613D01*
X0010029Y0024613D02*
X0009819Y0024823D01*
D23*
X0010519Y0024613D03*
D26*
X0008779Y0024823D02*
X0007700Y0025903D01*
X0005825Y0025000D02*
X0005452Y0025000D01*
X0005825Y0025000D02*
X0005949Y0025123D01*
X0005949Y0025263D01*
D23*
X0005949Y0025263D03*
D26*
X0005452Y0024212D02*
X0004800Y0024212D01*
X0004639Y0024373D02*
X0004639Y0025313D01*
X0004849Y0025523D02*
X0004939Y0025523D01*
X0004849Y0025523D02*
X0004639Y0025313D01*
D23*
X0004939Y0025523D03*
D26*
X0004639Y0024373D02*
X0004800Y0024212D01*
X0005189Y0025393D02*
X0005452Y0025393D01*
X0004919Y0025123D02*
X0004919Y0025083D01*
X0004919Y0025123D02*
X0005189Y0025393D01*
D23*
X0004919Y0025083D03*
D26*
X0004833Y0025787D02*
X0005452Y0025787D01*
X0004529Y0025483D02*
X0004529Y0024233D01*
X0004879Y0023883D02*
X0004879Y0023813D01*
X0004879Y0023883D02*
X0004529Y0024233D01*
D23*
X0004879Y0023813D03*
D26*
X0004529Y0025483D02*
X0004833Y0025787D01*
D27*
X0007814Y0022342D02*
X0008366Y0022342D01*
X0008366Y0023051D01*
X0007814Y0023051D01*
X0007814Y0022342D01*
G04 next file*
G04 EAGLE Gerber RS-274X export*
G75*
G01*
G36*
X0036928Y0022048D02*
X0036928Y0022048D01*
X0036928Y0022050D01*
X0036923Y0022105D01*
X0036923Y0022107D01*
X0036923Y0022108D01*
X0036921Y0022114D01*
X0036878Y0022217D01*
X0036877Y0022219D01*
X0036876Y0022222D01*
X0036874Y0022224D01*
X0036873Y0022225D01*
X0036873Y0022225D01*
X0036872Y0022226D01*
X0036793Y0022305D01*
X0036791Y0022307D01*
X0036789Y0022309D01*
X0036786Y0022310D01*
X0036785Y0022311D01*
X0036785Y0022311D01*
X0036784Y0022311D01*
X0036681Y0022354D01*
X0036679Y0022354D01*
X0036678Y0022355D01*
X0036672Y0022356D01*
X0036617Y0022362D01*
X0036616Y0022361D01*
X0036614Y0022362D01*
X0025241Y0022362D01*
X0025237Y0022361D01*
X0025234Y0022361D01*
X0025233Y0022360D01*
X0025232Y0022360D01*
X0025228Y0022358D01*
X0025225Y0022357D01*
X0025224Y0022356D01*
X0025223Y0022356D01*
X0025223Y0022355D01*
X0025220Y0022353D01*
X0025175Y0022308D01*
X0025173Y0022305D01*
X0025171Y0022302D01*
X0025170Y0022301D01*
X0025170Y0022300D01*
X0025169Y0022297D01*
X0025167Y0022293D01*
X0025167Y0022292D01*
X0025167Y0022291D01*
X0025167Y0022290D01*
X0025167Y0022287D01*
X0025167Y0015507D01*
X0025167Y0015503D01*
X0025168Y0015499D01*
X0025168Y0015498D01*
X0025168Y0015497D01*
X0025170Y0015494D01*
X0025172Y0015491D01*
X0025173Y0015490D01*
X0025173Y0015489D01*
X0025174Y0015488D01*
X0025175Y0015486D01*
X0025220Y0015441D01*
X0025223Y0015439D01*
X0025226Y0015437D01*
X0025227Y0015436D01*
X0025228Y0015436D01*
X0025232Y0015435D01*
X0025235Y0015433D01*
X0025237Y0015433D01*
X0025237Y0015433D01*
X0025238Y0015433D01*
X0025241Y0015433D01*
X0036614Y0015433D01*
X0036615Y0015433D01*
X0036617Y0015433D01*
X0036672Y0015438D01*
X0036674Y0015439D01*
X0036675Y0015439D01*
X0036681Y0015440D01*
X0036784Y0015483D01*
X0036786Y0015484D01*
X0036789Y0015486D01*
X0036791Y0015487D01*
X0036792Y0015488D01*
X0036792Y0015489D01*
X0036793Y0015489D01*
X0036872Y0015568D01*
X0036874Y0015570D01*
X0036876Y0015573D01*
X0036876Y0015573D01*
X0036877Y0015575D01*
X0036877Y0015576D01*
X0036878Y0015577D01*
X0036878Y0015578D01*
X0036921Y0015681D01*
X0036921Y0015682D01*
X0036922Y0015683D01*
X0036923Y0015689D01*
X0036928Y0015745D01*
X0036928Y0015746D01*
X0036929Y0015748D01*
X0036929Y0022047D01*
X0036928Y0022048D01*
G37*
G36*
X0020688Y0019292D02*
X0020688Y0019292D01*
X0020688Y0019294D01*
X0020687Y0019299D01*
X0020687Y0019304D01*
X0020686Y0019306D01*
X0020686Y0019307D01*
X0020684Y0019312D01*
X0020682Y0019317D01*
X0020681Y0019318D01*
X0020681Y0019320D01*
X0020678Y0019324D01*
X0020675Y0019329D01*
X0020674Y0019330D01*
X0020673Y0019331D01*
X0020669Y0019334D01*
X0020665Y0019338D01*
X0020664Y0019339D01*
X0020663Y0019340D01*
X0020658Y0019342D01*
X0020653Y0019345D01*
X0020652Y0019345D01*
X0020651Y0019346D01*
X0020645Y0019347D01*
X0020640Y0019349D01*
X0020639Y0019349D01*
X0020637Y0019349D01*
X0020629Y0019350D01*
X0019527Y0019350D01*
X0019526Y0019350D01*
X0019524Y0019350D01*
X0019519Y0019349D01*
X0019514Y0019348D01*
X0019512Y0019348D01*
X0019511Y0019348D01*
X0019506Y0019346D01*
X0019501Y0019344D01*
X0019500Y0019343D01*
X0019498Y0019342D01*
X0019494Y0019339D01*
X0019489Y0019336D01*
X0019488Y0019335D01*
X0019487Y0019334D01*
X0019484Y0019330D01*
X0019480Y0019326D01*
X0019479Y0019325D01*
X0019478Y0019324D01*
X0019476Y0019319D01*
X0019473Y0019315D01*
X0019473Y0019313D01*
X0019472Y0019312D01*
X0019471Y0019307D01*
X0019469Y0019302D01*
X0019469Y0019300D01*
X0019469Y0019299D01*
X0019468Y0019291D01*
X0019468Y0017460D01*
X0019468Y0017459D01*
X0019468Y0017457D01*
X0019469Y0017452D01*
X0019470Y0017447D01*
X0019470Y0017445D01*
X0019470Y0017444D01*
X0019472Y0017439D01*
X0019474Y0017434D01*
X0019475Y0017433D01*
X0019476Y0017431D01*
X0019479Y0017427D01*
X0019482Y0017422D01*
X0019483Y0017421D01*
X0019483Y0017420D01*
X0019488Y0017417D01*
X0019492Y0017413D01*
X0019493Y0017412D01*
X0019494Y0017411D01*
X0019499Y0017409D01*
X0019503Y0017406D01*
X0019505Y0017406D01*
X0019506Y0017405D01*
X0019511Y0017404D01*
X0019516Y0017402D01*
X0019518Y0017402D01*
X0019519Y0017402D01*
X0019527Y0017401D01*
X0020629Y0017401D01*
X0020631Y0017401D01*
X0020632Y0017401D01*
X0020638Y0017402D01*
X0020643Y0017403D01*
X0020644Y0017403D01*
X0020646Y0017403D01*
X0020651Y0017405D01*
X0020656Y0017407D01*
X0020657Y0017408D01*
X0020658Y0017409D01*
X0020663Y0017412D01*
X0020667Y0017415D01*
X0020668Y0017416D01*
X0020669Y0017417D01*
X0020673Y0017421D01*
X0020677Y0017425D01*
X0020677Y0017426D01*
X0020678Y0017427D01*
X0020681Y0017432D01*
X0020683Y0017436D01*
X0020684Y0017438D01*
X0020685Y0017439D01*
X0020686Y0017444D01*
X0020687Y0017449D01*
X0020688Y0017451D01*
X0020688Y0017452D01*
X0020688Y0017460D01*
X0020688Y0019291D01*
X0020688Y0019292D01*
G37*
G36*
X0005334Y0020336D02*
X0005334Y0020336D01*
X0005334Y0020337D01*
X0005333Y0020342D01*
X0005333Y0020348D01*
X0005332Y0020349D01*
X0005332Y0020350D01*
X0005330Y0020355D01*
X0005328Y0020360D01*
X0005327Y0020362D01*
X0005327Y0020363D01*
X0005323Y0020367D01*
X0005320Y0020372D01*
X0005319Y0020373D01*
X0005319Y0020374D01*
X0005315Y0020378D01*
X0005311Y0020381D01*
X0005309Y0020382D01*
X0005308Y0020383D01*
X0005304Y0020385D01*
X0005299Y0020388D01*
X0005298Y0020389D01*
X0005296Y0020389D01*
X0005291Y0020391D01*
X0005286Y0020392D01*
X0005285Y0020392D01*
X0005283Y0020393D01*
X0005275Y0020393D01*
X0004173Y0020393D01*
X0004171Y0020393D01*
X0004170Y0020393D01*
X0004165Y0020392D01*
X0004159Y0020392D01*
X0004158Y0020391D01*
X0004157Y0020391D01*
X0004151Y0020389D01*
X0004146Y0020387D01*
X0004145Y0020386D01*
X0004144Y0020386D01*
X0004140Y0020382D01*
X0004135Y0020380D01*
X0004134Y0020379D01*
X0004133Y0020378D01*
X0004129Y0020374D01*
X0004126Y0020370D01*
X0004125Y0020368D01*
X0004124Y0020367D01*
X0004121Y0020363D01*
X0004119Y0020358D01*
X0004118Y0020357D01*
X0004118Y0020355D01*
X0004116Y0020350D01*
X0004115Y0020345D01*
X0004115Y0020344D01*
X0004114Y0020342D01*
X0004114Y0020334D01*
X0004114Y0018503D01*
X0004114Y0018502D01*
X0004114Y0018501D01*
X0004115Y0018495D01*
X0004115Y0018490D01*
X0004116Y0018489D01*
X0004116Y0018487D01*
X0004118Y0018482D01*
X0004120Y0018477D01*
X0004121Y0018476D01*
X0004121Y0018475D01*
X0004124Y0018470D01*
X0004127Y0018466D01*
X0004128Y0018465D01*
X0004129Y0018464D01*
X0004133Y0018460D01*
X0004137Y0018456D01*
X0004138Y0018456D01*
X0004139Y0018455D01*
X0004144Y0018452D01*
X0004149Y0018449D01*
X0004150Y0018449D01*
X0004151Y0018448D01*
X0004157Y0018447D01*
X0004162Y0018445D01*
X0004163Y0018445D01*
X0004165Y0018445D01*
X0004173Y0018444D01*
X0005275Y0018444D01*
X0005276Y0018445D01*
X0005278Y0018444D01*
X0005283Y0018445D01*
X0005289Y0018446D01*
X0005290Y0018446D01*
X0005291Y0018447D01*
X0005296Y0018449D01*
X0005301Y0018451D01*
X0005303Y0018451D01*
X0005304Y0018452D01*
X0005308Y0018455D01*
X0005313Y0018458D01*
X0005314Y0018459D01*
X0005315Y0018460D01*
X0005318Y0018464D01*
X0005322Y0018468D01*
X0005323Y0018469D01*
X0005324Y0018470D01*
X0005326Y0018475D01*
X0005329Y0018480D01*
X0005330Y0018481D01*
X0005330Y0018482D01*
X0005332Y0018487D01*
X0005333Y0018493D01*
X0005333Y0018494D01*
X0005334Y0018495D01*
X0005334Y0018503D01*
X0005334Y0020334D01*
X0005334Y0020336D01*
G37*
%LPC*%
G36*
X0034035Y0021420D02*
X0034035Y0021420D01*
X0034012Y0021397D01*
X0032420Y0021397D01*
X0032416Y0021396D01*
X0032412Y0021396D01*
X0032412Y0021396D01*
X0032411Y0021396D01*
X0032407Y0021394D01*
X0032404Y0021392D01*
X0032403Y0021391D01*
X0032402Y0021391D01*
X0032401Y0021390D01*
X0032399Y0021388D01*
X0032373Y0021362D01*
X0031760Y0021362D01*
X0031716Y0021406D01*
X0031716Y0022176D01*
X0031760Y0022220D01*
X0032373Y0022220D01*
X0032399Y0022193D01*
X0032402Y0022191D01*
X0032405Y0022189D01*
X0032406Y0022188D01*
X0032407Y0022188D01*
X0032411Y0022187D01*
X0032414Y0022185D01*
X0032416Y0022185D01*
X0032416Y0022185D01*
X0032417Y0022185D01*
X0032420Y0022185D01*
X0034012Y0022185D01*
X0034035Y0022162D01*
X0034035Y0021420D01*
G37*
%LPD*%
%LPC*%
G36*
X0034995Y0018233D02*
X0034995Y0018233D01*
X0034975Y0018212D01*
X0034434Y0018212D01*
X0034413Y0018233D01*
X0034410Y0018236D01*
X0034409Y0018236D01*
X0034408Y0018237D01*
X0034408Y0018237D01*
X0034407Y0018238D01*
X0034406Y0018238D01*
X0034405Y0018239D01*
X0034401Y0018240D01*
X0034399Y0018241D01*
X0034399Y0018241D01*
X0034398Y0018241D01*
X0034397Y0018242D01*
X0034396Y0018242D01*
X0034395Y0018242D01*
X0034392Y0018242D01*
X0034389Y0018242D01*
X0034385Y0018241D01*
X0034381Y0018241D01*
X0034381Y0018241D01*
X0034380Y0018240D01*
X0034376Y0018239D01*
X0034373Y0018237D01*
X0034372Y0018236D01*
X0034371Y0018236D01*
X0034370Y0018235D01*
X0034368Y0018233D01*
X0034281Y0018146D01*
X0034234Y0018099D01*
X0034139Y0018099D01*
X0034136Y0018099D01*
X0034133Y0018099D01*
X0034131Y0018098D01*
X0034129Y0018098D01*
X0034127Y0018096D01*
X0034124Y0018095D01*
X0034123Y0018094D01*
X0034121Y0018093D01*
X0034119Y0018091D01*
X0034117Y0018089D01*
X0034116Y0018088D01*
X0034114Y0018086D01*
X0034113Y0018084D01*
X0034112Y0018081D01*
X0034111Y0018079D01*
X0034110Y0018077D01*
X0034110Y0018075D01*
X0034109Y0018072D01*
X0034110Y0018070D01*
X0034109Y0018068D01*
X0034110Y0018065D01*
X0034110Y0018062D01*
X0034111Y0018060D01*
X0034112Y0018059D01*
X0034113Y0018056D01*
X0034114Y0018053D01*
X0034116Y0018051D01*
X0034117Y0018050D01*
X0034117Y0018050D01*
X0034118Y0018049D01*
X0034206Y0017961D01*
X0034206Y0017847D01*
X0034125Y0017765D01*
X0034010Y0017765D01*
X0033929Y0017847D01*
X0033929Y0017961D01*
X0034017Y0018049D01*
X0034018Y0018051D01*
X0034020Y0018053D01*
X0034021Y0018055D01*
X0034022Y0018057D01*
X0034023Y0018060D01*
X0034024Y0018062D01*
X0034025Y0018064D01*
X0034025Y0018066D01*
X0034025Y0018069D01*
X0034025Y0018072D01*
X0034025Y0018074D01*
X0034025Y0018076D01*
X0034024Y0018078D01*
X0034023Y0018081D01*
X0034022Y0018083D01*
X0034021Y0018085D01*
X0034020Y0018087D01*
X0034018Y0018089D01*
X0034017Y0018090D01*
X0034015Y0018092D01*
X0034013Y0018093D01*
X0034011Y0018095D01*
X0034009Y0018096D01*
X0034007Y0018097D01*
X0034004Y0018098D01*
X0034002Y0018099D01*
X0033999Y0018099D01*
X0033998Y0018099D01*
X0033997Y0018099D01*
X0033996Y0018099D01*
X0033931Y0018099D01*
X0033927Y0018099D01*
X0033923Y0018098D01*
X0033922Y0018098D01*
X0033921Y0018098D01*
X0033918Y0018096D01*
X0033914Y0018094D01*
X0033913Y0018093D01*
X0033913Y0018093D01*
X0033912Y0018092D01*
X0033910Y0018091D01*
X0033845Y0018025D01*
X0033730Y0018025D01*
X0033649Y0018107D01*
X0033649Y0018221D01*
X0033730Y0018302D01*
X0033845Y0018302D01*
X0033910Y0018237D01*
X0033913Y0018235D01*
X0033916Y0018232D01*
X0033917Y0018232D01*
X0033918Y0018231D01*
X0033921Y0018230D01*
X0033925Y0018229D01*
X0033926Y0018229D01*
X0033927Y0018229D01*
X0033928Y0018229D01*
X0033931Y0018228D01*
X0034168Y0018228D01*
X0034172Y0018229D01*
X0034176Y0018229D01*
X0034177Y0018230D01*
X0034178Y0018230D01*
X0034181Y0018232D01*
X0034185Y0018233D01*
X0034186Y0018234D01*
X0034186Y0018234D01*
X0034187Y0018235D01*
X0034189Y0018237D01*
X0034248Y0018296D01*
X0034250Y0018298D01*
X0034251Y0018300D01*
X0034252Y0018302D01*
X0034253Y0018303D01*
X0034254Y0018306D01*
X0034255Y0018309D01*
X0034256Y0018311D01*
X0034256Y0018313D01*
X0034256Y0018315D01*
X0034256Y0018318D01*
X0034256Y0018320D01*
X0034256Y0018322D01*
X0034255Y0018325D01*
X0034254Y0018328D01*
X0034253Y0018329D01*
X0034253Y0018331D01*
X0034251Y0018333D01*
X0034249Y0018336D01*
X0034248Y0018337D01*
X0034246Y0018339D01*
X0034244Y0018340D01*
X0034242Y0018342D01*
X0034240Y0018343D01*
X0034238Y0018344D01*
X0034235Y0018344D01*
X0034233Y0018345D01*
X0034230Y0018346D01*
X0034229Y0018346D01*
X0034228Y0018346D01*
X0034227Y0018346D01*
X0034130Y0018346D01*
X0034049Y0018427D01*
X0034049Y0018466D01*
X0034048Y0018470D01*
X0034048Y0018473D01*
X0034048Y0018474D01*
X0034047Y0018475D01*
X0034046Y0018479D01*
X0034044Y0018482D01*
X0034043Y0018483D01*
X0034043Y0018484D01*
X0034042Y0018484D01*
X0034040Y0018487D01*
X0034016Y0018511D01*
X0034013Y0018513D01*
X0034010Y0018516D01*
X0034009Y0018516D01*
X0034008Y0018517D01*
X0034005Y0018518D01*
X0034001Y0018519D01*
X0034000Y0018519D01*
X0033999Y0018520D01*
X0033998Y0018519D01*
X0033995Y0018520D01*
X0033134Y0018520D01*
X0033131Y0018519D01*
X0033128Y0018519D01*
X0033126Y0018519D01*
X0033125Y0018518D01*
X0033122Y0018517D01*
X0033119Y0018516D01*
X0033118Y0018515D01*
X0033116Y0018514D01*
X0033114Y0018512D01*
X0033112Y0018510D01*
X0033111Y0018508D01*
X0033109Y0018507D01*
X0033108Y0018504D01*
X0033107Y0018502D01*
X0033106Y0018500D01*
X0033105Y0018498D01*
X0033105Y0018495D01*
X0033105Y0018492D01*
X0033105Y0018490D01*
X0033105Y0018488D01*
X0033105Y0018486D01*
X0033105Y0018483D01*
X0033106Y0018481D01*
X0033107Y0018479D01*
X0033108Y0018477D01*
X0033109Y0018474D01*
X0033111Y0018472D01*
X0033112Y0018471D01*
X0033112Y0018470D01*
X0033113Y0018469D01*
X0033902Y0017681D01*
X0033905Y0017679D01*
X0033908Y0017676D01*
X0033909Y0017676D01*
X0033909Y0017675D01*
X0033913Y0017674D01*
X0033917Y0017673D01*
X0033918Y0017673D01*
X0033919Y0017672D01*
X0033920Y0017672D01*
X0033923Y0017672D01*
X0034015Y0017672D01*
X0034096Y0017591D01*
X0034096Y0017477D01*
X0034015Y0017395D01*
X0033900Y0017395D01*
X0033819Y0017477D01*
X0033819Y0017569D01*
X0033818Y0017572D01*
X0033818Y0017576D01*
X0033818Y0017577D01*
X0033817Y0017578D01*
X0033816Y0017582D01*
X0033814Y0017585D01*
X0033813Y0017586D01*
X0033813Y0017587D01*
X0033812Y0017587D01*
X0033810Y0017590D01*
X0033021Y0018378D01*
X0033018Y0018381D01*
X0033015Y0018383D01*
X0033014Y0018384D01*
X0033014Y0018384D01*
X0033010Y0018385D01*
X0033006Y0018387D01*
X0033005Y0018387D01*
X0033004Y0018387D01*
X0033003Y0018387D01*
X0033001Y0018387D01*
X0032393Y0018387D01*
X0032089Y0018691D01*
X0032086Y0018693D01*
X0032083Y0018695D01*
X0032082Y0018696D01*
X0032081Y0018696D01*
X0032078Y0018697D01*
X0032074Y0018699D01*
X0032073Y0018699D01*
X0032072Y0018699D01*
X0032071Y0018699D01*
X0032068Y0018699D01*
X0031981Y0018699D01*
X0031977Y0018699D01*
X0031973Y0018698D01*
X0031972Y0018698D01*
X0031971Y0018698D01*
X0031968Y0018696D01*
X0031964Y0018694D01*
X0031963Y0018693D01*
X0031963Y0018693D01*
X0031962Y0018692D01*
X0031960Y0018691D01*
X0031895Y0018625D01*
X0031780Y0018625D01*
X0031699Y0018707D01*
X0031699Y0018821D01*
X0031780Y0018902D01*
X0031895Y0018902D01*
X0031960Y0018837D01*
X0031963Y0018835D01*
X0031966Y0018832D01*
X0031967Y0018832D01*
X0031968Y0018831D01*
X0031971Y0018830D01*
X0031975Y0018829D01*
X0031976Y0018829D01*
X0031977Y0018829D01*
X0031978Y0018829D01*
X0031981Y0018828D01*
X0032050Y0018828D01*
X0032053Y0018829D01*
X0032056Y0018829D01*
X0032058Y0018830D01*
X0032060Y0018830D01*
X0032062Y0018831D01*
X0032065Y0018832D01*
X0032067Y0018834D01*
X0032068Y0018834D01*
X0032070Y0018837D01*
X0032072Y0018838D01*
X0032074Y0018840D01*
X0032075Y0018841D01*
X0032076Y0018844D01*
X0032078Y0018847D01*
X0032078Y0018848D01*
X0032079Y0018850D01*
X0032079Y0018853D01*
X0032080Y0018856D01*
X0032080Y0018858D01*
X0032080Y0018860D01*
X0032079Y0018863D01*
X0032079Y0018865D01*
X0032078Y0018867D01*
X0032078Y0018869D01*
X0032076Y0018872D01*
X0032075Y0018874D01*
X0032073Y0018876D01*
X0032072Y0018877D01*
X0032072Y0018878D01*
X0032071Y0018879D01*
X0031359Y0019591D01*
X0031356Y0019593D01*
X0031353Y0019595D01*
X0031352Y0019596D01*
X0031351Y0019596D01*
X0031348Y0019597D01*
X0031344Y0019599D01*
X0031343Y0019599D01*
X0031342Y0019599D01*
X0031341Y0019599D01*
X0031338Y0019599D01*
X0030311Y0019599D01*
X0030109Y0019801D01*
X0030106Y0019803D01*
X0030103Y0019805D01*
X0030102Y0019806D01*
X0030101Y0019806D01*
X0030098Y0019807D01*
X0030094Y0019809D01*
X0030093Y0019809D01*
X0030092Y0019809D01*
X0030091Y0019809D01*
X0030088Y0019809D01*
X0029781Y0019809D01*
X0029777Y0019809D01*
X0029773Y0019808D01*
X0029772Y0019808D01*
X0029771Y0019808D01*
X0029768Y0019806D01*
X0029764Y0019804D01*
X0029763Y0019803D01*
X0029763Y0019803D01*
X0029762Y0019802D01*
X0029760Y0019801D01*
X0029695Y0019735D01*
X0029580Y0019735D01*
X0029499Y0019817D01*
X0029499Y0019931D01*
X0029580Y0020012D01*
X0029695Y0020012D01*
X0029760Y0019947D01*
X0029763Y0019945D01*
X0029766Y0019942D01*
X0029767Y0019942D01*
X0029768Y0019941D01*
X0029771Y0019940D01*
X0029775Y0019939D01*
X0029776Y0019939D01*
X0029777Y0019939D01*
X0029778Y0019939D01*
X0029781Y0019938D01*
X0030154Y0019938D01*
X0030355Y0019737D01*
X0030359Y0019735D01*
X0030362Y0019732D01*
X0030362Y0019732D01*
X0030363Y0019731D01*
X0030367Y0019730D01*
X0030371Y0019729D01*
X0030372Y0019729D01*
X0030372Y0019729D01*
X0030373Y0019729D01*
X0030376Y0019728D01*
X0031366Y0019728D01*
X0031369Y0019729D01*
X0031372Y0019729D01*
X0031373Y0019730D01*
X0031375Y0019730D01*
X0031378Y0019731D01*
X0031381Y0019732D01*
X0031382Y0019734D01*
X0031384Y0019734D01*
X0031386Y0019737D01*
X0031388Y0019738D01*
X0031389Y0019740D01*
X0031390Y0019741D01*
X0031392Y0019744D01*
X0031393Y0019747D01*
X0031394Y0019748D01*
X0031394Y0019750D01*
X0031395Y0019753D01*
X0031395Y0019756D01*
X0031395Y0019758D01*
X0031395Y0019760D01*
X0031395Y0019763D01*
X0031394Y0019765D01*
X0031394Y0019767D01*
X0031393Y0019769D01*
X0031392Y0019772D01*
X0031390Y0019774D01*
X0031389Y0019776D01*
X0031388Y0019777D01*
X0031388Y0019778D01*
X0031387Y0019779D01*
X0031359Y0019806D01*
X0031359Y0019921D01*
X0031440Y0020002D01*
X0031555Y0020002D01*
X0031636Y0019921D01*
X0031636Y0019806D01*
X0031555Y0019725D01*
X0031478Y0019725D01*
X0031475Y0019725D01*
X0031473Y0019725D01*
X0031471Y0019724D01*
X0031469Y0019724D01*
X0031466Y0019723D01*
X0031464Y0019722D01*
X0031462Y0019720D01*
X0031460Y0019719D01*
X0031458Y0019717D01*
X0031456Y0019715D01*
X0031455Y0019714D01*
X0031454Y0019712D01*
X0031453Y0019710D01*
X0031451Y0019707D01*
X0031451Y0019705D01*
X0031450Y0019704D01*
X0031450Y0019701D01*
X0031449Y0019698D01*
X0031449Y0019696D01*
X0031449Y0019694D01*
X0031449Y0019691D01*
X0031450Y0019688D01*
X0031451Y0019687D01*
X0031451Y0019685D01*
X0031453Y0019682D01*
X0031454Y0019680D01*
X0031456Y0019677D01*
X0031456Y0019677D01*
X0031457Y0019676D01*
X0031457Y0019675D01*
X0032475Y0018657D01*
X0032478Y0018655D01*
X0032481Y0018653D01*
X0032482Y0018652D01*
X0032483Y0018652D01*
X0032486Y0018651D01*
X0032490Y0018649D01*
X0032491Y0018649D01*
X0032492Y0018649D01*
X0032493Y0018649D01*
X0032496Y0018649D01*
X0034061Y0018649D01*
X0034088Y0018622D01*
X0034088Y0018621D01*
X0034089Y0018621D01*
X0034092Y0018619D01*
X0034095Y0018616D01*
X0034096Y0018616D01*
X0034097Y0018616D01*
X0034101Y0018615D01*
X0034105Y0018614D01*
X0034106Y0018614D01*
X0034107Y0018613D01*
X0034110Y0018614D01*
X0034114Y0018614D01*
X0034115Y0018614D01*
X0034116Y0018614D01*
X0034120Y0018616D01*
X0034123Y0018617D01*
X0034124Y0018618D01*
X0034125Y0018618D01*
X0034129Y0018622D01*
X0034130Y0018623D01*
X0034245Y0018623D01*
X0034326Y0018542D01*
X0034326Y0018427D01*
X0034320Y0018422D01*
X0034319Y0018419D01*
X0034317Y0018417D01*
X0034316Y0018415D01*
X0034315Y0018414D01*
X0034314Y0018411D01*
X0034313Y0018408D01*
X0034312Y0018406D01*
X0034312Y0018405D01*
X0034312Y0018402D01*
X0034312Y0018399D01*
X0034312Y0018397D01*
X0034312Y0018395D01*
X0034313Y0018392D01*
X0034314Y0018389D01*
X0034315Y0018388D01*
X0034316Y0018386D01*
X0034317Y0018384D01*
X0034319Y0018381D01*
X0034320Y0018380D01*
X0034322Y0018378D01*
X0034324Y0018377D01*
X0034326Y0018375D01*
X0034328Y0018374D01*
X0034330Y0018373D01*
X0034333Y0018373D01*
X0034335Y0018372D01*
X0034338Y0018371D01*
X0034339Y0018371D01*
X0034340Y0018371D01*
X0034341Y0018371D01*
X0034392Y0018371D01*
X0034393Y0018371D01*
X0034394Y0018371D01*
X0034396Y0018372D01*
X0034400Y0018372D01*
X0034401Y0018373D01*
X0034402Y0018373D01*
X0034403Y0018373D01*
X0034403Y0018373D01*
X0034405Y0018374D01*
X0034405Y0018375D01*
X0034408Y0018376D01*
X0034409Y0018377D01*
X0034410Y0018377D01*
X0034411Y0018378D01*
X0034413Y0018380D01*
X0034434Y0018401D01*
X0034975Y0018401D01*
X0034995Y0018380D01*
X0034995Y0018233D01*
G37*
%LPD*%
%LPC*%
G36*
X0035692Y0018977D02*
X0035692Y0018977D01*
X0035351Y0018636D01*
X0035016Y0018636D01*
X0035013Y0018635D01*
X0035009Y0018635D01*
X0035008Y0018634D01*
X0035007Y0018634D01*
X0035004Y0018632D01*
X0035000Y0018631D01*
X0034999Y0018630D01*
X0034998Y0018630D01*
X0034998Y0018629D01*
X0034996Y0018627D01*
X0034975Y0018606D01*
X0034434Y0018606D01*
X0034413Y0018627D01*
X0034413Y0018774D01*
X0034434Y0018794D01*
X0034975Y0018794D01*
X0034996Y0018773D01*
X0034999Y0018771D01*
X0035002Y0018769D01*
X0035003Y0018768D01*
X0035003Y0018768D01*
X0035007Y0018767D01*
X0035011Y0018765D01*
X0035012Y0018765D01*
X0035013Y0018765D01*
X0035013Y0018765D01*
X0035016Y0018765D01*
X0035285Y0018765D01*
X0035289Y0018765D01*
X0035292Y0018766D01*
X0035293Y0018766D01*
X0035294Y0018766D01*
X0035298Y0018768D01*
X0035301Y0018770D01*
X0035302Y0018771D01*
X0035303Y0018771D01*
X0035303Y0018772D01*
X0035306Y0018773D01*
X0035307Y0018775D01*
X0035309Y0018777D01*
X0035311Y0018780D01*
X0035312Y0018781D01*
X0035313Y0018783D01*
X0035314Y0018786D01*
X0035315Y0018788D01*
X0035315Y0018790D01*
X0035316Y0018792D01*
X0035316Y0018795D01*
X0035316Y0018798D01*
X0035315Y0018800D01*
X0035315Y0018802D01*
X0035314Y0018804D01*
X0035314Y0018807D01*
X0035313Y0018809D01*
X0035312Y0018811D01*
X0035310Y0018813D01*
X0035309Y0018815D01*
X0035307Y0018817D01*
X0035306Y0018818D01*
X0035304Y0018820D01*
X0035301Y0018822D01*
X0035299Y0018822D01*
X0035298Y0018823D01*
X0035295Y0018824D01*
X0035292Y0018825D01*
X0035289Y0018825D01*
X0035288Y0018825D01*
X0035288Y0018825D01*
X0035287Y0018825D01*
X0035160Y0018825D01*
X0035079Y0018907D01*
X0035079Y0019021D01*
X0035160Y0019102D01*
X0035275Y0019102D01*
X0035294Y0019083D01*
X0035295Y0019083D01*
X0035295Y0019082D01*
X0035298Y0019080D01*
X0035302Y0019078D01*
X0035302Y0019077D01*
X0035303Y0019077D01*
X0035307Y0019076D01*
X0035311Y0019075D01*
X0035312Y0019075D01*
X0035313Y0019075D01*
X0035316Y0019075D01*
X0035320Y0019075D01*
X0035321Y0019075D01*
X0035322Y0019076D01*
X0035326Y0019077D01*
X0035329Y0019078D01*
X0035330Y0019079D01*
X0035331Y0019080D01*
X0035335Y0019083D01*
X0035444Y0019192D01*
X0035446Y0019195D01*
X0035449Y0019198D01*
X0035449Y0019199D01*
X0035450Y0019200D01*
X0035451Y0019203D01*
X0035452Y0019207D01*
X0035452Y0019208D01*
X0035453Y0019209D01*
X0035453Y0019210D01*
X0035453Y0019213D01*
X0035453Y0019832D01*
X0035452Y0019835D01*
X0035452Y0019838D01*
X0035452Y0019840D01*
X0035451Y0019842D01*
X0035450Y0019844D01*
X0035449Y0019847D01*
X0035448Y0019849D01*
X0035447Y0019850D01*
X0035445Y0019852D01*
X0035443Y0019855D01*
X0035441Y0019856D01*
X0035440Y0019857D01*
X0035437Y0019858D01*
X0035435Y0019860D01*
X0035433Y0019860D01*
X0035431Y0019861D01*
X0035428Y0019861D01*
X0035425Y0019862D01*
X0035423Y0019862D01*
X0035421Y0019862D01*
X0035419Y0019861D01*
X0035416Y0019861D01*
X0035414Y0019860D01*
X0035412Y0019860D01*
X0035410Y0019858D01*
X0035407Y0019857D01*
X0035405Y0019855D01*
X0035404Y0019855D01*
X0035403Y0019854D01*
X0035402Y0019853D01*
X0035325Y0019775D01*
X0035210Y0019775D01*
X0035197Y0019789D01*
X0035194Y0019791D01*
X0035191Y0019793D01*
X0035190Y0019794D01*
X0035189Y0019794D01*
X0035186Y0019795D01*
X0035182Y0019797D01*
X0035181Y0019797D01*
X0035180Y0019797D01*
X0035179Y0019797D01*
X0035176Y0019797D01*
X0034997Y0019797D01*
X0034993Y0019797D01*
X0034989Y0019796D01*
X0034988Y0019796D01*
X0034987Y0019796D01*
X0034984Y0019794D01*
X0034980Y0019792D01*
X0034979Y0019791D01*
X0034979Y0019791D01*
X0034978Y0019790D01*
X0034976Y0019789D01*
X0034975Y0019787D01*
X0034434Y0019787D01*
X0034433Y0019789D01*
X0034430Y0019791D01*
X0034427Y0019793D01*
X0034426Y0019794D01*
X0034425Y0019794D01*
X0034421Y0019795D01*
X0034418Y0019797D01*
X0034416Y0019797D01*
X0034416Y0019797D01*
X0034415Y0019797D01*
X0034412Y0019797D01*
X0034132Y0019797D01*
X0034128Y0019797D01*
X0034124Y0019796D01*
X0034124Y0019796D01*
X0034123Y0019796D01*
X0034119Y0019794D01*
X0034116Y0019792D01*
X0034115Y0019791D01*
X0034114Y0019791D01*
X0034113Y0019790D01*
X0034111Y0019789D01*
X0034074Y0019752D01*
X0034072Y0019749D01*
X0034070Y0019746D01*
X0034069Y0019745D01*
X0034069Y0019744D01*
X0034068Y0019740D01*
X0034066Y0019737D01*
X0034066Y0019735D01*
X0034066Y0019735D01*
X0034066Y0019734D01*
X0034066Y0019731D01*
X0034066Y0019707D01*
X0033985Y0019625D01*
X0033870Y0019625D01*
X0033789Y0019707D01*
X0033789Y0019821D01*
X0033870Y0019902D01*
X0033974Y0019902D01*
X0033978Y0019903D01*
X0033982Y0019903D01*
X0033983Y0019904D01*
X0033984Y0019904D01*
X0033987Y0019906D01*
X0033991Y0019907D01*
X0033992Y0019908D01*
X0033992Y0019908D01*
X0033993Y0019909D01*
X0033995Y0019911D01*
X0034050Y0019966D01*
X0034412Y0019966D01*
X0034416Y0019966D01*
X0034419Y0019967D01*
X0034420Y0019967D01*
X0034421Y0019967D01*
X0034425Y0019969D01*
X0034428Y0019971D01*
X0034429Y0019971D01*
X0034430Y0019972D01*
X0034430Y0019972D01*
X0034433Y0019974D01*
X0034434Y0019975D01*
X0034975Y0019975D01*
X0034976Y0019974D01*
X0034979Y0019972D01*
X0034982Y0019970D01*
X0034983Y0019969D01*
X0034984Y0019969D01*
X0034987Y0019968D01*
X0034991Y0019966D01*
X0034992Y0019966D01*
X0034993Y0019966D01*
X0034994Y0019966D01*
X0034997Y0019966D01*
X0035111Y0019966D01*
X0035115Y0019966D01*
X0035119Y0019967D01*
X0035120Y0019967D01*
X0035121Y0019967D01*
X0035124Y0019969D01*
X0035128Y0019971D01*
X0035129Y0019971D01*
X0035129Y0019972D01*
X0035130Y0019972D01*
X0035132Y0019974D01*
X0035210Y0020052D01*
X0035325Y0020052D01*
X0035402Y0019974D01*
X0035405Y0019973D01*
X0035407Y0019971D01*
X0035409Y0019970D01*
X0035410Y0019969D01*
X0035413Y0019968D01*
X0035416Y0019967D01*
X0035418Y0019967D01*
X0035419Y0019966D01*
X0035422Y0019966D01*
X0035425Y0019966D01*
X0035427Y0019966D01*
X0035429Y0019966D01*
X0035432Y0019967D01*
X0035435Y0019968D01*
X0035436Y0019969D01*
X0035438Y0019970D01*
X0035440Y0019972D01*
X0035443Y0019973D01*
X0035444Y0019975D01*
X0035445Y0019976D01*
X0035447Y0019978D01*
X0035449Y0019981D01*
X0035450Y0019982D01*
X0035451Y0019984D01*
X0035451Y0019987D01*
X0035452Y0019990D01*
X0035453Y0019992D01*
X0035453Y0019993D01*
X0035453Y0019994D01*
X0035453Y0019995D01*
X0035453Y0020075D01*
X0035452Y0020079D01*
X0035452Y0020082D01*
X0035451Y0020083D01*
X0035451Y0020084D01*
X0035449Y0020088D01*
X0035448Y0020091D01*
X0035447Y0020092D01*
X0035447Y0020093D01*
X0035446Y0020093D01*
X0035444Y0020096D01*
X0035338Y0020202D01*
X0035335Y0020204D01*
X0035332Y0020207D01*
X0035331Y0020207D01*
X0035330Y0020207D01*
X0035327Y0020209D01*
X0035323Y0020210D01*
X0035322Y0020210D01*
X0035321Y0020210D01*
X0035320Y0020210D01*
X0035317Y0020211D01*
X0035016Y0020211D01*
X0035013Y0020210D01*
X0035009Y0020210D01*
X0035008Y0020209D01*
X0035007Y0020209D01*
X0035004Y0020207D01*
X0035000Y0020206D01*
X0034999Y0020205D01*
X0034998Y0020204D01*
X0034998Y0020204D01*
X0034996Y0020202D01*
X0034975Y0020181D01*
X0034434Y0020181D01*
X0034413Y0020202D01*
X0034413Y0020349D01*
X0034434Y0020369D01*
X0034975Y0020369D01*
X0034996Y0020348D01*
X0034999Y0020346D01*
X0035002Y0020344D01*
X0035003Y0020343D01*
X0035003Y0020343D01*
X0035007Y0020342D01*
X0035011Y0020340D01*
X0035012Y0020340D01*
X0035013Y0020340D01*
X0035013Y0020340D01*
X0035016Y0020340D01*
X0035379Y0020340D01*
X0035382Y0020340D01*
X0035385Y0020340D01*
X0035387Y0020341D01*
X0035389Y0020341D01*
X0035391Y0020343D01*
X0035394Y0020344D01*
X0035395Y0020345D01*
X0035397Y0020346D01*
X0035399Y0020348D01*
X0035401Y0020350D01*
X0035402Y0020351D01*
X0035404Y0020353D01*
X0035405Y0020355D01*
X0035406Y0020358D01*
X0035407Y0020360D01*
X0035408Y0020361D01*
X0035408Y0020364D01*
X0035408Y0020367D01*
X0035408Y0020369D01*
X0035408Y0020371D01*
X0035408Y0020374D01*
X0035408Y0020377D01*
X0035407Y0020379D01*
X0035406Y0020380D01*
X0035405Y0020383D01*
X0035404Y0020386D01*
X0035402Y0020388D01*
X0035401Y0020389D01*
X0035401Y0020389D01*
X0035400Y0020390D01*
X0035263Y0020527D01*
X0035260Y0020529D01*
X0035257Y0020532D01*
X0035256Y0020532D01*
X0035255Y0020532D01*
X0035252Y0020534D01*
X0035248Y0020535D01*
X0035247Y0020535D01*
X0035246Y0020535D01*
X0035245Y0020535D01*
X0035242Y0020535D01*
X0035220Y0020535D01*
X0035158Y0020598D01*
X0035155Y0020600D01*
X0035152Y0020602D01*
X0035151Y0020603D01*
X0035150Y0020603D01*
X0035147Y0020604D01*
X0035143Y0020606D01*
X0035142Y0020606D01*
X0035141Y0020606D01*
X0035137Y0020606D01*
X0035133Y0020606D01*
X0035132Y0020606D01*
X0035131Y0020606D01*
X0035128Y0020604D01*
X0035124Y0020603D01*
X0035123Y0020603D01*
X0035122Y0020602D01*
X0035119Y0020600D01*
X0035116Y0020598D01*
X0035116Y0020597D01*
X0035115Y0020596D01*
X0035113Y0020593D01*
X0035111Y0020590D01*
X0035110Y0020588D01*
X0035110Y0020588D01*
X0035110Y0020587D01*
X0035109Y0020584D01*
X0035100Y0020552D01*
X0035080Y0020518D01*
X0035052Y0020490D01*
X0035018Y0020470D01*
X0034980Y0020460D01*
X0034734Y0020460D01*
X0034734Y0020669D01*
X0034734Y0020878D01*
X0034980Y0020878D01*
X0035018Y0020868D01*
X0035052Y0020848D01*
X0035080Y0020820D01*
X0035100Y0020786D01*
X0035107Y0020761D01*
X0035108Y0020758D01*
X0035109Y0020754D01*
X0035110Y0020753D01*
X0035110Y0020752D01*
X0035113Y0020750D01*
X0035116Y0020747D01*
X0035116Y0020746D01*
X0035117Y0020745D01*
X0035120Y0020744D01*
X0035124Y0020742D01*
X0035125Y0020741D01*
X0035126Y0020741D01*
X0035129Y0020740D01*
X0035133Y0020739D01*
X0035134Y0020740D01*
X0035135Y0020739D01*
X0035139Y0020740D01*
X0035143Y0020740D01*
X0035143Y0020741D01*
X0035144Y0020741D01*
X0035148Y0020743D01*
X0035151Y0020744D01*
X0035152Y0020745D01*
X0035153Y0020745D01*
X0035154Y0020746D01*
X0035156Y0020748D01*
X0035220Y0020812D01*
X0035335Y0020812D01*
X0035416Y0020731D01*
X0035416Y0020616D01*
X0035407Y0020607D01*
X0035406Y0020607D01*
X0035405Y0020606D01*
X0035403Y0020603D01*
X0035401Y0020600D01*
X0035401Y0020599D01*
X0035400Y0020598D01*
X0035399Y0020594D01*
X0035398Y0020590D01*
X0035398Y0020590D01*
X0035398Y0020589D01*
X0035399Y0020585D01*
X0035399Y0020581D01*
X0035399Y0020580D01*
X0035399Y0020579D01*
X0035401Y0020576D01*
X0035402Y0020572D01*
X0035403Y0020571D01*
X0035403Y0020570D01*
X0035407Y0020566D01*
X0035692Y0020281D01*
X0035692Y0018977D01*
G37*
%LPD*%
%LPC*%
G36*
X0031200Y0021358D02*
X0031200Y0021358D01*
X0031125Y0021177D01*
X0030987Y0021039D01*
X0030806Y0020964D01*
X0030610Y0020964D01*
X0030429Y0021039D01*
X0030291Y0021177D01*
X0030216Y0021358D01*
X0030216Y0021554D01*
X0030291Y0021735D01*
X0030429Y0021873D01*
X0030610Y0021948D01*
X0030806Y0021948D01*
X0030987Y0021873D01*
X0031125Y0021735D01*
X0031200Y0021554D01*
X0031200Y0021358D01*
G37*
%LPD*%
%LPC*%
G36*
X0031200Y0016240D02*
X0031200Y0016240D01*
X0031125Y0016059D01*
X0030987Y0015921D01*
X0030806Y0015846D01*
X0030610Y0015846D01*
X0030429Y0015921D01*
X0030291Y0016059D01*
X0030216Y0016240D01*
X0030216Y0016436D01*
X0030291Y0016617D01*
X0030429Y0016755D01*
X0030610Y0016830D01*
X0030806Y0016830D01*
X0030987Y0016755D01*
X0031125Y0016617D01*
X0031200Y0016436D01*
X0031200Y0016240D01*
G37*
%LPD*%
%LPC*%
G36*
X0035669Y0021574D02*
X0035669Y0021574D01*
X0035086Y0021574D01*
X0035086Y0021929D01*
X0035096Y0021967D01*
X0035116Y0022001D01*
X0035144Y0022029D01*
X0035178Y0022049D01*
X0035216Y0022059D01*
X0035669Y0022059D01*
X0035669Y0021574D01*
G37*
%LPD*%
%LPC*%
G36*
X0035669Y0016338D02*
X0035669Y0016338D01*
X0035086Y0016338D01*
X0035086Y0016692D01*
X0035096Y0016731D01*
X0035116Y0016765D01*
X0035144Y0016793D01*
X0035178Y0016813D01*
X0035216Y0016823D01*
X0035669Y0016823D01*
X0035669Y0016338D01*
G37*
%LPD*%
%LPC*%
G36*
X0035669Y0020972D02*
X0035669Y0020972D01*
X0035216Y0020972D01*
X0035196Y0020977D01*
X0035178Y0020982D01*
X0035144Y0021002D01*
X0035116Y0021029D01*
X0035096Y0021064D01*
X0035086Y0021102D01*
X0035086Y0021456D01*
X0035669Y0021456D01*
X0035669Y0020972D01*
G37*
%LPD*%
%LPC*%
G36*
X0035669Y0015735D02*
X0035669Y0015735D01*
X0035216Y0015735D01*
X0035196Y0015741D01*
X0035178Y0015746D01*
X0035144Y0015765D01*
X0035116Y0015793D01*
X0035096Y0015827D01*
X0035086Y0015866D01*
X0035086Y0016220D01*
X0035669Y0016220D01*
X0035669Y0015735D01*
G37*
%LPD*%
%LPC*%
G36*
X0036370Y0016338D02*
X0036370Y0016338D01*
X0035787Y0016338D01*
X0035787Y0016823D01*
X0036240Y0016823D01*
X0036242Y0016822D01*
X0036278Y0016813D01*
X0036312Y0016793D01*
X0036340Y0016765D01*
X0036360Y0016731D01*
X0036370Y0016692D01*
X0036370Y0016338D01*
G37*
%LPD*%
%LPC*%
G36*
X0036370Y0021574D02*
X0036370Y0021574D01*
X0035787Y0021574D01*
X0035787Y0022059D01*
X0036240Y0022059D01*
X0036242Y0022058D01*
X0036278Y0022049D01*
X0036312Y0022029D01*
X0036340Y0022001D01*
X0036360Y0021967D01*
X0036370Y0021929D01*
X0036370Y0021574D01*
G37*
%LPD*%
%LPC*%
G36*
X0036370Y0021102D02*
X0036370Y0021102D01*
X0036360Y0021064D01*
X0036340Y0021029D01*
X0036312Y0021002D01*
X0036278Y0020982D01*
X0036240Y0020972D01*
X0035787Y0020972D01*
X0035787Y0021456D01*
X0036370Y0021456D01*
X0036370Y0021102D01*
G37*
%LPD*%
%LPC*%
G36*
X0036370Y0015866D02*
X0036370Y0015866D01*
X0036360Y0015827D01*
X0036340Y0015793D01*
X0036312Y0015765D01*
X0036278Y0015746D01*
X0036240Y0015735D01*
X0035787Y0015735D01*
X0035787Y0016220D01*
X0036370Y0016220D01*
X0036370Y0015866D01*
G37*
%LPD*%
%LPC*%
G36*
X0034995Y0019414D02*
X0034995Y0019414D01*
X0034975Y0019394D01*
X0034434Y0019394D01*
X0034413Y0019414D01*
X0034410Y0019417D01*
X0034409Y0019417D01*
X0034408Y0019418D01*
X0034408Y0019418D01*
X0034407Y0019419D01*
X0034406Y0019420D01*
X0034405Y0019420D01*
X0034401Y0019421D01*
X0034399Y0019422D01*
X0034399Y0019422D01*
X0034398Y0019423D01*
X0034397Y0019423D01*
X0034396Y0019423D01*
X0034395Y0019423D01*
X0034392Y0019423D01*
X0034370Y0019423D01*
X0034366Y0019422D01*
X0034363Y0019422D01*
X0034362Y0019422D01*
X0034361Y0019422D01*
X0034357Y0019420D01*
X0034354Y0019418D01*
X0034353Y0019417D01*
X0034352Y0019417D01*
X0034352Y0019416D01*
X0034349Y0019414D01*
X0034302Y0019367D01*
X0034301Y0019366D01*
X0034300Y0019365D01*
X0034298Y0019362D01*
X0034296Y0019359D01*
X0034296Y0019358D01*
X0034295Y0019357D01*
X0034294Y0019354D01*
X0034293Y0019350D01*
X0034293Y0019349D01*
X0034293Y0019348D01*
X0034294Y0019344D01*
X0034294Y0019340D01*
X0034294Y0019339D01*
X0034294Y0019338D01*
X0034296Y0019335D01*
X0034297Y0019331D01*
X0034298Y0019331D01*
X0034298Y0019330D01*
X0034302Y0019325D01*
X0034346Y0019281D01*
X0034346Y0019167D01*
X0034265Y0019085D01*
X0034150Y0019085D01*
X0034069Y0019167D01*
X0034069Y0019281D01*
X0034134Y0019346D01*
X0034136Y0019349D01*
X0034139Y0019352D01*
X0034139Y0019353D01*
X0034140Y0019354D01*
X0034141Y0019358D01*
X0034142Y0019361D01*
X0034142Y0019363D01*
X0034143Y0019363D01*
X0034143Y0019364D01*
X0034143Y0019367D01*
X0034143Y0019391D01*
X0034305Y0019552D01*
X0034392Y0019552D01*
X0034393Y0019552D01*
X0034394Y0019552D01*
X0034396Y0019553D01*
X0034400Y0019553D01*
X0034401Y0019554D01*
X0034402Y0019554D01*
X0034403Y0019554D01*
X0034403Y0019555D01*
X0034405Y0019555D01*
X0034405Y0019556D01*
X0034408Y0019557D01*
X0034409Y0019558D01*
X0034410Y0019558D01*
X0034411Y0019559D01*
X0034413Y0019561D01*
X0034434Y0019582D01*
X0034975Y0019582D01*
X0034995Y0019561D01*
X0034995Y0019414D01*
G37*
%LPD*%
%LPC*%
G36*
X0035526Y0017467D02*
X0035526Y0017467D01*
X0035445Y0017385D01*
X0035330Y0017385D01*
X0035270Y0017446D01*
X0035266Y0017448D01*
X0035263Y0017451D01*
X0035263Y0017451D01*
X0035262Y0017452D01*
X0035258Y0017453D01*
X0035254Y0017454D01*
X0035253Y0017454D01*
X0035253Y0017454D01*
X0035252Y0017454D01*
X0035249Y0017455D01*
X0035016Y0017455D01*
X0035013Y0017454D01*
X0035009Y0017454D01*
X0035008Y0017453D01*
X0035007Y0017453D01*
X0035004Y0017451D01*
X0035000Y0017450D01*
X0034999Y0017449D01*
X0034998Y0017449D01*
X0034998Y0017448D01*
X0034996Y0017446D01*
X0034975Y0017425D01*
X0034434Y0017425D01*
X0034413Y0017446D01*
X0034413Y0017593D01*
X0034434Y0017613D01*
X0034975Y0017613D01*
X0034996Y0017592D01*
X0034999Y0017590D01*
X0035002Y0017588D01*
X0035003Y0017587D01*
X0035003Y0017587D01*
X0035007Y0017586D01*
X0035011Y0017584D01*
X0035012Y0017584D01*
X0035013Y0017584D01*
X0035013Y0017584D01*
X0035016Y0017584D01*
X0035239Y0017584D01*
X0035243Y0017584D01*
X0035247Y0017585D01*
X0035248Y0017585D01*
X0035249Y0017585D01*
X0035252Y0017587D01*
X0035256Y0017589D01*
X0035257Y0017590D01*
X0035257Y0017590D01*
X0035258Y0017591D01*
X0035260Y0017592D01*
X0035330Y0017662D01*
X0035445Y0017662D01*
X0035526Y0017581D01*
X0035526Y0017467D01*
G37*
%LPD*%
%LPC*%
G36*
X0035376Y0019347D02*
X0035376Y0019347D01*
X0035295Y0019265D01*
X0035243Y0019265D01*
X0035239Y0019265D01*
X0035235Y0019264D01*
X0035234Y0019264D01*
X0035233Y0019264D01*
X0035230Y0019262D01*
X0035226Y0019260D01*
X0035225Y0019260D01*
X0035225Y0019259D01*
X0035224Y0019259D01*
X0035222Y0019257D01*
X0035041Y0019076D01*
X0035004Y0019039D01*
X0035002Y0019036D01*
X0034999Y0019033D01*
X0034999Y0019032D01*
X0034998Y0019031D01*
X0034997Y0019027D01*
X0034996Y0019024D01*
X0034996Y0019023D01*
X0034995Y0019022D01*
X0034995Y0019021D01*
X0034995Y0019021D01*
X0034975Y0019000D01*
X0034434Y0019000D01*
X0034413Y0019020D01*
X0034413Y0019168D01*
X0034434Y0019188D01*
X0034958Y0019188D01*
X0034962Y0019189D01*
X0034966Y0019189D01*
X0034967Y0019189D01*
X0034968Y0019190D01*
X0034971Y0019191D01*
X0034974Y0019193D01*
X0034975Y0019194D01*
X0034976Y0019194D01*
X0034977Y0019195D01*
X0034979Y0019197D01*
X0035093Y0019311D01*
X0035094Y0019312D01*
X0035094Y0019312D01*
X0035096Y0019315D01*
X0035099Y0019319D01*
X0035099Y0019320D01*
X0035099Y0019320D01*
X0035100Y0019324D01*
X0035101Y0019328D01*
X0035101Y0019329D01*
X0035102Y0019330D01*
X0035101Y0019334D01*
X0035101Y0019337D01*
X0035101Y0019338D01*
X0035101Y0019339D01*
X0035099Y0019343D01*
X0035099Y0019343D01*
X0035099Y0019461D01*
X0035180Y0019542D01*
X0035295Y0019542D01*
X0035376Y0019461D01*
X0035376Y0019347D01*
G37*
%LPD*%
%LPC*%
G36*
X0034995Y0017839D02*
X0034995Y0017839D01*
X0034975Y0017819D01*
X0034434Y0017819D01*
X0034413Y0017839D01*
X0034413Y0017986D01*
X0034434Y0018007D01*
X0034975Y0018007D01*
X0034995Y0017986D01*
X0034995Y0017839D01*
G37*
%LPD*%
%LPC*%
G36*
X0034995Y0017052D02*
X0034995Y0017052D01*
X0034975Y0017031D01*
X0034434Y0017031D01*
X0034413Y0017052D01*
X0034413Y0017199D01*
X0034434Y0017220D01*
X0034975Y0017220D01*
X0034995Y0017199D01*
X0034995Y0017052D01*
G37*
%LPD*%
%LPC*%
G36*
X0029446Y0019467D02*
X0029446Y0019467D01*
X0029365Y0019385D01*
X0029250Y0019385D01*
X0029169Y0019467D01*
X0029169Y0019581D01*
X0029250Y0019662D01*
X0029365Y0019662D01*
X0029446Y0019581D01*
X0029446Y0019467D01*
G37*
%LPD*%
%LPC*%
G36*
X0033896Y0020157D02*
X0033896Y0020157D01*
X0033815Y0020075D01*
X0033700Y0020075D01*
X0033619Y0020157D01*
X0033619Y0020271D01*
X0033700Y0020352D01*
X0033815Y0020352D01*
X0033896Y0020271D01*
X0033896Y0020157D01*
G37*
%LPD*%
%LPC*%
G36*
X0033606Y0018827D02*
X0033606Y0018827D01*
X0033525Y0018745D01*
X0033410Y0018745D01*
X0033329Y0018827D01*
X0033329Y0018941D01*
X0033410Y0019022D01*
X0033525Y0019022D01*
X0033606Y0018941D01*
X0033606Y0018827D01*
G37*
%LPD*%
%LPC*%
G36*
X0033576Y0016367D02*
X0033576Y0016367D01*
X0033495Y0016285D01*
X0033380Y0016285D01*
X0033299Y0016367D01*
X0033299Y0016481D01*
X0033380Y0016562D01*
X0033495Y0016562D01*
X0033576Y0016481D01*
X0033576Y0016367D01*
G37*
%LPD*%
%LPC*%
G36*
X0035426Y0017867D02*
X0035426Y0017867D01*
X0035345Y0017785D01*
X0035230Y0017785D01*
X0035149Y0017867D01*
X0035149Y0017981D01*
X0035230Y0018062D01*
X0035345Y0018062D01*
X0035426Y0017981D01*
X0035426Y0017867D01*
G37*
%LPD*%
%LPC*%
G36*
X0032656Y0018107D02*
X0032656Y0018107D01*
X0032575Y0018025D01*
X0032460Y0018025D01*
X0032379Y0018107D01*
X0032379Y0018221D01*
X0032460Y0018302D01*
X0032575Y0018302D01*
X0032656Y0018221D01*
X0032656Y0018107D01*
G37*
%LPD*%
%LPC*%
G36*
X0032636Y0020631D02*
X0032636Y0020631D01*
X0032555Y0020550D01*
X0032441Y0020550D01*
X0032360Y0020631D01*
X0032360Y0020745D01*
X0032441Y0020826D01*
X0032555Y0020826D01*
X0032636Y0020745D01*
X0032636Y0020631D01*
G37*
%LPD*%
%LPC*%
G36*
X0029506Y0017007D02*
X0029506Y0017007D01*
X0029425Y0016925D01*
X0029310Y0016925D01*
X0029229Y0017007D01*
X0029229Y0017121D01*
X0029310Y0017202D01*
X0029425Y0017202D01*
X0029506Y0017121D01*
X0029506Y0017007D01*
G37*
%LPD*%
%LPC*%
G36*
X0034675Y0020698D02*
X0034675Y0020698D01*
X0034298Y0020698D01*
X0034298Y0020748D01*
X0034309Y0020786D01*
X0034328Y0020820D01*
X0034356Y0020848D01*
X0034390Y0020868D01*
X0034429Y0020878D01*
X0034675Y0020878D01*
X0034675Y0020698D01*
G37*
%LPD*%
%LPC*%
G36*
X0034675Y0020460D02*
X0034675Y0020460D01*
X0034429Y0020460D01*
X0034399Y0020468D01*
X0034390Y0020470D01*
X0034356Y0020490D01*
X0034328Y0020518D01*
X0034309Y0020552D01*
X0034298Y0020590D01*
X0034298Y0020639D01*
X0034675Y0020639D01*
X0034675Y0020460D01*
G37*
%LPD*%
%LPC*%
G36*
X0035728Y0021515D02*
X0035728Y0021515D01*
X0035728Y0021515D01*
X0035728Y0021515D01*
X0035728Y0021515D01*
X0035728Y0021515D01*
G37*
%LPD*%
%LPC*%
G36*
X0035728Y0016279D02*
X0035728Y0016279D01*
X0035728Y0016279D01*
X0035728Y0016279D01*
X0035728Y0016279D01*
X0035728Y0016279D01*
G37*
%LPD*%
D28*
X0032048Y0021624D02*
X0031974Y0021884D01*
X0032159Y0021884D01*
X0032104Y0021809D02*
X0032104Y0021958D01*
D29*
X0034704Y0020669D03*
X0034704Y0020275D03*
X0034704Y0019881D03*
X0034704Y0019488D03*
X0034704Y0019094D03*
X0034704Y0018700D03*
X0034704Y0018307D03*
X0034704Y0017913D03*
X0034704Y0017519D03*
X0034704Y0017125D03*
D30*
X0035728Y0016279D03*
X0035728Y0021515D03*
D31*
X0004724Y0019685D03*
X0020078Y0018110D03*
D32*
X0029197Y0020654D03*
X0028777Y0020234D03*
X0027741Y0021146D03*
X0026691Y0022126D03*
X0027151Y0022126D03*
X0028544Y0021263D03*
X0026660Y0021500D03*
X0027615Y0018559D03*
X0026664Y0018556D03*
X0029324Y0018446D03*
X0029114Y0018946D03*
X0028074Y0017826D03*
X0029934Y0018106D03*
X0031384Y0018116D03*
X0030694Y0018926D03*
X0031982Y0020674D03*
X0031472Y0020654D03*
X0033062Y0017877D03*
X0033082Y0019357D03*
X0033052Y0020487D03*
X0034689Y0016639D03*
X0034069Y0017119D03*
X0026967Y0016931D03*
X0027617Y0017641D03*
X0026687Y0017661D03*
X0027505Y0018999D03*
X0027454Y0016070D03*
X0025348Y0018446D03*
X0025338Y0019586D03*
X0027488Y0019846D03*
X0028108Y0019536D03*
X0026638Y0020176D03*
X0036705Y0022161D03*
X0036351Y0022191D03*
X0036745Y0021797D03*
X0036701Y0015648D03*
X0036378Y0015588D03*
X0036771Y0015982D03*
X0025345Y0015584D03*
X0025345Y0015978D03*
X0025739Y0015584D03*
X0025346Y0022191D03*
X0025740Y0022191D03*
X0025346Y0021797D03*
X0025353Y0017778D03*
X0026093Y0017778D03*
X0026093Y0018448D03*
X0030674Y0017586D03*
X0031520Y0022125D03*
X0029890Y0022065D03*
X0031660Y0015645D03*
X0029960Y0015635D03*
X0034721Y0021128D03*
X0034041Y0020658D03*
X0029546Y0021893D03*
X0029951Y0019600D03*
X0032078Y0018375D03*
X0004724Y0019685D03*
D33*
X0024409Y0019685D01*
X0025239Y0019685D01*
X0025338Y0019586D01*
D32*
X0024409Y0019685D03*
X0034067Y0017904D03*
X0035287Y0017924D03*
X0033467Y0018884D03*
X0032517Y0018164D03*
X0032498Y0020688D03*
X0029307Y0019524D03*
X0029367Y0017064D03*
D34*
X0034085Y0019881D02*
X0034704Y0019881D01*
X0033967Y0019764D02*
X0033927Y0019764D01*
D32*
X0033927Y0019764D03*
D34*
X0033967Y0019764D02*
X0034085Y0019881D01*
X0034704Y0019881D02*
X0035235Y0019881D01*
X0035267Y0019914D01*
D32*
X0035267Y0019914D03*
X0031497Y0019864D03*
X0033437Y0016424D03*
D35*
X0034350Y0018307D02*
X0034704Y0018307D01*
X0034350Y0018307D02*
X0034207Y0018164D01*
X0033787Y0018164D01*
D32*
X0033787Y0018164D03*
X0033957Y0017534D03*
D35*
X0033040Y0018452D01*
X0032107Y0018764D02*
X0031837Y0018764D01*
D32*
X0031837Y0018764D03*
D35*
X0032420Y0018452D02*
X0033040Y0018452D01*
X0032420Y0018452D02*
X0032107Y0018764D01*
D32*
X0033757Y0020214D03*
X0035387Y0017524D03*
D35*
X0035383Y0017519D01*
X0034704Y0017519D01*
D32*
X0024409Y0018110D03*
D33*
X0020078Y0018110D01*
D32*
X0020078Y0018110D03*
X0034187Y0018484D03*
D35*
X0034034Y0018584D02*
X0032457Y0018584D01*
X0034034Y0018584D02*
X0034134Y0018484D01*
X0034187Y0018484D01*
X0031377Y0019664D02*
X0030337Y0019664D01*
X0030127Y0019874D02*
X0029637Y0019874D01*
X0030127Y0019874D02*
X0030337Y0019664D01*
D32*
X0029637Y0019874D03*
D35*
X0031377Y0019664D02*
X0032457Y0018584D01*
X0034331Y0019488D02*
X0034704Y0019488D01*
X0034331Y0019488D02*
X0034207Y0019364D01*
X0034207Y0019224D01*
D32*
X0034207Y0019224D03*
D35*
X0034704Y0020275D02*
X0035356Y0020275D01*
X0035517Y0020114D02*
X0035517Y0019174D01*
X0035307Y0018964D02*
X0035217Y0018964D01*
X0035307Y0018964D02*
X0035517Y0019174D01*
D32*
X0035217Y0018964D03*
D35*
X0035517Y0020114D02*
X0035356Y0020275D01*
X0034968Y0019094D02*
X0034704Y0019094D01*
X0035237Y0019364D02*
X0035237Y0019404D01*
X0035237Y0019364D02*
X0034968Y0019094D01*
D32*
X0035237Y0019404D03*
D35*
X0035324Y0018700D02*
X0034704Y0018700D01*
X0035627Y0019004D02*
X0035627Y0020254D01*
X0035277Y0020604D02*
X0035277Y0020674D01*
X0035277Y0020604D02*
X0035627Y0020254D01*
D32*
X0035277Y0020674D03*
D35*
X0035627Y0019004D02*
X0035324Y0018700D01*
D36*
X0032342Y0022145D02*
X0031791Y0022145D01*
X0031791Y0021437D01*
X0032342Y0021437D01*
X0032342Y0022145D01*
G04 next file*
G04 EAGLE Gerber RS-274X export*
G75*
G01*
G36*
X0003622Y0009054D02*
X0003622Y0009054D01*
X0003622Y0009052D01*
X0003627Y0008996D01*
X0003628Y0008995D01*
X0003628Y0008993D01*
X0003629Y0008988D01*
X0003672Y0008885D01*
X0003673Y0008882D01*
X0003675Y0008880D01*
X0003676Y0008877D01*
X0003677Y0008877D01*
X0003677Y0008876D01*
X0003678Y0008875D01*
X0003757Y0008796D01*
X0003759Y0008795D01*
X0003762Y0008793D01*
X0003764Y0008791D01*
X0003765Y0008791D01*
X0003765Y0008791D01*
X0003767Y0008790D01*
X0003870Y0008747D01*
X0003871Y0008747D01*
X0003872Y0008746D01*
X0003878Y0008745D01*
X0003934Y0008740D01*
X0003935Y0008740D01*
X0003937Y0008740D01*
X0015309Y0008740D01*
X0015313Y0008740D01*
X0015317Y0008741D01*
X0015317Y0008741D01*
X0015318Y0008741D01*
X0015322Y0008743D01*
X0015325Y0008745D01*
X0015326Y0008745D01*
X0015327Y0008746D01*
X0015328Y0008747D01*
X0015330Y0008748D01*
X0015375Y0008793D01*
X0015377Y0008796D01*
X0015379Y0008799D01*
X0015380Y0008800D01*
X0015380Y0008801D01*
X0015381Y0008805D01*
X0015383Y0008808D01*
X0015383Y0008810D01*
X0015383Y0008810D01*
X0015383Y0008811D01*
X0015383Y0008814D01*
X0015383Y0015594D01*
X0015383Y0015598D01*
X0015382Y0015602D01*
X0015382Y0015603D01*
X0015382Y0015604D01*
X0015380Y0015607D01*
X0015378Y0015611D01*
X0015377Y0015612D01*
X0015377Y0015612D01*
X0015377Y0015613D01*
X0015375Y0015615D01*
X0015330Y0015660D01*
X0015327Y0015662D01*
X0015324Y0015665D01*
X0015323Y0015665D01*
X0015322Y0015666D01*
X0015318Y0015667D01*
X0015315Y0015668D01*
X0015313Y0015668D01*
X0015313Y0015669D01*
X0015312Y0015668D01*
X0015309Y0015669D01*
X0003937Y0015669D01*
X0003936Y0015669D01*
X0003934Y0015669D01*
X0003878Y0015663D01*
X0003877Y0015663D01*
X0003875Y0015663D01*
X0003870Y0015661D01*
X0003767Y0015618D01*
X0003764Y0015617D01*
X0003762Y0015616D01*
X0003759Y0015614D01*
X0003758Y0015613D01*
X0003758Y0015613D01*
X0003757Y0015612D01*
X0003678Y0015533D01*
X0003677Y0015531D01*
X0003675Y0015529D01*
X0003675Y0015529D01*
X0003673Y0015526D01*
X0003673Y0015525D01*
X0003673Y0015525D01*
X0003672Y0015524D01*
X0003629Y0015421D01*
X0003629Y0015419D01*
X0003628Y0015418D01*
X0003627Y0015412D01*
X0003622Y0015357D01*
X0003622Y0015356D01*
X0003622Y0015354D01*
X0003622Y0009055D01*
X0003622Y0009054D01*
G37*
G36*
X0019862Y0011809D02*
X0019862Y0011809D01*
X0019862Y0011808D01*
X0019863Y0011802D01*
X0019863Y0011797D01*
X0019864Y0011796D01*
X0019864Y0011794D01*
X0019866Y0011789D01*
X0019868Y0011784D01*
X0019869Y0011783D01*
X0019869Y0011782D01*
X0019872Y0011777D01*
X0019875Y0011773D01*
X0019876Y0011772D01*
X0019877Y0011771D01*
X0019881Y0011767D01*
X0019885Y0011763D01*
X0019886Y0011763D01*
X0019887Y0011762D01*
X0019892Y0011759D01*
X0019897Y0011757D01*
X0019898Y0011756D01*
X0019900Y0011755D01*
X0019905Y0011754D01*
X0019910Y0011752D01*
X0019911Y0011752D01*
X0019913Y0011752D01*
X0019921Y0011752D01*
X0021023Y0011752D01*
X0021025Y0011752D01*
X0021026Y0011752D01*
X0021031Y0011752D01*
X0021037Y0011753D01*
X0021038Y0011754D01*
X0021039Y0011754D01*
X0021044Y0011756D01*
X0021049Y0011758D01*
X0021051Y0011758D01*
X0021052Y0011759D01*
X0021056Y0011762D01*
X0021061Y0011765D01*
X0021062Y0011766D01*
X0021063Y0011767D01*
X0021067Y0011771D01*
X0021070Y0011775D01*
X0021071Y0011776D01*
X0021072Y0011777D01*
X0021074Y0011782D01*
X0021077Y0011787D01*
X0021078Y0011788D01*
X0021078Y0011789D01*
X0021080Y0011795D01*
X0021081Y0011800D01*
X0021081Y0011801D01*
X0021082Y0011802D01*
X0021082Y0011811D01*
X0021082Y0013641D01*
X0021082Y0013643D01*
X0021082Y0013644D01*
X0021081Y0013649D01*
X0021081Y0013655D01*
X0021080Y0013656D01*
X0021080Y0013657D01*
X0021078Y0013662D01*
X0021076Y0013668D01*
X0021075Y0013669D01*
X0021075Y0013670D01*
X0021071Y0013674D01*
X0021069Y0013679D01*
X0021067Y0013680D01*
X0021067Y0013681D01*
X0021063Y0013685D01*
X0021059Y0013688D01*
X0021057Y0013689D01*
X0021056Y0013690D01*
X0021052Y0013692D01*
X0021047Y0013695D01*
X0021046Y0013696D01*
X0021044Y0013696D01*
X0021039Y0013698D01*
X0021034Y0013699D01*
X0021033Y0013699D01*
X0021031Y0013700D01*
X0021023Y0013700D01*
X0019921Y0013700D01*
X0019919Y0013700D01*
X0019918Y0013700D01*
X0019913Y0013699D01*
X0019907Y0013699D01*
X0019906Y0013698D01*
X0019905Y0013698D01*
X0019900Y0013696D01*
X0019894Y0013694D01*
X0019893Y0013693D01*
X0019892Y0013693D01*
X0019888Y0013690D01*
X0019883Y0013687D01*
X0019882Y0013686D01*
X0019881Y0013685D01*
X0019877Y0013681D01*
X0019874Y0013677D01*
X0019873Y0013676D01*
X0019872Y0013675D01*
X0019870Y0013670D01*
X0019867Y0013665D01*
X0019866Y0013664D01*
X0019866Y0013662D01*
X0019864Y0013657D01*
X0019863Y0013652D01*
X0019863Y0013651D01*
X0019862Y0013649D01*
X0019862Y0013641D01*
X0019862Y0011811D01*
X0019862Y0011809D01*
G37*
G36*
X0035216Y0010766D02*
X0035216Y0010766D01*
X0035216Y0010764D01*
X0035217Y0010759D01*
X0035218Y0010754D01*
X0035218Y0010752D01*
X0035218Y0010751D01*
X0035220Y0010746D01*
X0035222Y0010741D01*
X0035223Y0010740D01*
X0035224Y0010738D01*
X0035227Y0010734D01*
X0035230Y0010730D01*
X0035231Y0010729D01*
X0035232Y0010727D01*
X0035236Y0010724D01*
X0035240Y0010720D01*
X0035241Y0010719D01*
X0035242Y0010718D01*
X0035247Y0010716D01*
X0035251Y0010713D01*
X0035253Y0010713D01*
X0035254Y0010712D01*
X0035259Y0010711D01*
X0035264Y0010709D01*
X0035266Y0010709D01*
X0035267Y0010709D01*
X0035275Y0010708D01*
X0036377Y0010708D01*
X0036379Y0010708D01*
X0036380Y0010708D01*
X0036386Y0010709D01*
X0036391Y0010710D01*
X0036392Y0010710D01*
X0036394Y0010710D01*
X0036399Y0010713D01*
X0036404Y0010714D01*
X0036405Y0010715D01*
X0036406Y0010716D01*
X0036411Y0010719D01*
X0036415Y0010722D01*
X0036416Y0010723D01*
X0036417Y0010724D01*
X0036421Y0010728D01*
X0036425Y0010732D01*
X0036425Y0010733D01*
X0036426Y0010734D01*
X0036429Y0010739D01*
X0036431Y0010743D01*
X0036432Y0010745D01*
X0036433Y0010746D01*
X0036434Y0010751D01*
X0036435Y0010756D01*
X0036436Y0010758D01*
X0036436Y0010759D01*
X0036436Y0010767D01*
X0036436Y0012598D01*
X0036436Y0012599D01*
X0036436Y0012601D01*
X0036436Y0012606D01*
X0036435Y0012611D01*
X0036434Y0012613D01*
X0036434Y0012614D01*
X0036432Y0012619D01*
X0036430Y0012624D01*
X0036430Y0012625D01*
X0036429Y0012627D01*
X0036426Y0012631D01*
X0036423Y0012636D01*
X0036422Y0012637D01*
X0036421Y0012638D01*
X0036417Y0012641D01*
X0036413Y0012645D01*
X0036412Y0012646D01*
X0036411Y0012647D01*
X0036406Y0012649D01*
X0036401Y0012652D01*
X0036400Y0012652D01*
X0036399Y0012653D01*
X0036393Y0012654D01*
X0036388Y0012656D01*
X0036387Y0012656D01*
X0036386Y0012656D01*
X0036377Y0012657D01*
X0035275Y0012657D01*
X0035274Y0012657D01*
X0035272Y0012657D01*
X0035267Y0012656D01*
X0035262Y0012655D01*
X0035260Y0012655D01*
X0035259Y0012655D01*
X0035254Y0012653D01*
X0035249Y0012651D01*
X0035248Y0012650D01*
X0035246Y0012649D01*
X0035242Y0012646D01*
X0035237Y0012643D01*
X0035236Y0012642D01*
X0035235Y0012642D01*
X0035232Y0012637D01*
X0035228Y0012633D01*
X0035227Y0012632D01*
X0035226Y0012631D01*
X0035224Y0012626D01*
X0035221Y0012622D01*
X0035221Y0012620D01*
X0035220Y0012619D01*
X0035219Y0012614D01*
X0035217Y0012609D01*
X0035217Y0012607D01*
X0035217Y0012606D01*
X0035216Y0012598D01*
X0035216Y0010767D01*
X0035216Y0010766D01*
G37*
%LPC*%
G36*
X0006515Y0009681D02*
X0006515Y0009681D01*
X0006538Y0009704D01*
X0008130Y0009704D01*
X0008134Y0009705D01*
X0008138Y0009705D01*
X0008139Y0009706D01*
X0008140Y0009706D01*
X0008143Y0009708D01*
X0008146Y0009709D01*
X0008147Y0009710D01*
X0008148Y0009710D01*
X0008149Y0009711D01*
X0008151Y0009713D01*
X0008177Y0009739D01*
X0008790Y0009739D01*
X0008834Y0009696D01*
X0008834Y0008925D01*
X0008790Y0008882D01*
X0008177Y0008882D01*
X0008151Y0008908D01*
X0008148Y0008910D01*
X0008145Y0008913D01*
X0008144Y0008913D01*
X0008143Y0008914D01*
X0008140Y0008915D01*
X0008136Y0008916D01*
X0008135Y0008916D01*
X0008134Y0008917D01*
X0008133Y0008917D01*
X0008130Y0008917D01*
X0006538Y0008917D01*
X0006515Y0008940D01*
X0006515Y0009681D01*
G37*
%LPD*%
%LPC*%
G36*
X0005555Y0012868D02*
X0005555Y0012868D01*
X0005576Y0012889D01*
X0006116Y0012889D01*
X0006137Y0012868D01*
X0006140Y0012866D01*
X0006141Y0012865D01*
X0006142Y0012864D01*
X0006142Y0012864D01*
X0006143Y0012863D01*
X0006144Y0012863D01*
X0006145Y0012862D01*
X0006149Y0012861D01*
X0006151Y0012860D01*
X0006151Y0012860D01*
X0006152Y0012860D01*
X0006154Y0012860D01*
X0006154Y0012860D01*
X0006155Y0012860D01*
X0006158Y0012859D01*
X0006161Y0012859D01*
X0006165Y0012860D01*
X0006169Y0012860D01*
X0006170Y0012861D01*
X0006171Y0012861D01*
X0006174Y0012863D01*
X0006177Y0012864D01*
X0006178Y0012865D01*
X0006179Y0012865D01*
X0006180Y0012866D01*
X0006182Y0012868D01*
X0006270Y0012956D01*
X0006316Y0013002D01*
X0006411Y0013002D01*
X0006414Y0013003D01*
X0006417Y0013003D01*
X0006419Y0013003D01*
X0006421Y0013004D01*
X0006423Y0013005D01*
X0006426Y0013006D01*
X0006428Y0013007D01*
X0006429Y0013008D01*
X0006431Y0013010D01*
X0006433Y0013012D01*
X0006435Y0013014D01*
X0006436Y0013015D01*
X0006437Y0013018D01*
X0006439Y0013020D01*
X0006439Y0013022D01*
X0006440Y0013024D01*
X0006440Y0013027D01*
X0006441Y0013030D01*
X0006441Y0013032D01*
X0006441Y0013034D01*
X0006440Y0013036D01*
X0006440Y0013039D01*
X0006439Y0013041D01*
X0006439Y0013043D01*
X0006437Y0013045D01*
X0006436Y0013048D01*
X0006434Y0013050D01*
X0006434Y0013051D01*
X0006433Y0013051D01*
X0006432Y0013052D01*
X0006344Y0013140D01*
X0006344Y0013255D01*
X0006425Y0013336D01*
X0006540Y0013336D01*
X0006621Y0013255D01*
X0006621Y0013140D01*
X0006533Y0013052D01*
X0006532Y0013050D01*
X0006530Y0013048D01*
X0006529Y0013046D01*
X0006528Y0013045D01*
X0006527Y0013042D01*
X0006526Y0013039D01*
X0006526Y0013037D01*
X0006525Y0013035D01*
X0006525Y0013033D01*
X0006525Y0013030D01*
X0006525Y0013028D01*
X0006525Y0013026D01*
X0006526Y0013023D01*
X0006527Y0013020D01*
X0006528Y0013019D01*
X0006529Y0013017D01*
X0006531Y0013015D01*
X0006532Y0013012D01*
X0006534Y0013011D01*
X0006535Y0013009D01*
X0006537Y0013008D01*
X0006540Y0013006D01*
X0006541Y0013005D01*
X0006543Y0013004D01*
X0006546Y0013004D01*
X0006548Y0013003D01*
X0006551Y0013002D01*
X0006552Y0013002D01*
X0006553Y0013002D01*
X0006554Y0013002D01*
X0006619Y0013002D01*
X0006623Y0013003D01*
X0006627Y0013003D01*
X0006628Y0013003D01*
X0006629Y0013004D01*
X0006632Y0013005D01*
X0006636Y0013007D01*
X0006637Y0013008D01*
X0006637Y0013008D01*
X0006638Y0013009D01*
X0006640Y0013011D01*
X0006705Y0013076D01*
X0006820Y0013076D01*
X0006901Y0012995D01*
X0006901Y0012880D01*
X0006820Y0012799D01*
X0006705Y0012799D01*
X0006640Y0012864D01*
X0006637Y0012867D01*
X0006634Y0012869D01*
X0006633Y0012869D01*
X0006632Y0012870D01*
X0006629Y0012871D01*
X0006625Y0012872D01*
X0006624Y0012873D01*
X0006623Y0012873D01*
X0006622Y0012873D01*
X0006619Y0012873D01*
X0006382Y0012873D01*
X0006378Y0012872D01*
X0006374Y0012872D01*
X0006373Y0012872D01*
X0006372Y0012871D01*
X0006369Y0012870D01*
X0006365Y0012868D01*
X0006364Y0012867D01*
X0006364Y0012867D01*
X0006363Y0012866D01*
X0006361Y0012864D01*
X0006302Y0012806D01*
X0006301Y0012803D01*
X0006299Y0012801D01*
X0006298Y0012800D01*
X0006297Y0012798D01*
X0006296Y0012795D01*
X0006295Y0012793D01*
X0006295Y0012791D01*
X0006294Y0012789D01*
X0006294Y0012786D01*
X0006294Y0012783D01*
X0006294Y0012781D01*
X0006294Y0012779D01*
X0006295Y0012776D01*
X0006296Y0012774D01*
X0006297Y0012772D01*
X0006298Y0012770D01*
X0006300Y0012768D01*
X0006301Y0012765D01*
X0006303Y0012764D01*
X0006304Y0012763D01*
X0006306Y0012761D01*
X0006308Y0012759D01*
X0006310Y0012759D01*
X0006312Y0012758D01*
X0006315Y0012757D01*
X0006317Y0012756D01*
X0006320Y0012756D01*
X0006321Y0012755D01*
X0006322Y0012756D01*
X0006323Y0012755D01*
X0006420Y0012755D01*
X0006501Y0012674D01*
X0006501Y0012636D01*
X0006502Y0012632D01*
X0006502Y0012628D01*
X0006503Y0012627D01*
X0006503Y0012626D01*
X0006505Y0012623D01*
X0006506Y0012619D01*
X0006507Y0012618D01*
X0006507Y0012618D01*
X0006508Y0012617D01*
X0006510Y0012615D01*
X0006534Y0012590D01*
X0006537Y0012588D01*
X0006540Y0012586D01*
X0006541Y0012585D01*
X0006542Y0012585D01*
X0006546Y0012584D01*
X0006549Y0012582D01*
X0006551Y0012582D01*
X0006551Y0012582D01*
X0006552Y0012582D01*
X0006555Y0012582D01*
X0007416Y0012582D01*
X0007419Y0012582D01*
X0007422Y0012582D01*
X0007424Y0012583D01*
X0007426Y0012583D01*
X0007428Y0012585D01*
X0007431Y0012586D01*
X0007432Y0012587D01*
X0007434Y0012588D01*
X0007436Y0012590D01*
X0007438Y0012592D01*
X0007439Y0012593D01*
X0007441Y0012595D01*
X0007442Y0012597D01*
X0007443Y0012600D01*
X0007444Y0012602D01*
X0007445Y0012603D01*
X0007445Y0012606D01*
X0007446Y0012609D01*
X0007445Y0012611D01*
X0007446Y0012613D01*
X0007445Y0012616D01*
X0007445Y0012619D01*
X0007444Y0012620D01*
X0007443Y0012622D01*
X0007442Y0012625D01*
X0007441Y0012627D01*
X0007439Y0012630D01*
X0007438Y0012631D01*
X0007438Y0012631D01*
X0007437Y0012632D01*
X0006649Y0013421D01*
X0006645Y0013423D01*
X0006642Y0013425D01*
X0006642Y0013426D01*
X0006641Y0013426D01*
X0006637Y0013427D01*
X0006633Y0013429D01*
X0006632Y0013429D01*
X0006632Y0013429D01*
X0006631Y0013429D01*
X0006628Y0013429D01*
X0006535Y0013429D01*
X0006454Y0013510D01*
X0006454Y0013625D01*
X0006535Y0013706D01*
X0006650Y0013706D01*
X0006731Y0013625D01*
X0006731Y0013533D01*
X0006732Y0013529D01*
X0006732Y0013525D01*
X0006733Y0013524D01*
X0006733Y0013523D01*
X0006735Y0013520D01*
X0006736Y0013516D01*
X0006737Y0013515D01*
X0006737Y0013515D01*
X0006738Y0013514D01*
X0006740Y0013512D01*
X0007529Y0012723D01*
X0007532Y0012721D01*
X0007535Y0012718D01*
X0007536Y0012718D01*
X0007537Y0012717D01*
X0007540Y0012716D01*
X0007544Y0012715D01*
X0007545Y0012715D01*
X0007546Y0012714D01*
X0007547Y0012715D01*
X0007550Y0012714D01*
X0008157Y0012714D01*
X0008461Y0012411D01*
X0008464Y0012408D01*
X0008467Y0012406D01*
X0008468Y0012406D01*
X0008469Y0012405D01*
X0008472Y0012404D01*
X0008476Y0012403D01*
X0008477Y0012403D01*
X0008478Y0012402D01*
X0008479Y0012402D01*
X0008482Y0012402D01*
X0008569Y0012402D01*
X0008573Y0012403D01*
X0008577Y0012403D01*
X0008578Y0012403D01*
X0008579Y0012404D01*
X0008582Y0012405D01*
X0008586Y0012407D01*
X0008587Y0012408D01*
X0008587Y0012408D01*
X0008588Y0012409D01*
X0008590Y0012411D01*
X0008655Y0012476D01*
X0008770Y0012476D01*
X0008851Y0012395D01*
X0008851Y0012280D01*
X0008770Y0012199D01*
X0008655Y0012199D01*
X0008590Y0012264D01*
X0008587Y0012267D01*
X0008584Y0012269D01*
X0008583Y0012269D01*
X0008582Y0012270D01*
X0008579Y0012271D01*
X0008575Y0012272D01*
X0008574Y0012273D01*
X0008573Y0012273D01*
X0008572Y0012273D01*
X0008569Y0012273D01*
X0008500Y0012273D01*
X0008497Y0012272D01*
X0008494Y0012272D01*
X0008492Y0012272D01*
X0008490Y0012271D01*
X0008488Y0012270D01*
X0008485Y0012269D01*
X0008484Y0012268D01*
X0008482Y0012267D01*
X0008480Y0012265D01*
X0008478Y0012263D01*
X0008477Y0012261D01*
X0008475Y0012260D01*
X0008474Y0012257D01*
X0008473Y0012255D01*
X0008472Y0012253D01*
X0008471Y0012251D01*
X0008471Y0012248D01*
X0008470Y0012245D01*
X0008471Y0012244D01*
X0008470Y0012242D01*
X0008471Y0012239D01*
X0008471Y0012236D01*
X0008472Y0012234D01*
X0008473Y0012232D01*
X0008474Y0012230D01*
X0008475Y0012227D01*
X0008477Y0012225D01*
X0008478Y0012224D01*
X0008478Y0012224D01*
X0008479Y0012223D01*
X0009191Y0011511D01*
X0009194Y0011508D01*
X0009197Y0011506D01*
X0009198Y0011506D01*
X0009199Y0011505D01*
X0009202Y0011504D01*
X0009206Y0011503D01*
X0009207Y0011503D01*
X0009208Y0011502D01*
X0009209Y0011502D01*
X0009212Y0011502D01*
X0010240Y0011502D01*
X0010441Y0011301D01*
X0010444Y0011298D01*
X0010447Y0011296D01*
X0010448Y0011296D01*
X0010449Y0011295D01*
X0010452Y0011294D01*
X0010456Y0011293D01*
X0010457Y0011293D01*
X0010458Y0011292D01*
X0010459Y0011292D01*
X0010462Y0011292D01*
X0010769Y0011292D01*
X0010773Y0011293D01*
X0010777Y0011293D01*
X0010778Y0011293D01*
X0010779Y0011294D01*
X0010782Y0011295D01*
X0010786Y0011297D01*
X0010787Y0011298D01*
X0010787Y0011298D01*
X0010788Y0011299D01*
X0010790Y0011301D01*
X0010855Y0011366D01*
X0010970Y0011366D01*
X0011051Y0011285D01*
X0011051Y0011170D01*
X0010970Y0011089D01*
X0010855Y0011089D01*
X0010790Y0011154D01*
X0010787Y0011157D01*
X0010784Y0011159D01*
X0010783Y0011159D01*
X0010782Y0011160D01*
X0010779Y0011161D01*
X0010775Y0011162D01*
X0010774Y0011163D01*
X0010773Y0011163D01*
X0010772Y0011163D01*
X0010769Y0011163D01*
X0010396Y0011163D01*
X0010195Y0011364D01*
X0010192Y0011367D01*
X0010189Y0011369D01*
X0010188Y0011369D01*
X0010187Y0011370D01*
X0010183Y0011371D01*
X0010180Y0011372D01*
X0010178Y0011373D01*
X0010178Y0011373D01*
X0010177Y0011373D01*
X0010174Y0011373D01*
X0009184Y0011373D01*
X0009181Y0011372D01*
X0009179Y0011372D01*
X0009177Y0011372D01*
X0009175Y0011371D01*
X0009172Y0011370D01*
X0009170Y0011369D01*
X0009168Y0011368D01*
X0009166Y0011367D01*
X0009164Y0011365D01*
X0009162Y0011363D01*
X0009161Y0011361D01*
X0009160Y0011360D01*
X0009159Y0011357D01*
X0009157Y0011355D01*
X0009157Y0011353D01*
X0009156Y0011351D01*
X0009155Y0011348D01*
X0009155Y0011345D01*
X0009155Y0011344D01*
X0009155Y0011342D01*
X0009155Y0011339D01*
X0009156Y0011336D01*
X0009157Y0011334D01*
X0009157Y0011332D01*
X0009159Y0011330D01*
X0009160Y0011327D01*
X0009162Y0011325D01*
X0009162Y0011324D01*
X0009163Y0011324D01*
X0009163Y0011323D01*
X0009191Y0011295D01*
X0009191Y0011180D01*
X0009110Y0011099D01*
X0008995Y0011099D01*
X0008914Y0011180D01*
X0008914Y0011295D01*
X0008995Y0011376D01*
X0009072Y0011376D01*
X0009075Y0011376D01*
X0009078Y0011376D01*
X0009080Y0011377D01*
X0009081Y0011377D01*
X0009084Y0011379D01*
X0009087Y0011380D01*
X0009088Y0011381D01*
X0009090Y0011382D01*
X0009092Y0011384D01*
X0009094Y0011386D01*
X0009095Y0011388D01*
X0009096Y0011389D01*
X0009098Y0011392D01*
X0009099Y0011394D01*
X0009100Y0011396D01*
X0009100Y0011398D01*
X0009101Y0011401D01*
X0009101Y0011403D01*
X0009101Y0011405D01*
X0009101Y0011407D01*
X0009101Y0011410D01*
X0009100Y0011413D01*
X0009100Y0011415D01*
X0009099Y0011417D01*
X0009098Y0011419D01*
X0009096Y0011422D01*
X0009095Y0011424D01*
X0009094Y0011425D01*
X0009094Y0011425D01*
X0009093Y0011426D01*
X0008075Y0012444D01*
X0008072Y0012446D01*
X0008069Y0012449D01*
X0008068Y0012449D01*
X0008067Y0012449D01*
X0008064Y0012451D01*
X0008060Y0012452D01*
X0008059Y0012452D01*
X0008058Y0012452D01*
X0008057Y0012452D01*
X0008054Y0012452D01*
X0006489Y0012452D01*
X0006463Y0012479D01*
X0006462Y0012480D01*
X0006461Y0012481D01*
X0006458Y0012483D01*
X0006455Y0012485D01*
X0006454Y0012485D01*
X0006453Y0012486D01*
X0006449Y0012487D01*
X0006446Y0012488D01*
X0006445Y0012488D01*
X0006444Y0012488D01*
X0006440Y0012488D01*
X0006436Y0012487D01*
X0006435Y0012487D01*
X0006434Y0012487D01*
X0006431Y0012485D01*
X0006427Y0012484D01*
X0006426Y0012483D01*
X0006425Y0012483D01*
X0006421Y0012479D01*
X0006420Y0012479D01*
X0006305Y0012479D01*
X0006224Y0012560D01*
X0006224Y0012674D01*
X0006230Y0012680D01*
X0006232Y0012682D01*
X0006234Y0012684D01*
X0006234Y0012686D01*
X0006236Y0012688D01*
X0006236Y0012690D01*
X0006238Y0012693D01*
X0006238Y0012695D01*
X0006238Y0012697D01*
X0006238Y0012700D01*
X0006239Y0012703D01*
X0006238Y0012705D01*
X0006238Y0012706D01*
X0006237Y0012709D01*
X0006236Y0012712D01*
X0006235Y0012714D01*
X0006235Y0012715D01*
X0006233Y0012718D01*
X0006231Y0012720D01*
X0006230Y0012721D01*
X0006229Y0012723D01*
X0006226Y0012724D01*
X0006224Y0012726D01*
X0006222Y0012727D01*
X0006220Y0012728D01*
X0006218Y0012729D01*
X0006215Y0012730D01*
X0006212Y0012730D01*
X0006211Y0012730D01*
X0006210Y0012730D01*
X0006209Y0012730D01*
X0006158Y0012730D01*
X0006157Y0012730D01*
X0006157Y0012730D01*
X0006154Y0012730D01*
X0006151Y0012729D01*
X0006150Y0012729D01*
X0006149Y0012729D01*
X0006148Y0012728D01*
X0006147Y0012728D01*
X0006146Y0012727D01*
X0006145Y0012727D01*
X0006142Y0012725D01*
X0006141Y0012724D01*
X0006140Y0012724D01*
X0006140Y0012723D01*
X0006137Y0012722D01*
X0006116Y0012701D01*
X0005576Y0012701D01*
X0005555Y0012721D01*
X0005555Y0012868D01*
G37*
%LPD*%
%LPC*%
G36*
X0004858Y0012124D02*
X0004858Y0012124D01*
X0005200Y0012466D01*
X0005534Y0012466D01*
X0005538Y0012466D01*
X0005541Y0012467D01*
X0005542Y0012467D01*
X0005543Y0012467D01*
X0005547Y0012469D01*
X0005550Y0012471D01*
X0005551Y0012471D01*
X0005552Y0012472D01*
X0005552Y0012472D01*
X0005555Y0012474D01*
X0005576Y0012495D01*
X0006116Y0012495D01*
X0006137Y0012475D01*
X0006137Y0012327D01*
X0006116Y0012307D01*
X0005576Y0012307D01*
X0005555Y0012328D01*
X0005552Y0012330D01*
X0005549Y0012333D01*
X0005548Y0012333D01*
X0005547Y0012333D01*
X0005543Y0012335D01*
X0005540Y0012336D01*
X0005538Y0012336D01*
X0005538Y0012336D01*
X0005537Y0012336D01*
X0005534Y0012337D01*
X0005265Y0012337D01*
X0005262Y0012336D01*
X0005258Y0012336D01*
X0005257Y0012335D01*
X0005256Y0012335D01*
X0005252Y0012333D01*
X0005249Y0012332D01*
X0005248Y0012331D01*
X0005247Y0012330D01*
X0005247Y0012330D01*
X0005244Y0012328D01*
X0005243Y0012326D01*
X0005241Y0012324D01*
X0005239Y0012322D01*
X0005238Y0012320D01*
X0005237Y0012318D01*
X0005236Y0012316D01*
X0005235Y0012313D01*
X0005235Y0012311D01*
X0005234Y0012309D01*
X0005235Y0012306D01*
X0005234Y0012303D01*
X0005235Y0012302D01*
X0005235Y0012300D01*
X0005236Y0012297D01*
X0005236Y0012294D01*
X0005237Y0012292D01*
X0005238Y0012291D01*
X0005240Y0012288D01*
X0005242Y0012286D01*
X0005243Y0012285D01*
X0005244Y0012283D01*
X0005247Y0012282D01*
X0005249Y0012280D01*
X0005251Y0012279D01*
X0005252Y0012278D01*
X0005255Y0012277D01*
X0005258Y0012276D01*
X0005261Y0012276D01*
X0005262Y0012276D01*
X0005262Y0012276D01*
X0005264Y0012276D01*
X0005390Y0012276D01*
X0005471Y0012195D01*
X0005471Y0012080D01*
X0005390Y0011999D01*
X0005275Y0011999D01*
X0005256Y0012018D01*
X0005256Y0012019D01*
X0005255Y0012020D01*
X0005252Y0012022D01*
X0005249Y0012024D01*
X0005248Y0012024D01*
X0005247Y0012025D01*
X0005243Y0012025D01*
X0005239Y0012027D01*
X0005239Y0012027D01*
X0005238Y0012027D01*
X0005234Y0012026D01*
X0005230Y0012026D01*
X0005229Y0012026D01*
X0005228Y0012026D01*
X0005225Y0012024D01*
X0005221Y0012023D01*
X0005220Y0012022D01*
X0005219Y0012022D01*
X0005215Y0012018D01*
X0005106Y0011909D01*
X0005104Y0011906D01*
X0005101Y0011903D01*
X0005101Y0011902D01*
X0005100Y0011902D01*
X0005099Y0011898D01*
X0005098Y0011894D01*
X0005098Y0011893D01*
X0005098Y0011892D01*
X0005098Y0011891D01*
X0005097Y0011889D01*
X0005097Y0011269D01*
X0005098Y0011266D01*
X0005098Y0011263D01*
X0005099Y0011261D01*
X0005099Y0011260D01*
X0005100Y0011257D01*
X0005101Y0011254D01*
X0005103Y0011253D01*
X0005103Y0011251D01*
X0005106Y0011249D01*
X0005107Y0011247D01*
X0005109Y0011246D01*
X0005110Y0011244D01*
X0005113Y0011243D01*
X0005116Y0011242D01*
X0005117Y0011241D01*
X0005119Y0011241D01*
X0005122Y0011240D01*
X0005125Y0011240D01*
X0005127Y0011240D01*
X0005129Y0011240D01*
X0005132Y0011240D01*
X0005134Y0011240D01*
X0005136Y0011241D01*
X0005138Y0011242D01*
X0005141Y0011243D01*
X0005143Y0011244D01*
X0005145Y0011246D01*
X0005146Y0011247D01*
X0005147Y0011247D01*
X0005148Y0011248D01*
X0005225Y0011326D01*
X0005340Y0011326D01*
X0005353Y0011313D01*
X0005356Y0011311D01*
X0005359Y0011308D01*
X0005360Y0011308D01*
X0005361Y0011307D01*
X0005365Y0011306D01*
X0005368Y0011305D01*
X0005370Y0011305D01*
X0005370Y0011304D01*
X0005371Y0011305D01*
X0005374Y0011304D01*
X0005553Y0011304D01*
X0005557Y0011305D01*
X0005561Y0011305D01*
X0005562Y0011306D01*
X0005563Y0011306D01*
X0005566Y0011308D01*
X0005570Y0011309D01*
X0005571Y0011310D01*
X0005571Y0011310D01*
X0005572Y0011311D01*
X0005574Y0011313D01*
X0005576Y0011314D01*
X0006116Y0011314D01*
X0006118Y0011313D01*
X0006121Y0011311D01*
X0006124Y0011308D01*
X0006125Y0011308D01*
X0006125Y0011307D01*
X0006129Y0011306D01*
X0006133Y0011305D01*
X0006134Y0011305D01*
X0006135Y0011304D01*
X0006136Y0011305D01*
X0006138Y0011304D01*
X0006418Y0011304D01*
X0006422Y0011305D01*
X0006426Y0011305D01*
X0006427Y0011306D01*
X0006428Y0011306D01*
X0006431Y0011308D01*
X0006435Y0011309D01*
X0006436Y0011310D01*
X0006436Y0011310D01*
X0006437Y0011311D01*
X0006439Y0011313D01*
X0006476Y0011350D01*
X0006478Y0011353D01*
X0006480Y0011356D01*
X0006481Y0011357D01*
X0006481Y0011357D01*
X0006482Y0011361D01*
X0006484Y0011365D01*
X0006484Y0011366D01*
X0006484Y0011367D01*
X0006484Y0011368D01*
X0006484Y0011371D01*
X0006484Y0011395D01*
X0006565Y0011476D01*
X0006680Y0011476D01*
X0006761Y0011395D01*
X0006761Y0011280D01*
X0006680Y0011199D01*
X0006576Y0011199D01*
X0006572Y0011199D01*
X0006568Y0011198D01*
X0006567Y0011198D01*
X0006566Y0011198D01*
X0006563Y0011196D01*
X0006559Y0011194D01*
X0006558Y0011193D01*
X0006558Y0011193D01*
X0006557Y0011192D01*
X0006555Y0011191D01*
X0006500Y0011136D01*
X0006138Y0011136D01*
X0006135Y0011135D01*
X0006131Y0011135D01*
X0006130Y0011134D01*
X0006129Y0011134D01*
X0006126Y0011132D01*
X0006122Y0011131D01*
X0006121Y0011130D01*
X0006120Y0011130D01*
X0006120Y0011129D01*
X0006118Y0011127D01*
X0006116Y0011126D01*
X0005576Y0011126D01*
X0005574Y0011127D01*
X0005571Y0011129D01*
X0005568Y0011132D01*
X0005567Y0011132D01*
X0005567Y0011133D01*
X0005563Y0011134D01*
X0005559Y0011135D01*
X0005558Y0011135D01*
X0005557Y0011135D01*
X0005556Y0011135D01*
X0005553Y0011136D01*
X0005439Y0011136D01*
X0005435Y0011135D01*
X0005431Y0011135D01*
X0005430Y0011134D01*
X0005429Y0011134D01*
X0005426Y0011132D01*
X0005423Y0011131D01*
X0005422Y0011130D01*
X0005421Y0011130D01*
X0005420Y0011129D01*
X0005418Y0011127D01*
X0005340Y0011049D01*
X0005225Y0011049D01*
X0005148Y0011127D01*
X0005145Y0011129D01*
X0005143Y0011131D01*
X0005142Y0011131D01*
X0005140Y0011133D01*
X0005137Y0011133D01*
X0005135Y0011135D01*
X0005133Y0011135D01*
X0005131Y0011135D01*
X0005128Y0011135D01*
X0005125Y0011136D01*
X0005123Y0011135D01*
X0005121Y0011135D01*
X0005118Y0011134D01*
X0005116Y0011133D01*
X0005114Y0011132D01*
X0005112Y0011132D01*
X0005110Y0011130D01*
X0005107Y0011128D01*
X0005106Y0011127D01*
X0005105Y0011126D01*
X0005103Y0011123D01*
X0005101Y0011121D01*
X0005101Y0011119D01*
X0005100Y0011117D01*
X0005099Y0011115D01*
X0005098Y0011112D01*
X0005098Y0011109D01*
X0005097Y0011108D01*
X0005097Y0011107D01*
X0005097Y0011106D01*
X0005097Y0011027D01*
X0005098Y0011023D01*
X0005098Y0011019D01*
X0005099Y0011018D01*
X0005099Y0011017D01*
X0005101Y0011014D01*
X0005102Y0011010D01*
X0005103Y0011009D01*
X0005103Y0011009D01*
X0005104Y0011008D01*
X0005106Y0011006D01*
X0005212Y0010899D01*
X0005215Y0010897D01*
X0005218Y0010895D01*
X0005219Y0010894D01*
X0005220Y0010894D01*
X0005224Y0010893D01*
X0005227Y0010891D01*
X0005229Y0010891D01*
X0005229Y0010891D01*
X0005230Y0010891D01*
X0005233Y0010891D01*
X0005534Y0010891D01*
X0005538Y0010891D01*
X0005541Y0010892D01*
X0005542Y0010892D01*
X0005543Y0010892D01*
X0005547Y0010894D01*
X0005550Y0010896D01*
X0005551Y0010897D01*
X0005552Y0010897D01*
X0005552Y0010898D01*
X0005555Y0010899D01*
X0005576Y0010920D01*
X0006116Y0010920D01*
X0006137Y0010900D01*
X0006137Y0010753D01*
X0006116Y0010732D01*
X0005576Y0010732D01*
X0005555Y0010753D01*
X0005552Y0010755D01*
X0005549Y0010758D01*
X0005548Y0010758D01*
X0005547Y0010759D01*
X0005543Y0010760D01*
X0005540Y0010761D01*
X0005538Y0010761D01*
X0005538Y0010761D01*
X0005537Y0010761D01*
X0005534Y0010762D01*
X0005171Y0010762D01*
X0005168Y0010761D01*
X0005165Y0010761D01*
X0005164Y0010760D01*
X0005162Y0010760D01*
X0005159Y0010759D01*
X0005156Y0010758D01*
X0005155Y0010757D01*
X0005153Y0010756D01*
X0005151Y0010754D01*
X0005149Y0010752D01*
X0005148Y0010750D01*
X0005147Y0010749D01*
X0005145Y0010746D01*
X0005144Y0010744D01*
X0005143Y0010742D01*
X0005143Y0010740D01*
X0005142Y0010737D01*
X0005142Y0010734D01*
X0005142Y0010732D01*
X0005142Y0010730D01*
X0005142Y0010727D01*
X0005143Y0010725D01*
X0005143Y0010723D01*
X0005144Y0010721D01*
X0005145Y0010718D01*
X0005147Y0010716D01*
X0005148Y0010714D01*
X0005149Y0010713D01*
X0005149Y0010712D01*
X0005150Y0010711D01*
X0005287Y0010575D01*
X0005290Y0010572D01*
X0005293Y0010570D01*
X0005294Y0010570D01*
X0005295Y0010569D01*
X0005299Y0010568D01*
X0005302Y0010566D01*
X0005303Y0010566D01*
X0005304Y0010566D01*
X0005305Y0010566D01*
X0005308Y0010566D01*
X0005330Y0010566D01*
X0005392Y0010504D01*
X0005395Y0010502D01*
X0005398Y0010499D01*
X0005399Y0010499D01*
X0005400Y0010498D01*
X0005404Y0010497D01*
X0005407Y0010496D01*
X0005408Y0010496D01*
X0005409Y0010495D01*
X0005413Y0010496D01*
X0005417Y0010495D01*
X0005418Y0010496D01*
X0005419Y0010496D01*
X0005422Y0010497D01*
X0005426Y0010498D01*
X0005427Y0010499D01*
X0005428Y0010499D01*
X0005431Y0010502D01*
X0005434Y0010504D01*
X0005434Y0010505D01*
X0005435Y0010505D01*
X0005437Y0010508D01*
X0005440Y0010512D01*
X0005440Y0010513D01*
X0005440Y0010513D01*
X0005441Y0010514D01*
X0005442Y0010517D01*
X0005450Y0010550D01*
X0005470Y0010584D01*
X0005498Y0010612D01*
X0005532Y0010631D01*
X0005570Y0010642D01*
X0005816Y0010642D01*
X0005816Y0010433D01*
X0005816Y0010223D01*
X0005570Y0010223D01*
X0005532Y0010234D01*
X0005498Y0010253D01*
X0005470Y0010281D01*
X0005450Y0010316D01*
X0005444Y0010340D01*
X0005442Y0010344D01*
X0005441Y0010347D01*
X0005440Y0010348D01*
X0005440Y0010349D01*
X0005437Y0010352D01*
X0005435Y0010355D01*
X0005434Y0010355D01*
X0005433Y0010356D01*
X0005430Y0010358D01*
X0005427Y0010360D01*
X0005426Y0010360D01*
X0005425Y0010360D01*
X0005421Y0010361D01*
X0005417Y0010362D01*
X0005416Y0010362D01*
X0005415Y0010362D01*
X0005411Y0010361D01*
X0005408Y0010361D01*
X0005407Y0010361D01*
X0005406Y0010360D01*
X0005402Y0010359D01*
X0005399Y0010357D01*
X0005398Y0010356D01*
X0005397Y0010356D01*
X0005397Y0010355D01*
X0005394Y0010353D01*
X0005330Y0010289D01*
X0005215Y0010289D01*
X0005134Y0010370D01*
X0005134Y0010485D01*
X0005143Y0010494D01*
X0005144Y0010495D01*
X0005145Y0010495D01*
X0005147Y0010499D01*
X0005149Y0010502D01*
X0005149Y0010503D01*
X0005150Y0010503D01*
X0005151Y0010507D01*
X0005152Y0010511D01*
X0005152Y0010512D01*
X0005152Y0010513D01*
X0005152Y0010517D01*
X0005152Y0010520D01*
X0005151Y0010521D01*
X0005151Y0010522D01*
X0005150Y0010526D01*
X0005148Y0010529D01*
X0005148Y0010530D01*
X0005147Y0010531D01*
X0005143Y0010536D01*
X0004858Y0010821D01*
X0004858Y0012124D01*
G37*
%LPD*%
%LPC*%
G36*
X0009350Y0009743D02*
X0009350Y0009743D01*
X0009425Y0009924D01*
X0009563Y0010062D01*
X0009744Y0010137D01*
X0009940Y0010137D01*
X0010121Y0010062D01*
X0010259Y0009924D01*
X0010334Y0009743D01*
X0010334Y0009547D01*
X0010259Y0009366D01*
X0010121Y0009228D01*
X0009940Y0009153D01*
X0009744Y0009153D01*
X0009563Y0009228D01*
X0009425Y0009366D01*
X0009350Y0009547D01*
X0009350Y0009743D01*
G37*
%LPD*%
%LPC*%
G36*
X0009350Y0014861D02*
X0009350Y0014861D01*
X0009425Y0015042D01*
X0009563Y0015181D01*
X0009744Y0015255D01*
X0009940Y0015255D01*
X0010121Y0015181D01*
X0010259Y0015042D01*
X0010334Y0014861D01*
X0010334Y0014665D01*
X0010259Y0014485D01*
X0010121Y0014346D01*
X0009940Y0014271D01*
X0009744Y0014271D01*
X0009563Y0014346D01*
X0009425Y0014485D01*
X0009350Y0014665D01*
X0009350Y0014861D01*
G37*
%LPD*%
%LPC*%
G36*
X0004881Y0009527D02*
X0004881Y0009527D01*
X0005465Y0009527D01*
X0005465Y0009173D01*
X0005454Y0009135D01*
X0005435Y0009100D01*
X0005407Y0009072D01*
X0005372Y0009053D01*
X0005334Y0009042D01*
X0004881Y0009042D01*
X0004881Y0009527D01*
G37*
%LPD*%
%LPC*%
G36*
X0004881Y0014763D02*
X0004881Y0014763D01*
X0005465Y0014763D01*
X0005465Y0014409D01*
X0005454Y0014371D01*
X0005435Y0014336D01*
X0005407Y0014309D01*
X0005372Y0014289D01*
X0005334Y0014279D01*
X0004881Y0014279D01*
X0004881Y0014763D01*
G37*
%LPD*%
%LPC*%
G36*
X0004881Y0010130D02*
X0004881Y0010130D01*
X0005334Y0010130D01*
X0005354Y0010124D01*
X0005372Y0010120D01*
X0005407Y0010100D01*
X0005435Y0010072D01*
X0005454Y0010038D01*
X0005465Y0010000D01*
X0005465Y0009645D01*
X0004881Y0009645D01*
X0004881Y0010130D01*
G37*
%LPD*%
%LPC*%
G36*
X0004881Y0015366D02*
X0004881Y0015366D01*
X0005334Y0015366D01*
X0005354Y0015361D01*
X0005372Y0015356D01*
X0005407Y0015336D01*
X0005435Y0015308D01*
X0005454Y0015274D01*
X0005465Y0015236D01*
X0005465Y0014881D01*
X0004881Y0014881D01*
X0004881Y0015366D01*
G37*
%LPD*%
%LPC*%
G36*
X0004180Y0014763D02*
X0004180Y0014763D01*
X0004763Y0014763D01*
X0004763Y0014279D01*
X0004310Y0014279D01*
X0004308Y0014279D01*
X0004272Y0014289D01*
X0004238Y0014309D01*
X0004210Y0014336D01*
X0004190Y0014371D01*
X0004180Y0014409D01*
X0004180Y0014763D01*
G37*
%LPD*%
%LPC*%
G36*
X0004180Y0009527D02*
X0004180Y0009527D01*
X0004763Y0009527D01*
X0004763Y0009042D01*
X0004310Y0009042D01*
X0004308Y0009043D01*
X0004272Y0009053D01*
X0004238Y0009072D01*
X0004210Y0009100D01*
X0004190Y0009135D01*
X0004180Y0009173D01*
X0004180Y0009527D01*
G37*
%LPD*%
%LPC*%
G36*
X0004180Y0010000D02*
X0004180Y0010000D01*
X0004190Y0010038D01*
X0004210Y0010072D01*
X0004238Y0010100D01*
X0004272Y0010120D01*
X0004310Y0010130D01*
X0004763Y0010130D01*
X0004763Y0009645D01*
X0004180Y0009645D01*
X0004180Y0010000D01*
G37*
%LPD*%
%LPC*%
G36*
X0004180Y0015236D02*
X0004180Y0015236D01*
X0004190Y0015274D01*
X0004210Y0015308D01*
X0004238Y0015336D01*
X0004272Y0015356D01*
X0004310Y0015366D01*
X0004763Y0015366D01*
X0004763Y0014881D01*
X0004180Y0014881D01*
X0004180Y0015236D01*
G37*
%LPD*%
%LPC*%
G36*
X0005555Y0011687D02*
X0005555Y0011687D01*
X0005576Y0011708D01*
X0006116Y0011708D01*
X0006137Y0011687D01*
X0006140Y0011685D01*
X0006141Y0011684D01*
X0006142Y0011683D01*
X0006142Y0011683D01*
X0006143Y0011682D01*
X0006144Y0011682D01*
X0006145Y0011681D01*
X0006149Y0011680D01*
X0006151Y0011679D01*
X0006151Y0011679D01*
X0006152Y0011679D01*
X0006154Y0011679D01*
X0006154Y0011678D01*
X0006155Y0011679D01*
X0006158Y0011678D01*
X0006180Y0011678D01*
X0006184Y0011679D01*
X0006188Y0011679D01*
X0006188Y0011680D01*
X0006189Y0011680D01*
X0006193Y0011682D01*
X0006196Y0011683D01*
X0006197Y0011684D01*
X0006198Y0011684D01*
X0006199Y0011685D01*
X0006201Y0011687D01*
X0006248Y0011734D01*
X0006249Y0011735D01*
X0006250Y0011736D01*
X0006252Y0011739D01*
X0006254Y0011742D01*
X0006254Y0011743D01*
X0006255Y0011744D01*
X0006256Y0011748D01*
X0006257Y0011751D01*
X0006257Y0011752D01*
X0006257Y0011753D01*
X0006257Y0011757D01*
X0006257Y0011761D01*
X0006256Y0011762D01*
X0006256Y0011763D01*
X0006255Y0011766D01*
X0006253Y0011770D01*
X0006253Y0011771D01*
X0006252Y0011772D01*
X0006248Y0011776D01*
X0006204Y0011820D01*
X0006204Y0011935D01*
X0006285Y0012016D01*
X0006400Y0012016D01*
X0006481Y0011935D01*
X0006481Y0011820D01*
X0006416Y0011755D01*
X0006414Y0011752D01*
X0006411Y0011749D01*
X0006411Y0011748D01*
X0006410Y0011747D01*
X0006409Y0011744D01*
X0006408Y0011740D01*
X0006408Y0011739D01*
X0006408Y0011738D01*
X0006408Y0011737D01*
X0006407Y0011734D01*
X0006407Y0011711D01*
X0006246Y0011549D01*
X0006158Y0011549D01*
X0006157Y0011549D01*
X0006157Y0011549D01*
X0006154Y0011548D01*
X0006151Y0011548D01*
X0006150Y0011548D01*
X0006149Y0011548D01*
X0006148Y0011547D01*
X0006147Y0011547D01*
X0006146Y0011546D01*
X0006145Y0011546D01*
X0006142Y0011544D01*
X0006141Y0011543D01*
X0006140Y0011543D01*
X0006140Y0011542D01*
X0006137Y0011540D01*
X0006116Y0011520D01*
X0005576Y0011520D01*
X0005555Y0011540D01*
X0005555Y0011687D01*
G37*
%LPD*%
%LPC*%
G36*
X0005024Y0013635D02*
X0005024Y0013635D01*
X0005105Y0013716D01*
X0005220Y0013716D01*
X0005281Y0013655D01*
X0005284Y0013653D01*
X0005287Y0013651D01*
X0005288Y0013650D01*
X0005288Y0013650D01*
X0005292Y0013649D01*
X0005296Y0013647D01*
X0005297Y0013647D01*
X0005298Y0013647D01*
X0005299Y0013647D01*
X0005302Y0013647D01*
X0005534Y0013647D01*
X0005538Y0013647D01*
X0005541Y0013648D01*
X0005542Y0013648D01*
X0005543Y0013648D01*
X0005547Y0013650D01*
X0005550Y0013652D01*
X0005551Y0013653D01*
X0005552Y0013653D01*
X0005552Y0013654D01*
X0005555Y0013655D01*
X0005576Y0013676D01*
X0006116Y0013676D01*
X0006137Y0013656D01*
X0006137Y0013509D01*
X0006116Y0013488D01*
X0005576Y0013488D01*
X0005555Y0013509D01*
X0005552Y0013511D01*
X0005549Y0013514D01*
X0005548Y0013514D01*
X0005547Y0013515D01*
X0005543Y0013516D01*
X0005540Y0013517D01*
X0005538Y0013517D01*
X0005538Y0013517D01*
X0005537Y0013517D01*
X0005534Y0013518D01*
X0005311Y0013518D01*
X0005307Y0013517D01*
X0005303Y0013517D01*
X0005302Y0013516D01*
X0005301Y0013516D01*
X0005298Y0013514D01*
X0005294Y0013513D01*
X0005293Y0013512D01*
X0005293Y0013512D01*
X0005292Y0013511D01*
X0005290Y0013509D01*
X0005220Y0013439D01*
X0005105Y0013439D01*
X0005024Y0013520D01*
X0005024Y0013635D01*
G37*
%LPD*%
%LPC*%
G36*
X0005174Y0011755D02*
X0005174Y0011755D01*
X0005255Y0011836D01*
X0005308Y0011836D01*
X0005311Y0011837D01*
X0005315Y0011837D01*
X0005316Y0011837D01*
X0005317Y0011837D01*
X0005321Y0011839D01*
X0005324Y0011841D01*
X0005325Y0011842D01*
X0005326Y0011842D01*
X0005326Y0011843D01*
X0005329Y0011845D01*
X0005509Y0012025D01*
X0005546Y0012062D01*
X0005549Y0012066D01*
X0005551Y0012068D01*
X0005551Y0012069D01*
X0005552Y0012070D01*
X0005553Y0012074D01*
X0005554Y0012077D01*
X0005555Y0012079D01*
X0005555Y0012079D01*
X0005555Y0012080D01*
X0005555Y0012081D01*
X0005576Y0012101D01*
X0006116Y0012101D01*
X0006137Y0012081D01*
X0006137Y0011934D01*
X0006116Y0011913D01*
X0005592Y0011913D01*
X0005588Y0011913D01*
X0005584Y0011912D01*
X0005584Y0011912D01*
X0005583Y0011912D01*
X0005579Y0011910D01*
X0005576Y0011908D01*
X0005575Y0011907D01*
X0005574Y0011907D01*
X0005573Y0011906D01*
X0005571Y0011905D01*
X0005457Y0011791D01*
X0005457Y0011790D01*
X0005456Y0011789D01*
X0005454Y0011786D01*
X0005452Y0011783D01*
X0005451Y0011782D01*
X0005451Y0011781D01*
X0005450Y0011777D01*
X0005449Y0011774D01*
X0005449Y0011773D01*
X0005449Y0011772D01*
X0005449Y0011768D01*
X0005449Y0011764D01*
X0005449Y0011763D01*
X0005450Y0011762D01*
X0005451Y0011759D01*
X0005451Y0011758D01*
X0005451Y0011640D01*
X0005370Y0011559D01*
X0005255Y0011559D01*
X0005174Y0011640D01*
X0005174Y0011755D01*
G37*
%LPD*%
%LPC*%
G36*
X0005555Y0013262D02*
X0005555Y0013262D01*
X0005576Y0013283D01*
X0006116Y0013283D01*
X0006137Y0013262D01*
X0006137Y0013115D01*
X0006116Y0013094D01*
X0005576Y0013094D01*
X0005555Y0013115D01*
X0005555Y0013262D01*
G37*
%LPD*%
%LPC*%
G36*
X0005555Y0014049D02*
X0005555Y0014049D01*
X0005576Y0014070D01*
X0006116Y0014070D01*
X0006137Y0014049D01*
X0006137Y0013902D01*
X0006116Y0013882D01*
X0005576Y0013882D01*
X0005555Y0013902D01*
X0005555Y0014049D01*
G37*
%LPD*%
%LPC*%
G36*
X0011104Y0011635D02*
X0011104Y0011635D01*
X0011185Y0011716D01*
X0011300Y0011716D01*
X0011381Y0011635D01*
X0011381Y0011520D01*
X0011300Y0011439D01*
X0011185Y0011439D01*
X0011104Y0011520D01*
X0011104Y0011635D01*
G37*
%LPD*%
%LPC*%
G36*
X0006654Y0010945D02*
X0006654Y0010945D01*
X0006735Y0011026D01*
X0006850Y0011026D01*
X0006931Y0010945D01*
X0006931Y0010830D01*
X0006850Y0010749D01*
X0006735Y0010749D01*
X0006654Y0010830D01*
X0006654Y0010945D01*
G37*
%LPD*%
%LPC*%
G36*
X0006944Y0012275D02*
X0006944Y0012275D01*
X0007025Y0012356D01*
X0007140Y0012356D01*
X0007221Y0012275D01*
X0007221Y0012160D01*
X0007140Y0012079D01*
X0007025Y0012079D01*
X0006944Y0012160D01*
X0006944Y0012275D01*
G37*
%LPD*%
%LPC*%
G36*
X0006974Y0014735D02*
X0006974Y0014735D01*
X0007055Y0014816D01*
X0007170Y0014816D01*
X0007251Y0014735D01*
X0007251Y0014620D01*
X0007170Y0014539D01*
X0007055Y0014539D01*
X0006974Y0014620D01*
X0006974Y0014735D01*
G37*
%LPD*%
%LPC*%
G36*
X0005124Y0013235D02*
X0005124Y0013235D01*
X0005205Y0013316D01*
X0005320Y0013316D01*
X0005401Y0013235D01*
X0005401Y0013120D01*
X0005320Y0013039D01*
X0005205Y0013039D01*
X0005124Y0013120D01*
X0005124Y0013235D01*
G37*
%LPD*%
%LPC*%
G36*
X0007894Y0012995D02*
X0007894Y0012995D01*
X0007975Y0013076D01*
X0008090Y0013076D01*
X0008171Y0012995D01*
X0008171Y0012880D01*
X0008090Y0012799D01*
X0007975Y0012799D01*
X0007894Y0012880D01*
X0007894Y0012995D01*
G37*
%LPD*%
%LPC*%
G36*
X0007914Y0010471D02*
X0007914Y0010471D01*
X0007995Y0010552D01*
X0008109Y0010552D01*
X0008190Y0010471D01*
X0008190Y0010356D01*
X0008109Y0010275D01*
X0007995Y0010275D01*
X0007914Y0010356D01*
X0007914Y0010471D01*
G37*
%LPD*%
%LPC*%
G36*
X0011044Y0014095D02*
X0011044Y0014095D01*
X0011125Y0014176D01*
X0011240Y0014176D01*
X0011321Y0014095D01*
X0011321Y0013980D01*
X0011240Y0013899D01*
X0011125Y0013899D01*
X0011044Y0013980D01*
X0011044Y0014095D01*
G37*
%LPD*%
%LPC*%
G36*
X0005875Y0010403D02*
X0005875Y0010403D01*
X0006252Y0010403D01*
X0006252Y0010354D01*
X0006242Y0010316D01*
X0006222Y0010281D01*
X0006194Y0010253D01*
X0006160Y0010234D01*
X0006122Y0010223D01*
X0005875Y0010223D01*
X0005875Y0010403D01*
G37*
%LPD*%
%LPC*%
G36*
X0005875Y0010642D02*
X0005875Y0010642D01*
X0006122Y0010642D01*
X0006151Y0010634D01*
X0006160Y0010631D01*
X0006194Y0010612D01*
X0006222Y0010584D01*
X0006242Y0010550D01*
X0006252Y0010511D01*
X0006252Y0010462D01*
X0005875Y0010462D01*
X0005875Y0010642D01*
G37*
%LPD*%
%LPC*%
G36*
X0004822Y0009586D02*
X0004822Y0009586D01*
X0004822Y0009586D01*
X0004822Y0009586D01*
X0004822Y0009586D01*
X0004822Y0009586D01*
G37*
%LPD*%
%LPC*%
G36*
X0004822Y0014822D02*
X0004822Y0014822D01*
X0004822Y0014822D01*
X0004822Y0014822D01*
X0004822Y0014822D01*
X0004822Y0014822D01*
G37*
%LPD*%
D37*
X0008502Y0009477D02*
X0008576Y0009218D01*
X0008391Y0009218D01*
X0008447Y0009292D02*
X0008447Y0009144D01*
D38*
X0005846Y0010433D03*
X0005846Y0010826D03*
X0005846Y0011220D03*
X0005846Y0011614D03*
X0005846Y0012007D03*
X0005846Y0012401D03*
X0005846Y0012795D03*
X0005846Y0013188D03*
X0005846Y0013582D03*
X0005846Y0013976D03*
D39*
X0004822Y0014822D03*
X0004822Y0009586D03*
D40*
X0035826Y0011417D03*
X0020472Y0012992D03*
D41*
X0011353Y0010448D03*
X0011773Y0010868D03*
X0012809Y0009956D03*
X0013859Y0008976D03*
X0013399Y0008976D03*
X0012006Y0009839D03*
X0013890Y0009601D03*
X0012935Y0012542D03*
X0013886Y0012545D03*
X0011226Y0012655D03*
X0011436Y0012155D03*
X0012476Y0013275D03*
X0010616Y0012995D03*
X0009166Y0012985D03*
X0009856Y0012175D03*
X0008568Y0010428D03*
X0009078Y0010448D03*
X0007488Y0013224D03*
X0007468Y0011744D03*
X0007498Y0010614D03*
X0005861Y0014462D03*
X0006481Y0013982D03*
X0013583Y0014170D03*
X0012933Y0013460D03*
X0013863Y0013440D03*
X0013045Y0012102D03*
X0013096Y0015032D03*
X0015203Y0012655D03*
X0015213Y0011515D03*
X0013063Y0011255D03*
X0012443Y0011565D03*
X0013913Y0010925D03*
X0003845Y0008941D03*
X0004199Y0008911D03*
X0003805Y0009304D03*
X0003849Y0015453D03*
X0004173Y0015513D03*
X0003779Y0015120D03*
X0015205Y0015517D03*
X0015205Y0015123D03*
X0014812Y0015517D03*
X0015204Y0008911D03*
X0014811Y0008911D03*
X0015204Y0009304D03*
X0015197Y0013324D03*
X0014457Y0013324D03*
X0014457Y0012654D03*
X0009876Y0013515D03*
X0009030Y0008976D03*
X0010660Y0009036D03*
X0008890Y0015456D03*
X0010590Y0015466D03*
X0005829Y0009973D03*
X0006509Y0010443D03*
X0011004Y0009209D03*
X0010600Y0011501D03*
X0008472Y0012726D03*
X0035826Y0011417D03*
D42*
X0016141Y0011417D01*
X0015311Y0011417D01*
X0015213Y0011515D01*
D41*
X0016141Y0011417D03*
X0006483Y0013198D03*
X0005263Y0013178D03*
X0007083Y0012218D03*
X0008033Y0012938D03*
X0008052Y0010413D03*
X0011243Y0011578D03*
X0011183Y0014038D03*
D43*
X0006465Y0011220D02*
X0005846Y0011220D01*
X0006583Y0011338D02*
X0006623Y0011338D01*
D41*
X0006623Y0011338D03*
D43*
X0006583Y0011338D02*
X0006465Y0011220D01*
X0005846Y0011220D02*
X0005315Y0011220D01*
X0005283Y0011188D01*
D41*
X0005283Y0011188D03*
X0009053Y0011238D03*
X0007113Y0014678D03*
D44*
X0006200Y0012795D02*
X0005846Y0012795D01*
X0006200Y0012795D02*
X0006343Y0012938D01*
X0006763Y0012938D01*
D41*
X0006763Y0012938D03*
X0006593Y0013568D03*
D44*
X0007511Y0012650D01*
X0008443Y0012338D02*
X0008713Y0012338D01*
D41*
X0008713Y0012338D03*
D44*
X0008131Y0012650D02*
X0007511Y0012650D01*
X0008131Y0012650D02*
X0008443Y0012338D01*
D41*
X0006793Y0010888D03*
X0005163Y0013578D03*
D44*
X0005167Y0013582D01*
X0005846Y0013582D01*
D41*
X0016141Y0012992D03*
D42*
X0020472Y0012992D01*
D41*
X0020472Y0012992D03*
X0006363Y0012617D03*
D44*
X0006516Y0012517D02*
X0008093Y0012517D01*
X0006516Y0012517D02*
X0006416Y0012617D01*
X0006363Y0012617D01*
X0009173Y0011438D02*
X0010213Y0011438D01*
X0010423Y0011228D02*
X0010913Y0011228D01*
X0010423Y0011228D02*
X0010213Y0011438D01*
D41*
X0010913Y0011228D03*
D44*
X0009173Y0011438D02*
X0008093Y0012517D01*
X0006219Y0011614D02*
X0005846Y0011614D01*
X0006219Y0011614D02*
X0006343Y0011738D01*
X0006343Y0011878D01*
D41*
X0006343Y0011878D03*
D44*
X0005846Y0010826D02*
X0005194Y0010826D01*
X0005033Y0010988D02*
X0005033Y0011928D01*
X0005243Y0012138D02*
X0005333Y0012138D01*
X0005243Y0012138D02*
X0005033Y0011928D01*
D41*
X0005333Y0012138D03*
D44*
X0005033Y0010988D02*
X0005194Y0010826D01*
X0005583Y0012007D02*
X0005846Y0012007D01*
X0005313Y0011738D02*
X0005313Y0011698D01*
X0005313Y0011738D02*
X0005583Y0012007D01*
D41*
X0005313Y0011698D03*
D44*
X0005226Y0012401D02*
X0005846Y0012401D01*
X0004923Y0012098D02*
X0004923Y0010848D01*
X0005273Y0010498D02*
X0005273Y0010428D01*
X0005273Y0010498D02*
X0004923Y0010848D01*
D41*
X0005273Y0010428D03*
D44*
X0004923Y0012098D02*
X0005226Y0012401D01*
D45*
X0008208Y0008956D02*
X0008759Y0008956D01*
X0008759Y0009665D01*
X0008208Y0009665D01*
X0008208Y0008956D01*
M02*