%MOIN*%
%OFA0B0*%
%FSLAX36Y36*%
%IPPOS*%
%LPD*%
%ADD10C,0.0078740157480314977*%
D10*
X003113698Y003789302D02*
X003094107Y003789302D01*
X003070825Y003719660D01*
X003068041Y003711156D01*
X003066129Y003705101D01*
X003063982Y003711726D01*
X003060896Y003720868D01*
X003037346Y003789302D01*
X003019835Y003789302D01*
X003019835Y003690944D01*
X003032381Y003690944D01*
X003032381Y003773267D01*
X003060963Y003690944D01*
X003072704Y003690944D01*
X003101151Y003774676D01*
X003101151Y003690944D01*
X003113698Y003690944D01*
X003113698Y003789302D01*
X002915640Y003722143D02*
X002921368Y003708011D01*
X002930367Y003697687D01*
X002942183Y003691372D01*
X002956365Y003689267D01*
X002970782Y003690886D01*
X002982229Y003695742D01*
X002991002Y003703667D01*
X002997392Y003714494D01*
X003001292Y003727225D01*
X003002592Y003740861D01*
X003001124Y003755244D01*
X002996721Y003767665D01*
X002989610Y003777729D01*
X002980015Y003785042D01*
X002968635Y003789495D01*
X002956164Y003790980D01*
X002942577Y003789101D01*
X002931339Y003783465D01*
X002922802Y003774425D01*
X002917317Y003762331D01*
X002930132Y003759312D01*
X002934325Y003768588D01*
X002940061Y003774945D01*
X002947408Y003778618D01*
X002956432Y003779842D01*
X002966840Y003778484D01*
X002975386Y003774408D01*
X002981869Y003768042D01*
X002986087Y003759815D01*
X002988402Y003750514D01*
X002989173Y003740929D01*
X002988259Y003729179D01*
X002985517Y003719023D01*
X002980846Y003710846D01*
X002974145Y003705034D01*
X002966110Y003701562D01*
X002957438Y003700404D01*
X002947341Y003701981D01*
X002938921Y003706711D01*
X002932564Y003714544D01*
X002928656Y003725430D01*
X002915640Y003722143D01*
X002899604Y003789302D02*
X002862502Y003789302D01*
X002853864Y003789068D01*
X002847540Y003788363D01*
X002835397Y003783767D01*
X002830977Y003779700D01*
X002827513Y003774274D01*
X002825274Y003767866D01*
X002824528Y003760855D01*
X002826524Y003749273D01*
X002832512Y003739620D01*
X002837309Y003735819D01*
X002843716Y003733104D01*
X002851734Y003731475D01*
X002861362Y003730932D01*
X002886588Y003730932D01*
X002886588Y003690944D01*
X002899604Y003690944D01*
X002899604Y003789302D01*
X002861160Y003742539D02*
X002850375Y003743713D01*
X002843246Y003747235D01*
X002839271Y003752888D01*
X002837946Y003760453D01*
X002838726Y003766181D01*
X002841066Y003771020D01*
X002844681Y003774668D01*
X002849285Y003776823D01*
X002853965Y003777477D01*
X002861429Y003777695D01*
X002886588Y003777695D01*
X002886588Y003742539D01*
X002861160Y003742539D01*
X002799435Y003714762D02*
X002797288Y003707701D01*
X002793799Y003702887D01*
X002789052Y003700119D01*
X002783131Y003699197D01*
X002773369Y003701746D01*
X002766492Y003708556D01*
X002764027Y003713563D01*
X002761997Y003720063D01*
X002760186Y003734823D01*
X002760253Y003737238D01*
X002764538Y003732014D01*
X002770149Y003727879D01*
X002776682Y003725187D01*
X002783735Y003724290D01*
X002795007Y003726504D01*
X002804400Y003733146D01*
X002810740Y003743411D01*
X002812853Y003756494D01*
X002810648Y003769997D01*
X002804031Y003780580D01*
X002794093Y003787424D01*
X002781924Y003789705D01*
X002772740Y003788414D01*
X002764379Y003784539D01*
X002757384Y003778274D01*
X002752302Y003769812D01*
X002749207Y003758113D01*
X002748176Y003742136D01*
X002749199Y003725204D01*
X002752269Y003712112D01*
X002757359Y003702275D01*
X002764446Y003695104D01*
X002773227Y003690726D01*
X002783400Y003689267D01*
X002793883Y003690869D01*
X002802253Y003695674D01*
X002808107Y003703382D01*
X002811042Y003713689D01*
X002799435Y003714762D01*
X002762978Y003766424D02*
X002767130Y003773603D01*
X002773227Y003778182D01*
X002780448Y003779708D01*
X002787979Y003778064D01*
X002794470Y003773133D01*
X002798948Y003765585D01*
X002800441Y003756092D01*
X002799024Y003747579D01*
X002794772Y003740828D01*
X002788440Y003736425D01*
X002780783Y003734957D01*
X002773143Y003736425D01*
X002766995Y003740828D01*
X002762945Y003747831D01*
X002761594Y003757098D01*
X002762978Y003766424D01*
X002724392Y003747621D02*
X002728987Y003752133D01*
X002731705Y003757735D01*
X002732610Y003764344D01*
X002730681Y003774223D01*
X002724895Y003782392D01*
X002715904Y003787877D01*
X002704364Y003789705D01*
X002692740Y003787835D01*
X002683633Y003782224D01*
X002677745Y003773930D01*
X002675783Y003764008D01*
X002676680Y003757610D01*
X002679372Y003752100D01*
X002683893Y003747613D01*
X002690275Y003744283D01*
X002682299Y003740425D01*
X002676487Y003734756D01*
X002672940Y003727544D01*
X002671757Y003719056D01*
X002673988Y003707449D01*
X002680681Y003697855D01*
X002691013Y003691414D01*
X002704163Y003689267D01*
X002717313Y003691422D01*
X002727646Y003697888D01*
X002734338Y003707575D01*
X002736569Y003719392D01*
X002735353Y003728206D01*
X002731705Y003735460D01*
X002725809Y003740903D01*
X002717850Y003744283D01*
X002724392Y003747621D01*
X002719141Y003758406D02*
X002715770Y003753341D01*
X002710604Y003750020D01*
X002704096Y003748913D01*
X002697747Y003750011D01*
X002692657Y003753307D01*
X002689310Y003758197D01*
X002688195Y003764076D01*
X002689344Y003770189D01*
X002692791Y003775247D01*
X002697949Y003778643D01*
X002704230Y003779775D01*
X002710554Y003778668D01*
X002715703Y003775347D01*
X002719125Y003770483D01*
X002720265Y003764747D01*
X002719141Y003758406D01*
X002721708Y003709328D02*
X002714428Y003701847D01*
X002709413Y003699859D01*
X002704029Y003699197D01*
X002696129Y003700589D01*
X002689738Y003704766D01*
X002685511Y003711089D01*
X002684102Y003718922D01*
X002685553Y003726889D01*
X002689906Y003733347D01*
X002696439Y003737624D01*
X002704431Y003739050D01*
X002712223Y003737641D01*
X002718554Y003733414D01*
X002722756Y003727074D01*
X002724157Y003719325D01*
X002721708Y003709328D01*
X002659119Y003755194D02*
X002656426Y003767531D01*
X002651965Y003776949D01*
X002645759Y003783935D01*
X002637766Y003788263D01*
X002627946Y003789705D01*
X002620515Y003788908D01*
X002614057Y003786518D01*
X002608606Y003782627D01*
X002604195Y003777326D01*
X002600723Y003770667D01*
X002598089Y003762700D01*
X002596429Y003752578D01*
X002595875Y003739453D01*
X002596764Y003723811D01*
X002599431Y003711508D01*
X002603868Y003702082D01*
X002610065Y003695071D01*
X002618075Y003690718D01*
X002627946Y003689267D01*
X002640643Y003691817D01*
X002650287Y003699465D01*
X002654544Y003706569D01*
X002657584Y003715601D01*
X002659408Y003726562D01*
X002660016Y003739453D01*
X002659119Y003755194D01*
X002647249Y003728355D02*
X002646186Y003719283D01*
X002644415Y003712236D01*
X002641934Y003707214D01*
X002635603Y003701201D01*
X002627946Y003699197D01*
X002620289Y003701210D01*
X002613957Y003707248D01*
X002611476Y003712280D01*
X002609705Y003719325D01*
X002608642Y003728382D01*
X002608287Y003739453D01*
X002608642Y003750577D01*
X002609705Y003759664D01*
X002611476Y003766713D01*
X002613957Y003771724D01*
X002620322Y003777712D01*
X002628080Y003779708D01*
X002635561Y003777947D01*
X002641364Y003772663D01*
X002644094Y003767216D01*
X002646044Y003759866D01*
X002647214Y003750611D01*
X002647604Y003739453D01*
X002647249Y003728355D01*
X002571554Y003747621D02*
X002576150Y003752133D01*
X002578867Y003757735D01*
X002579773Y003764344D01*
X002577844Y003774223D01*
X002572057Y003782392D01*
X002563067Y003787877D01*
X002551527Y003789705D01*
X002539903Y003787835D01*
X002530795Y003782224D01*
X002524908Y003773930D01*
X002522945Y003764008D01*
X002523843Y003757610D01*
X002526535Y003752100D01*
X002531055Y003747613D01*
X002537437Y003744283D01*
X002529462Y003740425D01*
X002523650Y003734756D01*
X002520102Y003727544D01*
X002518920Y003719056D01*
X002521151Y003707449D01*
X002527843Y003697855D01*
X002538175Y003691414D01*
X002551326Y003689267D01*
X002564476Y003691422D01*
X002574808Y003697888D01*
X002581501Y003707575D01*
X002583731Y003719392D01*
X002582515Y003728206D01*
X002578867Y003735460D01*
X002572971Y003740903D01*
X002565012Y003744283D01*
X002571554Y003747621D01*
X002566304Y003758406D02*
X002562933Y003753341D01*
X002557766Y003750020D01*
X002551258Y003748913D01*
X002544910Y003750011D01*
X002539819Y003753307D01*
X002536473Y003758197D01*
X002535357Y003764076D01*
X002536506Y003770189D01*
X002539953Y003775247D01*
X002545111Y003778643D01*
X002551393Y003779775D01*
X002557716Y003778668D01*
X002562865Y003775347D01*
X002566287Y003770483D01*
X002567428Y003764747D01*
X002566304Y003758406D01*
X002568870Y003709328D02*
X002561591Y003701847D01*
X002556576Y003699859D01*
X002551191Y003699197D01*
X002543291Y003700589D01*
X002536901Y003704766D01*
X002532674Y003711089D01*
X002531265Y003718922D01*
X002532716Y003726889D01*
X002537068Y003733347D01*
X002543601Y003737624D01*
X002551594Y003739050D01*
X002559385Y003737641D01*
X002565717Y003733414D01*
X002569919Y003727074D01*
X002571319Y003719325D01*
X002568870Y003709328D01*
X002456255Y003723619D02*
X002454804Y003716901D01*
X002452196Y003711508D01*
X002448128Y003707231D01*
X002442300Y003703860D01*
X002435171Y003701671D01*
X002427204Y003700941D01*
X002414054Y003703155D01*
X002409080Y003705780D01*
X002405566Y003709227D01*
X002403478Y003713261D01*
X002402782Y003717647D01*
X002403453Y003721983D01*
X002405466Y003725732D01*
X002409022Y003728911D01*
X002414322Y003731536D01*
X002420679Y003733506D01*
X002431833Y003736333D01*
X002443356Y003739494D01*
X002450820Y003742472D01*
X002456968Y003746606D01*
X002461320Y003751630D01*
X002463912Y003757425D01*
X002464776Y003763874D01*
X002463719Y003771078D01*
X002460549Y003777796D01*
X002455349Y003783491D01*
X002448204Y003787625D01*
X002439633Y003790141D01*
X002430156Y003790980D01*
X002419865Y003790099D01*
X002410867Y003787457D01*
X002403478Y003783105D01*
X002398018Y003777092D01*
X002394563Y003769795D01*
X002393188Y003761593D01*
X002405667Y003760654D01*
X002407873Y003768839D01*
X002412477Y003774743D01*
X002419664Y003778316D01*
X002429619Y003779507D01*
X002439826Y003778425D01*
X002446828Y003775179D01*
X002450879Y003770407D01*
X002452229Y003764747D01*
X002451273Y003759916D01*
X002448405Y003756024D01*
X002445770Y003754303D01*
X002441620Y003752561D01*
X002435957Y003750797D01*
X002428780Y003749013D01*
X002415404Y003745650D01*
X002407009Y003742740D01*
X002399545Y003738253D01*
X002394328Y003732710D01*
X002391259Y003726177D01*
X002390236Y003718721D01*
X002391359Y003711097D01*
X002394731Y003703927D01*
X002400207Y003697754D01*
X002407646Y003693125D01*
X002416595Y003690232D01*
X002426600Y003689267D01*
X002438870Y003690240D01*
X002448975Y003693158D01*
X002457027Y003698031D01*
X002463132Y003704866D01*
X002467049Y003713194D01*
X002468533Y003722545D01*
X002456255Y003723619D01*
X002312743Y003712347D02*
X002316953Y003702635D01*
X002323680Y003695373D01*
X002332771Y003690844D01*
X002344076Y003689334D01*
X002358090Y003691741D01*
X002368867Y003698962D01*
X002375735Y003710527D01*
X002378025Y003725967D01*
X002375710Y003741935D01*
X002368766Y003753877D01*
X002358132Y003761325D01*
X002344747Y003763807D01*
X002331764Y003761375D01*
X002321398Y003754079D01*
X002314605Y003742371D01*
X002312341Y003726705D01*
X002312408Y003723484D01*
X002365545Y003723484D01*
X002363549Y003713119D01*
X002358903Y003705504D01*
X002352194Y003700824D01*
X002344009Y003699264D01*
X002337853Y003700136D01*
X002332670Y003702753D01*
X002328460Y003707281D01*
X002325223Y003713890D01*
X002312743Y003712347D01*
X002325088Y003733414D02*
X002326632Y003741281D01*
X002329651Y003746900D01*
X002336276Y003752133D01*
X002344612Y003753877D01*
X002352269Y003752485D01*
X002358601Y003748309D01*
X002363004Y003741801D01*
X002364875Y003733414D01*
X002325088Y003733414D01*
X002297580Y003762197D02*
X002286711Y003762197D01*
X002286711Y003752066D01*
X002282350Y003757203D01*
X002277117Y003760872D01*
X002271012Y003763073D01*
X002264034Y003763807D01*
X002252192Y003761493D01*
X002247470Y003758817D01*
X002244107Y003755421D01*
X002240350Y003746497D01*
X002239847Y003741885D01*
X002239679Y003734756D01*
X002239679Y003690944D01*
X002251756Y003690944D01*
X002251756Y003734286D01*
X002252108Y003740736D01*
X002253165Y003745323D01*
X002258163Y003751160D01*
X002266584Y003753341D01*
X002273771Y003752116D01*
X002279901Y003748443D01*
X002284103Y003741348D01*
X002285504Y003729858D01*
X002285504Y003690944D01*
X002297580Y003690944D01*
X002297580Y003762197D01*
X002214050Y003714091D02*
X002212146Y003707751D01*
X002208448Y003703088D01*
X002202938Y003700220D01*
X002195599Y003699264D01*
X002188353Y003700111D01*
X002183254Y003702652D01*
X002180235Y003706334D01*
X002179229Y003710603D01*
X002180118Y003714259D01*
X002182785Y003717043D01*
X002187112Y003718872D01*
X002195130Y003721136D01*
X002206376Y003724264D01*
X002213547Y003726940D01*
X002221329Y003733716D01*
X002223317Y003738270D01*
X002223980Y003743277D01*
X002221799Y003752100D01*
X002215861Y003758842D01*
X002208179Y003762365D01*
X002197746Y003763807D01*
X002183019Y003761392D01*
X002177509Y003758549D01*
X002173660Y003754850D01*
X002171110Y003750028D01*
X002169500Y003743814D01*
X002181309Y003742203D01*
X002182877Y003747101D01*
X002185971Y003750791D01*
X002190626Y003753106D01*
X002196874Y003753877D01*
X002204003Y003753190D01*
X002208749Y003751127D01*
X002211416Y003748141D01*
X002212305Y003744686D01*
X002210829Y003740459D01*
X002206200Y003737238D01*
X002202627Y003736131D01*
X002195532Y003734152D01*
X002184655Y003731041D01*
X002177652Y003728550D01*
X002169701Y003722210D01*
X002167538Y003717547D01*
X002166816Y003711877D01*
X002167697Y003706015D01*
X002170339Y003700505D01*
X002174641Y003695775D01*
X002180503Y003692253D01*
X002187582Y003690064D01*
X002195532Y003689334D01*
X002207768Y003690777D01*
X002216700Y003695104D01*
X002222663Y003702266D01*
X002225992Y003712213D01*
X002214050Y003714091D01*
X002156266Y003735825D02*
X002154203Y003743797D01*
X002150764Y003750485D01*
X002145951Y003755890D01*
X002135752Y003761828D01*
X002123542Y003763807D01*
X002110190Y003761400D01*
X002099522Y003754179D01*
X002092528Y003742715D01*
X002090196Y003727577D01*
X002091228Y003715291D01*
X002094323Y003705940D01*
X002099388Y003698937D01*
X002106332Y003693695D01*
X002114576Y003690424D01*
X002123542Y003689334D01*
X002137069Y003691733D01*
X002147729Y003698928D01*
X002154647Y003710636D01*
X002156954Y003726571D01*
X002156266Y003735825D01*
X002143049Y003714603D02*
X002138570Y003706074D01*
X002131828Y003700966D01*
X002123542Y003699264D01*
X002115306Y003700975D01*
X002108580Y003706107D01*
X002104101Y003714746D01*
X002102609Y003726973D01*
X002104110Y003738589D01*
X002108613Y003747000D01*
X002115348Y003752108D01*
X002123542Y003753810D01*
X002131828Y003752116D01*
X002138570Y003747034D01*
X002143049Y003738530D01*
X002144542Y003726571D01*
X002143049Y003714603D01*
X002076174Y003762197D02*
X002065305Y003762197D01*
X002065305Y003751395D01*
X002061305Y003757685D01*
X002057623Y003761392D01*
X002049874Y003763807D01*
X002043718Y003762834D01*
X002037461Y003759916D01*
X002041621Y003748711D01*
X002046049Y003750674D01*
X002050477Y003751328D01*
X002057589Y003748946D01*
X002062085Y003742337D01*
X002064097Y003728248D01*
X002064097Y003690944D01*
X002076174Y003690944D01*
X002076174Y003762197D01*
X001992174Y003690944D02*
X001992174Y003789302D01*
X001980097Y003789302D01*
X001980097Y003754213D01*
X001971392Y003761409D01*
X001960573Y003763807D01*
X001954174Y003763145D01*
X001948127Y003761157D01*
X001938466Y003753710D01*
X001932528Y003742136D01*
X001930381Y003727644D01*
X001932646Y003711408D01*
X001939439Y003699331D01*
X001949402Y003691833D01*
X001961177Y003689334D01*
X001967144Y003689993D01*
X001972432Y003691968D01*
X001977040Y003695259D01*
X001980969Y003699868D01*
X001980969Y003690944D01*
X001992174Y003690944D01*
X001980231Y003716071D02*
X001977615Y003708590D01*
X001970905Y003701595D01*
X001962183Y003699264D01*
X001954803Y003700983D01*
X001948496Y003706141D01*
X001944169Y003714704D01*
X001942726Y003726638D01*
X001944110Y003738765D01*
X001948262Y003747235D01*
X001954375Y003752217D01*
X001961647Y003753877D01*
X001969027Y003752158D01*
X001975333Y003747000D01*
X001979661Y003738589D01*
X001981103Y003727107D01*
X001980231Y003716071D01*
X001919495Y003735825D02*
X001917432Y003743797D01*
X001913994Y003750485D01*
X001909180Y003755890D01*
X001898982Y003761828D01*
X001886771Y003763807D01*
X001873419Y003761400D01*
X001862752Y003754179D01*
X001855757Y003742715D01*
X001853426Y003727577D01*
X001854457Y003715291D01*
X001857552Y003705940D01*
X001862618Y003698937D01*
X001869562Y003693695D01*
X001877806Y003690424D01*
X001886771Y003689334D01*
X001900299Y003691733D01*
X001910958Y003698928D01*
X001917877Y003710636D01*
X001920183Y003726571D01*
X001919495Y003735825D01*
X001906278Y003714603D02*
X001901800Y003706074D01*
X001895057Y003700966D01*
X001886771Y003699264D01*
X001878535Y003700975D01*
X001871809Y003706107D01*
X001867331Y003714746D01*
X001865838Y003726973D01*
X001867339Y003738589D01*
X001871843Y003747000D01*
X001878577Y003752108D01*
X001886771Y003753810D01*
X001895057Y003752116D01*
X001901800Y003747034D01*
X001906278Y003738530D01*
X001907771Y003726571D01*
X001906278Y003714603D01*
X001799357Y003694869D02*
X001805689Y003691682D01*
X001819007Y003689334D01*
X001829390Y003690768D01*
X001837055Y003695071D01*
X001841785Y003701604D01*
X001843362Y003709730D01*
X001840980Y003719291D01*
X001834740Y003726235D01*
X001826052Y003730194D01*
X001821590Y003731116D01*
X001815317Y003732005D01*
X001802620Y003733917D01*
X001793780Y003736165D01*
X001793713Y003739318D01*
X001794569Y003745608D01*
X001797135Y003749718D01*
X001802888Y003752787D01*
X001810889Y003753810D01*
X001818294Y003753064D01*
X001823469Y003750825D01*
X001827000Y003746690D01*
X001829474Y003740258D01*
X001841282Y003741868D01*
X001839152Y003748720D01*
X001835982Y003754112D01*
X001831470Y003758239D01*
X001825314Y003761291D01*
X001809145Y003763807D01*
X001800875Y003763270D01*
X001794317Y003761660D01*
X001789369Y003759237D01*
X001785930Y003756259D01*
X001782173Y003748040D01*
X001781720Y003743713D01*
X001781569Y003736903D01*
X001781569Y003720801D01*
X001781521Y003713154D01*
X001781376Y003707055D01*
X001781135Y003702503D01*
X001780798Y003699499D01*
X001777745Y003690944D01*
X001790359Y003690944D01*
X001792774Y003699734D01*
X001799357Y003694869D01*
X001801999Y003724222D02*
X001813506Y003722143D01*
X001819863Y003721002D01*
X001824039Y003719727D01*
X001828803Y003715802D01*
X001830480Y003710066D01*
X001829566Y003705638D01*
X001826823Y003702015D01*
X001822320Y003699599D01*
X001816122Y003698794D01*
X001809530Y003699557D01*
X001803710Y003701847D01*
X001798997Y003705462D01*
X001795726Y003710200D01*
X001794267Y003715266D01*
X001793780Y003722277D01*
X001793780Y003726705D01*
X001801999Y003724222D01*
X001762985Y003762197D02*
X001752116Y003762197D01*
X001752116Y003751395D01*
X001748115Y003757685D01*
X001744433Y003761392D01*
X001736684Y003763807D01*
X001730528Y003762834D01*
X001724272Y003759916D01*
X001728432Y003748711D01*
X001732860Y003750674D01*
X001737288Y003751328D01*
X001744400Y003748946D01*
X001748895Y003742337D01*
X001750908Y003728248D01*
X001750908Y003690944D01*
X001762985Y003690944D01*
X001762985Y003762197D01*
X001670866Y003699935D02*
X001674653Y003695297D01*
X001679236Y003691984D01*
X001684616Y003689997D01*
X001690793Y003689334D01*
X001698970Y003690508D01*
X001706459Y003694031D01*
X001712799Y003699658D01*
X001717529Y003707147D01*
X001720473Y003716196D01*
X001721454Y003726504D01*
X001720565Y003736677D01*
X001717898Y003745860D01*
X001713453Y003753534D01*
X001707230Y003759178D01*
X001699699Y003762650D01*
X001691329Y003763807D01*
X001685241Y003763128D01*
X001679857Y003761090D01*
X001671671Y003754012D01*
X001671671Y003789302D01*
X001659662Y003789302D01*
X001659662Y003690944D01*
X001670866Y003690944D01*
X001670866Y003699935D01*
X001707600Y003714544D02*
X001703272Y003706040D01*
X001696982Y003700958D01*
X001689652Y003699264D01*
X001682331Y003700883D01*
X001676200Y003705738D01*
X001672049Y003713915D01*
X001670665Y003725497D01*
X001672074Y003738178D01*
X001676301Y003746967D01*
X001682591Y003752100D01*
X001690189Y003753810D01*
X001697578Y003752167D01*
X001703641Y003747235D01*
X001707692Y003738765D01*
X001709042Y003726504D01*
X001707600Y003714544D01*
X001633563Y003714091D02*
X001631659Y003707751D01*
X001627960Y003703088D01*
X001622450Y003700220D01*
X001615112Y003699264D01*
X001607866Y003700111D01*
X001602767Y003702652D01*
X001599748Y003706334D01*
X001598741Y003710603D01*
X001599630Y003714259D01*
X001602297Y003717043D01*
X001606625Y003718872D01*
X001614642Y003721136D01*
X001625889Y003724264D01*
X001633059Y003726940D01*
X001640842Y003733716D01*
X001642830Y003738270D01*
X001643492Y003743277D01*
X001641312Y003752100D01*
X001635374Y003758842D01*
X001627692Y003762365D01*
X001617259Y003763807D01*
X001602532Y003761392D01*
X001597022Y003758549D01*
X001593173Y003754850D01*
X001590623Y003750028D01*
X001589013Y003743814D01*
X001600821Y003742203D01*
X001602390Y003747101D01*
X001605484Y003750791D01*
X001610139Y003753106D01*
X001616387Y003753877D01*
X001623515Y003753190D01*
X001628262Y003751127D01*
X001630929Y003748141D01*
X001631818Y003744686D01*
X001630342Y003740459D01*
X001625713Y003737238D01*
X001622140Y003736131D01*
X001615045Y003734152D01*
X001604168Y003731041D01*
X001597165Y003728550D01*
X001589214Y003722210D01*
X001587050Y003717547D01*
X001586329Y003711877D01*
X001587210Y003706015D01*
X001589852Y003700505D01*
X001594154Y003695775D01*
X001600016Y003692253D01*
X001607094Y003690064D01*
X001615045Y003689334D01*
X001627281Y003690777D01*
X001636213Y003695104D01*
X001642176Y003702266D01*
X001645505Y003712213D01*
X001633563Y003714091D01*
X001473680Y003690944D02*
X001538693Y003690944D01*
X001537284Y003699331D01*
X001534055Y003705923D01*
X001529334Y003712414D01*
X001522650Y003719358D01*
X001513533Y003727309D01*
X001506166Y003733542D01*
X001500098Y003739092D01*
X001495330Y003743958D01*
X001491862Y003748141D01*
X001487636Y003755613D01*
X001486227Y003762667D01*
X001487510Y003769284D01*
X001491359Y003774777D01*
X001497272Y003778475D01*
X001504744Y003779708D01*
X001512594Y003778400D01*
X001518700Y003774475D01*
X001522641Y003768235D01*
X001524000Y003759983D01*
X001536412Y003761258D01*
X001533376Y003773494D01*
X001526818Y003782425D01*
X001517073Y003787885D01*
X001504476Y003789705D01*
X001491795Y003787743D01*
X001482067Y003781855D01*
X001475878Y003773066D01*
X001473815Y003762398D01*
X001476230Y003750791D01*
X001479442Y003744937D01*
X001484247Y003738782D01*
X001491703Y003731301D01*
X001502866Y003721472D01*
X001511789Y003713815D01*
X001516821Y003709093D01*
X001521920Y003702551D01*
X001473680Y003702551D01*
X001473680Y003690944D01*
X001459834Y003755194D02*
X001457142Y003767531D01*
X001452680Y003776949D01*
X001446474Y003783935D01*
X001438482Y003788263D01*
X001428661Y003789705D01*
X001421230Y003788908D01*
X001414773Y003786518D01*
X001409322Y003782627D01*
X001404910Y003777326D01*
X001401438Y003770667D01*
X001398805Y003762700D01*
X001397144Y003752578D01*
X001396591Y003739453D01*
X001397480Y003723811D01*
X001400147Y003711508D01*
X001404583Y003702082D01*
X001410781Y003695071D01*
X001418790Y003690718D01*
X001428661Y003689267D01*
X001441358Y003691817D01*
X001451003Y003699465D01*
X001455259Y003706569D01*
X001458299Y003715601D01*
X001460123Y003726562D01*
X001460731Y003739453D01*
X001459834Y003755194D01*
X001447965Y003728355D02*
X001446902Y003719283D01*
X001445130Y003712236D01*
X001442650Y003707214D01*
X001436318Y003701201D01*
X001428661Y003699197D01*
X001421004Y003701210D01*
X001414672Y003707248D01*
X001412192Y003712280D01*
X001410420Y003719325D01*
X001409357Y003728382D01*
X001409003Y003739453D01*
X001409357Y003750577D01*
X001410420Y003759664D01*
X001412192Y003766713D01*
X001414672Y003771724D01*
X001421038Y003777712D01*
X001428795Y003779708D01*
X001436276Y003777947D01*
X001442080Y003772663D01*
X001444809Y003767216D01*
X001446759Y003759866D01*
X001447929Y003750611D01*
X001448319Y003739453D01*
X001447965Y003728355D01*
X001320843Y003690944D02*
X001385856Y003690944D01*
X001384447Y003699331D01*
X001381218Y003705923D01*
X001376496Y003712414D01*
X001369812Y003719358D01*
X001360696Y003727309D01*
X001353328Y003733542D01*
X001347261Y003739092D01*
X001342493Y003743958D01*
X001339025Y003748141D01*
X001334798Y003755613D01*
X001333389Y003762667D01*
X001334672Y003769284D01*
X001338522Y003774777D01*
X001344434Y003778475D01*
X001351907Y003779708D01*
X001359757Y003778400D01*
X001365862Y003774475D01*
X001369804Y003768235D01*
X001371162Y003759983D01*
X001383575Y003761258D01*
X001380539Y003773494D01*
X001373980Y003782425D01*
X001364235Y003787885D01*
X001351638Y003789705D01*
X001338958Y003787743D01*
X001329229Y003781855D01*
X001323040Y003773066D01*
X001320977Y003762398D01*
X001323392Y003750791D01*
X001326604Y003744937D01*
X001331410Y003738782D01*
X001338866Y003731301D01*
X001350028Y003721472D01*
X001358952Y003713815D01*
X001363984Y003709093D01*
X001369083Y003702551D01*
X001320843Y003702551D01*
X001320843Y003690944D01*
X001274482Y003690944D02*
X001274482Y003767900D01*
X001279522Y003763740D01*
X001285921Y003759580D01*
X001298635Y003753341D01*
X001298635Y003765015D01*
X001280923Y003776555D01*
X001274448Y003783231D01*
X001270188Y003789705D01*
X001262405Y003789705D01*
X001262405Y003690944D01*
X001274482Y003690944D01*
X001194641Y003732609D02*
X001157539Y003732609D01*
X001157539Y003720465D01*
X001194641Y003720465D01*
X001194641Y003732609D01*
X001106079Y003690944D02*
X001106079Y003789302D01*
X001094002Y003789302D01*
X001094002Y003754213D01*
X001085297Y003761409D01*
X001074478Y003763807D01*
X001068079Y003763145D01*
X001062032Y003761157D01*
X001052371Y003753710D01*
X001046433Y003742136D01*
X001044286Y003727644D01*
X001046551Y003711408D01*
X001053344Y003699331D01*
X001063307Y003691833D01*
X001075082Y003689334D01*
X001081049Y003689993D01*
X001086337Y003691968D01*
X001090945Y003695259D01*
X001094874Y003699868D01*
X001094874Y003690944D01*
X001106079Y003690944D01*
X001094136Y003716071D02*
X001091520Y003708590D01*
X001084810Y003701595D01*
X001076088Y003699264D01*
X001068708Y003700983D01*
X001062401Y003706141D01*
X001058074Y003714704D01*
X001056631Y003726638D01*
X001058015Y003738765D01*
X001062166Y003747235D01*
X001068280Y003752217D01*
X001075551Y003753877D01*
X001082932Y003752158D01*
X001089238Y003747000D01*
X001093566Y003738589D01*
X001095008Y003727107D01*
X001094136Y003716071D01*
X001033400Y003735825D02*
X001031337Y003743797D01*
X001027899Y003750485D01*
X001023085Y003755890D01*
X001012887Y003761828D01*
X001000676Y003763807D01*
X000987324Y003761400D01*
X000976657Y003754179D01*
X000969662Y003742715D01*
X000967331Y003727577D01*
X000968362Y003715291D01*
X000971457Y003705940D01*
X000976522Y003698937D01*
X000983466Y003693695D01*
X000991711Y003690424D01*
X001000676Y003689334D01*
X001014203Y003691733D01*
X001024863Y003698928D01*
X001031782Y003710636D01*
X001034088Y003726571D01*
X001033400Y003735825D01*
X001020183Y003714603D02*
X001015705Y003706074D01*
X001008962Y003700966D01*
X001000676Y003699264D01*
X000992440Y003700975D01*
X000985714Y003706107D01*
X000981236Y003714746D01*
X000979743Y003726973D01*
X000981244Y003738589D01*
X000985748Y003747000D01*
X000992482Y003752108D01*
X001000676Y003753810D01*
X001008962Y003752116D01*
X001015705Y003747034D01*
X001020183Y003738530D01*
X001021676Y003726571D01*
X001020183Y003714603D01*
X000925062Y003691079D02*
X000934187Y003690005D01*
X000940024Y003690525D01*
X000944385Y003692085D01*
X000949484Y003697553D01*
X000950591Y003702811D01*
X000950960Y003711810D01*
X000950960Y003752804D01*
X000959816Y003752804D01*
X000959816Y003762197D01*
X000950960Y003762197D01*
X000950960Y003779842D01*
X000938950Y003787088D01*
X000938950Y003762197D01*
X000926807Y003762197D01*
X000926807Y003752804D01*
X000938950Y003752804D01*
X000938950Y003711139D01*
X000938791Y003706896D01*
X000938313Y003704497D01*
X000936233Y003702149D01*
X000932107Y003701277D01*
X000926807Y003701746D01*
X000925062Y003691079D01*
X000886886Y003691079D02*
X000896011Y003690005D01*
X000901848Y003690525D01*
X000906209Y003692085D01*
X000911308Y003697553D01*
X000912415Y003702811D01*
X000912784Y003711810D01*
X000912784Y003752804D01*
X000921640Y003752804D01*
X000921640Y003762197D01*
X000912784Y003762197D01*
X000912784Y003779842D01*
X000900775Y003787088D01*
X000900775Y003762197D01*
X000888631Y003762197D01*
X000888631Y003752804D01*
X000900775Y003752804D01*
X000900775Y003711139D01*
X000900615Y003706896D01*
X000900137Y003704497D01*
X000898057Y003702149D01*
X000893931Y003701277D01*
X000888631Y003701746D01*
X000886886Y003691079D01*
X000880630Y003735825D02*
X000878567Y003743797D01*
X000875128Y003750485D01*
X000870314Y003755890D01*
X000860116Y003761828D01*
X000847905Y003763807D01*
X000834554Y003761400D01*
X000823886Y003754179D01*
X000816892Y003742715D01*
X000814560Y003727577D01*
X000815592Y003715291D01*
X000818686Y003705940D01*
X000823752Y003698937D01*
X000830696Y003693695D01*
X000838940Y003690424D01*
X000847905Y003689334D01*
X000861433Y003691733D01*
X000872092Y003698928D01*
X000879011Y003710636D01*
X000881318Y003726571D01*
X000880630Y003735825D01*
X000867413Y003714603D02*
X000862934Y003706074D01*
X000856191Y003700966D01*
X000847905Y003699264D01*
X000839670Y003700975D01*
X000832944Y003706107D01*
X000828465Y003714746D01*
X000826972Y003726973D01*
X000828474Y003738589D01*
X000832977Y003747000D01*
X000839712Y003752108D01*
X000847905Y003753810D01*
X000856191Y003752116D01*
X000862934Y003747034D01*
X000867413Y003738530D01*
X000868905Y003726571D01*
X000867413Y003714603D01*
X000800404Y003762197D02*
X000789602Y003762197D01*
X000789602Y003752200D01*
X000780678Y003760620D01*
X000774724Y003763010D01*
X000767998Y003763807D01*
X000760794Y003762985D01*
X000755015Y003760520D01*
X000750696Y003756578D01*
X000747870Y003751328D01*
X000743324Y003756788D01*
X000738142Y003760687D01*
X000732321Y003763027D01*
X000725864Y003763807D01*
X000716487Y003762340D01*
X000709560Y003757937D01*
X000705283Y003750481D01*
X000703857Y003739855D01*
X000703857Y003690944D01*
X000715867Y003690944D01*
X000715867Y003735829D01*
X000716160Y003742061D01*
X000717041Y003746262D01*
X000721301Y003751395D01*
X000728547Y003753341D01*
X000735424Y003752091D01*
X000741027Y003748342D01*
X000744750Y003741843D01*
X000745991Y003732341D01*
X000745991Y003690944D01*
X000758068Y003690944D01*
X000758068Y003737238D01*
X000758806Y003744283D01*
X000761020Y003749315D01*
X000764912Y003752334D01*
X000770682Y003753341D01*
X000775588Y003752670D01*
X000780108Y003750657D01*
X000786381Y003742807D01*
X000787841Y003736500D01*
X000788327Y003727913D01*
X000788327Y003690944D01*
X000800404Y003690944D01*
X000800404Y003762197D01*
M02*