%MOIN*%
%OFA0B0*%
%FSLAX36Y36*%
%IPPOS*%
%LPD*%
%ADD10R,0.0024992781413612566X0.0049962017766497467*%
D10*
X000075017Y000007494D02*
X003748917Y000007494D01*
X000050024Y000012490D02*
X003763912Y000012490D01*
X003758953Y000012490D02*
X003773909Y000012490D01*
X000040027Y000017486D02*
X000059982Y000017486D01*
X000060021Y000017486D02*
X003763912Y000017486D01*
X003758953Y000017486D02*
X003773909Y000017486D01*
X003768950Y000017486D02*
X003783907Y000017486D01*
X000030030Y000022482D02*
X000049985Y000022482D01*
X000065020Y000022482D02*
X003753915Y000022482D01*
X003748956Y000022482D02*
X003763912Y000022482D01*
X003758953Y000022482D02*
X003773909Y000022482D01*
X003768950Y000022482D02*
X003783907Y000022482D01*
X003778947Y000022482D02*
X003793904Y000022482D01*
X000025031Y000027479D02*
X000039988Y000027479D01*
X000065020Y000027479D02*
X003753915Y000027479D01*
X003758953Y000027479D02*
X003773909Y000027479D01*
X003768950Y000027479D02*
X003783907Y000027479D01*
X003783946Y000027479D02*
X003798902Y000027479D01*
X000020033Y000032475D02*
X000034989Y000032475D01*
X000065020Y000032475D02*
X003753915Y000032475D01*
X003768950Y000032475D02*
X003788905Y000032475D01*
X003783946Y000032475D02*
X003798902Y000032475D01*
X000020033Y000037471D02*
X000039988Y000037471D01*
X000065020Y000037471D02*
X003748917Y000037471D01*
X003768950Y000037471D02*
X003788905Y000037471D01*
X003793943Y000037471D02*
X003808899Y000037471D01*
X000010036Y000042467D02*
X000024992Y000042467D01*
X000030030Y000042467D02*
X000044987Y000042467D01*
X000070018Y000042467D02*
X003748917Y000042467D01*
X003763951Y000042467D02*
X003783907Y000042467D01*
X003783946Y000042467D02*
X003798902Y000042467D01*
X003798941Y000042467D02*
X003813898Y000042467D01*
X000015034Y000047463D02*
X000034989Y000047463D01*
X000035028Y000047463D02*
X000049985Y000047463D01*
X000070018Y000047463D02*
X003748917Y000047463D01*
X003758953Y000047463D02*
X003778908Y000047463D01*
X003778947Y000047463D02*
X003808899Y000047463D01*
X000005037Y000052460D02*
X000019994Y000052460D01*
X000025031Y000052460D02*
X000044987Y000052460D01*
X000040027Y000052460D02*
X000054984Y000052460D01*
X000070018Y000052460D02*
X003748917Y000052460D01*
X003758953Y000052460D02*
X003773909Y000052460D01*
X003768950Y000052460D02*
X003798902Y000052460D01*
X003803940Y000052460D02*
X003818897Y000052460D01*
X000010036Y000057456D02*
X000029991Y000057456D01*
X000035028Y000057456D02*
X000059982Y000057456D01*
X000070018Y000057456D02*
X003743918Y000057456D01*
X003753954Y000057456D02*
X003768911Y000057456D01*
X003763951Y000057456D02*
X003788905Y000057456D01*
X003793943Y000057456D02*
X003813898Y000057456D01*
X000000039Y000062452D02*
X000014995Y000062452D01*
X000020033Y000062452D02*
X000039988Y000062452D01*
X000045026Y000062452D02*
X000064981Y000062452D01*
X000075017Y000062452D02*
X003743918Y000062452D01*
X003748956Y000062452D02*
X003763912Y000062452D01*
X003758953Y000062452D02*
X003783907Y000062452D01*
X000005037Y000067448D02*
X000024992Y000067448D01*
X000030030Y000067448D02*
X000049985Y000067448D01*
X000055023Y000067448D02*
X000069979Y000067448D01*
X000075017Y000067448D02*
X003743918Y000067448D01*
X003748956Y000067448D02*
X003773909Y000067448D01*
X000020033Y000072444D02*
X000034989Y000072444D01*
X000040027Y000072444D02*
X000059982Y000072444D01*
X000060021Y000072444D02*
X000074978Y000072444D01*
X000075017Y000072444D02*
X003743918Y000072444D01*
X003743957Y000072444D02*
X003768911Y000072444D01*
X003798941Y000072444D02*
X003813898Y000072444D01*
X000050024Y000077441D02*
X000069979Y000077441D01*
X000065020Y000077441D02*
X000079976Y000077441D01*
X000075017Y000077441D02*
X000159953Y000077441D01*
X000239969Y000077441D02*
X003583964Y000077441D01*
X003663980Y000077441D02*
X003743918Y000077441D01*
X003743957Y000077441D02*
X003758914Y000077441D01*
X003793943Y000077441D02*
X003813898Y000077441D01*
X000060021Y000082437D02*
X000084975Y000082437D01*
X000080015Y000082437D02*
X000139959Y000082437D01*
X000135000Y000082437D02*
X000164952Y000082437D01*
X000224974Y000082437D02*
X000259924Y000082437D01*
X000259963Y000082437D02*
X003563970Y000082437D01*
X003559011Y000082437D02*
X003588963Y000082437D01*
X003648985Y000082437D02*
X003683935Y000082437D01*
X003683975Y000082437D02*
X003738920Y000082437D01*
X003783946Y000082437D02*
X003808899Y000082437D01*
X000075017Y000087433D02*
X000119965Y000087433D01*
X000115005Y000087433D02*
X000164952Y000087433D01*
X000224974Y000087433D02*
X000274920Y000087433D01*
X000274959Y000087433D02*
X003543976Y000087433D01*
X003539016Y000087433D02*
X003588963Y000087433D01*
X003648985Y000087433D02*
X003703930Y000087433D01*
X003703969Y000087433D02*
X003738920Y000087433D01*
X003773949Y000087433D02*
X003803901Y000087433D01*
X003803940Y000087433D02*
X003818897Y000087433D01*
X000085014Y000092429D02*
X000104969Y000092429D01*
X000105008Y000092429D02*
X000169950Y000092429D01*
X000224974Y000092429D02*
X000269922Y000092429D01*
X000289955Y000092429D02*
X003528980Y000092429D01*
X003529019Y000092429D02*
X003593961Y000092429D01*
X003648985Y000092429D02*
X003708928Y000092429D01*
X003718964Y000092429D02*
X003733921Y000092429D01*
X003763951Y000092429D02*
X003798902Y000092429D01*
X003803940Y000092429D02*
X003818897Y000092429D01*
X000110007Y000097425D02*
X000169950Y000097425D01*
X000224974Y000097425D02*
X000269922Y000097425D01*
X000289955Y000097425D02*
X000304911Y000097425D01*
X000299952Y000097425D02*
X003518983Y000097425D01*
X003534018Y000097425D02*
X003593961Y000097425D01*
X003648985Y000097425D02*
X003703930Y000097425D01*
X003718964Y000097425D02*
X003738920Y000097425D01*
X003758953Y000097425D02*
X003793904Y000097425D01*
X003803940Y000097425D02*
X003818897Y000097425D01*
X000115005Y000102422D02*
X000169950Y000102422D01*
X000219975Y000102422D02*
X000264923Y000102422D01*
X000309949Y000102422D02*
X003508986Y000102422D01*
X003539016Y000102422D02*
X003593961Y000102422D01*
X003643986Y000102422D02*
X003703930Y000102422D01*
X003723963Y000102422D02*
X003738920Y000102422D01*
X003748956Y000102422D02*
X003788905Y000102422D01*
X003803940Y000102422D02*
X003818897Y000102422D01*
X000120004Y000107418D02*
X000174949Y000107418D01*
X000219975Y000107418D02*
X000259924Y000107418D01*
X000314948Y000107418D02*
X000329904Y000107418D01*
X000324945Y000107418D02*
X003498989Y000107418D01*
X003544015Y000107418D02*
X003598960Y000107418D01*
X003643986Y000107418D02*
X003698931Y000107418D01*
X003738959Y000107418D02*
X003788905Y000107418D01*
X003803940Y000107418D02*
X003818897Y000107418D01*
X000120004Y000112414D02*
X000174949Y000112414D01*
X000219975Y000112414D02*
X000259924Y000112414D01*
X000324945Y000112414D02*
X000339901Y000112414D01*
X000334942Y000112414D02*
X003488992Y000112414D01*
X003544015Y000112414D02*
X003598960Y000112414D01*
X003643986Y000112414D02*
X003693933Y000112414D01*
X003733960Y000112414D02*
X003783907Y000112414D01*
X003803940Y000112414D02*
X003818897Y000112414D01*
X000125002Y000117410D02*
X000174949Y000117410D01*
X000219975Y000117410D02*
X000254926Y000117410D01*
X000334942Y000117410D02*
X000349898Y000117410D01*
X000344939Y000117410D02*
X003483993Y000117410D01*
X003549014Y000117410D02*
X003598960Y000117410D01*
X003643986Y000117410D02*
X003693933Y000117410D01*
X003743957Y000117410D02*
X003778908Y000117410D01*
X003803940Y000117410D02*
X003818897Y000117410D01*
X000130001Y000122406D02*
X000174949Y000122406D01*
X000214976Y000122406D02*
X000249927Y000122406D01*
X000344939Y000122406D02*
X003468998Y000122406D01*
X003554012Y000122406D02*
X003598960Y000122406D01*
X003638988Y000122406D02*
X003688934Y000122406D01*
X003743957Y000122406D02*
X003773909Y000122406D01*
X003798941Y000122406D02*
X003818897Y000122406D01*
X000135000Y000127403D02*
X000179948Y000127403D01*
X000214976Y000127403D02*
X000249927Y000127403D01*
X000359935Y000127403D02*
X003468998Y000127403D01*
X003559011Y000127403D02*
X003603959Y000127403D01*
X003638988Y000127403D02*
X003683935Y000127403D01*
X003743957Y000127403D02*
X003768911Y000127403D01*
X003798941Y000127403D02*
X003818897Y000127403D01*
X000135000Y000132399D02*
X000179948Y000132399D01*
X000214976Y000132399D02*
X000244929Y000132399D01*
X000364933Y000132399D02*
X003454002Y000132399D01*
X003559011Y000132399D02*
X003603959Y000132399D01*
X003638988Y000132399D02*
X003683935Y000132399D01*
X003743957Y000132399D02*
X003758914Y000132399D01*
X003753954Y000132399D02*
X003768911Y000132399D01*
X003798941Y000132399D02*
X003818897Y000132399D01*
X000139998Y000137395D02*
X000179948Y000137395D01*
X000214976Y000137395D02*
X000239930Y000137395D01*
X000354936Y000137395D02*
X000379890Y000137395D01*
X000374930Y000137395D02*
X003449003Y000137395D01*
X003564009Y000137395D02*
X003603959Y000137395D01*
X003638988Y000137395D02*
X003678937Y000137395D01*
X003753954Y000137395D02*
X003768911Y000137395D01*
X003798941Y000137395D02*
X003818897Y000137395D01*
X000144997Y000142391D02*
X000169950Y000142391D01*
X000164991Y000142391D02*
X000179948Y000142391D01*
X000224974Y000142391D02*
X000239930Y000142391D01*
X000344939Y000142391D02*
X000384888Y000142391D01*
X000379929Y000142391D02*
X003439006Y000142391D01*
X003434047Y000142391D02*
X003463999Y000142391D01*
X003569008Y000142391D02*
X003593961Y000142391D01*
X003589002Y000142391D02*
X003603959Y000142391D01*
X003648985Y000142391D02*
X003673938Y000142391D01*
X003753954Y000142391D02*
X003768911Y000142391D01*
X003798941Y000142391D02*
X003818897Y000142391D01*
X000070018Y000147387D02*
X000084975Y000147387D01*
X000154994Y000147387D02*
X000169950Y000147387D01*
X000174988Y000147387D02*
X000189945Y000147387D01*
X000204979Y000147387D02*
X000224935Y000147387D01*
X000229972Y000147387D02*
X000244929Y000147387D01*
X000334942Y000147387D02*
X000394885Y000147387D01*
X000389926Y000147387D02*
X003473996Y000147387D01*
X003579005Y000147387D02*
X003593961Y000147387D01*
X003598999Y000147387D02*
X003613956Y000147387D01*
X003628990Y000147387D02*
X003648946Y000147387D01*
X003658982Y000147387D02*
X003673938Y000147387D01*
X003703969Y000147387D02*
X003718925Y000147387D01*
X003798941Y000147387D02*
X003818897Y000147387D01*
X000164991Y000152384D02*
X000179948Y000152384D01*
X000219975Y000152384D02*
X000234932Y000152384D01*
X000234971Y000152384D02*
X000249927Y000152384D01*
X000324945Y000152384D02*
X003424011Y000152384D01*
X003419051Y000152384D02*
X003488992Y000152384D01*
X003589002Y000152384D02*
X003603959Y000152384D01*
X003643986Y000152384D02*
X003658943Y000152384D01*
X003663980Y000152384D02*
X003678937Y000152384D01*
X003693972Y000152384D02*
X003713927Y000152384D01*
X003748956Y000152384D02*
X003773909Y000152384D01*
X003793943Y000152384D02*
X003818897Y000152384D01*
X000125002Y000157380D02*
X000139959Y000157380D01*
X000154994Y000157380D02*
X000169950Y000157380D01*
X000239969Y000157380D02*
X000254926Y000157380D01*
X000284956Y000157380D02*
X000299913Y000157380D01*
X000314948Y000157380D02*
X000404883Y000157380D01*
X000399923Y000157380D02*
X003498989Y000157380D01*
X003549014Y000157380D02*
X003563970Y000157380D01*
X003579005Y000157380D02*
X003593961Y000157380D01*
X003653983Y000157380D02*
X003668940Y000157380D01*
X003668979Y000157380D02*
X003683935Y000157380D01*
X003683975Y000157380D02*
X003703930Y000157380D01*
X003708967Y000157380D02*
X003723924Y000157380D01*
X003738959Y000157380D02*
X003783907Y000157380D01*
X003793943Y000157380D02*
X003818897Y000157380D01*
X000070018Y000162376D02*
X000089974Y000162376D01*
X000130001Y000162376D02*
X000149956Y000162376D01*
X000149995Y000162376D02*
X000164952Y000162376D01*
X000244968Y000162376D02*
X000259924Y000162376D01*
X000274959Y000162376D02*
X000294914Y000162376D01*
X000304950Y000162376D02*
X003414013Y000162376D01*
X003409054Y000162376D02*
X003513985Y000162376D01*
X003554012Y000162376D02*
X003573967Y000162376D01*
X003574006Y000162376D02*
X003588963Y000162376D01*
X003658982Y000162376D02*
X003673938Y000162376D01*
X003673977Y000162376D02*
X003693933Y000162376D01*
X003698970Y000162376D02*
X003718925Y000162376D01*
X003728962Y000162376D02*
X003783907Y000162376D01*
X003793943Y000162376D02*
X003818897Y000162376D01*
X000070018Y000167372D02*
X000104969Y000167372D01*
X000120004Y000167372D02*
X000134961Y000167372D01*
X000249966Y000167372D02*
X000264923Y000167372D01*
X000264962Y000167372D02*
X000284917Y000167372D01*
X000289955Y000167372D02*
X003409015Y000167372D01*
X003404055Y000167372D02*
X003528980Y000167372D01*
X003544015Y000167372D02*
X003558972Y000167372D01*
X003688973Y000167372D02*
X003708928Y000167372D01*
X003713966Y000167372D02*
X003788905Y000167372D01*
X003793943Y000167372D02*
X003818897Y000167372D01*
X000070018Y000172368D02*
X000114966Y000172368D01*
X000125002Y000172368D02*
X000144958Y000172368D01*
X000254965Y000172368D02*
X000274920Y000172368D01*
X000279958Y000172368D02*
X003404016Y000172368D01*
X003399057Y000172368D02*
X003538977Y000172368D01*
X003549014Y000172368D02*
X003568969Y000172368D01*
X003678976Y000172368D02*
X003698931Y000172368D01*
X003703969Y000172368D02*
X003793904Y000172368D01*
X003793943Y000172368D02*
X003818897Y000172368D01*
X000070018Y000177365D02*
X000129962Y000177365D01*
X000269961Y000177365D02*
X000369893Y000177365D01*
X000419917Y000177365D02*
X003399018Y000177365D01*
X003394058Y000177365D02*
X003553973Y000177365D01*
X003693972Y000177365D02*
X003798902Y000177365D01*
X003793943Y000177365D02*
X003818897Y000177365D01*
X000070018Y000182361D02*
X000139959Y000182361D01*
X000259963Y000182361D02*
X000299913Y000182361D01*
X000429914Y000182361D02*
X003394019Y000182361D01*
X003394058Y000182361D02*
X003563970Y000182361D01*
X003683975Y000182361D02*
X003723924Y000182361D01*
X003788944Y000182361D02*
X003818897Y000182361D01*
X000434913Y000187357D02*
X003389021Y000187357D01*
X003798941Y000187357D02*
X003818897Y000187357D01*
X000439912Y000192353D02*
X003384022Y000192353D01*
X003803940Y000192353D02*
X003818897Y000192353D01*
X000444910Y000197349D02*
X003379024Y000197349D01*
X000135000Y000222330D02*
X000149956Y000222330D01*
X000249966Y000222330D02*
X000264923Y000222330D01*
X003559011Y000222330D02*
X003573967Y000222330D01*
X003673977Y000222330D02*
X003688934Y000222330D01*
X000125002Y000227327D02*
X000144958Y000227327D01*
X000254965Y000227327D02*
X000274920Y000227327D01*
X003549014Y000227327D02*
X003568969Y000227327D01*
X003678976Y000227327D02*
X003698931Y000227327D01*
X000120004Y000232323D02*
X000134961Y000232323D01*
X000139998Y000232323D02*
X000154955Y000232323D01*
X000244968Y000232323D02*
X000259924Y000232323D01*
X000264962Y000232323D02*
X000284917Y000232323D01*
X003394058Y000232323D02*
X003409015Y000232323D01*
X003544015Y000232323D02*
X003558972Y000232323D01*
X003564009Y000232323D02*
X003578966Y000232323D01*
X003668979Y000232323D02*
X003683935Y000232323D01*
X003688973Y000232323D02*
X003708928Y000232323D01*
X000130001Y000237319D02*
X000144958Y000237319D01*
X000244968Y000237319D02*
X000269922Y000237319D01*
X000274959Y000237319D02*
X000294914Y000237319D01*
X000409920Y000237319D02*
X000424877Y000237319D01*
X003399057Y000237319D02*
X003414013Y000237319D01*
X003554012Y000237319D02*
X003568969Y000237319D01*
X003668979Y000237319D02*
X003693933Y000237319D01*
X003698970Y000237319D02*
X003718925Y000237319D01*
X000125002Y000242315D02*
X000149956Y000242315D01*
X000239969Y000242315D02*
X000279919Y000242315D01*
X000284956Y000242315D02*
X000304911Y000242315D01*
X000404922Y000242315D02*
X000419878Y000242315D01*
X003399057Y000242315D02*
X003419012Y000242315D01*
X003549014Y000242315D02*
X003573967Y000242315D01*
X003663980Y000242315D02*
X003703930Y000242315D01*
X003708967Y000242315D02*
X003728922Y000242315D01*
X000115005Y000247311D02*
X000154955Y000247311D01*
X000234971Y000247311D02*
X000289916Y000247311D01*
X000294953Y000247311D02*
X000314909Y000247311D01*
X000399923Y000247311D02*
X000414880Y000247311D01*
X003404055Y000247311D02*
X003424011Y000247311D01*
X003539016Y000247311D02*
X003578966Y000247311D01*
X003658982Y000247311D02*
X003713927Y000247311D01*
X003718964Y000247311D02*
X003738920Y000247311D01*
X000105008Y000252308D02*
X000159953Y000252308D01*
X000229972Y000252308D02*
X000299913Y000252308D01*
X000304950Y000252308D02*
X000324906Y000252308D01*
X003409054Y000252308D02*
X003429009Y000252308D01*
X003529019Y000252308D02*
X003583964Y000252308D01*
X003653983Y000252308D02*
X003723924Y000252308D01*
X003728962Y000252308D02*
X003748917Y000252308D01*
X000095011Y000257304D02*
X000164952Y000257304D01*
X000164991Y000257304D02*
X000179948Y000257304D01*
X000219975Y000257304D02*
X000309910Y000257304D01*
X000314948Y000257304D02*
X000334903Y000257304D01*
X003414052Y000257304D02*
X003429009Y000257304D01*
X003519022Y000257304D02*
X003588963Y000257304D01*
X003589002Y000257304D02*
X003603959Y000257304D01*
X003643986Y000257304D02*
X003733921Y000257304D01*
X003738959Y000257304D02*
X003758914Y000257304D01*
X000090013Y000262300D02*
X000169950Y000262300D01*
X000164991Y000262300D02*
X000179948Y000262300D01*
X000174988Y000262300D02*
X000199942Y000262300D01*
X000199981Y000262300D02*
X000229933Y000262300D01*
X000224974Y000262300D02*
X000319907Y000262300D01*
X000324945Y000262300D02*
X000344900Y000262300D01*
X000384927Y000262300D02*
X000399884Y000262300D01*
X003514024Y000262300D02*
X003593961Y000262300D01*
X003589002Y000262300D02*
X003603959Y000262300D01*
X003598999Y000262300D02*
X003623953Y000262300D01*
X003623992Y000262300D02*
X003653944Y000262300D01*
X003648985Y000262300D02*
X003743918Y000262300D01*
X003748956Y000262300D02*
X003768911Y000262300D01*
X000080015Y000267296D02*
X000169950Y000267296D01*
X000164991Y000267296D02*
X000179948Y000267296D01*
X000174988Y000267296D02*
X000219936Y000267296D01*
X000229972Y000267296D02*
X000329904Y000267296D01*
X000334942Y000267296D02*
X000354897Y000267296D01*
X000379929Y000267296D02*
X000394885Y000267296D01*
X003504027Y000267296D02*
X003593961Y000267296D01*
X003589002Y000267296D02*
X003603959Y000267296D01*
X003598999Y000267296D02*
X003643947Y000267296D01*
X003653983Y000267296D02*
X003753915Y000267296D01*
X003758953Y000267296D02*
X003778908Y000267296D01*
X000075017Y000272292D02*
X000164952Y000272292D01*
X000164991Y000272292D02*
X000179948Y000272292D01*
X000174988Y000272292D02*
X000219936Y000272292D01*
X000234971Y000272292D02*
X000339901Y000272292D01*
X000344939Y000272292D02*
X000364894Y000272292D01*
X003424050Y000272292D02*
X003439006Y000272292D01*
X003494029Y000272292D02*
X003588963Y000272292D01*
X003589002Y000272292D02*
X003603959Y000272292D01*
X003598999Y000272292D02*
X003643947Y000272292D01*
X003658982Y000272292D02*
X003763912Y000272292D01*
X003768950Y000272292D02*
X003788905Y000272292D01*
X000080015Y000277289D02*
X000159953Y000277289D01*
X000174988Y000277289D02*
X000224935Y000277289D01*
X000239969Y000277289D02*
X000349898Y000277289D01*
X000354936Y000277289D02*
X000374891Y000277289D01*
X003424050Y000277289D02*
X003444005Y000277289D01*
X003484032Y000277289D02*
X003583964Y000277289D01*
X003598999Y000277289D02*
X003648946Y000277289D01*
X003663980Y000277289D02*
X003773909Y000277289D01*
X003778947Y000277289D02*
X003798902Y000277289D01*
X000080015Y000282285D02*
X000154955Y000282285D01*
X000169989Y000282285D02*
X000224935Y000282285D01*
X000244968Y000282285D02*
X000359896Y000282285D01*
X000364933Y000282285D02*
X000389887Y000282285D01*
X003424050Y000282285D02*
X003454002Y000282285D01*
X003479034Y000282285D02*
X003578966Y000282285D01*
X003594001Y000282285D02*
X003648946Y000282285D01*
X003668979Y000282285D02*
X003783907Y000282285D01*
X003788944Y000282285D02*
X003808899Y000282285D01*
X000080015Y000287281D02*
X000149956Y000287281D01*
X000169989Y000287281D02*
X000224935Y000287281D01*
X000249966Y000287281D02*
X000389887Y000287281D01*
X003424050Y000287281D02*
X003459000Y000287281D01*
X003469037Y000287281D02*
X003573967Y000287281D01*
X003594001Y000287281D02*
X003648946Y000287281D01*
X003673977Y000287281D02*
X003793904Y000287281D01*
X003798941Y000287281D02*
X003818897Y000287281D01*
X000085014Y000292277D02*
X000144958Y000292277D01*
X000169989Y000292277D02*
X000224935Y000292277D01*
X000254965Y000292277D02*
X000359896Y000292277D01*
X000354936Y000292277D02*
X000389887Y000292277D01*
X003419051Y000292277D02*
X003463999Y000292277D01*
X003464038Y000292277D02*
X003568969Y000292277D01*
X003594001Y000292277D02*
X003648946Y000292277D01*
X003678976Y000292277D02*
X003803901Y000292277D01*
X000085014Y000297274D02*
X000144958Y000297274D01*
X000169989Y000297274D02*
X000224935Y000297274D01*
X000259963Y000297274D02*
X000354897Y000297274D01*
X000349937Y000297274D02*
X000394885Y000297274D01*
X003419051Y000297274D02*
X003468998Y000297274D01*
X003469037Y000297274D02*
X003568969Y000297274D01*
X003594001Y000297274D02*
X003648946Y000297274D01*
X003683975Y000297274D02*
X003813898Y000297274D01*
X000090013Y000302270D02*
X000139959Y000302270D01*
X000169989Y000302270D02*
X000229933Y000302270D01*
X000264962Y000302270D02*
X000349898Y000302270D01*
X000344939Y000302270D02*
X000394885Y000302270D01*
X003419051Y000302270D02*
X003478995Y000302270D01*
X003474035Y000302270D02*
X003563970Y000302270D01*
X003594001Y000302270D02*
X003653944Y000302270D01*
X003688973Y000302270D02*
X003818897Y000302270D01*
X000090013Y000307266D02*
X000134961Y000307266D01*
X000169989Y000307266D02*
X000229933Y000307266D01*
X000269961Y000307266D02*
X000344900Y000307266D01*
X000339940Y000307266D02*
X000394885Y000307266D01*
X003419051Y000307266D02*
X003483993Y000307266D01*
X003479034Y000307266D02*
X003558972Y000307266D01*
X003594001Y000307266D02*
X003653944Y000307266D01*
X003693972Y000307266D02*
X003818897Y000307266D01*
X000090013Y000312262D02*
X000129962Y000312262D01*
X000169989Y000312262D02*
X000229933Y000312262D01*
X000274959Y000312262D02*
X000339901Y000312262D01*
X000334942Y000312262D02*
X000399884Y000312262D01*
X003414052Y000312262D02*
X003478995Y000312262D01*
X003474035Y000312262D02*
X003488992Y000312262D01*
X003484032Y000312262D02*
X003553973Y000312262D01*
X003594001Y000312262D02*
X003653944Y000312262D01*
X003698970Y000312262D02*
X003818897Y000312262D01*
X000095011Y000317258D02*
X000124963Y000317258D01*
X000164991Y000317258D02*
X000229933Y000317258D01*
X000279958Y000317258D02*
X000334903Y000317258D01*
X000334942Y000317258D02*
X000399884Y000317258D01*
X003414052Y000317258D02*
X003478995Y000317258D01*
X003489031Y000317258D02*
X003548974Y000317258D01*
X003589002Y000317258D02*
X003653944Y000317258D01*
X003703969Y000317258D02*
X003818897Y000317258D01*
X000095011Y000322255D02*
X000124963Y000322255D01*
X000164991Y000322255D02*
X000234932Y000322255D01*
X000279958Y000322255D02*
X000329904Y000322255D01*
X000339940Y000322255D02*
X000399884Y000322255D01*
X003414052Y000322255D02*
X003473996Y000322255D01*
X003494029Y000322255D02*
X003548974Y000322255D01*
X003589002Y000322255D02*
X003658943Y000322255D01*
X003703969Y000322255D02*
X003818897Y000322255D01*
X000100010Y000327251D02*
X000119965Y000327251D01*
X000164991Y000327251D02*
X000234932Y000327251D01*
X000284956Y000327251D02*
X000324906Y000327251D01*
X000344939Y000327251D02*
X000399884Y000327251D01*
X003414052Y000327251D02*
X003468998Y000327251D01*
X003499028Y000327251D02*
X003543976Y000327251D01*
X003589002Y000327251D02*
X003658943Y000327251D01*
X003708967Y000327251D02*
X003818897Y000327251D01*
X000100010Y000332247D02*
X000114966Y000332247D01*
X000164991Y000332247D02*
X000234932Y000332247D01*
X000289955Y000332247D02*
X000319907Y000332247D01*
X000349937Y000332247D02*
X000404883Y000332247D01*
X003414052Y000332247D02*
X003468998Y000332247D01*
X003504027Y000332247D02*
X003538977Y000332247D01*
X003589002Y000332247D02*
X003658943Y000332247D01*
X003713966Y000332247D02*
X003818897Y000332247D01*
X000100010Y000337243D02*
X000114966Y000337243D01*
X000164991Y000337243D02*
X000234932Y000337243D01*
X000294953Y000337243D02*
X000319907Y000337243D01*
X000349937Y000337243D02*
X000404883Y000337243D01*
X003409054Y000337243D02*
X003463999Y000337243D01*
X003509025Y000337243D02*
X003533979Y000337243D01*
X003589002Y000337243D02*
X003658943Y000337243D01*
X003718964Y000337243D02*
X003818897Y000337243D01*
X000164991Y000342239D02*
X000234932Y000342239D01*
X000354936Y000342239D02*
X000404883Y000342239D01*
X003409054Y000342239D02*
X003459000Y000342239D01*
X003504027Y000342239D02*
X003528980Y000342239D01*
X003589002Y000342239D02*
X003658943Y000342239D01*
X003723963Y000342239D02*
X003818897Y000342239D01*
X000105008Y000347236D02*
X000119965Y000347236D01*
X000159992Y000347236D02*
X000239930Y000347236D01*
X000359935Y000347236D02*
X000409881Y000347236D01*
X003409054Y000347236D02*
X003454002Y000347236D01*
X003514024Y000347236D02*
X003528980Y000347236D01*
X003584003Y000347236D02*
X003663941Y000347236D01*
X003728962Y000347236D02*
X003818897Y000347236D01*
X000159992Y000352232D02*
X000239930Y000352232D01*
X000364933Y000352232D02*
X000409881Y000352232D01*
X003409054Y000352232D02*
X003454002Y000352232D01*
X003584003Y000352232D02*
X003663941Y000352232D01*
X003733960Y000352232D02*
X003818897Y000352232D01*
X000159992Y000357228D02*
X000239930Y000357228D01*
X000369932Y000357228D02*
X000409881Y000357228D01*
X003404055Y000357228D02*
X003449003Y000357228D01*
X003584003Y000357228D02*
X003663941Y000357228D01*
X003738959Y000357228D02*
X003818897Y000357228D01*
X000159992Y000362224D02*
X000239930Y000362224D01*
X000369932Y000362224D02*
X000414880Y000362224D01*
X003404055Y000362224D02*
X003444005Y000362224D01*
X003584003Y000362224D02*
X003663941Y000362224D01*
X003743957Y000362224D02*
X003818897Y000362224D01*
X000159992Y000367220D02*
X000239930Y000367220D01*
X000374930Y000367220D02*
X000414880Y000367220D01*
X003404055Y000367220D02*
X003444005Y000367220D01*
X003584003Y000367220D02*
X003663941Y000367220D01*
X003748956Y000367220D02*
X003818897Y000367220D01*
X000120004Y000372217D02*
X000134961Y000372217D01*
X000159992Y000372217D02*
X000244929Y000372217D01*
X000379929Y000372217D02*
X000414880Y000372217D01*
X003404055Y000372217D02*
X003439006Y000372217D01*
X003584003Y000372217D02*
X003668940Y000372217D01*
X003753954Y000372217D02*
X003818897Y000372217D01*
X000159992Y000377213D02*
X000244929Y000377213D01*
X000269961Y000377213D02*
X000284917Y000377213D01*
X000384927Y000377213D02*
X000414880Y000377213D01*
X003399057Y000377213D02*
X003434008Y000377213D01*
X003524021Y000377213D02*
X003548974Y000377213D01*
X003584003Y000377213D02*
X003668940Y000377213D01*
X003758953Y000377213D02*
X003818897Y000377213D01*
X000154994Y000382209D02*
X000244929Y000382209D01*
X000264962Y000382209D02*
X000294914Y000382209D01*
X000384927Y000382209D02*
X000419878Y000382209D01*
X003399057Y000382209D02*
X003434008Y000382209D01*
X003514024Y000382209D02*
X003558972Y000382209D01*
X003579005Y000382209D02*
X003668940Y000382209D01*
X003763951Y000382209D02*
X003818897Y000382209D01*
X000154994Y000387205D02*
X000244929Y000387205D01*
X000264962Y000387205D02*
X000304911Y000387205D01*
X000389926Y000387205D02*
X000419878Y000387205D01*
X003399057Y000387205D02*
X003429009Y000387205D01*
X003504027Y000387205D02*
X003558972Y000387205D01*
X003579005Y000387205D02*
X003668940Y000387205D01*
X003763951Y000387205D02*
X003818897Y000387205D01*
X000154994Y000392201D02*
X000249927Y000392201D01*
X000259963Y000392201D02*
X000319907Y000392201D01*
X000394924Y000392201D02*
X000419878Y000392201D01*
X003399057Y000392201D02*
X003424011Y000392201D01*
X003494029Y000392201D02*
X003563970Y000392201D01*
X003579005Y000392201D02*
X003673938Y000392201D01*
X003768950Y000392201D02*
X003818897Y000392201D01*
X000154994Y000397198D02*
X000249927Y000397198D01*
X000254965Y000397198D02*
X000329904Y000397198D01*
X000404922Y000397198D02*
X000419878Y000397198D01*
X003409054Y000397198D02*
X003424011Y000397198D01*
X003439045Y000397198D02*
X003454002Y000397198D01*
X003484032Y000397198D02*
X003573967Y000397198D01*
X003579005Y000397198D02*
X003673938Y000397198D01*
X003773949Y000397198D02*
X003818897Y000397198D01*
X000139998Y000402194D02*
X000154955Y000402194D01*
X000154994Y000402194D02*
X000249927Y000402194D01*
X000244968Y000402194D02*
X000344900Y000402194D01*
X000414919Y000402194D02*
X000429875Y000402194D01*
X003394058Y000402194D02*
X003409015Y000402194D01*
X003414052Y000402194D02*
X003429009Y000402194D01*
X003429048Y000402194D02*
X003449003Y000402194D01*
X003474035Y000402194D02*
X003573967Y000402194D01*
X003579005Y000402194D02*
X003673938Y000402194D01*
X003778947Y000402194D02*
X003818897Y000402194D01*
X000154994Y000407190D02*
X000249927Y000407190D01*
X000244968Y000407190D02*
X000359896Y000407190D01*
X000374930Y000407190D02*
X000389887Y000407190D01*
X000404922Y000407190D02*
X000419878Y000407190D01*
X003404055Y000407190D02*
X003419012Y000407190D01*
X003419051Y000407190D02*
X003439006Y000407190D01*
X003459039Y000407190D02*
X003578966Y000407190D01*
X003579005Y000407190D02*
X003673938Y000407190D01*
X003783946Y000407190D02*
X003818897Y000407190D01*
X000154994Y000412186D02*
X000244929Y000412186D01*
X000239969Y000412186D02*
X000369893Y000412186D01*
X000379929Y000412186D02*
X000399884Y000412186D01*
X000399923Y000412186D02*
X000414880Y000412186D01*
X003449042Y000412186D02*
X003583964Y000412186D01*
X003579005Y000412186D02*
X003673938Y000412186D01*
X003788944Y000412186D02*
X003818897Y000412186D01*
X000154994Y000417182D02*
X000239930Y000417182D01*
X000234971Y000417182D02*
X000384888Y000417182D01*
X003424050Y000417182D02*
X003439006Y000417182D01*
X003439045Y000417182D02*
X003538977Y000417182D01*
X003574006Y000417182D02*
X003678937Y000417182D01*
X003793943Y000417182D02*
X003818897Y000417182D01*
X000159992Y000422179D02*
X000394885Y000422179D01*
X003429048Y000422179D02*
X003468998Y000422179D01*
X003579005Y000422179D02*
X003678937Y000422179D01*
X003798941Y000422179D02*
X003818897Y000422179D01*
X000164991Y000427175D02*
X000234932Y000427175D01*
X003589002Y000427175D02*
X003678937Y000427175D01*
X003803940Y000427175D02*
X003818897Y000427175D01*
X000169989Y000432171D02*
X000229933Y000432171D01*
X003594001Y000432171D02*
X003678937Y000432171D01*
X000174988Y000437167D02*
X000224935Y000437167D01*
X003598999Y000437167D02*
X003678937Y000437167D01*
X000179987Y000442163D02*
X000219936Y000442163D01*
X003603998Y000442163D02*
X003683935Y000442163D01*
X000184985Y000447160D02*
X000214937Y000447160D01*
X003608996Y000447160D02*
X003683935Y000447160D01*
X000189984Y000452156D02*
X000209939Y000452156D01*
X003613995Y000452156D02*
X003683935Y000452156D01*
X003618993Y000457152D02*
X003683935Y000457152D01*
X003623992Y000462148D02*
X003683935Y000462148D01*
X003628990Y000467144D02*
X003688934Y000467144D01*
X003633989Y000472141D02*
X003688934Y000472141D01*
X003638988Y000477137D02*
X003688934Y000477137D01*
X003643986Y000482133D02*
X003688934Y000482133D01*
X003648985Y000487129D02*
X003693933Y000487129D01*
X003653983Y000492125D02*
X003693933Y000492125D01*
X003658982Y000497122D02*
X003693933Y000497122D01*
X003668979Y000502118D02*
X003693933Y000502118D01*
X003673977Y000507114D02*
X003693933Y000507114D01*
X003678976Y000512110D02*
X003698931Y000512110D01*
X003683975Y000517106D02*
X003698931Y000517106D01*
X003703969Y000537091D02*
X003718925Y000537091D01*
X003723963Y000552080D02*
X003738920Y000552080D01*
X003758953Y000577061D02*
X003773909Y000577061D01*
X003773949Y000587053D02*
X003788905Y000587053D01*
X003798941Y000602042D02*
X003813898Y000602042D01*
X000159992Y003519824D02*
X000174949Y003519824D01*
X003419051Y003519824D02*
X003434008Y003519824D01*
X000224974Y003524820D02*
X000239930Y003524820D01*
X000389926Y003524820D02*
X000404883Y003524820D01*
X003424050Y003524820D02*
X003444005Y003524820D01*
X003773949Y003524820D02*
X003788905Y003524820D01*
X000149995Y003529816D02*
X000164952Y003529816D01*
X000229972Y003529816D02*
X000249927Y003529816D01*
X000379929Y003529816D02*
X000394885Y003529816D01*
X000394924Y003529816D02*
X000409881Y003529816D01*
X003414052Y003529816D02*
X003429009Y003529816D01*
X003434047Y003529816D02*
X003454002Y003529816D01*
X003768950Y003529816D02*
X003783907Y003529816D01*
X000234971Y003534812D02*
X000249927Y003534812D01*
X000374930Y003534812D02*
X000399884Y003534812D01*
X003414052Y003534812D02*
X003439006Y003534812D01*
X003444044Y003534812D02*
X003463999Y003534812D01*
X000234971Y003539808D02*
X000249927Y003539808D01*
X000364933Y003539808D02*
X000404883Y003539808D01*
X003409054Y003539808D02*
X003449003Y003539808D01*
X003454041Y003539808D02*
X003473996Y003539808D01*
X000234971Y003544805D02*
X000249927Y003544805D01*
X000354936Y003544805D02*
X000409881Y003544805D01*
X000409920Y003544805D02*
X000424877Y003544805D01*
X003399057Y003544805D02*
X003459000Y003544805D01*
X003464038Y003544805D02*
X003483993Y003544805D01*
X000135000Y003549801D02*
X000154955Y003549801D01*
X000234971Y003549801D02*
X000254926Y003549801D01*
X000344939Y003549801D02*
X000414880Y003549801D01*
X000409920Y003549801D02*
X000429875Y003549801D01*
X000424916Y003549801D02*
X003409015Y003549801D01*
X003404055Y003549801D02*
X003468998Y003549801D01*
X003474035Y003549801D02*
X003493990Y003549801D01*
X003748956Y003549801D02*
X003763912Y003549801D01*
X000135000Y003554797D02*
X000154955Y003554797D01*
X000229972Y003554797D02*
X000259924Y003554797D01*
X000339940Y003554797D02*
X000414880Y003554797D01*
X000409920Y003554797D02*
X000429875Y003554797D01*
X000424916Y003554797D02*
X003394019Y003554797D01*
X003394058Y003554797D02*
X003409015Y003554797D01*
X003409054Y003554797D02*
X003478995Y003554797D01*
X003484032Y003554797D02*
X003503987Y003554797D01*
X003743957Y003554797D02*
X003758914Y003554797D01*
X000135000Y003559793D02*
X000154955Y003559793D01*
X000229972Y003559793D02*
X000264923Y003559793D01*
X000259963Y003559793D02*
X000274920Y003559793D01*
X000329943Y003559793D02*
X000409881Y003559793D01*
X000414919Y003559793D02*
X000429875Y003559793D01*
X000424916Y003559793D02*
X003394019Y003559793D01*
X003399057Y003559793D02*
X003414013Y003559793D01*
X003414052Y003559793D02*
X003488992Y003559793D01*
X003494029Y003559793D02*
X003513985Y003559793D01*
X000125002Y003564789D02*
X000139959Y003564789D01*
X000135000Y003564789D02*
X000159953Y003564789D01*
X000229972Y003564789D02*
X000279919Y003564789D01*
X000319946Y003564789D02*
X000404883Y003564789D01*
X000404922Y003564789D02*
X000419878Y003564789D01*
X000424916Y003564789D02*
X003399018Y003564789D01*
X003399057Y003564789D02*
X003414013Y003564789D01*
X003419051Y003564789D02*
X003498989Y003564789D01*
X003504027Y003564789D02*
X003523982Y003564789D01*
X000125002Y003569786D02*
X000159953Y003569786D01*
X000229972Y003569786D02*
X000284917Y003569786D01*
X000309949Y003569786D02*
X000399884Y003569786D01*
X000404922Y003569786D02*
X000419878Y003569786D01*
X000419917Y003569786D02*
X003399018Y003569786D01*
X003399057Y003569786D02*
X003414013Y003569786D01*
X003424050Y003569786D02*
X003508986Y003569786D01*
X003514024Y003569786D02*
X003533979Y003569786D01*
X000120004Y003574782D02*
X000144958Y003574782D01*
X000139998Y003574782D02*
X000159953Y003574782D01*
X000224974Y003574782D02*
X000289916Y003574782D01*
X000304950Y003574782D02*
X000394885Y003574782D01*
X000419917Y003574782D02*
X003399018Y003574782D01*
X003429048Y003574782D02*
X003518983Y003574782D01*
X003524021Y003574782D02*
X003543976Y003574782D01*
X000115005Y003579778D02*
X000144958Y003579778D01*
X000139998Y003579778D02*
X000164952Y003579778D01*
X000224974Y003579778D02*
X000289916Y003579778D01*
X000294953Y003579778D02*
X000389887Y003579778D01*
X000419917Y003579778D02*
X003399018Y003579778D01*
X003434047Y003579778D02*
X003528980Y003579778D01*
X003534018Y003579778D02*
X003553973Y003579778D01*
X000115005Y003584774D02*
X000164952Y003584774D01*
X000224974Y003584774D02*
X000294914Y003584774D01*
X000289955Y003584774D02*
X000389887Y003584774D01*
X000419917Y003584774D02*
X002934152Y003584774D01*
X002964182Y003584774D02*
X003399018Y003584774D01*
X003439045Y003584774D02*
X003538977Y003584774D01*
X003544015Y003584774D02*
X003563970Y003584774D01*
X000115005Y003589770D02*
X000149956Y003589770D01*
X000144997Y003589770D02*
X000164952Y003589770D01*
X000224974Y003589770D02*
X000299913Y003589770D01*
X000294953Y003589770D02*
X000384888Y003589770D01*
X000419917Y003589770D02*
X002909159Y003589770D01*
X002904200Y003589770D02*
X002924155Y003589770D01*
X002969181Y003589770D02*
X002989136Y003589770D01*
X002989175Y003589770D02*
X003404016Y003589770D01*
X003444044Y003589770D02*
X003548974Y003589770D01*
X003554012Y003589770D02*
X003573967Y003589770D01*
X000105008Y003594767D02*
X000149956Y003594767D01*
X000144997Y003594767D02*
X000169950Y003594767D01*
X000219975Y003594767D02*
X000299913Y003594767D01*
X000299952Y003594767D02*
X000379890Y003594767D01*
X000419917Y003594767D02*
X002924155Y003594767D01*
X002969181Y003594767D02*
X003009130Y003594767D01*
X003004171Y003594767D02*
X003404016Y003594767D01*
X003449042Y003594767D02*
X003558972Y003594767D01*
X003564009Y003594767D02*
X003583964Y003594767D01*
X003708967Y003594767D02*
X003733921Y003594767D01*
X000105008Y003599763D02*
X000169950Y003599763D01*
X000219975Y003599763D02*
X000299913Y003599763D01*
X000304950Y003599763D02*
X000374891Y003599763D01*
X000419917Y003599763D02*
X000804767Y003599763D01*
X000929770Y003599763D02*
X000949725Y003599763D01*
X001064731Y003599763D02*
X001124675Y003599763D01*
X001184696Y003599763D02*
X001204652Y003599763D01*
X001259675Y003599763D02*
X001279630Y003599763D01*
X001334653Y003599763D02*
X001359607Y003599763D01*
X001409631Y003599763D02*
X001474574Y003599763D01*
X001539594Y003599763D02*
X001564548Y003599763D01*
X001769527Y003599763D02*
X001784484Y003599763D01*
X001884494Y003599763D02*
X001929442Y003599763D01*
X001999461Y003599763D02*
X002019416Y003599763D01*
X002199403Y003599763D02*
X002214360Y003599763D01*
X002354359Y003599763D02*
X002379312Y003599763D01*
X002629279Y003599763D02*
X002644236Y003599763D01*
X002689262Y003599763D02*
X002819185Y003599763D01*
X002894203Y003599763D02*
X002924155Y003599763D01*
X002964182Y003599763D02*
X002999133Y003599763D01*
X003019167Y003599763D02*
X003404016Y003599763D01*
X003454041Y003599763D02*
X003568969Y003599763D01*
X003574006Y003599763D02*
X003593961Y003599763D01*
X003708967Y003599763D02*
X003733921Y003599763D01*
X000100010Y003604759D02*
X000154955Y003604759D01*
X000149995Y003604759D02*
X000169950Y003604759D01*
X000219975Y003604759D02*
X000299913Y003604759D01*
X000309949Y003604759D02*
X000369893Y003604759D01*
X000414919Y003604759D02*
X000774776Y003604759D01*
X000769816Y003604759D02*
X000789771Y003604759D01*
X000939767Y003604759D02*
X000954724Y003604759D01*
X000994751Y003604759D02*
X001014706Y003604759D01*
X001074728Y003604759D02*
X001089685Y003604759D01*
X001089724Y003604759D02*
X001109679Y003604759D01*
X001114717Y003604759D02*
X001129673Y003604759D01*
X001169701Y003604759D02*
X001194654Y003604759D01*
X001194694Y003604759D02*
X001209650Y003604759D01*
X001244679Y003604759D02*
X001264634Y003604759D01*
X001269672Y003604759D02*
X001284628Y003604759D01*
X001319657Y003604759D02*
X001339613Y003604759D01*
X001349649Y003604759D02*
X001364605Y003604759D01*
X001394636Y003604759D02*
X001414591Y003604759D01*
X001419629Y003604759D02*
X001434585Y003604759D01*
X001439623Y003604759D02*
X001459578Y003604759D01*
X001464616Y003604759D02*
X001479572Y003604759D01*
X001524598Y003604759D02*
X001544553Y003604759D01*
X001554590Y003604759D02*
X001569546Y003604759D01*
X001604575Y003604759D02*
X001624530Y003604759D01*
X001699548Y003604759D02*
X001714504Y003604759D01*
X001754532Y003604759D02*
X001774487Y003604759D01*
X001774526Y003604759D02*
X001789483Y003604759D01*
X001829510Y003604759D02*
X001849465Y003604759D01*
X001894491Y003604759D02*
X001914447Y003604759D01*
X001934480Y003604759D02*
X001949436Y003604759D01*
X001984465Y003604759D02*
X002004421Y003604759D01*
X002014457Y003604759D02*
X002029413Y003604759D01*
X002064442Y003604759D02*
X002084397Y003604759D01*
X002079438Y003604759D02*
X002094395Y003604759D01*
X002129424Y003604759D02*
X002149379Y003604759D01*
X002204402Y003604759D02*
X002219358Y003604759D01*
X002259386Y003604759D02*
X002279341Y003604759D01*
X002279380Y003604759D02*
X002294337Y003604759D01*
X002339363Y003604759D02*
X002364317Y003604759D01*
X002469325Y003604759D02*
X002484282Y003604759D01*
X002519311Y003604759D02*
X002539266Y003604759D01*
X002699259Y003604759D02*
X002714216Y003604759D01*
X002719253Y003604759D02*
X002794192Y003604759D01*
X002789233Y003604759D02*
X002809188Y003604759D01*
X002804229Y003604759D02*
X002824184Y003604759D01*
X002859213Y003604759D02*
X002874169Y003604759D01*
X002874208Y003604759D02*
X002889165Y003604759D01*
X002894203Y003604759D02*
X002929153Y003604759D01*
X002964182Y003604759D02*
X002999133Y003604759D01*
X003019167Y003604759D02*
X003034123Y003604759D01*
X003029164Y003604759D02*
X003404016Y003604759D01*
X003459039Y003604759D02*
X003578966Y003604759D01*
X003584003Y003604759D02*
X003603959Y003604759D01*
X003703969Y003604759D02*
X003733921Y003604759D01*
X000100010Y003609755D02*
X000154955Y003609755D01*
X000149995Y003609755D02*
X000169950Y003609755D01*
X000219975Y003609755D02*
X000294914Y003609755D01*
X000314948Y003609755D02*
X000369893Y003609755D01*
X000414919Y003609755D02*
X000764779Y003609755D01*
X000759819Y003609755D02*
X000789771Y003609755D01*
X000939767Y003609755D02*
X000959722Y003609755D01*
X000994751Y003609755D02*
X001014706Y003609755D01*
X001069730Y003609755D02*
X001094683Y003609755D01*
X001089724Y003609755D02*
X001109679Y003609755D01*
X001114717Y003609755D02*
X001134672Y003609755D01*
X001169701Y003609755D02*
X001194654Y003609755D01*
X001194694Y003609755D02*
X001214649Y003609755D01*
X001244679Y003609755D02*
X001264634Y003609755D01*
X001269672Y003609755D02*
X001289627Y003609755D01*
X001319657Y003609755D02*
X001339613Y003609755D01*
X001349649Y003609755D02*
X001369604Y003609755D01*
X001394636Y003609755D02*
X001414591Y003609755D01*
X001414630Y003609755D02*
X001459578Y003609755D01*
X001464616Y003609755D02*
X001484571Y003609755D01*
X001524598Y003609755D02*
X001544553Y003609755D01*
X001554590Y003609755D02*
X001574545Y003609755D01*
X001604575Y003609755D02*
X001624530Y003609755D01*
X001699548Y003609755D02*
X001719503Y003609755D01*
X001754532Y003609755D02*
X001774487Y003609755D01*
X001774526Y003609755D02*
X001794481Y003609755D01*
X001829510Y003609755D02*
X001849465Y003609755D01*
X001889493Y003609755D02*
X001914447Y003609755D01*
X001934480Y003609755D02*
X001954435Y003609755D01*
X001984465Y003609755D02*
X002004421Y003609755D01*
X002014457Y003609755D02*
X002034412Y003609755D01*
X002064442Y003609755D02*
X002084397Y003609755D01*
X002079438Y003609755D02*
X002099393Y003609755D01*
X002129424Y003609755D02*
X002149379Y003609755D01*
X002204402Y003609755D02*
X002224357Y003609755D01*
X002259386Y003609755D02*
X002279341Y003609755D01*
X002279380Y003609755D02*
X002299335Y003609755D01*
X002339363Y003609755D02*
X002364317Y003609755D01*
X002469325Y003609755D02*
X002489281Y003609755D01*
X002519311Y003609755D02*
X002539266Y003609755D01*
X002694260Y003609755D02*
X002724213Y003609755D01*
X002729250Y003609755D02*
X002784195Y003609755D01*
X002779236Y003609755D02*
X002809188Y003609755D01*
X002809227Y003609755D02*
X002829182Y003609755D01*
X002859213Y003609755D02*
X002879168Y003609755D01*
X002899201Y003609755D02*
X002929153Y003609755D01*
X002964182Y003609755D02*
X002994135Y003609755D01*
X003024165Y003609755D02*
X003049119Y003609755D01*
X003044159Y003609755D02*
X003409015Y003609755D01*
X003459039Y003609755D02*
X003588963Y003609755D01*
X003594001Y003609755D02*
X003613956Y003609755D01*
X003693972Y003609755D02*
X003738920Y003609755D01*
X000100010Y003614751D02*
X000154955Y003614751D01*
X000154994Y003614751D02*
X000174949Y003614751D01*
X000219975Y003614751D02*
X000289916Y003614751D01*
X000319946Y003614751D02*
X000364894Y003614751D01*
X000414919Y003614751D02*
X000749783Y003614751D01*
X000764818Y003614751D02*
X000794770Y003614751D01*
X000939767Y003614751D02*
X000959722Y003614751D01*
X000994751Y003614751D02*
X001014706Y003614751D01*
X001069730Y003614751D02*
X001094683Y003614751D01*
X001089724Y003614751D02*
X001114678Y003614751D01*
X001114717Y003614751D02*
X001134672Y003614751D01*
X001169701Y003614751D02*
X001189656Y003614751D01*
X001194694Y003614751D02*
X001214649Y003614751D01*
X001244679Y003614751D02*
X001264634Y003614751D01*
X001269672Y003614751D02*
X001289627Y003614751D01*
X001319657Y003614751D02*
X001339613Y003614751D01*
X001349649Y003614751D02*
X001369604Y003614751D01*
X001394636Y003614751D02*
X001414591Y003614751D01*
X001414630Y003614751D02*
X001464576Y003614751D01*
X001464616Y003614751D02*
X001484571Y003614751D01*
X001524598Y003614751D02*
X001544553Y003614751D01*
X001554590Y003614751D02*
X001574545Y003614751D01*
X001604575Y003614751D02*
X001624530Y003614751D01*
X001699548Y003614751D02*
X001719503Y003614751D01*
X001754532Y003614751D02*
X001774487Y003614751D01*
X001774526Y003614751D02*
X001794481Y003614751D01*
X001829510Y003614751D02*
X001849465Y003614751D01*
X001889493Y003614751D02*
X001919445Y003614751D01*
X001934480Y003614751D02*
X001954435Y003614751D01*
X001984465Y003614751D02*
X002004421Y003614751D01*
X002014457Y003614751D02*
X002034412Y003614751D01*
X002064442Y003614751D02*
X002084397Y003614751D01*
X002079438Y003614751D02*
X002099393Y003614751D01*
X002129424Y003614751D02*
X002149379Y003614751D01*
X002204402Y003614751D02*
X002224357Y003614751D01*
X002259386Y003614751D02*
X002279341Y003614751D01*
X002279380Y003614751D02*
X002299335Y003614751D01*
X002339363Y003614751D02*
X002359318Y003614751D01*
X002469325Y003614751D02*
X002489281Y003614751D01*
X002519311Y003614751D02*
X002539266Y003614751D01*
X002694260Y003614751D02*
X002724213Y003614751D01*
X002734249Y003614751D02*
X002749205Y003614751D01*
X002759242Y003614751D02*
X002779197Y003614751D01*
X002784234Y003614751D02*
X002814187Y003614751D01*
X002809227Y003614751D02*
X002829182Y003614751D01*
X002859213Y003614751D02*
X002879168Y003614751D01*
X002879207Y003614751D02*
X002894164Y003614751D01*
X002904200Y003614751D02*
X002929153Y003614751D01*
X002964182Y003614751D02*
X002989136Y003614751D01*
X003024165Y003614751D02*
X003044120Y003614751D01*
X003049158Y003614751D02*
X003064115Y003614751D01*
X003059155Y003614751D02*
X003409015Y003614751D01*
X003464038Y003614751D02*
X003598960Y003614751D01*
X003603998Y003614751D02*
X003623953Y003614751D01*
X003693972Y003614751D02*
X003738920Y003614751D01*
X000105008Y003619748D02*
X000159953Y003619748D01*
X000154994Y003619748D02*
X000174949Y003619748D01*
X000214976Y003619748D02*
X000239930Y003619748D01*
X000234971Y003619748D02*
X000289916Y003619748D01*
X000324945Y003619748D02*
X000359896Y003619748D01*
X000414919Y003619748D02*
X000739786Y003619748D01*
X000769816Y003619748D02*
X000794770Y003619748D01*
X000944766Y003619748D02*
X000959722Y003619748D01*
X000994751Y003619748D02*
X001014706Y003619748D01*
X001069730Y003619748D02*
X001094683Y003619748D01*
X001089724Y003619748D02*
X001114678Y003619748D01*
X001119715Y003619748D02*
X001134672Y003619748D01*
X001169701Y003619748D02*
X001189656Y003619748D01*
X001199692Y003619748D02*
X001214649Y003619748D01*
X001244679Y003619748D02*
X001264634Y003619748D01*
X001274670Y003619748D02*
X001289627Y003619748D01*
X001319657Y003619748D02*
X001339613Y003619748D01*
X001354647Y003619748D02*
X001369604Y003619748D01*
X001394636Y003619748D02*
X001414591Y003619748D01*
X001414630Y003619748D02*
X001464576Y003619748D01*
X001469614Y003619748D02*
X001484571Y003619748D01*
X001524598Y003619748D02*
X001544553Y003619748D01*
X001559588Y003619748D02*
X001574545Y003619748D01*
X001604575Y003619748D02*
X001624530Y003619748D01*
X001704546Y003619748D02*
X001719503Y003619748D01*
X001754532Y003619748D02*
X001774487Y003619748D01*
X001779525Y003619748D02*
X001794481Y003619748D01*
X001829510Y003619748D02*
X001849465Y003619748D01*
X001889493Y003619748D02*
X001919445Y003619748D01*
X001939478Y003619748D02*
X001954435Y003619748D01*
X001984465Y003619748D02*
X002004421Y003619748D01*
X002019455Y003619748D02*
X002034412Y003619748D01*
X002064442Y003619748D02*
X002084397Y003619748D01*
X002084437Y003619748D02*
X002099393Y003619748D01*
X002129424Y003619748D02*
X002149379Y003619748D01*
X002204402Y003619748D02*
X002224357Y003619748D01*
X002259386Y003619748D02*
X002279341Y003619748D01*
X002284379Y003619748D02*
X002299335Y003619748D01*
X002339363Y003619748D02*
X002359318Y003619748D01*
X002474324Y003619748D02*
X002489281Y003619748D01*
X002519311Y003619748D02*
X002539266Y003619748D01*
X002694260Y003619748D02*
X002719214Y003619748D01*
X002759242Y003619748D02*
X002784195Y003619748D01*
X002789233Y003619748D02*
X002814187Y003619748D01*
X002809227Y003619748D02*
X002829182Y003619748D01*
X002859213Y003619748D02*
X002879168Y003619748D01*
X002879207Y003619748D02*
X002894164Y003619748D01*
X002914197Y003619748D02*
X002929153Y003619748D01*
X002974180Y003619748D02*
X002989136Y003619748D01*
X003019167Y003619748D02*
X003044120Y003619748D01*
X003069152Y003619748D02*
X003409015Y003619748D01*
X003469037Y003619748D02*
X003608957Y003619748D01*
X003613995Y003619748D02*
X003633950Y003619748D01*
X003688973Y003619748D02*
X003738920Y003619748D01*
X000105008Y003624744D02*
X000159953Y003624744D01*
X000154994Y003624744D02*
X000174949Y003624744D01*
X000214976Y003624744D02*
X000284917Y003624744D01*
X000329943Y003624744D02*
X000354897Y003624744D01*
X000414919Y003624744D02*
X000724790Y003624744D01*
X000774815Y003624744D02*
X000794770Y003624744D01*
X000944766Y003624744D02*
X000959722Y003624744D01*
X000989753Y003624744D02*
X001009708Y003624744D01*
X001069730Y003624744D02*
X001089685Y003624744D01*
X001094722Y003624744D02*
X001114678Y003624744D01*
X001119715Y003624744D02*
X001134672Y003624744D01*
X001164702Y003624744D02*
X001189656Y003624744D01*
X001199692Y003624744D02*
X001214649Y003624744D01*
X001239681Y003624744D02*
X001259636Y003624744D01*
X001274670Y003624744D02*
X001289627Y003624744D01*
X001314659Y003624744D02*
X001334614Y003624744D01*
X001354647Y003624744D02*
X001369604Y003624744D01*
X001389637Y003624744D02*
X001409592Y003624744D01*
X001414630Y003624744D02*
X001444582Y003624744D01*
X001444621Y003624744D02*
X001464576Y003624744D01*
X001469614Y003624744D02*
X001484571Y003624744D01*
X001519600Y003624744D02*
X001539555Y003624744D01*
X001559588Y003624744D02*
X001574545Y003624744D01*
X001599577Y003624744D02*
X001619532Y003624744D01*
X001704546Y003624744D02*
X001719503Y003624744D01*
X001749533Y003624744D02*
X001769488Y003624744D01*
X001779525Y003624744D02*
X001794481Y003624744D01*
X001824512Y003624744D02*
X001844467Y003624744D01*
X001889493Y003624744D02*
X001919445Y003624744D01*
X001939478Y003624744D02*
X001954435Y003624744D01*
X001979467Y003624744D02*
X001999422Y003624744D01*
X002019455Y003624744D02*
X002034412Y003624744D01*
X002059444Y003624744D02*
X002084397Y003624744D01*
X002084437Y003624744D02*
X002099393Y003624744D01*
X002124425Y003624744D02*
X002144380Y003624744D01*
X002209400Y003624744D02*
X002224357Y003624744D01*
X002254387Y003624744D02*
X002274343Y003624744D01*
X002284379Y003624744D02*
X002299335Y003624744D01*
X002334364Y003624744D02*
X002359318Y003624744D01*
X002474324Y003624744D02*
X002489281Y003624744D01*
X002514312Y003624744D02*
X002534268Y003624744D01*
X002694260Y003624744D02*
X002714216Y003624744D01*
X002729250Y003624744D02*
X002744207Y003624744D01*
X002764240Y003624744D02*
X002789194Y003624744D01*
X002794232Y003624744D02*
X002814187Y003624744D01*
X002814226Y003624744D02*
X002829182Y003624744D01*
X002854214Y003624744D02*
X002879168Y003624744D01*
X002884206Y003624744D02*
X002899162Y003624744D01*
X002924194Y003624744D02*
X002974140Y003624744D01*
X002979178Y003624744D02*
X002994135Y003624744D01*
X003019167Y003624744D02*
X003039122Y003624744D01*
X003084148Y003624744D02*
X003409015Y003624744D01*
X003474035Y003624744D02*
X003618954Y003624744D01*
X003623992Y003624744D02*
X003643947Y003624744D01*
X003683975Y003624744D02*
X003738920Y003624744D01*
X000110007Y003629740D02*
X000159953Y003629740D01*
X000159992Y003629740D02*
X000179948Y003629740D01*
X000214976Y003629740D02*
X000279919Y003629740D01*
X000334942Y003629740D02*
X000349898Y003629740D01*
X000414919Y003629740D02*
X000719792Y003629740D01*
X000774815Y003629740D02*
X000794770Y003629740D01*
X000944766Y003629740D02*
X000964721Y003629740D01*
X000989753Y003629740D02*
X001009708Y003629740D01*
X001064731Y003629740D02*
X001089685Y003629740D01*
X001094722Y003629740D02*
X001114678Y003629740D01*
X001119715Y003629740D02*
X001139670Y003629740D01*
X001164702Y003629740D02*
X001184657Y003629740D01*
X001179698Y003629740D02*
X001194654Y003629740D01*
X001199692Y003629740D02*
X001219647Y003629740D01*
X001239681Y003629740D02*
X001259636Y003629740D01*
X001274670Y003629740D02*
X001294626Y003629740D01*
X001314659Y003629740D02*
X001334614Y003629740D01*
X001334653Y003629740D02*
X001349610Y003629740D01*
X001354647Y003629740D02*
X001374602Y003629740D01*
X001389637Y003629740D02*
X001409592Y003629740D01*
X001409631Y003629740D02*
X001444582Y003629740D01*
X001444621Y003629740D02*
X001464576Y003629740D01*
X001469614Y003629740D02*
X001489569Y003629740D01*
X001519600Y003629740D02*
X001539555Y003629740D01*
X001539594Y003629740D02*
X001554551Y003629740D01*
X001559588Y003629740D02*
X001579543Y003629740D01*
X001599577Y003629740D02*
X001619532Y003629740D01*
X001704546Y003629740D02*
X001724501Y003629740D01*
X001749533Y003629740D02*
X001769488Y003629740D01*
X001779525Y003629740D02*
X001799480Y003629740D01*
X001824512Y003629740D02*
X001844467Y003629740D01*
X001884494Y003629740D02*
X001919445Y003629740D01*
X001939478Y003629740D02*
X001959434Y003629740D01*
X001979467Y003629740D02*
X001999422Y003629740D01*
X002019455Y003629740D02*
X002039410Y003629740D01*
X002059444Y003629740D02*
X002079399Y003629740D01*
X002084437Y003629740D02*
X002104392Y003629740D01*
X002124425Y003629740D02*
X002144380Y003629740D01*
X002209400Y003629740D02*
X002229356Y003629740D01*
X002254387Y003629740D02*
X002274343Y003629740D01*
X002284379Y003629740D02*
X002304334Y003629740D01*
X002334364Y003629740D02*
X002354320Y003629740D01*
X002349360Y003629740D02*
X002364317Y003629740D01*
X002474324Y003629740D02*
X002494279Y003629740D01*
X002514312Y003629740D02*
X002534268Y003629740D01*
X002689262Y003629740D02*
X002714216Y003629740D01*
X002764240Y003629740D02*
X002794192Y003629740D01*
X002794232Y003629740D02*
X002814187Y003629740D01*
X002814226Y003629740D02*
X002834181Y003629740D01*
X002854214Y003629740D02*
X002884166Y003629740D01*
X002884206Y003629740D02*
X002899162Y003629740D01*
X002914197Y003629740D02*
X002929153Y003629740D01*
X002969181Y003629740D02*
X002984138Y003629740D01*
X002984177Y003629740D02*
X002999133Y003629740D01*
X003014168Y003629740D02*
X003034123Y003629740D01*
X003084148Y003629740D02*
X003099104Y003629740D01*
X003094145Y003629740D02*
X003409015Y003629740D01*
X003479034Y003629740D02*
X003628951Y003629740D01*
X003633989Y003629740D02*
X003653944Y003629740D01*
X003678976Y003629740D02*
X003743918Y003629740D01*
X000115005Y003634736D02*
X000164952Y003634736D01*
X000159992Y003634736D02*
X000179948Y003634736D01*
X000214976Y003634736D02*
X000234932Y003634736D01*
X000229972Y003634736D02*
X000274920Y003634736D01*
X000409920Y003634736D02*
X000709794Y003634736D01*
X000779813Y003634736D02*
X000799769Y003634736D01*
X000944766Y003634736D02*
X000964721Y003634736D01*
X000989753Y003634736D02*
X001009708Y003634736D01*
X001064731Y003634736D02*
X001084686Y003634736D01*
X001089724Y003634736D02*
X001104680Y003634736D01*
X001099721Y003634736D02*
X001119676Y003634736D01*
X001119715Y003634736D02*
X001139670Y003634736D01*
X001164702Y003634736D02*
X001184657Y003634736D01*
X001179698Y003634736D02*
X001199653Y003634736D01*
X001199692Y003634736D02*
X001219647Y003634736D01*
X001239681Y003634736D02*
X001259636Y003634736D01*
X001274670Y003634736D02*
X001294626Y003634736D01*
X001314659Y003634736D02*
X001334614Y003634736D01*
X001334653Y003634736D02*
X001354608Y003634736D01*
X001354647Y003634736D02*
X001374602Y003634736D01*
X001389637Y003634736D02*
X001409592Y003634736D01*
X001409631Y003634736D02*
X001444582Y003634736D01*
X001439623Y003634736D02*
X001454579Y003634736D01*
X001449620Y003634736D02*
X001469575Y003634736D01*
X001469614Y003634736D02*
X001489569Y003634736D01*
X001519600Y003634736D02*
X001539555Y003634736D01*
X001539594Y003634736D02*
X001559549Y003634736D01*
X001559588Y003634736D02*
X001579543Y003634736D01*
X001599577Y003634736D02*
X001619532Y003634736D01*
X001704546Y003634736D02*
X001724501Y003634736D01*
X001749533Y003634736D02*
X001769488Y003634736D01*
X001779525Y003634736D02*
X001799480Y003634736D01*
X001824512Y003634736D02*
X001844467Y003634736D01*
X001884494Y003634736D02*
X001924444Y003634736D01*
X001939478Y003634736D02*
X001959434Y003634736D01*
X001979467Y003634736D02*
X001999422Y003634736D01*
X002019455Y003634736D02*
X002039410Y003634736D01*
X002059444Y003634736D02*
X002079399Y003634736D01*
X002084437Y003634736D02*
X002104392Y003634736D01*
X002124425Y003634736D02*
X002144380Y003634736D01*
X002209400Y003634736D02*
X002229356Y003634736D01*
X002254387Y003634736D02*
X002274343Y003634736D01*
X002284379Y003634736D02*
X002304334Y003634736D01*
X002334364Y003634736D02*
X002354320Y003634736D01*
X002349360Y003634736D02*
X002364317Y003634736D01*
X002359357Y003634736D02*
X002374314Y003634736D01*
X002474324Y003634736D02*
X002494279Y003634736D01*
X002514312Y003634736D02*
X002534268Y003634736D01*
X002689262Y003634736D02*
X002709217Y003634736D01*
X002764240Y003634736D02*
X002794192Y003634736D01*
X002799230Y003634736D02*
X002819185Y003634736D01*
X002814226Y003634736D02*
X002834181Y003634736D01*
X002854214Y003634736D02*
X002884166Y003634736D01*
X002889204Y003634736D02*
X002904161Y003634736D01*
X002909198Y003634736D02*
X002924155Y003634736D01*
X002989175Y003634736D02*
X003004132Y003634736D01*
X003009169Y003634736D02*
X003034123Y003634736D01*
X003104142Y003634736D02*
X003414013Y003634736D01*
X003484032Y003634736D02*
X003638948Y003634736D01*
X003643986Y003634736D02*
X003663941Y003634736D01*
X003673977Y003634736D02*
X003743918Y003634736D01*
X000120004Y003639732D02*
X000164952Y003639732D01*
X000159992Y003639732D02*
X000179948Y003639732D01*
X000209978Y003639732D02*
X000234932Y003639732D01*
X000229972Y003639732D02*
X000274920Y003639732D01*
X000409920Y003639732D02*
X000699797Y003639732D01*
X000784812Y003639732D02*
X000799769Y003639732D01*
X000949764Y003639732D02*
X000964721Y003639732D01*
X000989753Y003639732D02*
X001004709Y003639732D01*
X001064731Y003639732D02*
X001079688Y003639732D01*
X001084725Y003639732D02*
X001104680Y003639732D01*
X001104719Y003639732D02*
X001119676Y003639732D01*
X001124714Y003639732D02*
X001139670Y003639732D01*
X001164702Y003639732D02*
X001179659Y003639732D01*
X001179698Y003639732D02*
X001199653Y003639732D01*
X001204691Y003639732D02*
X001219647Y003639732D01*
X001239681Y003639732D02*
X001254637Y003639732D01*
X001279669Y003639732D02*
X001294626Y003639732D01*
X001314659Y003639732D02*
X001329615Y003639732D01*
X001334653Y003639732D02*
X001354608Y003639732D01*
X001359646Y003639732D02*
X001374602Y003639732D01*
X001389637Y003639732D02*
X001404594Y003639732D01*
X001409631Y003639732D02*
X001444582Y003639732D01*
X001439623Y003639732D02*
X001454579Y003639732D01*
X001454618Y003639732D02*
X001469575Y003639732D01*
X001474613Y003639732D02*
X001489569Y003639732D01*
X001519600Y003639732D02*
X001534556Y003639732D01*
X001539594Y003639732D02*
X001559549Y003639732D01*
X001564587Y003639732D02*
X001579543Y003639732D01*
X001599577Y003639732D02*
X001614533Y003639732D01*
X001709545Y003639732D02*
X001724501Y003639732D01*
X001749533Y003639732D02*
X001764490Y003639732D01*
X001784523Y003639732D02*
X001799480Y003639732D01*
X001824512Y003639732D02*
X001839468Y003639732D01*
X001884494Y003639732D02*
X001924444Y003639732D01*
X001944477Y003639732D02*
X001959434Y003639732D01*
X001979467Y003639732D02*
X001994423Y003639732D01*
X002024454Y003639732D02*
X002039410Y003639732D01*
X002059444Y003639732D02*
X002074400Y003639732D01*
X002089435Y003639732D02*
X002104392Y003639732D01*
X002124425Y003639732D02*
X002139382Y003639732D01*
X002214399Y003639732D02*
X002229356Y003639732D01*
X002254387Y003639732D02*
X002269344Y003639732D01*
X002289377Y003639732D02*
X002304334Y003639732D01*
X002334364Y003639732D02*
X002349321Y003639732D01*
X002349360Y003639732D02*
X002364317Y003639732D01*
X002359357Y003639732D02*
X002374314Y003639732D01*
X002479322Y003639732D02*
X002494279Y003639732D01*
X002514312Y003639732D02*
X002529269Y003639732D01*
X002689262Y003639732D02*
X002704218Y003639732D01*
X002724252Y003639732D02*
X002739208Y003639732D01*
X002769239Y003639732D02*
X002799191Y003639732D01*
X002804229Y003639732D02*
X002819185Y003639732D01*
X002819224Y003639732D02*
X002834181Y003639732D01*
X002854214Y003639732D02*
X002869171Y003639732D01*
X002869210Y003639732D02*
X002884166Y003639732D01*
X002889204Y003639732D02*
X002904161Y003639732D01*
X002904200Y003639732D02*
X002919156Y003639732D01*
X002994174Y003639732D02*
X003009130Y003639732D01*
X003004171Y003639732D02*
X003029125Y003639732D01*
X003114139Y003639732D02*
X003414013Y003639732D01*
X003489031Y003639732D02*
X003648946Y003639732D01*
X003653983Y003639732D02*
X003673938Y003639732D01*
X003668979Y003639732D02*
X003743918Y003639732D01*
X000125002Y003644729D02*
X000164952Y003644729D01*
X000164991Y003644729D02*
X000184946Y003644729D01*
X000209978Y003644729D02*
X000269922Y003644729D01*
X000344939Y003644729D02*
X000359896Y003644729D01*
X000409920Y003644729D02*
X000714793Y003644729D01*
X000949764Y003644729D02*
X000964721Y003644729D01*
X001064731Y003644729D02*
X001079688Y003644729D01*
X001084725Y003644729D02*
X001109679Y003644729D01*
X001124714Y003644729D02*
X001139670Y003644729D01*
X001179698Y003644729D02*
X001199653Y003644729D01*
X001204691Y003644729D02*
X001219647Y003644729D01*
X001279669Y003644729D02*
X001294626Y003644729D01*
X001334653Y003644729D02*
X001354608Y003644729D01*
X001359646Y003644729D02*
X001374602Y003644729D01*
X001409631Y003644729D02*
X001444582Y003644729D01*
X001439623Y003644729D02*
X001459578Y003644729D01*
X001474613Y003644729D02*
X001489569Y003644729D01*
X001539594Y003644729D02*
X001559549Y003644729D01*
X001564587Y003644729D02*
X001579543Y003644729D01*
X001709545Y003644729D02*
X001724501Y003644729D01*
X001784523Y003644729D02*
X001799480Y003644729D01*
X001884494Y003644729D02*
X001924444Y003644729D01*
X001944477Y003644729D02*
X001959434Y003644729D01*
X002024454Y003644729D02*
X002039410Y003644729D01*
X002089435Y003644729D02*
X002104392Y003644729D01*
X002214399Y003644729D02*
X002229356Y003644729D01*
X002289377Y003644729D02*
X002304334Y003644729D01*
X002349360Y003644729D02*
X002364317Y003644729D01*
X002479322Y003644729D02*
X002494279Y003644729D01*
X002689262Y003644729D02*
X002704218Y003644729D01*
X002769239Y003644729D02*
X002799191Y003644729D01*
X002819224Y003644729D02*
X002834181Y003644729D01*
X002869210Y003644729D02*
X002884166Y003644729D01*
X002999172Y003644729D02*
X003024126Y003644729D01*
X003114139Y003644729D02*
X003414013Y003644729D01*
X003494029Y003644729D02*
X003658943Y003644729D01*
X003663980Y003644729D02*
X003748917Y003644729D01*
X000125002Y003649725D02*
X000169950Y003649725D01*
X000164991Y003649725D02*
X000184946Y003649725D01*
X000209978Y003649725D02*
X000229933Y003649725D01*
X000224974Y003649725D02*
X000264923Y003649725D01*
X000349937Y003649725D02*
X000364894Y003649725D01*
X000409920Y003649725D02*
X000729789Y003649725D01*
X000959761Y003649725D02*
X000999711Y003649725D01*
X001069730Y003649725D02*
X001084686Y003649725D01*
X001089724Y003649725D02*
X001114678Y003649725D01*
X001134711Y003649725D02*
X001174660Y003649725D01*
X001184696Y003649725D02*
X001199653Y003649725D01*
X001214688Y003649725D02*
X001249639Y003649725D01*
X001289666Y003649725D02*
X001324617Y003649725D01*
X001339652Y003649725D02*
X001354608Y003649725D01*
X001369643Y003649725D02*
X001399595Y003649725D01*
X001419629Y003649725D02*
X001444582Y003649725D01*
X001439623Y003649725D02*
X001464576Y003649725D01*
X001484610Y003649725D02*
X001529558Y003649725D01*
X001544592Y003649725D02*
X001559549Y003649725D01*
X001574584Y003649725D02*
X001609535Y003649725D01*
X001719542Y003649725D02*
X001759491Y003649725D01*
X001794520Y003649725D02*
X001834470Y003649725D01*
X001894491Y003649725D02*
X001909448Y003649725D01*
X001909487Y003649725D02*
X001924444Y003649725D01*
X001954474Y003649725D02*
X001989425Y003649725D01*
X002034451Y003649725D02*
X002069402Y003649725D01*
X002099432Y003649725D02*
X002134383Y003649725D01*
X002224396Y003649725D02*
X002264345Y003649725D01*
X002299374Y003649725D02*
X002344322Y003649725D01*
X002489320Y003649725D02*
X002524270Y003649725D01*
X002694260Y003649725D02*
X002709217Y003649725D01*
X002719253Y003649725D02*
X002734210Y003649725D01*
X002769239Y003649725D02*
X002784195Y003649725D01*
X002779236Y003649725D02*
X002804190Y003649725D01*
X002829221Y003649725D02*
X002864172Y003649725D01*
X002879207Y003649725D02*
X002909159Y003649725D01*
X003009169Y003649725D02*
X003024126Y003649725D01*
X003129135Y003649725D02*
X003414013Y003649725D01*
X003499028Y003649725D02*
X003748917Y003649725D01*
X000130001Y003654721D02*
X000169950Y003654721D01*
X000164991Y003654721D02*
X000184946Y003654721D01*
X000209978Y003654721D02*
X000229933Y003654721D01*
X000224974Y003654721D02*
X000264923Y003654721D01*
X000354936Y003654721D02*
X000369893Y003654721D01*
X000409920Y003654721D02*
X000744784Y003654721D01*
X000794809Y003654721D02*
X000814764Y003654721D01*
X000924771Y003654721D02*
X000939728Y003654721D01*
X000939767Y003654721D02*
X000954724Y003654721D01*
X000999750Y003654721D02*
X001029702Y003654721D01*
X001059732Y003654721D02*
X001074689Y003654721D01*
X001074728Y003654721D02*
X001089685Y003654721D01*
X001099721Y003654721D02*
X001114678Y003654721D01*
X001114717Y003654721D02*
X001134672Y003654721D01*
X001169701Y003654721D02*
X001189656Y003654721D01*
X001194694Y003654721D02*
X001209650Y003654721D01*
X001249678Y003654721D02*
X001269633Y003654721D01*
X001269672Y003654721D02*
X001289627Y003654721D01*
X001324656Y003654721D02*
X001344611Y003654721D01*
X001349649Y003654721D02*
X001364605Y003654721D01*
X001404633Y003654721D02*
X001419589Y003654721D01*
X001429626Y003654721D02*
X001444582Y003654721D01*
X001449620Y003654721D02*
X001464576Y003654721D01*
X001464616Y003654721D02*
X001484571Y003654721D01*
X001529597Y003654721D02*
X001549552Y003654721D01*
X001554590Y003654721D02*
X001569546Y003654721D01*
X001609574Y003654721D02*
X001629529Y003654721D01*
X001659559Y003654721D02*
X001674516Y003654721D01*
X001704546Y003654721D02*
X001719503Y003654721D01*
X001759530Y003654721D02*
X001779486Y003654721D01*
X001774526Y003654721D02*
X001794481Y003654721D01*
X001829510Y003654721D02*
X001849465Y003654721D01*
X001879496Y003654721D02*
X001894452Y003654721D01*
X001919484Y003654721D02*
X001934441Y003654721D01*
X001989464Y003654721D02*
X002009419Y003654721D01*
X002009458Y003654721D02*
X002029413Y003654721D01*
X002069441Y003654721D02*
X002084397Y003654721D01*
X002079438Y003654721D02*
X002099393Y003654721D01*
X002194405Y003654721D02*
X002209361Y003654721D01*
X002209400Y003654721D02*
X002229356Y003654721D01*
X002284379Y003654721D02*
X002299335Y003654721D01*
X002339363Y003654721D02*
X002359318Y003654721D01*
X002369354Y003654721D02*
X002389309Y003654721D01*
X002469325Y003654721D02*
X002489281Y003654721D01*
X002524309Y003654721D02*
X002539266Y003654721D01*
X002624281Y003654721D02*
X002639237Y003654721D01*
X002634278Y003654721D02*
X002654233Y003654721D01*
X002679265Y003654721D02*
X002699220Y003654721D01*
X002699259Y003654721D02*
X002714216Y003654721D01*
X002774237Y003654721D02*
X002789194Y003654721D01*
X002784234Y003654721D02*
X002809188Y003654721D01*
X002814226Y003654721D02*
X002834181Y003654721D01*
X002864211Y003654721D02*
X002879168Y003654721D01*
X002994174Y003654721D02*
X003009130Y003654721D01*
X003014168Y003654721D02*
X003029125Y003654721D01*
X003134133Y003654721D02*
X003414013Y003654721D01*
X003504027Y003654721D02*
X003663941Y003654721D01*
X003658982Y003654721D02*
X003748917Y003654721D01*
X000135000Y003659717D02*
X000169950Y003659717D01*
X000169989Y003659717D02*
X000184946Y003659717D01*
X000204979Y003659717D02*
X000229933Y003659717D01*
X000224974Y003659717D02*
X000259924Y003659717D01*
X000359935Y003659717D02*
X000374891Y003659717D01*
X000409920Y003659717D02*
X000669806Y003659717D01*
X000664847Y003659717D02*
X000709794Y003659717D01*
X000704835Y003659717D02*
X000754781Y003659717D01*
X000789810Y003659717D02*
X000804767Y003659717D01*
X001079727Y003659717D02*
X001094683Y003659717D01*
X001109718Y003659717D02*
X001124675Y003659717D01*
X001184696Y003659717D02*
X001199653Y003659717D01*
X001264673Y003659717D02*
X001279630Y003659717D01*
X001339652Y003659717D02*
X001354608Y003659717D01*
X001414630Y003659717D02*
X001429587Y003659717D01*
X001544592Y003659717D02*
X001559549Y003659717D01*
X001889493Y003659717D02*
X001904449Y003659717D01*
X001909487Y003659717D02*
X001924444Y003659717D01*
X002004460Y003659717D02*
X002019416Y003659717D01*
X002364356Y003659717D02*
X002379312Y003659717D01*
X002689262Y003659717D02*
X002704218Y003659717D01*
X002704258Y003659717D02*
X002719214Y003659717D01*
X002774237Y003659717D02*
X002789194Y003659717D01*
X002794232Y003659717D02*
X002809188Y003659717D01*
X003004171Y003659717D02*
X003019127Y003659717D01*
X003019167Y003659717D02*
X003034123Y003659717D01*
X003134133Y003659717D02*
X003149090Y003659717D01*
X003144130Y003659717D02*
X003419012Y003659717D01*
X003509025Y003659717D02*
X003658943Y003659717D01*
X003653983Y003659717D02*
X003753915Y003659717D01*
X000139998Y003664714D02*
X000169950Y003664714D01*
X000169989Y003664714D02*
X000189945Y003664714D01*
X000204979Y003664714D02*
X000224935Y003664714D01*
X000219975Y003664714D02*
X000254926Y003664714D01*
X000359935Y003664714D02*
X000379890Y003664714D01*
X000409920Y003664714D02*
X000724790Y003664714D01*
X000724829Y003664714D02*
X000769777Y003664714D01*
X001099721Y003664714D02*
X001114678Y003664714D01*
X001424627Y003664714D02*
X001439584Y003664714D01*
X001449620Y003664714D02*
X001464576Y003664714D01*
X001894491Y003664714D02*
X001909448Y003664714D01*
X001904488Y003664714D02*
X001919445Y003664714D01*
X002709256Y003664714D02*
X002724213Y003664714D01*
X002719253Y003664714D02*
X002734210Y003664714D01*
X002784234Y003664714D02*
X002799191Y003664714D01*
X003009169Y003664714D02*
X003024126Y003664714D01*
X003024165Y003664714D02*
X003039122Y003664714D01*
X003069152Y003664714D02*
X003084109Y003664714D01*
X003124136Y003664714D02*
X003154089Y003664714D01*
X003149129Y003664714D02*
X003419012Y003664714D01*
X003514024Y003664714D02*
X003653944Y003664714D01*
X003648985Y003664714D02*
X003753915Y003664714D01*
X000139998Y003669710D02*
X000174949Y003669710D01*
X000169989Y003669710D02*
X000189945Y003669710D01*
X000204979Y003669710D02*
X000224935Y003669710D01*
X000219975Y003669710D02*
X000254926Y003669710D01*
X000364933Y003669710D02*
X000379890Y003669710D01*
X000404922Y003669710D02*
X000659809Y003669710D01*
X000654849Y003669710D02*
X000739786Y003669710D01*
X000739825Y003669710D02*
X000779774Y003669710D01*
X000779813Y003669710D02*
X000794770Y003669710D01*
X001094722Y003669710D02*
X001109679Y003669710D01*
X001429626Y003669710D02*
X001444582Y003669710D01*
X001899490Y003669710D02*
X001914447Y003669710D01*
X002714255Y003669710D02*
X002734210Y003669710D01*
X003029164Y003669710D02*
X003044120Y003669710D01*
X003059155Y003669710D02*
X003079110Y003669710D01*
X003114139Y003669710D02*
X003164086Y003669710D01*
X003159126Y003669710D02*
X003419012Y003669710D01*
X003519022Y003669710D02*
X003648946Y003669710D01*
X003648985Y003669710D02*
X003753915Y003669710D01*
X000144997Y003674706D02*
X000174949Y003674706D01*
X000174988Y003674706D02*
X000189945Y003674706D01*
X000204979Y003674706D02*
X000219936Y003674706D01*
X000219975Y003674706D02*
X000249927Y003674706D01*
X000404922Y003674706D02*
X000654810Y003674706D01*
X000649851Y003674706D02*
X000749783Y003674706D01*
X000754821Y003674706D02*
X000774776Y003674706D01*
X001434624Y003674706D02*
X001449581Y003674706D01*
X002719253Y003674706D02*
X002734210Y003674706D01*
X003034162Y003674706D02*
X003049119Y003674706D01*
X003049158Y003674706D02*
X003069113Y003674706D01*
X003074151Y003674706D02*
X003089107Y003674706D01*
X003104142Y003674706D02*
X003169084Y003674706D01*
X003164125Y003674706D02*
X003419012Y003674706D01*
X003519022Y003674706D02*
X003638948Y003674706D01*
X003633989Y003674706D02*
X003653944Y003674706D01*
X003653983Y003674706D02*
X003753915Y003674706D01*
X000149995Y003679702D02*
X000174949Y003679702D01*
X000174988Y003679702D02*
X000189945Y003679702D01*
X000219975Y003679702D02*
X000244929Y003679702D01*
X000354936Y003679702D02*
X000384888Y003679702D01*
X000404922Y003679702D02*
X000649812Y003679702D01*
X000644852Y003679702D02*
X000764779Y003679702D01*
X002729250Y003679702D02*
X002789194Y003679702D01*
X003039161Y003679702D02*
X003059116Y003679702D01*
X003064154Y003679702D02*
X003084109Y003679702D01*
X003094145Y003679702D02*
X003424011Y003679702D01*
X003524021Y003679702D02*
X003628951Y003679702D01*
X003623992Y003679702D02*
X003638948Y003679702D01*
X003643986Y003679702D02*
X003658943Y003679702D01*
X003653983Y003679702D02*
X003758914Y003679702D01*
X000070018Y003684698D02*
X000084975Y003684698D01*
X000159992Y003684698D02*
X000174949Y003684698D01*
X000184985Y003684698D02*
X000214937Y003684698D01*
X000229972Y003684698D02*
X000244929Y003684698D01*
X000344939Y003684698D02*
X000389887Y003684698D01*
X000404922Y003684698D02*
X000644813Y003684698D01*
X000639854Y003684698D02*
X000774776Y003684698D01*
X002714255Y003684698D02*
X002729211Y003684698D01*
X003054156Y003684698D02*
X003074112Y003684698D01*
X003079149Y003684698D02*
X003424011Y003684698D01*
X003529019Y003684698D02*
X003618954Y003684698D01*
X003613995Y003684698D02*
X003628951Y003684698D01*
X003643986Y003684698D02*
X003658943Y003684698D01*
X003658982Y003684698D02*
X003758914Y003684698D01*
X000169989Y003689695D02*
X000184946Y003689695D01*
X000214976Y003689695D02*
X000229933Y003689695D01*
X000234971Y003689695D02*
X000249927Y003689695D01*
X000279958Y003689695D02*
X000294914Y003689695D01*
X000334942Y003689695D02*
X000399884Y003689695D01*
X000404922Y003689695D02*
X000639815Y003689695D01*
X003044159Y003689695D02*
X003064115Y003689695D01*
X003069152Y003689695D02*
X003424011Y003689695D01*
X003534018Y003689695D02*
X003608957Y003689695D01*
X003603998Y003689695D02*
X003618954Y003689695D01*
X003643986Y003689695D02*
X003658943Y003689695D01*
X003663980Y003689695D02*
X003758914Y003689695D01*
X000159992Y003694691D02*
X000174949Y003694691D01*
X000224974Y003694691D02*
X000239930Y003694691D01*
X000239969Y003694691D02*
X000254926Y003694691D01*
X000269961Y003694691D02*
X000289916Y003694691D01*
X000324945Y003694691D02*
X000404883Y003694691D01*
X000404922Y003694691D02*
X000634816Y003694691D01*
X003059155Y003694691D02*
X003159087Y003694691D01*
X003184119Y003694691D02*
X003424011Y003694691D01*
X003539016Y003694691D02*
X003603959Y003694691D01*
X003648985Y003694691D02*
X003663941Y003694691D01*
X003668979Y003694691D02*
X003763912Y003694691D01*
X000070018Y003699687D02*
X000089974Y003699687D01*
X000229972Y003699687D02*
X000244929Y003699687D01*
X000244968Y003699687D02*
X000259924Y003699687D01*
X000259963Y003699687D02*
X000279919Y003699687D01*
X000284956Y003699687D02*
X000299913Y003699687D01*
X000314948Y003699687D02*
X000409881Y003699687D01*
X000404922Y003699687D02*
X000629818Y003699687D01*
X003049158Y003699687D02*
X003089107Y003699687D01*
X003194116Y003699687D02*
X003424011Y003699687D01*
X003544015Y003699687D02*
X003583964Y003699687D01*
X003648985Y003699687D02*
X003663941Y003699687D01*
X003668979Y003699687D02*
X003763912Y003699687D01*
X000070018Y003704683D02*
X000104969Y003704683D01*
X000120004Y003704683D02*
X000134961Y003704683D01*
X000234971Y003704683D02*
X000249927Y003704683D01*
X000249966Y003704683D02*
X000269922Y003704683D01*
X000274959Y003704683D02*
X000294914Y003704683D01*
X000304950Y003704683D02*
X000414880Y003704683D01*
X000409920Y003704683D02*
X000624819Y003704683D01*
X003199115Y003704683D02*
X003429009Y003704683D01*
X003549014Y003704683D02*
X003573967Y003704683D01*
X003569008Y003704683D02*
X003583964Y003704683D01*
X003673977Y003704683D02*
X003763912Y003704683D01*
X000070018Y003709679D02*
X000114966Y003709679D01*
X000125002Y003709679D02*
X000144958Y003709679D01*
X000264962Y003709679D02*
X000284917Y003709679D01*
X000289955Y003709679D02*
X000419878Y003709679D01*
X000414919Y003709679D02*
X000619820Y003709679D01*
X003204113Y003709679D02*
X003429009Y003709679D01*
X003549014Y003709679D02*
X003568969Y003709679D01*
X003653983Y003709679D02*
X003668940Y003709679D01*
X003678976Y003709679D02*
X003768911Y003709679D01*
X000070018Y003714676D02*
X000129962Y003714676D01*
X000254965Y003714676D02*
X000274920Y003714676D01*
X000279958Y003714676D02*
X000424877Y003714676D01*
X000419917Y003714676D02*
X000614822Y003714676D01*
X003209112Y003714676D02*
X003429009Y003714676D01*
X003534018Y003714676D02*
X003548974Y003714676D01*
X003544015Y003714676D02*
X003558972Y003714676D01*
X003653983Y003714676D02*
X003668940Y003714676D01*
X003683975Y003714676D02*
X003768911Y003714676D01*
X000070018Y003719672D02*
X000139959Y003719672D01*
X000269961Y003719672D02*
X000369893Y003719672D01*
X000424916Y003719672D02*
X000609823Y003719672D01*
X003214110Y003719672D02*
X003429009Y003719672D01*
X003519022Y003719672D02*
X003533979Y003719672D01*
X003529019Y003719672D02*
X003543976Y003719672D01*
X003688973Y003719672D02*
X003768911Y003719672D01*
X000259963Y003724668D02*
X000299913Y003724668D01*
X000429914Y003724668D02*
X000604825Y003724668D01*
X003219109Y003724668D02*
X003429009Y003724668D01*
X003504027Y003724668D02*
X003528980Y003724668D01*
X003658982Y003724668D02*
X003673938Y003724668D01*
X003688973Y003724668D02*
X003773909Y003724668D01*
X000434913Y003729664D02*
X000599826Y003729664D01*
X003224107Y003729664D02*
X003434008Y003729664D01*
X003484032Y003729664D02*
X003508986Y003729664D01*
X003693972Y003729664D02*
X003773909Y003729664D01*
X000439912Y003734660D02*
X000594828Y003734660D01*
X003229106Y003734660D02*
X003434008Y003734660D01*
X003663980Y003734660D02*
X003678937Y003734660D01*
X003698970Y003734660D02*
X003773909Y003734660D01*
X000444910Y003739657D02*
X000589829Y003739657D01*
X003234104Y003739657D02*
X003419012Y003739657D01*
X003424050Y003739657D02*
X003444005Y003739657D01*
X003439045Y003739657D02*
X003454002Y003739657D01*
X003663980Y003739657D02*
X003678937Y003739657D01*
X003703969Y003739657D02*
X003773909Y003739657D01*
X003703969Y003744653D02*
X003778908Y003744653D01*
X003668979Y003749649D02*
X003683935Y003749649D01*
X003708967Y003749649D02*
X003778908Y003749649D01*
X003713966Y003754645D02*
X003778908Y003754645D01*
X000249966Y003759641D02*
X000264923Y003759641D01*
X003039161Y003759641D02*
X003054117Y003759641D01*
X003673977Y003759641D02*
X003688934Y003759641D01*
X003718964Y003759641D02*
X003783907Y003759641D01*
X000135000Y003764638D02*
X000149956Y003764638D01*
X000254965Y003764638D02*
X000274920Y003764638D01*
X003044159Y003764638D02*
X003064115Y003764638D01*
X003723963Y003764638D02*
X003783907Y003764638D01*
X000125002Y003769634D02*
X000144958Y003769634D01*
X000244968Y003769634D02*
X000259924Y003769634D01*
X000264962Y003769634D02*
X000284917Y003769634D01*
X003034162Y003769634D02*
X003049119Y003769634D01*
X003054156Y003769634D02*
X003074112Y003769634D01*
X003678976Y003769634D02*
X003693933Y003769634D01*
X003723963Y003769634D02*
X003783907Y003769634D01*
X000120004Y003774630D02*
X000134961Y003774630D01*
X000139998Y003774630D02*
X000154955Y003774630D01*
X000249966Y003774630D02*
X000269922Y003774630D01*
X000274959Y003774630D02*
X000294914Y003774630D01*
X000409920Y003774630D02*
X000424877Y003774630D01*
X003039161Y003774630D02*
X003059116Y003774630D01*
X003064154Y003774630D02*
X003084109Y003774630D01*
X003199115Y003774630D02*
X003214071Y003774630D01*
X003678976Y003774630D02*
X003693933Y003774630D01*
X003728962Y003774630D02*
X003788905Y003774630D01*
X000130001Y003779626D02*
X000144958Y003779626D01*
X000239969Y003779626D02*
X000254926Y003779626D01*
X000259963Y003779626D02*
X000279919Y003779626D01*
X000284956Y003779626D02*
X000304911Y003779626D01*
X000404922Y003779626D02*
X000419878Y003779626D01*
X002719253Y003779626D02*
X002739208Y003779626D01*
X003029164Y003779626D02*
X003044120Y003779626D01*
X003049158Y003779626D02*
X003069113Y003779626D01*
X003074151Y003779626D02*
X003094106Y003779626D01*
X003194116Y003779626D02*
X003209073Y003779626D01*
X003683975Y003779626D02*
X003698931Y003779626D01*
X003733960Y003779626D02*
X003788905Y003779626D01*
X000125002Y003784622D02*
X000149956Y003784622D01*
X000234971Y003784622D02*
X000264923Y003784622D01*
X000269961Y003784622D02*
X000289916Y003784622D01*
X000294953Y003784622D02*
X000314909Y003784622D01*
X002719253Y003784622D02*
X002779197Y003784622D01*
X002774237Y003784622D02*
X002789194Y003784622D01*
X003029164Y003784622D02*
X003054117Y003784622D01*
X003059155Y003784622D02*
X003079110Y003784622D01*
X003084148Y003784622D02*
X003104103Y003784622D01*
X003683975Y003784622D02*
X003698931Y003784622D01*
X003738959Y003784622D02*
X003788905Y003784622D01*
X000115005Y003789619D02*
X000154955Y003789619D01*
X000229972Y003789619D02*
X000274920Y003789619D01*
X000279958Y003789619D02*
X000299913Y003789619D01*
X000304950Y003789619D02*
X000324906Y003789619D01*
X000394924Y003789619D02*
X000409881Y003789619D01*
X002724252Y003789619D02*
X002784195Y003789619D01*
X003024165Y003789619D02*
X003064115Y003789619D01*
X003069152Y003789619D02*
X003089107Y003789619D01*
X003094145Y003789619D02*
X003114100Y003789619D01*
X003184119Y003789619D02*
X003199076Y003789619D01*
X003738959Y003789619D02*
X003793904Y003789619D01*
X000105008Y003794615D02*
X000159953Y003794615D01*
X000159992Y003794615D02*
X000174949Y003794615D01*
X000224974Y003794615D02*
X000284917Y003794615D01*
X000289955Y003794615D02*
X000309910Y003794615D01*
X000314948Y003794615D02*
X000334903Y003794615D01*
X002729250Y003794615D02*
X002769200Y003794615D01*
X002779236Y003794615D02*
X002794192Y003794615D01*
X003019167Y003794615D02*
X003074112Y003794615D01*
X003079149Y003794615D02*
X003099104Y003794615D01*
X003104142Y003794615D02*
X003124097Y003794615D01*
X003688973Y003794615D02*
X003703930Y003794615D01*
X003743957Y003794615D02*
X003793904Y003794615D01*
X000095011Y003799611D02*
X000164952Y003799611D01*
X000159992Y003799611D02*
X000174949Y003799611D01*
X000169989Y003799611D02*
X000184946Y003799611D01*
X000214976Y003799611D02*
X000234932Y003799611D01*
X000229972Y003799611D02*
X000294914Y003799611D01*
X000299952Y003799611D02*
X000319907Y003799611D01*
X000324945Y003799611D02*
X000344900Y003799611D01*
X000379929Y003799611D02*
X000394885Y003799611D01*
X000769816Y003799611D02*
X000784773Y003799611D01*
X002354359Y003799611D02*
X002369315Y003799611D01*
X002734249Y003799611D02*
X002769200Y003799611D01*
X002769239Y003799611D02*
X002789194Y003799611D01*
X003009169Y003799611D02*
X003084109Y003799611D01*
X003089146Y003799611D02*
X003109102Y003799611D01*
X003114139Y003799611D02*
X003134094Y003799611D01*
X003169123Y003799611D02*
X003184080Y003799611D01*
X003748956Y003799611D02*
X003793904Y003799611D01*
X000090013Y003804607D02*
X000164952Y003804607D01*
X000159992Y003804607D02*
X000174949Y003804607D01*
X000169989Y003804607D02*
X000189945Y003804607D01*
X000184985Y003804607D02*
X000224935Y003804607D01*
X000234971Y003804607D02*
X000304911Y003804607D01*
X000309949Y003804607D02*
X000329904Y003804607D01*
X000334942Y003804607D02*
X000354897Y003804607D01*
X000639854Y003804607D02*
X000654810Y003804607D01*
X000759819Y003804607D02*
X000779774Y003804607D01*
X001769527Y003804607D02*
X001784484Y003804607D01*
X001999461Y003804607D02*
X002019416Y003804607D01*
X002074439Y003804607D02*
X002094395Y003804607D01*
X002349360Y003804607D02*
X002364317Y003804607D01*
X002359357Y003804607D02*
X002374314Y003804607D01*
X002709256Y003804607D02*
X002724213Y003804607D01*
X002734249Y003804607D02*
X002764201Y003804607D01*
X002764240Y003804607D02*
X002779197Y003804607D01*
X002784234Y003804607D02*
X002799191Y003804607D01*
X003004171Y003804607D02*
X003019127Y003804607D01*
X003014168Y003804607D02*
X003094106Y003804607D01*
X003099143Y003804607D02*
X003119099Y003804607D01*
X003124136Y003804607D02*
X003144091Y003804607D01*
X003693972Y003804607D02*
X003708928Y003804607D01*
X003753954Y003804607D02*
X003793904Y003804607D01*
X000080015Y003809603D02*
X000159953Y003809603D01*
X000159992Y003809603D02*
X000174949Y003809603D01*
X000169989Y003809603D02*
X000189945Y003809603D01*
X000184985Y003809603D02*
X000209939Y003809603D01*
X000209978Y003809603D02*
X000224935Y003809603D01*
X000239969Y003809603D02*
X000314909Y003809603D01*
X000319946Y003809603D02*
X000339901Y003809603D01*
X000344939Y003809603D02*
X000364894Y003809603D01*
X000364933Y003809603D02*
X000379890Y003809603D01*
X000644852Y003809603D02*
X000659809Y003809603D01*
X001564587Y003809603D02*
X001579543Y003809603D01*
X001599577Y003809603D02*
X001624530Y003809603D01*
X001619571Y003809603D02*
X001634527Y003809603D01*
X001684552Y003809603D02*
X001709506Y003809603D01*
X001704546Y003809603D02*
X001724501Y003809603D01*
X001749533Y003809603D02*
X001784484Y003809603D01*
X001779525Y003809603D02*
X001799480Y003809603D01*
X001824512Y003809603D02*
X001844467Y003809603D01*
X001839507Y003809603D02*
X001854464Y003809603D01*
X001894491Y003809603D02*
X001909448Y003809603D01*
X001989464Y003809603D02*
X002024415Y003809603D01*
X002019455Y003809603D02*
X002034412Y003809603D01*
X002059444Y003809603D02*
X002094395Y003809603D01*
X002089435Y003809603D02*
X002114389Y003809603D01*
X002139421Y003809603D02*
X002159376Y003809603D01*
X002154416Y003809603D02*
X002169373Y003809603D01*
X002209400Y003809603D02*
X002229356Y003809603D01*
X002329366Y003809603D02*
X002359318Y003809603D01*
X002714255Y003809603D02*
X002734210Y003809603D01*
X002739247Y003809603D02*
X002759203Y003809603D01*
X002774237Y003809603D02*
X002789194Y003809603D01*
X002909198Y003809603D02*
X002929153Y003809603D01*
X002924194Y003809603D02*
X002939151Y003809603D01*
X002989175Y003809603D02*
X003009130Y003809603D01*
X003019167Y003809603D02*
X003104103Y003809603D01*
X003109141Y003809603D02*
X003129096Y003809603D01*
X003134133Y003809603D02*
X003154089Y003809603D01*
X003154128Y003809603D02*
X003169084Y003809603D01*
X003698970Y003809603D02*
X003713927Y003809603D01*
X003753954Y003809603D02*
X003798902Y003809603D01*
X000075017Y003814600D02*
X000154955Y003814600D01*
X000174988Y003814600D02*
X000189945Y003814600D01*
X000184985Y003814600D02*
X000209939Y003814600D01*
X000214976Y003814600D02*
X000229933Y003814600D01*
X000244968Y003814600D02*
X000324906Y003814600D01*
X000329943Y003814600D02*
X000349898Y003814600D01*
X000359935Y003814600D02*
X000374891Y003814600D01*
X000649851Y003814600D02*
X000664807Y003814600D01*
X000774815Y003814600D02*
X000789771Y003814600D01*
X001559588Y003814600D02*
X001619532Y003814600D01*
X001619571Y003814600D02*
X001699509Y003814600D01*
X001694549Y003814600D02*
X001709506Y003814600D01*
X001704546Y003814600D02*
X001764490Y003814600D01*
X001764529Y003814600D02*
X001784484Y003814600D01*
X001779525Y003814600D02*
X001839468Y003814600D01*
X001839507Y003814600D02*
X001904449Y003814600D01*
X001994463Y003814600D02*
X002024415Y003814600D01*
X002019455Y003814600D02*
X002074400Y003814600D01*
X002074439Y003814600D02*
X002094395Y003814600D01*
X002089435Y003814600D02*
X002154377Y003814600D01*
X002154416Y003814600D02*
X002224357Y003814600D01*
X002314370Y003814600D02*
X002344322Y003814600D01*
X002344361Y003814600D02*
X002359318Y003814600D01*
X002354359Y003814600D02*
X002369315Y003814600D01*
X002704258Y003814600D02*
X002719214Y003814600D01*
X002724252Y003814600D02*
X002744207Y003814600D01*
X002739247Y003814600D02*
X002764201Y003814600D01*
X002769239Y003814600D02*
X002794192Y003814600D01*
X002874208Y003814600D02*
X002924155Y003814600D01*
X002924194Y003814600D02*
X002999133Y003814600D01*
X003024165Y003814600D02*
X003114100Y003814600D01*
X003119138Y003814600D02*
X003139093Y003814600D01*
X003149129Y003814600D02*
X003164086Y003814600D01*
X003758953Y003814600D02*
X003798902Y003814600D01*
X000080015Y003819596D02*
X000149956Y003819596D01*
X000164991Y003819596D02*
X000179948Y003819596D01*
X000184985Y003819596D02*
X000214937Y003819596D01*
X000214976Y003819596D02*
X000229933Y003819596D01*
X000249966Y003819596D02*
X000334903Y003819596D01*
X000339940Y003819596D02*
X000364894Y003819596D01*
X000649851Y003819596D02*
X000669806Y003819596D01*
X000764818Y003819596D02*
X000779774Y003819596D01*
X001429626Y003819596D02*
X001444582Y003819596D01*
X001554590Y003819596D02*
X001574545Y003819596D01*
X001569585Y003819596D02*
X001619532Y003819596D01*
X001619571Y003819596D02*
X001699509Y003819596D01*
X001694549Y003819596D02*
X001709506Y003819596D01*
X001704546Y003819596D02*
X001764490Y003819596D01*
X001764529Y003819596D02*
X001784484Y003819596D01*
X001779525Y003819596D02*
X001839468Y003819596D01*
X001839507Y003819596D02*
X001899451Y003819596D01*
X001899490Y003819596D02*
X001914447Y003819596D01*
X001984465Y003819596D02*
X001999422Y003819596D01*
X002009458Y003819596D02*
X002024415Y003819596D01*
X002019455Y003819596D02*
X002074400Y003819596D01*
X002074439Y003819596D02*
X002094395Y003819596D01*
X002089435Y003819596D02*
X002154377Y003819596D01*
X002154416Y003819596D02*
X002219358Y003819596D01*
X002219398Y003819596D02*
X002234354Y003819596D01*
X002304373Y003819596D02*
X002319330Y003819596D01*
X002314370Y003819596D02*
X002344322Y003819596D01*
X002354359Y003819596D02*
X002374314Y003819596D01*
X002704258Y003819596D02*
X002729211Y003819596D01*
X002734249Y003819596D02*
X002759203Y003819596D01*
X002759242Y003819596D02*
X002799191Y003819596D01*
X002869210Y003819596D02*
X002889165Y003819596D01*
X002884206Y003819596D02*
X002924155Y003819596D01*
X002924194Y003819596D02*
X002999133Y003819596D01*
X003029164Y003819596D02*
X003124097Y003819596D01*
X003129135Y003819596D02*
X003154089Y003819596D01*
X003703969Y003819596D02*
X003718925Y003819596D01*
X003763951Y003819596D02*
X003798902Y003819596D01*
X000080015Y003824592D02*
X000144958Y003824592D01*
X000164991Y003824592D02*
X000179948Y003824592D01*
X000179987Y003824592D02*
X000214937Y003824592D01*
X000214976Y003824592D02*
X000229933Y003824592D01*
X000254965Y003824592D02*
X000344900Y003824592D01*
X000654849Y003824592D02*
X000669806Y003824592D01*
X000759819Y003824592D02*
X000784773Y003824592D01*
X001419629Y003824592D02*
X001449581Y003824592D01*
X001549591Y003824592D02*
X001579543Y003824592D01*
X001574584Y003824592D02*
X001624530Y003824592D01*
X001619571Y003824592D02*
X001709506Y003824592D01*
X001704546Y003824592D02*
X001769488Y003824592D01*
X001764529Y003824592D02*
X001779486Y003824592D01*
X001779525Y003824592D02*
X001844467Y003824592D01*
X001839507Y003824592D02*
X001904449Y003824592D01*
X001904488Y003824592D02*
X001919445Y003824592D01*
X001979467Y003824592D02*
X002019416Y003824592D01*
X002019455Y003824592D02*
X002079399Y003824592D01*
X002074439Y003824592D02*
X002089396Y003824592D01*
X002089435Y003824592D02*
X002159376Y003824592D01*
X002154416Y003824592D02*
X002224357Y003824592D01*
X002224396Y003824592D02*
X002239353Y003824592D01*
X002299374Y003824592D02*
X002349321Y003824592D01*
X002354359Y003824592D02*
X002379312Y003824592D01*
X002379351Y003824592D02*
X002394308Y003824592D01*
X002624281Y003824592D02*
X002639237Y003824592D01*
X002699259Y003824592D02*
X002739208Y003824592D01*
X002744246Y003824592D02*
X002804190Y003824592D01*
X002804229Y003824592D02*
X002819185Y003824592D01*
X002864211Y003824592D02*
X002894164Y003824592D01*
X002889204Y003824592D02*
X002929153Y003824592D01*
X002924194Y003824592D02*
X003004132Y003824592D01*
X003034162Y003824592D02*
X003134094Y003824592D01*
X003768950Y003824592D02*
X003803901Y003824592D01*
X000080015Y003829588D02*
X000139959Y003829588D01*
X000179987Y003829588D02*
X000214937Y003829588D01*
X000259963Y003829588D02*
X000339901Y003829588D01*
X000749822Y003829588D02*
X000789771Y003829588D01*
X000789810Y003829588D02*
X000804767Y003829588D01*
X000859790Y003829588D02*
X000879745Y003829588D01*
X001109718Y003829588D02*
X001124675Y003829588D01*
X001179698Y003829588D02*
X001194654Y003829588D01*
X001189695Y003829588D02*
X001204652Y003829588D01*
X001259675Y003829588D02*
X001279630Y003829588D01*
X001334653Y003829588D02*
X001354608Y003829588D01*
X001414630Y003829588D02*
X001454579Y003829588D01*
X001454618Y003829588D02*
X001469575Y003829588D01*
X001539594Y003829588D02*
X001559549Y003829588D01*
X001554590Y003829588D02*
X001579543Y003829588D01*
X001574584Y003829588D02*
X001769488Y003829588D01*
X001764529Y003829588D02*
X001779486Y003829588D01*
X001774526Y003829588D02*
X001889454Y003829588D01*
X001884494Y003829588D02*
X001909448Y003829588D01*
X001909487Y003829588D02*
X001924444Y003829588D01*
X001974468Y003829588D02*
X002019416Y003829588D01*
X002014457Y003829588D02*
X002079399Y003829588D01*
X002074439Y003829588D02*
X002089396Y003829588D01*
X002084437Y003829588D02*
X002209361Y003829588D01*
X002204402Y003829588D02*
X002229356Y003829588D01*
X002229395Y003829588D02*
X002244351Y003829588D01*
X002294376Y003829588D02*
X002329327Y003829588D01*
X002324367Y003829588D02*
X002349321Y003829588D01*
X002349360Y003829588D02*
X002384311Y003829588D01*
X002384350Y003829588D02*
X002399307Y003829588D01*
X002459328Y003829588D02*
X002479283Y003829588D01*
X002534307Y003829588D02*
X002554262Y003829588D01*
X002614283Y003829588D02*
X002639237Y003829588D01*
X002694260Y003829588D02*
X002749205Y003829588D01*
X002744246Y003829588D02*
X002809188Y003829588D01*
X002804229Y003829588D02*
X002819185Y003829588D01*
X002814226Y003829588D02*
X002829182Y003829588D01*
X002859213Y003829588D02*
X002894164Y003829588D01*
X002889204Y003829588D02*
X003004132Y003829588D01*
X003039161Y003829588D02*
X003129096Y003829588D01*
X003708967Y003829588D02*
X003723924Y003829588D01*
X003773949Y003829588D02*
X003803901Y003829588D01*
X000085014Y003834584D02*
X000139959Y003834584D01*
X000179987Y003834584D02*
X000214937Y003834584D01*
X000264962Y003834584D02*
X000339901Y003834584D01*
X000669845Y003834584D02*
X000689800Y003834584D01*
X000739825Y003834584D02*
X000794770Y003834584D01*
X000794809Y003834584D02*
X000814764Y003834584D01*
X000849793Y003834584D02*
X000879745Y003834584D01*
X000874786Y003834584D02*
X000889743Y003834584D01*
X000924771Y003834584D02*
X000944727Y003834584D01*
X000939767Y003834584D02*
X000954724Y003834584D01*
X001004748Y003834584D02*
X001024704Y003834584D01*
X001094722Y003834584D02*
X001124675Y003834584D01*
X001119715Y003834584D02*
X001139670Y003834584D01*
X001169701Y003834584D02*
X001189656Y003834584D01*
X001189695Y003834584D02*
X001204652Y003834584D01*
X001199692Y003834584D02*
X001214649Y003834584D01*
X001249678Y003834584D02*
X001279630Y003834584D01*
X001274670Y003834584D02*
X001289627Y003834584D01*
X001324656Y003834584D02*
X001354608Y003834584D01*
X001349649Y003834584D02*
X001369604Y003834584D01*
X001399634Y003834584D02*
X001424588Y003834584D01*
X001419629Y003834584D02*
X001459578Y003834584D01*
X001454618Y003834584D02*
X001469575Y003834584D01*
X001464616Y003834584D02*
X001484571Y003834584D01*
X001529597Y003834584D02*
X001549552Y003834584D01*
X001559588Y003834584D02*
X001769488Y003834584D01*
X001764529Y003834584D02*
X001779486Y003834584D01*
X001774526Y003834584D02*
X001914447Y003834584D01*
X001909487Y003834584D02*
X001924444Y003834584D01*
X001919484Y003834584D02*
X001934441Y003834584D01*
X001964471Y003834584D02*
X001984426Y003834584D01*
X001979467Y003834584D02*
X002014418Y003834584D01*
X002014457Y003834584D02*
X002079399Y003834584D01*
X002074439Y003834584D02*
X002089396Y003834584D01*
X002084437Y003834584D02*
X002234354Y003834584D01*
X002229395Y003834584D02*
X002244351Y003834584D01*
X002239392Y003834584D02*
X002254348Y003834584D01*
X002284379Y003834584D02*
X002304334Y003834584D01*
X002299374Y003834584D02*
X002349321Y003834584D01*
X002349360Y003834584D02*
X002389309Y003834584D01*
X002384350Y003834584D02*
X002399307Y003834584D01*
X002394347Y003834584D02*
X002414302Y003834584D01*
X002449331Y003834584D02*
X002479283Y003834584D01*
X002474324Y003834584D02*
X002489281Y003834584D01*
X002524309Y003834584D02*
X002554262Y003834584D01*
X002549302Y003834584D02*
X002564259Y003834584D01*
X002599288Y003834584D02*
X002624242Y003834584D01*
X002624281Y003834584D02*
X002639237Y003834584D01*
X002639276Y003834584D02*
X002654233Y003834584D01*
X002684263Y003834584D02*
X002754204Y003834584D01*
X002749245Y003834584D02*
X002809188Y003834584D01*
X002804229Y003834584D02*
X002819185Y003834584D01*
X002814226Y003834584D02*
X002829182Y003834584D01*
X002824223Y003834584D02*
X002844178Y003834584D01*
X002844217Y003834584D02*
X002869171Y003834584D01*
X002864211Y003834584D02*
X003004132Y003834584D01*
X003044159Y003834584D02*
X003129096Y003834584D01*
X003773949Y003834584D02*
X003803901Y003834584D01*
X000085014Y003839581D02*
X000134961Y003839581D01*
X000179987Y003839581D02*
X000214937Y003839581D01*
X000269961Y003839581D02*
X000329904Y003839581D01*
X000674844Y003839581D02*
X000689800Y003839581D01*
X000729828Y003839581D02*
X000799769Y003839581D01*
X000794809Y003839581D02*
X000819763Y003839581D01*
X000814803Y003839581D02*
X000859751Y003839581D01*
X000859790Y003839581D02*
X000879745Y003839581D01*
X000874786Y003839581D02*
X000894741Y003839581D01*
X000889782Y003839581D02*
X000934730Y003839581D01*
X000929770Y003839581D02*
X000944727Y003839581D01*
X000939767Y003839581D02*
X000964721Y003839581D01*
X000959761Y003839581D02*
X001034701Y003839581D01*
X001029741Y003839581D02*
X001109679Y003839581D01*
X001109718Y003839581D02*
X001124675Y003839581D01*
X001119715Y003839581D02*
X001149667Y003839581D01*
X001144708Y003839581D02*
X001179659Y003839581D01*
X001189695Y003839581D02*
X001204652Y003839581D01*
X001199692Y003839581D02*
X001224646Y003839581D01*
X001219686Y003839581D02*
X001259636Y003839581D01*
X001259675Y003839581D02*
X001279630Y003839581D01*
X001274670Y003839581D02*
X001299624Y003839581D01*
X001294665Y003839581D02*
X001334614Y003839581D01*
X001334653Y003839581D02*
X001354608Y003839581D01*
X001349649Y003839581D02*
X001379601Y003839581D01*
X001374642Y003839581D02*
X001414591Y003839581D01*
X001424627Y003839581D02*
X001459578Y003839581D01*
X001454618Y003839581D02*
X001469575Y003839581D01*
X001464616Y003839581D02*
X001489569Y003839581D01*
X001484610Y003839581D02*
X001539555Y003839581D01*
X001564587Y003839581D02*
X001584542Y003839581D01*
X001579582Y003839581D02*
X001769488Y003839581D01*
X001764529Y003839581D02*
X001779486Y003839581D01*
X001774526Y003839581D02*
X001884455Y003839581D01*
X001879496Y003839581D02*
X001914447Y003839581D01*
X001909487Y003839581D02*
X001924444Y003839581D01*
X001919484Y003839581D02*
X001944438Y003839581D01*
X001939478Y003839581D02*
X001974429Y003839581D01*
X001984465Y003839581D02*
X002014418Y003839581D01*
X002014457Y003839581D02*
X002079399Y003839581D01*
X002074439Y003839581D02*
X002089396Y003839581D01*
X002084437Y003839581D02*
X002204363Y003839581D01*
X002199403Y003839581D02*
X002234354Y003839581D01*
X002229395Y003839581D02*
X002244351Y003839581D01*
X002239392Y003839581D02*
X002264345Y003839581D01*
X002259386Y003839581D02*
X002294337Y003839581D01*
X002304373Y003839581D02*
X002334325Y003839581D01*
X002329366Y003839581D02*
X002349321Y003839581D01*
X002344361Y003839581D02*
X002389309Y003839581D01*
X002384350Y003839581D02*
X002399307Y003839581D01*
X002394347Y003839581D02*
X002424299Y003839581D01*
X002419340Y003839581D02*
X002459289Y003839581D01*
X002459328Y003839581D02*
X002479283Y003839581D01*
X002474324Y003839581D02*
X002499278Y003839581D01*
X002494318Y003839581D02*
X002534268Y003839581D01*
X002534307Y003839581D02*
X002554262Y003839581D01*
X002549302Y003839581D02*
X002579255Y003839581D01*
X002574295Y003839581D02*
X002614244Y003839581D01*
X002624281Y003839581D02*
X002644236Y003839581D01*
X002639276Y003839581D02*
X002659231Y003839581D01*
X002654272Y003839581D02*
X002694221Y003839581D01*
X002689262Y003839581D02*
X002754204Y003839581D01*
X002749245Y003839581D02*
X002804190Y003839581D01*
X002804229Y003839581D02*
X002819185Y003839581D01*
X002814226Y003839581D02*
X002829182Y003839581D01*
X002824223Y003839581D02*
X002859174Y003839581D01*
X002869210Y003839581D02*
X002899162Y003839581D01*
X002894203Y003839581D02*
X003004132Y003839581D01*
X003049158Y003839581D02*
X003119099Y003839581D01*
X003778947Y003839581D02*
X003808899Y003839581D01*
X000090013Y003844577D02*
X000129962Y003844577D01*
X000179987Y003844577D02*
X000219936Y003844577D01*
X000274959Y003844577D02*
X000309910Y003844577D01*
X000689839Y003844577D02*
X000704796Y003844577D01*
X000724829Y003844577D02*
X000799769Y003844577D01*
X000794809Y003844577D02*
X000819763Y003844577D01*
X000814803Y003844577D02*
X000839757Y003844577D01*
X000839796Y003844577D02*
X000859751Y003844577D01*
X000859790Y003844577D02*
X000879745Y003844577D01*
X000874786Y003844577D02*
X000894741Y003844577D01*
X000889782Y003844577D02*
X000914735Y003844577D01*
X000914774Y003844577D02*
X000934730Y003844577D01*
X000929770Y003844577D02*
X000944727Y003844577D01*
X000939767Y003844577D02*
X000964721Y003844577D01*
X000959761Y003844577D02*
X000994712Y003844577D01*
X000994751Y003844577D02*
X001034701Y003844577D01*
X001029741Y003844577D02*
X001074689Y003844577D01*
X001074728Y003844577D02*
X001109679Y003844577D01*
X001109718Y003844577D02*
X001124675Y003844577D01*
X001119715Y003844577D02*
X001149667Y003844577D01*
X001144708Y003844577D02*
X001159665Y003844577D01*
X001159704Y003844577D02*
X001179659Y003844577D01*
X001189695Y003844577D02*
X001204652Y003844577D01*
X001199692Y003844577D02*
X001224646Y003844577D01*
X001219686Y003844577D02*
X001239641Y003844577D01*
X001239681Y003844577D02*
X001259636Y003844577D01*
X001259675Y003844577D02*
X001279630Y003844577D01*
X001274670Y003844577D02*
X001299624Y003844577D01*
X001294665Y003844577D02*
X001309621Y003844577D01*
X001309660Y003844577D02*
X001334614Y003844577D01*
X001334653Y003844577D02*
X001354608Y003844577D01*
X001349649Y003844577D02*
X001379601Y003844577D01*
X001374642Y003844577D02*
X001389598Y003844577D01*
X001389637Y003844577D02*
X001414591Y003844577D01*
X001429626Y003844577D02*
X001454579Y003844577D01*
X001454618Y003844577D02*
X001469575Y003844577D01*
X001464616Y003844577D02*
X001489569Y003844577D01*
X001484610Y003844577D02*
X001524559Y003844577D01*
X001524598Y003844577D02*
X001539555Y003844577D01*
X001569585Y003844577D02*
X001584542Y003844577D01*
X001579582Y003844577D02*
X001769488Y003844577D01*
X001764529Y003844577D02*
X001779486Y003844577D01*
X001774526Y003844577D02*
X001884455Y003844577D01*
X001879496Y003844577D02*
X001909448Y003844577D01*
X001909487Y003844577D02*
X001924444Y003844577D01*
X001919484Y003844577D02*
X001944438Y003844577D01*
X001939478Y003844577D02*
X001954435Y003844577D01*
X001954474Y003844577D02*
X001974429Y003844577D01*
X001989464Y003844577D02*
X002079399Y003844577D01*
X002074439Y003844577D02*
X002089396Y003844577D01*
X002084437Y003844577D02*
X002204363Y003844577D01*
X002199403Y003844577D02*
X002229356Y003844577D01*
X002229395Y003844577D02*
X002244351Y003844577D01*
X002239392Y003844577D02*
X002264345Y003844577D01*
X002259386Y003844577D02*
X002274343Y003844577D01*
X002274382Y003844577D02*
X002294337Y003844577D01*
X002309372Y003844577D02*
X002334325Y003844577D01*
X002329366Y003844577D02*
X002349321Y003844577D01*
X002349360Y003844577D02*
X002384311Y003844577D01*
X002384350Y003844577D02*
X002399307Y003844577D01*
X002394347Y003844577D02*
X002424299Y003844577D01*
X002419340Y003844577D02*
X002439295Y003844577D01*
X002439334Y003844577D02*
X002459289Y003844577D01*
X002459328Y003844577D02*
X002479283Y003844577D01*
X002474324Y003844577D02*
X002499278Y003844577D01*
X002494318Y003844577D02*
X002509275Y003844577D01*
X002509314Y003844577D02*
X002534268Y003844577D01*
X002534307Y003844577D02*
X002554262Y003844577D01*
X002549302Y003844577D02*
X002579255Y003844577D01*
X002574295Y003844577D02*
X002589252Y003844577D01*
X002589291Y003844577D02*
X002614244Y003844577D01*
X002624281Y003844577D02*
X002644236Y003844577D01*
X002639276Y003844577D02*
X002659231Y003844577D01*
X002654272Y003844577D02*
X002679226Y003844577D01*
X002679265Y003844577D02*
X002694221Y003844577D01*
X002694260Y003844577D02*
X002799191Y003844577D01*
X002814226Y003844577D02*
X002829182Y003844577D01*
X002824223Y003844577D02*
X002859174Y003844577D01*
X002874208Y003844577D02*
X002899162Y003844577D01*
X002894203Y003844577D02*
X003004132Y003844577D01*
X003054156Y003844577D02*
X003099104Y003844577D01*
X003718964Y003844577D02*
X003733921Y003844577D01*
X003783946Y003844577D02*
X003808899Y003844577D01*
X000100010Y003849573D02*
X000124963Y003849573D01*
X000179987Y003849573D02*
X000219936Y003849573D01*
X000279958Y003849573D02*
X000299913Y003849573D01*
X000294953Y003849573D02*
X000309910Y003849573D01*
X000689839Y003849573D02*
X000704796Y003849573D01*
X000714832Y003849573D02*
X000794770Y003849573D01*
X000794809Y003849573D02*
X000809766Y003849573D01*
X000804806Y003849573D02*
X000819763Y003849573D01*
X000814803Y003849573D02*
X000839757Y003849573D01*
X000844795Y003849573D02*
X000864750Y003849573D01*
X000859790Y003849573D02*
X000874747Y003849573D01*
X000879784Y003849573D02*
X000894741Y003849573D01*
X000889782Y003849573D02*
X000914735Y003849573D01*
X000919773Y003849573D02*
X000944727Y003849573D01*
X000939767Y003849573D02*
X000954724Y003849573D01*
X000949764Y003849573D02*
X000964721Y003849573D01*
X000959761Y003849573D02*
X000994712Y003849573D01*
X000999750Y003849573D02*
X001024704Y003849573D01*
X001019744Y003849573D02*
X001034701Y003849573D01*
X001029741Y003849573D02*
X001074689Y003849573D01*
X001079727Y003849573D02*
X001114678Y003849573D01*
X001119715Y003849573D02*
X001139670Y003849573D01*
X001134711Y003849573D02*
X001149667Y003849573D01*
X001144708Y003849573D02*
X001159665Y003849573D01*
X001164702Y003849573D02*
X001184657Y003849573D01*
X001199692Y003849573D02*
X001214649Y003849573D01*
X001209689Y003849573D02*
X001224646Y003849573D01*
X001219686Y003849573D02*
X001239641Y003849573D01*
X001244679Y003849573D02*
X001264634Y003849573D01*
X001259675Y003849573D02*
X001274631Y003849573D01*
X001274670Y003849573D02*
X001289627Y003849573D01*
X001284668Y003849573D02*
X001299624Y003849573D01*
X001294665Y003849573D02*
X001309621Y003849573D01*
X001314659Y003849573D02*
X001339613Y003849573D01*
X001334653Y003849573D02*
X001349610Y003849573D01*
X001349649Y003849573D02*
X001369604Y003849573D01*
X001364644Y003849573D02*
X001379601Y003849573D01*
X001374642Y003849573D02*
X001389598Y003849573D01*
X001394636Y003849573D02*
X001419589Y003849573D01*
X001434624Y003849573D02*
X001449581Y003849573D01*
X001464616Y003849573D02*
X001479572Y003849573D01*
X001474613Y003849573D02*
X001489569Y003849573D01*
X001484610Y003849573D02*
X001524559Y003849573D01*
X001529597Y003849573D02*
X001544553Y003849573D01*
X001574584Y003849573D02*
X001589540Y003849573D01*
X001584581Y003849573D02*
X001779486Y003849573D01*
X001774526Y003849573D02*
X001879457Y003849573D01*
X001874497Y003849573D02*
X001904449Y003849573D01*
X001919484Y003849573D02*
X001934441Y003849573D01*
X001929481Y003849573D02*
X001944438Y003849573D01*
X001939478Y003849573D02*
X001954435Y003849573D01*
X001959473Y003849573D02*
X001979428Y003849573D01*
X001994463Y003849573D02*
X002019416Y003849573D01*
X002014457Y003849573D02*
X002089396Y003849573D01*
X002084437Y003849573D02*
X002199364Y003849573D01*
X002194405Y003849573D02*
X002224357Y003849573D01*
X002239392Y003849573D02*
X002254348Y003849573D01*
X002249389Y003849573D02*
X002264345Y003849573D01*
X002259386Y003849573D02*
X002274343Y003849573D01*
X002279380Y003849573D02*
X002299335Y003849573D01*
X002314370Y003849573D02*
X002339324Y003849573D01*
X002334364Y003849573D02*
X002354320Y003849573D01*
X002349360Y003849573D02*
X002379312Y003849573D01*
X002394347Y003849573D02*
X002414302Y003849573D01*
X002409343Y003849573D02*
X002424299Y003849573D01*
X002419340Y003849573D02*
X002439295Y003849573D01*
X002444333Y003849573D02*
X002464288Y003849573D01*
X002459328Y003849573D02*
X002474285Y003849573D01*
X002474324Y003849573D02*
X002489281Y003849573D01*
X002484321Y003849573D02*
X002499278Y003849573D01*
X002494318Y003849573D02*
X002509275Y003849573D01*
X002514312Y003849573D02*
X002539266Y003849573D01*
X002534307Y003849573D02*
X002549263Y003849573D01*
X002549302Y003849573D02*
X002569257Y003849573D01*
X002564298Y003849573D02*
X002579255Y003849573D01*
X002574295Y003849573D02*
X002589252Y003849573D01*
X002594289Y003849573D02*
X002619243Y003849573D01*
X002619282Y003849573D02*
X002639237Y003849573D01*
X002644275Y003849573D02*
X002659231Y003849573D01*
X002654272Y003849573D02*
X002679226Y003849573D01*
X002684263Y003849573D02*
X002699220Y003849573D01*
X002699259Y003849573D02*
X002794192Y003849573D01*
X002824223Y003849573D02*
X002864172Y003849573D01*
X002879207Y003849573D02*
X002904161Y003849573D01*
X002899201Y003849573D02*
X003009130Y003849573D01*
X003059155Y003849573D02*
X003089107Y003849573D01*
X003084148Y003849573D02*
X003099104Y003849573D01*
X003728962Y003849573D02*
X003748917Y003849573D01*
X003788944Y003849573D02*
X003808899Y003849573D01*
X000065020Y003854569D02*
X000089974Y003854569D01*
X000100010Y003854569D02*
X000114966Y003854569D01*
X000110007Y003854569D02*
X000124963Y003854569D01*
X000179987Y003854569D02*
X000219936Y003854569D01*
X000274959Y003854569D02*
X000294914Y003854569D01*
X000704835Y003854569D02*
X000789771Y003854569D01*
X000789810Y003854569D02*
X000809766Y003854569D01*
X000814803Y003854569D02*
X000844756Y003854569D01*
X000844795Y003854569D02*
X000864750Y003854569D01*
X000859790Y003854569D02*
X000874747Y003854569D01*
X000869787Y003854569D02*
X000884744Y003854569D01*
X000889782Y003854569D02*
X000919734Y003854569D01*
X000919773Y003854569D02*
X000954724Y003854569D01*
X000959761Y003854569D02*
X000999711Y003854569D01*
X000999750Y003854569D02*
X001024704Y003854569D01*
X001029741Y003854569D02*
X001079688Y003854569D01*
X001079727Y003854569D02*
X001114678Y003854569D01*
X001114717Y003854569D02*
X001139670Y003854569D01*
X001144708Y003854569D02*
X001164663Y003854569D01*
X001164702Y003854569D02*
X001184657Y003854569D01*
X001194694Y003854569D02*
X001214649Y003854569D01*
X001219686Y003854569D02*
X001244640Y003854569D01*
X001244679Y003854569D02*
X001264634Y003854569D01*
X001259675Y003854569D02*
X001274631Y003854569D01*
X001269672Y003854569D02*
X001289627Y003854569D01*
X001294665Y003854569D02*
X001314620Y003854569D01*
X001314659Y003854569D02*
X001339613Y003854569D01*
X001334653Y003854569D02*
X001349610Y003854569D01*
X001344650Y003854569D02*
X001369604Y003854569D01*
X001374642Y003854569D02*
X001394597Y003854569D01*
X001394636Y003854569D02*
X001419589Y003854569D01*
X001459617Y003854569D02*
X001479572Y003854569D01*
X001484610Y003854569D02*
X001529558Y003854569D01*
X001529597Y003854569D02*
X001544553Y003854569D01*
X001584581Y003854569D02*
X001779486Y003854569D01*
X001774526Y003854569D02*
X001879457Y003854569D01*
X001874497Y003854569D02*
X001899451Y003854569D01*
X001914486Y003854569D02*
X001934441Y003854569D01*
X001939478Y003854569D02*
X001959434Y003854569D01*
X001959473Y003854569D02*
X001979428Y003854569D01*
X001999461Y003854569D02*
X002019416Y003854569D01*
X002014457Y003854569D02*
X002089396Y003854569D01*
X002084437Y003854569D02*
X002199364Y003854569D01*
X002194405Y003854569D02*
X002219358Y003854569D01*
X002234393Y003854569D02*
X002254348Y003854569D01*
X002259386Y003854569D02*
X002279341Y003854569D01*
X002279380Y003854569D02*
X002299335Y003854569D01*
X002319369Y003854569D02*
X002339324Y003854569D01*
X002334364Y003854569D02*
X002374314Y003854569D01*
X002389348Y003854569D02*
X002414302Y003854569D01*
X002419340Y003854569D02*
X002444294Y003854569D01*
X002444333Y003854569D02*
X002464288Y003854569D01*
X002459328Y003854569D02*
X002474285Y003854569D01*
X002469325Y003854569D02*
X002489281Y003854569D01*
X002494318Y003854569D02*
X002514273Y003854569D01*
X002514312Y003854569D02*
X002539266Y003854569D01*
X002534307Y003854569D02*
X002549263Y003854569D01*
X002544304Y003854569D02*
X002569257Y003854569D01*
X002574295Y003854569D02*
X002594250Y003854569D01*
X002594289Y003854569D02*
X002619243Y003854569D01*
X002619282Y003854569D02*
X002634239Y003854569D01*
X002634278Y003854569D02*
X002649234Y003854569D01*
X002654272Y003854569D02*
X002684224Y003854569D01*
X002684263Y003854569D02*
X002699220Y003854569D01*
X002704258Y003854569D02*
X002789194Y003854569D01*
X002819224Y003854569D02*
X002864172Y003854569D01*
X002884206Y003854569D02*
X002904161Y003854569D01*
X002899201Y003854569D02*
X003009130Y003854569D01*
X003064154Y003854569D02*
X003084109Y003854569D01*
X003733960Y003854569D02*
X003763912Y003854569D01*
X003788944Y003854569D02*
X003808899Y003854569D01*
X000045026Y003859565D02*
X000084975Y003859565D01*
X000115005Y003859565D02*
X000129962Y003859565D01*
X000174988Y003859565D02*
X000219936Y003859565D01*
X000719831Y003859565D02*
X000784773Y003859565D01*
X000789810Y003859565D02*
X000809766Y003859565D01*
X000809805Y003859565D02*
X000844756Y003859565D01*
X000844795Y003859565D02*
X000864750Y003859565D01*
X000859790Y003859565D02*
X000874747Y003859565D01*
X000869787Y003859565D02*
X000884744Y003859565D01*
X000884783Y003859565D02*
X000919734Y003859565D01*
X000919773Y003859565D02*
X000954724Y003859565D01*
X000954763Y003859565D02*
X000999711Y003859565D01*
X000999750Y003859565D02*
X001024704Y003859565D01*
X001024743Y003859565D02*
X001079688Y003859565D01*
X001079727Y003859565D02*
X001114678Y003859565D01*
X001114717Y003859565D02*
X001139670Y003859565D01*
X001139709Y003859565D02*
X001164663Y003859565D01*
X001164702Y003859565D02*
X001184657Y003859565D01*
X001194694Y003859565D02*
X001214649Y003859565D01*
X001214688Y003859565D02*
X001244640Y003859565D01*
X001244679Y003859565D02*
X001264634Y003859565D01*
X001259675Y003859565D02*
X001274631Y003859565D01*
X001269672Y003859565D02*
X001289627Y003859565D01*
X001289666Y003859565D02*
X001314620Y003859565D01*
X001314659Y003859565D02*
X001339613Y003859565D01*
X001334653Y003859565D02*
X001349610Y003859565D01*
X001344650Y003859565D02*
X001369604Y003859565D01*
X001369643Y003859565D02*
X001394597Y003859565D01*
X001394636Y003859565D02*
X001419589Y003859565D01*
X001459617Y003859565D02*
X001479572Y003859565D01*
X001479611Y003859565D02*
X001529558Y003859565D01*
X001529597Y003859565D02*
X001544553Y003859565D01*
X001584581Y003859565D02*
X001779486Y003859565D01*
X001774526Y003859565D02*
X001894452Y003859565D01*
X001914486Y003859565D02*
X001934441Y003859565D01*
X001934480Y003859565D02*
X001959434Y003859565D01*
X001959473Y003859565D02*
X001979428Y003859565D01*
X002004460Y003859565D02*
X002089396Y003859565D01*
X002084437Y003859565D02*
X002214360Y003859565D01*
X002234393Y003859565D02*
X002254348Y003859565D01*
X002254387Y003859565D02*
X002279341Y003859565D01*
X002279380Y003859565D02*
X002299335Y003859565D01*
X002324367Y003859565D02*
X002349321Y003859565D01*
X002344361Y003859565D02*
X002369315Y003859565D01*
X002389348Y003859565D02*
X002414302Y003859565D01*
X002414341Y003859565D02*
X002444294Y003859565D01*
X002444333Y003859565D02*
X002464288Y003859565D01*
X002459328Y003859565D02*
X002474285Y003859565D01*
X002469325Y003859565D02*
X002489281Y003859565D01*
X002489320Y003859565D02*
X002514273Y003859565D01*
X002514312Y003859565D02*
X002539266Y003859565D01*
X002534307Y003859565D02*
X002549263Y003859565D01*
X002544304Y003859565D02*
X002569257Y003859565D01*
X002569296Y003859565D02*
X002594250Y003859565D01*
X002594289Y003859565D02*
X002619243Y003859565D01*
X002619282Y003859565D02*
X002634239Y003859565D01*
X002634278Y003859565D02*
X002649234Y003859565D01*
X002649273Y003859565D02*
X002684224Y003859565D01*
X002684263Y003859565D02*
X002699220Y003859565D01*
X002709256Y003859565D02*
X002784195Y003859565D01*
X002819224Y003859565D02*
X002864172Y003859565D01*
X002889204Y003859565D02*
X003009130Y003859565D01*
X003049158Y003859565D02*
X003064115Y003859565D01*
X003059155Y003859565D02*
X003074112Y003859565D01*
X003728962Y003859565D02*
X003743918Y003859565D01*
X003738959Y003859565D02*
X003778908Y003859565D01*
X003793943Y003859565D02*
X003813898Y003859565D01*
X000025031Y003864562D02*
X000084975Y003864562D01*
X000135000Y003864562D02*
X000149956Y003864562D01*
X000174988Y003864562D02*
X000224935Y003864562D01*
X000249966Y003864562D02*
X000264923Y003864562D01*
X000724829Y003864562D02*
X000779774Y003864562D01*
X000789810Y003864562D02*
X000804767Y003864562D01*
X000809805Y003864562D02*
X000844756Y003864562D01*
X000844795Y003864562D02*
X000864750Y003864562D01*
X000859790Y003864562D02*
X000874747Y003864562D01*
X000884783Y003864562D02*
X000919734Y003864562D01*
X000919773Y003864562D02*
X000949725Y003864562D01*
X000954763Y003864562D02*
X000999711Y003864562D01*
X000999750Y003864562D02*
X001019705Y003864562D01*
X001024743Y003864562D02*
X001079688Y003864562D01*
X001079727Y003864562D02*
X001114678Y003864562D01*
X001114717Y003864562D02*
X001134672Y003864562D01*
X001139709Y003864562D02*
X001164663Y003864562D01*
X001164702Y003864562D02*
X001184657Y003864562D01*
X001194694Y003864562D02*
X001209650Y003864562D01*
X001214688Y003864562D02*
X001244640Y003864562D01*
X001244679Y003864562D02*
X001264634Y003864562D01*
X001259675Y003864562D02*
X001274631Y003864562D01*
X001269672Y003864562D02*
X001284628Y003864562D01*
X001289666Y003864562D02*
X001314620Y003864562D01*
X001314659Y003864562D02*
X001339613Y003864562D01*
X001334653Y003864562D02*
X001349610Y003864562D01*
X001344650Y003864562D02*
X001364605Y003864562D01*
X001369643Y003864562D02*
X001394597Y003864562D01*
X001394636Y003864562D02*
X001419589Y003864562D01*
X001459617Y003864562D02*
X001474574Y003864562D01*
X001479611Y003864562D02*
X001529558Y003864562D01*
X001589579Y003864562D02*
X001874458Y003864562D01*
X001869499Y003864562D02*
X001889454Y003864562D01*
X001914486Y003864562D02*
X001929442Y003864562D01*
X001934480Y003864562D02*
X001959434Y003864562D01*
X001959473Y003864562D02*
X001979428Y003864562D01*
X002009458Y003864562D02*
X002024415Y003864562D01*
X002019455Y003864562D02*
X002194366Y003864562D01*
X002189406Y003864562D02*
X002209361Y003864562D01*
X002234393Y003864562D02*
X002249350Y003864562D01*
X002254387Y003864562D02*
X002279341Y003864562D01*
X002279380Y003864562D02*
X002299335Y003864562D01*
X002329366Y003864562D02*
X002344322Y003864562D01*
X002344361Y003864562D02*
X002364317Y003864562D01*
X002389348Y003864562D02*
X002409304Y003864562D01*
X002414341Y003864562D02*
X002444294Y003864562D01*
X002444333Y003864562D02*
X002464288Y003864562D01*
X002459328Y003864562D02*
X002474285Y003864562D01*
X002469325Y003864562D02*
X002484282Y003864562D01*
X002489320Y003864562D02*
X002514273Y003864562D01*
X002514312Y003864562D02*
X002539266Y003864562D01*
X002534307Y003864562D02*
X002549263Y003864562D01*
X002544304Y003864562D02*
X002564259Y003864562D01*
X002569296Y003864562D02*
X002594250Y003864562D01*
X002594289Y003864562D02*
X002619243Y003864562D01*
X002619282Y003864562D02*
X002634239Y003864562D01*
X002649273Y003864562D02*
X002684224Y003864562D01*
X002714255Y003864562D02*
X002784195Y003864562D01*
X002819224Y003864562D02*
X002864172Y003864562D01*
X002894203Y003864562D02*
X002909159Y003864562D01*
X002904200Y003864562D02*
X003009130Y003864562D01*
X003044159Y003864562D02*
X003059116Y003864562D01*
X003733960Y003864562D02*
X003748917Y003864562D01*
X003743957Y003864562D02*
X003788905Y003864562D01*
X003798941Y003864562D02*
X003813898Y003864562D01*
X000010036Y003869558D02*
X000029991Y003869558D01*
X000030030Y003869558D02*
X000079976Y003869558D01*
X000159992Y003869558D02*
X000189945Y003869558D01*
X000204979Y003869558D02*
X000219936Y003869558D01*
X000219975Y003869558D02*
X000234932Y003869558D01*
X000729828Y003869558D02*
X000744784Y003869558D01*
X000744823Y003869558D02*
X000774776Y003869558D01*
X000789810Y003869558D02*
X000804767Y003869558D01*
X000809805Y003869558D02*
X000844756Y003869558D01*
X000849793Y003869558D02*
X000864750Y003869558D01*
X000859790Y003869558D02*
X000874747Y003869558D01*
X000884783Y003869558D02*
X000919734Y003869558D01*
X000924771Y003869558D02*
X000949725Y003869558D01*
X000954763Y003869558D02*
X000999711Y003869558D01*
X001004748Y003869558D02*
X001019705Y003869558D01*
X001024743Y003869558D02*
X001079688Y003869558D01*
X001084725Y003869558D02*
X001114678Y003869558D01*
X001114717Y003869558D02*
X001134672Y003869558D01*
X001139709Y003869558D02*
X001164663Y003869558D01*
X001169701Y003869558D02*
X001184657Y003869558D01*
X001194694Y003869558D02*
X001209650Y003869558D01*
X001214688Y003869558D02*
X001244640Y003869558D01*
X001249678Y003869558D02*
X001264634Y003869558D01*
X001259675Y003869558D02*
X001274631Y003869558D01*
X001269672Y003869558D02*
X001284628Y003869558D01*
X001289666Y003869558D02*
X001314620Y003869558D01*
X001319657Y003869558D02*
X001339613Y003869558D01*
X001334653Y003869558D02*
X001349610Y003869558D01*
X001344650Y003869558D02*
X001364605Y003869558D01*
X001369643Y003869558D02*
X001394597Y003869558D01*
X001399634Y003869558D02*
X001419589Y003869558D01*
X001459617Y003869558D02*
X001474574Y003869558D01*
X001479611Y003869558D02*
X001529558Y003869558D01*
X001589579Y003869558D02*
X001889454Y003869558D01*
X001914486Y003869558D02*
X001929442Y003869558D01*
X001934480Y003869558D02*
X001959434Y003869558D01*
X001964471Y003869558D02*
X001979428Y003869558D01*
X002014457Y003869558D02*
X002209361Y003869558D01*
X002234393Y003869558D02*
X002249350Y003869558D01*
X002254387Y003869558D02*
X002279341Y003869558D01*
X002284379Y003869558D02*
X002299335Y003869558D01*
X002334364Y003869558D02*
X002364317Y003869558D01*
X002389348Y003869558D02*
X002409304Y003869558D01*
X002414341Y003869558D02*
X002444294Y003869558D01*
X002449331Y003869558D02*
X002464288Y003869558D01*
X002459328Y003869558D02*
X002474285Y003869558D01*
X002469325Y003869558D02*
X002484282Y003869558D01*
X002489320Y003869558D02*
X002514273Y003869558D01*
X002519311Y003869558D02*
X002539266Y003869558D01*
X002534307Y003869558D02*
X002549263Y003869558D01*
X002544304Y003869558D02*
X002564259Y003869558D01*
X002569296Y003869558D02*
X002594250Y003869558D01*
X002599288Y003869558D02*
X002619243Y003869558D01*
X002619282Y003869558D02*
X002634239Y003869558D01*
X002649273Y003869558D02*
X002684224Y003869558D01*
X002719253Y003869558D02*
X002749205Y003869558D01*
X002749245Y003869558D02*
X002764201Y003869558D01*
X002764240Y003869558D02*
X002779197Y003869558D01*
X002819224Y003869558D02*
X002864172Y003869558D01*
X002899201Y003869558D02*
X003009130Y003869558D01*
X003009169Y003869558D02*
X003024126Y003869558D01*
X003758953Y003869558D02*
X003803901Y003869558D01*
X000020033Y003874554D02*
X000064981Y003874554D01*
X000060021Y003874554D02*
X000079976Y003874554D01*
X000749822Y003874554D02*
X000774776Y003874554D01*
X000789810Y003874554D02*
X000804767Y003874554D01*
X000809805Y003874554D02*
X000844756Y003874554D01*
X000849793Y003874554D02*
X000874747Y003874554D01*
X000884783Y003874554D02*
X000919734Y003874554D01*
X000924771Y003874554D02*
X000949725Y003874554D01*
X000954763Y003874554D02*
X000999711Y003874554D01*
X001004748Y003874554D02*
X001019705Y003874554D01*
X001024743Y003874554D02*
X001079688Y003874554D01*
X001084725Y003874554D02*
X001119676Y003874554D01*
X001114717Y003874554D02*
X001134672Y003874554D01*
X001139709Y003874554D02*
X001164663Y003874554D01*
X001169701Y003874554D02*
X001189656Y003874554D01*
X001194694Y003874554D02*
X001209650Y003874554D01*
X001214688Y003874554D02*
X001244640Y003874554D01*
X001249678Y003874554D02*
X001274631Y003874554D01*
X001269672Y003874554D02*
X001284628Y003874554D01*
X001289666Y003874554D02*
X001314620Y003874554D01*
X001319657Y003874554D02*
X001349610Y003874554D01*
X001344650Y003874554D02*
X001364605Y003874554D01*
X001369643Y003874554D02*
X001394597Y003874554D01*
X001399634Y003874554D02*
X001424588Y003874554D01*
X001459617Y003874554D02*
X001474574Y003874554D01*
X001479611Y003874554D02*
X001529558Y003874554D01*
X001579582Y003874554D02*
X001599538Y003874554D01*
X001869499Y003874554D02*
X001889454Y003874554D01*
X001914486Y003874554D02*
X001929442Y003874554D01*
X001934480Y003874554D02*
X001959434Y003874554D01*
X001964471Y003874554D02*
X001984426Y003874554D01*
X002009458Y003874554D02*
X002024415Y003874554D01*
X002019455Y003874554D02*
X002034412Y003874554D01*
X002189406Y003874554D02*
X002209361Y003874554D01*
X002234393Y003874554D02*
X002249350Y003874554D01*
X002254387Y003874554D02*
X002279341Y003874554D01*
X002284379Y003874554D02*
X002304334Y003874554D01*
X002329366Y003874554D02*
X002344322Y003874554D01*
X002344361Y003874554D02*
X002364317Y003874554D01*
X002389348Y003874554D02*
X002409304Y003874554D01*
X002414341Y003874554D02*
X002444294Y003874554D01*
X002449331Y003874554D02*
X002474285Y003874554D01*
X002469325Y003874554D02*
X002484282Y003874554D01*
X002489320Y003874554D02*
X002514273Y003874554D01*
X002519311Y003874554D02*
X002549263Y003874554D01*
X002544304Y003874554D02*
X002564259Y003874554D01*
X002569296Y003874554D02*
X002594250Y003874554D01*
X002599288Y003874554D02*
X002624242Y003874554D01*
X002619282Y003874554D02*
X002634239Y003874554D01*
X002649273Y003874554D02*
X002684224Y003874554D01*
X002724252Y003874554D02*
X002739208Y003874554D01*
X002734249Y003874554D02*
X002749205Y003874554D01*
X002764240Y003874554D02*
X002789194Y003874554D01*
X002819224Y003874554D02*
X002869171Y003874554D01*
X002894203Y003874554D02*
X002909159Y003874554D01*
X002904200Y003874554D02*
X002919156Y003874554D01*
X003738959Y003874554D02*
X003753915Y003874554D01*
X003773949Y003874554D02*
X003813898Y003874554D01*
X000010036Y003879550D02*
X000049985Y003879550D01*
X000055023Y003879550D02*
X000079976Y003879550D01*
X000754821Y003879550D02*
X000769777Y003879550D01*
X000789810Y003879550D02*
X000804767Y003879550D01*
X000809805Y003879550D02*
X000849754Y003879550D01*
X000849793Y003879550D02*
X000874747Y003879550D01*
X000884783Y003879550D02*
X000924732Y003879550D01*
X000924771Y003879550D02*
X000949725Y003879550D01*
X000954763Y003879550D02*
X001004709Y003879550D01*
X001004748Y003879550D02*
X001019705Y003879550D01*
X001024743Y003879550D02*
X001084686Y003879550D01*
X001084725Y003879550D02*
X001119676Y003879550D01*
X001114717Y003879550D02*
X001134672Y003879550D01*
X001139709Y003879550D02*
X001169662Y003879550D01*
X001169701Y003879550D02*
X001189656Y003879550D01*
X001194694Y003879550D02*
X001209650Y003879550D01*
X001214688Y003879550D02*
X001249639Y003879550D01*
X001249678Y003879550D02*
X001274631Y003879550D01*
X001269672Y003879550D02*
X001284628Y003879550D01*
X001289666Y003879550D02*
X001319618Y003879550D01*
X001319657Y003879550D02*
X001349610Y003879550D01*
X001344650Y003879550D02*
X001364605Y003879550D01*
X001369643Y003879550D02*
X001399595Y003879550D01*
X001399634Y003879550D02*
X001424588Y003879550D01*
X001459617Y003879550D02*
X001474574Y003879550D01*
X001479611Y003879550D02*
X001534556Y003879550D01*
X001559588Y003879550D02*
X001584542Y003879550D01*
X001874497Y003879550D02*
X001894452Y003879550D01*
X001914486Y003879550D02*
X001929442Y003879550D01*
X001934480Y003879550D02*
X001964432Y003879550D01*
X001964471Y003879550D02*
X001984426Y003879550D01*
X001994463Y003879550D02*
X002019416Y003879550D01*
X002194405Y003879550D02*
X002214360Y003879550D01*
X002234393Y003879550D02*
X002249350Y003879550D01*
X002254387Y003879550D02*
X002284340Y003879550D01*
X002284379Y003879550D02*
X002304334Y003879550D01*
X002314370Y003879550D02*
X002339324Y003879550D01*
X002349360Y003879550D02*
X002369315Y003879550D01*
X002389348Y003879550D02*
X002409304Y003879550D01*
X002414341Y003879550D02*
X002449292Y003879550D01*
X002449331Y003879550D02*
X002474285Y003879550D01*
X002469325Y003879550D02*
X002484282Y003879550D01*
X002489320Y003879550D02*
X002519272Y003879550D01*
X002519311Y003879550D02*
X002549263Y003879550D01*
X002544304Y003879550D02*
X002564259Y003879550D01*
X002569296Y003879550D02*
X002599249Y003879550D01*
X002599288Y003879550D02*
X002624242Y003879550D01*
X002619282Y003879550D02*
X002634239Y003879550D01*
X002649273Y003879550D02*
X002689223Y003879550D01*
X002779236Y003879550D02*
X002799191Y003879550D01*
X002819224Y003879550D02*
X002869171Y003879550D01*
X002879207Y003879550D02*
X002904161Y003879550D01*
X003738959Y003879550D02*
X003758914Y003879550D01*
X003788944Y003879550D02*
X003808899Y003879550D01*
X000015034Y003884546D02*
X000034989Y003884546D01*
X000035028Y003884546D02*
X000049985Y003884546D01*
X000055023Y003884546D02*
X000074978Y003884546D01*
X000774815Y003884546D02*
X000804767Y003884546D01*
X000809805Y003884546D02*
X000849754Y003884546D01*
X000849793Y003884546D02*
X000869748Y003884546D01*
X000884783Y003884546D02*
X000924732Y003884546D01*
X000924771Y003884546D02*
X000939728Y003884546D01*
X000934769Y003884546D02*
X000949725Y003884546D01*
X000954763Y003884546D02*
X001004709Y003884546D01*
X001004748Y003884546D02*
X001019705Y003884546D01*
X001024743Y003884546D02*
X001084686Y003884546D01*
X001084725Y003884546D02*
X001099682Y003884546D01*
X001104719Y003884546D02*
X001124675Y003884546D01*
X001139709Y003884546D02*
X001169662Y003884546D01*
X001169701Y003884546D02*
X001189656Y003884546D01*
X001184696Y003884546D02*
X001209650Y003884546D01*
X001214688Y003884546D02*
X001249639Y003884546D01*
X001249678Y003884546D02*
X001269633Y003884546D01*
X001264673Y003884546D02*
X001284628Y003884546D01*
X001289666Y003884546D02*
X001319618Y003884546D01*
X001319657Y003884546D02*
X001334614Y003884546D01*
X001329655Y003884546D02*
X001344611Y003884546D01*
X001339652Y003884546D02*
X001354608Y003884546D01*
X001369643Y003884546D02*
X001399595Y003884546D01*
X001399634Y003884546D02*
X001414591Y003884546D01*
X001409631Y003884546D02*
X001424588Y003884546D01*
X001424627Y003884546D02*
X001439584Y003884546D01*
X001444621Y003884546D02*
X001474574Y003884546D01*
X001479611Y003884546D02*
X001534556Y003884546D01*
X001549591Y003884546D02*
X001564548Y003884546D01*
X001899490Y003884546D02*
X001929442Y003884546D01*
X001934480Y003884546D02*
X001964432Y003884546D01*
X001964471Y003884546D02*
X001984426Y003884546D01*
X001984465Y003884546D02*
X001999422Y003884546D01*
X002219398Y003884546D02*
X002249350Y003884546D01*
X002254387Y003884546D02*
X002284340Y003884546D01*
X002284379Y003884546D02*
X002304334Y003884546D01*
X002304373Y003884546D02*
X002319330Y003884546D01*
X002374353Y003884546D02*
X002399307Y003884546D01*
X002414341Y003884546D02*
X002449292Y003884546D01*
X002449331Y003884546D02*
X002469286Y003884546D01*
X002464327Y003884546D02*
X002484282Y003884546D01*
X002489320Y003884546D02*
X002519272Y003884546D01*
X002519311Y003884546D02*
X002534268Y003884546D01*
X002529308Y003884546D02*
X002544265Y003884546D01*
X002539305Y003884546D02*
X002554262Y003884546D01*
X002569296Y003884546D02*
X002599249Y003884546D01*
X002599288Y003884546D02*
X002614244Y003884546D01*
X002609285Y003884546D02*
X002624242Y003884546D01*
X002624281Y003884546D02*
X002639237Y003884546D01*
X002649273Y003884546D02*
X002689223Y003884546D01*
X002704258Y003884546D02*
X002719214Y003884546D01*
X002804229Y003884546D02*
X002829182Y003884546D01*
X002854214Y003884546D02*
X002869171Y003884546D01*
X002869210Y003884546D02*
X002884166Y003884546D01*
X003743957Y003884546D02*
X003763912Y003884546D01*
X003783946Y003884546D02*
X003798902Y003884546D01*
X000025031Y003889543D02*
X000044987Y003889543D01*
X000050024Y003889543D02*
X000074978Y003889543D01*
X003743957Y003889543D02*
X003768911Y003889543D01*
X003788944Y003889543D02*
X003808899Y003889543D01*
X000015034Y003894539D02*
X000034989Y003894539D01*
X000050024Y003894539D02*
X000074978Y003894539D01*
X003743957Y003894539D02*
X003773909Y003894539D01*
X003778947Y003894539D02*
X003793904Y003894539D01*
X000045026Y003899535D02*
X000074978Y003899535D01*
X003743957Y003899535D02*
X003778908Y003899535D01*
X003783946Y003899535D02*
X003803901Y003899535D01*
X000020033Y003904531D02*
X000034989Y003904531D01*
X000040027Y003904531D02*
X000074978Y003904531D01*
X003748956Y003904531D02*
X003778908Y003904531D01*
X000025031Y003909527D02*
X000039988Y003909527D01*
X000035028Y003909527D02*
X000069979Y003909527D01*
X003748956Y003909527D02*
X003783907Y003909527D01*
X000015034Y003914524D02*
X000029991Y003914524D01*
X000030030Y003914524D02*
X000069979Y003914524D01*
X003748956Y003914524D02*
X003788905Y003914524D01*
X000020033Y003919520D02*
X000034989Y003919520D01*
X000040027Y003919520D02*
X000069979Y003919520D01*
X003748956Y003919520D02*
X003778908Y003919520D01*
X003773949Y003919520D02*
X003788905Y003919520D01*
X000025031Y003924516D02*
X000039988Y003924516D01*
X000050024Y003924516D02*
X000064981Y003924516D01*
X003753954Y003924516D02*
X003768911Y003924516D01*
X003763951Y003924516D02*
X003778908Y003924516D01*
X000035028Y003929512D02*
X000049985Y003929512D01*
X003753954Y003929512D02*
X003768911Y003929512D01*
X003773949Y003929512D02*
X003788905Y003929512D01*
X000045026Y003934508D02*
X000059982Y003934508D01*
X003763951Y003934508D02*
X003778908Y003934508D01*
M02*